%TF.GenerationSoftware,KiCad,Pcbnew,9.0.0*%
%TF.CreationDate,2025-06-25T09:26:05+09:00*%
%TF.ProjectId,pcb_connectors,7063625f-636f-46e6-9e65-63746f72732e,rev?*%
%TF.SameCoordinates,Original*%
%TF.FileFunction,Profile,NP*%
%FSLAX46Y46*%
G04 Gerber Fmt 4.6, Leading zero omitted, Abs format (unit mm)*
G04 Created by KiCad (PCBNEW 9.0.0) date 2025-06-25 09:26:05*
%MOMM*%
%LPD*%
G01*
G04 APERTURE LIST*
%TA.AperFunction,Profile*%
%ADD10C,0.050000*%
%TD*%
G04 APERTURE END LIST*
D10*
X150284325Y-107809950D02*
X150284308Y-89309932D01*
X150284325Y-82809950D02*
X150284325Y-75309950D01*
X157784325Y-82809950D02*
X150284325Y-82809950D01*
X163784325Y-82809950D02*
X169784325Y-82809950D01*
X157784341Y-47810000D02*
X163784341Y-47810040D01*
X128750000Y-96810000D02*
X142784316Y-96809924D01*
X115250000Y-104310000D02*
X115250001Y-110310000D01*
X101284322Y-104310000D02*
X101284321Y-110310000D01*
X115284341Y-34309992D02*
G75*
G02*
X122784333Y-26810041I7499959J-8D01*
G01*
X128750000Y-96810000D02*
G75*
G02*
X136249959Y-104310000I-41J-7500000D01*
G01*
X107784311Y-26810000D02*
G75*
G02*
X115284300Y-34309992I-11J-7500000D01*
G01*
X87784333Y-96809962D02*
G75*
G02*
X80284338Y-89309970I-33J7499962D01*
G01*
X87784322Y-117809961D02*
G75*
G02*
X80284339Y-110309961I-22J7499961D01*
G01*
X157784341Y-47810000D02*
G75*
G02*
X150284300Y-40310000I-41J7500000D01*
G01*
X150284303Y-54309970D02*
G75*
G02*
X142784311Y-61809963I-7499993J0D01*
G01*
X101284322Y-110309961D02*
G75*
G02*
X93784322Y-117809962I-7500002J1D01*
G01*
X115284346Y-69309954D02*
G75*
G02*
X122784338Y-61809956I7499994J4D01*
G01*
X163784341Y-26810000D02*
X157784341Y-26810000D01*
X87784333Y-61809962D02*
G75*
G02*
X80284338Y-54309970I-33J7499962D01*
G01*
X171284341Y-40310000D02*
G75*
G02*
X163784341Y-47810041I-7500041J0D01*
G01*
X122750000Y-117810000D02*
G75*
G02*
X115249959Y-110310000I-41J7500000D01*
G01*
X115284303Y-89309970D02*
G75*
G02*
X107784311Y-96810003I-7500033J0D01*
G01*
X136250000Y-110310000D02*
G75*
G02*
X128750000Y-117810041I-7500041J0D01*
G01*
X80284322Y-104309961D02*
X80284322Y-110309961D01*
X150284308Y-89309932D02*
G75*
G02*
X142784316Y-96809918I-7499988J2D01*
G01*
X80284343Y-34309993D02*
X80284341Y-54309970D01*
X107784310Y-26810001D02*
X87784334Y-26810002D01*
X122784333Y-61809962D02*
G75*
G02*
X115284338Y-54309970I-33J7499962D01*
G01*
X142784310Y-26810001D02*
X122784334Y-26810002D01*
X115284303Y-54309970D02*
G75*
G02*
X107784311Y-61809963I-7499993J0D01*
G01*
X150284302Y-54309970D02*
X150284341Y-40309979D01*
X107784311Y-61810000D02*
G75*
G02*
X115284300Y-69309992I-11J-7500000D01*
G01*
X80284341Y-34309992D02*
G75*
G02*
X87784333Y-26810041I7499959J-8D01*
G01*
X142784316Y-61809962D02*
G75*
G02*
X150284338Y-69309954I-16J-7500038D01*
G01*
X136250000Y-110310000D02*
X136250000Y-104310000D01*
X163784341Y-26810000D02*
G75*
G02*
X171284300Y-34310000I-41J-7500000D01*
G01*
X80284343Y-69309993D02*
X80284341Y-89309970D01*
X87784322Y-117809961D02*
X93784322Y-117809961D01*
X122784338Y-96809924D02*
G75*
G02*
X115284276Y-89309932I-38J7500024D01*
G01*
X142784349Y-26810008D02*
G75*
G02*
X150284292Y-34310000I-49J-7499992D01*
G01*
X122750000Y-117810000D02*
X128750000Y-117810000D01*
X80284322Y-104309961D02*
G75*
G02*
X87784322Y-96809962I7499998J1D01*
G01*
X93784322Y-96810000D02*
X107784352Y-96810040D01*
X93784322Y-96810000D02*
G75*
G02*
X101284321Y-104310000I-22J-7500021D01*
G01*
X80284341Y-69309992D02*
G75*
G02*
X87784333Y-61810041I7499959J-8D01*
G01*
X115250000Y-104310000D02*
G75*
G02*
X122750000Y-96810041I7499959J0D01*
G01*
X150284341Y-34310000D02*
G75*
G02*
X157784341Y-26810041I7499959J0D01*
G01*
X171284341Y-40310000D02*
X171284341Y-34310000D01*
X150284325Y-69309950D02*
G75*
G02*
X157784325Y-61809950I7500000J0D01*
G01*
X163784325Y-61809950D02*
G75*
G02*
X171284325Y-69309950I0J-7500000D01*
G01*
X171284325Y-75309950D02*
X171284325Y-69309950D01*
X157784325Y-82809950D02*
G75*
G02*
X150284325Y-75309950I0J7500000D01*
G01*
X171284325Y-75309950D02*
G75*
G02*
X163784325Y-82809950I-7500000J0D01*
G01*
X163784325Y-61809950D02*
X157784325Y-61809950D01*
X160034325Y-107809950D02*
X169784325Y-107809950D01*
X169784325Y-107809950D02*
X169784325Y-82809950D01*
X160034325Y-107809950D02*
X150284325Y-107809950D01*
M02*
