%TF.GenerationSoftware,KiCad,Pcbnew,9.0.0*%
%TF.CreationDate,2025-07-28T18:14:09+09:00*%
%TF.ProjectId,UmiusiThrusterLEDUnit,556d6975-7369-4546-9872-75737465724c,01*%
%TF.SameCoordinates,Original*%
%TF.FileFunction,Copper,L2,Bot*%
%TF.FilePolarity,Positive*%
%FSLAX46Y46*%
G04 Gerber Fmt 4.6, Leading zero omitted, Abs format (unit mm)*
G04 Created by KiCad (PCBNEW 9.0.0) date 2025-07-28 18:14:09*
%MOMM*%
%LPD*%
G01*
G04 APERTURE LIST*
%TA.AperFunction,ComponentPad*%
%ADD10R,1.700000X1.700000*%
%TD*%
%TA.AperFunction,ComponentPad*%
%ADD11O,1.700000X1.700000*%
%TD*%
%TA.AperFunction,ComponentPad*%
%ADD12C,1.600000*%
%TD*%
%TA.AperFunction,ComponentPad*%
%ADD13O,1.600000X1.600000*%
%TD*%
%TA.AperFunction,ViaPad*%
%ADD14C,0.600000*%
%TD*%
%TA.AperFunction,Conductor*%
%ADD15C,0.400000*%
%TD*%
G04 APERTURE END LIST*
D10*
%TO.P,J1,1,Pin_1*%
%TO.N,G_LED*%
X51000000Y-65800000D03*
D11*
%TO.P,J1,2,Pin_2*%
%TO.N,R_LED*%
X51000000Y-63260000D03*
%TO.P,J1,3,Pin_3*%
%TO.N,B_LED*%
X51000000Y-60720000D03*
%TO.P,J1,4,Pin_4*%
%TO.N,GND*%
X51000000Y-58180000D03*
%TD*%
D12*
%TO.P,R1,1*%
%TO.N,Net-(D1-GA)*%
X61810000Y-66050000D03*
D13*
%TO.P,R1,2*%
%TO.N,G_LED*%
X54190000Y-66050000D03*
%TD*%
D12*
%TO.P,R2,1*%
%TO.N,Net-(D1-PAD)*%
X61810000Y-62000000D03*
D13*
%TO.P,R2,2*%
%TO.N,R_LED*%
X54190000Y-62000000D03*
%TD*%
D12*
%TO.P,R3,1*%
%TO.N,Net-(D1-BA)*%
X61810000Y-57950000D03*
D13*
%TO.P,R3,2*%
%TO.N,B_LED*%
X54190000Y-57950000D03*
%TD*%
D14*
%TO.N,GND*%
X63000000Y-47000000D03*
X58000000Y-77000000D03*
X53000000Y-72000000D03*
X78000000Y-77000000D03*
X68000000Y-52000000D03*
X68000000Y-62000000D03*
X48000000Y-72000000D03*
X63000000Y-42000000D03*
X68000000Y-72000000D03*
X63000000Y-77000000D03*
X54000000Y-60000000D03*
X78000000Y-47000000D03*
X38000000Y-47000000D03*
X48000000Y-87000000D03*
X33000000Y-52000000D03*
X43000000Y-72000000D03*
X73000000Y-77000000D03*
X53000000Y-37000000D03*
X73000000Y-57000000D03*
X53000000Y-52000000D03*
X53000000Y-82000000D03*
X78000000Y-57000000D03*
X63000000Y-87000000D03*
X43000000Y-47000000D03*
X68000000Y-42000000D03*
X78000000Y-72000000D03*
X53000000Y-47000000D03*
X58000000Y-72000000D03*
X83000000Y-57000000D03*
X73000000Y-62000000D03*
X68000000Y-47000000D03*
X68000000Y-37000000D03*
X83000000Y-62000000D03*
X73000000Y-67000000D03*
X53000000Y-42000000D03*
X58000000Y-42000000D03*
X73000000Y-72000000D03*
X48000000Y-52000000D03*
X78000000Y-62000000D03*
X58000000Y-52000000D03*
X58000000Y-87000000D03*
X68000000Y-87000000D03*
X43000000Y-82000000D03*
X68000000Y-57000000D03*
X63000000Y-82000000D03*
X48000000Y-47000000D03*
X73000000Y-82000000D03*
X33000000Y-72000000D03*
X83000000Y-52000000D03*
X48000000Y-82000000D03*
X48000000Y-42000000D03*
X53000000Y-77000000D03*
X43000000Y-52000000D03*
X43000000Y-77000000D03*
X68000000Y-67000000D03*
X58000000Y-82000000D03*
X73000000Y-42000000D03*
X38000000Y-77000000D03*
X78000000Y-67000000D03*
X83000000Y-72000000D03*
X43000000Y-42000000D03*
X83000000Y-67000000D03*
X58000000Y-37000000D03*
X53000000Y-87000000D03*
X68000000Y-77000000D03*
X48000000Y-37000000D03*
X68000000Y-82000000D03*
X48000000Y-77000000D03*
X54000000Y-64250000D03*
X73000000Y-47000000D03*
X78000000Y-52000000D03*
X58000000Y-47000000D03*
X63000000Y-37000000D03*
X63000000Y-72000000D03*
X63000000Y-52000000D03*
X38000000Y-52000000D03*
X73000000Y-52000000D03*
X38000000Y-72000000D03*
%TD*%
D15*
%TO.N,B_LED*%
X53890000Y-58250000D02*
X54190000Y-57950000D01*
%TD*%
%TA.AperFunction,Conductor*%
%TO.N,GND*%
G36*
X58368547Y-33502926D02*
G01*
X59420553Y-33535969D01*
X59425132Y-33536198D01*
X60475211Y-33608233D01*
X60479696Y-33608624D01*
X61526377Y-33719552D01*
X61530915Y-33720118D01*
X62572756Y-33869785D01*
X62577248Y-33870516D01*
X63612877Y-34058727D01*
X63617311Y-34059619D01*
X64645190Y-34286095D01*
X64649578Y-34287147D01*
X65668428Y-34551607D01*
X65672764Y-34552818D01*
X66681080Y-34854873D01*
X66685426Y-34856264D01*
X66976899Y-34955499D01*
X67681736Y-35195467D01*
X67686062Y-35197029D01*
X68669205Y-35572984D01*
X68673404Y-35574680D01*
X69641887Y-35986821D01*
X69646050Y-35988684D01*
X70598610Y-36436470D01*
X70602649Y-36438461D01*
X71314616Y-36805980D01*
X71537962Y-36921272D01*
X71541982Y-36923442D01*
X72458723Y-37440595D01*
X72462606Y-37442881D01*
X72816961Y-37660486D01*
X73359534Y-37993673D01*
X73363403Y-37996148D01*
X73626400Y-38171406D01*
X74239259Y-38579805D01*
X74243038Y-38582426D01*
X75096636Y-39198157D01*
X75100316Y-39200917D01*
X75930483Y-39847871D01*
X75934058Y-39850765D01*
X76739663Y-40528064D01*
X76743128Y-40531089D01*
X77523082Y-41237818D01*
X77526432Y-41240968D01*
X78279637Y-41976130D01*
X78282867Y-41979403D01*
X78540038Y-42249751D01*
X79008252Y-42741954D01*
X79011360Y-42745344D01*
X79708007Y-43534317D01*
X79710987Y-43537821D01*
X79914510Y-43786313D01*
X80377889Y-44352079D01*
X80380701Y-44355645D01*
X81016968Y-45194101D01*
X81019675Y-45197809D01*
X81201882Y-45457373D01*
X81624392Y-46059262D01*
X81626964Y-46063075D01*
X82199309Y-46946348D01*
X82201738Y-46950254D01*
X82740924Y-47854129D01*
X82743207Y-47858122D01*
X83248515Y-48781396D01*
X83250648Y-48785471D01*
X83721367Y-49726847D01*
X83723347Y-49730998D01*
X84158827Y-50689174D01*
X84160652Y-50693396D01*
X84560297Y-51667063D01*
X84561964Y-51671349D01*
X84925230Y-52659177D01*
X84926737Y-52663523D01*
X85253113Y-53664125D01*
X85254458Y-53668523D01*
X85543505Y-54680552D01*
X85544686Y-54684997D01*
X85796005Y-55707060D01*
X85797020Y-55711546D01*
X86010261Y-56742216D01*
X86011109Y-56746737D01*
X86185978Y-57784593D01*
X86186658Y-57789142D01*
X86322918Y-58832781D01*
X86323429Y-58837351D01*
X86420893Y-59885330D01*
X86421234Y-59889917D01*
X86479765Y-60940775D01*
X86479936Y-60945371D01*
X86499456Y-61997700D01*
X86499456Y-62002300D01*
X86479936Y-63054628D01*
X86479765Y-63059224D01*
X86421234Y-64110082D01*
X86420893Y-64114669D01*
X86323429Y-65162648D01*
X86322918Y-65167218D01*
X86186658Y-66210857D01*
X86185978Y-66215406D01*
X86011109Y-67253262D01*
X86010261Y-67257783D01*
X85797020Y-68288453D01*
X85796005Y-68292939D01*
X85544686Y-69315002D01*
X85543505Y-69319447D01*
X85254458Y-70331476D01*
X85253113Y-70335874D01*
X84926737Y-71336476D01*
X84925230Y-71340822D01*
X84561964Y-72328650D01*
X84560297Y-72332936D01*
X84160652Y-73306603D01*
X84158827Y-73310825D01*
X83723347Y-74269001D01*
X83721367Y-74273152D01*
X83250648Y-75214528D01*
X83248515Y-75218603D01*
X82743207Y-76141877D01*
X82740924Y-76145870D01*
X82201738Y-77049745D01*
X82199309Y-77053651D01*
X81626964Y-77936924D01*
X81624392Y-77940737D01*
X81019680Y-78802183D01*
X81016968Y-78805898D01*
X80380719Y-79644332D01*
X80377871Y-79647943D01*
X79710987Y-80462178D01*
X79708007Y-80465682D01*
X79011360Y-81254655D01*
X79008252Y-81258045D01*
X78282868Y-82020595D01*
X78279637Y-82023869D01*
X77526432Y-82759031D01*
X77523082Y-82762181D01*
X76743128Y-83468910D01*
X76739663Y-83471935D01*
X75934058Y-84149234D01*
X75930483Y-84152128D01*
X75100316Y-84799082D01*
X75096636Y-84801842D01*
X74243038Y-85417573D01*
X74239259Y-85420194D01*
X73363408Y-86003847D01*
X73359534Y-86006326D01*
X72462626Y-86557106D01*
X72458683Y-86559427D01*
X71978406Y-86830362D01*
X71542009Y-87076542D01*
X71537962Y-87078727D01*
X70602692Y-87561517D01*
X70598567Y-87563550D01*
X69646067Y-88011307D01*
X69641869Y-88013186D01*
X68673437Y-88425305D01*
X68669172Y-88427028D01*
X67686062Y-88802970D01*
X67681736Y-88804532D01*
X66685443Y-89143729D01*
X66681063Y-89145131D01*
X65672811Y-89447167D01*
X65668381Y-89448405D01*
X64649620Y-89712842D01*
X64645147Y-89713914D01*
X63617349Y-89940372D01*
X63612840Y-89941279D01*
X62577272Y-90129479D01*
X62572732Y-90130217D01*
X61530928Y-90279879D01*
X61526364Y-90280448D01*
X60479745Y-90391370D01*
X60475163Y-90391770D01*
X59425139Y-90463800D01*
X59420546Y-90464030D01*
X58368554Y-90497072D01*
X58363955Y-90497131D01*
X57311491Y-90491138D01*
X57306893Y-90491027D01*
X56255344Y-90446005D01*
X56250753Y-90445723D01*
X55201613Y-90361735D01*
X55197036Y-90361283D01*
X54151716Y-90238444D01*
X54147159Y-90237822D01*
X53107144Y-90076306D01*
X53102613Y-90075516D01*
X52069304Y-89875541D01*
X52064805Y-89874584D01*
X51039584Y-89636418D01*
X51035124Y-89635294D01*
X50019478Y-89359281D01*
X50015063Y-89357993D01*
X49010340Y-89044500D01*
X49005975Y-89043049D01*
X48509764Y-88867778D01*
X48013537Y-88692500D01*
X48009264Y-88690901D01*
X47030512Y-88303789D01*
X47026275Y-88302022D01*
X46062590Y-87878896D01*
X46058413Y-87876969D01*
X45111077Y-87418392D01*
X45106976Y-87416312D01*
X44177274Y-86922906D01*
X44173293Y-86920698D01*
X43262502Y-86393138D01*
X43258579Y-86390767D01*
X42368030Y-85829824D01*
X42364184Y-85827301D01*
X41768092Y-85420194D01*
X41495026Y-85233700D01*
X41491283Y-85231041D01*
X40908523Y-84800501D01*
X40644762Y-84605635D01*
X40641115Y-84602835D01*
X39818344Y-83946443D01*
X39814803Y-83943508D01*
X39016980Y-83257092D01*
X39013549Y-83254028D01*
X38241698Y-82538464D01*
X38238384Y-82535275D01*
X37493629Y-81791608D01*
X37490435Y-81788299D01*
X36773745Y-81017494D01*
X36770676Y-81014068D01*
X36083071Y-80217224D01*
X36080131Y-80213686D01*
X35857725Y-79935739D01*
X35798987Y-79862332D01*
X37899500Y-79862332D01*
X37899500Y-80137667D01*
X37899501Y-80137684D01*
X37935438Y-80410655D01*
X37935439Y-80410660D01*
X37935440Y-80410666D01*
X37956343Y-80488676D01*
X38006704Y-80676630D01*
X38112075Y-80931017D01*
X38112080Y-80931028D01*
X38161030Y-81015810D01*
X38249751Y-81169479D01*
X38249753Y-81169482D01*
X38249754Y-81169483D01*
X38417370Y-81387926D01*
X38417376Y-81387933D01*
X38612066Y-81582623D01*
X38612072Y-81582628D01*
X38830521Y-81750249D01*
X38983778Y-81838732D01*
X39068971Y-81887919D01*
X39068976Y-81887921D01*
X39068979Y-81887923D01*
X39323368Y-81993295D01*
X39589334Y-82064560D01*
X39862326Y-82100500D01*
X39862333Y-82100500D01*
X40137667Y-82100500D01*
X40137674Y-82100500D01*
X40410666Y-82064560D01*
X40676632Y-81993295D01*
X40931021Y-81887923D01*
X41169479Y-81750249D01*
X41387928Y-81582628D01*
X41582628Y-81387928D01*
X41750249Y-81169479D01*
X41887923Y-80931021D01*
X41993295Y-80676632D01*
X42064560Y-80410666D01*
X42100500Y-80137674D01*
X42100500Y-79862332D01*
X73899500Y-79862332D01*
X73899500Y-80137667D01*
X73899501Y-80137684D01*
X73935438Y-80410655D01*
X73935439Y-80410660D01*
X73935440Y-80410666D01*
X73956343Y-80488676D01*
X74006704Y-80676630D01*
X74112075Y-80931017D01*
X74112080Y-80931028D01*
X74161030Y-81015810D01*
X74249751Y-81169479D01*
X74249753Y-81169482D01*
X74249754Y-81169483D01*
X74417370Y-81387926D01*
X74417376Y-81387933D01*
X74612066Y-81582623D01*
X74612072Y-81582628D01*
X74830521Y-81750249D01*
X74983778Y-81838732D01*
X75068971Y-81887919D01*
X75068976Y-81887921D01*
X75068979Y-81887923D01*
X75323368Y-81993295D01*
X75589334Y-82064560D01*
X75862326Y-82100500D01*
X75862333Y-82100500D01*
X76137667Y-82100500D01*
X76137674Y-82100500D01*
X76410666Y-82064560D01*
X76676632Y-81993295D01*
X76931021Y-81887923D01*
X77169479Y-81750249D01*
X77387928Y-81582628D01*
X77582628Y-81387928D01*
X77750249Y-81169479D01*
X77887923Y-80931021D01*
X77993295Y-80676632D01*
X78064560Y-80410666D01*
X78100500Y-80137674D01*
X78100500Y-79862326D01*
X78064560Y-79589334D01*
X77993295Y-79323368D01*
X77887923Y-79068979D01*
X77887921Y-79068976D01*
X77887919Y-79068971D01*
X77838732Y-78983778D01*
X77750249Y-78830521D01*
X77582628Y-78612072D01*
X77582623Y-78612066D01*
X77387933Y-78417376D01*
X77387926Y-78417370D01*
X77169483Y-78249754D01*
X77169482Y-78249753D01*
X77169479Y-78249751D01*
X77074407Y-78194861D01*
X76931028Y-78112080D01*
X76931017Y-78112075D01*
X76676630Y-78006704D01*
X76543649Y-77971072D01*
X76410666Y-77935440D01*
X76410660Y-77935439D01*
X76410655Y-77935438D01*
X76137684Y-77899501D01*
X76137679Y-77899500D01*
X76137674Y-77899500D01*
X75862326Y-77899500D01*
X75862320Y-77899500D01*
X75862315Y-77899501D01*
X75589344Y-77935438D01*
X75589337Y-77935439D01*
X75589334Y-77935440D01*
X75533125Y-77950500D01*
X75323369Y-78006704D01*
X75068982Y-78112075D01*
X75068971Y-78112080D01*
X74830516Y-78249754D01*
X74612073Y-78417370D01*
X74612066Y-78417376D01*
X74417376Y-78612066D01*
X74417370Y-78612073D01*
X74249754Y-78830516D01*
X74112080Y-79068971D01*
X74112075Y-79068982D01*
X74006704Y-79323369D01*
X73935441Y-79589331D01*
X73935438Y-79589344D01*
X73899501Y-79862315D01*
X73899500Y-79862332D01*
X42100500Y-79862332D01*
X42100500Y-79862326D01*
X42064560Y-79589334D01*
X41993295Y-79323368D01*
X41887923Y-79068979D01*
X41887921Y-79068976D01*
X41887919Y-79068971D01*
X41838732Y-78983778D01*
X41750249Y-78830521D01*
X41582628Y-78612072D01*
X41582623Y-78612066D01*
X41387933Y-78417376D01*
X41387926Y-78417370D01*
X41169483Y-78249754D01*
X41169482Y-78249753D01*
X41169479Y-78249751D01*
X41074407Y-78194861D01*
X40931028Y-78112080D01*
X40931017Y-78112075D01*
X40676630Y-78006704D01*
X40543649Y-77971072D01*
X40410666Y-77935440D01*
X40410660Y-77935439D01*
X40410655Y-77935438D01*
X40137684Y-77899501D01*
X40137679Y-77899500D01*
X40137674Y-77899500D01*
X39862326Y-77899500D01*
X39862320Y-77899500D01*
X39862315Y-77899501D01*
X39589344Y-77935438D01*
X39589337Y-77935439D01*
X39589334Y-77935440D01*
X39533125Y-77950500D01*
X39323369Y-78006704D01*
X39068982Y-78112075D01*
X39068971Y-78112080D01*
X38830516Y-78249754D01*
X38612073Y-78417370D01*
X38612066Y-78417376D01*
X38417376Y-78612066D01*
X38417370Y-78612073D01*
X38249754Y-78830516D01*
X38112080Y-79068971D01*
X38112075Y-79068982D01*
X38006704Y-79323369D01*
X37935441Y-79589331D01*
X37935438Y-79589344D01*
X37899501Y-79862315D01*
X37899500Y-79862332D01*
X35798987Y-79862332D01*
X35422560Y-79391901D01*
X35419754Y-79388258D01*
X34952104Y-78757200D01*
X34793083Y-78542613D01*
X34790423Y-78538880D01*
X34707177Y-78417372D01*
X34195569Y-77670612D01*
X34193050Y-77666785D01*
X33630807Y-76777057D01*
X33628422Y-76773124D01*
X33261549Y-76141877D01*
X33099540Y-75863122D01*
X33097318Y-75859129D01*
X32602554Y-74930149D01*
X32600468Y-74926051D01*
X32140508Y-73979386D01*
X32138575Y-73975212D01*
X31714041Y-73012146D01*
X31712264Y-73007904D01*
X31663555Y-72885274D01*
X31324999Y-72032933D01*
X31321258Y-72022068D01*
X31262868Y-71822992D01*
X31259014Y-71805004D01*
X31231189Y-71602900D01*
X31230039Y-71584555D01*
X31232420Y-71380541D01*
X31233999Y-71362219D01*
X31237456Y-71340822D01*
X31266534Y-71160817D01*
X31270805Y-71142936D01*
X31332777Y-70948566D01*
X31339645Y-70931511D01*
X31429698Y-70748434D01*
X31439013Y-70732588D01*
X31555155Y-70564854D01*
X31566707Y-70550565D01*
X31706396Y-70401849D01*
X31719939Y-70389423D01*
X31880081Y-70263019D01*
X31895312Y-70252733D01*
X32072393Y-70151412D01*
X32088987Y-70143489D01*
X32279105Y-70069482D01*
X32296691Y-70064100D01*
X32495673Y-70019032D01*
X32513846Y-70016314D01*
X32721859Y-70000841D01*
X32731057Y-70000500D01*
X32792389Y-70000500D01*
X40495445Y-70000500D01*
X40495890Y-70000500D01*
X40511402Y-70000556D01*
X40642231Y-70001029D01*
X40642233Y-70001029D01*
X40642233Y-70001028D01*
X40642238Y-70001029D01*
X40943377Y-69965521D01*
X40943387Y-69965518D01*
X40943390Y-69965518D01*
X41238018Y-69893889D01*
X41238019Y-69893888D01*
X41238021Y-69893888D01*
X41521851Y-69787181D01*
X41790709Y-69646962D01*
X42040655Y-69475287D01*
X42268028Y-69274669D01*
X42469497Y-69048050D01*
X42642108Y-68798748D01*
X42783334Y-68530418D01*
X42891105Y-68246990D01*
X42963841Y-67952617D01*
X43000478Y-67651613D01*
X43000488Y-67574585D01*
X43000500Y-67574435D01*
X43000500Y-58580000D01*
X49710494Y-58580000D01*
X49748907Y-58698222D01*
X49845379Y-58887557D01*
X49970272Y-59059459D01*
X49970276Y-59059464D01*
X50120535Y-59209723D01*
X50120540Y-59209727D01*
X50292442Y-59334620D01*
X50481780Y-59431094D01*
X50510705Y-59440492D01*
X50568381Y-59479929D01*
X50595580Y-59544287D01*
X50583667Y-59613134D01*
X50536424Y-59664610D01*
X50528685Y-59668908D01*
X50397004Y-59736004D01*
X50250505Y-59842441D01*
X50250500Y-59842445D01*
X50122445Y-59970500D01*
X50122441Y-59970505D01*
X50016006Y-60117002D01*
X49933788Y-60278360D01*
X49933787Y-60278363D01*
X49877829Y-60450589D01*
X49849500Y-60629448D01*
X49849500Y-60810551D01*
X49877829Y-60989410D01*
X49933787Y-61161636D01*
X49933788Y-61161639D01*
X50016006Y-61322997D01*
X50122441Y-61469494D01*
X50122445Y-61469499D01*
X50250500Y-61597554D01*
X50250505Y-61597558D01*
X50378287Y-61690396D01*
X50397006Y-61703996D01*
X50502484Y-61757740D01*
X50558360Y-61786211D01*
X50558363Y-61786212D01*
X50644476Y-61814191D01*
X50730591Y-61842171D01*
X50803639Y-61853740D01*
X50890678Y-61867527D01*
X50953813Y-61897456D01*
X50990744Y-61956768D01*
X50989746Y-62026631D01*
X50951136Y-62084863D01*
X50890678Y-62112473D01*
X50730589Y-62137829D01*
X50558363Y-62193787D01*
X50558360Y-62193788D01*
X50397002Y-62276006D01*
X50250505Y-62382441D01*
X50250500Y-62382445D01*
X50122445Y-62510500D01*
X50122441Y-62510505D01*
X50016006Y-62657002D01*
X49933788Y-62818360D01*
X49933787Y-62818363D01*
X49877829Y-62990589D01*
X49849500Y-63169448D01*
X49849500Y-63350551D01*
X49877829Y-63529410D01*
X49933787Y-63701636D01*
X49933788Y-63701639D01*
X50016006Y-63862997D01*
X50122441Y-64009494D01*
X50122445Y-64009499D01*
X50250500Y-64137554D01*
X50250505Y-64137558D01*
X50378287Y-64230396D01*
X50397006Y-64243996D01*
X50502484Y-64297740D01*
X50558360Y-64326211D01*
X50558363Y-64326212D01*
X50644476Y-64354191D01*
X50730591Y-64382171D01*
X50834716Y-64398662D01*
X50862270Y-64403027D01*
X50925405Y-64432956D01*
X50962336Y-64492268D01*
X50961338Y-64562130D01*
X50922728Y-64620363D01*
X50858765Y-64648477D01*
X50842872Y-64649500D01*
X50105143Y-64649500D01*
X50105117Y-64649502D01*
X50080012Y-64652413D01*
X50080008Y-64652415D01*
X49977235Y-64697793D01*
X49897794Y-64777234D01*
X49852415Y-64880006D01*
X49852415Y-64880008D01*
X49849500Y-64905131D01*
X49849500Y-66694856D01*
X49849502Y-66694882D01*
X49852413Y-66719987D01*
X49852415Y-66719991D01*
X49897793Y-66822764D01*
X49897794Y-66822765D01*
X49977235Y-66902206D01*
X50080009Y-66947585D01*
X50105135Y-66950500D01*
X51894864Y-66950499D01*
X51894879Y-66950497D01*
X51894882Y-66950497D01*
X51919987Y-66947586D01*
X51919988Y-66947585D01*
X51919991Y-66947585D01*
X52022765Y-66902206D01*
X52102206Y-66822765D01*
X52147585Y-66719991D01*
X52150500Y-66694865D01*
X52150499Y-65963389D01*
X53089500Y-65963389D01*
X53089500Y-66136611D01*
X53116598Y-66307701D01*
X53170127Y-66472445D01*
X53248768Y-66626788D01*
X53350586Y-66766928D01*
X53473072Y-66889414D01*
X53613212Y-66991232D01*
X53767555Y-67069873D01*
X53932299Y-67123402D01*
X54103389Y-67150500D01*
X54103390Y-67150500D01*
X54276610Y-67150500D01*
X54276611Y-67150500D01*
X54447701Y-67123402D01*
X54612445Y-67069873D01*
X54766788Y-66991232D01*
X54906928Y-66889414D01*
X55029414Y-66766928D01*
X55131232Y-66626788D01*
X55209873Y-66472445D01*
X55263402Y-66307701D01*
X55290500Y-66136611D01*
X55290500Y-65963389D01*
X60709500Y-65963389D01*
X60709500Y-66136611D01*
X60736598Y-66307701D01*
X60790127Y-66472445D01*
X60868768Y-66626788D01*
X60970586Y-66766928D01*
X61093072Y-66889414D01*
X61233212Y-66991232D01*
X61387555Y-67069873D01*
X61552299Y-67123402D01*
X61723389Y-67150500D01*
X61723390Y-67150500D01*
X61896610Y-67150500D01*
X61896611Y-67150500D01*
X62067701Y-67123402D01*
X62232445Y-67069873D01*
X62386788Y-66991232D01*
X62526928Y-66889414D01*
X62649414Y-66766928D01*
X62751232Y-66626788D01*
X62829873Y-66472445D01*
X62883402Y-66307701D01*
X62910500Y-66136611D01*
X62910500Y-65963389D01*
X62883402Y-65792299D01*
X62829873Y-65627555D01*
X62751232Y-65473212D01*
X62649414Y-65333072D01*
X62526928Y-65210586D01*
X62386788Y-65108768D01*
X62232445Y-65030127D01*
X62067701Y-64976598D01*
X62067699Y-64976597D01*
X62067698Y-64976597D01*
X61936271Y-64955781D01*
X61896611Y-64949500D01*
X61723389Y-64949500D01*
X61683728Y-64955781D01*
X61552302Y-64976597D01*
X61387552Y-65030128D01*
X61233211Y-65108768D01*
X61159053Y-65162648D01*
X61093072Y-65210586D01*
X61093070Y-65210588D01*
X61093069Y-65210588D01*
X60970588Y-65333069D01*
X60970588Y-65333070D01*
X60970586Y-65333072D01*
X60926859Y-65393256D01*
X60868768Y-65473211D01*
X60790128Y-65627552D01*
X60736597Y-65792302D01*
X60710272Y-65958517D01*
X60709500Y-65963389D01*
X55290500Y-65963389D01*
X55263402Y-65792299D01*
X55209873Y-65627555D01*
X55131232Y-65473212D01*
X55029414Y-65333072D01*
X54906928Y-65210586D01*
X54766788Y-65108768D01*
X54612445Y-65030127D01*
X54447701Y-64976598D01*
X54447699Y-64976597D01*
X54447698Y-64976597D01*
X54316271Y-64955781D01*
X54276611Y-64949500D01*
X54103389Y-64949500D01*
X54063728Y-64955781D01*
X53932302Y-64976597D01*
X53767552Y-65030128D01*
X53613211Y-65108768D01*
X53539053Y-65162648D01*
X53473072Y-65210586D01*
X53473070Y-65210588D01*
X53473069Y-65210588D01*
X53350588Y-65333069D01*
X53350588Y-65333070D01*
X53350586Y-65333072D01*
X53306859Y-65393256D01*
X53248768Y-65473211D01*
X53170128Y-65627552D01*
X53116597Y-65792302D01*
X53090272Y-65958517D01*
X53089500Y-65963389D01*
X52150499Y-65963389D01*
X52150499Y-65792302D01*
X52150499Y-64905143D01*
X52150499Y-64905136D01*
X52150497Y-64905117D01*
X52147586Y-64880012D01*
X52147585Y-64880010D01*
X52147585Y-64880009D01*
X52102206Y-64777235D01*
X52022765Y-64697794D01*
X52019628Y-64696409D01*
X51919992Y-64652415D01*
X51894868Y-64649500D01*
X51157128Y-64649500D01*
X51090089Y-64629815D01*
X51044334Y-64577011D01*
X51034390Y-64507853D01*
X51063415Y-64444297D01*
X51122193Y-64406523D01*
X51137730Y-64403027D01*
X51161014Y-64399338D01*
X51269409Y-64382171D01*
X51441639Y-64326211D01*
X51602994Y-64243996D01*
X51749501Y-64137553D01*
X51877553Y-64009501D01*
X51983996Y-63862994D01*
X52066211Y-63701639D01*
X52122171Y-63529409D01*
X52136765Y-63437259D01*
X52150500Y-63350551D01*
X52150500Y-63169448D01*
X52132313Y-63054628D01*
X52122171Y-62990591D01*
X52094191Y-62904476D01*
X52066212Y-62818363D01*
X52066211Y-62818360D01*
X52014528Y-62716928D01*
X51983996Y-62657006D01*
X51925715Y-62576788D01*
X51877558Y-62510505D01*
X51877554Y-62510500D01*
X51749499Y-62382445D01*
X51749494Y-62382441D01*
X51602997Y-62276006D01*
X51602996Y-62276005D01*
X51602994Y-62276004D01*
X51551300Y-62249664D01*
X51441639Y-62193788D01*
X51441636Y-62193787D01*
X51269410Y-62137829D01*
X51109321Y-62112473D01*
X51046186Y-62082544D01*
X51009255Y-62023232D01*
X51010253Y-61953370D01*
X51036761Y-61913389D01*
X53089500Y-61913389D01*
X53089500Y-62086611D01*
X53116598Y-62257701D01*
X53170127Y-62422445D01*
X53248768Y-62576788D01*
X53350586Y-62716928D01*
X53473072Y-62839414D01*
X53613212Y-62941232D01*
X53767555Y-63019873D01*
X53932299Y-63073402D01*
X54103389Y-63100500D01*
X54103390Y-63100500D01*
X54276610Y-63100500D01*
X54276611Y-63100500D01*
X54447701Y-63073402D01*
X54612445Y-63019873D01*
X54766788Y-62941232D01*
X54906928Y-62839414D01*
X55029414Y-62716928D01*
X55131232Y-62576788D01*
X55209873Y-62422445D01*
X55263402Y-62257701D01*
X55290500Y-62086611D01*
X55290500Y-61913389D01*
X60709500Y-61913389D01*
X60709500Y-62086611D01*
X60736598Y-62257701D01*
X60790127Y-62422445D01*
X60868768Y-62576788D01*
X60970586Y-62716928D01*
X61093072Y-62839414D01*
X61233212Y-62941232D01*
X61387555Y-63019873D01*
X61552299Y-63073402D01*
X61723389Y-63100500D01*
X61723390Y-63100500D01*
X61896610Y-63100500D01*
X61896611Y-63100500D01*
X62067701Y-63073402D01*
X62232445Y-63019873D01*
X62386788Y-62941232D01*
X62526928Y-62839414D01*
X62649414Y-62716928D01*
X62751232Y-62576788D01*
X62829873Y-62422445D01*
X62883402Y-62257701D01*
X62910500Y-62086611D01*
X62910500Y-61913389D01*
X62883402Y-61742299D01*
X62829873Y-61577555D01*
X62751232Y-61423212D01*
X62649414Y-61283072D01*
X62526928Y-61160586D01*
X62386788Y-61058768D01*
X62232445Y-60980127D01*
X62067701Y-60926598D01*
X62067699Y-60926597D01*
X62067698Y-60926597D01*
X61936271Y-60905781D01*
X61896611Y-60899500D01*
X61723389Y-60899500D01*
X61683728Y-60905781D01*
X61552302Y-60926597D01*
X61387552Y-60980128D01*
X61233211Y-61058768D01*
X61153256Y-61116859D01*
X61093072Y-61160586D01*
X61093070Y-61160588D01*
X61093069Y-61160588D01*
X60970588Y-61283069D01*
X60970588Y-61283070D01*
X60970586Y-61283072D01*
X60941581Y-61322994D01*
X60868768Y-61423211D01*
X60790128Y-61577552D01*
X60736597Y-61742302D01*
X60709500Y-61913389D01*
X55290500Y-61913389D01*
X55263402Y-61742299D01*
X55209873Y-61577555D01*
X55131232Y-61423212D01*
X55029414Y-61283072D01*
X54906928Y-61160586D01*
X54766788Y-61058768D01*
X54612445Y-60980127D01*
X54447701Y-60926598D01*
X54447699Y-60926597D01*
X54447698Y-60926597D01*
X54316271Y-60905781D01*
X54276611Y-60899500D01*
X54103389Y-60899500D01*
X54063728Y-60905781D01*
X53932302Y-60926597D01*
X53767552Y-60980128D01*
X53613211Y-61058768D01*
X53533256Y-61116859D01*
X53473072Y-61160586D01*
X53473070Y-61160588D01*
X53473069Y-61160588D01*
X53350588Y-61283069D01*
X53350588Y-61283070D01*
X53350586Y-61283072D01*
X53321581Y-61322994D01*
X53248768Y-61423211D01*
X53170128Y-61577552D01*
X53116597Y-61742302D01*
X53089500Y-61913389D01*
X51036761Y-61913389D01*
X51048863Y-61895137D01*
X51109321Y-61867527D01*
X51179425Y-61856422D01*
X51269409Y-61842171D01*
X51373654Y-61808300D01*
X51428175Y-61790586D01*
X51441636Y-61786212D01*
X51441639Y-61786211D01*
X51602994Y-61703996D01*
X51749501Y-61597553D01*
X51877553Y-61469501D01*
X51983996Y-61322994D01*
X52066211Y-61161639D01*
X52066553Y-61160588D01*
X52099635Y-61058768D01*
X52122171Y-60989409D01*
X52136765Y-60897259D01*
X52150500Y-60810551D01*
X52150500Y-60629448D01*
X52134019Y-60525397D01*
X52122171Y-60450591D01*
X52066211Y-60278361D01*
X52066211Y-60278360D01*
X52037740Y-60222484D01*
X51983996Y-60117006D01*
X51970396Y-60098287D01*
X51877558Y-59970505D01*
X51877554Y-59970500D01*
X51749499Y-59842445D01*
X51749494Y-59842441D01*
X51602995Y-59736004D01*
X51471314Y-59668908D01*
X51420519Y-59620934D01*
X51403724Y-59553113D01*
X51426262Y-59486978D01*
X51480977Y-59443527D01*
X51489295Y-59440492D01*
X51518217Y-59431095D01*
X51707557Y-59334620D01*
X51879459Y-59209727D01*
X51879464Y-59209723D01*
X52029723Y-59059464D01*
X52029727Y-59059459D01*
X52154620Y-58887557D01*
X52251092Y-58698222D01*
X52289506Y-58580000D01*
X51307106Y-58580000D01*
X51400099Y-58487007D01*
X51465925Y-58372993D01*
X51500000Y-58245826D01*
X51500000Y-58114174D01*
X51465925Y-57987007D01*
X51400099Y-57872993D01*
X51390495Y-57863389D01*
X53089500Y-57863389D01*
X53089500Y-58036611D01*
X53116598Y-58207701D01*
X53170127Y-58372445D01*
X53248768Y-58526788D01*
X53350586Y-58666928D01*
X53473072Y-58789414D01*
X53613212Y-58891232D01*
X53767555Y-58969873D01*
X53932299Y-59023402D01*
X54103389Y-59050500D01*
X54103390Y-59050500D01*
X54276610Y-59050500D01*
X54276611Y-59050500D01*
X54447701Y-59023402D01*
X54612445Y-58969873D01*
X54766788Y-58891232D01*
X54906928Y-58789414D01*
X55029414Y-58666928D01*
X55131232Y-58526788D01*
X55209873Y-58372445D01*
X55263402Y-58207701D01*
X55290500Y-58036611D01*
X55290500Y-57863389D01*
X60709500Y-57863389D01*
X60709500Y-58036611D01*
X60736598Y-58207701D01*
X60790127Y-58372445D01*
X60868768Y-58526788D01*
X60970586Y-58666928D01*
X61093072Y-58789414D01*
X61233212Y-58891232D01*
X61387555Y-58969873D01*
X61552299Y-59023402D01*
X61723389Y-59050500D01*
X61723390Y-59050500D01*
X61896610Y-59050500D01*
X61896611Y-59050500D01*
X62067701Y-59023402D01*
X62232445Y-58969873D01*
X62386788Y-58891232D01*
X62526928Y-58789414D01*
X62649414Y-58666928D01*
X62751232Y-58526788D01*
X62829873Y-58372445D01*
X62883402Y-58207701D01*
X62910500Y-58036611D01*
X62910500Y-57863389D01*
X62883402Y-57692299D01*
X62829873Y-57527555D01*
X62751232Y-57373212D01*
X62649414Y-57233072D01*
X62526928Y-57110586D01*
X62386788Y-57008768D01*
X62232445Y-56930127D01*
X62067701Y-56876598D01*
X62067699Y-56876597D01*
X62067698Y-56876597D01*
X61936271Y-56855781D01*
X61896611Y-56849500D01*
X61723389Y-56849500D01*
X61683728Y-56855781D01*
X61552302Y-56876597D01*
X61387552Y-56930128D01*
X61233211Y-57008768D01*
X61153256Y-57066859D01*
X61093072Y-57110586D01*
X61093070Y-57110588D01*
X61093069Y-57110588D01*
X60970588Y-57233069D01*
X60970588Y-57233070D01*
X60970586Y-57233072D01*
X60926859Y-57293256D01*
X60868768Y-57373211D01*
X60790128Y-57527552D01*
X60736597Y-57692302D01*
X60709500Y-57863389D01*
X55290500Y-57863389D01*
X55263402Y-57692299D01*
X55209873Y-57527555D01*
X55131232Y-57373212D01*
X55029414Y-57233072D01*
X54906928Y-57110586D01*
X54766788Y-57008768D01*
X54612445Y-56930127D01*
X54447701Y-56876598D01*
X54447699Y-56876597D01*
X54447698Y-56876597D01*
X54316271Y-56855781D01*
X54276611Y-56849500D01*
X54103389Y-56849500D01*
X54063728Y-56855781D01*
X53932302Y-56876597D01*
X53767552Y-56930128D01*
X53613211Y-57008768D01*
X53533256Y-57066859D01*
X53473072Y-57110586D01*
X53473070Y-57110588D01*
X53473069Y-57110588D01*
X53350588Y-57233069D01*
X53350588Y-57233070D01*
X53350586Y-57233072D01*
X53306859Y-57293256D01*
X53248768Y-57373211D01*
X53170128Y-57527552D01*
X53116597Y-57692302D01*
X53089500Y-57863389D01*
X51390495Y-57863389D01*
X51307106Y-57780000D01*
X51400000Y-57780000D01*
X52289505Y-57780000D01*
X52289505Y-57779999D01*
X52251092Y-57661777D01*
X52154620Y-57472442D01*
X52029727Y-57300540D01*
X52029723Y-57300535D01*
X51879464Y-57150276D01*
X51879459Y-57150272D01*
X51707557Y-57025379D01*
X51518222Y-56928907D01*
X51400000Y-56890494D01*
X51400000Y-57780000D01*
X51307106Y-57780000D01*
X51307007Y-57779901D01*
X51192993Y-57714075D01*
X51065826Y-57680000D01*
X50934174Y-57680000D01*
X50807007Y-57714075D01*
X50692993Y-57779901D01*
X50599901Y-57872993D01*
X50534075Y-57987007D01*
X50500000Y-58114174D01*
X50500000Y-58245826D01*
X50534075Y-58372993D01*
X50599901Y-58487007D01*
X50692894Y-58580000D01*
X49710494Y-58580000D01*
X43000500Y-58580000D01*
X43000500Y-57779999D01*
X49710494Y-57779999D01*
X49710494Y-57780000D01*
X50600000Y-57780000D01*
X50600000Y-56890494D01*
X50599999Y-56890494D01*
X50481777Y-56928907D01*
X50292442Y-57025379D01*
X50120540Y-57150272D01*
X50120535Y-57150276D01*
X49970276Y-57300535D01*
X49970272Y-57300540D01*
X49845379Y-57472442D01*
X49748907Y-57661777D01*
X49710494Y-57779999D01*
X43000500Y-57779999D01*
X43000500Y-56348745D01*
X42992235Y-56280680D01*
X42964037Y-56048449D01*
X42891643Y-55754735D01*
X42891642Y-55754732D01*
X42891641Y-55754728D01*
X42856523Y-55662132D01*
X42784374Y-55471889D01*
X42643793Y-55204034D01*
X42503304Y-55000500D01*
X42471954Y-54955082D01*
X42471952Y-54955080D01*
X42471951Y-54955078D01*
X42271354Y-54728650D01*
X42271351Y-54728647D01*
X42271349Y-54728645D01*
X42044932Y-54528057D01*
X42044929Y-54528055D01*
X42044927Y-54528053D01*
X41795971Y-54356210D01*
X41795970Y-54356209D01*
X41795968Y-54356208D01*
X41528121Y-54215630D01*
X41245276Y-54108360D01*
X40951553Y-54035963D01*
X40697152Y-54005073D01*
X40651258Y-53999501D01*
X40651257Y-53999500D01*
X40651249Y-53999500D01*
X40565898Y-53999500D01*
X40565897Y-53999500D01*
X32731090Y-53999500D01*
X32721891Y-53999158D01*
X32513850Y-53983682D01*
X32495657Y-53980961D01*
X32296681Y-53935894D01*
X32279091Y-53930510D01*
X32088987Y-53856507D01*
X32072395Y-53848585D01*
X31895313Y-53747262D01*
X31880072Y-53736969D01*
X31719940Y-53610572D01*
X31706392Y-53598142D01*
X31566715Y-53449438D01*
X31555155Y-53435138D01*
X31439015Y-53267406D01*
X31429694Y-53251548D01*
X31339651Y-53068493D01*
X31332779Y-53051429D01*
X31270807Y-52857059D01*
X31266535Y-52839172D01*
X31234001Y-52637775D01*
X31232423Y-52619450D01*
X31230042Y-52415442D01*
X31231192Y-52397099D01*
X31259017Y-52194992D01*
X31262871Y-52177007D01*
X31298651Y-52055021D01*
X31321271Y-51977895D01*
X31325009Y-51967041D01*
X31712274Y-50992069D01*
X31714030Y-50987878D01*
X32138581Y-50024772D01*
X32140508Y-50020613D01*
X32178313Y-49942805D01*
X32600475Y-49073932D01*
X32602554Y-49069850D01*
X32754011Y-48785471D01*
X33097332Y-48140843D01*
X33099527Y-48136900D01*
X33628431Y-47226858D01*
X33630807Y-47222942D01*
X33803126Y-46950254D01*
X34193076Y-46333173D01*
X34195552Y-46329411D01*
X34790451Y-45461079D01*
X34793064Y-45457411D01*
X35419766Y-44611724D01*
X35422546Y-44608115D01*
X36019302Y-43862332D01*
X37899500Y-43862332D01*
X37899500Y-44137667D01*
X37899501Y-44137684D01*
X37935438Y-44410655D01*
X37935439Y-44410660D01*
X37935440Y-44410666D01*
X37935441Y-44410668D01*
X38006704Y-44676630D01*
X38112075Y-44931017D01*
X38112080Y-44931028D01*
X38191809Y-45069121D01*
X38249751Y-45169479D01*
X38249753Y-45169482D01*
X38249754Y-45169483D01*
X38417370Y-45387926D01*
X38417376Y-45387933D01*
X38612066Y-45582623D01*
X38612072Y-45582628D01*
X38830521Y-45750249D01*
X38983778Y-45838732D01*
X39068971Y-45887919D01*
X39068976Y-45887921D01*
X39068979Y-45887923D01*
X39323368Y-45993295D01*
X39589334Y-46064560D01*
X39862326Y-46100500D01*
X39862333Y-46100500D01*
X40137667Y-46100500D01*
X40137674Y-46100500D01*
X40410666Y-46064560D01*
X40676632Y-45993295D01*
X40931021Y-45887923D01*
X41169479Y-45750249D01*
X41387928Y-45582628D01*
X41582628Y-45387928D01*
X41750249Y-45169479D01*
X41887923Y-44931021D01*
X41993295Y-44676632D01*
X42064560Y-44410666D01*
X42100500Y-44137674D01*
X42100500Y-43862332D01*
X73899500Y-43862332D01*
X73899500Y-44137667D01*
X73899501Y-44137684D01*
X73935438Y-44410655D01*
X73935439Y-44410660D01*
X73935440Y-44410666D01*
X73935441Y-44410668D01*
X74006704Y-44676630D01*
X74112075Y-44931017D01*
X74112080Y-44931028D01*
X74191809Y-45069121D01*
X74249751Y-45169479D01*
X74249753Y-45169482D01*
X74249754Y-45169483D01*
X74417370Y-45387926D01*
X74417376Y-45387933D01*
X74612066Y-45582623D01*
X74612072Y-45582628D01*
X74830521Y-45750249D01*
X74983778Y-45838732D01*
X75068971Y-45887919D01*
X75068976Y-45887921D01*
X75068979Y-45887923D01*
X75323368Y-45993295D01*
X75589334Y-46064560D01*
X75862326Y-46100500D01*
X75862333Y-46100500D01*
X76137667Y-46100500D01*
X76137674Y-46100500D01*
X76410666Y-46064560D01*
X76676632Y-45993295D01*
X76931021Y-45887923D01*
X77169479Y-45750249D01*
X77387928Y-45582628D01*
X77582628Y-45387928D01*
X77750249Y-45169479D01*
X77887923Y-44931021D01*
X77993295Y-44676632D01*
X78064560Y-44410666D01*
X78100500Y-44137674D01*
X78100500Y-43862326D01*
X78064560Y-43589334D01*
X77993295Y-43323368D01*
X77887923Y-43068979D01*
X77887921Y-43068976D01*
X77887919Y-43068971D01*
X77837997Y-42982505D01*
X77750249Y-42830521D01*
X77582628Y-42612072D01*
X77582623Y-42612066D01*
X77387933Y-42417376D01*
X77387926Y-42417370D01*
X77169483Y-42249754D01*
X77169482Y-42249753D01*
X77169479Y-42249751D01*
X77074407Y-42194861D01*
X76931028Y-42112080D01*
X76931017Y-42112075D01*
X76676630Y-42006704D01*
X76543649Y-41971072D01*
X76410666Y-41935440D01*
X76410660Y-41935439D01*
X76410655Y-41935438D01*
X76137684Y-41899501D01*
X76137679Y-41899500D01*
X76137674Y-41899500D01*
X75862326Y-41899500D01*
X75862320Y-41899500D01*
X75862315Y-41899501D01*
X75589344Y-41935438D01*
X75589337Y-41935439D01*
X75589334Y-41935440D01*
X75533125Y-41950500D01*
X75323369Y-42006704D01*
X75068982Y-42112075D01*
X75068971Y-42112080D01*
X74830516Y-42249754D01*
X74612073Y-42417370D01*
X74612066Y-42417376D01*
X74417376Y-42612066D01*
X74417370Y-42612073D01*
X74249754Y-42830516D01*
X74112080Y-43068971D01*
X74112075Y-43068982D01*
X74006704Y-43323369D01*
X73935441Y-43589331D01*
X73935438Y-43589344D01*
X73899501Y-43862315D01*
X73899500Y-43862332D01*
X42100500Y-43862332D01*
X42100500Y-43862326D01*
X42064560Y-43589334D01*
X41993295Y-43323368D01*
X41887923Y-43068979D01*
X41887921Y-43068976D01*
X41887919Y-43068971D01*
X41837997Y-42982505D01*
X41750249Y-42830521D01*
X41582628Y-42612072D01*
X41582623Y-42612066D01*
X41387933Y-42417376D01*
X41387926Y-42417370D01*
X41169483Y-42249754D01*
X41169482Y-42249753D01*
X41169479Y-42249751D01*
X41074407Y-42194861D01*
X40931028Y-42112080D01*
X40931017Y-42112075D01*
X40676630Y-42006704D01*
X40543649Y-41971072D01*
X40410666Y-41935440D01*
X40410660Y-41935439D01*
X40410655Y-41935438D01*
X40137684Y-41899501D01*
X40137679Y-41899500D01*
X40137674Y-41899500D01*
X39862326Y-41899500D01*
X39862320Y-41899500D01*
X39862315Y-41899501D01*
X39589344Y-41935438D01*
X39589337Y-41935439D01*
X39589334Y-41935440D01*
X39533125Y-41950500D01*
X39323369Y-42006704D01*
X39068982Y-42112075D01*
X39068971Y-42112080D01*
X38830516Y-42249754D01*
X38612073Y-42417370D01*
X38612066Y-42417376D01*
X38417376Y-42612066D01*
X38417370Y-42612073D01*
X38249754Y-42830516D01*
X38112080Y-43068971D01*
X38112075Y-43068982D01*
X38006704Y-43323369D01*
X37935441Y-43589331D01*
X37935438Y-43589344D01*
X37899501Y-43862315D01*
X37899500Y-43862332D01*
X36019302Y-43862332D01*
X36080149Y-43786290D01*
X36083075Y-43782771D01*
X36087832Y-43777258D01*
X36087833Y-43777257D01*
X36249994Y-43589334D01*
X36770694Y-42985910D01*
X36773726Y-42982525D01*
X37490445Y-42211689D01*
X37493629Y-42208391D01*
X37682488Y-42019808D01*
X38238400Y-41464707D01*
X38241681Y-41461551D01*
X39013590Y-40745933D01*
X39016938Y-40742944D01*
X39814814Y-40056481D01*
X39818344Y-40053556D01*
X40641148Y-39397137D01*
X40644728Y-39394389D01*
X41491325Y-38768927D01*
X41494990Y-38766323D01*
X42364215Y-38172677D01*
X42367998Y-38170195D01*
X43258608Y-37609214D01*
X43262462Y-37606884D01*
X44173333Y-37079278D01*
X44177236Y-37077113D01*
X45106980Y-36583684D01*
X45111050Y-36581620D01*
X46058438Y-36123018D01*
X46062564Y-36121114D01*
X47026329Y-35697954D01*
X47030466Y-35696228D01*
X48009312Y-35309079D01*
X48013490Y-35307515D01*
X49006006Y-34956939D01*
X49010309Y-34955509D01*
X50015094Y-34641996D01*
X50019447Y-34640726D01*
X51035162Y-34364695D01*
X51039547Y-34363590D01*
X52064810Y-34125413D01*
X52069298Y-34124459D01*
X53102622Y-33924481D01*
X53107135Y-33923694D01*
X54147184Y-33762173D01*
X54151690Y-33761558D01*
X55197063Y-33638713D01*
X55201585Y-33638266D01*
X56250791Y-33554273D01*
X56255306Y-33553996D01*
X57306937Y-33508970D01*
X57311446Y-33508862D01*
X58363961Y-33502868D01*
X58368547Y-33502926D01*
G37*
%TD.AperFunction*%
%TD*%
M02*
