%TF.GenerationSoftware,KiCad,Pcbnew,9.0.0*%
%TF.CreationDate,2025-07-28T18:14:09+09:00*%
%TF.ProjectId,UmiusiThrusterLEDUnit,556d6975-7369-4546-9872-75737465724c,01*%
%TF.SameCoordinates,Original*%
%TF.FileFunction,Legend,Top*%
%TF.FilePolarity,Positive*%
%FSLAX46Y46*%
G04 Gerber Fmt 4.6, Leading zero omitted, Abs format (unit mm)*
G04 Created by KiCad (PCBNEW 9.0.0) date 2025-07-28 18:14:09*
%MOMM*%
%LPD*%
G01*
G04 APERTURE LIST*
%ADD10C,0.187500*%
%ADD11C,0.100000*%
%ADD12R,1.300000X2.200000*%
%ADD13R,4.400000X4.400000*%
%ADD14R,1.700000X1.700000*%
%ADD15O,1.700000X1.700000*%
%ADD16C,1.600000*%
%ADD17O,1.600000X1.600000*%
G04 APERTURE END LIST*
D10*
X57114285Y-55200535D02*
X57000000Y-55143392D01*
X57000000Y-55143392D02*
X56828571Y-55143392D01*
X56828571Y-55143392D02*
X56657142Y-55200535D01*
X56657142Y-55200535D02*
X56542857Y-55314821D01*
X56542857Y-55314821D02*
X56485714Y-55429107D01*
X56485714Y-55429107D02*
X56428571Y-55657678D01*
X56428571Y-55657678D02*
X56428571Y-55829107D01*
X56428571Y-55829107D02*
X56485714Y-56057678D01*
X56485714Y-56057678D02*
X56542857Y-56171964D01*
X56542857Y-56171964D02*
X56657142Y-56286250D01*
X56657142Y-56286250D02*
X56828571Y-56343392D01*
X56828571Y-56343392D02*
X56942857Y-56343392D01*
X56942857Y-56343392D02*
X57114285Y-56286250D01*
X57114285Y-56286250D02*
X57171428Y-56229107D01*
X57171428Y-56229107D02*
X57171428Y-55829107D01*
X57171428Y-55829107D02*
X56942857Y-55829107D01*
X58371428Y-56343392D02*
X57971428Y-55771964D01*
X57685714Y-56343392D02*
X57685714Y-55143392D01*
X57685714Y-55143392D02*
X58142857Y-55143392D01*
X58142857Y-55143392D02*
X58257142Y-55200535D01*
X58257142Y-55200535D02*
X58314285Y-55257678D01*
X58314285Y-55257678D02*
X58371428Y-55371964D01*
X58371428Y-55371964D02*
X58371428Y-55543392D01*
X58371428Y-55543392D02*
X58314285Y-55657678D01*
X58314285Y-55657678D02*
X58257142Y-55714821D01*
X58257142Y-55714821D02*
X58142857Y-55771964D01*
X58142857Y-55771964D02*
X57685714Y-55771964D01*
X59285714Y-55714821D02*
X59457142Y-55771964D01*
X59457142Y-55771964D02*
X59514285Y-55829107D01*
X59514285Y-55829107D02*
X59571428Y-55943392D01*
X59571428Y-55943392D02*
X59571428Y-56114821D01*
X59571428Y-56114821D02*
X59514285Y-56229107D01*
X59514285Y-56229107D02*
X59457142Y-56286250D01*
X59457142Y-56286250D02*
X59342857Y-56343392D01*
X59342857Y-56343392D02*
X58885714Y-56343392D01*
X58885714Y-56343392D02*
X58885714Y-55143392D01*
X58885714Y-55143392D02*
X59285714Y-55143392D01*
X59285714Y-55143392D02*
X59400000Y-55200535D01*
X59400000Y-55200535D02*
X59457142Y-55257678D01*
X59457142Y-55257678D02*
X59514285Y-55371964D01*
X59514285Y-55371964D02*
X59514285Y-55486250D01*
X59514285Y-55486250D02*
X59457142Y-55600535D01*
X59457142Y-55600535D02*
X59400000Y-55657678D01*
X59400000Y-55657678D02*
X59285714Y-55714821D01*
X59285714Y-55714821D02*
X58885714Y-55714821D01*
D11*
X60792580Y-59261905D02*
X61792580Y-59261905D01*
X61792580Y-59261905D02*
X61792580Y-59500000D01*
X61792580Y-59500000D02*
X61744961Y-59642857D01*
X61744961Y-59642857D02*
X61649723Y-59738095D01*
X61649723Y-59738095D02*
X61554485Y-59785714D01*
X61554485Y-59785714D02*
X61364009Y-59833333D01*
X61364009Y-59833333D02*
X61221152Y-59833333D01*
X61221152Y-59833333D02*
X61030676Y-59785714D01*
X61030676Y-59785714D02*
X60935438Y-59738095D01*
X60935438Y-59738095D02*
X60840200Y-59642857D01*
X60840200Y-59642857D02*
X60792580Y-59500000D01*
X60792580Y-59500000D02*
X60792580Y-59261905D01*
X60792580Y-60785714D02*
X60792580Y-60214286D01*
X60792580Y-60500000D02*
X61792580Y-60500000D01*
X61792580Y-60500000D02*
X61649723Y-60404762D01*
X61649723Y-60404762D02*
X61554485Y-60309524D01*
X61554485Y-60309524D02*
X61506866Y-60214286D01*
%TO.C,D1*%
X55500000Y-60500000D02*
X55500000Y-63500000D01*
X55500000Y-60500000D02*
X55700000Y-60300000D01*
X55500000Y-63500000D02*
X55700000Y-63700000D01*
X56500000Y-59500000D02*
X56300000Y-59700000D01*
X56500000Y-59500000D02*
X60500000Y-59500000D01*
X56500000Y-64500000D02*
X56300000Y-64300000D01*
X56500000Y-64500000D02*
X60500000Y-64500000D01*
X60500000Y-59500000D02*
X60500000Y-64500000D01*
%TD*%
%LPC*%
D12*
%TO.C,D1*%
X56400000Y-58050000D03*
X58000000Y-58050000D03*
X59600000Y-58050000D03*
X59600000Y-65950000D03*
X58000000Y-65950000D03*
X56400000Y-65950000D03*
D13*
X58000000Y-62000000D03*
%TD*%
D14*
%TO.C,J1*%
X51000000Y-65800000D03*
D15*
X51000000Y-63260000D03*
X51000000Y-60720000D03*
X51000000Y-58180000D03*
%TD*%
D16*
%TO.C,R1*%
X61810000Y-66050000D03*
D17*
X54190000Y-66050000D03*
%TD*%
D16*
%TO.C,R2*%
X61810000Y-62000000D03*
D17*
X54190000Y-62000000D03*
%TD*%
D16*
%TO.C,R3*%
X61810000Y-57950000D03*
D17*
X54190000Y-57950000D03*
%TD*%
%LPD*%
M02*
