M48
; DRILL file {KiCad 9.0.0} date 2025-07-28T18:14:09+0900
; FORMAT={-:-/ absolute / inch / decimal}
; #@! TF.CreationDate,2025-07-28T18:14:09+09:00
; #@! TF.GenerationSoftware,Kicad,Pcbnew,9.0.0
; #@! TF.FileFunction,Plated,1,2,PTH
FMAT,2
INCH
; #@! TA.AperFunction,Plated,PTH,ViaDrill
T1C0.0118
; #@! TA.AperFunction,Plated,PTH,ComponentDrill
T2C0.0315
; #@! TA.AperFunction,Plated,PTH,ComponentDrill
T3C0.0394
%
G90
G05
T1
X1.2992Y-2.0472
X1.2992Y-2.8346
X1.4961Y-1.8504
X1.4961Y-2.0472
X1.4961Y-2.8346
X1.4961Y-3.0315
X1.6929Y-1.6535
X1.6929Y-1.8504
X1.6929Y-2.0472
X1.6929Y-2.8346
X1.6929Y-3.0315
X1.6929Y-3.2283
X1.8898Y-1.4567
X1.8898Y-1.6535
X1.8898Y-1.8504
X1.8898Y-2.0472
X1.8898Y-2.8346
X1.8898Y-3.0315
X1.8898Y-3.2283
X1.8898Y-3.4252
X2.0866Y-1.4567
X2.0866Y-1.6535
X2.0866Y-1.8504
X2.0866Y-2.0472
X2.0866Y-2.8346
X2.0866Y-3.0315
X2.0866Y-3.2283
X2.0866Y-3.4252
X2.126Y-2.3622
X2.126Y-2.5295
X2.2835Y-1.4567
X2.2835Y-1.6535
X2.2835Y-1.8504
X2.2835Y-2.0472
X2.2835Y-2.8346
X2.2835Y-3.0315
X2.2835Y-3.2283
X2.2835Y-3.4252
X2.4803Y-1.4567
X2.4803Y-1.6535
X2.4803Y-1.8504
X2.4803Y-2.0472
X2.4803Y-2.8346
X2.4803Y-3.0315
X2.4803Y-3.2283
X2.4803Y-3.4252
X2.6772Y-1.4567
X2.6772Y-1.6535
X2.6772Y-1.8504
X2.6772Y-2.0472
X2.6772Y-2.2441
X2.6772Y-2.4409
X2.6772Y-2.6378
X2.6772Y-2.8346
X2.6772Y-3.0315
X2.6772Y-3.2283
X2.6772Y-3.4252
X2.874Y-1.6535
X2.874Y-1.8504
X2.874Y-2.0472
X2.874Y-2.2441
X2.874Y-2.4409
X2.874Y-2.6378
X2.874Y-2.8346
X2.874Y-3.0315
X2.874Y-3.2283
X3.0709Y-1.8504
X3.0709Y-2.0472
X3.0709Y-2.2441
X3.0709Y-2.4409
X3.0709Y-2.6378
X3.0709Y-2.8346
X3.0709Y-3.0315
X3.2677Y-2.0472
X3.2677Y-2.2441
X3.2677Y-2.4409
X3.2677Y-2.6378
X3.2677Y-2.8346
T2
X2.1335Y-2.2815
X2.1335Y-2.4409
X2.1335Y-2.6004
X2.4335Y-2.2815
X2.4335Y-2.4409
X2.4335Y-2.6004
T3
X2.0079Y-2.2906
X2.0079Y-2.3906
X2.0079Y-2.4906
X2.0079Y-2.5906
M30
