%TF.GenerationSoftware,KiCad,Pcbnew,9.0.0*%
%TF.CreationDate,2025-07-28T18:14:09+09:00*%
%TF.ProjectId,UmiusiThrusterLEDUnit,556d6975-7369-4546-9872-75737465724c,01*%
%TF.SameCoordinates,Original*%
%TF.FileFunction,Legend,Bot*%
%TF.FilePolarity,Positive*%
%FSLAX46Y46*%
G04 Gerber Fmt 4.6, Leading zero omitted, Abs format (unit mm)*
G04 Created by KiCad (PCBNEW 9.0.0) date 2025-07-28 18:14:09*
%MOMM*%
%LPD*%
G01*
G04 APERTURE LIST*
%ADD10C,0.187500*%
%ADD11C,0.200000*%
%ADD12C,0.150000*%
%ADD13C,0.000000*%
%ADD14C,0.120000*%
%ADD15R,1.700000X1.700000*%
%ADD16O,1.700000X1.700000*%
%ADD17C,1.600000*%
%ADD18O,1.600000X1.600000*%
G04 APERTURE END LIST*
D10*
X56817121Y-76117869D02*
X57150454Y-75641678D01*
X57388549Y-76117869D02*
X57388549Y-75117869D01*
X57388549Y-75117869D02*
X57007597Y-75117869D01*
X57007597Y-75117869D02*
X56912359Y-75165488D01*
X56912359Y-75165488D02*
X56864740Y-75213107D01*
X56864740Y-75213107D02*
X56817121Y-75308345D01*
X56817121Y-75308345D02*
X56817121Y-75451202D01*
X56817121Y-75451202D02*
X56864740Y-75546440D01*
X56864740Y-75546440D02*
X56912359Y-75594059D01*
X56912359Y-75594059D02*
X57007597Y-75641678D01*
X57007597Y-75641678D02*
X57388549Y-75641678D01*
X56388549Y-75594059D02*
X56055216Y-75594059D01*
X55912359Y-76117869D02*
X56388549Y-76117869D01*
X56388549Y-76117869D02*
X56388549Y-75117869D01*
X56388549Y-75117869D02*
X55912359Y-75117869D01*
X55626644Y-75117869D02*
X55293311Y-76117869D01*
X55293311Y-76117869D02*
X54959978Y-75117869D01*
X54436168Y-75117869D02*
X54340930Y-75117869D01*
X54340930Y-75117869D02*
X54245692Y-75165488D01*
X54245692Y-75165488D02*
X54198073Y-75213107D01*
X54198073Y-75213107D02*
X54150454Y-75308345D01*
X54150454Y-75308345D02*
X54102835Y-75498821D01*
X54102835Y-75498821D02*
X54102835Y-75736916D01*
X54102835Y-75736916D02*
X54150454Y-75927392D01*
X54150454Y-75927392D02*
X54198073Y-76022630D01*
X54198073Y-76022630D02*
X54245692Y-76070250D01*
X54245692Y-76070250D02*
X54340930Y-76117869D01*
X54340930Y-76117869D02*
X54436168Y-76117869D01*
X54436168Y-76117869D02*
X54531406Y-76070250D01*
X54531406Y-76070250D02*
X54579025Y-76022630D01*
X54579025Y-76022630D02*
X54626644Y-75927392D01*
X54626644Y-75927392D02*
X54674263Y-75736916D01*
X54674263Y-75736916D02*
X54674263Y-75498821D01*
X54674263Y-75498821D02*
X54626644Y-75308345D01*
X54626644Y-75308345D02*
X54579025Y-75213107D01*
X54579025Y-75213107D02*
X54531406Y-75165488D01*
X54531406Y-75165488D02*
X54436168Y-75117869D01*
X53721882Y-75213107D02*
X53674263Y-75165488D01*
X53674263Y-75165488D02*
X53579025Y-75117869D01*
X53579025Y-75117869D02*
X53340930Y-75117869D01*
X53340930Y-75117869D02*
X53245692Y-75165488D01*
X53245692Y-75165488D02*
X53198073Y-75213107D01*
X53198073Y-75213107D02*
X53150454Y-75308345D01*
X53150454Y-75308345D02*
X53150454Y-75403583D01*
X53150454Y-75403583D02*
X53198073Y-75546440D01*
X53198073Y-75546440D02*
X53769501Y-76117869D01*
X53769501Y-76117869D02*
X53150454Y-76117869D01*
D11*
X65857142Y-77892742D02*
X65171428Y-77892742D01*
X65514285Y-79092742D02*
X65514285Y-77892742D01*
X64771427Y-79092742D02*
X64771427Y-77892742D01*
X64257142Y-79092742D02*
X64257142Y-78464171D01*
X64257142Y-78464171D02*
X64314284Y-78349885D01*
X64314284Y-78349885D02*
X64428570Y-78292742D01*
X64428570Y-78292742D02*
X64599999Y-78292742D01*
X64599999Y-78292742D02*
X64714284Y-78349885D01*
X64714284Y-78349885D02*
X64771427Y-78407028D01*
X63685713Y-79092742D02*
X63685713Y-78292742D01*
X63685713Y-78521314D02*
X63628570Y-78407028D01*
X63628570Y-78407028D02*
X63571428Y-78349885D01*
X63571428Y-78349885D02*
X63457142Y-78292742D01*
X63457142Y-78292742D02*
X63342856Y-78292742D01*
X62428571Y-78292742D02*
X62428571Y-79092742D01*
X62942856Y-78292742D02*
X62942856Y-78921314D01*
X62942856Y-78921314D02*
X62885713Y-79035600D01*
X62885713Y-79035600D02*
X62771428Y-79092742D01*
X62771428Y-79092742D02*
X62599999Y-79092742D01*
X62599999Y-79092742D02*
X62485713Y-79035600D01*
X62485713Y-79035600D02*
X62428571Y-78978457D01*
X61914285Y-79035600D02*
X61799999Y-79092742D01*
X61799999Y-79092742D02*
X61571428Y-79092742D01*
X61571428Y-79092742D02*
X61457142Y-79035600D01*
X61457142Y-79035600D02*
X61399999Y-78921314D01*
X61399999Y-78921314D02*
X61399999Y-78864171D01*
X61399999Y-78864171D02*
X61457142Y-78749885D01*
X61457142Y-78749885D02*
X61571428Y-78692742D01*
X61571428Y-78692742D02*
X61742857Y-78692742D01*
X61742857Y-78692742D02*
X61857142Y-78635600D01*
X61857142Y-78635600D02*
X61914285Y-78521314D01*
X61914285Y-78521314D02*
X61914285Y-78464171D01*
X61914285Y-78464171D02*
X61857142Y-78349885D01*
X61857142Y-78349885D02*
X61742857Y-78292742D01*
X61742857Y-78292742D02*
X61571428Y-78292742D01*
X61571428Y-78292742D02*
X61457142Y-78349885D01*
X61057142Y-78292742D02*
X60599999Y-78292742D01*
X60885713Y-77892742D02*
X60885713Y-78921314D01*
X60885713Y-78921314D02*
X60828570Y-79035600D01*
X60828570Y-79035600D02*
X60714285Y-79092742D01*
X60714285Y-79092742D02*
X60599999Y-79092742D01*
X59742856Y-79035600D02*
X59857142Y-79092742D01*
X59857142Y-79092742D02*
X60085714Y-79092742D01*
X60085714Y-79092742D02*
X60199999Y-79035600D01*
X60199999Y-79035600D02*
X60257142Y-78921314D01*
X60257142Y-78921314D02*
X60257142Y-78464171D01*
X60257142Y-78464171D02*
X60199999Y-78349885D01*
X60199999Y-78349885D02*
X60085714Y-78292742D01*
X60085714Y-78292742D02*
X59857142Y-78292742D01*
X59857142Y-78292742D02*
X59742856Y-78349885D01*
X59742856Y-78349885D02*
X59685714Y-78464171D01*
X59685714Y-78464171D02*
X59685714Y-78578457D01*
X59685714Y-78578457D02*
X60257142Y-78692742D01*
X59171428Y-79092742D02*
X59171428Y-78292742D01*
X59171428Y-78521314D02*
X59114285Y-78407028D01*
X59114285Y-78407028D02*
X59057143Y-78349885D01*
X59057143Y-78349885D02*
X58942857Y-78292742D01*
X58942857Y-78292742D02*
X58828571Y-78292742D01*
X56942857Y-79092742D02*
X57514285Y-79092742D01*
X57514285Y-79092742D02*
X57514285Y-77892742D01*
X56542856Y-78464171D02*
X56142856Y-78464171D01*
X55971428Y-79092742D02*
X56542856Y-79092742D01*
X56542856Y-79092742D02*
X56542856Y-77892742D01*
X56542856Y-77892742D02*
X55971428Y-77892742D01*
X55457142Y-79092742D02*
X55457142Y-77892742D01*
X55457142Y-77892742D02*
X55171428Y-77892742D01*
X55171428Y-77892742D02*
X54999999Y-77949885D01*
X54999999Y-77949885D02*
X54885714Y-78064171D01*
X54885714Y-78064171D02*
X54828571Y-78178457D01*
X54828571Y-78178457D02*
X54771428Y-78407028D01*
X54771428Y-78407028D02*
X54771428Y-78578457D01*
X54771428Y-78578457D02*
X54828571Y-78807028D01*
X54828571Y-78807028D02*
X54885714Y-78921314D01*
X54885714Y-78921314D02*
X54999999Y-79035600D01*
X54999999Y-79035600D02*
X55171428Y-79092742D01*
X55171428Y-79092742D02*
X55457142Y-79092742D01*
X53342856Y-77892742D02*
X53342856Y-78864171D01*
X53342856Y-78864171D02*
X53285713Y-78978457D01*
X53285713Y-78978457D02*
X53228571Y-79035600D01*
X53228571Y-79035600D02*
X53114285Y-79092742D01*
X53114285Y-79092742D02*
X52885713Y-79092742D01*
X52885713Y-79092742D02*
X52771428Y-79035600D01*
X52771428Y-79035600D02*
X52714285Y-78978457D01*
X52714285Y-78978457D02*
X52657142Y-78864171D01*
X52657142Y-78864171D02*
X52657142Y-77892742D01*
X52085713Y-78292742D02*
X52085713Y-79092742D01*
X52085713Y-78407028D02*
X52028570Y-78349885D01*
X52028570Y-78349885D02*
X51914285Y-78292742D01*
X51914285Y-78292742D02*
X51742856Y-78292742D01*
X51742856Y-78292742D02*
X51628570Y-78349885D01*
X51628570Y-78349885D02*
X51571428Y-78464171D01*
X51571428Y-78464171D02*
X51571428Y-79092742D01*
X50999999Y-79092742D02*
X50999999Y-78292742D01*
X50999999Y-77892742D02*
X51057142Y-77949885D01*
X51057142Y-77949885D02*
X50999999Y-78007028D01*
X50999999Y-78007028D02*
X50942856Y-77949885D01*
X50942856Y-77949885D02*
X50999999Y-77892742D01*
X50999999Y-77892742D02*
X50999999Y-78007028D01*
X50599999Y-78292742D02*
X50142856Y-78292742D01*
X50428570Y-77892742D02*
X50428570Y-78921314D01*
X50428570Y-78921314D02*
X50371427Y-79035600D01*
X50371427Y-79035600D02*
X50257142Y-79092742D01*
X50257142Y-79092742D02*
X50142856Y-79092742D01*
D10*
X48214821Y-61471428D02*
X48271964Y-61642856D01*
X48271964Y-61642856D02*
X48329107Y-61699999D01*
X48329107Y-61699999D02*
X48443392Y-61757142D01*
X48443392Y-61757142D02*
X48614821Y-61757142D01*
X48614821Y-61757142D02*
X48729107Y-61699999D01*
X48729107Y-61699999D02*
X48786250Y-61642856D01*
X48786250Y-61642856D02*
X48843392Y-61528571D01*
X48843392Y-61528571D02*
X48843392Y-61071428D01*
X48843392Y-61071428D02*
X47643392Y-61071428D01*
X47643392Y-61071428D02*
X47643392Y-61471428D01*
X47643392Y-61471428D02*
X47700535Y-61585714D01*
X47700535Y-61585714D02*
X47757678Y-61642856D01*
X47757678Y-61642856D02*
X47871964Y-61699999D01*
X47871964Y-61699999D02*
X47986250Y-61699999D01*
X47986250Y-61699999D02*
X48100535Y-61642856D01*
X48100535Y-61642856D02*
X48157678Y-61585714D01*
X48157678Y-61585714D02*
X48214821Y-61471428D01*
X48214821Y-61471428D02*
X48214821Y-61071428D01*
X48843392Y-63871428D02*
X48271964Y-63471428D01*
X48843392Y-63185714D02*
X47643392Y-63185714D01*
X47643392Y-63185714D02*
X47643392Y-63642857D01*
X47643392Y-63642857D02*
X47700535Y-63757142D01*
X47700535Y-63757142D02*
X47757678Y-63814285D01*
X47757678Y-63814285D02*
X47871964Y-63871428D01*
X47871964Y-63871428D02*
X48043392Y-63871428D01*
X48043392Y-63871428D02*
X48157678Y-63814285D01*
X48157678Y-63814285D02*
X48214821Y-63757142D01*
X48214821Y-63757142D02*
X48271964Y-63642857D01*
X48271964Y-63642857D02*
X48271964Y-63185714D01*
X47700535Y-65928571D02*
X47643392Y-65814286D01*
X47643392Y-65814286D02*
X47643392Y-65642857D01*
X47643392Y-65642857D02*
X47700535Y-65471428D01*
X47700535Y-65471428D02*
X47814821Y-65357143D01*
X47814821Y-65357143D02*
X47929107Y-65300000D01*
X47929107Y-65300000D02*
X48157678Y-65242857D01*
X48157678Y-65242857D02*
X48329107Y-65242857D01*
X48329107Y-65242857D02*
X48557678Y-65300000D01*
X48557678Y-65300000D02*
X48671964Y-65357143D01*
X48671964Y-65357143D02*
X48786250Y-65471428D01*
X48786250Y-65471428D02*
X48843392Y-65642857D01*
X48843392Y-65642857D02*
X48843392Y-65757143D01*
X48843392Y-65757143D02*
X48786250Y-65928571D01*
X48786250Y-65928571D02*
X48729107Y-65985714D01*
X48729107Y-65985714D02*
X48329107Y-65985714D01*
X48329107Y-65985714D02*
X48329107Y-65757143D01*
D12*
X51333333Y-67584819D02*
X51333333Y-68299104D01*
X51333333Y-68299104D02*
X51380952Y-68441961D01*
X51380952Y-68441961D02*
X51476190Y-68537200D01*
X51476190Y-68537200D02*
X51619047Y-68584819D01*
X51619047Y-68584819D02*
X51714285Y-68584819D01*
X50333333Y-68584819D02*
X50904761Y-68584819D01*
X50619047Y-68584819D02*
X50619047Y-67584819D01*
X50619047Y-67584819D02*
X50714285Y-67727676D01*
X50714285Y-67727676D02*
X50809523Y-67822914D01*
X50809523Y-67822914D02*
X50904761Y-67870533D01*
X58133332Y-64362295D02*
X58399999Y-63981342D01*
X58590475Y-64362295D02*
X58590475Y-63562295D01*
X58590475Y-63562295D02*
X58285713Y-63562295D01*
X58285713Y-63562295D02*
X58209523Y-63600390D01*
X58209523Y-63600390D02*
X58171428Y-63638485D01*
X58171428Y-63638485D02*
X58133332Y-63714676D01*
X58133332Y-63714676D02*
X58133332Y-63828961D01*
X58133332Y-63828961D02*
X58171428Y-63905152D01*
X58171428Y-63905152D02*
X58209523Y-63943247D01*
X58209523Y-63943247D02*
X58285713Y-63981342D01*
X58285713Y-63981342D02*
X58590475Y-63981342D01*
X57371428Y-64362295D02*
X57828571Y-64362295D01*
X57599999Y-64362295D02*
X57599999Y-63562295D01*
X57599999Y-63562295D02*
X57676190Y-63676580D01*
X57676190Y-63676580D02*
X57752380Y-63752771D01*
X57752380Y-63752771D02*
X57828571Y-63790866D01*
X58133332Y-60362295D02*
X58399999Y-59981342D01*
X58590475Y-60362295D02*
X58590475Y-59562295D01*
X58590475Y-59562295D02*
X58285713Y-59562295D01*
X58285713Y-59562295D02*
X58209523Y-59600390D01*
X58209523Y-59600390D02*
X58171428Y-59638485D01*
X58171428Y-59638485D02*
X58133332Y-59714676D01*
X58133332Y-59714676D02*
X58133332Y-59828961D01*
X58133332Y-59828961D02*
X58171428Y-59905152D01*
X58171428Y-59905152D02*
X58209523Y-59943247D01*
X58209523Y-59943247D02*
X58285713Y-59981342D01*
X58285713Y-59981342D02*
X58590475Y-59981342D01*
X57828571Y-59638485D02*
X57790475Y-59600390D01*
X57790475Y-59600390D02*
X57714285Y-59562295D01*
X57714285Y-59562295D02*
X57523809Y-59562295D01*
X57523809Y-59562295D02*
X57447618Y-59600390D01*
X57447618Y-59600390D02*
X57409523Y-59638485D01*
X57409523Y-59638485D02*
X57371428Y-59714676D01*
X57371428Y-59714676D02*
X57371428Y-59790866D01*
X57371428Y-59790866D02*
X57409523Y-59905152D01*
X57409523Y-59905152D02*
X57866666Y-60362295D01*
X57866666Y-60362295D02*
X57371428Y-60362295D01*
X58133332Y-56362295D02*
X58399999Y-55981342D01*
X58590475Y-56362295D02*
X58590475Y-55562295D01*
X58590475Y-55562295D02*
X58285713Y-55562295D01*
X58285713Y-55562295D02*
X58209523Y-55600390D01*
X58209523Y-55600390D02*
X58171428Y-55638485D01*
X58171428Y-55638485D02*
X58133332Y-55714676D01*
X58133332Y-55714676D02*
X58133332Y-55828961D01*
X58133332Y-55828961D02*
X58171428Y-55905152D01*
X58171428Y-55905152D02*
X58209523Y-55943247D01*
X58209523Y-55943247D02*
X58285713Y-55981342D01*
X58285713Y-55981342D02*
X58590475Y-55981342D01*
X57866666Y-55562295D02*
X57371428Y-55562295D01*
X57371428Y-55562295D02*
X57638094Y-55867057D01*
X57638094Y-55867057D02*
X57523809Y-55867057D01*
X57523809Y-55867057D02*
X57447618Y-55905152D01*
X57447618Y-55905152D02*
X57409523Y-55943247D01*
X57409523Y-55943247D02*
X57371428Y-56019438D01*
X57371428Y-56019438D02*
X57371428Y-56209914D01*
X57371428Y-56209914D02*
X57409523Y-56286104D01*
X57409523Y-56286104D02*
X57447618Y-56324200D01*
X57447618Y-56324200D02*
X57523809Y-56362295D01*
X57523809Y-56362295D02*
X57752380Y-56362295D01*
X57752380Y-56362295D02*
X57828571Y-56324200D01*
X57828571Y-56324200D02*
X57866666Y-56286104D01*
D13*
%TO.C,G\u002A\u002A\u002A*%
G36*
X59374806Y-73007305D02*
G01*
X59376141Y-73010985D01*
X59383994Y-73031612D01*
X59398218Y-73068521D01*
X59418201Y-73120131D01*
X59443328Y-73184864D01*
X59472984Y-73261139D01*
X59506555Y-73347376D01*
X59543428Y-73441995D01*
X59582988Y-73543416D01*
X59624622Y-73650058D01*
X59868823Y-74275305D01*
X59244534Y-74277881D01*
X59224565Y-74277967D01*
X59115817Y-74278572D01*
X59013514Y-74279364D01*
X58919351Y-74280317D01*
X58835024Y-74281404D01*
X58762228Y-74282596D01*
X58702658Y-74283868D01*
X58658010Y-74285191D01*
X58629979Y-74286539D01*
X58620260Y-74287885D01*
X58620467Y-74288653D01*
X58625707Y-74303045D01*
X58637660Y-74334592D01*
X58655862Y-74382098D01*
X58679852Y-74444369D01*
X58709165Y-74520210D01*
X58743338Y-74608427D01*
X58781909Y-74707825D01*
X58824414Y-74817209D01*
X58870391Y-74935386D01*
X58919376Y-75061159D01*
X58970906Y-75193336D01*
X59024518Y-75330720D01*
X59428761Y-76366128D01*
X59352132Y-76371796D01*
X59350119Y-76371945D01*
X59307243Y-76374998D01*
X59267638Y-76377635D01*
X59239644Y-76379299D01*
X59203786Y-76381134D01*
X58542813Y-74687967D01*
X57881840Y-72994801D01*
X57519636Y-72992174D01*
X57515063Y-72992141D01*
X57418027Y-72991577D01*
X57339322Y-72991442D01*
X57277348Y-72991783D01*
X57230499Y-72992643D01*
X57197174Y-72994068D01*
X57175769Y-72996102D01*
X57164680Y-72998790D01*
X57162305Y-73002178D01*
X57165675Y-73010844D01*
X57175892Y-73037041D01*
X57191991Y-73078280D01*
X57213239Y-73132691D01*
X57238907Y-73198402D01*
X57268262Y-73273542D01*
X57300574Y-73356240D01*
X57303673Y-73364170D01*
X57335111Y-73444626D01*
X57371141Y-73536828D01*
X57371989Y-73538998D01*
X57407935Y-73630974D01*
X57444759Y-73725195D01*
X57480884Y-73817619D01*
X57487272Y-73833961D01*
X57515578Y-73906376D01*
X57548109Y-73989593D01*
X57577747Y-74065400D01*
X57603761Y-74131926D01*
X57625418Y-74187301D01*
X57641988Y-74229652D01*
X57652739Y-74257109D01*
X57656941Y-74267802D01*
X57656574Y-74269041D01*
X57649981Y-74271313D01*
X57634620Y-74273278D01*
X57609367Y-74274955D01*
X57573099Y-74276365D01*
X57524690Y-74277524D01*
X57463018Y-74278454D01*
X57386958Y-74279171D01*
X57295387Y-74279696D01*
X57187180Y-74280048D01*
X57061213Y-74280245D01*
X56916362Y-74280307D01*
X56170717Y-74280307D01*
X56150901Y-74227786D01*
X56146746Y-74216981D01*
X56135527Y-74188071D01*
X56118396Y-74144060D01*
X56096128Y-74086927D01*
X56069496Y-74018654D01*
X56039275Y-73941221D01*
X56006239Y-73856608D01*
X55997384Y-73833937D01*
X56711457Y-73833937D01*
X56712803Y-73843968D01*
X56721028Y-73861612D01*
X56739879Y-73868103D01*
X56759833Y-73868393D01*
X56775245Y-73858625D01*
X56779520Y-73833961D01*
X56774037Y-73813943D01*
X56754908Y-73798592D01*
X56727543Y-73797731D01*
X56723510Y-73799018D01*
X56712477Y-73810074D01*
X56711457Y-73833937D01*
X55997384Y-73833937D01*
X55971161Y-73766798D01*
X55934817Y-73673770D01*
X55897980Y-73579506D01*
X55877125Y-73526155D01*
X56345349Y-73526155D01*
X56350212Y-73557224D01*
X56368466Y-73581320D01*
X56393324Y-73595633D01*
X56427708Y-73597448D01*
X56463047Y-73579305D01*
X56473740Y-73569197D01*
X56488538Y-73538998D01*
X56485211Y-73505753D01*
X56463733Y-73473417D01*
X56453424Y-73463890D01*
X56432234Y-73452797D01*
X56406344Y-73454087D01*
X56372215Y-73466426D01*
X56351711Y-73489780D01*
X56345349Y-73526155D01*
X55877125Y-73526155D01*
X55861423Y-73485985D01*
X55825922Y-73395190D01*
X55814093Y-73364946D01*
X56804530Y-73364946D01*
X56804561Y-73371519D01*
X56806682Y-73394145D01*
X56815251Y-73404217D01*
X56834591Y-73407914D01*
X56859610Y-73406464D01*
X56881802Y-73391930D01*
X56889563Y-73364170D01*
X56884351Y-73342415D01*
X56864451Y-73325175D01*
X56832646Y-73321707D01*
X56829595Y-73322077D01*
X56812987Y-73326736D01*
X56805973Y-73338963D01*
X56804530Y-73364946D01*
X55814093Y-73364946D01*
X55792251Y-73309100D01*
X55761182Y-73229696D01*
X55733492Y-73158960D01*
X55709952Y-73098872D01*
X55691339Y-73051413D01*
X55678425Y-73018563D01*
X55671985Y-73002303D01*
X55669107Y-72999931D01*
X55657095Y-72996921D01*
X55634459Y-72994521D01*
X55599636Y-72992678D01*
X55551062Y-72991338D01*
X55487173Y-72990447D01*
X55406406Y-72989952D01*
X55307197Y-72989799D01*
X55234916Y-72989824D01*
X55154261Y-72989983D01*
X55090329Y-72990371D01*
X55041239Y-72991081D01*
X55005113Y-72992205D01*
X54980069Y-72993838D01*
X54964227Y-72996071D01*
X54955707Y-72998998D01*
X54952630Y-73002712D01*
X54953114Y-73007305D01*
X54954451Y-73010983D01*
X54962309Y-73031607D01*
X54976537Y-73068514D01*
X54996521Y-73120124D01*
X55021647Y-73184857D01*
X55051300Y-73261132D01*
X55084868Y-73347370D01*
X55121734Y-73441991D01*
X55161287Y-73543414D01*
X55202910Y-73650058D01*
X55360441Y-74053507D01*
X55447044Y-74275305D01*
X54705858Y-74277870D01*
X54573965Y-74278255D01*
X54438011Y-74278455D01*
X54320675Y-74278377D01*
X54221209Y-74278014D01*
X54138866Y-74277357D01*
X54072899Y-74276397D01*
X54022559Y-74275126D01*
X53987099Y-74273536D01*
X53965771Y-74271618D01*
X53957829Y-74269363D01*
X53954704Y-74262282D01*
X53944737Y-74237875D01*
X53928701Y-74197831D01*
X53907265Y-74143844D01*
X53881099Y-74077609D01*
X53850871Y-74000821D01*
X53817252Y-73915174D01*
X53780909Y-73822364D01*
X53742513Y-73724084D01*
X53711976Y-73645983D01*
X53675287Y-73552558D01*
X53641212Y-73466239D01*
X53610412Y-73388674D01*
X53583546Y-73321513D01*
X53561275Y-73266407D01*
X53544260Y-73225005D01*
X53533161Y-73198956D01*
X53528639Y-73189911D01*
X53525151Y-73196681D01*
X53514923Y-73220518D01*
X53498681Y-73259959D01*
X53477080Y-73313368D01*
X53450774Y-73379107D01*
X53420418Y-73455540D01*
X53386666Y-73541029D01*
X53350174Y-73633936D01*
X53311596Y-73732625D01*
X53099953Y-74275305D01*
X52982770Y-74278133D01*
X52952911Y-74278734D01*
X52911049Y-74278758D01*
X52885157Y-74277153D01*
X52872631Y-74273688D01*
X52870867Y-74268130D01*
X52874609Y-74258679D01*
X52885169Y-74231843D01*
X52901911Y-74189235D01*
X52924247Y-74132351D01*
X52951591Y-74062688D01*
X52983354Y-73981740D01*
X53018951Y-73891004D01*
X53057793Y-73791977D01*
X53099295Y-73686153D01*
X53142868Y-73575029D01*
X53153416Y-73548123D01*
X53202593Y-73422611D01*
X53245009Y-73314120D01*
X53281140Y-73221317D01*
X53311460Y-73142870D01*
X53336444Y-73077446D01*
X53356567Y-73023712D01*
X53367922Y-72992416D01*
X53688303Y-72992416D01*
X53688324Y-72992523D01*
X53692368Y-73003451D01*
X53702756Y-73030390D01*
X53718548Y-73070927D01*
X53738801Y-73122652D01*
X53762572Y-73183152D01*
X53788922Y-73250017D01*
X53804867Y-73290441D01*
X53849917Y-73404807D01*
X53893075Y-73514607D01*
X53933659Y-73618086D01*
X53970983Y-73713490D01*
X54004363Y-73799063D01*
X54033113Y-73873053D01*
X54056550Y-73933704D01*
X54073987Y-73979261D01*
X54084741Y-74007972D01*
X54103992Y-74060765D01*
X54617315Y-74064412D01*
X54620119Y-74064432D01*
X54734108Y-74065219D01*
X54829719Y-74065791D01*
X54908547Y-74066102D01*
X54972185Y-74066105D01*
X55022228Y-74065751D01*
X55060269Y-74064994D01*
X55087903Y-74063787D01*
X55106723Y-74062082D01*
X55118323Y-74059832D01*
X55124296Y-74056989D01*
X55126238Y-74053507D01*
X55125742Y-74049338D01*
X55123631Y-74043175D01*
X55114795Y-74019421D01*
X55099784Y-73979919D01*
X55079271Y-73926420D01*
X55053932Y-73860674D01*
X55024442Y-73784429D01*
X54991475Y-73699437D01*
X54955707Y-73607447D01*
X54917812Y-73510208D01*
X54714778Y-72989799D01*
X54201541Y-72989799D01*
X54168991Y-72989804D01*
X54071600Y-72989884D01*
X53981129Y-72990054D01*
X53899445Y-72990303D01*
X53828421Y-72990623D01*
X53769924Y-72991004D01*
X53725826Y-72991436D01*
X53697995Y-72991910D01*
X53688303Y-72992416D01*
X53367922Y-72992416D01*
X53372305Y-72980335D01*
X53384131Y-72945982D01*
X53392522Y-72919322D01*
X53397952Y-72899020D01*
X53400897Y-72883744D01*
X53401830Y-72872161D01*
X53401228Y-72862940D01*
X53399565Y-72854745D01*
X53397743Y-72847615D01*
X53389540Y-72818070D01*
X53382790Y-72797223D01*
X53382665Y-72796873D01*
X53382635Y-72794300D01*
X53385019Y-72791997D01*
X53390851Y-72789950D01*
X53401167Y-72788143D01*
X53417002Y-72786562D01*
X53439390Y-72785190D01*
X53469366Y-72784015D01*
X53507966Y-72783020D01*
X53556225Y-72782190D01*
X53615177Y-72781512D01*
X53685856Y-72780969D01*
X53769300Y-72780547D01*
X53866541Y-72780231D01*
X53978615Y-72780006D01*
X54106558Y-72779856D01*
X54251403Y-72779768D01*
X54414187Y-72779726D01*
X54595943Y-72779716D01*
X55815846Y-72779716D01*
X55890023Y-72966546D01*
X55964199Y-73153375D01*
X56019221Y-73172817D01*
X56048527Y-73181226D01*
X56109812Y-73191303D01*
X56189288Y-73197129D01*
X56217411Y-73198004D01*
X56296537Y-73196088D01*
X56370066Y-73186317D01*
X56443236Y-73167447D01*
X56521286Y-73138236D01*
X56609453Y-73097441D01*
X56734502Y-73035554D01*
X56837043Y-73035185D01*
X56868378Y-73034707D01*
X56905148Y-73033005D01*
X56930277Y-73030394D01*
X56939583Y-73027199D01*
X56939583Y-73027168D01*
X56935981Y-73015262D01*
X56926678Y-72989799D01*
X58110336Y-72989799D01*
X58129026Y-73037317D01*
X58130173Y-73040240D01*
X58139102Y-73063051D01*
X58154340Y-73102037D01*
X58175115Y-73155223D01*
X58200657Y-73220634D01*
X58230195Y-73296295D01*
X58262956Y-73380230D01*
X58298171Y-73470465D01*
X58335067Y-73565025D01*
X58347341Y-73596475D01*
X58382910Y-73687512D01*
X58416046Y-73772181D01*
X58446062Y-73848727D01*
X58472266Y-73915396D01*
X58493969Y-73970436D01*
X58510481Y-74012093D01*
X58521113Y-74038612D01*
X58525173Y-74048241D01*
X58525235Y-74048311D01*
X58525967Y-74049023D01*
X58527181Y-74048625D01*
X58529617Y-74045874D01*
X58534013Y-74039527D01*
X58541110Y-74028339D01*
X58551647Y-74011069D01*
X58566365Y-73986472D01*
X58586002Y-73953305D01*
X58611299Y-73910326D01*
X58642996Y-73856290D01*
X58681832Y-73789955D01*
X58728546Y-73710077D01*
X58783880Y-73615413D01*
X58848572Y-73504720D01*
X58882167Y-73447194D01*
X58932892Y-73360169D01*
X58980064Y-73279041D01*
X59022746Y-73205433D01*
X59059999Y-73140969D01*
X59090887Y-73087272D01*
X59114472Y-73045967D01*
X59129815Y-73018676D01*
X59135980Y-73007024D01*
X59136594Y-73004451D01*
X59135162Y-73001021D01*
X59129464Y-72998170D01*
X59117925Y-72995845D01*
X59098972Y-72993994D01*
X59071030Y-72992561D01*
X59032525Y-72991495D01*
X58981883Y-72990743D01*
X58917530Y-72990250D01*
X58837892Y-72989964D01*
X58741394Y-72989831D01*
X58626463Y-72989799D01*
X58110336Y-72989799D01*
X56926678Y-72989799D01*
X56926300Y-72988765D01*
X56912006Y-72951574D01*
X56894565Y-72907586D01*
X56894408Y-72907194D01*
X56876983Y-72863211D01*
X56862720Y-72826019D01*
X56853085Y-72799530D01*
X56849548Y-72787653D01*
X56853135Y-72787117D01*
X56874494Y-72786249D01*
X56914153Y-72785411D01*
X56971046Y-72784609D01*
X57044109Y-72783849D01*
X57132276Y-72783136D01*
X57234479Y-72782475D01*
X57349655Y-72781872D01*
X57476737Y-72781332D01*
X57614660Y-72780861D01*
X57762357Y-72780463D01*
X57918763Y-72780144D01*
X58082813Y-72779910D01*
X58253440Y-72779765D01*
X58429580Y-72779716D01*
X58535558Y-72779699D01*
X58708628Y-72779598D01*
X58875590Y-72779410D01*
X59035376Y-72779140D01*
X59186915Y-72778793D01*
X59329139Y-72778374D01*
X59460978Y-72777889D01*
X59581364Y-72777342D01*
X59689226Y-72776739D01*
X59783496Y-72776084D01*
X59863105Y-72775382D01*
X59926982Y-72774639D01*
X59974060Y-72773860D01*
X60003268Y-72773050D01*
X60013537Y-72772213D01*
X60013537Y-72771864D01*
X60009458Y-72759102D01*
X59998598Y-72729096D01*
X59981419Y-72683049D01*
X59958383Y-72622165D01*
X59929955Y-72547646D01*
X59896595Y-72460696D01*
X59858767Y-72362518D01*
X59816932Y-72254316D01*
X59771555Y-72137292D01*
X59723097Y-72012650D01*
X59672020Y-71881594D01*
X59618788Y-71745326D01*
X59610644Y-71724500D01*
X59557726Y-71589027D01*
X59507031Y-71459002D01*
X59459023Y-71335624D01*
X59414163Y-71220090D01*
X59372914Y-71113600D01*
X59335737Y-71017349D01*
X59303095Y-70932537D01*
X59275450Y-70860361D01*
X59253263Y-70802020D01*
X59236997Y-70758710D01*
X59227114Y-70731631D01*
X59224076Y-70721979D01*
X59225305Y-70722969D01*
X59238094Y-70734920D01*
X59264169Y-70759835D01*
X59302789Y-70796994D01*
X59353214Y-70845675D01*
X59414702Y-70905157D01*
X59486513Y-70974718D01*
X59567906Y-71053638D01*
X59658140Y-71141195D01*
X59756474Y-71236669D01*
X59862169Y-71339336D01*
X59974482Y-71448478D01*
X60092674Y-71563371D01*
X60216004Y-71683296D01*
X60343730Y-71807531D01*
X60475112Y-71935354D01*
X60609410Y-72066045D01*
X60745882Y-72198882D01*
X60883788Y-72333144D01*
X61022387Y-72468110D01*
X61160938Y-72603058D01*
X61298701Y-72737268D01*
X61434934Y-72870017D01*
X61568898Y-73000586D01*
X61699851Y-73128252D01*
X61827053Y-73252295D01*
X61949762Y-73371993D01*
X62067239Y-73486624D01*
X62178741Y-73595469D01*
X62283530Y-73697805D01*
X62380863Y-73792912D01*
X62470000Y-73880067D01*
X62550201Y-73958550D01*
X62620724Y-74027641D01*
X62680829Y-74086616D01*
X62729775Y-74134756D01*
X62766822Y-74171338D01*
X62876809Y-74280307D01*
X62721804Y-74279805D01*
X62566799Y-74279303D01*
X61906844Y-73634551D01*
X61246890Y-72989799D01*
X60792739Y-72989799D01*
X60688255Y-72989833D01*
X60598884Y-72989981D01*
X60526200Y-72990310D01*
X60468518Y-72990885D01*
X60424154Y-72991772D01*
X60391424Y-72993035D01*
X60368644Y-72994741D01*
X60354129Y-72996956D01*
X60346196Y-72999744D01*
X60343160Y-73003172D01*
X60343338Y-73007305D01*
X60344380Y-73010375D01*
X60351733Y-73030090D01*
X60365496Y-73066156D01*
X60385054Y-73116984D01*
X60409791Y-73180983D01*
X60439091Y-73256565D01*
X60472337Y-73342140D01*
X60508915Y-73436119D01*
X60548208Y-73536912D01*
X60589601Y-73642930D01*
X60608349Y-73690941D01*
X60648689Y-73794458D01*
X60686535Y-73891858D01*
X60721285Y-73981576D01*
X60752339Y-74062048D01*
X60779095Y-74131712D01*
X60800952Y-74189003D01*
X60817309Y-74232358D01*
X60827563Y-74260213D01*
X60831115Y-74271004D01*
X60827813Y-74273736D01*
X60807510Y-74277075D01*
X60770442Y-74278583D01*
X60718616Y-74278133D01*
X60606118Y-74275305D01*
X60355974Y-73632828D01*
X60105830Y-72990352D01*
X59737511Y-72990075D01*
X59653530Y-72990046D01*
X59573772Y-72990162D01*
X59510549Y-72990522D01*
X59462003Y-72991215D01*
X59426275Y-72992329D01*
X59401503Y-72993952D01*
X59385830Y-72996173D01*
X59377396Y-72999080D01*
X59374341Y-73002761D01*
X59374514Y-73004451D01*
X59374806Y-73007305D01*
G37*
D14*
%TO.C,J1*%
X49670000Y-56850000D02*
X49670000Y-64530000D01*
X49670000Y-67130000D02*
X49670000Y-65800000D01*
X51000000Y-67130000D02*
X49670000Y-67130000D01*
X52330000Y-56850000D02*
X49670000Y-56850000D01*
X52330000Y-56850000D02*
X52330000Y-64530000D01*
X52330000Y-64530000D02*
X49670000Y-64530000D01*
%TO.C,R1*%
X54730000Y-64680000D02*
X61270000Y-64680000D01*
X54730000Y-65010000D02*
X54730000Y-64680000D01*
X54730000Y-67090000D02*
X54730000Y-67420000D01*
X54730000Y-67420000D02*
X61270000Y-67420000D01*
X61270000Y-64680000D02*
X61270000Y-65010000D01*
X61270000Y-67420000D02*
X61270000Y-67090000D01*
%TO.C,R2*%
X54730000Y-60630000D02*
X61270000Y-60630000D01*
X54730000Y-60960000D02*
X54730000Y-60630000D01*
X54730000Y-63040000D02*
X54730000Y-63370000D01*
X54730000Y-63370000D02*
X61270000Y-63370000D01*
X61270000Y-60630000D02*
X61270000Y-60960000D01*
X61270000Y-63370000D02*
X61270000Y-63040000D01*
%TO.C,R3*%
X54730000Y-56580000D02*
X61270000Y-56580000D01*
X54730000Y-56910000D02*
X54730000Y-56580000D01*
X54730000Y-58990000D02*
X54730000Y-59320000D01*
X54730000Y-59320000D02*
X61270000Y-59320000D01*
X61270000Y-56580000D02*
X61270000Y-56910000D01*
X61270000Y-59320000D02*
X61270000Y-58990000D01*
%TD*%
%LPC*%
D15*
%TO.C,J1*%
X51000000Y-65800000D03*
D16*
X51000000Y-63260000D03*
X51000000Y-60720000D03*
X51000000Y-58180000D03*
%TD*%
D17*
%TO.C,R1*%
X61810000Y-66050000D03*
D18*
X54190000Y-66050000D03*
%TD*%
D17*
%TO.C,R2*%
X61810000Y-62000000D03*
D18*
X54190000Y-62000000D03*
%TD*%
D17*
%TO.C,R3*%
X61810000Y-57950000D03*
D18*
X54190000Y-57950000D03*
%TD*%
%LPD*%
M02*
