M48
; DRILL file {KiCad 9.0.0} date 2025-04-28T22:54:58+0900
; FORMAT={-:-/ absolute / inch / decimal}
; #@! TF.CreationDate,2025-04-28T22:54:58+09:00
; #@! TF.GenerationSoftware,Kicad,Pcbnew,9.0.0
; #@! TF.FileFunction,Plated,1,2,PTH
FMAT,2
INCH
; #@! TA.AperFunction,Plated,PTH,ViaDrill
T1C0.0118
; #@! TA.AperFunction,Plated,PTH,ComponentDrill
T2C0.0276
; #@! TA.AperFunction,Plated,PTH,ComponentDrill
T3C0.0598
; #@! TA.AperFunction,Plated,PTH,ComponentDrill
T4C0.0669
%
G90
G05
T1
X2.6329Y-2.9234
X2.6722Y-3.1203
X2.751Y-2.0967
X2.7512Y-1.8213
X2.7512Y-1.9098
X2.7512Y-3.278
X2.7709Y-3.1008
X2.7709Y-3.2091
X2.7906Y-1.8213
X2.7906Y-1.9098
X2.8102Y-3.1008
X2.8102Y-3.2091
X2.8299Y-1.8213
X2.8299Y-1.9098
X2.8496Y-3.1008
X2.8496Y-3.2091
X2.889Y-1.8213
X2.889Y-1.9098
X2.9087Y-3.1008
X2.9087Y-3.2091
X2.9185Y-2.6185
X2.9185Y-2.7268
X2.9283Y-1.8213
X2.9283Y-1.9098
X2.948Y-3.1008
X2.948Y-3.2091
X2.9579Y-2.6185
X2.9579Y-2.7268
X2.9677Y-1.8213
X2.9677Y-1.9098
X2.9874Y-3.1008
X2.9874Y-3.2091
X2.9972Y-2.6185
X2.9972Y-2.7268
X3.0268Y-1.8213
X3.0268Y-1.9098
X3.0465Y-3.1008
X3.0465Y-3.2091
X3.0563Y-2.6185
X3.0563Y-2.7268
X3.0661Y-1.8213
X3.0661Y-1.9098
X3.0858Y-3.1008
X3.0858Y-3.2091
X3.0957Y-2.6185
X3.0957Y-2.7268
X3.1055Y-1.8213
X3.1055Y-1.9098
X3.1252Y-3.1008
X3.1252Y-3.2091
X3.135Y-2.6185
X3.135Y-2.7268
X3.1449Y-2.0969
X3.1449Y-2.4906
X3.1449Y-3.278
X3.1547Y-2.5594
X3.1843Y-1.8803
X3.1843Y-2.5102
X3.1843Y-2.6087
X3.1843Y-3.1008
X3.1843Y-3.2091
X3.1941Y-2.7268
X3.2236Y-2.5102
X3.2236Y-2.6087
X3.2236Y-3.1008
X3.2236Y-3.2091
X3.2335Y-2.7268
X3.263Y-2.5102
X3.263Y-2.6087
X3.263Y-3.1008
X3.263Y-3.2091
X3.2728Y-2.7268
X3.2925Y-2.3429
X3.2925Y-2.5594
X3.3417Y-3.1795
X3.3417Y-3.2976
X3.3811Y-3.1795
X3.3811Y-3.2976
X3.4205Y-3.1795
X3.4205Y-3.2976
X3.4795Y-3.1795
X3.4795Y-3.2976
X3.5189Y-3.1795
X3.5189Y-3.2976
X3.5583Y-3.1795
X3.5583Y-3.2976
X3.6173Y-3.1795
X3.6173Y-3.2976
X3.6567Y-2.4118
X3.6567Y-2.5693
X3.6567Y-3.1795
X3.6567Y-3.2976
X3.6762Y-2.697
X3.6961Y-3.1795
X3.6961Y-3.2976
X3.7352Y-2.4608
X3.7453Y-2.5954
X3.7551Y-2.8252
X3.7551Y-2.8646
X3.7551Y-2.9039
X3.7551Y-2.963
X3.7551Y-3.0024
X3.7551Y-3.0417
X3.7642Y-2.5307
X3.7945Y-1.8803
X3.8339Y-2.4118
X3.8362Y-2.6897
X3.8437Y-2.8252
X3.8437Y-2.8646
X3.8437Y-2.9039
X3.8437Y-2.963
X3.8437Y-3.0024
X3.8437Y-3.0417
X3.8732Y-1.8213
X3.8732Y-1.9197
X3.8929Y-2.3823
X3.8929Y-2.4413
X3.8929Y-2.6283
X3.8929Y-2.6874
X3.9126Y-1.8213
X3.9126Y-1.9197
X3.9323Y-2.0969
X3.9323Y-3.278
X3.9518Y-2.4215
X3.952Y-1.8213
X3.952Y-1.9197
X3.9813Y-2.9037
X4.011Y-1.8213
X4.011Y-1.9197
X4.0504Y-1.8213
X4.0504Y-1.9197
X4.0898Y-1.8213
X4.0898Y-1.9197
X4.1882Y-1.9197
X4.1882Y-1.9787
X4.2079Y-1.8803
X4.2079Y-2.0181
X4.2866Y-1.8606
X4.2866Y-2.0378
X4.2997Y-2.4411
X4.326Y-2.8843
X4.326Y-3.278
X4.3654Y-2.2543
X4.4047Y-3.4354
X4.4441Y-2.2543
X4.4835Y-2.2937
X4.4835Y-2.3724
X4.4835Y-3.3567
X4.4835Y-3.4354
T2
X3.9616Y-2.2246
T3
X4.2864Y-1.9459
X4.2864Y-2.1459
T4
X2.8083Y-2.3118
X2.8083Y-2.4677
M30
