M48
; DRILL file {KiCad 9.0.0} date 2025-06-25T09:26:05+0900
; FORMAT={-:-/ absolute / inch / decimal}
; #@! TF.CreationDate,2025-06-25T09:26:05+09:00
; #@! TF.GenerationSoftware,Kicad,Pcbnew,9.0.0
; #@! TF.FileFunction,Plated,1,2,PTH
FMAT,2
INCH
; #@! TA.AperFunction,Plated,PTH,ViaDrill
T1C0.0118
; #@! TA.AperFunction,Plated,PTH,ComponentDrill
T2C0.0315
; #@! TA.AperFunction,Plated,PTH,ComponentDrill
T3C0.0350
; #@! TA.AperFunction,Plated,PTH,ComponentDrill
T4C0.0374
; #@! TA.AperFunction,Plated,PTH,ComponentDrill
T5C0.0394
; #@! TA.AperFunction,Plated,PTH,ComponentDrill
T6C0.0618
; #@! TA.AperFunction,Plated,PTH,ComponentDrill
T7C0.0984
; #@! TA.AperFunction,Plated,PTH,ComponentDrill
T8C0.1260
%
G90
G05
T1
X3.293Y-1.1877
X3.293Y-1.7445
X3.293Y-2.5657
X3.293Y-3.1224
X3.2972Y-2.2957
X3.2972Y-3.6736
X3.6476Y-1.543
X3.6476Y-2.921
X3.8498Y-1.1877
X3.8498Y-2.3013
X3.8498Y-2.5657
X3.8498Y-3.6792
X4.4066Y-1.1877
X4.4066Y-1.7445
X4.4066Y-2.3013
X4.4066Y-2.5657
X4.4066Y-3.1224
X4.4066Y-3.6792
X4.671Y-1.1877
X4.671Y-1.7445
X4.671Y-3.1224
X4.6752Y-2.2957
X4.9493Y-2.8441
X4.9493Y-3.4008
X5.0255Y-1.543
X5.2277Y-1.1877
X5.2277Y-2.3013
X5.2277Y-2.5657
X5.2277Y-3.6792
X5.5061Y-2.8441
X5.5061Y-3.4008
X5.7845Y-1.1877
X5.7845Y-1.7445
X5.7845Y-2.3013
X5.7845Y-3.1224
X5.9659Y-3.2996
X5.9659Y-3.8114
X5.9659Y-4.2051
X6.6352Y-3.2996
X6.6352Y-3.8114
X6.6352Y-4.2051
T2
X3.4679Y-4.1835
X3.4679Y-4.272
X3.5466Y-4.1835
X3.5466Y-4.272
X3.6254Y-4.1835
X3.6254Y-4.272
X3.7041Y-4.1835
X3.7041Y-4.272
X4.8445Y-4.1835
X4.8445Y-4.272
X4.9093Y-3.1776
X4.9232Y-4.1835
X4.9232Y-4.272
X4.9649Y-3.1219
X5.002Y-4.1835
X5.002Y-4.272
X5.0206Y-3.0662
X5.0763Y-3.0105
X5.0807Y-4.1835
X5.0807Y-4.272
X5.132Y-2.9549
X5.1877Y-2.8992
X5.2433Y-2.8435
X5.299Y-2.7878
X6.2238Y-2.8055
X6.2238Y-2.8941
X6.2238Y-1.4276
X6.2238Y-1.5161
X6.3025Y-2.8055
X6.3025Y-2.8941
X6.3025Y-1.4276
X6.3025Y-1.5161
X6.3813Y-2.8055
X6.3813Y-2.8941
X6.3813Y-1.4276
X6.3813Y-1.5161
X6.46Y-2.8055
X6.46Y-2.8941
X6.46Y-1.4276
X6.46Y-1.5161
T3
X6.1569Y-3.6811
X6.197Y-3.5811
X6.2372Y-3.6811
X6.2773Y-3.5811
X6.3175Y-3.6811
X6.3577Y-3.5811
X6.3978Y-3.6811
X6.438Y-3.5811
T4
X3.6626Y-1.6958
X3.6626Y-3.0737
X3.7322Y-1.6262
X3.7322Y-3.0041
X3.8018Y-1.5566
X3.8018Y-2.9345
X3.8132Y-1.962
X3.8132Y-3.34
X3.8828Y-1.8924
X3.8828Y-3.2704
X3.9524Y-1.8228
X3.9524Y-3.2008
X4.022Y-1.7532
X4.022Y-3.1312
X5.0405Y-1.6958
X5.1101Y-1.6262
X5.1797Y-1.5566
X5.1911Y-1.962
X5.2607Y-1.8924
X5.3303Y-1.8228
X5.3999Y-1.7532
T5
X3.5307Y-1.5675
X3.5307Y-2.9455
X3.6014Y-1.4968
X3.6014Y-2.8748
X3.6721Y-1.4261
X3.6721Y-2.8041
X3.9641Y-2.0478
X3.9641Y-3.4257
X4.0348Y-1.9771
X4.0348Y-3.355
X4.1055Y-1.9064
X4.1055Y-3.2843
X4.1762Y-1.8356
X4.1762Y-3.2136
X4.9087Y-1.5675
X4.9794Y-1.4968
X5.0451Y-3.2227
X5.0501Y-1.4261
X5.1158Y-3.152
X5.1158Y-3.2934
X5.1865Y-3.0813
X5.1865Y-3.2227
X5.2573Y-3.0105
X5.2573Y-3.152
X5.328Y-2.9398
X5.328Y-3.0813
X5.342Y-2.0478
X5.3987Y-3.0105
X5.4127Y-1.9771
X5.4834Y-1.9064
X5.5542Y-1.8356
X6.1006Y-3.9772
X6.1006Y-4.0772
X6.2006Y-3.9772
X6.2006Y-4.0772
X6.3006Y-3.9772
X6.3006Y-4.0772
X6.4006Y-3.9772
X6.4006Y-4.0772
X6.5006Y-3.9772
X6.5006Y-4.0772
T6
X5.9777Y-3.6811
X6.6171Y-3.6811
T7
X3.5575Y-1.8976
X3.5575Y-3.2756
X4.0029Y-1.4522
X4.0029Y-2.8301
X4.149Y-1.5983
X4.149Y-2.9763
X4.9354Y-1.8976
X5.3808Y-1.4522
X5.527Y-1.5983
T8
X3.3773Y-4.028
X3.3773Y-4.4217
X3.4561Y-1.3508
X3.4561Y-2.1382
X3.4561Y-2.7287
X3.4561Y-3.5161
X3.771Y-4.028
X3.771Y-4.4217
X4.2435Y-1.3508
X4.2435Y-2.1382
X4.2435Y-2.7287
X4.2435Y-3.5161
X4.7539Y-4.028
X4.7539Y-4.4217
X4.834Y-2.7287
X4.834Y-3.5161
X4.834Y-1.3508
X4.834Y-2.1382
X5.1476Y-4.028
X5.1476Y-4.4217
X5.6214Y-1.3508
X5.6214Y-2.1382
X5.6214Y-2.7287
X5.6214Y-3.5161
X6.1332Y-2.65
X6.1332Y-3.0437
X6.1332Y-1.272
X6.1332Y-1.6657
X6.5269Y-2.65
X6.5269Y-3.0437
X6.5269Y-1.272
X6.5269Y-1.6657
M30
