%TF.GenerationSoftware,KiCad,Pcbnew,9.0.0*%
%TF.CreationDate,2025-06-25T09:26:05+09:00*%
%TF.ProjectId,pcb_connectors,7063625f-636f-46e6-9e65-63746f72732e,rev?*%
%TF.SameCoordinates,Original*%
%TF.FileFunction,Legend,Bot*%
%TF.FilePolarity,Positive*%
%FSLAX46Y46*%
G04 Gerber Fmt 4.6, Leading zero omitted, Abs format (unit mm)*
G04 Created by KiCad (PCBNEW 9.0.0) date 2025-06-25 09:26:05*
%MOMM*%
%LPD*%
G01*
G04 APERTURE LIST*
G04 Aperture macros list*
%AMRoundRect*
0 Rectangle with rounded corners*
0 $1 Rounding radius*
0 $2 $3 $4 $5 $6 $7 $8 $9 X,Y pos of 4 corners*
0 Add a 4 corners polygon primitive as box body*
4,1,4,$2,$3,$4,$5,$6,$7,$8,$9,$2,$3,0*
0 Add four circle primitives for the rounded corners*
1,1,$1+$1,$2,$3*
1,1,$1+$1,$4,$5*
1,1,$1+$1,$6,$7*
1,1,$1+$1,$8,$9*
0 Add four rect primitives between the rounded corners*
20,1,$1+$1,$2,$3,$4,$5,0*
20,1,$1+$1,$4,$5,$6,$7,0*
20,1,$1+$1,$6,$7,$8,$9,0*
20,1,$1+$1,$8,$9,$2,$3,0*%
%AMHorizOval*
0 Thick line with rounded ends*
0 $1 width*
0 $2 $3 position (X,Y) of the first rounded end (center of the circle)*
0 $4 $5 position (X,Y) of the second rounded end (center of the circle)*
0 Add line between two ends*
20,1,$1,$2,$3,$4,$5,0*
0 Add two circle primitives to create the rounded ends*
1,1,$1,$2,$3*
1,1,$1,$4,$5*%
%AMRotRect*
0 Rectangle, with rotation*
0 The origin of the aperture is its center*
0 $1 length*
0 $2 width*
0 $3 Rotation angle, in degrees counterclockwise*
0 Add horizontal line*
21,1,$1,$2,0,0,$3*%
G04 Aperture macros list end*
%ADD10C,0.100000*%
%ADD11C,0.062500*%
%ADD12C,0.150000*%
%ADD13C,0.125000*%
%ADD14C,0.120000*%
%ADD15C,0.000000*%
%ADD16C,5.000000*%
%ADD17RotRect,1.700000X1.700000X315.000000*%
%ADD18HorizOval,1.700000X0.000000X0.000000X0.000000X0.000000X0*%
%ADD19R,1.350000X1.350000*%
%ADD20O,1.350000X1.350000*%
%ADD21RotRect,1.350000X1.350000X135.000000*%
%ADD22HorizOval,1.350000X0.000000X0.000000X0.000000X0.000000X0*%
%ADD23RoundRect,0.250000X-0.088388X0.936916X-0.936916X0.088388X0.088388X-0.936916X0.936916X-0.088388X0*%
%ADD24HorizOval,1.700000X-0.088388X0.088388X0.088388X-0.088388X0*%
%ADD25RotRect,1.700000X1.700000X135.000000*%
%ADD26HorizOval,1.700000X0.000000X0.000000X0.000000X0.000000X0*%
%ADD27R,1.700000X1.700000*%
%ADD28O,1.700000X1.700000*%
%ADD29C,3.250000*%
%ADD30C,1.500000*%
%ADD31C,2.300000*%
G04 APERTURE END LIST*
D10*
X138534316Y-34059992D02*
X127034328Y-34059992D01*
X122784333Y-50309974D02*
X122784333Y-40309985D01*
X87784333Y-50309974D02*
X87784333Y-40309985D01*
X138284316Y-54309970D02*
X127284328Y-54309970D01*
X122784338Y-84809937D02*
X122784338Y-73809949D01*
X107784311Y-38809987D02*
X107784311Y-39309987D01*
X142784311Y-38809987D02*
X142784311Y-39309987D01*
X103284316Y-54309970D02*
X92284328Y-54309970D01*
X142784311Y-41809984D02*
X142784311Y-49809975D01*
X107784311Y-41809984D02*
X107784311Y-49809975D01*
X103534316Y-34059992D02*
X92034328Y-34059992D01*
X107784311Y-73809987D02*
X107784311Y-74309987D01*
X127284333Y-69309954D02*
X138284321Y-69309954D01*
X87784333Y-85309974D02*
X87784333Y-75309985D01*
X142784316Y-85309936D02*
X142784316Y-73309950D01*
X103284316Y-89309970D02*
X92284328Y-89309970D01*
X127284333Y-89309932D02*
X138284321Y-89309932D01*
X103534316Y-69059992D02*
X92034328Y-69059992D01*
X107784311Y-76809984D02*
X107784311Y-84809975D01*
X127777068Y-105431371D02*
X128119925Y-105431371D01*
X127948496Y-105431371D02*
X127948496Y-104831371D01*
X127948496Y-104831371D02*
X128005639Y-104917085D01*
X128005639Y-104917085D02*
X128062782Y-104974228D01*
X128062782Y-104974228D02*
X128119925Y-105002800D01*
X127548496Y-104888514D02*
X127519924Y-104859942D01*
X127519924Y-104859942D02*
X127462782Y-104831371D01*
X127462782Y-104831371D02*
X127319924Y-104831371D01*
X127319924Y-104831371D02*
X127262782Y-104859942D01*
X127262782Y-104859942D02*
X127234210Y-104888514D01*
X127234210Y-104888514D02*
X127205639Y-104945657D01*
X127205639Y-104945657D02*
X127205639Y-105002800D01*
X127205639Y-105002800D02*
X127234210Y-105088514D01*
X127234210Y-105088514D02*
X127577067Y-105431371D01*
X127577067Y-105431371D02*
X127205639Y-105431371D01*
X127034210Y-104831371D02*
X126834210Y-105431371D01*
X126834210Y-105431371D02*
X126634210Y-104831371D01*
X125662781Y-104859942D02*
X125719924Y-104831371D01*
X125719924Y-104831371D02*
X125805638Y-104831371D01*
X125805638Y-104831371D02*
X125891352Y-104859942D01*
X125891352Y-104859942D02*
X125948495Y-104917085D01*
X125948495Y-104917085D02*
X125977066Y-104974228D01*
X125977066Y-104974228D02*
X126005638Y-105088514D01*
X126005638Y-105088514D02*
X126005638Y-105174228D01*
X126005638Y-105174228D02*
X125977066Y-105288514D01*
X125977066Y-105288514D02*
X125948495Y-105345657D01*
X125948495Y-105345657D02*
X125891352Y-105402800D01*
X125891352Y-105402800D02*
X125805638Y-105431371D01*
X125805638Y-105431371D02*
X125748495Y-105431371D01*
X125748495Y-105431371D02*
X125662781Y-105402800D01*
X125662781Y-105402800D02*
X125634209Y-105374228D01*
X125634209Y-105374228D02*
X125634209Y-105174228D01*
X125634209Y-105174228D02*
X125748495Y-105174228D01*
X124577066Y-105431371D02*
X124777066Y-105145657D01*
X124919923Y-105431371D02*
X124919923Y-104831371D01*
X124919923Y-104831371D02*
X124691352Y-104831371D01*
X124691352Y-104831371D02*
X124634209Y-104859942D01*
X124634209Y-104859942D02*
X124605638Y-104888514D01*
X124605638Y-104888514D02*
X124577066Y-104945657D01*
X124577066Y-104945657D02*
X124577066Y-105031371D01*
X124577066Y-105031371D02*
X124605638Y-105088514D01*
X124605638Y-105088514D02*
X124634209Y-105117085D01*
X124634209Y-105117085D02*
X124691352Y-105145657D01*
X124691352Y-105145657D02*
X124919923Y-105145657D01*
X123662780Y-105117085D02*
X123577066Y-105145657D01*
X123577066Y-105145657D02*
X123548495Y-105174228D01*
X123548495Y-105174228D02*
X123519923Y-105231371D01*
X123519923Y-105231371D02*
X123519923Y-105317085D01*
X123519923Y-105317085D02*
X123548495Y-105374228D01*
X123548495Y-105374228D02*
X123577066Y-105402800D01*
X123577066Y-105402800D02*
X123634209Y-105431371D01*
X123634209Y-105431371D02*
X123862780Y-105431371D01*
X123862780Y-105431371D02*
X123862780Y-104831371D01*
X123862780Y-104831371D02*
X123662780Y-104831371D01*
X123662780Y-104831371D02*
X123605638Y-104859942D01*
X123605638Y-104859942D02*
X123577066Y-104888514D01*
X123577066Y-104888514D02*
X123548495Y-104945657D01*
X123548495Y-104945657D02*
X123548495Y-105002800D01*
X123548495Y-105002800D02*
X123577066Y-105059942D01*
X123577066Y-105059942D02*
X123605638Y-105088514D01*
X123605638Y-105088514D02*
X123662780Y-105117085D01*
X123662780Y-105117085D02*
X123862780Y-105117085D01*
X136468120Y-52837903D02*
X136495058Y-52757090D01*
X136495058Y-52757090D02*
X136575870Y-52676278D01*
X136575870Y-52676278D02*
X136683619Y-52622403D01*
X136683619Y-52622403D02*
X136791369Y-52622403D01*
X136791369Y-52622403D02*
X136872181Y-52649341D01*
X136872181Y-52649341D02*
X137006868Y-52730153D01*
X137006868Y-52730153D02*
X137087680Y-52810965D01*
X137087680Y-52810965D02*
X137168493Y-52945652D01*
X137168493Y-52945652D02*
X137195430Y-53026464D01*
X137195430Y-53026464D02*
X137195430Y-53134214D01*
X137195430Y-53134214D02*
X137141555Y-53241964D01*
X137141555Y-53241964D02*
X137087680Y-53295838D01*
X137087680Y-53295838D02*
X136979931Y-53349713D01*
X136979931Y-53349713D02*
X136926056Y-53349713D01*
X136926056Y-53349713D02*
X136737494Y-53161151D01*
X136737494Y-53161151D02*
X136845244Y-53053402D01*
D11*
X92963900Y-34766319D02*
X92610347Y-34412766D01*
X92610347Y-34412766D02*
X92475660Y-34547453D01*
X92475660Y-34547453D02*
X92458824Y-34597961D01*
X92458824Y-34597961D02*
X92458824Y-34631632D01*
X92458824Y-34631632D02*
X92475660Y-34682140D01*
X92475660Y-34682140D02*
X92526167Y-34732648D01*
X92526167Y-34732648D02*
X92576675Y-34749484D01*
X92576675Y-34749484D02*
X92610347Y-34749484D01*
X92610347Y-34749484D02*
X92660854Y-34732648D01*
X92660854Y-34732648D02*
X92795541Y-34597961D01*
X92290465Y-34732648D02*
X92559839Y-35170380D01*
X92559839Y-35170380D02*
X92239957Y-34985186D01*
X92239957Y-34985186D02*
X92425152Y-35305067D01*
X92425152Y-35305067D02*
X91987419Y-35035693D01*
X92206285Y-35523934D02*
X91852732Y-35170381D01*
X91852732Y-35170381D02*
X91987419Y-35540770D01*
X91987419Y-35540770D02*
X91617030Y-35406083D01*
X91617030Y-35406083D02*
X91970583Y-35759636D01*
D12*
X133092663Y-69872023D02*
X133131048Y-69756865D01*
X133131048Y-69756865D02*
X133131048Y-69680094D01*
X133131048Y-69680094D02*
X133092663Y-69564936D01*
X133092663Y-69564936D02*
X133054277Y-69526550D01*
X133054277Y-69526550D02*
X132939119Y-69488165D01*
X132939119Y-69488165D02*
X132862348Y-69488165D01*
X132862348Y-69488165D02*
X132747190Y-69526550D01*
X132747190Y-69526550D02*
X132593647Y-69680094D01*
X132593647Y-69680094D02*
X132555261Y-69795251D01*
X132555261Y-69795251D02*
X132555261Y-69872023D01*
X132555261Y-69872023D02*
X132593647Y-69987180D01*
X132593647Y-69987180D02*
X132632033Y-70025566D01*
X132632033Y-70025566D02*
X132747190Y-70063951D01*
X132747190Y-70063951D02*
X132823962Y-70063951D01*
X132823962Y-70063951D02*
X132939119Y-70025566D01*
X132939119Y-70025566D02*
X133092663Y-69872023D01*
X133092663Y-69872023D02*
X133207820Y-69833637D01*
X133207820Y-69833637D02*
X133284591Y-69833637D01*
X133284591Y-69833637D02*
X133399749Y-69872023D01*
X133399749Y-69872023D02*
X133553292Y-70025566D01*
X133553292Y-70025566D02*
X133591678Y-70140723D01*
X133591678Y-70140723D02*
X133591678Y-70217495D01*
X133591678Y-70217495D02*
X133553292Y-70332652D01*
X133553292Y-70332652D02*
X133399749Y-70486195D01*
X133399749Y-70486195D02*
X133284591Y-70524581D01*
X133284591Y-70524581D02*
X133207820Y-70524581D01*
X133207820Y-70524581D02*
X133092663Y-70486195D01*
X133092663Y-70486195D02*
X132939119Y-70332652D01*
X132939119Y-70332652D02*
X132900734Y-70217495D01*
X132900734Y-70217495D02*
X132900734Y-70140723D01*
X132900734Y-70140723D02*
X132939119Y-70025566D01*
X131557231Y-70716510D02*
X131019830Y-71253911D01*
X131019830Y-71253911D02*
X132171404Y-71714540D01*
X129753099Y-72520641D02*
X129906642Y-72367098D01*
X129906642Y-72367098D02*
X130021800Y-72328712D01*
X130021800Y-72328712D02*
X130098571Y-72328712D01*
X130098571Y-72328712D02*
X130290500Y-72367098D01*
X130290500Y-72367098D02*
X130482429Y-72482256D01*
X130482429Y-72482256D02*
X130789516Y-72789342D01*
X130789516Y-72789342D02*
X130827902Y-72904499D01*
X130827902Y-72904499D02*
X130827902Y-72981271D01*
X130827902Y-72981271D02*
X130789516Y-73096428D01*
X130789516Y-73096428D02*
X130635973Y-73249972D01*
X130635973Y-73249972D02*
X130520815Y-73288357D01*
X130520815Y-73288357D02*
X130444044Y-73288357D01*
X130444044Y-73288357D02*
X130328886Y-73249972D01*
X130328886Y-73249972D02*
X130136957Y-73058043D01*
X130136957Y-73058043D02*
X130098571Y-72942885D01*
X130098571Y-72942885D02*
X130098571Y-72866114D01*
X130098571Y-72866114D02*
X130136957Y-72750956D01*
X130136957Y-72750956D02*
X130290500Y-72597413D01*
X130290500Y-72597413D02*
X130405658Y-72559027D01*
X130405658Y-72559027D02*
X130482429Y-72559027D01*
X130482429Y-72559027D02*
X130597587Y-72597413D01*
X128332825Y-73940915D02*
X128716683Y-73557057D01*
X128716683Y-73557057D02*
X129138927Y-73902530D01*
X129138927Y-73902530D02*
X129062155Y-73902530D01*
X129062155Y-73902530D02*
X128946998Y-73940915D01*
X128946998Y-73940915D02*
X128755069Y-74132844D01*
X128755069Y-74132844D02*
X128716683Y-74248002D01*
X128716683Y-74248002D02*
X128716683Y-74324773D01*
X128716683Y-74324773D02*
X128755069Y-74439931D01*
X128755069Y-74439931D02*
X128946998Y-74631860D01*
X128946998Y-74631860D02*
X129062155Y-74670246D01*
X129062155Y-74670246D02*
X129138927Y-74670246D01*
X129138927Y-74670246D02*
X129254084Y-74631860D01*
X129254084Y-74631860D02*
X129446013Y-74439931D01*
X129446013Y-74439931D02*
X129484399Y-74324773D01*
X129484399Y-74324773D02*
X129484399Y-74248002D01*
X127258023Y-75553118D02*
X127795425Y-76090520D01*
X127142866Y-75054103D02*
X127910582Y-75437961D01*
X127910582Y-75437961D02*
X127411567Y-75936976D01*
X126029678Y-76244062D02*
X125530663Y-76743078D01*
X125530663Y-76743078D02*
X126106450Y-76781463D01*
X126106450Y-76781463D02*
X125991293Y-76896621D01*
X125991293Y-76896621D02*
X125952907Y-77011778D01*
X125952907Y-77011778D02*
X125952907Y-77088550D01*
X125952907Y-77088550D02*
X125991293Y-77203707D01*
X125991293Y-77203707D02*
X126183222Y-77395636D01*
X126183222Y-77395636D02*
X126298379Y-77434022D01*
X126298379Y-77434022D02*
X126375151Y-77434022D01*
X126375151Y-77434022D02*
X126490308Y-77395636D01*
X126490308Y-77395636D02*
X126720623Y-77165321D01*
X126720623Y-77165321D02*
X126759009Y-77050164D01*
X126759009Y-77050164D02*
X126759009Y-76973392D01*
X124686176Y-77741108D02*
X124609404Y-77741108D01*
X124609404Y-77741108D02*
X124494247Y-77779494D01*
X124494247Y-77779494D02*
X124302318Y-77971423D01*
X124302318Y-77971423D02*
X124263932Y-78086580D01*
X124263932Y-78086580D02*
X124263932Y-78163352D01*
X124263932Y-78163352D02*
X124302318Y-78278509D01*
X124302318Y-78278509D02*
X124379090Y-78355281D01*
X124379090Y-78355281D02*
X124532633Y-78432052D01*
X124532633Y-78432052D02*
X125453892Y-78432052D01*
X125453892Y-78432052D02*
X124954877Y-78931067D01*
X123572988Y-80312956D02*
X124033618Y-79852326D01*
X123803303Y-80082641D02*
X122997202Y-79276539D01*
X122997202Y-79276539D02*
X123189130Y-79314925D01*
X123189130Y-79314925D02*
X123342674Y-79314925D01*
X123342674Y-79314925D02*
X123457831Y-79276539D01*
D10*
X162811409Y-35431371D02*
X163154266Y-35431371D01*
X162982837Y-35431371D02*
X162982837Y-34831371D01*
X162982837Y-34831371D02*
X163039980Y-34917085D01*
X163039980Y-34917085D02*
X163097123Y-34974228D01*
X163097123Y-34974228D02*
X163154266Y-35002800D01*
X162582837Y-34888514D02*
X162554265Y-34859942D01*
X162554265Y-34859942D02*
X162497123Y-34831371D01*
X162497123Y-34831371D02*
X162354265Y-34831371D01*
X162354265Y-34831371D02*
X162297123Y-34859942D01*
X162297123Y-34859942D02*
X162268551Y-34888514D01*
X162268551Y-34888514D02*
X162239980Y-34945657D01*
X162239980Y-34945657D02*
X162239980Y-35002800D01*
X162239980Y-35002800D02*
X162268551Y-35088514D01*
X162268551Y-35088514D02*
X162611408Y-35431371D01*
X162611408Y-35431371D02*
X162239980Y-35431371D01*
X162068551Y-34831371D02*
X161868551Y-35431371D01*
X161868551Y-35431371D02*
X161668551Y-34831371D01*
X160697122Y-34859942D02*
X160754265Y-34831371D01*
X160754265Y-34831371D02*
X160839979Y-34831371D01*
X160839979Y-34831371D02*
X160925693Y-34859942D01*
X160925693Y-34859942D02*
X160982836Y-34917085D01*
X160982836Y-34917085D02*
X161011407Y-34974228D01*
X161011407Y-34974228D02*
X161039979Y-35088514D01*
X161039979Y-35088514D02*
X161039979Y-35174228D01*
X161039979Y-35174228D02*
X161011407Y-35288514D01*
X161011407Y-35288514D02*
X160982836Y-35345657D01*
X160982836Y-35345657D02*
X160925693Y-35402800D01*
X160925693Y-35402800D02*
X160839979Y-35431371D01*
X160839979Y-35431371D02*
X160782836Y-35431371D01*
X160782836Y-35431371D02*
X160697122Y-35402800D01*
X160697122Y-35402800D02*
X160668550Y-35374228D01*
X160668550Y-35374228D02*
X160668550Y-35174228D01*
X160668550Y-35174228D02*
X160782836Y-35174228D01*
X159611407Y-35431371D02*
X159811407Y-35145657D01*
X159954264Y-35431371D02*
X159954264Y-34831371D01*
X159954264Y-34831371D02*
X159725693Y-34831371D01*
X159725693Y-34831371D02*
X159668550Y-34859942D01*
X159668550Y-34859942D02*
X159639979Y-34888514D01*
X159639979Y-34888514D02*
X159611407Y-34945657D01*
X159611407Y-34945657D02*
X159611407Y-35031371D01*
X159611407Y-35031371D02*
X159639979Y-35088514D01*
X159639979Y-35088514D02*
X159668550Y-35117085D01*
X159668550Y-35117085D02*
X159725693Y-35145657D01*
X159725693Y-35145657D02*
X159954264Y-35145657D01*
X158697121Y-35117085D02*
X158611407Y-35145657D01*
X158611407Y-35145657D02*
X158582836Y-35174228D01*
X158582836Y-35174228D02*
X158554264Y-35231371D01*
X158554264Y-35231371D02*
X158554264Y-35317085D01*
X158554264Y-35317085D02*
X158582836Y-35374228D01*
X158582836Y-35374228D02*
X158611407Y-35402800D01*
X158611407Y-35402800D02*
X158668550Y-35431371D01*
X158668550Y-35431371D02*
X158897121Y-35431371D01*
X158897121Y-35431371D02*
X158897121Y-34831371D01*
X158897121Y-34831371D02*
X158697121Y-34831371D01*
X158697121Y-34831371D02*
X158639979Y-34859942D01*
X158639979Y-34859942D02*
X158611407Y-34888514D01*
X158611407Y-34888514D02*
X158582836Y-34945657D01*
X158582836Y-34945657D02*
X158582836Y-35002800D01*
X158582836Y-35002800D02*
X158611407Y-35059942D01*
X158611407Y-35059942D02*
X158639979Y-35088514D01*
X158639979Y-35088514D02*
X158697121Y-35117085D01*
X158697121Y-35117085D02*
X158897121Y-35117085D01*
X105177063Y-49613833D02*
X105123189Y-49721582D01*
X105123189Y-49721582D02*
X105123189Y-49775457D01*
X105123189Y-49775457D02*
X105150126Y-49856269D01*
X105150126Y-49856269D02*
X105230938Y-49937081D01*
X105230938Y-49937081D02*
X105311750Y-49964019D01*
X105311750Y-49964019D02*
X105365625Y-49964019D01*
X105365625Y-49964019D02*
X105446437Y-49937081D01*
X105446437Y-49937081D02*
X105661937Y-49721582D01*
X105661937Y-49721582D02*
X105096251Y-49155897D01*
X105096251Y-49155897D02*
X104907689Y-49344459D01*
X104907689Y-49344459D02*
X104880752Y-49425271D01*
X104880752Y-49425271D02*
X104880752Y-49479146D01*
X104880752Y-49479146D02*
X104907689Y-49559958D01*
X104907689Y-49559958D02*
X104961564Y-49613833D01*
X104961564Y-49613833D02*
X105042376Y-49640770D01*
X105042376Y-49640770D02*
X105096251Y-49640770D01*
X105096251Y-49640770D02*
X105177063Y-49613833D01*
X105177063Y-49613833D02*
X105365625Y-49425271D01*
D11*
X88441531Y-74099622D02*
X88458367Y-74049114D01*
X88458367Y-74049114D02*
X88508874Y-73998606D01*
X88508874Y-73998606D02*
X88576218Y-73964935D01*
X88576218Y-73964935D02*
X88643561Y-73964935D01*
X88643561Y-73964935D02*
X88694069Y-73981770D01*
X88694069Y-73981770D02*
X88778248Y-74032278D01*
X88778248Y-74032278D02*
X88828756Y-74082786D01*
X88828756Y-74082786D02*
X88879264Y-74166965D01*
X88879264Y-74166965D02*
X88896100Y-74217473D01*
X88896100Y-74217473D02*
X88896100Y-74284816D01*
X88896100Y-74284816D02*
X88862428Y-74352160D01*
X88862428Y-74352160D02*
X88828756Y-74385831D01*
X88828756Y-74385831D02*
X88761412Y-74419503D01*
X88761412Y-74419503D02*
X88727741Y-74419503D01*
X88727741Y-74419503D02*
X88609890Y-74301652D01*
X88609890Y-74301652D02*
X88677233Y-74234309D01*
X88609890Y-74604698D02*
X88256336Y-74251144D01*
X88256336Y-74251144D02*
X88407859Y-74806728D01*
X88407859Y-74806728D02*
X88054306Y-74453175D01*
X88239500Y-74975087D02*
X87885947Y-74621534D01*
X87885947Y-74621534D02*
X87801767Y-74705713D01*
X87801767Y-74705713D02*
X87768095Y-74773057D01*
X87768095Y-74773057D02*
X87768095Y-74840400D01*
X87768095Y-74840400D02*
X87784931Y-74890908D01*
X87784931Y-74890908D02*
X87835439Y-74975087D01*
X87835439Y-74975087D02*
X87885947Y-75025595D01*
X87885947Y-75025595D02*
X87970126Y-75076103D01*
X87970126Y-75076103D02*
X88020634Y-75092939D01*
X88020634Y-75092939D02*
X88087977Y-75092939D01*
X88087977Y-75092939D02*
X88155321Y-75059267D01*
X88155321Y-75059267D02*
X88239500Y-74975087D01*
D10*
X92811390Y-105431332D02*
X93154247Y-105431332D01*
X92982818Y-105431332D02*
X92982818Y-104831332D01*
X92982818Y-104831332D02*
X93039961Y-104917046D01*
X93039961Y-104917046D02*
X93097104Y-104974189D01*
X93097104Y-104974189D02*
X93154247Y-105002761D01*
X92582818Y-104888475D02*
X92554246Y-104859903D01*
X92554246Y-104859903D02*
X92497104Y-104831332D01*
X92497104Y-104831332D02*
X92354246Y-104831332D01*
X92354246Y-104831332D02*
X92297104Y-104859903D01*
X92297104Y-104859903D02*
X92268532Y-104888475D01*
X92268532Y-104888475D02*
X92239961Y-104945618D01*
X92239961Y-104945618D02*
X92239961Y-105002761D01*
X92239961Y-105002761D02*
X92268532Y-105088475D01*
X92268532Y-105088475D02*
X92611389Y-105431332D01*
X92611389Y-105431332D02*
X92239961Y-105431332D01*
X92068532Y-104831332D02*
X91868532Y-105431332D01*
X91868532Y-105431332D02*
X91668532Y-104831332D01*
X90697103Y-104859903D02*
X90754246Y-104831332D01*
X90754246Y-104831332D02*
X90839960Y-104831332D01*
X90839960Y-104831332D02*
X90925674Y-104859903D01*
X90925674Y-104859903D02*
X90982817Y-104917046D01*
X90982817Y-104917046D02*
X91011388Y-104974189D01*
X91011388Y-104974189D02*
X91039960Y-105088475D01*
X91039960Y-105088475D02*
X91039960Y-105174189D01*
X91039960Y-105174189D02*
X91011388Y-105288475D01*
X91011388Y-105288475D02*
X90982817Y-105345618D01*
X90982817Y-105345618D02*
X90925674Y-105402761D01*
X90925674Y-105402761D02*
X90839960Y-105431332D01*
X90839960Y-105431332D02*
X90782817Y-105431332D01*
X90782817Y-105431332D02*
X90697103Y-105402761D01*
X90697103Y-105402761D02*
X90668531Y-105374189D01*
X90668531Y-105374189D02*
X90668531Y-105174189D01*
X90668531Y-105174189D02*
X90782817Y-105174189D01*
X89611388Y-105431332D02*
X89811388Y-105145618D01*
X89954245Y-105431332D02*
X89954245Y-104831332D01*
X89954245Y-104831332D02*
X89725674Y-104831332D01*
X89725674Y-104831332D02*
X89668531Y-104859903D01*
X89668531Y-104859903D02*
X89639960Y-104888475D01*
X89639960Y-104888475D02*
X89611388Y-104945618D01*
X89611388Y-104945618D02*
X89611388Y-105031332D01*
X89611388Y-105031332D02*
X89639960Y-105088475D01*
X89639960Y-105088475D02*
X89668531Y-105117046D01*
X89668531Y-105117046D02*
X89725674Y-105145618D01*
X89725674Y-105145618D02*
X89954245Y-105145618D01*
X88697102Y-105117046D02*
X88611388Y-105145618D01*
X88611388Y-105145618D02*
X88582817Y-105174189D01*
X88582817Y-105174189D02*
X88554245Y-105231332D01*
X88554245Y-105231332D02*
X88554245Y-105317046D01*
X88554245Y-105317046D02*
X88582817Y-105374189D01*
X88582817Y-105374189D02*
X88611388Y-105402761D01*
X88611388Y-105402761D02*
X88668531Y-105431332D01*
X88668531Y-105431332D02*
X88897102Y-105431332D01*
X88897102Y-105431332D02*
X88897102Y-104831332D01*
X88897102Y-104831332D02*
X88697102Y-104831332D01*
X88697102Y-104831332D02*
X88639960Y-104859903D01*
X88639960Y-104859903D02*
X88611388Y-104888475D01*
X88611388Y-104888475D02*
X88582817Y-104945618D01*
X88582817Y-104945618D02*
X88582817Y-105002761D01*
X88582817Y-105002761D02*
X88611388Y-105059903D01*
X88611388Y-105059903D02*
X88639960Y-105088475D01*
X88639960Y-105088475D02*
X88697102Y-105117046D01*
X88697102Y-105117046D02*
X88897102Y-105117046D01*
X103570921Y-51812598D02*
X103490109Y-51354662D01*
X103894170Y-51489349D02*
X103328484Y-50923664D01*
X103328484Y-50923664D02*
X103112985Y-51139163D01*
X103112985Y-51139163D02*
X103086048Y-51219975D01*
X103086048Y-51219975D02*
X103086048Y-51273850D01*
X103086048Y-51273850D02*
X103112985Y-51354662D01*
X103112985Y-51354662D02*
X103193797Y-51435474D01*
X103193797Y-51435474D02*
X103274609Y-51462412D01*
X103274609Y-51462412D02*
X103328484Y-51462412D01*
X103328484Y-51462412D02*
X103409296Y-51435474D01*
X103409296Y-51435474D02*
X103624796Y-51219975D01*
X91358846Y-87055027D02*
X91762907Y-86650966D01*
X91560877Y-86852997D02*
X90853770Y-86145890D01*
X90853770Y-86145890D02*
X91022129Y-86179561D01*
X91022129Y-86179561D02*
X91156816Y-86179561D01*
X91156816Y-86179561D02*
X91257831Y-86145890D01*
X101468120Y-52837903D02*
X101495058Y-52757090D01*
X101495058Y-52757090D02*
X101575870Y-52676278D01*
X101575870Y-52676278D02*
X101683619Y-52622403D01*
X101683619Y-52622403D02*
X101791369Y-52622403D01*
X101791369Y-52622403D02*
X101872181Y-52649341D01*
X101872181Y-52649341D02*
X102006868Y-52730153D01*
X102006868Y-52730153D02*
X102087680Y-52810965D01*
X102087680Y-52810965D02*
X102168493Y-52945652D01*
X102168493Y-52945652D02*
X102195430Y-53026464D01*
X102195430Y-53026464D02*
X102195430Y-53134214D01*
X102195430Y-53134214D02*
X102141555Y-53241964D01*
X102141555Y-53241964D02*
X102087680Y-53295838D01*
X102087680Y-53295838D02*
X101979931Y-53349713D01*
X101979931Y-53349713D02*
X101926056Y-53349713D01*
X101926056Y-53349713D02*
X101737494Y-53161151D01*
X101737494Y-53161151D02*
X101845244Y-53053402D01*
D11*
X89897834Y-72609646D02*
X90133537Y-73081051D01*
X90133537Y-73081051D02*
X89662132Y-72845349D01*
X89662132Y-73485112D02*
X89695804Y-73485112D01*
X89695804Y-73485112D02*
X89763148Y-73451440D01*
X89763148Y-73451440D02*
X89796819Y-73417768D01*
X89796819Y-73417768D02*
X89830491Y-73350425D01*
X89830491Y-73350425D02*
X89830491Y-73283081D01*
X89830491Y-73283081D02*
X89813655Y-73232573D01*
X89813655Y-73232573D02*
X89763148Y-73148394D01*
X89763148Y-73148394D02*
X89712640Y-73097886D01*
X89712640Y-73097886D02*
X89628461Y-73047379D01*
X89628461Y-73047379D02*
X89577953Y-73030543D01*
X89577953Y-73030543D02*
X89510609Y-73030543D01*
X89510609Y-73030543D02*
X89443266Y-73064215D01*
X89443266Y-73064215D02*
X89409594Y-73097886D01*
X89409594Y-73097886D02*
X89375922Y-73165230D01*
X89375922Y-73165230D02*
X89375922Y-73198902D01*
X89308579Y-73838665D02*
X89342251Y-73838665D01*
X89342251Y-73838665D02*
X89409594Y-73804993D01*
X89409594Y-73804993D02*
X89443266Y-73771322D01*
X89443266Y-73771322D02*
X89476938Y-73703978D01*
X89476938Y-73703978D02*
X89476938Y-73636634D01*
X89476938Y-73636634D02*
X89460102Y-73586127D01*
X89460102Y-73586127D02*
X89409594Y-73501947D01*
X89409594Y-73501947D02*
X89359087Y-73451440D01*
X89359087Y-73451440D02*
X89274907Y-73400932D01*
X89274907Y-73400932D02*
X89224400Y-73384096D01*
X89224400Y-73384096D02*
X89157056Y-73384096D01*
X89157056Y-73384096D02*
X89089713Y-73417768D01*
X89089713Y-73417768D02*
X89056041Y-73451440D01*
X89056041Y-73451440D02*
X89022369Y-73518783D01*
X89022369Y-73518783D02*
X89022369Y-73552455D01*
D13*
X86966693Y-43378014D02*
X86899349Y-43512701D01*
X86899349Y-43512701D02*
X86730990Y-43681060D01*
X86730990Y-43681060D02*
X86629975Y-43714731D01*
X86629975Y-43714731D02*
X86562631Y-43714731D01*
X86562631Y-43714731D02*
X86461616Y-43681060D01*
X86461616Y-43681060D02*
X86394273Y-43613716D01*
X86394273Y-43613716D02*
X86360601Y-43512701D01*
X86360601Y-43512701D02*
X86360601Y-43445357D01*
X86360601Y-43445357D02*
X86394273Y-43344342D01*
X86394273Y-43344342D02*
X86495288Y-43175983D01*
X86495288Y-43175983D02*
X86528960Y-43074968D01*
X86528960Y-43074968D02*
X86528960Y-43007625D01*
X86528960Y-43007625D02*
X86495288Y-42906609D01*
X86495288Y-42906609D02*
X86427944Y-42839266D01*
X86427944Y-42839266D02*
X86326929Y-42805594D01*
X86326929Y-42805594D02*
X86259586Y-42805594D01*
X86259586Y-42805594D02*
X86158570Y-42839266D01*
X86158570Y-42839266D02*
X85990212Y-43007625D01*
X85990212Y-43007625D02*
X85922868Y-43142312D01*
X85922868Y-43748403D02*
X85687166Y-43984105D01*
X85956540Y-44455510D02*
X86293257Y-44118792D01*
X86293257Y-44118792D02*
X85586151Y-43411686D01*
X85586151Y-43411686D02*
X85249433Y-43748403D01*
X85249433Y-45162617D02*
X85148418Y-44590197D01*
X85653494Y-44758556D02*
X84946387Y-44051449D01*
X84946387Y-44051449D02*
X84677013Y-44320823D01*
X84677013Y-44320823D02*
X84643342Y-44421838D01*
X84643342Y-44421838D02*
X84643342Y-44489182D01*
X84643342Y-44489182D02*
X84677013Y-44590197D01*
X84677013Y-44590197D02*
X84778029Y-44691212D01*
X84778029Y-44691212D02*
X84879044Y-44724884D01*
X84879044Y-44724884D02*
X84946387Y-44724884D01*
X84946387Y-44724884D02*
X85047403Y-44691212D01*
X85047403Y-44691212D02*
X85316777Y-44421838D01*
X84340296Y-44657540D02*
X84811700Y-45600349D01*
X84811700Y-45600349D02*
X83868891Y-45128945D01*
X83498502Y-45499334D02*
X83363815Y-45634021D01*
X83363815Y-45634021D02*
X83330143Y-45735037D01*
X83330143Y-45735037D02*
X83330143Y-45869724D01*
X83330143Y-45869724D02*
X83431158Y-46038082D01*
X83431158Y-46038082D02*
X83666861Y-46273785D01*
X83666861Y-46273785D02*
X83835219Y-46374800D01*
X83835219Y-46374800D02*
X83969906Y-46374800D01*
X83969906Y-46374800D02*
X84070922Y-46341128D01*
X84070922Y-46341128D02*
X84205609Y-46206441D01*
X84205609Y-46206441D02*
X84239280Y-46105426D01*
X84239280Y-46105426D02*
X84239280Y-45970739D01*
X84239280Y-45970739D02*
X84138265Y-45802380D01*
X84138265Y-45802380D02*
X83902563Y-45566678D01*
X83902563Y-45566678D02*
X83734204Y-45465663D01*
X83734204Y-45465663D02*
X83599517Y-45465663D01*
X83599517Y-45465663D02*
X83498502Y-45499334D01*
D10*
X106695138Y-48175841D02*
X106722076Y-48095028D01*
X106722076Y-48095028D02*
X106802888Y-48014216D01*
X106802888Y-48014216D02*
X106910637Y-47960341D01*
X106910637Y-47960341D02*
X107018387Y-47960341D01*
X107018387Y-47960341D02*
X107099199Y-47987279D01*
X107099199Y-47987279D02*
X107233886Y-48068091D01*
X107233886Y-48068091D02*
X107314698Y-48148903D01*
X107314698Y-48148903D02*
X107395511Y-48283590D01*
X107395511Y-48283590D02*
X107422448Y-48364402D01*
X107422448Y-48364402D02*
X107422448Y-48472152D01*
X107422448Y-48472152D02*
X107368573Y-48579902D01*
X107368573Y-48579902D02*
X107314698Y-48633776D01*
X107314698Y-48633776D02*
X107206949Y-48687651D01*
X107206949Y-48687651D02*
X107153074Y-48687651D01*
X107153074Y-48687651D02*
X106964512Y-48499089D01*
X106964512Y-48499089D02*
X107072262Y-48391340D01*
X106964512Y-48983963D02*
X106398827Y-48418277D01*
X106398827Y-48418277D02*
X106641263Y-49307212D01*
X106641263Y-49307212D02*
X106075578Y-48741526D01*
X106371889Y-49576585D02*
X105806204Y-49010900D01*
X105806204Y-49010900D02*
X105671517Y-49145587D01*
X105671517Y-49145587D02*
X105617642Y-49253337D01*
X105617642Y-49253337D02*
X105617642Y-49361086D01*
X105617642Y-49361086D02*
X105644580Y-49441898D01*
X105644580Y-49441898D02*
X105725392Y-49576585D01*
X105725392Y-49576585D02*
X105806204Y-49657398D01*
X105806204Y-49657398D02*
X105940891Y-49738210D01*
X105940891Y-49738210D02*
X106021703Y-49765147D01*
X106021703Y-49765147D02*
X106129453Y-49765147D01*
X106129453Y-49765147D02*
X106237202Y-49711272D01*
X106237202Y-49711272D02*
X106371889Y-49576585D01*
X133430456Y-35705244D02*
X132992723Y-36142977D01*
X132992723Y-36142977D02*
X133497800Y-36176649D01*
X133497800Y-36176649D02*
X133396785Y-36277664D01*
X133396785Y-36277664D02*
X133363113Y-36378679D01*
X133363113Y-36378679D02*
X133363113Y-36446023D01*
X133363113Y-36446023D02*
X133396785Y-36547038D01*
X133396785Y-36547038D02*
X133565143Y-36715397D01*
X133565143Y-36715397D02*
X133666159Y-36749069D01*
X133666159Y-36749069D02*
X133733502Y-36749069D01*
X133733502Y-36749069D02*
X133834517Y-36715397D01*
X133834517Y-36715397D02*
X134036548Y-36513367D01*
X134036548Y-36513367D02*
X134070220Y-36412351D01*
X134070220Y-36412351D02*
X134070220Y-36345008D01*
X108717177Y-74695347D02*
X108649834Y-74695347D01*
X108649834Y-74695347D02*
X108548818Y-74729018D01*
X108548818Y-74729018D02*
X108380459Y-74897377D01*
X108380459Y-74897377D02*
X108346788Y-74998392D01*
X108346788Y-74998392D02*
X108346788Y-75065736D01*
X108346788Y-75065736D02*
X108380459Y-75166751D01*
X108380459Y-75166751D02*
X108447803Y-75234095D01*
X108447803Y-75234095D02*
X108582490Y-75301438D01*
X108582490Y-75301438D02*
X109390612Y-75301438D01*
X109390612Y-75301438D02*
X108952879Y-75739171D01*
X101468120Y-87837903D02*
X101495058Y-87757090D01*
X101495058Y-87757090D02*
X101575870Y-87676278D01*
X101575870Y-87676278D02*
X101683619Y-87622403D01*
X101683619Y-87622403D02*
X101791369Y-87622403D01*
X101791369Y-87622403D02*
X101872181Y-87649341D01*
X101872181Y-87649341D02*
X102006868Y-87730153D01*
X102006868Y-87730153D02*
X102087680Y-87810965D01*
X102087680Y-87810965D02*
X102168493Y-87945652D01*
X102168493Y-87945652D02*
X102195430Y-88026464D01*
X102195430Y-88026464D02*
X102195430Y-88134214D01*
X102195430Y-88134214D02*
X102141555Y-88241964D01*
X102141555Y-88241964D02*
X102087680Y-88295838D01*
X102087680Y-88295838D02*
X101979931Y-88349713D01*
X101979931Y-88349713D02*
X101926056Y-88349713D01*
X101926056Y-88349713D02*
X101737494Y-88161151D01*
X101737494Y-88161151D02*
X101845244Y-88053402D01*
X126358846Y-52055027D02*
X126762907Y-51650966D01*
X126560877Y-51852997D02*
X125853770Y-51145890D01*
X125853770Y-51145890D02*
X126022129Y-51179561D01*
X126022129Y-51179561D02*
X126156816Y-51179561D01*
X126156816Y-51179561D02*
X126257831Y-51145890D01*
X143717177Y-39695347D02*
X143649834Y-39695347D01*
X143649834Y-39695347D02*
X143548818Y-39729018D01*
X143548818Y-39729018D02*
X143380459Y-39897377D01*
X143380459Y-39897377D02*
X143346788Y-39998392D01*
X143346788Y-39998392D02*
X143346788Y-40065736D01*
X143346788Y-40065736D02*
X143380459Y-40166751D01*
X143380459Y-40166751D02*
X143447803Y-40234095D01*
X143447803Y-40234095D02*
X143582490Y-40301438D01*
X143582490Y-40301438D02*
X144390612Y-40301438D01*
X144390612Y-40301438D02*
X143952879Y-40739171D01*
X103570921Y-86812598D02*
X103490109Y-86354662D01*
X103894170Y-86489349D02*
X103328484Y-85923664D01*
X103328484Y-85923664D02*
X103112985Y-86139163D01*
X103112985Y-86139163D02*
X103086048Y-86219975D01*
X103086048Y-86219975D02*
X103086048Y-86273850D01*
X103086048Y-86273850D02*
X103112985Y-86354662D01*
X103112985Y-86354662D02*
X103193797Y-86435474D01*
X103193797Y-86435474D02*
X103274609Y-86462412D01*
X103274609Y-86462412D02*
X103328484Y-86462412D01*
X103328484Y-86462412D02*
X103409296Y-86435474D01*
X103409296Y-86435474D02*
X103624796Y-86219975D01*
X105177063Y-84613833D02*
X105123189Y-84721582D01*
X105123189Y-84721582D02*
X105123189Y-84775457D01*
X105123189Y-84775457D02*
X105150126Y-84856269D01*
X105150126Y-84856269D02*
X105230938Y-84937081D01*
X105230938Y-84937081D02*
X105311750Y-84964019D01*
X105311750Y-84964019D02*
X105365625Y-84964019D01*
X105365625Y-84964019D02*
X105446437Y-84937081D01*
X105446437Y-84937081D02*
X105661937Y-84721582D01*
X105661937Y-84721582D02*
X105096251Y-84155897D01*
X105096251Y-84155897D02*
X104907689Y-84344459D01*
X104907689Y-84344459D02*
X104880752Y-84425271D01*
X104880752Y-84425271D02*
X104880752Y-84479146D01*
X104880752Y-84479146D02*
X104907689Y-84559958D01*
X104907689Y-84559958D02*
X104961564Y-84613833D01*
X104961564Y-84613833D02*
X105042376Y-84640770D01*
X105042376Y-84640770D02*
X105096251Y-84640770D01*
X105096251Y-84640770D02*
X105177063Y-84613833D01*
X105177063Y-84613833D02*
X105365625Y-84425271D01*
X138570921Y-51812598D02*
X138490109Y-51354662D01*
X138894170Y-51489349D02*
X138328484Y-50923664D01*
X138328484Y-50923664D02*
X138112985Y-51139163D01*
X138112985Y-51139163D02*
X138086048Y-51219975D01*
X138086048Y-51219975D02*
X138086048Y-51273850D01*
X138086048Y-51273850D02*
X138112985Y-51354662D01*
X138112985Y-51354662D02*
X138193797Y-51435474D01*
X138193797Y-51435474D02*
X138274609Y-51462412D01*
X138274609Y-51462412D02*
X138328484Y-51462412D01*
X138328484Y-51462412D02*
X138409296Y-51435474D01*
X138409296Y-51435474D02*
X138624796Y-51219975D01*
X140177063Y-49613833D02*
X140123189Y-49721582D01*
X140123189Y-49721582D02*
X140123189Y-49775457D01*
X140123189Y-49775457D02*
X140150126Y-49856269D01*
X140150126Y-49856269D02*
X140230938Y-49937081D01*
X140230938Y-49937081D02*
X140311750Y-49964019D01*
X140311750Y-49964019D02*
X140365625Y-49964019D01*
X140365625Y-49964019D02*
X140446437Y-49937081D01*
X140446437Y-49937081D02*
X140661937Y-49721582D01*
X140661937Y-49721582D02*
X140096251Y-49155897D01*
X140096251Y-49155897D02*
X139907689Y-49344459D01*
X139907689Y-49344459D02*
X139880752Y-49425271D01*
X139880752Y-49425271D02*
X139880752Y-49479146D01*
X139880752Y-49479146D02*
X139907689Y-49559958D01*
X139907689Y-49559958D02*
X139961564Y-49613833D01*
X139961564Y-49613833D02*
X140042376Y-49640770D01*
X140042376Y-49640770D02*
X140096251Y-49640770D01*
X140096251Y-49640770D02*
X140177063Y-49613833D01*
X140177063Y-49613833D02*
X140365625Y-49425271D01*
D11*
X89897834Y-37609646D02*
X90133537Y-38081051D01*
X90133537Y-38081051D02*
X89662132Y-37845349D01*
X89662132Y-38485112D02*
X89695804Y-38485112D01*
X89695804Y-38485112D02*
X89763148Y-38451440D01*
X89763148Y-38451440D02*
X89796819Y-38417768D01*
X89796819Y-38417768D02*
X89830491Y-38350425D01*
X89830491Y-38350425D02*
X89830491Y-38283081D01*
X89830491Y-38283081D02*
X89813655Y-38232573D01*
X89813655Y-38232573D02*
X89763148Y-38148394D01*
X89763148Y-38148394D02*
X89712640Y-38097886D01*
X89712640Y-38097886D02*
X89628461Y-38047379D01*
X89628461Y-38047379D02*
X89577953Y-38030543D01*
X89577953Y-38030543D02*
X89510609Y-38030543D01*
X89510609Y-38030543D02*
X89443266Y-38064215D01*
X89443266Y-38064215D02*
X89409594Y-38097886D01*
X89409594Y-38097886D02*
X89375922Y-38165230D01*
X89375922Y-38165230D02*
X89375922Y-38198902D01*
X89308579Y-38838665D02*
X89342251Y-38838665D01*
X89342251Y-38838665D02*
X89409594Y-38804993D01*
X89409594Y-38804993D02*
X89443266Y-38771322D01*
X89443266Y-38771322D02*
X89476938Y-38703978D01*
X89476938Y-38703978D02*
X89476938Y-38636634D01*
X89476938Y-38636634D02*
X89460102Y-38586127D01*
X89460102Y-38586127D02*
X89409594Y-38501947D01*
X89409594Y-38501947D02*
X89359087Y-38451440D01*
X89359087Y-38451440D02*
X89274907Y-38400932D01*
X89274907Y-38400932D02*
X89224400Y-38384096D01*
X89224400Y-38384096D02*
X89157056Y-38384096D01*
X89157056Y-38384096D02*
X89089713Y-38417768D01*
X89089713Y-38417768D02*
X89056041Y-38451440D01*
X89056041Y-38451440D02*
X89022369Y-38518783D01*
X89022369Y-38518783D02*
X89022369Y-38552455D01*
D13*
X121966693Y-43378014D02*
X121899349Y-43512701D01*
X121899349Y-43512701D02*
X121730990Y-43681060D01*
X121730990Y-43681060D02*
X121629975Y-43714731D01*
X121629975Y-43714731D02*
X121562631Y-43714731D01*
X121562631Y-43714731D02*
X121461616Y-43681060D01*
X121461616Y-43681060D02*
X121394273Y-43613716D01*
X121394273Y-43613716D02*
X121360601Y-43512701D01*
X121360601Y-43512701D02*
X121360601Y-43445357D01*
X121360601Y-43445357D02*
X121394273Y-43344342D01*
X121394273Y-43344342D02*
X121495288Y-43175983D01*
X121495288Y-43175983D02*
X121528960Y-43074968D01*
X121528960Y-43074968D02*
X121528960Y-43007625D01*
X121528960Y-43007625D02*
X121495288Y-42906609D01*
X121495288Y-42906609D02*
X121427944Y-42839266D01*
X121427944Y-42839266D02*
X121326929Y-42805594D01*
X121326929Y-42805594D02*
X121259586Y-42805594D01*
X121259586Y-42805594D02*
X121158570Y-42839266D01*
X121158570Y-42839266D02*
X120990212Y-43007625D01*
X120990212Y-43007625D02*
X120922868Y-43142312D01*
X120922868Y-43748403D02*
X120687166Y-43984105D01*
X120956540Y-44455510D02*
X121293257Y-44118792D01*
X121293257Y-44118792D02*
X120586151Y-43411686D01*
X120586151Y-43411686D02*
X120249433Y-43748403D01*
X120249433Y-45162617D02*
X120148418Y-44590197D01*
X120653494Y-44758556D02*
X119946387Y-44051449D01*
X119946387Y-44051449D02*
X119677013Y-44320823D01*
X119677013Y-44320823D02*
X119643342Y-44421838D01*
X119643342Y-44421838D02*
X119643342Y-44489182D01*
X119643342Y-44489182D02*
X119677013Y-44590197D01*
X119677013Y-44590197D02*
X119778029Y-44691212D01*
X119778029Y-44691212D02*
X119879044Y-44724884D01*
X119879044Y-44724884D02*
X119946387Y-44724884D01*
X119946387Y-44724884D02*
X120047403Y-44691212D01*
X120047403Y-44691212D02*
X120316777Y-44421838D01*
X119340296Y-44657540D02*
X119811700Y-45600349D01*
X119811700Y-45600349D02*
X118868891Y-45128945D01*
X118498502Y-45499334D02*
X118363815Y-45634021D01*
X118363815Y-45634021D02*
X118330143Y-45735037D01*
X118330143Y-45735037D02*
X118330143Y-45869724D01*
X118330143Y-45869724D02*
X118431158Y-46038082D01*
X118431158Y-46038082D02*
X118666861Y-46273785D01*
X118666861Y-46273785D02*
X118835219Y-46374800D01*
X118835219Y-46374800D02*
X118969906Y-46374800D01*
X118969906Y-46374800D02*
X119070922Y-46341128D01*
X119070922Y-46341128D02*
X119205609Y-46206441D01*
X119205609Y-46206441D02*
X119239280Y-46105426D01*
X119239280Y-46105426D02*
X119239280Y-45970739D01*
X119239280Y-45970739D02*
X119138265Y-45802380D01*
X119138265Y-45802380D02*
X118902563Y-45566678D01*
X118902563Y-45566678D02*
X118734204Y-45465663D01*
X118734204Y-45465663D02*
X118599517Y-45465663D01*
X118599517Y-45465663D02*
X118498502Y-45499334D01*
D11*
X92963900Y-69766319D02*
X92610347Y-69412766D01*
X92610347Y-69412766D02*
X92475660Y-69547453D01*
X92475660Y-69547453D02*
X92458824Y-69597961D01*
X92458824Y-69597961D02*
X92458824Y-69631632D01*
X92458824Y-69631632D02*
X92475660Y-69682140D01*
X92475660Y-69682140D02*
X92526167Y-69732648D01*
X92526167Y-69732648D02*
X92576675Y-69749484D01*
X92576675Y-69749484D02*
X92610347Y-69749484D01*
X92610347Y-69749484D02*
X92660854Y-69732648D01*
X92660854Y-69732648D02*
X92795541Y-69597961D01*
X92290465Y-69732648D02*
X92559839Y-70170380D01*
X92559839Y-70170380D02*
X92239957Y-69985186D01*
X92239957Y-69985186D02*
X92425152Y-70305067D01*
X92425152Y-70305067D02*
X91987419Y-70035693D01*
X92206285Y-70523934D02*
X91852732Y-70170381D01*
X91852732Y-70170381D02*
X91987419Y-70540770D01*
X91987419Y-70540770D02*
X91617030Y-70406083D01*
X91617030Y-70406083D02*
X91970583Y-70759636D01*
D10*
X108717177Y-39695347D02*
X108649834Y-39695347D01*
X108649834Y-39695347D02*
X108548818Y-39729018D01*
X108548818Y-39729018D02*
X108380459Y-39897377D01*
X108380459Y-39897377D02*
X108346788Y-39998392D01*
X108346788Y-39998392D02*
X108346788Y-40065736D01*
X108346788Y-40065736D02*
X108380459Y-40166751D01*
X108380459Y-40166751D02*
X108447803Y-40234095D01*
X108447803Y-40234095D02*
X108582490Y-40301438D01*
X108582490Y-40301438D02*
X109390612Y-40301438D01*
X109390612Y-40301438D02*
X108952879Y-40739171D01*
D11*
X88441531Y-39099622D02*
X88458367Y-39049114D01*
X88458367Y-39049114D02*
X88508874Y-38998606D01*
X88508874Y-38998606D02*
X88576218Y-38964935D01*
X88576218Y-38964935D02*
X88643561Y-38964935D01*
X88643561Y-38964935D02*
X88694069Y-38981770D01*
X88694069Y-38981770D02*
X88778248Y-39032278D01*
X88778248Y-39032278D02*
X88828756Y-39082786D01*
X88828756Y-39082786D02*
X88879264Y-39166965D01*
X88879264Y-39166965D02*
X88896100Y-39217473D01*
X88896100Y-39217473D02*
X88896100Y-39284816D01*
X88896100Y-39284816D02*
X88862428Y-39352160D01*
X88862428Y-39352160D02*
X88828756Y-39385831D01*
X88828756Y-39385831D02*
X88761412Y-39419503D01*
X88761412Y-39419503D02*
X88727741Y-39419503D01*
X88727741Y-39419503D02*
X88609890Y-39301652D01*
X88609890Y-39301652D02*
X88677233Y-39234309D01*
X88609890Y-39604698D02*
X88256336Y-39251144D01*
X88256336Y-39251144D02*
X88407859Y-39806728D01*
X88407859Y-39806728D02*
X88054306Y-39453175D01*
X88239500Y-39975087D02*
X87885947Y-39621534D01*
X87885947Y-39621534D02*
X87801767Y-39705713D01*
X87801767Y-39705713D02*
X87768095Y-39773057D01*
X87768095Y-39773057D02*
X87768095Y-39840400D01*
X87768095Y-39840400D02*
X87784931Y-39890908D01*
X87784931Y-39890908D02*
X87835439Y-39975087D01*
X87835439Y-39975087D02*
X87885947Y-40025595D01*
X87885947Y-40025595D02*
X87970126Y-40076103D01*
X87970126Y-40076103D02*
X88020634Y-40092939D01*
X88020634Y-40092939D02*
X88087977Y-40092939D01*
X88087977Y-40092939D02*
X88155321Y-40059267D01*
X88155321Y-40059267D02*
X88239500Y-39975087D01*
X127963900Y-34766319D02*
X127610347Y-34412766D01*
X127610347Y-34412766D02*
X127475660Y-34547453D01*
X127475660Y-34547453D02*
X127458824Y-34597961D01*
X127458824Y-34597961D02*
X127458824Y-34631632D01*
X127458824Y-34631632D02*
X127475660Y-34682140D01*
X127475660Y-34682140D02*
X127526167Y-34732648D01*
X127526167Y-34732648D02*
X127576675Y-34749484D01*
X127576675Y-34749484D02*
X127610347Y-34749484D01*
X127610347Y-34749484D02*
X127660854Y-34732648D01*
X127660854Y-34732648D02*
X127795541Y-34597961D01*
X127290465Y-34732648D02*
X127559839Y-35170380D01*
X127559839Y-35170380D02*
X127239957Y-34985186D01*
X127239957Y-34985186D02*
X127425152Y-35305067D01*
X127425152Y-35305067D02*
X126987419Y-35035693D01*
X127206285Y-35523934D02*
X126852732Y-35170381D01*
X126852732Y-35170381D02*
X126987419Y-35540770D01*
X126987419Y-35540770D02*
X126617030Y-35406083D01*
X126617030Y-35406083D02*
X126970583Y-35759636D01*
D10*
X91358846Y-52055027D02*
X91762907Y-51650966D01*
X91560877Y-51852997D02*
X90853770Y-51145890D01*
X90853770Y-51145890D02*
X91022129Y-51179561D01*
X91022129Y-51179561D02*
X91156816Y-51179561D01*
X91156816Y-51179561D02*
X91257831Y-51145890D01*
D11*
X123441531Y-39099622D02*
X123458367Y-39049114D01*
X123458367Y-39049114D02*
X123508874Y-38998606D01*
X123508874Y-38998606D02*
X123576218Y-38964935D01*
X123576218Y-38964935D02*
X123643561Y-38964935D01*
X123643561Y-38964935D02*
X123694069Y-38981770D01*
X123694069Y-38981770D02*
X123778248Y-39032278D01*
X123778248Y-39032278D02*
X123828756Y-39082786D01*
X123828756Y-39082786D02*
X123879264Y-39166965D01*
X123879264Y-39166965D02*
X123896100Y-39217473D01*
X123896100Y-39217473D02*
X123896100Y-39284816D01*
X123896100Y-39284816D02*
X123862428Y-39352160D01*
X123862428Y-39352160D02*
X123828756Y-39385831D01*
X123828756Y-39385831D02*
X123761412Y-39419503D01*
X123761412Y-39419503D02*
X123727741Y-39419503D01*
X123727741Y-39419503D02*
X123609890Y-39301652D01*
X123609890Y-39301652D02*
X123677233Y-39234309D01*
X123609890Y-39604698D02*
X123256336Y-39251144D01*
X123256336Y-39251144D02*
X123407859Y-39806728D01*
X123407859Y-39806728D02*
X123054306Y-39453175D01*
X123239500Y-39975087D02*
X122885947Y-39621534D01*
X122885947Y-39621534D02*
X122801767Y-39705713D01*
X122801767Y-39705713D02*
X122768095Y-39773057D01*
X122768095Y-39773057D02*
X122768095Y-39840400D01*
X122768095Y-39840400D02*
X122784931Y-39890908D01*
X122784931Y-39890908D02*
X122835439Y-39975087D01*
X122835439Y-39975087D02*
X122885947Y-40025595D01*
X122885947Y-40025595D02*
X122970126Y-40076103D01*
X122970126Y-40076103D02*
X123020634Y-40092939D01*
X123020634Y-40092939D02*
X123087977Y-40092939D01*
X123087977Y-40092939D02*
X123155321Y-40059267D01*
X123155321Y-40059267D02*
X123239500Y-39975087D01*
D10*
X106695138Y-83175841D02*
X106722076Y-83095028D01*
X106722076Y-83095028D02*
X106802888Y-83014216D01*
X106802888Y-83014216D02*
X106910637Y-82960341D01*
X106910637Y-82960341D02*
X107018387Y-82960341D01*
X107018387Y-82960341D02*
X107099199Y-82987279D01*
X107099199Y-82987279D02*
X107233886Y-83068091D01*
X107233886Y-83068091D02*
X107314698Y-83148903D01*
X107314698Y-83148903D02*
X107395511Y-83283590D01*
X107395511Y-83283590D02*
X107422448Y-83364402D01*
X107422448Y-83364402D02*
X107422448Y-83472152D01*
X107422448Y-83472152D02*
X107368573Y-83579902D01*
X107368573Y-83579902D02*
X107314698Y-83633776D01*
X107314698Y-83633776D02*
X107206949Y-83687651D01*
X107206949Y-83687651D02*
X107153074Y-83687651D01*
X107153074Y-83687651D02*
X106964512Y-83499089D01*
X106964512Y-83499089D02*
X107072262Y-83391340D01*
X106964512Y-83983963D02*
X106398827Y-83418277D01*
X106398827Y-83418277D02*
X106641263Y-84307212D01*
X106641263Y-84307212D02*
X106075578Y-83741526D01*
X106371889Y-84576585D02*
X105806204Y-84010900D01*
X105806204Y-84010900D02*
X105671517Y-84145587D01*
X105671517Y-84145587D02*
X105617642Y-84253337D01*
X105617642Y-84253337D02*
X105617642Y-84361086D01*
X105617642Y-84361086D02*
X105644580Y-84441898D01*
X105644580Y-84441898D02*
X105725392Y-84576585D01*
X105725392Y-84576585D02*
X105806204Y-84657398D01*
X105806204Y-84657398D02*
X105940891Y-84738210D01*
X105940891Y-84738210D02*
X106021703Y-84765147D01*
X106021703Y-84765147D02*
X106129453Y-84765147D01*
X106129453Y-84765147D02*
X106237202Y-84711272D01*
X106237202Y-84711272D02*
X106371889Y-84576585D01*
X98430456Y-70705244D02*
X97992723Y-71142977D01*
X97992723Y-71142977D02*
X98497800Y-71176649D01*
X98497800Y-71176649D02*
X98396785Y-71277664D01*
X98396785Y-71277664D02*
X98363113Y-71378679D01*
X98363113Y-71378679D02*
X98363113Y-71446023D01*
X98363113Y-71446023D02*
X98396785Y-71547038D01*
X98396785Y-71547038D02*
X98565143Y-71715397D01*
X98565143Y-71715397D02*
X98666159Y-71749069D01*
X98666159Y-71749069D02*
X98733502Y-71749069D01*
X98733502Y-71749069D02*
X98834517Y-71715397D01*
X98834517Y-71715397D02*
X99036548Y-71513367D01*
X99036548Y-71513367D02*
X99070220Y-71412351D01*
X99070220Y-71412351D02*
X99070220Y-71345008D01*
X141695138Y-48175841D02*
X141722076Y-48095028D01*
X141722076Y-48095028D02*
X141802888Y-48014216D01*
X141802888Y-48014216D02*
X141910637Y-47960341D01*
X141910637Y-47960341D02*
X142018387Y-47960341D01*
X142018387Y-47960341D02*
X142099199Y-47987279D01*
X142099199Y-47987279D02*
X142233886Y-48068091D01*
X142233886Y-48068091D02*
X142314698Y-48148903D01*
X142314698Y-48148903D02*
X142395511Y-48283590D01*
X142395511Y-48283590D02*
X142422448Y-48364402D01*
X142422448Y-48364402D02*
X142422448Y-48472152D01*
X142422448Y-48472152D02*
X142368573Y-48579902D01*
X142368573Y-48579902D02*
X142314698Y-48633776D01*
X142314698Y-48633776D02*
X142206949Y-48687651D01*
X142206949Y-48687651D02*
X142153074Y-48687651D01*
X142153074Y-48687651D02*
X141964512Y-48499089D01*
X141964512Y-48499089D02*
X142072262Y-48391340D01*
X141964512Y-48983963D02*
X141398827Y-48418277D01*
X141398827Y-48418277D02*
X141641263Y-49307212D01*
X141641263Y-49307212D02*
X141075578Y-48741526D01*
X141371889Y-49576585D02*
X140806204Y-49010900D01*
X140806204Y-49010900D02*
X140671517Y-49145587D01*
X140671517Y-49145587D02*
X140617642Y-49253337D01*
X140617642Y-49253337D02*
X140617642Y-49361086D01*
X140617642Y-49361086D02*
X140644580Y-49441898D01*
X140644580Y-49441898D02*
X140725392Y-49576585D01*
X140725392Y-49576585D02*
X140806204Y-49657398D01*
X140806204Y-49657398D02*
X140940891Y-49738210D01*
X140940891Y-49738210D02*
X141021703Y-49765147D01*
X141021703Y-49765147D02*
X141129453Y-49765147D01*
X141129453Y-49765147D02*
X141237202Y-49711272D01*
X141237202Y-49711272D02*
X141371889Y-49576585D01*
D11*
X124897834Y-37609646D02*
X125133537Y-38081051D01*
X125133537Y-38081051D02*
X124662132Y-37845349D01*
X124662132Y-38485112D02*
X124695804Y-38485112D01*
X124695804Y-38485112D02*
X124763148Y-38451440D01*
X124763148Y-38451440D02*
X124796819Y-38417768D01*
X124796819Y-38417768D02*
X124830491Y-38350425D01*
X124830491Y-38350425D02*
X124830491Y-38283081D01*
X124830491Y-38283081D02*
X124813655Y-38232573D01*
X124813655Y-38232573D02*
X124763148Y-38148394D01*
X124763148Y-38148394D02*
X124712640Y-38097886D01*
X124712640Y-38097886D02*
X124628461Y-38047379D01*
X124628461Y-38047379D02*
X124577953Y-38030543D01*
X124577953Y-38030543D02*
X124510609Y-38030543D01*
X124510609Y-38030543D02*
X124443266Y-38064215D01*
X124443266Y-38064215D02*
X124409594Y-38097886D01*
X124409594Y-38097886D02*
X124375922Y-38165230D01*
X124375922Y-38165230D02*
X124375922Y-38198902D01*
X124308579Y-38838665D02*
X124342251Y-38838665D01*
X124342251Y-38838665D02*
X124409594Y-38804993D01*
X124409594Y-38804993D02*
X124443266Y-38771322D01*
X124443266Y-38771322D02*
X124476938Y-38703978D01*
X124476938Y-38703978D02*
X124476938Y-38636634D01*
X124476938Y-38636634D02*
X124460102Y-38586127D01*
X124460102Y-38586127D02*
X124409594Y-38501947D01*
X124409594Y-38501947D02*
X124359087Y-38451440D01*
X124359087Y-38451440D02*
X124274907Y-38400932D01*
X124274907Y-38400932D02*
X124224400Y-38384096D01*
X124224400Y-38384096D02*
X124157056Y-38384096D01*
X124157056Y-38384096D02*
X124089713Y-38417768D01*
X124089713Y-38417768D02*
X124056041Y-38451440D01*
X124056041Y-38451440D02*
X124022369Y-38518783D01*
X124022369Y-38518783D02*
X124022369Y-38552455D01*
D10*
X98430456Y-35705244D02*
X97992723Y-36142977D01*
X97992723Y-36142977D02*
X98497800Y-36176649D01*
X98497800Y-36176649D02*
X98396785Y-36277664D01*
X98396785Y-36277664D02*
X98363113Y-36378679D01*
X98363113Y-36378679D02*
X98363113Y-36446023D01*
X98363113Y-36446023D02*
X98396785Y-36547038D01*
X98396785Y-36547038D02*
X98565143Y-36715397D01*
X98565143Y-36715397D02*
X98666159Y-36749069D01*
X98666159Y-36749069D02*
X98733502Y-36749069D01*
X98733502Y-36749069D02*
X98834517Y-36715397D01*
X98834517Y-36715397D02*
X99036548Y-36513367D01*
X99036548Y-36513367D02*
X99070220Y-36412351D01*
X99070220Y-36412351D02*
X99070220Y-36345008D01*
D13*
X86966693Y-78378014D02*
X86899349Y-78512701D01*
X86899349Y-78512701D02*
X86730990Y-78681060D01*
X86730990Y-78681060D02*
X86629975Y-78714731D01*
X86629975Y-78714731D02*
X86562631Y-78714731D01*
X86562631Y-78714731D02*
X86461616Y-78681060D01*
X86461616Y-78681060D02*
X86394273Y-78613716D01*
X86394273Y-78613716D02*
X86360601Y-78512701D01*
X86360601Y-78512701D02*
X86360601Y-78445357D01*
X86360601Y-78445357D02*
X86394273Y-78344342D01*
X86394273Y-78344342D02*
X86495288Y-78175983D01*
X86495288Y-78175983D02*
X86528960Y-78074968D01*
X86528960Y-78074968D02*
X86528960Y-78007625D01*
X86528960Y-78007625D02*
X86495288Y-77906609D01*
X86495288Y-77906609D02*
X86427944Y-77839266D01*
X86427944Y-77839266D02*
X86326929Y-77805594D01*
X86326929Y-77805594D02*
X86259586Y-77805594D01*
X86259586Y-77805594D02*
X86158570Y-77839266D01*
X86158570Y-77839266D02*
X85990212Y-78007625D01*
X85990212Y-78007625D02*
X85922868Y-78142312D01*
X85922868Y-78748403D02*
X85687166Y-78984105D01*
X85956540Y-79455510D02*
X86293257Y-79118792D01*
X86293257Y-79118792D02*
X85586151Y-78411686D01*
X85586151Y-78411686D02*
X85249433Y-78748403D01*
X85249433Y-80162617D02*
X85148418Y-79590197D01*
X85653494Y-79758556D02*
X84946387Y-79051449D01*
X84946387Y-79051449D02*
X84677013Y-79320823D01*
X84677013Y-79320823D02*
X84643342Y-79421838D01*
X84643342Y-79421838D02*
X84643342Y-79489182D01*
X84643342Y-79489182D02*
X84677013Y-79590197D01*
X84677013Y-79590197D02*
X84778029Y-79691212D01*
X84778029Y-79691212D02*
X84879044Y-79724884D01*
X84879044Y-79724884D02*
X84946387Y-79724884D01*
X84946387Y-79724884D02*
X85047403Y-79691212D01*
X85047403Y-79691212D02*
X85316777Y-79421838D01*
X84340296Y-79657540D02*
X84811700Y-80600349D01*
X84811700Y-80600349D02*
X83868891Y-80128945D01*
X83498502Y-80499334D02*
X83363815Y-80634021D01*
X83363815Y-80634021D02*
X83330143Y-80735037D01*
X83330143Y-80735037D02*
X83330143Y-80869724D01*
X83330143Y-80869724D02*
X83431158Y-81038082D01*
X83431158Y-81038082D02*
X83666861Y-81273785D01*
X83666861Y-81273785D02*
X83835219Y-81374800D01*
X83835219Y-81374800D02*
X83969906Y-81374800D01*
X83969906Y-81374800D02*
X84070922Y-81341128D01*
X84070922Y-81341128D02*
X84205609Y-81206441D01*
X84205609Y-81206441D02*
X84239280Y-81105426D01*
X84239280Y-81105426D02*
X84239280Y-80970739D01*
X84239280Y-80970739D02*
X84138265Y-80802380D01*
X84138265Y-80802380D02*
X83902563Y-80566678D01*
X83902563Y-80566678D02*
X83734204Y-80465663D01*
X83734204Y-80465663D02*
X83599517Y-80465663D01*
X83599517Y-80465663D02*
X83498502Y-80499334D01*
D10*
X162811393Y-70431321D02*
X163154250Y-70431321D01*
X162982821Y-70431321D02*
X162982821Y-69831321D01*
X162982821Y-69831321D02*
X163039964Y-69917035D01*
X163039964Y-69917035D02*
X163097107Y-69974178D01*
X163097107Y-69974178D02*
X163154250Y-70002750D01*
X162582821Y-69888464D02*
X162554249Y-69859892D01*
X162554249Y-69859892D02*
X162497107Y-69831321D01*
X162497107Y-69831321D02*
X162354249Y-69831321D01*
X162354249Y-69831321D02*
X162297107Y-69859892D01*
X162297107Y-69859892D02*
X162268535Y-69888464D01*
X162268535Y-69888464D02*
X162239964Y-69945607D01*
X162239964Y-69945607D02*
X162239964Y-70002750D01*
X162239964Y-70002750D02*
X162268535Y-70088464D01*
X162268535Y-70088464D02*
X162611392Y-70431321D01*
X162611392Y-70431321D02*
X162239964Y-70431321D01*
X162068535Y-69831321D02*
X161868535Y-70431321D01*
X161868535Y-70431321D02*
X161668535Y-69831321D01*
X160697106Y-69859892D02*
X160754249Y-69831321D01*
X160754249Y-69831321D02*
X160839963Y-69831321D01*
X160839963Y-69831321D02*
X160925677Y-69859892D01*
X160925677Y-69859892D02*
X160982820Y-69917035D01*
X160982820Y-69917035D02*
X161011391Y-69974178D01*
X161011391Y-69974178D02*
X161039963Y-70088464D01*
X161039963Y-70088464D02*
X161039963Y-70174178D01*
X161039963Y-70174178D02*
X161011391Y-70288464D01*
X161011391Y-70288464D02*
X160982820Y-70345607D01*
X160982820Y-70345607D02*
X160925677Y-70402750D01*
X160925677Y-70402750D02*
X160839963Y-70431321D01*
X160839963Y-70431321D02*
X160782820Y-70431321D01*
X160782820Y-70431321D02*
X160697106Y-70402750D01*
X160697106Y-70402750D02*
X160668534Y-70374178D01*
X160668534Y-70374178D02*
X160668534Y-70174178D01*
X160668534Y-70174178D02*
X160782820Y-70174178D01*
X159611391Y-70431321D02*
X159811391Y-70145607D01*
X159954248Y-70431321D02*
X159954248Y-69831321D01*
X159954248Y-69831321D02*
X159725677Y-69831321D01*
X159725677Y-69831321D02*
X159668534Y-69859892D01*
X159668534Y-69859892D02*
X159639963Y-69888464D01*
X159639963Y-69888464D02*
X159611391Y-69945607D01*
X159611391Y-69945607D02*
X159611391Y-70031321D01*
X159611391Y-70031321D02*
X159639963Y-70088464D01*
X159639963Y-70088464D02*
X159668534Y-70117035D01*
X159668534Y-70117035D02*
X159725677Y-70145607D01*
X159725677Y-70145607D02*
X159954248Y-70145607D01*
X158697105Y-70117035D02*
X158611391Y-70145607D01*
X158611391Y-70145607D02*
X158582820Y-70174178D01*
X158582820Y-70174178D02*
X158554248Y-70231321D01*
X158554248Y-70231321D02*
X158554248Y-70317035D01*
X158554248Y-70317035D02*
X158582820Y-70374178D01*
X158582820Y-70374178D02*
X158611391Y-70402750D01*
X158611391Y-70402750D02*
X158668534Y-70431321D01*
X158668534Y-70431321D02*
X158897105Y-70431321D01*
X158897105Y-70431321D02*
X158897105Y-69831321D01*
X158897105Y-69831321D02*
X158697105Y-69831321D01*
X158697105Y-69831321D02*
X158639963Y-69859892D01*
X158639963Y-69859892D02*
X158611391Y-69888464D01*
X158611391Y-69888464D02*
X158582820Y-69945607D01*
X158582820Y-69945607D02*
X158582820Y-70002750D01*
X158582820Y-70002750D02*
X158611391Y-70059892D01*
X158611391Y-70059892D02*
X158639963Y-70088464D01*
X158639963Y-70088464D02*
X158697105Y-70117035D01*
X158697105Y-70117035D02*
X158897105Y-70117035D01*
D13*
X161426084Y-83938830D02*
X161092751Y-84415021D01*
X160854656Y-83938830D02*
X160854656Y-84938830D01*
X160854656Y-84938830D02*
X161235608Y-84938830D01*
X161235608Y-84938830D02*
X161330846Y-84891211D01*
X161330846Y-84891211D02*
X161378465Y-84843592D01*
X161378465Y-84843592D02*
X161426084Y-84748354D01*
X161426084Y-84748354D02*
X161426084Y-84605497D01*
X161426084Y-84605497D02*
X161378465Y-84510259D01*
X161378465Y-84510259D02*
X161330846Y-84462640D01*
X161330846Y-84462640D02*
X161235608Y-84415021D01*
X161235608Y-84415021D02*
X160854656Y-84415021D01*
X161854656Y-84462640D02*
X162187989Y-84462640D01*
X162330846Y-83938830D02*
X161854656Y-83938830D01*
X161854656Y-83938830D02*
X161854656Y-84938830D01*
X161854656Y-84938830D02*
X162330846Y-84938830D01*
X162616561Y-84938830D02*
X162949894Y-83938830D01*
X162949894Y-83938830D02*
X163283227Y-84938830D01*
X163807037Y-84938830D02*
X163902275Y-84938830D01*
X163902275Y-84938830D02*
X163997513Y-84891211D01*
X163997513Y-84891211D02*
X164045132Y-84843592D01*
X164045132Y-84843592D02*
X164092751Y-84748354D01*
X164092751Y-84748354D02*
X164140370Y-84557878D01*
X164140370Y-84557878D02*
X164140370Y-84319783D01*
X164140370Y-84319783D02*
X164092751Y-84129307D01*
X164092751Y-84129307D02*
X164045132Y-84034069D01*
X164045132Y-84034069D02*
X163997513Y-83986450D01*
X163997513Y-83986450D02*
X163902275Y-83938830D01*
X163902275Y-83938830D02*
X163807037Y-83938830D01*
X163807037Y-83938830D02*
X163711799Y-83986450D01*
X163711799Y-83986450D02*
X163664180Y-84034069D01*
X163664180Y-84034069D02*
X163616561Y-84129307D01*
X163616561Y-84129307D02*
X163568942Y-84319783D01*
X163568942Y-84319783D02*
X163568942Y-84557878D01*
X163568942Y-84557878D02*
X163616561Y-84748354D01*
X163616561Y-84748354D02*
X163664180Y-84843592D01*
X163664180Y-84843592D02*
X163711799Y-84891211D01*
X163711799Y-84891211D02*
X163807037Y-84938830D01*
X164759418Y-84938830D02*
X164854656Y-84938830D01*
X164854656Y-84938830D02*
X164949894Y-84891211D01*
X164949894Y-84891211D02*
X164997513Y-84843592D01*
X164997513Y-84843592D02*
X165045132Y-84748354D01*
X165045132Y-84748354D02*
X165092751Y-84557878D01*
X165092751Y-84557878D02*
X165092751Y-84319783D01*
X165092751Y-84319783D02*
X165045132Y-84129307D01*
X165045132Y-84129307D02*
X164997513Y-84034069D01*
X164997513Y-84034069D02*
X164949894Y-83986450D01*
X164949894Y-83986450D02*
X164854656Y-83938830D01*
X164854656Y-83938830D02*
X164759418Y-83938830D01*
X164759418Y-83938830D02*
X164664180Y-83986450D01*
X164664180Y-83986450D02*
X164616561Y-84034069D01*
X164616561Y-84034069D02*
X164568942Y-84129307D01*
X164568942Y-84129307D02*
X164521323Y-84319783D01*
X164521323Y-84319783D02*
X164521323Y-84557878D01*
X164521323Y-84557878D02*
X164568942Y-84748354D01*
X164568942Y-84748354D02*
X164616561Y-84843592D01*
X164616561Y-84843592D02*
X164664180Y-84891211D01*
X164664180Y-84891211D02*
X164759418Y-84938830D01*
D12*
X138631515Y-73284552D02*
X138126439Y-73789628D01*
X138126439Y-73789628D02*
X138059095Y-73924315D01*
X138059095Y-73924315D02*
X138059095Y-74059002D01*
X138059095Y-74059002D02*
X138126439Y-74193689D01*
X138126439Y-74193689D02*
X138193782Y-74261033D01*
X138261126Y-73048849D02*
X138261126Y-72981506D01*
X138261126Y-72981506D02*
X138227454Y-72880491D01*
X138227454Y-72880491D02*
X138059095Y-72712132D01*
X138059095Y-72712132D02*
X137958080Y-72678460D01*
X137958080Y-72678460D02*
X137890736Y-72678460D01*
X137890736Y-72678460D02*
X137789721Y-72712132D01*
X137789721Y-72712132D02*
X137722378Y-72779475D01*
X137722378Y-72779475D02*
X137655034Y-72914162D01*
X137655034Y-72914162D02*
X137655034Y-73722284D01*
X137655034Y-73722284D02*
X137217301Y-73284552D01*
D14*
%TO.C,RGBLED3*%
X92668870Y-49340580D02*
X95256881Y-46752569D01*
X94521490Y-49764844D02*
X102087532Y-42198802D01*
X95009393Y-51681104D02*
X95723571Y-50966926D01*
X95256881Y-46752569D02*
X95963988Y-47459676D01*
X95963988Y-47459676D02*
X97307490Y-46116173D01*
X96883226Y-45691909D02*
X98014597Y-44560538D01*
X97307490Y-46116173D02*
X96883226Y-45691909D01*
X97349917Y-54021627D02*
X92668870Y-49340580D01*
X97562049Y-52805403D02*
X94521490Y-49764844D01*
X98014597Y-44560538D02*
X98438861Y-44984802D01*
X98438861Y-44984802D02*
X99782364Y-43641299D01*
X99075257Y-42934193D02*
X101663268Y-40346182D01*
X99782364Y-43641299D02*
X99075257Y-42934193D01*
X100779385Y-40805801D02*
X101663268Y-39921918D01*
X101663268Y-39921918D02*
X102547152Y-40805801D01*
X101663268Y-40346182D02*
X106344315Y-45027229D01*
X102087532Y-42198802D02*
X105128091Y-45239361D01*
X104003792Y-42686705D02*
X103289614Y-43400883D01*
X105128091Y-45239361D02*
X97562049Y-52805403D01*
X106344315Y-45027229D02*
X97349917Y-54021627D01*
%TO.C,J1*%
X157024341Y-37450000D02*
X157024341Y-38510000D01*
X158084341Y-37450000D02*
X157024341Y-37450000D01*
X159084341Y-37450000D02*
X159084341Y-39570000D01*
X159084341Y-37450000D02*
X165144341Y-37450000D01*
X159084341Y-39570000D02*
X165144341Y-39570000D01*
X165144341Y-37450000D02*
X165144341Y-39570000D01*
%TO.C,SERVO3*%
X88843047Y-42577569D02*
X90759306Y-40661310D01*
X90695667Y-43001833D02*
X96493942Y-37203558D01*
X90759306Y-40661310D02*
X91466413Y-41368417D01*
X91183570Y-44918093D02*
X91897748Y-44203915D01*
X91466413Y-41368417D02*
X92597784Y-40237046D01*
X92173520Y-39812782D02*
X93304891Y-38681411D01*
X92597784Y-40237046D02*
X92173520Y-39812782D01*
X93304891Y-38681411D02*
X93729155Y-39105675D01*
X93524094Y-47258616D02*
X88843047Y-42577569D01*
X93729155Y-39105675D02*
X94860526Y-37974304D01*
X93736226Y-46042392D02*
X90695667Y-43001833D01*
X94153419Y-37267197D02*
X96069678Y-35350938D01*
X94860526Y-37974304D02*
X94153419Y-37267197D01*
X95185795Y-35810557D02*
X96069678Y-34926674D01*
X96069678Y-34926674D02*
X96953562Y-35810557D01*
X96069678Y-35350938D02*
X100750725Y-40031985D01*
X96493942Y-37203558D02*
X99534501Y-40244117D01*
X98410202Y-37691461D02*
X97696024Y-38405639D01*
X99534501Y-40244117D02*
X93736226Y-46042392D01*
X100750725Y-40031985D02*
X93524094Y-47258616D01*
%TO.C,RGBLED7*%
X92668870Y-84340580D02*
X95256881Y-81752569D01*
X94521490Y-84764844D02*
X102087532Y-77198802D01*
X95009393Y-86681104D02*
X95723571Y-85966926D01*
X95256881Y-81752569D02*
X95963988Y-82459676D01*
X95963988Y-82459676D02*
X97307490Y-81116173D01*
X96883226Y-80691909D02*
X98014597Y-79560538D01*
X97307490Y-81116173D02*
X96883226Y-80691909D01*
X97349917Y-89021627D02*
X92668870Y-84340580D01*
X97562049Y-87805403D02*
X94521490Y-84764844D01*
X98014597Y-79560538D02*
X98438861Y-79984802D01*
X98438861Y-79984802D02*
X99782364Y-78641299D01*
X99075257Y-77934193D02*
X101663268Y-75346182D01*
X99782364Y-78641299D02*
X99075257Y-77934193D01*
X100779385Y-75805801D02*
X101663268Y-74921918D01*
X101663268Y-74921918D02*
X102547152Y-75805801D01*
X101663268Y-75346182D02*
X106344315Y-80027229D01*
X102087532Y-77198802D02*
X105128091Y-80239361D01*
X104003792Y-77686705D02*
X103289614Y-78400883D01*
X105128091Y-80239361D02*
X97562049Y-87805403D01*
X106344315Y-80027229D02*
X97349917Y-89021627D01*
%TO.C,SERVO5*%
X123843047Y-42577569D02*
X125759306Y-40661310D01*
X125695667Y-43001833D02*
X131493942Y-37203558D01*
X125759306Y-40661310D02*
X126466413Y-41368417D01*
X126183570Y-44918093D02*
X126897748Y-44203915D01*
X126466413Y-41368417D02*
X127597784Y-40237046D01*
X127173520Y-39812782D02*
X128304891Y-38681411D01*
X127597784Y-40237046D02*
X127173520Y-39812782D01*
X128304891Y-38681411D02*
X128729155Y-39105675D01*
X128524094Y-47258616D02*
X123843047Y-42577569D01*
X128729155Y-39105675D02*
X129860526Y-37974304D01*
X128736226Y-46042392D02*
X125695667Y-43001833D01*
X129153419Y-37267197D02*
X131069678Y-35350938D01*
X129860526Y-37974304D02*
X129153419Y-37267197D01*
X130185795Y-35810557D02*
X131069678Y-34926674D01*
X131069678Y-34926674D02*
X131953562Y-35810557D01*
X131069678Y-35350938D02*
X135750725Y-40031985D01*
X131493942Y-37203558D02*
X134534501Y-40244117D01*
X133410202Y-37691461D02*
X132696024Y-38405639D01*
X134534501Y-40244117D02*
X128736226Y-46042392D01*
X135750725Y-40031985D02*
X128524094Y-47258616D01*
%TO.C,RGBLED5*%
X127668870Y-49340580D02*
X130256881Y-46752569D01*
X129521490Y-49764844D02*
X137087532Y-42198802D01*
X130009393Y-51681104D02*
X130723571Y-50966926D01*
X130256881Y-46752569D02*
X130963988Y-47459676D01*
X130963988Y-47459676D02*
X132307490Y-46116173D01*
X131883226Y-45691909D02*
X133014597Y-44560538D01*
X132307490Y-46116173D02*
X131883226Y-45691909D01*
X132349917Y-54021627D02*
X127668870Y-49340580D01*
X132562049Y-52805403D02*
X129521490Y-49764844D01*
X133014597Y-44560538D02*
X133438861Y-44984802D01*
X133438861Y-44984802D02*
X134782364Y-43641299D01*
X134075257Y-42934193D02*
X136663268Y-40346182D01*
X134782364Y-43641299D02*
X134075257Y-42934193D01*
X135779385Y-40805801D02*
X136663268Y-39921918D01*
X136663268Y-39921918D02*
X137547152Y-40805801D01*
X136663268Y-40346182D02*
X141344315Y-45027229D01*
X137087532Y-42198802D02*
X140128091Y-45239361D01*
X139003792Y-42686705D02*
X138289614Y-43400883D01*
X140128091Y-45239361D02*
X132562049Y-52805403D01*
X141344315Y-45027229D02*
X132349917Y-54021627D01*
%TO.C,J2*%
X129942223Y-85532948D02*
X126265268Y-81855993D01*
X133491899Y-74629362D02*
X126265268Y-81855993D01*
X135330377Y-72790884D02*
X134389925Y-73731336D01*
X135330377Y-76467839D02*
X133491899Y-74629362D01*
X136270829Y-73731336D02*
X135330377Y-72790884D01*
X137168855Y-74629362D02*
X135330377Y-76467839D01*
X139007332Y-76467839D02*
X129942223Y-85532948D01*
X139007332Y-76467839D02*
X137168855Y-74629362D01*
%TO.C,J1*%
X121990000Y-107450000D02*
X121990000Y-108510000D01*
X123050000Y-107450000D02*
X121990000Y-107450000D01*
X124050000Y-107450000D02*
X124050000Y-109570000D01*
X124050000Y-107450000D02*
X130110000Y-107450000D01*
X124050000Y-109570000D02*
X130110000Y-109570000D01*
X130110000Y-107450000D02*
X130110000Y-109570000D01*
X87024322Y-107449961D02*
X87024322Y-108509961D01*
X88084322Y-107449961D02*
X87024322Y-107449961D01*
X89084322Y-107449961D02*
X89084322Y-109569961D01*
X89084322Y-107449961D02*
X95144322Y-107449961D01*
X89084322Y-109569961D02*
X95144322Y-109569961D01*
X95144322Y-107449961D02*
X95144322Y-109569961D01*
%TO.C,SERVO7*%
X88843047Y-77577569D02*
X90759306Y-75661310D01*
X90695667Y-78001833D02*
X96493942Y-72203558D01*
X90759306Y-75661310D02*
X91466413Y-76368417D01*
X91183570Y-79918093D02*
X91897748Y-79203915D01*
X91466413Y-76368417D02*
X92597784Y-75237046D01*
X92173520Y-74812782D02*
X93304891Y-73681411D01*
X92597784Y-75237046D02*
X92173520Y-74812782D01*
X93304891Y-73681411D02*
X93729155Y-74105675D01*
X93524094Y-82258616D02*
X88843047Y-77577569D01*
X93729155Y-74105675D02*
X94860526Y-72974304D01*
X93736226Y-81042392D02*
X90695667Y-78001833D01*
X94153419Y-72267197D02*
X96069678Y-70350938D01*
X94860526Y-72974304D02*
X94153419Y-72267197D01*
X95185795Y-70810557D02*
X96069678Y-69926674D01*
X96069678Y-69926674D02*
X96953562Y-70810557D01*
X96069678Y-70350938D02*
X100750725Y-75031985D01*
X96493942Y-72203558D02*
X99534501Y-75244117D01*
X98410202Y-72691461D02*
X97696024Y-73405639D01*
X99534501Y-75244117D02*
X93736226Y-81042392D01*
X100750725Y-75031985D02*
X93524094Y-82258616D01*
%TO.C,J1*%
X157024325Y-72449950D02*
X157024325Y-73509950D01*
X158084325Y-72449950D02*
X157024325Y-72449950D01*
X159084325Y-72449950D02*
X159084325Y-74569950D01*
X159084325Y-72449950D02*
X165144325Y-72449950D01*
X159084325Y-74569950D02*
X165144325Y-74569950D01*
X165144325Y-72449950D02*
X165144325Y-74569950D01*
D15*
%TO.C,G\u002A\u002A\u002A*%
G36*
X159741512Y-85621983D02*
G01*
X160402485Y-87315149D01*
X160764689Y-87317776D01*
X160769262Y-87317809D01*
X160866298Y-87318373D01*
X160945003Y-87318508D01*
X161006977Y-87318167D01*
X161053826Y-87317307D01*
X161087151Y-87315882D01*
X161108556Y-87313848D01*
X161119645Y-87311160D01*
X161122020Y-87307772D01*
X161118650Y-87299106D01*
X161108433Y-87272909D01*
X161092334Y-87231670D01*
X161071086Y-87177259D01*
X161045418Y-87111548D01*
X161016063Y-87036408D01*
X160983751Y-86953710D01*
X160980652Y-86945780D01*
X161394762Y-86945780D01*
X161399974Y-86967535D01*
X161419874Y-86984775D01*
X161451679Y-86988243D01*
X161454730Y-86987873D01*
X161471338Y-86983214D01*
X161478352Y-86970987D01*
X161479795Y-86945004D01*
X161479764Y-86938431D01*
X161477643Y-86915805D01*
X161469074Y-86905733D01*
X161449734Y-86902036D01*
X161424715Y-86903486D01*
X161402523Y-86918020D01*
X161394762Y-86945780D01*
X160980652Y-86945780D01*
X160949214Y-86865324D01*
X160913184Y-86773122D01*
X160912336Y-86770952D01*
X161795787Y-86770952D01*
X161799114Y-86804197D01*
X161820592Y-86836533D01*
X161830901Y-86846060D01*
X161852091Y-86857153D01*
X161877981Y-86855863D01*
X161912110Y-86843524D01*
X161932614Y-86820170D01*
X161938976Y-86783795D01*
X161934113Y-86752726D01*
X161915859Y-86728630D01*
X161891001Y-86714317D01*
X161856617Y-86712502D01*
X161821278Y-86730645D01*
X161810585Y-86740753D01*
X161795787Y-86770952D01*
X160912336Y-86770952D01*
X160876390Y-86678976D01*
X160839566Y-86584755D01*
X160803441Y-86492331D01*
X160797053Y-86475989D01*
X161504805Y-86475989D01*
X161510288Y-86496007D01*
X161529417Y-86511358D01*
X161556782Y-86512219D01*
X161560815Y-86510932D01*
X161571848Y-86499876D01*
X161572868Y-86476013D01*
X161571522Y-86465982D01*
X161563297Y-86448338D01*
X161544446Y-86441847D01*
X161524492Y-86441557D01*
X161509080Y-86451325D01*
X161504805Y-86475989D01*
X160797053Y-86475989D01*
X160768747Y-86403574D01*
X160736216Y-86320357D01*
X160706578Y-86244550D01*
X160680564Y-86178024D01*
X160658907Y-86122649D01*
X160642337Y-86080298D01*
X160631586Y-86052841D01*
X160627384Y-86042148D01*
X160627751Y-86040909D01*
X160634344Y-86038637D01*
X160649705Y-86036672D01*
X160674958Y-86034995D01*
X160711226Y-86033585D01*
X160759635Y-86032426D01*
X160821307Y-86031496D01*
X160897367Y-86030779D01*
X160988938Y-86030254D01*
X161097145Y-86029902D01*
X161223112Y-86029705D01*
X161367963Y-86029643D01*
X162113608Y-86029643D01*
X162133424Y-86082164D01*
X162137579Y-86092969D01*
X162148798Y-86121879D01*
X162165929Y-86165890D01*
X162188197Y-86223023D01*
X162214829Y-86291296D01*
X162245050Y-86368729D01*
X162278086Y-86453342D01*
X162313164Y-86543152D01*
X162349508Y-86636180D01*
X162386345Y-86730444D01*
X162422902Y-86823965D01*
X162458403Y-86914760D01*
X162492074Y-87000850D01*
X162523143Y-87080254D01*
X162550833Y-87150990D01*
X162574373Y-87211078D01*
X162592986Y-87258537D01*
X162605900Y-87291387D01*
X162612340Y-87307647D01*
X162615218Y-87310019D01*
X162627230Y-87313029D01*
X162649866Y-87315429D01*
X162684689Y-87317272D01*
X162733263Y-87318612D01*
X162797152Y-87319503D01*
X162877919Y-87319998D01*
X162977128Y-87320151D01*
X163049409Y-87320126D01*
X163130064Y-87319967D01*
X163193996Y-87319579D01*
X163243086Y-87318869D01*
X163279212Y-87317745D01*
X163304256Y-87316112D01*
X163320098Y-87313879D01*
X163328618Y-87310952D01*
X163331695Y-87307238D01*
X163331211Y-87302645D01*
X163329874Y-87298967D01*
X163322016Y-87278343D01*
X163307788Y-87241436D01*
X163287804Y-87189826D01*
X163262678Y-87125093D01*
X163233025Y-87048818D01*
X163199457Y-86962580D01*
X163162591Y-86867959D01*
X163123038Y-86766536D01*
X163081415Y-86659892D01*
X162923884Y-86256443D01*
X163158087Y-86256443D01*
X163158583Y-86260612D01*
X163160694Y-86266775D01*
X163169530Y-86290529D01*
X163184541Y-86330031D01*
X163205054Y-86383530D01*
X163230393Y-86449276D01*
X163259883Y-86525521D01*
X163292850Y-86610513D01*
X163328618Y-86702503D01*
X163366513Y-86799742D01*
X163569547Y-87320151D01*
X164082784Y-87320151D01*
X164115334Y-87320146D01*
X164212725Y-87320066D01*
X164303196Y-87319896D01*
X164384880Y-87319647D01*
X164455904Y-87319327D01*
X164514401Y-87318946D01*
X164558499Y-87318514D01*
X164586330Y-87318040D01*
X164596022Y-87317534D01*
X164596001Y-87317427D01*
X164591957Y-87306499D01*
X164581569Y-87279560D01*
X164565777Y-87239023D01*
X164545524Y-87187298D01*
X164521753Y-87126798D01*
X164495403Y-87059933D01*
X164479458Y-87019509D01*
X164434408Y-86905143D01*
X164391250Y-86795343D01*
X164350666Y-86691864D01*
X164313342Y-86596460D01*
X164279962Y-86510887D01*
X164251212Y-86436897D01*
X164227775Y-86376246D01*
X164210338Y-86330689D01*
X164199584Y-86301978D01*
X164180333Y-86249185D01*
X163667010Y-86245538D01*
X163664206Y-86245518D01*
X163550217Y-86244731D01*
X163454606Y-86244159D01*
X163375778Y-86243848D01*
X163312140Y-86243845D01*
X163262097Y-86244199D01*
X163224056Y-86244956D01*
X163196422Y-86246163D01*
X163177602Y-86247868D01*
X163166002Y-86250118D01*
X163160029Y-86252961D01*
X163158087Y-86256443D01*
X162923884Y-86256443D01*
X162837281Y-86034645D01*
X163578467Y-86032080D01*
X163710360Y-86031695D01*
X163846314Y-86031495D01*
X163963650Y-86031573D01*
X164063116Y-86031936D01*
X164145459Y-86032593D01*
X164211426Y-86033553D01*
X164261766Y-86034824D01*
X164297226Y-86036414D01*
X164318554Y-86038332D01*
X164326496Y-86040587D01*
X164329621Y-86047668D01*
X164339588Y-86072075D01*
X164355624Y-86112119D01*
X164377060Y-86166106D01*
X164403226Y-86232341D01*
X164433454Y-86309129D01*
X164467073Y-86394776D01*
X164503416Y-86487586D01*
X164541812Y-86585866D01*
X164572349Y-86663967D01*
X164609038Y-86757392D01*
X164643113Y-86843711D01*
X164673913Y-86921276D01*
X164700779Y-86988437D01*
X164723050Y-87043543D01*
X164740065Y-87084945D01*
X164751164Y-87110994D01*
X164755686Y-87120039D01*
X164759174Y-87113269D01*
X164769402Y-87089432D01*
X164785644Y-87049991D01*
X164807245Y-86996582D01*
X164833551Y-86930843D01*
X164863907Y-86854410D01*
X164897659Y-86768921D01*
X164934151Y-86676014D01*
X164972729Y-86577325D01*
X165184372Y-86034645D01*
X165301555Y-86031817D01*
X165331414Y-86031216D01*
X165373276Y-86031192D01*
X165399168Y-86032797D01*
X165411694Y-86036262D01*
X165413458Y-86041820D01*
X165409716Y-86051271D01*
X165399156Y-86078107D01*
X165382414Y-86120715D01*
X165360078Y-86177599D01*
X165332734Y-86247262D01*
X165300971Y-86328210D01*
X165265374Y-86418946D01*
X165226532Y-86517973D01*
X165185030Y-86623797D01*
X165141457Y-86734921D01*
X165130909Y-86761827D01*
X165081732Y-86887339D01*
X165039316Y-86995830D01*
X165003185Y-87088633D01*
X164972865Y-87167080D01*
X164947881Y-87232504D01*
X164927758Y-87286238D01*
X164912020Y-87329615D01*
X164900194Y-87363968D01*
X164891803Y-87390628D01*
X164886373Y-87410930D01*
X164883428Y-87426206D01*
X164882495Y-87437789D01*
X164883097Y-87447010D01*
X164884760Y-87455205D01*
X164886582Y-87462335D01*
X164894785Y-87491880D01*
X164901535Y-87512727D01*
X164901660Y-87513077D01*
X164901690Y-87515650D01*
X164899306Y-87517953D01*
X164893474Y-87520000D01*
X164883158Y-87521807D01*
X164867323Y-87523388D01*
X164844935Y-87524760D01*
X164814959Y-87525935D01*
X164776359Y-87526930D01*
X164728100Y-87527760D01*
X164669148Y-87528438D01*
X164598469Y-87528981D01*
X164515025Y-87529403D01*
X164417784Y-87529719D01*
X164305710Y-87529944D01*
X164177767Y-87530094D01*
X164032922Y-87530182D01*
X163870138Y-87530224D01*
X163688382Y-87530234D01*
X162468479Y-87530234D01*
X162394302Y-87343404D01*
X162320126Y-87156575D01*
X162265104Y-87137133D01*
X162235798Y-87128724D01*
X162174513Y-87118647D01*
X162095037Y-87112821D01*
X162066914Y-87111946D01*
X161987788Y-87113862D01*
X161914259Y-87123633D01*
X161841089Y-87142503D01*
X161763039Y-87171714D01*
X161674872Y-87212509D01*
X161549823Y-87274396D01*
X161447282Y-87274765D01*
X161415947Y-87275243D01*
X161379177Y-87276945D01*
X161354048Y-87279556D01*
X161344742Y-87282751D01*
X161344742Y-87282782D01*
X161348344Y-87294688D01*
X161358025Y-87321185D01*
X161372319Y-87358376D01*
X161389760Y-87402364D01*
X161389917Y-87402756D01*
X161407342Y-87446739D01*
X161421605Y-87483931D01*
X161431240Y-87510420D01*
X161434777Y-87522297D01*
X161431190Y-87522833D01*
X161409831Y-87523701D01*
X161370172Y-87524539D01*
X161313279Y-87525341D01*
X161240216Y-87526101D01*
X161152049Y-87526814D01*
X161049846Y-87527475D01*
X160934670Y-87528078D01*
X160807588Y-87528618D01*
X160669665Y-87529089D01*
X160521968Y-87529487D01*
X160365562Y-87529806D01*
X160201512Y-87530040D01*
X160030885Y-87530185D01*
X159854745Y-87530234D01*
X159748767Y-87530251D01*
X159575697Y-87530352D01*
X159408735Y-87530540D01*
X159248949Y-87530810D01*
X159097410Y-87531157D01*
X158955186Y-87531576D01*
X158823347Y-87532061D01*
X158702961Y-87532608D01*
X158595099Y-87533211D01*
X158500829Y-87533866D01*
X158421220Y-87534568D01*
X158357343Y-87535311D01*
X158310265Y-87536090D01*
X158281057Y-87536900D01*
X158270788Y-87537737D01*
X158270788Y-87538086D01*
X158274867Y-87550848D01*
X158285727Y-87580854D01*
X158302906Y-87626901D01*
X158325942Y-87687785D01*
X158354370Y-87762304D01*
X158387730Y-87849254D01*
X158425558Y-87947432D01*
X158467393Y-88055634D01*
X158512770Y-88172658D01*
X158561228Y-88297300D01*
X158612305Y-88428356D01*
X158665537Y-88564624D01*
X158673681Y-88585450D01*
X158726599Y-88720923D01*
X158777294Y-88850948D01*
X158825302Y-88974326D01*
X158870162Y-89089860D01*
X158911411Y-89196350D01*
X158948588Y-89292601D01*
X158981230Y-89377413D01*
X159008875Y-89449589D01*
X159031062Y-89507930D01*
X159047328Y-89551240D01*
X159057211Y-89578319D01*
X159060249Y-89587971D01*
X159059020Y-89586981D01*
X159046231Y-89575030D01*
X159020156Y-89550115D01*
X158981536Y-89512956D01*
X158931111Y-89464275D01*
X158869623Y-89404793D01*
X158797812Y-89335232D01*
X158716419Y-89256312D01*
X158626185Y-89168755D01*
X158527851Y-89073281D01*
X158422156Y-88970614D01*
X158309843Y-88861472D01*
X158191651Y-88746579D01*
X158068321Y-88626654D01*
X157940595Y-88502419D01*
X157809213Y-88374596D01*
X157674915Y-88243905D01*
X157538443Y-88111068D01*
X157400537Y-87976806D01*
X157261938Y-87841840D01*
X157123387Y-87706892D01*
X156985624Y-87572682D01*
X156849391Y-87439933D01*
X156715427Y-87309364D01*
X156584474Y-87181698D01*
X156457272Y-87057655D01*
X156334563Y-86937957D01*
X156217086Y-86823326D01*
X156105584Y-86714481D01*
X156000795Y-86612145D01*
X155903462Y-86517038D01*
X155814325Y-86429883D01*
X155734124Y-86351400D01*
X155663601Y-86282309D01*
X155603496Y-86223334D01*
X155554550Y-86175194D01*
X155517503Y-86138612D01*
X155407516Y-86029643D01*
X155562521Y-86030145D01*
X155717526Y-86030647D01*
X156377481Y-86675399D01*
X157037435Y-87320151D01*
X157491586Y-87320151D01*
X157596070Y-87320117D01*
X157685441Y-87319969D01*
X157758125Y-87319640D01*
X157815807Y-87319065D01*
X157860171Y-87318178D01*
X157892901Y-87316915D01*
X157915681Y-87315209D01*
X157930196Y-87312994D01*
X157938129Y-87310206D01*
X157941165Y-87306778D01*
X157940987Y-87302645D01*
X157939945Y-87299575D01*
X157932592Y-87279860D01*
X157918829Y-87243794D01*
X157899271Y-87192966D01*
X157874534Y-87128967D01*
X157845234Y-87053385D01*
X157811988Y-86967810D01*
X157775410Y-86873831D01*
X157736117Y-86773038D01*
X157694724Y-86667020D01*
X157675976Y-86619009D01*
X157635636Y-86515492D01*
X157597790Y-86418092D01*
X157563040Y-86328374D01*
X157531986Y-86247902D01*
X157505230Y-86178238D01*
X157483373Y-86120947D01*
X157467016Y-86077592D01*
X157456762Y-86049737D01*
X157453210Y-86038946D01*
X157456512Y-86036214D01*
X157476815Y-86032875D01*
X157513883Y-86031367D01*
X157565709Y-86031817D01*
X157678207Y-86034645D01*
X157928351Y-86677122D01*
X158178495Y-87319598D01*
X158546814Y-87319875D01*
X158630795Y-87319904D01*
X158710553Y-87319788D01*
X158773776Y-87319428D01*
X158822322Y-87318735D01*
X158858050Y-87317621D01*
X158882822Y-87315998D01*
X158898495Y-87313777D01*
X158906929Y-87310870D01*
X158909984Y-87307189D01*
X158909811Y-87305499D01*
X159147731Y-87305499D01*
X159149163Y-87308929D01*
X159154861Y-87311780D01*
X159166400Y-87314105D01*
X159185353Y-87315956D01*
X159213295Y-87317389D01*
X159251800Y-87318455D01*
X159302442Y-87319207D01*
X159366795Y-87319700D01*
X159446433Y-87319986D01*
X159542931Y-87320119D01*
X159657862Y-87320151D01*
X160173989Y-87320151D01*
X160155299Y-87272633D01*
X160154152Y-87269710D01*
X160145223Y-87246899D01*
X160129985Y-87207913D01*
X160109210Y-87154727D01*
X160083668Y-87089316D01*
X160054130Y-87013655D01*
X160021369Y-86929720D01*
X159986154Y-86839485D01*
X159949258Y-86744925D01*
X159936984Y-86713475D01*
X159901415Y-86622438D01*
X159868279Y-86537769D01*
X159838263Y-86461223D01*
X159812059Y-86394554D01*
X159790356Y-86339514D01*
X159773844Y-86297857D01*
X159763212Y-86271338D01*
X159759152Y-86261709D01*
X159759090Y-86261639D01*
X159758358Y-86260927D01*
X159757144Y-86261325D01*
X159754708Y-86264076D01*
X159750312Y-86270423D01*
X159743215Y-86281611D01*
X159732678Y-86298881D01*
X159717960Y-86323478D01*
X159698323Y-86356645D01*
X159673026Y-86399624D01*
X159641329Y-86453660D01*
X159602493Y-86519995D01*
X159555779Y-86599873D01*
X159500445Y-86694537D01*
X159435753Y-86805230D01*
X159402158Y-86862756D01*
X159351433Y-86949781D01*
X159304261Y-87030909D01*
X159261579Y-87104517D01*
X159224326Y-87168981D01*
X159193438Y-87222678D01*
X159169853Y-87263983D01*
X159154510Y-87291274D01*
X159148345Y-87302926D01*
X159147731Y-87305499D01*
X158909811Y-87305499D01*
X158909519Y-87302645D01*
X158908184Y-87298965D01*
X158900331Y-87278338D01*
X158886107Y-87241429D01*
X158866124Y-87189819D01*
X158840997Y-87125086D01*
X158811341Y-87048811D01*
X158777770Y-86962574D01*
X158740897Y-86867955D01*
X158701337Y-86766534D01*
X158659703Y-86659892D01*
X158415502Y-86034645D01*
X159039791Y-86032069D01*
X159059760Y-86031983D01*
X159168508Y-86031378D01*
X159270811Y-86030586D01*
X159364974Y-86029633D01*
X159449301Y-86028546D01*
X159522097Y-86027354D01*
X159581667Y-86026082D01*
X159626315Y-86024759D01*
X159654346Y-86023411D01*
X159664065Y-86022065D01*
X159663858Y-86021297D01*
X159658618Y-86006905D01*
X159646665Y-85975358D01*
X159628463Y-85927852D01*
X159604473Y-85865581D01*
X159575160Y-85789740D01*
X159540987Y-85701523D01*
X159502416Y-85602125D01*
X159459911Y-85492741D01*
X159413934Y-85374564D01*
X159364949Y-85248791D01*
X159313419Y-85116614D01*
X159259807Y-84979230D01*
X158855564Y-83943822D01*
X158932193Y-83938154D01*
X158934206Y-83938005D01*
X158977082Y-83934952D01*
X159016687Y-83932315D01*
X159044681Y-83930651D01*
X159080539Y-83928816D01*
X159741512Y-85621983D01*
G37*
%TD*%
%LPC*%
D16*
%TO.C,BLDC6*%
X105385720Y-40597670D03*
%TD*%
%TO.C,BLDC5*%
X101673409Y-36885360D03*
%TD*%
D17*
%TO.C,RGBLED6*%
X141075615Y-46625290D03*
D18*
X139279564Y-48421341D03*
X137483513Y-50217392D03*
X135687461Y-52013444D03*
%TD*%
D19*
%TO.C,J2*%
X88084322Y-106259961D03*
D20*
X90084322Y-106259961D03*
X92084322Y-106259961D03*
X94084322Y-106259961D03*
%TD*%
D19*
%TO.C,J2*%
X158084341Y-36260000D03*
D20*
X160084341Y-36260000D03*
X162084341Y-36260000D03*
X164084341Y-36260000D03*
%TD*%
D17*
%TO.C,SERVO6*%
X128271866Y-36223192D03*
D18*
X126475815Y-38019243D03*
X124679764Y-39815294D03*
%TD*%
D17*
%TO.C,SERVO8*%
X93271866Y-71223192D03*
D18*
X91475815Y-73019243D03*
X89679764Y-74815294D03*
%TD*%
D19*
%TO.C,J2*%
X123050000Y-106260000D03*
D20*
X125050000Y-106260000D03*
X127050000Y-106260000D03*
X129050000Y-106260000D03*
%TD*%
D16*
%TO.C,BLDC4*%
X90359701Y-48199068D03*
%TD*%
%TO.C,BLDC10*%
X90359701Y-83199068D03*
%TD*%
%TO.C,BLDC12*%
X105385720Y-75597670D03*
%TD*%
%TO.C,BLDC9*%
X140385720Y-40597670D03*
%TD*%
D17*
%TO.C,SERVO4*%
X93271866Y-36223192D03*
D18*
X91475815Y-38019243D03*
X89679764Y-39815294D03*
%TD*%
D17*
%TO.C,RGBLED8*%
X106075615Y-81625290D03*
D18*
X104279564Y-83421341D03*
X102483513Y-85217392D03*
X100687461Y-87013444D03*
%TD*%
D16*
%TO.C,BLDC8*%
X136673409Y-36885360D03*
%TD*%
%TO.C,BLDC11*%
X101673409Y-71885360D03*
%TD*%
D21*
%TO.C,J1*%
X124695491Y-80710480D03*
D22*
X126109705Y-79296266D03*
X127523918Y-77882053D03*
X128938132Y-76467839D03*
X130352345Y-75053626D03*
X131766559Y-73639412D03*
X133180772Y-72225199D03*
X134594986Y-70810985D03*
%TD*%
D16*
%TO.C,BLDC7*%
X125359701Y-48199068D03*
%TD*%
D17*
%TO.C,RGBLED4*%
X106075615Y-46625290D03*
D18*
X104279564Y-48421341D03*
X102483513Y-50217392D03*
X100687461Y-52013444D03*
%TD*%
D23*
%TO.C,RGBLED3*%
X102158243Y-44532254D03*
D24*
X100390476Y-46300021D03*
X98622709Y-48067788D03*
X96854942Y-49835555D03*
%TD*%
D19*
%TO.C,J1*%
X158084341Y-38510000D03*
D20*
X160084341Y-38510000D03*
X162084341Y-38510000D03*
X164084341Y-38510000D03*
%TD*%
D23*
%TO.C,SERVO3*%
X96564653Y-39537010D03*
D24*
X94796886Y-41304777D03*
X93029119Y-43072544D03*
%TD*%
D23*
%TO.C,RGBLED7*%
X102158243Y-79532254D03*
D24*
X100390476Y-81300021D03*
X98622709Y-83067788D03*
X96854942Y-84835555D03*
%TD*%
D23*
%TO.C,SERVO5*%
X131564653Y-39537010D03*
D24*
X129796886Y-41304777D03*
X128029119Y-43072544D03*
%TD*%
D23*
%TO.C,RGBLED5*%
X137158243Y-44532254D03*
D24*
X135390476Y-46300021D03*
X133622709Y-48067788D03*
X131854942Y-49835555D03*
%TD*%
D25*
%TO.C,J2*%
X135330377Y-74671788D03*
D26*
X137126428Y-76467839D03*
X133534326Y-76467839D03*
X135330377Y-78263890D03*
X131738275Y-78263890D03*
X133534326Y-80059942D03*
X129942223Y-80059942D03*
X131738275Y-81855993D03*
X128146172Y-81855993D03*
X129942223Y-83652044D03*
%TD*%
D19*
%TO.C,J1*%
X123050000Y-108510000D03*
D20*
X125050000Y-108510000D03*
X127050000Y-108510000D03*
X129050000Y-108510000D03*
%TD*%
D19*
%TO.C,J1*%
X88084322Y-108509961D03*
D20*
X90084322Y-108509961D03*
X92084322Y-108509961D03*
X94084322Y-108509961D03*
%TD*%
D23*
%TO.C,SERVO7*%
X96564653Y-74537010D03*
D24*
X94796886Y-76304777D03*
X93029119Y-78072544D03*
%TD*%
D19*
%TO.C,J2*%
X158084325Y-71259950D03*
D20*
X160084325Y-71259950D03*
X162084325Y-71259950D03*
X164084325Y-71259950D03*
%TD*%
D19*
%TO.C,J1*%
X158084325Y-73509950D03*
D20*
X160084325Y-73509950D03*
X162084325Y-73509950D03*
X164084325Y-73509950D03*
%TD*%
D27*
%TO.C,J2*%
X165114325Y-101019950D03*
D28*
X165114325Y-103559950D03*
X162574325Y-101019950D03*
X162574325Y-103559950D03*
X160034325Y-101019950D03*
X160034325Y-103559950D03*
X157494325Y-101019950D03*
X157494325Y-103559950D03*
X154954325Y-101019950D03*
X154954325Y-103559950D03*
%TD*%
D29*
%TO.C,J1*%
X167354325Y-88659950D03*
X152554325Y-88659950D03*
D30*
X156384325Y-93499950D03*
X157404325Y-90959950D03*
X158424325Y-93499950D03*
X159444325Y-90959950D03*
X160464325Y-93499950D03*
X161484325Y-90959950D03*
X162504325Y-93499950D03*
X163524325Y-90959950D03*
D31*
X168074325Y-93499950D03*
X151834325Y-93499950D03*
%TD*%
%LPD*%
M02*
