%TF.GenerationSoftware,KiCad,Pcbnew,9.0.0*%
%TF.CreationDate,2025-06-25T09:26:05+09:00*%
%TF.ProjectId,pcb_connectors,7063625f-636f-46e6-9e65-63746f72732e,rev?*%
%TF.SameCoordinates,Original*%
%TF.FileFunction,Soldermask,Top*%
%TF.FilePolarity,Negative*%
%FSLAX46Y46*%
G04 Gerber Fmt 4.6, Leading zero omitted, Abs format (unit mm)*
G04 Created by KiCad (PCBNEW 9.0.0) date 2025-06-25 09:26:05*
%MOMM*%
%LPD*%
G01*
G04 APERTURE LIST*
G04 Aperture macros list*
%AMRoundRect*
0 Rectangle with rounded corners*
0 $1 Rounding radius*
0 $2 $3 $4 $5 $6 $7 $8 $9 X,Y pos of 4 corners*
0 Add a 4 corners polygon primitive as box body*
4,1,4,$2,$3,$4,$5,$6,$7,$8,$9,$2,$3,0*
0 Add four circle primitives for the rounded corners*
1,1,$1+$1,$2,$3*
1,1,$1+$1,$4,$5*
1,1,$1+$1,$6,$7*
1,1,$1+$1,$8,$9*
0 Add four rect primitives between the rounded corners*
20,1,$1+$1,$2,$3,$4,$5,0*
20,1,$1+$1,$4,$5,$6,$7,0*
20,1,$1+$1,$6,$7,$8,$9,0*
20,1,$1+$1,$8,$9,$2,$3,0*%
%AMHorizOval*
0 Thick line with rounded ends*
0 $1 width*
0 $2 $3 position (X,Y) of the first rounded end (center of the circle)*
0 $4 $5 position (X,Y) of the second rounded end (center of the circle)*
0 Add line between two ends*
20,1,$1,$2,$3,$4,$5,0*
0 Add two circle primitives to create the rounded ends*
1,1,$1,$2,$3*
1,1,$1,$4,$5*%
%AMRotRect*
0 Rectangle, with rotation*
0 The origin of the aperture is its center*
0 $1 length*
0 $2 width*
0 $3 Rotation angle, in degrees counterclockwise*
0 Add horizontal line*
21,1,$1,$2,0,0,$3*%
G04 Aperture macros list end*
%ADD10C,6.500000*%
%ADD11C,5.000000*%
%ADD12RoundRect,0.237500X-0.344715X0.008839X0.008839X-0.344715X0.344715X-0.008839X-0.008839X0.344715X0*%
%ADD13C,7.500000*%
%ADD14RoundRect,0.250000X-0.088388X0.548008X-0.548008X0.088388X0.088388X-0.548008X0.548008X-0.088388X0*%
%ADD15RoundRect,0.237500X0.008839X0.344715X-0.344715X-0.008839X-0.008839X-0.344715X0.344715X0.008839X0*%
%ADD16RotRect,1.700000X1.700000X315.000000*%
%ADD17HorizOval,1.700000X0.000000X0.000000X0.000000X0.000000X0*%
%ADD18R,1.350000X1.350000*%
%ADD19O,1.350000X1.350000*%
%ADD20RotRect,1.350000X1.350000X135.000000*%
%ADD21HorizOval,1.350000X0.000000X0.000000X0.000000X0.000000X0*%
%ADD22RoundRect,0.250000X-0.088388X0.936916X-0.936916X0.088388X0.088388X-0.936916X0.936916X-0.088388X0*%
%ADD23HorizOval,1.700000X-0.088388X0.088388X0.088388X-0.088388X0*%
%ADD24RotRect,1.700000X1.700000X135.000000*%
%ADD25HorizOval,1.700000X0.000000X0.000000X0.000000X0.000000X0*%
%ADD26R,1.700000X1.700000*%
%ADD27O,1.700000X1.700000*%
%ADD28C,1.500000*%
%ADD29C,2.300000*%
G04 APERTURE END LIST*
D10*
%TO.C,H3*%
X95784322Y-112309961D03*
%TD*%
D11*
%TO.C,BLDC6*%
X105385720Y-40597670D03*
%TD*%
D12*
%TO.C,R7*%
X128250000Y-45786066D03*
X129540470Y-47076536D03*
%TD*%
D10*
%TO.C,H1*%
X120750000Y-102310000D03*
%TD*%
D13*
%TO.C,H13*%
X87784333Y-69309992D03*
%TD*%
D14*
%TO.C,SERVO_OK_OUTER3*%
X132448446Y-44292304D03*
X130998878Y-45741872D03*
%TD*%
D13*
%TO.C,H2*%
X122784324Y-89309946D03*
%TD*%
%TO.C,H10*%
X122784333Y-54309970D03*
%TD*%
D15*
%TO.C,R8*%
X95954683Y-77957639D03*
X94664213Y-79248109D03*
%TD*%
D11*
%TO.C,BLDC5*%
X101673409Y-36885360D03*
%TD*%
D16*
%TO.C,RGBLED6*%
X141075615Y-46625290D03*
D17*
X139279564Y-48421341D03*
X137483513Y-50217392D03*
X135687461Y-52013444D03*
%TD*%
D10*
%TO.C,H3*%
X130750000Y-112310000D03*
%TD*%
D13*
%TO.C,H14*%
X87784333Y-89309970D03*
%TD*%
D12*
%TO.C,R9*%
X93250000Y-80786066D03*
X94540470Y-82076536D03*
%TD*%
D18*
%TO.C,J2*%
X88084322Y-106259961D03*
D19*
X90084322Y-106259961D03*
X92084322Y-106259961D03*
X94084322Y-106259961D03*
%TD*%
D10*
%TO.C,H1*%
X85784322Y-102309961D03*
%TD*%
D13*
%TO.C,H11*%
X142784311Y-54309970D03*
%TD*%
D18*
%TO.C,J2*%
X158084341Y-36260000D03*
D19*
X160084341Y-36260000D03*
X162084341Y-36260000D03*
X164084341Y-36260000D03*
%TD*%
D16*
%TO.C,SERVO6*%
X128271866Y-36223192D03*
D17*
X126475815Y-38019243D03*
X124679764Y-39815294D03*
%TD*%
D16*
%TO.C,SERVO8*%
X93271866Y-71223192D03*
D17*
X91475815Y-73019243D03*
X89679764Y-74815294D03*
%TD*%
D12*
%TO.C,R5*%
X93250000Y-45786066D03*
X94540470Y-47076536D03*
%TD*%
D18*
%TO.C,J2*%
X123050000Y-106260000D03*
D19*
X125050000Y-106260000D03*
X127050000Y-106260000D03*
X129050000Y-106260000D03*
%TD*%
D13*
%TO.C,H1*%
X122784324Y-69309940D03*
%TD*%
D10*
%TO.C,H2*%
X85784322Y-112309961D03*
%TD*%
D11*
%TO.C,BLDC4*%
X90359701Y-48199068D03*
%TD*%
%TO.C,BLDC10*%
X90359701Y-83199068D03*
%TD*%
%TO.C,BLDC12*%
X105385720Y-75597670D03*
%TD*%
D13*
%TO.C,H4*%
X142784330Y-69309940D03*
%TD*%
D15*
%TO.C,R6*%
X130954683Y-42957639D03*
X129664213Y-44248109D03*
%TD*%
D10*
%TO.C,H1*%
X155784341Y-32310000D03*
%TD*%
D11*
%TO.C,BLDC9*%
X140385720Y-40597670D03*
%TD*%
D14*
%TO.C,SERVO_OK_OUTER4*%
X97448446Y-79292304D03*
X95998878Y-80741872D03*
%TD*%
D16*
%TO.C,SERVO4*%
X93271866Y-36223192D03*
D17*
X91475815Y-38019243D03*
X89679764Y-39815294D03*
%TD*%
D13*
%TO.C,H3*%
X142784330Y-89309946D03*
%TD*%
D14*
%TO.C,SERVO_OK_OUTER2*%
X97448446Y-44292304D03*
X95998878Y-45741872D03*
%TD*%
D15*
%TO.C,R3*%
X95954683Y-42957639D03*
X94664213Y-44248109D03*
%TD*%
D16*
%TO.C,RGBLED8*%
X106075615Y-81625290D03*
D17*
X104279564Y-83421341D03*
X102483513Y-85217392D03*
X100687461Y-87013444D03*
%TD*%
D10*
%TO.C,H2*%
X155784341Y-42310000D03*
%TD*%
%TO.C,H4*%
X95784322Y-102309961D03*
%TD*%
D13*
%TO.C,H5*%
X87784333Y-34309992D03*
%TD*%
%TO.C,H8*%
X107784311Y-34309992D03*
%TD*%
D11*
%TO.C,BLDC8*%
X136673409Y-36885360D03*
%TD*%
D13*
%TO.C,H7*%
X107784311Y-54309970D03*
%TD*%
D11*
%TO.C,BLDC11*%
X101673409Y-71885360D03*
%TD*%
D13*
%TO.C,H15*%
X107784311Y-89309970D03*
%TD*%
%TO.C,H12*%
X142784311Y-34309992D03*
%TD*%
%TO.C,H6*%
X87784333Y-54309970D03*
%TD*%
D10*
%TO.C,H3*%
X165784341Y-42310000D03*
%TD*%
D20*
%TO.C,J1*%
X124695491Y-80710480D03*
D21*
X126109705Y-79296266D03*
X127523918Y-77882053D03*
X128938132Y-76467839D03*
X130352345Y-75053626D03*
X131766559Y-73639412D03*
X133180772Y-72225199D03*
X134594986Y-70810985D03*
%TD*%
D10*
%TO.C,H4*%
X165784341Y-32310000D03*
%TD*%
D13*
%TO.C,H9*%
X122784333Y-34309992D03*
%TD*%
D11*
%TO.C,BLDC7*%
X125359701Y-48199068D03*
%TD*%
D16*
%TO.C,RGBLED4*%
X106075615Y-46625290D03*
D17*
X104279564Y-48421341D03*
X102483513Y-50217392D03*
X100687461Y-52013444D03*
%TD*%
D13*
%TO.C,H16*%
X107784311Y-69309992D03*
%TD*%
D10*
%TO.C,H2*%
X120750000Y-112310000D03*
%TD*%
%TO.C,H4*%
X130750000Y-102310000D03*
%TD*%
D22*
%TO.C,RGBLED3*%
X102158243Y-44532254D03*
D23*
X100390476Y-46300021D03*
X98622709Y-48067788D03*
X96854942Y-49835555D03*
%TD*%
D18*
%TO.C,J1*%
X158084341Y-38510000D03*
D19*
X160084341Y-38510000D03*
X162084341Y-38510000D03*
X164084341Y-38510000D03*
%TD*%
D22*
%TO.C,SERVO3*%
X96564653Y-39537010D03*
D23*
X94796886Y-41304777D03*
X93029119Y-43072544D03*
%TD*%
D22*
%TO.C,RGBLED7*%
X102158243Y-79532254D03*
D23*
X100390476Y-81300021D03*
X98622709Y-83067788D03*
X96854942Y-84835555D03*
%TD*%
D22*
%TO.C,SERVO5*%
X131564653Y-39537010D03*
D23*
X129796886Y-41304777D03*
X128029119Y-43072544D03*
%TD*%
D22*
%TO.C,RGBLED5*%
X137158243Y-44532254D03*
D23*
X135390476Y-46300021D03*
X133622709Y-48067788D03*
X131854942Y-49835555D03*
%TD*%
D24*
%TO.C,J2*%
X135330377Y-74671788D03*
D25*
X137126428Y-76467839D03*
X133534326Y-76467839D03*
X135330377Y-78263890D03*
X131738275Y-78263890D03*
X133534326Y-80059942D03*
X129942223Y-80059942D03*
X131738275Y-81855993D03*
X128146172Y-81855993D03*
X129942223Y-83652044D03*
%TD*%
D18*
%TO.C,J1*%
X123050000Y-108510000D03*
D19*
X125050000Y-108510000D03*
X127050000Y-108510000D03*
X129050000Y-108510000D03*
%TD*%
D18*
%TO.C,J1*%
X88084322Y-108509961D03*
D19*
X90084322Y-108509961D03*
X92084322Y-108509961D03*
X94084322Y-108509961D03*
%TD*%
D22*
%TO.C,SERVO7*%
X96564653Y-74537010D03*
D23*
X94796886Y-76304777D03*
X93029119Y-78072544D03*
%TD*%
D10*
%TO.C,H1*%
X155784325Y-67309950D03*
%TD*%
%TO.C,H3*%
X165784325Y-77309950D03*
%TD*%
%TO.C,H2*%
X155784325Y-77309950D03*
%TD*%
%TO.C,H4*%
X165784325Y-67309950D03*
%TD*%
D18*
%TO.C,J2*%
X158084325Y-71259950D03*
D19*
X160084325Y-71259950D03*
X162084325Y-71259950D03*
X164084325Y-71259950D03*
%TD*%
D18*
%TO.C,J1*%
X158084325Y-73509950D03*
D19*
X160084325Y-73509950D03*
X162084325Y-73509950D03*
X164084325Y-73509950D03*
%TD*%
D26*
%TO.C,J2*%
X165114325Y-101019950D03*
D27*
X165114325Y-103559950D03*
X162574325Y-101019950D03*
X162574325Y-103559950D03*
X160034325Y-101019950D03*
X160034325Y-103559950D03*
X157494325Y-101019950D03*
X157494325Y-103559950D03*
X154954325Y-101019950D03*
X154954325Y-103559950D03*
%TD*%
D28*
%TO.C,J1*%
X156384325Y-93499950D03*
X157404325Y-90959950D03*
X158424325Y-93499950D03*
X159444325Y-90959950D03*
X160464325Y-93499950D03*
X161484325Y-90959950D03*
X162504325Y-93499950D03*
X163524325Y-90959950D03*
D29*
X168074325Y-93499950D03*
X151834325Y-93499950D03*
%TD*%
M02*
