M48
; DRILL file {KiCad 9.0.3} date 2025-07-31T21:15:47+0900
; FORMAT={-:-/ absolute / inch / decimal}
; #@! TF.CreationDate,2025-07-31T21:15:47+09:00
; #@! TF.GenerationSoftware,Kicad,Pcbnew,9.0.3
; #@! TF.FileFunction,Plated,1,2,PTH
FMAT,2
INCH
; #@! TA.AperFunction,Plated,PTH,ComponentDrill
T1C0.0236
; #@! TA.AperFunction,Plated,PTH,ComponentDrill
T2C0.0669
; #@! TA.AperFunction,Plated,PTH,ComponentDrill
T3C0.1772
; #@! TA.AperFunction,Plated,PTH,ComponentDrill
T4C0.2441
%
G90
G05
T1
X2.3548Y-2.6541
X2.3937Y-2.5601
X2.3937Y-2.748
X2.4877Y-2.5212
X2.4877Y-2.7869
X2.5816Y-2.5601
X2.5816Y-2.748
X2.6205Y-2.6541
X2.9768Y-2.6462
X3.0157Y-2.5522
X3.0157Y-2.7402
X3.1097Y-2.5133
X3.1097Y-2.7791
X3.2037Y-2.5522
X3.2037Y-2.7402
X3.2426Y-2.6462
T2
X2.4811Y-3.2923
X2.637Y-3.2923
T3
X2.4877Y-2.6541
X3.1097Y-2.6462
T4
X1.6535Y-2.2293
X2.0571Y-1.624
X2.0866Y-2.2293
X2.4902Y-1.624
X3.0413Y-1.624
X3.4744Y-1.624
X3.5039Y-2.19
X3.937Y-2.19
M30
