%TF.GenerationSoftware,KiCad,Pcbnew,9.0.3*%
%TF.CreationDate,2025-07-31T21:15:47+09:00*%
%TF.ProjectId,power_circuit,706f7765-725f-4636-9972-637569742e6b,00*%
%TF.SameCoordinates,Original*%
%TF.FileFunction,Copper,L1,Top*%
%TF.FilePolarity,Positive*%
%FSLAX46Y46*%
G04 Gerber Fmt 4.6, Leading zero omitted, Abs format (unit mm)*
G04 Created by KiCad (PCBNEW 9.0.3) date 2025-07-31 21:15:47*
%MOMM*%
%LPD*%
G01*
G04 APERTURE LIST*
G04 Aperture macros list*
%AMRoundRect*
0 Rectangle with rounded corners*
0 $1 Rounding radius*
0 $2 $3 $4 $5 $6 $7 $8 $9 X,Y pos of 4 corners*
0 Add a 4 corners polygon primitive as box body*
4,1,4,$2,$3,$4,$5,$6,$7,$8,$9,$2,$3,0*
0 Add four circle primitives for the rounded corners*
1,1,$1+$1,$2,$3*
1,1,$1+$1,$4,$5*
1,1,$1+$1,$6,$7*
1,1,$1+$1,$8,$9*
0 Add four rect primitives between the rounded corners*
20,1,$1+$1,$2,$3,$4,$5,0*
20,1,$1+$1,$4,$5,$6,$7,0*
20,1,$1+$1,$6,$7,$8,$9,0*
20,1,$1+$1,$8,$9,$2,$3,0*%
G04 Aperture macros list end*
%TA.AperFunction,ComponentPad*%
%ADD10RoundRect,0.250001X-1.099999X-1.099999X1.099999X-1.099999X1.099999X1.099999X-1.099999X1.099999X0*%
%TD*%
%TA.AperFunction,ComponentPad*%
%ADD11C,2.700000*%
%TD*%
%TA.AperFunction,ComponentPad*%
%ADD12C,0.900000*%
%TD*%
%TA.AperFunction,ComponentPad*%
%ADD13C,9.000000*%
%TD*%
G04 APERTURE END LIST*
D10*
%TO.P,J7,1,Pin_1*%
%TO.N,+24V*%
X63020000Y-83625000D03*
D11*
%TO.P,J7,2,Pin_2*%
%TO.N,GND*%
X66980000Y-83625000D03*
%TD*%
D12*
%TO.P,J2,1,Pin_1*%
%TO.N,GND*%
X75611485Y-67213515D03*
X76600000Y-64827030D03*
X76600000Y-69600000D03*
X78986485Y-63838515D03*
D13*
X78986485Y-67213515D03*
D12*
X78986485Y-70588515D03*
X81372970Y-64827030D03*
X81372970Y-69600000D03*
X82361485Y-67213515D03*
%TD*%
%TO.P,J1,1,Pin_1*%
%TO.N,+24V*%
X59811485Y-67413515D03*
X60800000Y-65027030D03*
X60800000Y-69800000D03*
X63186485Y-64038515D03*
D13*
X63186485Y-67413515D03*
D12*
X63186485Y-70788515D03*
X65572970Y-65027030D03*
X65572970Y-69800000D03*
X66561485Y-67413515D03*
%TD*%
D13*
%TO.P,J5,1,1*%
%TO.N,+24V*%
X42000000Y-56625000D03*
%TO.P,J5,2,2*%
%TO.N,GND*%
X53000000Y-56625000D03*
%TD*%
%TO.P,J3,1,1*%
%TO.N,+24V*%
X52250000Y-41250000D03*
%TO.P,J3,2,2*%
%TO.N,GND*%
X63250000Y-41250000D03*
%TD*%
%TO.P,J4,1,1*%
%TO.N,+24V*%
X77250000Y-41250000D03*
%TO.P,J4,2,2*%
%TO.N,GND*%
X88250000Y-41250000D03*
%TD*%
%TO.P,J6,1,1*%
%TO.N,+24V*%
X89000000Y-55625000D03*
%TO.P,J6,2,2*%
%TO.N,GND*%
X100000000Y-55625000D03*
%TD*%
%TA.AperFunction,Conductor*%
%TO.N,+24V*%
G36*
X111256280Y-35136177D02*
G01*
X111290474Y-35168883D01*
X111873534Y-35993151D01*
X111875381Y-35995836D01*
X112611678Y-37097021D01*
X112613454Y-37099754D01*
X113320549Y-38219903D01*
X113322253Y-38222682D01*
X113999693Y-39361077D01*
X114001322Y-39363900D01*
X114648564Y-40519630D01*
X114650083Y-40522427D01*
X115266769Y-41694849D01*
X115268248Y-41697753D01*
X115853910Y-42885984D01*
X115855312Y-42888927D01*
X116409498Y-44092051D01*
X116410823Y-44095029D01*
X116933219Y-45312352D01*
X116934465Y-45315364D01*
X117424683Y-46545989D01*
X117425849Y-46549032D01*
X117883549Y-47792105D01*
X117884635Y-47795178D01*
X118309520Y-49049893D01*
X118310524Y-49052994D01*
X118702264Y-50318376D01*
X118703187Y-50321502D01*
X119061537Y-51596756D01*
X119062378Y-51599905D01*
X119387101Y-52884189D01*
X119387858Y-52887359D01*
X119678703Y-54179682D01*
X119679377Y-54182871D01*
X119936159Y-55482411D01*
X119936749Y-55485617D01*
X120159289Y-56791468D01*
X120159794Y-56794688D01*
X120347936Y-58105943D01*
X120348356Y-58109174D01*
X120421553Y-58736120D01*
X120409776Y-58804990D01*
X120362634Y-58856560D01*
X120298390Y-58874500D01*
X107434108Y-58874500D01*
X107306812Y-58908608D01*
X107192686Y-58974500D01*
X107192683Y-58974502D01*
X107099502Y-59067683D01*
X107099500Y-59067686D01*
X107033608Y-59181812D01*
X106999500Y-59309108D01*
X106999500Y-69940891D01*
X107033608Y-70068187D01*
X107066554Y-70125250D01*
X107099500Y-70182314D01*
X107192686Y-70275500D01*
X107306814Y-70341392D01*
X107434108Y-70375500D01*
X107434110Y-70375500D01*
X107617246Y-70375500D01*
X107617255Y-70375499D01*
X120298047Y-70375499D01*
X120365086Y-70395184D01*
X120410841Y-70447988D01*
X120421203Y-70513939D01*
X120341936Y-71189999D01*
X120341497Y-71193352D01*
X120144315Y-72553338D01*
X120143784Y-72556677D01*
X119909605Y-73910739D01*
X119908984Y-73914062D01*
X119637964Y-75261271D01*
X119637252Y-75264577D01*
X119329601Y-76603898D01*
X119328799Y-76607182D01*
X118984755Y-77937583D01*
X118983864Y-77940845D01*
X118603664Y-79261408D01*
X118602684Y-79264644D01*
X118186624Y-80574338D01*
X118185556Y-80577546D01*
X117733958Y-81875364D01*
X117732804Y-81878542D01*
X117245966Y-83163619D01*
X117244725Y-83166764D01*
X116723038Y-84438077D01*
X116721712Y-84441188D01*
X116165549Y-85697818D01*
X116164138Y-85700891D01*
X115573942Y-86941842D01*
X115572449Y-86944875D01*
X114948617Y-88169317D01*
X114947041Y-88172309D01*
X114290055Y-89379289D01*
X114288398Y-89382236D01*
X113598754Y-90570843D01*
X113597017Y-90573744D01*
X112875236Y-91743084D01*
X112873421Y-91745937D01*
X112120011Y-92895186D01*
X112118119Y-92897988D01*
X111333660Y-94026261D01*
X111331692Y-94029011D01*
X110516747Y-95135496D01*
X110514705Y-95138190D01*
X109669943Y-96221983D01*
X109667829Y-96224622D01*
X108793759Y-97285066D01*
X108791573Y-97287645D01*
X107888952Y-98323821D01*
X107886696Y-98326340D01*
X106956182Y-99337497D01*
X106953859Y-99339954D01*
X105996070Y-100325418D01*
X105993680Y-100327810D01*
X105009432Y-101286740D01*
X105006979Y-101289066D01*
X103996914Y-102220838D01*
X103994398Y-102223097D01*
X102959309Y-103126978D01*
X102956758Y-103129146D01*
X101897396Y-104004483D01*
X101894760Y-104006601D01*
X100811952Y-104852706D01*
X100809260Y-104854751D01*
X99703762Y-105671037D01*
X99701014Y-105673008D01*
X98573736Y-106458804D01*
X98570937Y-106460700D01*
X97422559Y-107215531D01*
X97419708Y-107217349D01*
X96251243Y-107940547D01*
X96248344Y-107942287D01*
X95060587Y-108633364D01*
X95057641Y-108635025D01*
X93851459Y-109293471D01*
X93848470Y-109295050D01*
X92624815Y-109920352D01*
X92621783Y-109921850D01*
X91381503Y-110513569D01*
X91378432Y-110514983D01*
X90222713Y-111028160D01*
X90177872Y-111038709D01*
X88879981Y-111096135D01*
X88812137Y-111079433D01*
X88764093Y-111028703D01*
X88750500Y-110972256D01*
X88750500Y-99559110D01*
X88750500Y-99559108D01*
X88716392Y-99431814D01*
X88650500Y-99317686D01*
X88557314Y-99224500D01*
X88500250Y-99191554D01*
X88443187Y-99158608D01*
X88379539Y-99141554D01*
X88315892Y-99124500D01*
X52315892Y-99124500D01*
X52184108Y-99124500D01*
X52056812Y-99158608D01*
X51942686Y-99224500D01*
X51942683Y-99224502D01*
X51849502Y-99317683D01*
X51849500Y-99317686D01*
X51783608Y-99431812D01*
X51749500Y-99559108D01*
X51749500Y-110947551D01*
X51729815Y-111014590D01*
X51677011Y-111060345D01*
X51625500Y-111071551D01*
X50404210Y-111071551D01*
X50354103Y-111060976D01*
X49207676Y-110554530D01*
X49204597Y-110553119D01*
X47961017Y-109962648D01*
X47957977Y-109961154D01*
X46730948Y-109336915D01*
X46727950Y-109335338D01*
X45518439Y-108677822D01*
X45515486Y-108676164D01*
X45444502Y-108635025D01*
X45104858Y-108438182D01*
X44324388Y-107985856D01*
X44321480Y-107984117D01*
X43532708Y-107497724D01*
X43149662Y-107261521D01*
X43146842Y-107259728D01*
X41995225Y-106505411D01*
X41992417Y-106503517D01*
X40861800Y-105718004D01*
X40859045Y-105716033D01*
X40255855Y-105272047D01*
X39750341Y-104899956D01*
X39747682Y-104897943D01*
X39098169Y-104391934D01*
X38661636Y-104051849D01*
X38658993Y-104049731D01*
X37596526Y-103174342D01*
X37593941Y-103172153D01*
X36555709Y-102268008D01*
X36553219Y-102265778D01*
X35540125Y-101333660D01*
X35537675Y-101331344D01*
X34720271Y-100536970D01*
X34550347Y-100371833D01*
X34548002Y-100369490D01*
X33634449Y-99431812D01*
X33587323Y-99383441D01*
X33584992Y-99380983D01*
X32651573Y-98369030D01*
X32649311Y-98366509D01*
X31743915Y-97329474D01*
X31741722Y-97326892D01*
X30928518Y-96342422D01*
X30864935Y-96265447D01*
X30862877Y-96262885D01*
X30015440Y-95177927D01*
X30013401Y-95175243D01*
X29985062Y-95136844D01*
X29203337Y-94077599D01*
X29195904Y-94067527D01*
X29193930Y-94064774D01*
X28407015Y-92935172D01*
X28405117Y-92932366D01*
X27649349Y-91781689D01*
X27647529Y-91778833D01*
X26923483Y-90607959D01*
X26921741Y-90605054D01*
X26901856Y-90570843D01*
X26229944Y-89414835D01*
X26228282Y-89411884D01*
X26162526Y-89291287D01*
X25569234Y-88203176D01*
X25567666Y-88200205D01*
X25553430Y-88172309D01*
X24941873Y-86973934D01*
X24940388Y-86970922D01*
X24348325Y-85728022D01*
X24346956Y-85725044D01*
X23789049Y-84466404D01*
X23787755Y-84463376D01*
X23393372Y-83503711D01*
X65129500Y-83503711D01*
X65129500Y-83746288D01*
X65161161Y-83986785D01*
X65223947Y-84221104D01*
X65314469Y-84439643D01*
X65316776Y-84445212D01*
X65438064Y-84655289D01*
X65438066Y-84655292D01*
X65438067Y-84655293D01*
X65585733Y-84847736D01*
X65585739Y-84847743D01*
X65757256Y-85019260D01*
X65757262Y-85019265D01*
X65949711Y-85166936D01*
X66159788Y-85288224D01*
X66383900Y-85381054D01*
X66618211Y-85443838D01*
X66798586Y-85467584D01*
X66858711Y-85475500D01*
X66858712Y-85475500D01*
X67101289Y-85475500D01*
X67149388Y-85469167D01*
X67341789Y-85443838D01*
X67576100Y-85381054D01*
X67800212Y-85288224D01*
X68010289Y-85166936D01*
X68202738Y-85019265D01*
X68374265Y-84847738D01*
X68521936Y-84655289D01*
X68643224Y-84445212D01*
X68736054Y-84221100D01*
X68798838Y-83986789D01*
X68830500Y-83746288D01*
X68830500Y-83503712D01*
X68798838Y-83263211D01*
X68736054Y-83028900D01*
X68643224Y-82804788D01*
X68521936Y-82594711D01*
X68374265Y-82402262D01*
X68374260Y-82402256D01*
X68202743Y-82230739D01*
X68202736Y-82230733D01*
X68010293Y-82083067D01*
X68010292Y-82083066D01*
X68010289Y-82083064D01*
X67800212Y-81961776D01*
X67800205Y-81961773D01*
X67576104Y-81868947D01*
X67341785Y-81806161D01*
X67101289Y-81774500D01*
X67101288Y-81774500D01*
X66858712Y-81774500D01*
X66858711Y-81774500D01*
X66618214Y-81806161D01*
X66383895Y-81868947D01*
X66159794Y-81961773D01*
X66159785Y-81961777D01*
X65949706Y-82083067D01*
X65757263Y-82230733D01*
X65757256Y-82230739D01*
X65585739Y-82402256D01*
X65585733Y-82402263D01*
X65438067Y-82594706D01*
X65316777Y-82804785D01*
X65316773Y-82804794D01*
X65223947Y-83028895D01*
X65161161Y-83263214D01*
X65129500Y-83503711D01*
X23393372Y-83503711D01*
X23264429Y-83189950D01*
X23263185Y-83186800D01*
X22965551Y-82402263D01*
X22774855Y-81899605D01*
X22773716Y-81896472D01*
X22766361Y-81875364D01*
X22320738Y-80596448D01*
X22319684Y-80593286D01*
X21902358Y-79281293D01*
X21901412Y-79278170D01*
X21520074Y-77955251D01*
X21519186Y-77952000D01*
X21515454Y-77937583D01*
X21174146Y-76619242D01*
X21173359Y-76616023D01*
X20864843Y-75274300D01*
X20864146Y-75271067D01*
X20592396Y-73921431D01*
X20591785Y-73918172D01*
X20356998Y-72561595D01*
X20356466Y-72558249D01*
X20158829Y-71195828D01*
X20158389Y-71192470D01*
X20157449Y-71184458D01*
X20092020Y-70626533D01*
X20078816Y-70513943D01*
X20090558Y-70445067D01*
X20137673Y-70393473D01*
X20201972Y-70375500D01*
X33065890Y-70375500D01*
X33065892Y-70375500D01*
X33193186Y-70341392D01*
X33307314Y-70275500D01*
X33400500Y-70182314D01*
X33466392Y-70068186D01*
X33500500Y-69940892D01*
X33500500Y-66995184D01*
X73985985Y-66995184D01*
X73985985Y-67431845D01*
X74024042Y-67866835D01*
X74024042Y-67866839D01*
X74099864Y-68296842D01*
X74099868Y-68296859D01*
X74212877Y-68718620D01*
X74362225Y-69128949D01*
X74362231Y-69128964D01*
X74546757Y-69524679D01*
X74546765Y-69524695D01*
X74637478Y-69681814D01*
X74765088Y-69902841D01*
X74765092Y-69902847D01*
X74765099Y-69902858D01*
X75015542Y-70260528D01*
X75218415Y-70502302D01*
X75296217Y-70595022D01*
X75604978Y-70903783D01*
X75744057Y-71020484D01*
X75939471Y-71184457D01*
X76297141Y-71434900D01*
X76297148Y-71434904D01*
X76297159Y-71434912D01*
X76675311Y-71653238D01*
X76675320Y-71653242D01*
X77071035Y-71837768D01*
X77071040Y-71837770D01*
X77071053Y-71837776D01*
X77481373Y-71987120D01*
X77481374Y-71987120D01*
X77481379Y-71987122D01*
X77597903Y-72018344D01*
X77903148Y-72100134D01*
X78333167Y-72175958D01*
X78768156Y-72214014D01*
X78768157Y-72214015D01*
X78768158Y-72214015D01*
X79204813Y-72214015D01*
X79204813Y-72214014D01*
X79639803Y-72175958D01*
X80069822Y-72100134D01*
X80491597Y-71987120D01*
X80901917Y-71837776D01*
X81297659Y-71653238D01*
X81675811Y-71434912D01*
X82033497Y-71184458D01*
X82367992Y-70903783D01*
X82676753Y-70595022D01*
X82957428Y-70260527D01*
X83207882Y-69902841D01*
X83426208Y-69524689D01*
X83610746Y-69128947D01*
X83760090Y-68718627D01*
X83873104Y-68296852D01*
X83948928Y-67866833D01*
X83986985Y-67431842D01*
X83986985Y-66995188D01*
X83948928Y-66560197D01*
X83873104Y-66130178D01*
X83760090Y-65708403D01*
X83610746Y-65298083D01*
X83426208Y-64902341D01*
X83207882Y-64524189D01*
X83207874Y-64524178D01*
X83207870Y-64524171D01*
X82957427Y-64166501D01*
X82676750Y-63832005D01*
X82367994Y-63523249D01*
X82033498Y-63242572D01*
X81675828Y-62992129D01*
X81675817Y-62992122D01*
X81675811Y-62992118D01*
X81563463Y-62927254D01*
X81297665Y-62773795D01*
X81297649Y-62773787D01*
X80901934Y-62589261D01*
X80901919Y-62589255D01*
X80901917Y-62589254D01*
X80747786Y-62533155D01*
X80491590Y-62439907D01*
X80069829Y-62326898D01*
X80069832Y-62326898D01*
X80069822Y-62326896D01*
X80069816Y-62326894D01*
X80069812Y-62326894D01*
X79639807Y-62251072D01*
X79204815Y-62213015D01*
X79204812Y-62213015D01*
X78768158Y-62213015D01*
X78768154Y-62213015D01*
X78333164Y-62251072D01*
X78333160Y-62251072D01*
X77903157Y-62326894D01*
X77903140Y-62326898D01*
X77481379Y-62439907D01*
X77071050Y-62589255D01*
X77071035Y-62589261D01*
X76675320Y-62773787D01*
X76675304Y-62773795D01*
X76297167Y-62992113D01*
X76297141Y-62992129D01*
X75939471Y-63242572D01*
X75604975Y-63523249D01*
X75296219Y-63832005D01*
X75015542Y-64166501D01*
X74765099Y-64524171D01*
X74765083Y-64524197D01*
X74546765Y-64902334D01*
X74546757Y-64902350D01*
X74362231Y-65298065D01*
X74362225Y-65298080D01*
X74212877Y-65708409D01*
X74099868Y-66130170D01*
X74099864Y-66130187D01*
X74024042Y-66560190D01*
X74024042Y-66560194D01*
X73985985Y-66995184D01*
X33500500Y-66995184D01*
X33500500Y-59309108D01*
X33466392Y-59181814D01*
X33400500Y-59067686D01*
X33307314Y-58974500D01*
X33240914Y-58936164D01*
X33193187Y-58908608D01*
X33129539Y-58891554D01*
X33065892Y-58874500D01*
X33065891Y-58874500D01*
X20201609Y-58874500D01*
X20134570Y-58854815D01*
X20088815Y-58802011D01*
X20078446Y-58736121D01*
X20101291Y-58540449D01*
X20151646Y-58109143D01*
X20152062Y-58105943D01*
X20176421Y-57936174D01*
X20340213Y-56794624D01*
X20340697Y-56791542D01*
X20406286Y-56406669D01*
X47999500Y-56406669D01*
X47999500Y-56843330D01*
X48037557Y-57278320D01*
X48037557Y-57278324D01*
X48113379Y-57708327D01*
X48113383Y-57708344D01*
X48226392Y-58130105D01*
X48375740Y-58540434D01*
X48375746Y-58540449D01*
X48560272Y-58936164D01*
X48560280Y-58936180D01*
X48636205Y-59067686D01*
X48778603Y-59314326D01*
X48778607Y-59314332D01*
X48778614Y-59314343D01*
X49029057Y-59672013D01*
X49175387Y-59846401D01*
X49309732Y-60006507D01*
X49618493Y-60315268D01*
X49757572Y-60431969D01*
X49952986Y-60595942D01*
X50310656Y-60846385D01*
X50310663Y-60846389D01*
X50310674Y-60846397D01*
X50688826Y-61064723D01*
X50688835Y-61064727D01*
X51084550Y-61249253D01*
X51084555Y-61249255D01*
X51084568Y-61249261D01*
X51494888Y-61398605D01*
X51494889Y-61398605D01*
X51494894Y-61398607D01*
X51627398Y-61434110D01*
X51916663Y-61511619D01*
X52346682Y-61587443D01*
X52781671Y-61625499D01*
X52781672Y-61625500D01*
X52781673Y-61625500D01*
X53218328Y-61625500D01*
X53218328Y-61625499D01*
X53653318Y-61587443D01*
X54083337Y-61511619D01*
X54505112Y-61398605D01*
X54915432Y-61249261D01*
X55311174Y-61064723D01*
X55689326Y-60846397D01*
X56047012Y-60595943D01*
X56381507Y-60315268D01*
X56690268Y-60006507D01*
X56970943Y-59672012D01*
X57221397Y-59314326D01*
X57439723Y-58936174D01*
X57624261Y-58540432D01*
X57773605Y-58130112D01*
X57886619Y-57708337D01*
X57962443Y-57278318D01*
X58000500Y-56843327D01*
X58000500Y-56406673D01*
X57962443Y-55971682D01*
X57961952Y-55968900D01*
X57939811Y-55843327D01*
X57886619Y-55541663D01*
X57850449Y-55406673D01*
X57850448Y-55406669D01*
X94999500Y-55406669D01*
X94999500Y-55843330D01*
X95037557Y-56278320D01*
X95037557Y-56278324D01*
X95113379Y-56708327D01*
X95113383Y-56708344D01*
X95226392Y-57130105D01*
X95375740Y-57540434D01*
X95375746Y-57540449D01*
X95560272Y-57936164D01*
X95560280Y-57936180D01*
X95660159Y-58109175D01*
X95778603Y-58314326D01*
X95778607Y-58314332D01*
X95778614Y-58314343D01*
X96029057Y-58672013D01*
X96138139Y-58802011D01*
X96309732Y-59006507D01*
X96618493Y-59315268D01*
X96757572Y-59431969D01*
X96952986Y-59595942D01*
X97310656Y-59846385D01*
X97310663Y-59846389D01*
X97310674Y-59846397D01*
X97688826Y-60064723D01*
X97688835Y-60064727D01*
X98084550Y-60249253D01*
X98084555Y-60249255D01*
X98084568Y-60249261D01*
X98494888Y-60398605D01*
X98494889Y-60398605D01*
X98494894Y-60398607D01*
X98627398Y-60434110D01*
X98916663Y-60511619D01*
X99346682Y-60587443D01*
X99781671Y-60625499D01*
X99781672Y-60625500D01*
X99781673Y-60625500D01*
X100218328Y-60625500D01*
X100218328Y-60625499D01*
X100653318Y-60587443D01*
X101083337Y-60511619D01*
X101505112Y-60398605D01*
X101915432Y-60249261D01*
X102311174Y-60064723D01*
X102689326Y-59846397D01*
X103047012Y-59595943D01*
X103381507Y-59315268D01*
X103690268Y-59006507D01*
X103970943Y-58672012D01*
X104221397Y-58314326D01*
X104439723Y-57936174D01*
X104624261Y-57540432D01*
X104773605Y-57130112D01*
X104886619Y-56708337D01*
X104962443Y-56278318D01*
X105000500Y-55843327D01*
X105000500Y-55406673D01*
X104962443Y-54971682D01*
X104886619Y-54541663D01*
X104773605Y-54119888D01*
X104624261Y-53709568D01*
X104439723Y-53313826D01*
X104221397Y-52935674D01*
X104221389Y-52935663D01*
X104221385Y-52935656D01*
X103970942Y-52577986D01*
X103690265Y-52243490D01*
X103381509Y-51934734D01*
X103047013Y-51654057D01*
X102689343Y-51403614D01*
X102689332Y-51403607D01*
X102689326Y-51403603D01*
X102576978Y-51338739D01*
X102311180Y-51185280D01*
X102311164Y-51185272D01*
X101915449Y-51000746D01*
X101915434Y-51000740D01*
X101915432Y-51000739D01*
X101761301Y-50944640D01*
X101505105Y-50851392D01*
X101083344Y-50738383D01*
X101083347Y-50738383D01*
X101083337Y-50738381D01*
X101083331Y-50738379D01*
X101083327Y-50738379D01*
X100653322Y-50662557D01*
X100218330Y-50624500D01*
X100218327Y-50624500D01*
X99781673Y-50624500D01*
X99781669Y-50624500D01*
X99346679Y-50662557D01*
X99346675Y-50662557D01*
X98916672Y-50738379D01*
X98916655Y-50738383D01*
X98494894Y-50851392D01*
X98084565Y-51000740D01*
X98084550Y-51000746D01*
X97688835Y-51185272D01*
X97688819Y-51185280D01*
X97310682Y-51403598D01*
X97310656Y-51403614D01*
X96952986Y-51654057D01*
X96618490Y-51934734D01*
X96309734Y-52243490D01*
X96029057Y-52577986D01*
X95778614Y-52935656D01*
X95778598Y-52935682D01*
X95560280Y-53313819D01*
X95560272Y-53313835D01*
X95375746Y-53709550D01*
X95375740Y-53709565D01*
X95226392Y-54119894D01*
X95113383Y-54541655D01*
X95113379Y-54541672D01*
X95037557Y-54971675D01*
X95037557Y-54971679D01*
X94999500Y-55406669D01*
X57850448Y-55406669D01*
X57773607Y-55119894D01*
X57773605Y-55119888D01*
X57624261Y-54709568D01*
X57590375Y-54636900D01*
X57439727Y-54313835D01*
X57439719Y-54313819D01*
X57364116Y-54182871D01*
X57221397Y-53935674D01*
X57221389Y-53935663D01*
X57221385Y-53935656D01*
X56970942Y-53577986D01*
X56749284Y-53313826D01*
X56690268Y-53243493D01*
X56381507Y-52934732D01*
X56288787Y-52856930D01*
X56047013Y-52654057D01*
X55689343Y-52403614D01*
X55689332Y-52403607D01*
X55689326Y-52403603D01*
X55576978Y-52338739D01*
X55311180Y-52185280D01*
X55311164Y-52185272D01*
X54915449Y-52000746D01*
X54915434Y-52000740D01*
X54915432Y-52000739D01*
X54761301Y-51944640D01*
X54505105Y-51851392D01*
X54083344Y-51738383D01*
X54083347Y-51738383D01*
X54083337Y-51738381D01*
X54083331Y-51738379D01*
X54083327Y-51738379D01*
X53653322Y-51662557D01*
X53218330Y-51624500D01*
X53218327Y-51624500D01*
X52781673Y-51624500D01*
X52781669Y-51624500D01*
X52346679Y-51662557D01*
X52346675Y-51662557D01*
X51916672Y-51738379D01*
X51916655Y-51738383D01*
X51494894Y-51851392D01*
X51084565Y-52000740D01*
X51084550Y-52000746D01*
X50688835Y-52185272D01*
X50688819Y-52185280D01*
X50310682Y-52403598D01*
X50310656Y-52403614D01*
X49952986Y-52654057D01*
X49618490Y-52934734D01*
X49309734Y-53243490D01*
X49029057Y-53577986D01*
X48778614Y-53935656D01*
X48778598Y-53935682D01*
X48560280Y-54313819D01*
X48560272Y-54313835D01*
X48375746Y-54709550D01*
X48375740Y-54709565D01*
X48226392Y-55119894D01*
X48113383Y-55541655D01*
X48113379Y-55541672D01*
X48037557Y-55971675D01*
X48037557Y-55971679D01*
X47999500Y-56406669D01*
X20406286Y-56406669D01*
X20563253Y-55485592D01*
X20563839Y-55482411D01*
X20572998Y-55436060D01*
X20820630Y-54182825D01*
X20821285Y-54179728D01*
X21112151Y-52887309D01*
X21112884Y-52884239D01*
X21437621Y-51599900D01*
X21438461Y-51596756D01*
X21796830Y-50321435D01*
X21797714Y-50318442D01*
X22189496Y-49052923D01*
X22190455Y-49049961D01*
X22615367Y-47795165D01*
X22616449Y-47792105D01*
X23074156Y-46549012D01*
X23075315Y-46545989D01*
X23238387Y-46136619D01*
X23565551Y-45315317D01*
X23566779Y-45312352D01*
X24089179Y-44095017D01*
X24090500Y-44092050D01*
X24644727Y-42888839D01*
X24646047Y-42886068D01*
X25231766Y-41697718D01*
X25233222Y-41694863D01*
X25582057Y-41031669D01*
X58249500Y-41031669D01*
X58249500Y-41468330D01*
X58287557Y-41903320D01*
X58287557Y-41903324D01*
X58363379Y-42333327D01*
X58363383Y-42333344D01*
X58476392Y-42755105D01*
X58625740Y-43165434D01*
X58625746Y-43165449D01*
X58810272Y-43561164D01*
X58810277Y-43561174D01*
X59028603Y-43939326D01*
X59028607Y-43939332D01*
X59028614Y-43939343D01*
X59279057Y-44297013D01*
X59481930Y-44538787D01*
X59559732Y-44631507D01*
X59868493Y-44940268D01*
X60007572Y-45056969D01*
X60202986Y-45220942D01*
X60560656Y-45471385D01*
X60560663Y-45471389D01*
X60560674Y-45471397D01*
X60938826Y-45689723D01*
X60938835Y-45689727D01*
X61334550Y-45874253D01*
X61334555Y-45874255D01*
X61334568Y-45874261D01*
X61744888Y-46023605D01*
X61744889Y-46023605D01*
X61744894Y-46023607D01*
X61877398Y-46059110D01*
X62166663Y-46136619D01*
X62596682Y-46212443D01*
X63031671Y-46250499D01*
X63031672Y-46250500D01*
X63031673Y-46250500D01*
X63468328Y-46250500D01*
X63468328Y-46250499D01*
X63903318Y-46212443D01*
X64333337Y-46136619D01*
X64755112Y-46023605D01*
X65165432Y-45874261D01*
X65561174Y-45689723D01*
X65939326Y-45471397D01*
X66297012Y-45220943D01*
X66631507Y-44940268D01*
X66940268Y-44631507D01*
X67220943Y-44297012D01*
X67471397Y-43939326D01*
X67689723Y-43561174D01*
X67874261Y-43165432D01*
X68023605Y-42755112D01*
X68136619Y-42333337D01*
X68212443Y-41903318D01*
X68250500Y-41468327D01*
X68250500Y-41031673D01*
X68250500Y-41031669D01*
X83249500Y-41031669D01*
X83249500Y-41468330D01*
X83287557Y-41903320D01*
X83287557Y-41903324D01*
X83363379Y-42333327D01*
X83363383Y-42333344D01*
X83476392Y-42755105D01*
X83625740Y-43165434D01*
X83625746Y-43165449D01*
X83810272Y-43561164D01*
X83810277Y-43561174D01*
X84028603Y-43939326D01*
X84028607Y-43939332D01*
X84028614Y-43939343D01*
X84279057Y-44297013D01*
X84481930Y-44538787D01*
X84559732Y-44631507D01*
X84868493Y-44940268D01*
X85007572Y-45056969D01*
X85202986Y-45220942D01*
X85560656Y-45471385D01*
X85560663Y-45471389D01*
X85560674Y-45471397D01*
X85938826Y-45689723D01*
X85938835Y-45689727D01*
X86334550Y-45874253D01*
X86334555Y-45874255D01*
X86334568Y-45874261D01*
X86744888Y-46023605D01*
X86744889Y-46023605D01*
X86744894Y-46023607D01*
X86877398Y-46059110D01*
X87166663Y-46136619D01*
X87596682Y-46212443D01*
X88031671Y-46250499D01*
X88031672Y-46250500D01*
X88031673Y-46250500D01*
X88468328Y-46250500D01*
X88468328Y-46250499D01*
X88903318Y-46212443D01*
X89333337Y-46136619D01*
X89755112Y-46023605D01*
X90165432Y-45874261D01*
X90561174Y-45689723D01*
X90939326Y-45471397D01*
X91297012Y-45220943D01*
X91631507Y-44940268D01*
X91940268Y-44631507D01*
X92220943Y-44297012D01*
X92471397Y-43939326D01*
X92689723Y-43561174D01*
X92874261Y-43165432D01*
X93023605Y-42755112D01*
X93136619Y-42333337D01*
X93212443Y-41903318D01*
X93250500Y-41468327D01*
X93250500Y-41031673D01*
X93212443Y-40596682D01*
X93199361Y-40522493D01*
X93190810Y-40473999D01*
X93136619Y-40166663D01*
X93023605Y-39744888D01*
X92874261Y-39334568D01*
X92689723Y-38938826D01*
X92471397Y-38560674D01*
X92471389Y-38560663D01*
X92471385Y-38560656D01*
X92220942Y-38202986D01*
X91940265Y-37868490D01*
X91631509Y-37559734D01*
X91297013Y-37279057D01*
X90939343Y-37028614D01*
X90939332Y-37028607D01*
X90939326Y-37028603D01*
X90826978Y-36963739D01*
X90561180Y-36810280D01*
X90561164Y-36810272D01*
X90165449Y-36625746D01*
X90165434Y-36625740D01*
X90165432Y-36625739D01*
X90011301Y-36569640D01*
X89755105Y-36476392D01*
X89333344Y-36363383D01*
X89333347Y-36363383D01*
X89333337Y-36363381D01*
X89333331Y-36363379D01*
X89333327Y-36363379D01*
X88903322Y-36287557D01*
X88468330Y-36249500D01*
X88468327Y-36249500D01*
X88031673Y-36249500D01*
X88031669Y-36249500D01*
X87596679Y-36287557D01*
X87596675Y-36287557D01*
X87166672Y-36363379D01*
X87166655Y-36363383D01*
X86744894Y-36476392D01*
X86334565Y-36625740D01*
X86334550Y-36625746D01*
X85938835Y-36810272D01*
X85938819Y-36810280D01*
X85560682Y-37028598D01*
X85560656Y-37028614D01*
X85202986Y-37279057D01*
X84868490Y-37559734D01*
X84559734Y-37868490D01*
X84279057Y-38202986D01*
X84028614Y-38560656D01*
X84028598Y-38560682D01*
X83810280Y-38938819D01*
X83810272Y-38938835D01*
X83625746Y-39334550D01*
X83625740Y-39334565D01*
X83476392Y-39744894D01*
X83363383Y-40166655D01*
X83363379Y-40166672D01*
X83287557Y-40596675D01*
X83287557Y-40596679D01*
X83249500Y-41031669D01*
X68250500Y-41031669D01*
X68212443Y-40596682D01*
X68199361Y-40522493D01*
X68190810Y-40473999D01*
X68136619Y-40166663D01*
X68023605Y-39744888D01*
X67874261Y-39334568D01*
X67689723Y-38938826D01*
X67471397Y-38560674D01*
X67471389Y-38560663D01*
X67471385Y-38560656D01*
X67220942Y-38202986D01*
X66940265Y-37868490D01*
X66631509Y-37559734D01*
X66297013Y-37279057D01*
X65939343Y-37028614D01*
X65939332Y-37028607D01*
X65939326Y-37028603D01*
X65826978Y-36963739D01*
X65561180Y-36810280D01*
X65561164Y-36810272D01*
X65165449Y-36625746D01*
X65165434Y-36625740D01*
X65165432Y-36625739D01*
X65011301Y-36569640D01*
X64755105Y-36476392D01*
X64333344Y-36363383D01*
X64333347Y-36363383D01*
X64333337Y-36363381D01*
X64333331Y-36363379D01*
X64333327Y-36363379D01*
X63903322Y-36287557D01*
X63468330Y-36249500D01*
X63468327Y-36249500D01*
X63031673Y-36249500D01*
X63031669Y-36249500D01*
X62596679Y-36287557D01*
X62596675Y-36287557D01*
X62166672Y-36363379D01*
X62166655Y-36363383D01*
X61744894Y-36476392D01*
X61334565Y-36625740D01*
X61334550Y-36625746D01*
X60938835Y-36810272D01*
X60938819Y-36810280D01*
X60560682Y-37028598D01*
X60560656Y-37028614D01*
X60202986Y-37279057D01*
X59868490Y-37559734D01*
X59559734Y-37868490D01*
X59279057Y-38202986D01*
X59028614Y-38560656D01*
X59028598Y-38560682D01*
X58810280Y-38938819D01*
X58810272Y-38938835D01*
X58625746Y-39334550D01*
X58625740Y-39334565D01*
X58476392Y-39744894D01*
X58363383Y-40166655D01*
X58363379Y-40166672D01*
X58287557Y-40596675D01*
X58287557Y-40596679D01*
X58249500Y-41031669D01*
X25582057Y-41031669D01*
X25849945Y-40522368D01*
X25851396Y-40519698D01*
X26498705Y-39363849D01*
X26500278Y-39361123D01*
X27177759Y-38222657D01*
X27179434Y-38219926D01*
X27886567Y-37099718D01*
X27888296Y-37097057D01*
X28624653Y-35995781D01*
X28626428Y-35993202D01*
X29209524Y-35168882D01*
X29264309Y-35125520D01*
X29310756Y-35116492D01*
X111189244Y-35116492D01*
X111256280Y-35136177D01*
G37*
%TD.AperFunction*%
%TD*%
M02*
