0
SECTION
2
HEADER
9
$INSUNITS
70
4
9
$ACADVER
1
AC1014
9
$HANDSEED
5
FFFF
0
ENDSEC
0
SECTION
2
TABLES
0
TABLE
2
VPORT
5
8
100
AcDbSymbolTable
0
ENDTAB
0
TABLE
2
LTYPE
5
5
100
AcDbSymbolTable
0
LTYPE
5
14
100
AcDbSymbolTableRecord
100
AcDbLinetypeTableRecord
2
BYBLOCK
70
0
0
LTYPE
5
15
100
AcDbSymbolTableRecord
100
AcDbLinetypeTableRecord
2
BYLAYER
70
0
0
LTYPE
5
16
100
AcDbSymbolTableRecord
100
AcDbLinetypeTableRecord
2
DASHED
70
0
3
Dashed __ __ __ __ __ __ __ __ __ __ __ __ __ _
72
65
73
2
40
0.75
49
0.5
74
0
49
-0.25
74
0
0
ENDTAB
0
TABLE
2
LAYER
5
2
100
AcDbSymbolTable
70
2
0
LAYER
5
50
100
AcDbSymbolTableRecord
100
AcDbLayerTableRecord
2
0
70
0
62
7
6
CONTINUOUS
0
ENDTAB
0
TABLE
2
STYLE
5
3
100
AcDbSymbolTable
70
1
0
STYLE
5
11
100
AcDbSymbolTableRecord
100
AcDbTextStyleTableRecord
2
STANDARD
70
0
0
ENDTAB
0
TABLE
2
VIEW
5
6
100
AcDbSymbolTable
70
0
0
ENDTAB
0
TABLE
2
UCS
5
7
100
AcDbSymbolTable
70
0
0
ENDTAB
0
TABLE
2
APPID
5
9
100
AcDbSymbolTable
70
2
0
APPID
5
12
100
AcDbSymbolTableRecord
100
AcDbRegAppTableRecord
2
ACAD
70
0
0
ENDTAB
0
TABLE
2
DIMSTYLE
5
A
100
AcDbSymbolTable
70
1
0
ENDTAB
0
TABLE
2
BLOCK_RECORD
5
1
100
AcDbSymbolTable
70
1
0
BLOCK_RECORD
5
1F
100
AcDbSymbolTableRecord
100
AcDbBlockTableRecord
2
*MODEL_SPACE
0
BLOCK_RECORD
5
1B
100
AcDbSymbolTableRecord
100
AcDbBlockTableRecord
2
*PAPER_SPACE
0
ENDTAB
0
ENDSEC
0
SECTION
2
BLOCKS
0
BLOCK
5
20
100
AcDbEntity
100
AcDbBlockBegin
2
*MODEL_SPACE
0
ENDBLK
5
21
100
AcDbEntity
100
AcDbBlockEnd
0
BLOCK
5
1C
100
AcDbEntity
100
AcDbBlockBegin
2
*PAPER_SPACE
0
ENDBLK
5
1D
100
AcDbEntity
100
AcDbBlockEnd
0
ENDSEC
0
SECTION
2
ENTITIES
0
POINT
5
100
100
AcDbEntity
8
0
100
AcDbPoint
10
0
20
0
30
0
0
POINT
5
101
100
AcDbEntity
8
0
100
AcDbPoint
10
-36
20
-5.5
30
0
0
POINT
5
102
100
AcDbEntity
8
0
100
AcDbPoint
10
-12.000000000000002
20
-5.5
30
0
0
POINT
5
103
100
AcDbEntity
8
0
100
AcDbPoint
10
12.000000000000002
20
-5.5
30
0
0
POINT
5
104
100
AcDbEntity
8
0
100
AcDbPoint
10
36
20
-5.5
30
0
0
CIRCLE
5
105
100
AcDbEntity
8
0
100
AcDbCircle
10
0
20
0
30
0
40
51.000000000000007
210
0
220
0
230
1
0
LINE
5
106
100
AcDbEntity
8
0
100
AcDbLine
10
0
20
0
30
0
11
0
21
30
31
0
6
DASHED
0
LINE
5
107
100
AcDbEntity
8
0
100
AcDbLine
10
0
20
30
30
0
11
-41.243181254602568
21
30
31
0
0
LINE
5
108
100
AcDbEntity
8
0
100
AcDbLine
10
0
20
30
30
0
11
41.243181254602568
21
30
31
0
0
LINE
5
109
100
AcDbEntity
8
0
100
AcDbLine
10
0
20
0
30
0
11
-4.657732532997727e-15
21
-38
31
0
6
DASHED
0
LINE
5
110
100
AcDbEntity
8
0
100
AcDbLine
10
-4.657732532997727e-15
20
-38
30
0
11
-18.000000000000004
21
-37.999999999999986
31
0
0
LINE
5
111
100
AcDbEntity
8
0
100
AcDbLine
10
-18.000000000000004
20
-37.999999999999986
30
0
11
-18.054175077042849
21
-46.999836946357817
31
0
0
LINE
5
112
100
AcDbEntity
8
0
100
AcDbLine
10
-18.054175077042849
20
-46.999836946357817
30
0
11
-19.824656800816832
21
-46.989179421754415
31
0
0
LINE
5
113
100
AcDbEntity
8
0
100
AcDbLine
10
0
20
0
30
0
11
-36
21
0
31
0
6
DASHED
0
LINE
5
114
100
AcDbEntity
8
0
100
AcDbLine
10
-36
20
0
30
0
11
-36
21
-5.5
31
0
6
DASHED
0
LWPOLYLINE
5
115
100
AcDbEntity
8
0
100
AcDbPolyline
90
4
70
1
43
0.0
10
-47
20
10.999999999999996
10
-24.999999999999996
20
10.999999999999996
10
-25
20
-22.000000000000007
10
-47
20
-22.000000000000007
0
LINE
5
116
100
AcDbEntity
8
0
100
AcDbLine
10
-47
20
10.999999999999996
30
0
11
-25
21
-22.000000000000007
31
0
6
DASHED
0
LINE
5
117
100
AcDbEntity
8
0
100
AcDbLine
10
-24.999999999999996
20
10.999999999999996
30
0
11
-47
21
-22.000000000000007
31
0
6
DASHED
0
LINE
5
118
100
AcDbEntity
8
0
100
AcDbLine
10
-36
20
10.999999999999996
30
0
11
-36
21
-22.000000000000007
31
0
6
DASHED
0
LWPOLYLINE
5
119
100
AcDbEntity
8
0
100
AcDbPolyline
90
3
70
1
43
0.0
10
-47
20
-22.000000000000007
10
-44.000000655700006
20
-22.000000000000007
10
-47
20
-19.000000000000007
0
LINE
5
120
100
AcDbEntity
8
0
100
AcDbLine
10
-44.000000655700006
20
-22.000000000000007
30
0
11
-44.000000655700006
21
10.999999999999996
31
0
0
LINE
5
121
100
AcDbEntity
8
0
100
AcDbLine
10
-46.999999999990976
20
-5.4999999999999991
30
0
11
-25.000000000009017
21
-5.5
31
0
6
DASHED
0
LINE
5
122
100
AcDbEntity
8
0
100
AcDbLine
10
-24.999999999999996
20
-19.000000000000011
30
0
11
-27.999999344299997
21
-22.000000000000011
31
0
0
LINE
5
123
100
AcDbEntity
8
0
100
AcDbLine
10
-27.999999344299997
20
-22.000000000000011
30
0
11
-27.999999344299994
21
10.999999999999995
31
0
0
LINE
5
124
100
AcDbEntity
8
0
100
AcDbLine
10
-47
20
7.9999999999999964
30
0
11
-44.000000655700006
21
10.999999999999993
31
0
0
LINE
5
125
100
AcDbEntity
8
0
100
AcDbLine
10
-24.999999999999996
20
7.9999999999999973
30
0
11
-27.999999344299994
21
10.999999999999995
31
0
0
LINE
5
126
100
AcDbEntity
8
0
100
AcDbLine
10
0
20
0
30
0
11
-12.000000000000002
21
0
31
0
6
DASHED
0
LINE
5
127
100
AcDbEntity
8
0
100
AcDbLine
10
-12.000000000000002
20
0
30
0
11
-12.000000000000002
21
-5.5
31
0
6
DASHED
0
LWPOLYLINE
5
128
100
AcDbEntity
8
0
100
AcDbPolyline
90
4
70
1
43
0.0
10
-23.000000000000007
20
11.000000000000004
10
-0.99999999999999978
20
11.000000000000004
10
-0.99999999999999645
20
-22
10
-23.000000000000007
20
-22
0
LINE
5
129
100
AcDbEntity
8
0
100
AcDbLine
10
-23.000000000000007
20
11.000000000000004
30
0
11
-0.99999999999999645
21
-22
31
0
6
DASHED
0
LINE
5
130
100
AcDbEntity
8
0
100
AcDbLine
10
-0.99999999999999978
20
11.000000000000004
30
0
11
-23.000000000000007
21
-22
31
0
6
DASHED
0
LWPOLYLINE
5
131
100
AcDbEntity
8
0
100
AcDbPolyline
90
3
70
1
43
0.0
10
-23.000000000000007
20
-22
10
-20.00000065570001
20
-22
10
-23.000000000000007
20
-19.000000283122063
0
LINE
5
132
100
AcDbEntity
8
0
100
AcDbLine
10
-20.00000065570001
20
-22
30
0
11
-20.00000065570001
21
11.000000000000004
31
0
0
LINE
5
133
100
AcDbEntity
8
0
100
AcDbLine
10
-23.000000000000007
20
-5.4999999999999982
30
0
11
-0.99999999999999645
21
-5.4999999999999982
31
0
6
DASHED
0
LINE
5
134
100
AcDbEntity
8
0
100
AcDbLine
10
-12.000000000000004
20
11.000000000000004
30
0
11
-12.000000000000002
21
-22
31
0
6
DASHED
0
LINE
5
135
100
AcDbEntity
8
0
100
AcDbLine
10
-20.00000065570001
20
11.000000000000005
30
0
11
-23.000000000000007
21
8.0000002831220662
31
0
0
LINE
5
136
100
AcDbEntity
8
0
100
AcDbLine
10
-3.9999993442999981
20
11.000000000000005
30
0
11
-1.0000000000000009
21
8.000000283122068
31
0
0
LINE
5
137
100
AcDbEntity
8
0
100
AcDbLine
10
-3.9999993442999937
20
-22
30
0
11
-0.99999999999999645
21
-19.000000283122066
31
0
0
LINE
5
138
100
AcDbEntity
8
0
100
AcDbLine
10
-3.9999993442999937
20
-22
30
0
11
-3.9999993442999981
21
11.000000000000004
31
0
0
LINE
5
139
100
AcDbEntity
8
0
100
AcDbLine
10
36
20
0
30
0
11
36
21
-5.5
31
0
6
DASHED
0
LINE
5
140
100
AcDbEntity
8
0
100
AcDbLine
10
23.000000000000007
20
-22
30
0
11
23.000000000000007
21
11.000000000000004
31
0
0
LINE
5
141
100
AcDbEntity
8
0
100
AcDbLine
10
47
20
7.9999999999999964
30
0
11
44.000000655700006
21
10.999999999999993
31
0
0
LINE
5
142
100
AcDbEntity
8
0
100
AcDbLine
10
25
20
-22.000000000000007
30
0
11
47
21
-22.000000000000007
31
0
0
LINE
5
143
100
AcDbEntity
8
0
100
AcDbLine
10
12.000000000000004
20
11.000000000000004
30
0
11
12.000000000000002
21
-22
31
0
6
DASHED
0
LINE
5
144
100
AcDbEntity
8
0
100
AcDbLine
10
0.99999999999999645
20
-22
30
0
11
23.000000000000007
21
-22
31
0
0
LINE
5
145
100
AcDbEntity
8
0
100
AcDbLine
10
24.999999999999996
20
-19.000000000000011
30
0
11
27.999999344299997
21
-22.000000000000011
31
0
0
LINE
5
146
100
AcDbEntity
8
0
100
AcDbLine
10
24.999999999999996
20
10.999999999999996
30
0
11
25
21
-22.000000000000007
31
0
0
LINE
5
147
100
AcDbEntity
8
0
100
AcDbLine
10
20.00000065570001
20
11.000000000000005
30
0
11
23.000000000000007
21
8.0000002831220662
31
0
0
LINE
5
148
100
AcDbEntity
8
0
100
AcDbLine
10
24.999999999999996
20
7.9999999999999973
30
0
11
27.999999344299994
21
10.999999999999995
31
0
0
LINE
5
149
100
AcDbEntity
8
0
100
AcDbLine
10
46.999999999990976
20
-5.4999999999999991
30
0
11
25.000000000009017
21
-5.5
31
0
6
DASHED
0
LINE
5
150
100
AcDbEntity
8
0
100
AcDbLine
10
27.999999344299997
20
-22.000000000000011
30
0
11
27.999999344299994
21
10.999999999999995
31
0
0
LINE
5
151
100
AcDbEntity
8
0
100
AcDbLine
10
47
20
10.999999999999996
30
0
11
25
21
-22.000000000000007
31
0
6
DASHED
0
LWPOLYLINE
5
152
100
AcDbEntity
8
0
100
AcDbPolyline
90
3
70
1
43
0.0
10
47
20
-22.000000000000007
10
44.000000655700006
20
-22.000000000000007
10
47
20
-19.000000000000007
0
LINE
5
153
100
AcDbEntity
8
0
100
AcDbLine
10
47
20
10.999999999999996
30
0
11
24.999999999999996
21
10.999999999999996
31
0
0
LINE
5
154
100
AcDbEntity
8
0
100
AcDbLine
10
36
20
10.999999999999996
30
0
11
36
21
-22.000000000000007
31
0
6
DASHED
0
LINE
5
155
100
AcDbEntity
8
0
100
AcDbLine
10
24.999999999999996
20
10.999999999999996
30
0
11
47
21
-22.000000000000007
31
0
6
DASHED
0
LINE
5
156
100
AcDbEntity
8
0
100
AcDbLine
10
47
20
-22.000000000000007
30
0
11
47
21
10.999999999999996
31
0
0
LINE
5
157
100
AcDbEntity
8
0
100
AcDbLine
10
3.9999993442999937
20
-22
30
0
11
3.9999993442999981
21
11.000000000000004
31
0
0
LINE
5
158
100
AcDbEntity
8
0
100
AcDbLine
10
20.00000065570001
20
-22
30
0
11
23.000000000000007
21
-19.000000283122063
31
0
0
LINE
5
159
100
AcDbEntity
8
0
100
AcDbLine
10
3.9999993442999937
20
-22
30
0
11
0.99999999999999645
21
-19.000000283122066
31
0
0
LINE
5
160
100
AcDbEntity
8
0
100
AcDbLine
10
0.99999999999999978
20
11.000000000000004
30
0
11
23.000000000000007
21
-22
31
0
6
DASHED
0
LINE
5
161
100
AcDbEntity
8
0
100
AcDbLine
10
12.000000000000002
20
0
30
0
11
12.000000000000002
21
-5.5
31
0
6
DASHED
0
LINE
5
162
100
AcDbEntity
8
0
100
AcDbLine
10
23.000000000000007
20
-22
30
0
11
20.00000065570001
21
-22
31
0
0
LINE
5
163
100
AcDbEntity
8
0
100
AcDbLine
10
3.9999993442999981
20
11.000000000000005
30
0
11
1.0000000000000009
21
8.000000283122068
31
0
0
LINE
5
164
100
AcDbEntity
8
0
100
AcDbLine
10
0.99999999999999978
20
11.000000000000004
30
0
11
0.99999999999999645
21
-22
31
0
0
LINE
5
165
100
AcDbEntity
8
0
100
AcDbLine
10
44.000000655700006
20
-22.000000000000007
30
0
11
44.000000655700006
21
10.999999999999996
31
0
0
LINE
5
166
100
AcDbEntity
8
0
100
AcDbLine
10
23.000000000000007
20
-5.4999999999999982
30
0
11
0.99999999999999645
21
-5.4999999999999982
31
0
6
DASHED
0
LINE
5
167
100
AcDbEntity
8
0
100
AcDbLine
10
23.000000000000007
20
11.000000000000004
30
0
11
0.99999999999999645
21
-22
31
0
6
DASHED
0
LINE
5
168
100
AcDbEntity
8
0
100
AcDbLine
10
23.000000000000007
20
-22
30
0
11
23.000000000000007
21
-19.000000283122063
31
0
0
LINE
5
169
100
AcDbEntity
8
0
100
AcDbLine
10
20.00000065570001
20
-22
30
0
11
20.00000065570001
21
11.000000000000004
31
0
0
LINE
5
170
100
AcDbEntity
8
0
100
AcDbLine
10
23.000000000000007
20
11.000000000000004
30
0
11
0.99999999999999978
21
11.000000000000004
31
0
0
LINE
5
171
100
AcDbEntity
8
0
100
AcDbLine
10
-4.653395724307785e-15
20
-38
30
0
11
17.999999999999996
21
-37.999999999999986
31
0
0
LINE
5
172
100
AcDbEntity
8
0
100
AcDbLine
10
17.999999999999996
20
-37.999999999999986
30
0
11
18.054175077042835
21
-46.999836946357824
31
0
0
LINE
5
173
100
AcDbEntity
8
0
100
AcDbLine
10
18.054175077042835
20
-46.999836946357824
30
0
11
19.824656800816818
21
-46.989179421754415
31
0
0
LINE
5
174
100
AcDbEntity
8
0
100
AcDbLine
10
0
20
0
30
0
11
-4.535160624234629e-15
21
-37
31
0
0
LINE
5
175
100
AcDbEntity
8
0
100
AcDbLine
10
-4.535160624234629e-15
20
-37
30
0
11
-30.000000000000004
21
-37
31
0
6
DASHED
0
LINE
5
176
100
AcDbEntity
8
0
100
AcDbLine
10
-4.5351606242346306e-15
20
-37
30
0
11
29.999999999999996
21
-37.000000000000007
31
0
6
DASHED
0
ENDSEC
0
SECTION
2
OBJECTS
0
DICTIONARY
5
C
100
AcDbDictionary
3
ACAD_GROUP
350
D
3
ACAD_MLINESTYLE
350
17
0
DICTIONARY
5
D
100
AcDbDictionary
0
DICTIONARY
5
1A
330
C
100
AcDbDictionary
0
DICTIONARY
5
17
100
AcDbDictionary
0
ENDSEC
0
EOF
