0
SECTION
2
HEADER
9
$INSUNITS
70
4
9
$ACADVER
1
AC1014
9
$HANDSEED
5
FFFF
0
ENDSEC
0
SECTION
2
TABLES
0
TABLE
2
VPORT
5
8
100
AcDbSymbolTable
0
ENDTAB
0
TABLE
2
LTYPE
5
5
100
AcDbSymbolTable
0
LTYPE
5
14
100
AcDbSymbolTableRecord
100
AcDbLinetypeTableRecord
2
BYBLOCK
70
0
0
LTYPE
5
15
100
AcDbSymbolTableRecord
100
AcDbLinetypeTableRecord
2
BYLAYER
70
0
0
LTYPE
5
16
100
AcDbSymbolTableRecord
100
AcDbLinetypeTableRecord
2
DASHED
70
0
3
Dashed __ __ __ __ __ __ __ __ __ __ __ __ __ _
72
65
73
2
40
0.75
49
0.5
74
0
49
-0.25
74
0
0
ENDTAB
0
TABLE
2
LAYER
5
2
100
AcDbSymbolTable
70
2
0
LAYER
5
50
100
AcDbSymbolTableRecord
100
AcDbLayerTableRecord
2
0
70
0
62
7
6
CONTINUOUS
0
ENDTAB
0
TABLE
2
STYLE
5
3
100
AcDbSymbolTable
70
1
0
STYLE
5
11
100
AcDbSymbolTableRecord
100
AcDbTextStyleTableRecord
2
STANDARD
70
0
0
ENDTAB
0
TABLE
2
VIEW
5
6
100
AcDbSymbolTable
70
0
0
ENDTAB
0
TABLE
2
UCS
5
7
100
AcDbSymbolTable
70
0
0
ENDTAB
0
TABLE
2
APPID
5
9
100
AcDbSymbolTable
70
2
0
APPID
5
12
100
AcDbSymbolTableRecord
100
AcDbRegAppTableRecord
2
ACAD
70
0
0
ENDTAB
0
TABLE
2
DIMSTYLE
5
A
100
AcDbSymbolTable
70
1
0
ENDTAB
0
TABLE
2
BLOCK_RECORD
5
1
100
AcDbSymbolTable
70
1
0
BLOCK_RECORD
5
1F
100
AcDbSymbolTableRecord
100
AcDbBlockTableRecord
2
*MODEL_SPACE
0
BLOCK_RECORD
5
1B
100
AcDbSymbolTableRecord
100
AcDbBlockTableRecord
2
*PAPER_SPACE
0
ENDTAB
0
ENDSEC
0
SECTION
2
BLOCKS
0
BLOCK
5
20
100
AcDbEntity
100
AcDbBlockBegin
2
*MODEL_SPACE
0
ENDBLK
5
21
100
AcDbEntity
100
AcDbBlockEnd
0
BLOCK
5
1C
100
AcDbEntity
100
AcDbBlockBegin
2
*PAPER_SPACE
0
ENDBLK
5
1D
100
AcDbEntity
100
AcDbBlockEnd
0
ENDSEC
0
SECTION
2
ENTITIES
0
LWPOLYLINE
5
100
100
AcDbEntity
8
0
100
AcDbPolyline
90
2
70
1
43
0.0
10
-41.243181254602604
20
29.999999999999961
42
1.9639610121239293
10
41.243181254602575
20
29.999999999999993
0
LWPOLYLINE
5
101
100
AcDbEntity
8
0
100
AcDbPolyline
90
12
70
1
43
0.0
10
47
20
19
10
47
20
2.2204460492503131e-15
10
47
20
-18.99999748666999
10
44.000000000000014
20
-21.999997486669976
10
35.999999999999986
20
-21.999998743334999
10
27.999999999999979
20
-21.999997486669976
10
24.999999999999993
20
-18.999997486669979
10
25
20
2.5133300218804777e-06
10
24.999999999999993
20
18.999999999999993
10
27.999999999999979
20
21.999999999999993
10
35.999999999999986
20
22.000001256665008
10
44.000000000000014
20
22
0
LWPOLYLINE
5
102
100
AcDbEntity
8
0
100
AcDbPolyline
90
9
70
1
43
0.0
10
-20.000000298023224
20
-22.000000327825546
10
-23.000000342726707
20
-19.000000283122063
10
-23
20
-1.2566650076095698e-06
10
-23.000000342726707
20
19.000000283122063
10
-20.000000298023224
20
22.000000327825546
10
-3.9999997019767797
20
22.000000327825546
10
-0.99999965727329609
20
19.000000283122063
10
-1.0000000000000053
20
-19.000000283122063
10
-3.9999997019767797
20
-22.000000327825546
0
LWPOLYLINE
5
103
100
AcDbEntity
8
0
100
AcDbPolyline
90
8
70
1
43
0.0
10
23.000000342726707
20
-19.000000283122063
10
20.000000298023224
20
-22
10
3.9999997019767797
20
-22.000000327825546
10
0.99999965727329609
20
-19.000000283122063
10
0.99999965727329609
20
19.000000283122063
10
3.9999997019767797
20
22.000000327825546
10
20.000000298023224
20
22.000000327825546
10
23
20
19.000000283122063
0
LWPOLYLINE
5
104
100
AcDbEntity
8
0
100
AcDbPolyline
90
12
70
1
43
0.0
10
-47
20
19
10
-44
20
22
10
-35.999999999999993
20
22.000001256665008
10
-27.999999999999979
20
21.999999999999993
10
-24.999999999999986
20
18.999999999999993
10
-25
20
-6.6613381477509392e-15
10
-24.999999999999986
20
-18.999997486669979
10
-27.999999999999979
20
-21.999997486669976
10
-35.999999999999993
20
-21.999998743334999
10
-44
20
-21.999997486669976
10
-47
20
-18.99999748666999
10
-47
20
2.5133300152191396e-06
0
LINE
5
105
100
AcDbEntity
8
0
100
AcDbLine
10
-44.000000655651093
20
15.000000223517418
30
0
11
-44
21
-21.999997486669976
31
0
0
LINE
5
106
100
AcDbEntity
8
0
100
AcDbLine
10
-27.999999999999979
20
-21.999997486669976
30
0
11
-28.000005812075276
21
15.00000022351697
31
0
0
LINE
5
107
100
AcDbEntity
8
0
100
AcDbLine
10
-20.000000298023224
20
-22.000000327825546
30
0
11
-20.000000298023224
21
14.999997382361855
31
0
0
LINE
5
108
100
AcDbEntity
8
0
100
AcDbLine
10
-3.9999997019767797
20
-22.000000327825546
30
0
11
-3.9999997019767819
21
14.999997382361855
31
0
0
LINE
5
109
100
AcDbEntity
8
0
100
AcDbLine
10
3.9999997019767797
20
-22.000000327825546
30
0
11
3.9999989438802812
21
14.999997382361848
31
0
0
LINE
5
110
100
AcDbEntity
8
0
100
AcDbLine
10
20.000000298023224
20
-22
30
0
11
19.999999539926723
21
14.999997710187385
31
0
0
LINE
5
111
100
AcDbEntity
8
0
100
AcDbLine
10
27.999999999999979
20
-21.999997486669976
30
0
11
28.000005812075344
21
15.000000223516963
31
0
0
LINE
5
112
100
AcDbEntity
8
0
100
AcDbLine
10
44.000000000000014
20
-21.999997486669976
30
0
11
43.999994187924649
21
15.000000223516965
31
0
0
LINE
5
113
100
AcDbEntity
8
0
100
AcDbLine
10
-28.000005812075276
20
15.00000022351697
30
0
11
-24.999999999999993
21
15.000000223516967
31
0
0
LINE
5
114
100
AcDbEntity
8
0
100
AcDbLine
10
-20.000000298023224
20
14.999997382361855
30
0
11
-23.000000342726707
21
15.000000223517418
31
0
0
LINE
5
115
100
AcDbEntity
8
0
100
AcDbLine
10
-3.9999997019767819
20
14.999997382361855
30
0
11
-1.0000000149011612
21
15.000000223517418
31
0
0
LINE
5
116
100
AcDbEntity
8
0
100
AcDbLine
10
3.9999989438802812
20
14.999997382361848
30
0
11
1.0000000149011612
21
14.999997382361848
31
0
0
LINE
5
117
100
AcDbEntity
8
0
100
AcDbLine
10
19.999999539926723
20
14.999997710187385
30
0
11
23.000000342726707
21
15.000000223517418
31
0
0
LINE
5
118
100
AcDbEntity
8
0
100
AcDbLine
10
28.000005812075344
20
15.000000223516963
30
0
11
25.00000037252903
21
15.00000022351696
31
0
0
LINE
5
119
100
AcDbEntity
8
0
100
AcDbLine
10
43.999994187924649
20
15.000000223516965
30
0
11
47.000000700354576
21
15.000000223516965
31
0
0
LINE
5
120
100
AcDbEntity
8
0
100
AcDbLine
10
-28.000000417232513
20
12.000000178813934
30
0
11
-24.999999999999993
21
15.000000223516967
31
0
0
LINE
5
121
100
AcDbEntity
8
0
100
AcDbLine
10
-23.000000342726707
20
15.000000223517418
30
0
11
-20.000000298023224
21
11.999999806284444
31
0
0
LINE
5
122
100
AcDbEntity
8
0
100
AcDbLine
10
-1.0000000149011612
20
15.000000223517418
30
0
11
-4.0000000596046448
21
12.000000178813934
31
0
0
LINE
5
123
100
AcDbEntity
8
0
100
AcDbLine
10
-44.000000655651093
20
15.000000223517418
30
0
11
-47
21
15.000000223517418
31
0
0
LINE
5
124
100
AcDbEntity
8
0
100
AcDbLine
10
-47
20
15.000000223517418
30
0
11
-44.000000655651093
21
12.000000178813934
31
0
0
LINE
5
125
100
AcDbEntity
8
0
100
AcDbLine
10
1.0000000149011612
20
14.999997382361848
30
0
11
4.0000000596046448
21
12.000000178813934
31
0
0
LINE
5
126
100
AcDbEntity
8
0
100
AcDbLine
10
23.000000342726707
20
15.000000223517418
30
0
11
20.000000298023224
21
12.000000178813934
31
0
0
LINE
5
127
100
AcDbEntity
8
0
100
AcDbLine
10
25.00000037252903
20
15.00000022351696
30
0
11
28.000000417232513
21
12.000000178813934
31
0
0
LINE
5
128
100
AcDbEntity
8
0
100
AcDbLine
10
47.000000700354576
20
15.000000223516965
30
0
11
44.000000655651093
21
12.000000178813934
31
0
0
LINE
5
129
100
AcDbEntity
8
0
100
AcDbLine
10
-28.000005812075276
20
15.00000022351697
30
0
11
-27.999999999999979
21
21.999999999999993
31
0
0
LINE
5
130
100
AcDbEntity
8
0
100
AcDbLine
10
-44.000000655651093
20
15.000000223517418
30
0
11
-44
21
22
31
0
0
LINE
5
131
100
AcDbEntity
8
0
100
AcDbLine
10
-20.000000298023224
20
14.999997382361855
30
0
11
-20.000000298023224
21
22.000000327825546
31
0
0
LINE
5
132
100
AcDbEntity
8
0
100
AcDbLine
10
-3.9999997019767819
20
14.999997382361855
30
0
11
-3.9999997019767797
21
22.000000327825546
31
0
0
LINE
5
133
100
AcDbEntity
8
0
100
AcDbLine
10
3.9999989438802812
20
14.999997382361848
30
0
11
3.9999997019767797
21
22.000000327825546
31
0
0
LINE
5
134
100
AcDbEntity
8
0
100
AcDbLine
10
19.999999539926723
20
14.999997710187385
30
0
11
20.000000298023224
21
22.000000327825546
31
0
0
LINE
5
135
100
AcDbEntity
8
0
100
AcDbLine
10
28.000005812075344
20
15.000000223516963
30
0
11
27.999999999999979
21
21.999999999999993
31
0
0
LINE
5
136
100
AcDbEntity
8
0
100
AcDbLine
10
43.999994187924649
20
15.000000223516965
30
0
11
44.000000000000014
21
22
31
0
0
LWPOLYLINE
5
137
100
AcDbEntity
8
0
100
AcDbPolyline
90
4
70
1
43
0.0
10
-27.000000402331352
20
-23.000000342726707
10
-21.000000312924385
20
-23.000000342726707
10
-21.000000312924385
20
-34.000000506639481
10
-27.000000402331352
20
-34.000000506639481
0
LWPOLYLINE
5
138
100
AcDbEntity
8
0
100
AcDbPolyline
90
4
70
1
43
0.0
10
-3.0000000447034836
20
-23.000000342726707
10
3.0000000447034836
20
-23.000000342726707
10
3.0000000447034836
20
-34.000000506639481
10
-3.0000000447034836
20
-34.000000506639481
0
LWPOLYLINE
5
139
100
AcDbEntity
8
0
100
AcDbPolyline
90
4
70
1
43
0.0
10
21.000000312924385
20
-23.000000342726707
10
27.000000402331352
20
-23.000000342726707
10
27.000000402331352
20
-34.000000506639481
10
21.000000312924385
20
-34.000000506639481
0
ENDSEC
0
SECTION
2
OBJECTS
0
DICTIONARY
5
C
100
AcDbDictionary
3
ACAD_GROUP
350
D
3
ACAD_MLINESTYLE
350
17
0
DICTIONARY
5
D
100
AcDbDictionary
0
DICTIONARY
5
1A
330
C
100
AcDbDictionary
0
DICTIONARY
5
17
100
AcDbDictionary
0
ENDSEC
0
EOF
