0
SECTION
2
HEADER
9
$INSUNITS
70
4
9
$ACADVER
1
AC1014
9
$HANDSEED
5
FFFF
0
ENDSEC
0
SECTION
2
TABLES
0
TABLE
2
VPORT
5
8
100
AcDbSymbolTable
0
ENDTAB
0
TABLE
2
LTYPE
5
5
100
AcDbSymbolTable
0
LTYPE
5
14
100
AcDbSymbolTableRecord
100
AcDbLinetypeTableRecord
2
BYBLOCK
70
0
0
LTYPE
5
15
100
AcDbSymbolTableRecord
100
AcDbLinetypeTableRecord
2
BYLAYER
70
0
0
LTYPE
5
16
100
AcDbSymbolTableRecord
100
AcDbLinetypeTableRecord
2
DASHED
70
0
3
Dashed __ __ __ __ __ __ __ __ __ __ __ __ __ _
72
65
73
2
40
0.75
49
0.5
74
0
49
-0.25
74
0
0
ENDTAB
0
TABLE
2
LAYER
5
2
100
AcDbSymbolTable
70
2
0
LAYER
5
50
100
AcDbSymbolTableRecord
100
AcDbLayerTableRecord
2
0
70
0
62
7
6
CONTINUOUS
0
ENDTAB
0
TABLE
2
STYLE
5
3
100
AcDbSymbolTable
70
1
0
STYLE
5
11
100
AcDbSymbolTableRecord
100
AcDbTextStyleTableRecord
2
STANDARD
70
0
0
ENDTAB
0
TABLE
2
VIEW
5
6
100
AcDbSymbolTable
70
0
0
ENDTAB
0
TABLE
2
UCS
5
7
100
AcDbSymbolTable
70
0
0
ENDTAB
0
TABLE
2
APPID
5
9
100
AcDbSymbolTable
70
2
0
APPID
5
12
100
AcDbSymbolTableRecord
100
AcDbRegAppTableRecord
2
ACAD
70
0
0
ENDTAB
0
TABLE
2
DIMSTYLE
5
A
100
AcDbSymbolTable
70
1
0
ENDTAB
0
TABLE
2
BLOCK_RECORD
5
1
100
AcDbSymbolTable
70
1
0
BLOCK_RECORD
5
1F
100
AcDbSymbolTableRecord
100
AcDbBlockTableRecord
2
*MODEL_SPACE
0
BLOCK_RECORD
5
1B
100
AcDbSymbolTableRecord
100
AcDbBlockTableRecord
2
*PAPER_SPACE
0
ENDTAB
0
ENDSEC
0
SECTION
2
BLOCKS
0
BLOCK
5
20
100
AcDbEntity
100
AcDbBlockBegin
2
*MODEL_SPACE
0
ENDBLK
5
21
100
AcDbEntity
100
AcDbBlockEnd
0
BLOCK
5
1C
100
AcDbEntity
100
AcDbBlockBegin
2
*PAPER_SPACE
0
ENDBLK
5
1D
100
AcDbEntity
100
AcDbBlockEnd
0
ENDSEC
0
SECTION
2
ENTITIES
0
LWPOLYLINE
5
100
100
AcDbEntity
8
0
100
AcDbPolyline
90
4
70
1
43
0.0
10
-4.2549297418759118e-14
20
21.000000000000121
10
1.5099999999999605
20
21.000000000000121
10
1.509999999999954
20
38.500002000000158
10
-4.8849813083506888e-14
20
38.500002000000165
0
LINE
5
101
100
AcDbEntity
8
0
100
AcDbLine
10
-4.8849813083506888e-14
20
38.500002000000165
30
0
11
-2.2570189781144349e-14
21
-34.500000514090061
31
0
6
DASHED
0
LINE
5
102
100
AcDbEntity
8
0
100
AcDbLine
10
-3.5710001432325614e-14
20
2.0000007429550504
30
0
11
4.9999999999999645
21
2.0000007429550521
31
0
6
DASHED
0
LWPOLYLINE
5
103
100
AcDbEntity
8
0
100
AcDbPolyline
90
6
70
1
43
0.0
10
1.509999999999954
20
38.500002000000158
10
39.172355907014975
20
38.500002000000194
42
-0.4336340698051338
10
39.17235590701501
20
-34.500000514090054
10
-2.2570189781144349e-14
20
-34.500000514090061
10
-2.6170138054747512e-14
20
-24.500000514090061
10
1.5999999999999743
20
-24.500000514090061
0
LWPOLYLINE
5
104
100
AcDbEntity
8
0
100
AcDbPolyline
90
20
70
1
43
0.0
10
1.5949999999999798
20
-33.440999999999967
10
1.8489999999999804
20
-33.694999999999965
10
6.4209999999999887
20
-33.694999999999965
10
6.6749999999999883
20
-33.440999999999967
10
6.6749999999999874
20
-31.408999999999963
10
6.4209999999999878
20
-31.154999999999966
10
6.6749999999999874
20
-30.900999999999964
10
6.6749999999999874
20
-28.868999999999957
10
6.4209999999999869
20
-28.614999999999959
10
6.6749999999999874
20
-28.360999999999954
10
6.6749999999999865
20
-26.328999999999954
10
6.4209999999999852
20
-26.074999999999953
10
1.8489999999999773
20
-26.074999999999953
10
1.5949999999999773
20
-26.328999999999954
10
1.594999999999978
20
-28.360999999999954
10
1.8489999999999787
20
-28.614999999999956
10
1.594999999999978
20
-28.868999999999957
10
1.5949999999999789
20
-30.900999999999961
10
1.8489999999999795
20
-31.154999999999966
10
1.5949999999999793
20
-31.408999999999963
0
LWPOLYLINE
5
105
100
AcDbEntity
8
0
100
AcDbPolyline
90
4
70
1
43
0.0
10
5.7249999999999872
20
-32.744999999999969
10
5.0849999999999866
20
-32.744999999999969
10
5.0849999999999866
20
-32.104999999999968
10
5.7249999999999872
20
-32.104999999999968
0
LWPOLYLINE
5
106
100
AcDbEntity
8
0
100
AcDbPolyline
90
4
70
1
43
0.0
10
3.1849999999999823
20
-32.104999999999968
10
3.1849999999999823
20
-32.744999999999969
10
2.5449999999999804
20
-32.744999999999969
10
2.5449999999999813
20
-32.104999999999968
0
LWPOLYLINE
5
107
100
AcDbEntity
8
0
100
AcDbPolyline
90
4
70
1
43
0.0
10
3.1849999999999805
20
-27.024999999999952
10
3.1849999999999805
20
-27.664999999999953
10
2.5449999999999795
20
-27.664999999999957
10
2.5449999999999795
20
-27.024999999999956
0
LWPOLYLINE
5
108
100
AcDbEntity
8
0
100
AcDbPolyline
90
4
70
1
43
0.0
10
3.184999999999981
20
-29.564999999999962
10
3.184999999999981
20
-30.204999999999963
10
2.5449999999999804
20
-30.204999999999963
10
2.5449999999999804
20
-29.564999999999962
0
LWPOLYLINE
5
109
100
AcDbEntity
8
0
100
AcDbPolyline
90
4
70
1
43
0.0
10
5.7249999999999854
20
-29.564999999999962
10
5.7249999999999854
20
-30.204999999999963
10
5.0849999999999866
20
-30.204999999999963
10
5.0849999999999849
20
-29.564999999999962
0
LWPOLYLINE
5
110
100
AcDbEntity
8
0
100
AcDbPolyline
90
4
70
1
43
0.0
10
5.084999999999984
20
-27.664999999999957
10
5.084999999999984
20
-27.024999999999956
10
5.7249999999999845
20
-27.024999999999952
10
5.7249999999999845
20
-27.664999999999953
0
LINE
5
111
100
AcDbEntity
8
0
100
AcDbLine
10
1.5621428568577789
20
2.0000007429550508
30
0
11
1.5621428568577747
21
14.50000074295505
31
0
0
LINE
5
112
100
AcDbEntity
8
0
100
AcDbLine
10
1.5621428568577747
20
14.50000074295505
30
0
11
2.5621418364512549
21
14.50142931286889
31
0
0
LINE
5
113
100
AcDbEntity
8
0
100
AcDbLine
10
2.5621418364512549
20
14.50142931286889
30
0
11
27.562141836451257
21
14.501429312868899
31
0
6
DASHED
0
LINE
5
114
100
AcDbEntity
8
0
100
AcDbLine
10
27.562141836451257
20
14.501429312868899
30
0
11
27.580001019409877
21
2.0000007429550504
31
0
6
DASHED
0
LINE
5
115
100
AcDbEntity
8
0
100
AcDbLine
10
2.5621418364512549
20
14.50142931286889
30
0
11
2.5621418364512589
21
2.0000007429550513
31
0
6
DASHED
0
LINE
5
116
100
AcDbEntity
8
0
100
AcDbLine
10
27.580001019409877
20
2.0000007429550504
30
0
11
25.080003570426179
21
1.9964293181704516
31
0
6
DASHED
0
LINE
5
117
100
AcDbEntity
8
0
100
AcDbLine
10
25.080003570426179
20
1.9964293181704516
30
0
11
25.065717871287781
21
11.996419114105247
31
0
6
DASHED
0
LINE
5
118
100
AcDbEntity
8
0
100
AcDbLine
10
15.062141836451255
20
14.501429312868893
30
0
11
15.062141836451255
21
2.0000000298023224
31
0
6
DASHED
0
CIRCLE
5
119
100
AcDbEntity
8
0
100
AcDbCircle
10
25.065717871287781
20
11.996419114105247
30
0
40
1.5999999999999992
210
0
220
0
230
1
0
CIRCLE
5
120
100
AcDbEntity
8
0
100
AcDbCircle
10
25.09428926956457
20
-8.0035604777643456
30
0
40
1.5999999999999992
210
0
220
0
230
1
0
LINE
5
121
100
AcDbEntity
8
0
100
AcDbLine
10
23.000000342726704
20
8.0819735856763089
30
0
11
23.0000003427267
21
24.997140846244072
31
0
0
LINE
5
122
100
AcDbEntity
8
0
100
AcDbLine
10
20.997143202899018
20
26.997138805431035
30
0
11
1.5264723971104177
21
26.969323562532757
31
0
0
LINE
5
123
100
AcDbEntity
8
0
100
AcDbLine
10
23.017294074086504
20
-4.0593359796996182
30
0
11
23.048378628649708
21
-14.93890830772906
31
0
0
ARC
5
124
100
AcDbEntity
8
0
100
AcDbCircle
10
15.062141836451255
20
2.0000000298023224
30
0
40
10
210
0
220
0
230
1
100
AcDbArc
50
-37.296053058718805
51
37.459273861799367
0
LINE
5
125
100
AcDbEntity
8
0
100
AcDbLine
10
1.5621428568577789
20
2.0000007429550508
30
0
11
31.562142856857779
21
2.0000007429550508
31
0
6
DASHED
0
LINE
5
126
100
AcDbEntity
8
0
100
AcDbLine
10
31.562142856857779
20
2.0000007429550508
30
0
11
31.562142856857779
21
17.000000742955052
31
0
0
LINE
5
127
100
AcDbEntity
8
0
100
AcDbLine
10
31.562142856857779
20
17.000000742955052
30
0
11
33.562142856857783
21
17.000000742955052
31
0
0
LINE
5
128
100
AcDbEntity
8
0
100
AcDbLine
10
33.562142856857783
20
17.000000742955052
30
0
11
33.562142856857783
21
2.0000000298023224
31
0
0
LINE
5
129
100
AcDbEntity
8
0
100
AcDbLine
10
33.562142856857783
20
2.0000000298023224
30
0
11
31.562142856857779
21
2.0000007429550508
31
0
6
DASHED
0
LINE
5
130
100
AcDbEntity
8
0
100
AcDbLine
10
33.562132159566346
20
-13.000000683346604
30
0
11
33.562142856857783
21
2.0000000298023224
31
0
0
LINE
5
131
100
AcDbEntity
8
0
100
AcDbLine
10
31.56213215956685
20
-12.999999257041148
30
0
11
33.562132159566346
21
-13.000000683346604
31
0
0
LINE
5
132
100
AcDbEntity
8
0
100
AcDbLine
10
31.562142856857779
20
2.0000007429550508
30
0
11
31.56213215956685
21
-12.999999257041148
31
0
0
ARC
5
133
100
AcDbEntity
8
0
100
AcDbCircle
10
21.000000342726697
20
24.997140846244072
30
0
40
2.0000000000000018
210
0
220
0
230
1
100
AcDbArc
50
0
51
90.081851054642826
0
LINE
5
134
100
AcDbEntity
8
0
100
AcDbLine
10
1.5000000223517418
20
-34.500000514090061
30
0
11
1.589286040102825
21
-17.000228286799953
31
0
0
LINE
5
135
100
AcDbEntity
8
0
100
AcDbLine
10
5.0849999999999866
20
-29.884999999999962
30
0
11
3.184999999999981
21
-29.884999999999962
31
0
0
LINE
5
136
100
AcDbEntity
8
0
100
AcDbLine
10
4.1349999999999838
20
-29.884999999999962
30
0
11
4.1349999999999838
21
-29.000000432133675
31
0
0
LINE
5
137
100
AcDbEntity
8
0
100
AcDbLine
10
4.1349999999999838
20
-29.000000432133675
30
0
11
4.1349999999999838
21
-30.76843577748194
31
0
0
LINE
5
138
100
AcDbEntity
8
0
100
AcDbLine
10
1.589286040102825
20
-17.000228286799953
30
0
11
21.054101065722168
21
-16.94461441830553
31
0
0
ARC
5
139
100
AcDbEntity
8
0
100
AcDbCircle
10
21.048386791897702
20
-14.944622581553526
30
0
40
1.9999999999999991
210
-0
220
0
230
1
100
AcDbArc
50
-89.836297890714434
51
0.16370210928562842
0
ENDSEC
0
SECTION
2
OBJECTS
0
DICTIONARY
5
C
100
AcDbDictionary
3
ACAD_GROUP
350
D
3
ACAD_MLINESTYLE
350
17
0
DICTIONARY
5
D
100
AcDbDictionary
0
DICTIONARY
5
1A
330
C
100
AcDbDictionary
0
DICTIONARY
5
17
100
AcDbDictionary
0
ENDSEC
0
EOF
