%TF.GenerationSoftware,KiCad,Pcbnew,9.0.0*%
%TF.CreationDate,2025-06-18T11:24:59+09:00*%
%TF.ProjectId,headlight_lower_side,68656164-6c69-4676-9874-5f6c6f776572,00*%
%TF.SameCoordinates,Original*%
%TF.FileFunction,Soldermask,Bot*%
%TF.FilePolarity,Negative*%
%FSLAX46Y46*%
G04 Gerber Fmt 4.6, Leading zero omitted, Abs format (unit mm)*
G04 Created by KiCad (PCBNEW 9.0.0) date 2025-06-18 11:24:59*
%MOMM*%
%LPD*%
G01*
G04 APERTURE LIST*
G04 Aperture macros list*
%AMRoundRect*
0 Rectangle with rounded corners*
0 $1 Rounding radius*
0 $2 $3 $4 $5 $6 $7 $8 $9 X,Y pos of 4 corners*
0 Add a 4 corners polygon primitive as box body*
4,1,4,$2,$3,$4,$5,$6,$7,$8,$9,$2,$3,0*
0 Add four circle primitives for the rounded corners*
1,1,$1+$1,$2,$3*
1,1,$1+$1,$4,$5*
1,1,$1+$1,$6,$7*
1,1,$1+$1,$8,$9*
0 Add four rect primitives between the rounded corners*
20,1,$1+$1,$2,$3,$4,$5,0*
20,1,$1+$1,$4,$5,$6,$7,0*
20,1,$1+$1,$6,$7,$8,$9,0*
20,1,$1+$1,$8,$9,$2,$3,0*%
G04 Aperture macros list end*
%ADD10C,1.600000*%
%ADD11O,1.600000X1.600000*%
%ADD12C,3.200000*%
%ADD13RoundRect,0.250000X-0.725000X0.600000X-0.725000X-0.600000X0.725000X-0.600000X0.725000X0.600000X0*%
%ADD14O,1.950000X1.700000*%
%ADD15R,1.700000X1.700000*%
%ADD16O,1.700000X1.700000*%
%ADD17RoundRect,0.250000X-0.325000X-0.450000X0.325000X-0.450000X0.325000X0.450000X-0.325000X0.450000X0*%
%ADD18R,1.800000X1.800000*%
%ADD19C,1.800000*%
G04 APERTURE END LIST*
D10*
%TO.C,R5*%
X78000000Y-62580000D03*
D11*
X78000000Y-52420000D03*
%TD*%
D12*
%TO.C,H1*%
X41500000Y-37000000D03*
%TD*%
%TO.C,H2*%
X41500000Y-87000000D03*
%TD*%
%TO.C,H4*%
X69500000Y-76000000D03*
%TD*%
D10*
%TO.C,R2*%
X96920000Y-79000000D03*
D11*
X107080000Y-79000000D03*
%TD*%
D10*
%TO.C,R7*%
X57000000Y-78920000D03*
D11*
X57000000Y-89080000D03*
%TD*%
D10*
%TO.C,R1*%
X96920000Y-45000000D03*
D11*
X107080000Y-45000000D03*
%TD*%
D10*
%TO.C,R6*%
X69500000Y-60920000D03*
D11*
X69500000Y-71080000D03*
%TD*%
D10*
%TO.C,R4*%
X81920000Y-79000000D03*
D11*
X92080000Y-79000000D03*
%TD*%
D10*
%TO.C,R3*%
X81920000Y-45000000D03*
D11*
X92080000Y-45000000D03*
%TD*%
D12*
%TO.C,H3*%
X69500000Y-48000000D03*
%TD*%
D13*
%TO.C,J1*%
X51000000Y-74500000D03*
D14*
X51000000Y-77000000D03*
X51000000Y-79500000D03*
X51000000Y-82000000D03*
X51000000Y-84500000D03*
X51000000Y-87000000D03*
%TD*%
D15*
%TO.C,J2*%
X47850000Y-27575000D03*
D16*
X50390000Y-27575000D03*
X47850000Y-30115000D03*
X50390000Y-30115000D03*
X47850000Y-32655000D03*
X50390000Y-32655000D03*
%TD*%
D12*
%TO.C,H5*%
X58900000Y-94500000D03*
%TD*%
D17*
%TO.C,LB2*%
X100975000Y-79000000D03*
X103025000Y-79000000D03*
%TD*%
D18*
%TO.C,IR2*%
X109895000Y-76960000D03*
D19*
X109895000Y-79500000D03*
%TD*%
D17*
%TO.C,LB4*%
X85975000Y-79000000D03*
X88025000Y-79000000D03*
%TD*%
D18*
%TO.C,IR1*%
X109895000Y-44500000D03*
D19*
X109895000Y-47040000D03*
%TD*%
D17*
%TO.C,LB3*%
X85975000Y-45000000D03*
X88025000Y-45000000D03*
%TD*%
%TO.C,LB1*%
X100962500Y-45000000D03*
X103012500Y-45000000D03*
%TD*%
M02*
