%TF.GenerationSoftware,KiCad,Pcbnew,9.0.0*%
%TF.CreationDate,2025-06-18T11:24:59+09:00*%
%TF.ProjectId,headlight_lower_side,68656164-6c69-4676-9874-5f6c6f776572,00*%
%TF.SameCoordinates,Original*%
%TF.FileFunction,Copper,L1,Top*%
%TF.FilePolarity,Positive*%
%FSLAX46Y46*%
G04 Gerber Fmt 4.6, Leading zero omitted, Abs format (unit mm)*
G04 Created by KiCad (PCBNEW 9.0.0) date 2025-06-18 11:24:59*
%MOMM*%
%LPD*%
G01*
G04 APERTURE LIST*
G04 Aperture macros list*
%AMRoundRect*
0 Rectangle with rounded corners*
0 $1 Rounding radius*
0 $2 $3 $4 $5 $6 $7 $8 $9 X,Y pos of 4 corners*
0 Add a 4 corners polygon primitive as box body*
4,1,4,$2,$3,$4,$5,$6,$7,$8,$9,$2,$3,0*
0 Add four circle primitives for the rounded corners*
1,1,$1+$1,$2,$3*
1,1,$1+$1,$4,$5*
1,1,$1+$1,$6,$7*
1,1,$1+$1,$8,$9*
0 Add four rect primitives between the rounded corners*
20,1,$1+$1,$2,$3,$4,$5,0*
20,1,$1+$1,$4,$5,$6,$7,0*
20,1,$1+$1,$6,$7,$8,$9,0*
20,1,$1+$1,$8,$9,$2,$3,0*%
G04 Aperture macros list end*
%TA.AperFunction,ComponentPad*%
%ADD10C,1.600000*%
%TD*%
%TA.AperFunction,ComponentPad*%
%ADD11O,1.600000X1.600000*%
%TD*%
%TA.AperFunction,SMDPad,CuDef*%
%ADD12RoundRect,0.250000X-0.450000X0.325000X-0.450000X-0.325000X0.450000X-0.325000X0.450000X0.325000X0*%
%TD*%
%TA.AperFunction,ComponentPad*%
%ADD13RoundRect,0.250000X-0.725000X0.600000X-0.725000X-0.600000X0.725000X-0.600000X0.725000X0.600000X0*%
%TD*%
%TA.AperFunction,ComponentPad*%
%ADD14O,1.950000X1.700000*%
%TD*%
%TA.AperFunction,ComponentPad*%
%ADD15R,1.700000X1.700000*%
%TD*%
%TA.AperFunction,ComponentPad*%
%ADD16O,1.700000X1.700000*%
%TD*%
%TA.AperFunction,ComponentPad*%
%ADD17R,1.800000X1.800000*%
%TD*%
%TA.AperFunction,ComponentPad*%
%ADD18C,1.800000*%
%TD*%
%TA.AperFunction,ViaPad*%
%ADD19C,0.600000*%
%TD*%
%TA.AperFunction,Conductor*%
%ADD20C,0.500000*%
%TD*%
%TA.AperFunction,Conductor*%
%ADD21C,0.300000*%
%TD*%
%TA.AperFunction,Conductor*%
%ADD22C,0.400000*%
%TD*%
%TA.AperFunction,Conductor*%
%ADD23C,1.000000*%
%TD*%
G04 APERTURE END LIST*
D10*
%TO.P,R5,1*%
%TO.N,+5.1V*%
X78000000Y-62580000D03*
D11*
%TO.P,R5,2*%
%TO.N,Net-(IR1-A)*%
X78000000Y-52420000D03*
%TD*%
D10*
%TO.P,R2,1*%
%TO.N,+5.1V*%
X96920000Y-79000000D03*
D11*
%TO.P,R2,2*%
%TO.N,Net-(LB2-A)*%
X107080000Y-79000000D03*
%TD*%
D10*
%TO.P,R7,1*%
%TO.N,+5.1V*%
X57000000Y-78920000D03*
D11*
%TO.P,R7,2*%
%TO.N,Net-(PWR1-A)*%
X57000000Y-89080000D03*
%TD*%
D10*
%TO.P,R1,1*%
%TO.N,+5.1V*%
X96920000Y-45000000D03*
D11*
%TO.P,R1,2*%
%TO.N,Net-(LB1-A)*%
X107080000Y-45000000D03*
%TD*%
D10*
%TO.P,R6,1*%
%TO.N,+5.1V*%
X69500000Y-60920000D03*
D11*
%TO.P,R6,2*%
%TO.N,Net-(IR2-A)*%
X69500000Y-71080000D03*
%TD*%
D12*
%TO.P,PWR1,1,K*%
%TO.N,GND*%
X60500000Y-83475000D03*
%TO.P,PWR1,2,A*%
%TO.N,Net-(PWR1-A)*%
X60500000Y-85525000D03*
%TD*%
D10*
%TO.P,R4,1*%
%TO.N,+5.1V*%
X81920000Y-79000000D03*
D11*
%TO.P,R4,2*%
%TO.N,Net-(LB4-A)*%
X92080000Y-79000000D03*
%TD*%
D10*
%TO.P,R3,1*%
%TO.N,+5.1V*%
X81920000Y-45000000D03*
D11*
%TO.P,R3,2*%
%TO.N,Net-(LB3-A)*%
X92080000Y-45000000D03*
%TD*%
D13*
%TO.P,J1,1,Pin_1*%
%TO.N,+5.1V*%
X51000000Y-74500000D03*
D14*
%TO.P,J1,2,Pin_2*%
%TO.N,LB*%
X51000000Y-77000000D03*
%TO.P,J1,3,Pin_3*%
%TO.N,IR*%
X51000000Y-79500000D03*
%TO.P,J1,4,Pin_4*%
%TO.N,HB_A*%
X51000000Y-82000000D03*
%TO.P,J1,5,Pin_5*%
%TO.N,HB_K*%
X51000000Y-84500000D03*
%TO.P,J1,6,Pin_6*%
%TO.N,GND*%
X51000000Y-87000000D03*
%TD*%
D15*
%TO.P,J2,1,Pin_1*%
%TO.N,+5.1V*%
X47850000Y-27575000D03*
D16*
%TO.P,J2,2,Pin_2*%
%TO.N,LB*%
X50390000Y-27575000D03*
%TO.P,J2,3,Pin_3*%
%TO.N,IR*%
X47850000Y-30115000D03*
%TO.P,J2,4,Pin_4*%
%TO.N,HB_A*%
X50390000Y-30115000D03*
%TO.P,J2,5,Pin_5*%
%TO.N,HB_K*%
X47850000Y-32655000D03*
%TO.P,J2,6,Pin_6*%
%TO.N,GND*%
X50390000Y-32655000D03*
%TD*%
D17*
%TO.P,IR2,1,K*%
%TO.N,IR*%
X109895000Y-76960000D03*
D18*
%TO.P,IR2,2,A*%
%TO.N,Net-(IR2-A)*%
X109895000Y-79500000D03*
%TD*%
D17*
%TO.P,IR1,1,K*%
%TO.N,IR*%
X109895000Y-44500000D03*
D18*
%TO.P,IR1,2,A*%
%TO.N,Net-(IR1-A)*%
X109895000Y-47040000D03*
%TD*%
D19*
%TO.N,IR*%
X63750000Y-80218963D03*
X48826330Y-37826330D03*
%TO.N,LB*%
X60094669Y-77155331D03*
%TO.N,GND*%
X47250000Y-82750000D03*
X54250000Y-81250000D03*
X47250000Y-97250000D03*
X54250000Y-97000000D03*
X54250000Y-90500000D03*
X63500000Y-89750000D03*
X47250000Y-90250000D03*
X63250000Y-81500000D03*
%TD*%
D20*
%TO.N,Net-(IR1-A)*%
X79500000Y-46500000D02*
X78000000Y-48000000D01*
X109355000Y-46500000D02*
X79500000Y-46500000D01*
X78000000Y-48000000D02*
X78000000Y-52420000D01*
X109895000Y-47040000D02*
X109355000Y-46500000D01*
D21*
%TO.N,IR*%
X63750000Y-80218963D02*
X63158301Y-80218963D01*
D22*
X48923000Y-77423000D02*
X48923000Y-37923000D01*
D21*
X53250000Y-80250000D02*
X52500000Y-79500000D01*
D20*
X52500000Y-79500000D02*
X52000000Y-79500000D01*
D22*
X48923000Y-77423000D02*
X51000000Y-79500000D01*
D21*
X63127264Y-80250000D02*
X53250000Y-80250000D01*
D22*
X48923000Y-37923000D02*
X48826330Y-37826330D01*
D21*
X63158301Y-80218963D02*
X63127264Y-80250000D01*
D20*
%TO.N,Net-(IR2-A)*%
X109895000Y-79500000D02*
X107645000Y-77250000D01*
X67920000Y-71080000D02*
X69500000Y-71080000D01*
X77750000Y-79500000D02*
X67000000Y-79500000D01*
X107645000Y-77250000D02*
X80000000Y-77250000D01*
X64500000Y-74500000D02*
X67920000Y-71080000D01*
X67000000Y-79500000D02*
X64500000Y-77000000D01*
X64500000Y-77000000D02*
X64500000Y-74500000D01*
X80000000Y-77250000D02*
X77750000Y-79500000D01*
D23*
%TO.N,HB_K*%
X51000000Y-84500000D02*
X46250000Y-79750000D01*
X46250000Y-79750000D02*
X46250000Y-34255000D01*
X46250000Y-34255000D02*
X47850000Y-32655000D01*
%TO.N,HB_A*%
X51941000Y-31666000D02*
X50390000Y-30115000D01*
X47750000Y-78750000D02*
X47750000Y-37488446D01*
X47750000Y-37488446D02*
X51941000Y-33297446D01*
X51941000Y-33297446D02*
X51941000Y-31666000D01*
X51000000Y-82000000D02*
X47750000Y-78750000D01*
D20*
%TO.N,LB*%
X50000000Y-73199000D02*
X50000000Y-36750000D01*
X52892000Y-33858000D02*
X52892000Y-30077000D01*
X49977708Y-73199000D02*
X50000000Y-73199000D01*
X50000000Y-36750000D02*
X52892000Y-33858000D01*
X52892000Y-30077000D02*
X50390000Y-27575000D01*
X59939338Y-77000000D02*
X51000000Y-77000000D01*
X49574000Y-73602708D02*
X49977708Y-73199000D01*
X49574000Y-75574000D02*
X49574000Y-73602708D01*
X51000000Y-77000000D02*
X49574000Y-75574000D01*
X60094669Y-77155331D02*
X59939338Y-77000000D01*
%TO.N,+5.1V*%
X53749000Y-73251000D02*
X53749000Y-28250000D01*
X59392075Y-78920000D02*
X57000000Y-78920000D01*
X81920000Y-79000000D02*
X83170000Y-80250000D01*
X69500000Y-60920000D02*
X76340000Y-60920000D01*
X61000000Y-74500000D02*
X57750000Y-74500000D01*
X49174000Y-26251000D02*
X47850000Y-27575000D01*
X61000000Y-77312075D02*
X59392075Y-78920000D01*
X81920000Y-45000000D02*
X81670000Y-45250000D01*
X51000000Y-74500000D02*
X52500000Y-74500000D01*
X51750000Y-26251000D02*
X49174000Y-26251000D01*
X76340000Y-60920000D02*
X78000000Y-62580000D01*
X80671000Y-80249000D02*
X66749000Y-80249000D01*
X52500000Y-74500000D02*
X53749000Y-73251000D01*
X61000000Y-74500000D02*
X61000000Y-77312075D01*
X95670000Y-43750000D02*
X96920000Y-45000000D01*
X95670000Y-80250000D02*
X96920000Y-79000000D01*
X83170000Y-43750000D02*
X95670000Y-43750000D01*
X66749000Y-80249000D02*
X61000000Y-74500000D01*
X53749000Y-28250000D02*
X51750000Y-26251000D01*
X69500000Y-66000000D02*
X61000000Y-74500000D01*
X53500000Y-74500000D02*
X51000000Y-74500000D01*
X81920000Y-79000000D02*
X80671000Y-80249000D01*
X79500000Y-45250000D02*
X69500000Y-55250000D01*
X69580000Y-60920000D02*
X69500000Y-61000000D01*
X69500000Y-55250000D02*
X69500000Y-60920000D01*
X81920000Y-45000000D02*
X83170000Y-43750000D01*
X83170000Y-80250000D02*
X95670000Y-80250000D01*
X81670000Y-45250000D02*
X79500000Y-45250000D01*
X69500000Y-61000000D02*
X69500000Y-66000000D01*
X57750000Y-74500000D02*
X53500000Y-74500000D01*
%TO.N,Net-(PWR1-A)*%
X60500000Y-87500000D02*
X60500000Y-85525000D01*
X58920000Y-89080000D02*
X57000000Y-89080000D01*
X60500000Y-87500000D02*
X58920000Y-89080000D01*
%TD*%
%TA.AperFunction,Conductor*%
%TO.N,GND*%
G36*
X52384742Y-80304705D02*
G01*
X52386003Y-80305949D01*
X52579555Y-80499500D01*
X52744724Y-80664669D01*
X52805431Y-80725376D01*
X52835332Y-80755277D01*
X52941866Y-80826461D01*
X52941872Y-80826464D01*
X52941873Y-80826465D01*
X53060256Y-80875501D01*
X53060260Y-80875501D01*
X53060261Y-80875502D01*
X53185928Y-80900500D01*
X53185931Y-80900500D01*
X63191334Y-80900500D01*
X63206899Y-80897403D01*
X63247141Y-80889398D01*
X63316732Y-80895624D01*
X63340223Y-80907912D01*
X63370821Y-80928357D01*
X63370822Y-80928357D01*
X63370823Y-80928358D01*
X63370825Y-80928359D01*
X63500499Y-80982071D01*
X63516503Y-80988700D01*
X63648691Y-81014994D01*
X63671153Y-81019462D01*
X63671156Y-81019463D01*
X63671158Y-81019463D01*
X63828842Y-81019463D01*
X63851308Y-81014994D01*
X63920898Y-81021220D01*
X63976076Y-81064082D01*
X63999322Y-81129971D01*
X63999500Y-81136611D01*
X63999500Y-90376000D01*
X63979815Y-90443039D01*
X63927011Y-90488794D01*
X63875500Y-90500000D01*
X57594187Y-90500000D01*
X57527148Y-90480315D01*
X57481393Y-90427511D01*
X57471449Y-90358353D01*
X57500474Y-90294797D01*
X57537892Y-90265515D01*
X57681610Y-90192287D01*
X57702770Y-90176913D01*
X57847213Y-90071971D01*
X57847215Y-90071968D01*
X57847219Y-90071966D01*
X57991966Y-89927219D01*
X57994650Y-89923524D01*
X58025100Y-89881615D01*
X58080429Y-89838949D01*
X58125418Y-89830500D01*
X58993920Y-89830500D01*
X59091462Y-89811096D01*
X59138913Y-89801658D01*
X59275495Y-89745084D01*
X59324729Y-89712186D01*
X59398416Y-89662952D01*
X61082951Y-87978416D01*
X61165084Y-87855495D01*
X61221658Y-87718913D01*
X61250500Y-87573918D01*
X61250500Y-86615638D01*
X61270185Y-86548599D01*
X61309401Y-86510100D01*
X61418656Y-86442712D01*
X61542712Y-86318656D01*
X61634814Y-86169334D01*
X61689999Y-86002797D01*
X61700500Y-85900009D01*
X61700499Y-85149992D01*
X61689999Y-85047203D01*
X61634814Y-84880666D01*
X61542712Y-84731344D01*
X61418656Y-84607288D01*
X61269334Y-84515186D01*
X61102797Y-84460001D01*
X61102795Y-84460000D01*
X61000010Y-84449500D01*
X59999998Y-84449500D01*
X59999980Y-84449501D01*
X59897203Y-84460000D01*
X59897200Y-84460001D01*
X59730668Y-84515185D01*
X59730663Y-84515187D01*
X59581342Y-84607289D01*
X59457289Y-84731342D01*
X59365187Y-84880663D01*
X59365186Y-84880666D01*
X59310001Y-85047203D01*
X59310001Y-85047204D01*
X59310000Y-85047204D01*
X59299500Y-85149983D01*
X59299500Y-85900001D01*
X59299501Y-85900019D01*
X59310000Y-86002796D01*
X59310001Y-86002799D01*
X59365185Y-86169331D01*
X59365186Y-86169334D01*
X59457288Y-86318656D01*
X59581344Y-86442712D01*
X59690597Y-86510099D01*
X59737321Y-86562047D01*
X59749500Y-86615638D01*
X59749500Y-87137770D01*
X59729815Y-87204809D01*
X59713181Y-87225451D01*
X58645451Y-88293181D01*
X58584128Y-88326666D01*
X58557770Y-88329500D01*
X58125418Y-88329500D01*
X58058379Y-88309815D01*
X58025100Y-88278385D01*
X57991971Y-88232787D01*
X57991967Y-88232782D01*
X57847213Y-88088028D01*
X57681613Y-87967715D01*
X57681612Y-87967714D01*
X57681610Y-87967713D01*
X57624653Y-87938691D01*
X57499223Y-87874781D01*
X57304534Y-87811522D01*
X57129995Y-87783878D01*
X57102352Y-87779500D01*
X56897648Y-87779500D01*
X56873329Y-87783351D01*
X56695465Y-87811522D01*
X56500776Y-87874781D01*
X56318386Y-87967715D01*
X56152786Y-88088028D01*
X56008028Y-88232786D01*
X55887715Y-88398386D01*
X55794781Y-88580776D01*
X55731522Y-88775465D01*
X55699500Y-88977648D01*
X55699500Y-89182351D01*
X55731522Y-89384534D01*
X55794781Y-89579223D01*
X55887715Y-89761613D01*
X56008028Y-89927213D01*
X56152786Y-90071971D01*
X56318385Y-90192284D01*
X56318387Y-90192285D01*
X56318390Y-90192287D01*
X56462108Y-90265515D01*
X56512904Y-90313490D01*
X56529699Y-90381311D01*
X56507162Y-90447446D01*
X56452446Y-90490897D01*
X56405813Y-90500000D01*
X54900000Y-90500000D01*
X54900000Y-97875501D01*
X54880315Y-97942540D01*
X54827511Y-97988295D01*
X54776000Y-97999501D01*
X46624000Y-97999501D01*
X46556961Y-97979816D01*
X46511206Y-97927012D01*
X46500000Y-97875501D01*
X46500000Y-81714282D01*
X46519685Y-81647243D01*
X46572489Y-81601488D01*
X46641647Y-81591544D01*
X46705203Y-81620569D01*
X46711681Y-81626601D01*
X49488181Y-84403101D01*
X49521666Y-84464424D01*
X49524500Y-84490782D01*
X49524500Y-84606287D01*
X49557754Y-84816243D01*
X49578686Y-84880666D01*
X49623444Y-85018414D01*
X49719951Y-85207820D01*
X49844890Y-85379786D01*
X49995213Y-85530109D01*
X50167179Y-85655048D01*
X50167181Y-85655049D01*
X50167184Y-85655051D01*
X50356588Y-85751557D01*
X50558757Y-85817246D01*
X50768713Y-85850500D01*
X50768714Y-85850500D01*
X51231286Y-85850500D01*
X51231287Y-85850500D01*
X51441243Y-85817246D01*
X51643412Y-85751557D01*
X51832816Y-85655051D01*
X51854789Y-85639086D01*
X52004786Y-85530109D01*
X52004788Y-85530106D01*
X52004792Y-85530104D01*
X52155104Y-85379792D01*
X52155106Y-85379788D01*
X52155109Y-85379786D01*
X52280048Y-85207820D01*
X52280047Y-85207820D01*
X52280051Y-85207816D01*
X52376557Y-85018412D01*
X52442246Y-84816243D01*
X52475500Y-84606287D01*
X52475500Y-84393713D01*
X52442246Y-84183757D01*
X52376557Y-83981588D01*
X52280051Y-83792184D01*
X52280049Y-83792181D01*
X52280048Y-83792179D01*
X52155109Y-83620213D01*
X52004792Y-83469896D01*
X51840204Y-83350316D01*
X51797540Y-83294989D01*
X51791561Y-83225376D01*
X51824166Y-83163580D01*
X51840199Y-83149686D01*
X52004792Y-83030104D01*
X52155104Y-82879792D01*
X52155106Y-82879788D01*
X52155109Y-82879786D01*
X52280048Y-82707820D01*
X52280047Y-82707820D01*
X52280051Y-82707816D01*
X52376557Y-82518412D01*
X52442246Y-82316243D01*
X52475500Y-82106287D01*
X52475500Y-81893713D01*
X52442246Y-81683757D01*
X52376557Y-81481588D01*
X52280051Y-81292184D01*
X52280049Y-81292181D01*
X52280048Y-81292179D01*
X52155109Y-81120213D01*
X52004792Y-80969896D01*
X51840204Y-80850316D01*
X51797540Y-80794989D01*
X51791561Y-80725376D01*
X51824166Y-80663580D01*
X51840199Y-80649686D01*
X52004792Y-80530104D01*
X52155104Y-80379792D01*
X52198004Y-80320745D01*
X52253333Y-80278079D01*
X52322947Y-80272100D01*
X52384742Y-80304705D01*
G37*
%TD.AperFunction*%
%TA.AperFunction,Conductor*%
G36*
X49191444Y-30768999D02*
G01*
X49230486Y-30814056D01*
X49234951Y-30822820D01*
X49359890Y-30994786D01*
X49510213Y-31145109D01*
X49682179Y-31270048D01*
X49682181Y-31270049D01*
X49682184Y-31270051D01*
X49871588Y-31366557D01*
X50073757Y-31432246D01*
X50283713Y-31465500D01*
X50283714Y-31465500D01*
X50288525Y-31466262D01*
X50288357Y-31467321D01*
X50348829Y-31490362D01*
X50361503Y-31501423D01*
X50904181Y-32044101D01*
X50937666Y-32105424D01*
X50940500Y-32131782D01*
X50940500Y-32831664D01*
X50920815Y-32898703D01*
X50904181Y-32919345D01*
X47462181Y-36361345D01*
X47400858Y-36394830D01*
X47331166Y-36389846D01*
X47275233Y-36347974D01*
X47250816Y-36282510D01*
X47250500Y-36273664D01*
X47250500Y-34720782D01*
X47270185Y-34653743D01*
X47286819Y-34633101D01*
X47878499Y-34041421D01*
X47939820Y-34007938D01*
X47955291Y-34005657D01*
X47956282Y-34005500D01*
X47956287Y-34005500D01*
X48166243Y-33972246D01*
X48368412Y-33906557D01*
X48557816Y-33810051D01*
X48597683Y-33781086D01*
X48729786Y-33685109D01*
X48729788Y-33685106D01*
X48729792Y-33685104D01*
X48880104Y-33534792D01*
X48880106Y-33534788D01*
X48880109Y-33534786D01*
X49005048Y-33362820D01*
X49005047Y-33362820D01*
X49005051Y-33362816D01*
X49101557Y-33173412D01*
X49167246Y-32971243D01*
X49200500Y-32761287D01*
X49200500Y-32548713D01*
X49167246Y-32338757D01*
X49101557Y-32136588D01*
X49005051Y-31947184D01*
X49005049Y-31947181D01*
X49005048Y-31947179D01*
X48880109Y-31775213D01*
X48729786Y-31624890D01*
X48557820Y-31499951D01*
X48557115Y-31499591D01*
X48549054Y-31495485D01*
X48498259Y-31447512D01*
X48481463Y-31379692D01*
X48503999Y-31313556D01*
X48549054Y-31274515D01*
X48557816Y-31270051D01*
X48579789Y-31254086D01*
X48729786Y-31145109D01*
X48729788Y-31145106D01*
X48729792Y-31145104D01*
X48880104Y-30994792D01*
X48880106Y-30994788D01*
X48880109Y-30994786D01*
X49005048Y-30822820D01*
X49005047Y-30822820D01*
X49005051Y-30822816D01*
X49009514Y-30814054D01*
X49057488Y-30763259D01*
X49125308Y-30746463D01*
X49191444Y-30768999D01*
G37*
%TD.AperFunction*%
%TD*%
M02*
