%TF.GenerationSoftware,KiCad,Pcbnew,9.0.0*%
%TF.CreationDate,2025-06-18T11:24:59+09:00*%
%TF.ProjectId,headlight_lower_side,68656164-6c69-4676-9874-5f6c6f776572,00*%
%TF.SameCoordinates,Original*%
%TF.FileFunction,Legend,Top*%
%TF.FilePolarity,Positive*%
%FSLAX46Y46*%
G04 Gerber Fmt 4.6, Leading zero omitted, Abs format (unit mm)*
G04 Created by KiCad (PCBNEW 9.0.0) date 2025-06-18 11:24:59*
%MOMM*%
%LPD*%
G01*
G04 APERTURE LIST*
G04 Aperture macros list*
%AMRoundRect*
0 Rectangle with rounded corners*
0 $1 Rounding radius*
0 $2 $3 $4 $5 $6 $7 $8 $9 X,Y pos of 4 corners*
0 Add a 4 corners polygon primitive as box body*
4,1,4,$2,$3,$4,$5,$6,$7,$8,$9,$2,$3,0*
0 Add four circle primitives for the rounded corners*
1,1,$1+$1,$2,$3*
1,1,$1+$1,$4,$5*
1,1,$1+$1,$6,$7*
1,1,$1+$1,$8,$9*
0 Add four rect primitives between the rounded corners*
20,1,$1+$1,$2,$3,$4,$5,0*
20,1,$1+$1,$4,$5,$6,$7,0*
20,1,$1+$1,$6,$7,$8,$9,0*
20,1,$1+$1,$8,$9,$2,$3,0*%
G04 Aperture macros list end*
%ADD10C,0.187500*%
%ADD11C,0.100000*%
%ADD12C,0.150000*%
%ADD13C,0.120000*%
%ADD14C,0.000000*%
%ADD15C,1.600000*%
%ADD16O,1.600000X1.600000*%
%ADD17C,3.200000*%
%ADD18RoundRect,0.250000X-0.450000X0.325000X-0.450000X-0.325000X0.450000X-0.325000X0.450000X0.325000X0*%
%ADD19RoundRect,0.250000X-0.725000X0.600000X-0.725000X-0.600000X0.725000X-0.600000X0.725000X0.600000X0*%
%ADD20O,1.950000X1.700000*%
%ADD21R,1.700000X1.700000*%
%ADD22O,1.700000X1.700000*%
%ADD23R,1.800000X1.800000*%
%ADD24C,1.800000*%
G04 APERTURE END LIST*
D10*
X60161450Y-87186916D02*
X60923355Y-87186916D01*
X60542402Y-87567869D02*
X60542402Y-86805964D01*
D11*
X44500000Y-87000000D02*
X44500000Y-84000000D01*
X55900000Y-62000000D02*
X55900000Y-49500000D01*
X44500000Y-37000000D02*
X44500000Y-34000000D01*
X38500000Y-84000000D02*
X38500000Y-90000000D01*
X44500000Y-84000000D02*
X38500000Y-84000000D01*
X46500000Y-98250000D02*
X46500000Y-27750000D01*
X55900000Y-74500000D02*
X62900000Y-74500000D01*
X64500000Y-43250000D02*
X64500000Y-80900000D01*
X54900000Y-98400000D02*
X54900000Y-90500000D01*
X54900000Y-90500000D02*
X62900000Y-90500000D01*
X55900000Y-49500000D02*
X62900000Y-49500000D01*
X38500000Y-90000000D02*
X44500000Y-90000000D01*
X44500000Y-40000000D02*
X44500000Y-37000000D01*
X38500000Y-40000000D02*
X44500000Y-40000000D01*
X62900000Y-35700000D02*
X62900000Y-98300000D01*
X44500000Y-90000000D02*
X44500000Y-87000000D01*
X55900000Y-62000000D02*
X55900000Y-74500000D01*
X38500000Y-34000000D02*
X38500000Y-40000000D01*
X44500000Y-34000000D02*
X38500000Y-34000000D01*
D10*
X38193321Y-44837640D02*
X38907607Y-44337640D01*
X38193321Y-43980497D02*
X39693321Y-43980497D01*
X39693321Y-43980497D02*
X39693321Y-44551926D01*
X39693321Y-44551926D02*
X39621892Y-44694783D01*
X39621892Y-44694783D02*
X39550464Y-44766212D01*
X39550464Y-44766212D02*
X39407607Y-44837640D01*
X39407607Y-44837640D02*
X39193321Y-44837640D01*
X39193321Y-44837640D02*
X39050464Y-44766212D01*
X39050464Y-44766212D02*
X38979035Y-44694783D01*
X38979035Y-44694783D02*
X38907607Y-44551926D01*
X38907607Y-44551926D02*
X38907607Y-43980497D01*
X38979035Y-45480497D02*
X38979035Y-45980497D01*
X38193321Y-46194783D02*
X38193321Y-45480497D01*
X38193321Y-45480497D02*
X39693321Y-45480497D01*
X39693321Y-45480497D02*
X39693321Y-46194783D01*
X39693321Y-46623355D02*
X38193321Y-47123355D01*
X38193321Y-47123355D02*
X39693321Y-47623355D01*
X39693321Y-48409069D02*
X39693321Y-48551926D01*
X39693321Y-48551926D02*
X39621892Y-48694783D01*
X39621892Y-48694783D02*
X39550464Y-48766212D01*
X39550464Y-48766212D02*
X39407607Y-48837640D01*
X39407607Y-48837640D02*
X39121892Y-48909069D01*
X39121892Y-48909069D02*
X38764750Y-48909069D01*
X38764750Y-48909069D02*
X38479035Y-48837640D01*
X38479035Y-48837640D02*
X38336178Y-48766212D01*
X38336178Y-48766212D02*
X38264750Y-48694783D01*
X38264750Y-48694783D02*
X38193321Y-48551926D01*
X38193321Y-48551926D02*
X38193321Y-48409069D01*
X38193321Y-48409069D02*
X38264750Y-48266212D01*
X38264750Y-48266212D02*
X38336178Y-48194783D01*
X38336178Y-48194783D02*
X38479035Y-48123354D01*
X38479035Y-48123354D02*
X38764750Y-48051926D01*
X38764750Y-48051926D02*
X39121892Y-48051926D01*
X39121892Y-48051926D02*
X39407607Y-48123354D01*
X39407607Y-48123354D02*
X39550464Y-48194783D01*
X39550464Y-48194783D02*
X39621892Y-48266212D01*
X39621892Y-48266212D02*
X39693321Y-48409069D01*
X39693321Y-49837640D02*
X39693321Y-49980497D01*
X39693321Y-49980497D02*
X39621892Y-50123354D01*
X39621892Y-50123354D02*
X39550464Y-50194783D01*
X39550464Y-50194783D02*
X39407607Y-50266211D01*
X39407607Y-50266211D02*
X39121892Y-50337640D01*
X39121892Y-50337640D02*
X38764750Y-50337640D01*
X38764750Y-50337640D02*
X38479035Y-50266211D01*
X38479035Y-50266211D02*
X38336178Y-50194783D01*
X38336178Y-50194783D02*
X38264750Y-50123354D01*
X38264750Y-50123354D02*
X38193321Y-49980497D01*
X38193321Y-49980497D02*
X38193321Y-49837640D01*
X38193321Y-49837640D02*
X38264750Y-49694783D01*
X38264750Y-49694783D02*
X38336178Y-49623354D01*
X38336178Y-49623354D02*
X38479035Y-49551925D01*
X38479035Y-49551925D02*
X38764750Y-49480497D01*
X38764750Y-49480497D02*
X39121892Y-49480497D01*
X39121892Y-49480497D02*
X39407607Y-49551925D01*
X39407607Y-49551925D02*
X39550464Y-49623354D01*
X39550464Y-49623354D02*
X39621892Y-49694783D01*
X39621892Y-49694783D02*
X39693321Y-49837640D01*
X40443321Y-51230497D02*
X41943321Y-51230497D01*
X41229035Y-51230497D02*
X41229035Y-52087640D01*
X40443321Y-52087640D02*
X41943321Y-52087640D01*
X41229035Y-52801926D02*
X41229035Y-53301926D01*
X40443321Y-53516212D02*
X40443321Y-52801926D01*
X40443321Y-52801926D02*
X41943321Y-52801926D01*
X41943321Y-52801926D02*
X41943321Y-53516212D01*
X40871892Y-54087641D02*
X40871892Y-54801927D01*
X40443321Y-53944784D02*
X41943321Y-54444784D01*
X41943321Y-54444784D02*
X40443321Y-54944784D01*
X40443321Y-55444783D02*
X41943321Y-55444783D01*
X41943321Y-55444783D02*
X41943321Y-55801926D01*
X41943321Y-55801926D02*
X41871892Y-56016212D01*
X41871892Y-56016212D02*
X41729035Y-56159069D01*
X41729035Y-56159069D02*
X41586178Y-56230498D01*
X41586178Y-56230498D02*
X41300464Y-56301926D01*
X41300464Y-56301926D02*
X41086178Y-56301926D01*
X41086178Y-56301926D02*
X40800464Y-56230498D01*
X40800464Y-56230498D02*
X40657607Y-56159069D01*
X40657607Y-56159069D02*
X40514750Y-56016212D01*
X40514750Y-56016212D02*
X40443321Y-55801926D01*
X40443321Y-55801926D02*
X40443321Y-55444783D01*
X40443321Y-57659069D02*
X40443321Y-56944783D01*
X40443321Y-56944783D02*
X41943321Y-56944783D01*
X40443321Y-58159069D02*
X41943321Y-58159069D01*
X41871892Y-59659070D02*
X41943321Y-59516213D01*
X41943321Y-59516213D02*
X41943321Y-59301927D01*
X41943321Y-59301927D02*
X41871892Y-59087641D01*
X41871892Y-59087641D02*
X41729035Y-58944784D01*
X41729035Y-58944784D02*
X41586178Y-58873355D01*
X41586178Y-58873355D02*
X41300464Y-58801927D01*
X41300464Y-58801927D02*
X41086178Y-58801927D01*
X41086178Y-58801927D02*
X40800464Y-58873355D01*
X40800464Y-58873355D02*
X40657607Y-58944784D01*
X40657607Y-58944784D02*
X40514750Y-59087641D01*
X40514750Y-59087641D02*
X40443321Y-59301927D01*
X40443321Y-59301927D02*
X40443321Y-59444784D01*
X40443321Y-59444784D02*
X40514750Y-59659070D01*
X40514750Y-59659070D02*
X40586178Y-59730498D01*
X40586178Y-59730498D02*
X41086178Y-59730498D01*
X41086178Y-59730498D02*
X41086178Y-59444784D01*
X40443321Y-60373355D02*
X41943321Y-60373355D01*
X41229035Y-60373355D02*
X41229035Y-61230498D01*
X40443321Y-61230498D02*
X41943321Y-61230498D01*
X41943321Y-61730499D02*
X41943321Y-62587642D01*
X40443321Y-62159070D02*
X41943321Y-62159070D01*
X40443321Y-64944784D02*
X40443321Y-64230498D01*
X40443321Y-64230498D02*
X41943321Y-64230498D01*
X41943321Y-65730499D02*
X41943321Y-66016213D01*
X41943321Y-66016213D02*
X41871892Y-66159070D01*
X41871892Y-66159070D02*
X41729035Y-66301927D01*
X41729035Y-66301927D02*
X41443321Y-66373356D01*
X41443321Y-66373356D02*
X40943321Y-66373356D01*
X40943321Y-66373356D02*
X40657607Y-66301927D01*
X40657607Y-66301927D02*
X40514750Y-66159070D01*
X40514750Y-66159070D02*
X40443321Y-66016213D01*
X40443321Y-66016213D02*
X40443321Y-65730499D01*
X40443321Y-65730499D02*
X40514750Y-65587642D01*
X40514750Y-65587642D02*
X40657607Y-65444784D01*
X40657607Y-65444784D02*
X40943321Y-65373356D01*
X40943321Y-65373356D02*
X41443321Y-65373356D01*
X41443321Y-65373356D02*
X41729035Y-65444784D01*
X41729035Y-65444784D02*
X41871892Y-65587642D01*
X41871892Y-65587642D02*
X41943321Y-65730499D01*
X41943321Y-66873356D02*
X40443321Y-67230499D01*
X40443321Y-67230499D02*
X41514750Y-67516213D01*
X41514750Y-67516213D02*
X40443321Y-67801928D01*
X40443321Y-67801928D02*
X41943321Y-68159071D01*
X41229035Y-68730499D02*
X41229035Y-69230499D01*
X40443321Y-69444785D02*
X40443321Y-68730499D01*
X40443321Y-68730499D02*
X41943321Y-68730499D01*
X41943321Y-68730499D02*
X41943321Y-69444785D01*
X40443321Y-70944785D02*
X41157607Y-70444785D01*
X40443321Y-70087642D02*
X41943321Y-70087642D01*
X41943321Y-70087642D02*
X41943321Y-70659071D01*
X41943321Y-70659071D02*
X41871892Y-70801928D01*
X41871892Y-70801928D02*
X41800464Y-70873357D01*
X41800464Y-70873357D02*
X41657607Y-70944785D01*
X41657607Y-70944785D02*
X41443321Y-70944785D01*
X41443321Y-70944785D02*
X41300464Y-70873357D01*
X41300464Y-70873357D02*
X41229035Y-70801928D01*
X41229035Y-70801928D02*
X41157607Y-70659071D01*
X41157607Y-70659071D02*
X41157607Y-70087642D01*
X40514750Y-72659071D02*
X40443321Y-72873357D01*
X40443321Y-72873357D02*
X40443321Y-73230499D01*
X40443321Y-73230499D02*
X40514750Y-73373357D01*
X40514750Y-73373357D02*
X40586178Y-73444785D01*
X40586178Y-73444785D02*
X40729035Y-73516214D01*
X40729035Y-73516214D02*
X40871892Y-73516214D01*
X40871892Y-73516214D02*
X41014750Y-73444785D01*
X41014750Y-73444785D02*
X41086178Y-73373357D01*
X41086178Y-73373357D02*
X41157607Y-73230499D01*
X41157607Y-73230499D02*
X41229035Y-72944785D01*
X41229035Y-72944785D02*
X41300464Y-72801928D01*
X41300464Y-72801928D02*
X41371892Y-72730499D01*
X41371892Y-72730499D02*
X41514750Y-72659071D01*
X41514750Y-72659071D02*
X41657607Y-72659071D01*
X41657607Y-72659071D02*
X41800464Y-72730499D01*
X41800464Y-72730499D02*
X41871892Y-72801928D01*
X41871892Y-72801928D02*
X41943321Y-72944785D01*
X41943321Y-72944785D02*
X41943321Y-73301928D01*
X41943321Y-73301928D02*
X41871892Y-73516214D01*
X40443321Y-74159070D02*
X41943321Y-74159070D01*
X40443321Y-74873356D02*
X41943321Y-74873356D01*
X41943321Y-74873356D02*
X41943321Y-75230499D01*
X41943321Y-75230499D02*
X41871892Y-75444785D01*
X41871892Y-75444785D02*
X41729035Y-75587642D01*
X41729035Y-75587642D02*
X41586178Y-75659071D01*
X41586178Y-75659071D02*
X41300464Y-75730499D01*
X41300464Y-75730499D02*
X41086178Y-75730499D01*
X41086178Y-75730499D02*
X40800464Y-75659071D01*
X40800464Y-75659071D02*
X40657607Y-75587642D01*
X40657607Y-75587642D02*
X40514750Y-75444785D01*
X40514750Y-75444785D02*
X40443321Y-75230499D01*
X40443321Y-75230499D02*
X40443321Y-74873356D01*
X41229035Y-76373356D02*
X41229035Y-76873356D01*
X40443321Y-77087642D02*
X40443321Y-76373356D01*
X40443321Y-76373356D02*
X41943321Y-76373356D01*
X41943321Y-76373356D02*
X41943321Y-77087642D01*
X40443321Y-78873356D02*
X41943321Y-78873356D01*
X41943321Y-78873356D02*
X41943321Y-79444785D01*
X41943321Y-79444785D02*
X41871892Y-79587642D01*
X41871892Y-79587642D02*
X41800464Y-79659071D01*
X41800464Y-79659071D02*
X41657607Y-79730499D01*
X41657607Y-79730499D02*
X41443321Y-79730499D01*
X41443321Y-79730499D02*
X41300464Y-79659071D01*
X41300464Y-79659071D02*
X41229035Y-79587642D01*
X41229035Y-79587642D02*
X41157607Y-79444785D01*
X41157607Y-79444785D02*
X41157607Y-78873356D01*
X40586178Y-81230499D02*
X40514750Y-81159071D01*
X40514750Y-81159071D02*
X40443321Y-80944785D01*
X40443321Y-80944785D02*
X40443321Y-80801928D01*
X40443321Y-80801928D02*
X40514750Y-80587642D01*
X40514750Y-80587642D02*
X40657607Y-80444785D01*
X40657607Y-80444785D02*
X40800464Y-80373356D01*
X40800464Y-80373356D02*
X41086178Y-80301928D01*
X41086178Y-80301928D02*
X41300464Y-80301928D01*
X41300464Y-80301928D02*
X41586178Y-80373356D01*
X41586178Y-80373356D02*
X41729035Y-80444785D01*
X41729035Y-80444785D02*
X41871892Y-80587642D01*
X41871892Y-80587642D02*
X41943321Y-80801928D01*
X41943321Y-80801928D02*
X41943321Y-80944785D01*
X41943321Y-80944785D02*
X41871892Y-81159071D01*
X41871892Y-81159071D02*
X41800464Y-81230499D01*
X41229035Y-82373356D02*
X41157607Y-82587642D01*
X41157607Y-82587642D02*
X41086178Y-82659071D01*
X41086178Y-82659071D02*
X40943321Y-82730499D01*
X40943321Y-82730499D02*
X40729035Y-82730499D01*
X40729035Y-82730499D02*
X40586178Y-82659071D01*
X40586178Y-82659071D02*
X40514750Y-82587642D01*
X40514750Y-82587642D02*
X40443321Y-82444785D01*
X40443321Y-82444785D02*
X40443321Y-81873356D01*
X40443321Y-81873356D02*
X41943321Y-81873356D01*
X41943321Y-81873356D02*
X41943321Y-82373356D01*
X41943321Y-82373356D02*
X41871892Y-82516214D01*
X41871892Y-82516214D02*
X41800464Y-82587642D01*
X41800464Y-82587642D02*
X41657607Y-82659071D01*
X41657607Y-82659071D02*
X41514750Y-82659071D01*
X41514750Y-82659071D02*
X41371892Y-82587642D01*
X41371892Y-82587642D02*
X41300464Y-82516214D01*
X41300464Y-82516214D02*
X41229035Y-82373356D01*
X41229035Y-82373356D02*
X41229035Y-81873356D01*
D12*
X59356371Y-58277255D02*
X58880180Y-58277255D01*
X59880180Y-57943922D02*
X59356371Y-58277255D01*
X59356371Y-58277255D02*
X59880180Y-58610588D01*
X58880180Y-58943922D02*
X59880180Y-58943922D01*
X59880180Y-58943922D02*
X59880180Y-59182017D01*
X59880180Y-59182017D02*
X59832561Y-59324874D01*
X59832561Y-59324874D02*
X59737323Y-59420112D01*
X59737323Y-59420112D02*
X59642085Y-59467731D01*
X59642085Y-59467731D02*
X59451609Y-59515350D01*
X59451609Y-59515350D02*
X59308752Y-59515350D01*
X59308752Y-59515350D02*
X59118276Y-59467731D01*
X59118276Y-59467731D02*
X59023038Y-59420112D01*
X59023038Y-59420112D02*
X58927800Y-59324874D01*
X58927800Y-59324874D02*
X58880180Y-59182017D01*
X58880180Y-59182017D02*
X58880180Y-58943922D01*
X58880180Y-59943922D02*
X59880180Y-59943922D01*
X59880180Y-59943922D02*
X59165895Y-60277255D01*
X59165895Y-60277255D02*
X59880180Y-60610588D01*
X59880180Y-60610588D02*
X58880180Y-60610588D01*
X59784942Y-61039160D02*
X59832561Y-61086779D01*
X59832561Y-61086779D02*
X59880180Y-61182017D01*
X59880180Y-61182017D02*
X59880180Y-61420112D01*
X59880180Y-61420112D02*
X59832561Y-61515350D01*
X59832561Y-61515350D02*
X59784942Y-61562969D01*
X59784942Y-61562969D02*
X59689704Y-61610588D01*
X59689704Y-61610588D02*
X59594466Y-61610588D01*
X59594466Y-61610588D02*
X59451609Y-61562969D01*
X59451609Y-61562969D02*
X58880180Y-60991541D01*
X58880180Y-60991541D02*
X58880180Y-61610588D01*
X59880180Y-62515350D02*
X59880180Y-62039160D01*
X59880180Y-62039160D02*
X59403990Y-61991541D01*
X59403990Y-61991541D02*
X59451609Y-62039160D01*
X59451609Y-62039160D02*
X59499228Y-62134398D01*
X59499228Y-62134398D02*
X59499228Y-62372493D01*
X59499228Y-62372493D02*
X59451609Y-62467731D01*
X59451609Y-62467731D02*
X59403990Y-62515350D01*
X59403990Y-62515350D02*
X59308752Y-62562969D01*
X59308752Y-62562969D02*
X59070657Y-62562969D01*
X59070657Y-62562969D02*
X58975419Y-62515350D01*
X58975419Y-62515350D02*
X58927800Y-62467731D01*
X58927800Y-62467731D02*
X58880180Y-62372493D01*
X58880180Y-62372493D02*
X58880180Y-62134398D01*
X58880180Y-62134398D02*
X58927800Y-62039160D01*
X58927800Y-62039160D02*
X58975419Y-61991541D01*
X59880180Y-63182017D02*
X59880180Y-63277255D01*
X59880180Y-63277255D02*
X59832561Y-63372493D01*
X59832561Y-63372493D02*
X59784942Y-63420112D01*
X59784942Y-63420112D02*
X59689704Y-63467731D01*
X59689704Y-63467731D02*
X59499228Y-63515350D01*
X59499228Y-63515350D02*
X59261133Y-63515350D01*
X59261133Y-63515350D02*
X59070657Y-63467731D01*
X59070657Y-63467731D02*
X58975419Y-63420112D01*
X58975419Y-63420112D02*
X58927800Y-63372493D01*
X58927800Y-63372493D02*
X58880180Y-63277255D01*
X58880180Y-63277255D02*
X58880180Y-63182017D01*
X58880180Y-63182017D02*
X58927800Y-63086779D01*
X58927800Y-63086779D02*
X58975419Y-63039160D01*
X58975419Y-63039160D02*
X59070657Y-62991541D01*
X59070657Y-62991541D02*
X59261133Y-62943922D01*
X59261133Y-62943922D02*
X59499228Y-62943922D01*
X59499228Y-62943922D02*
X59689704Y-62991541D01*
X59689704Y-62991541D02*
X59784942Y-63039160D01*
X59784942Y-63039160D02*
X59832561Y-63086779D01*
X59832561Y-63086779D02*
X59880180Y-63182017D01*
X59880180Y-63848684D02*
X59880180Y-64515350D01*
X59880180Y-64515350D02*
X58880180Y-64086779D01*
X58975419Y-65467731D02*
X58927800Y-65420112D01*
X58927800Y-65420112D02*
X58880180Y-65277255D01*
X58880180Y-65277255D02*
X58880180Y-65182017D01*
X58880180Y-65182017D02*
X58927800Y-65039160D01*
X58927800Y-65039160D02*
X59023038Y-64943922D01*
X59023038Y-64943922D02*
X59118276Y-64896303D01*
X59118276Y-64896303D02*
X59308752Y-64848684D01*
X59308752Y-64848684D02*
X59451609Y-64848684D01*
X59451609Y-64848684D02*
X59642085Y-64896303D01*
X59642085Y-64896303D02*
X59737323Y-64943922D01*
X59737323Y-64943922D02*
X59832561Y-65039160D01*
X59832561Y-65039160D02*
X59880180Y-65182017D01*
X59880180Y-65182017D02*
X59880180Y-65277255D01*
X59880180Y-65277255D02*
X59832561Y-65420112D01*
X59832561Y-65420112D02*
X59784942Y-65467731D01*
X59880180Y-66086779D02*
X59880180Y-66182017D01*
X59880180Y-66182017D02*
X59832561Y-66277255D01*
X59832561Y-66277255D02*
X59784942Y-66324874D01*
X59784942Y-66324874D02*
X59689704Y-66372493D01*
X59689704Y-66372493D02*
X59499228Y-66420112D01*
X59499228Y-66420112D02*
X59261133Y-66420112D01*
X59261133Y-66420112D02*
X59070657Y-66372493D01*
X59070657Y-66372493D02*
X58975419Y-66324874D01*
X58975419Y-66324874D02*
X58927800Y-66277255D01*
X58927800Y-66277255D02*
X58880180Y-66182017D01*
X58880180Y-66182017D02*
X58880180Y-66086779D01*
X58880180Y-66086779D02*
X58927800Y-65991541D01*
X58927800Y-65991541D02*
X58975419Y-65943922D01*
X58975419Y-65943922D02*
X59070657Y-65896303D01*
X59070657Y-65896303D02*
X59261133Y-65848684D01*
X59261133Y-65848684D02*
X59499228Y-65848684D01*
X59499228Y-65848684D02*
X59689704Y-65896303D01*
X59689704Y-65896303D02*
X59784942Y-65943922D01*
X59784942Y-65943922D02*
X59832561Y-65991541D01*
X59832561Y-65991541D02*
X59880180Y-66086779D01*
X59880180Y-67324874D02*
X59880180Y-66848684D01*
X59880180Y-66848684D02*
X59403990Y-66801065D01*
X59403990Y-66801065D02*
X59451609Y-66848684D01*
X59451609Y-66848684D02*
X59499228Y-66943922D01*
X59499228Y-66943922D02*
X59499228Y-67182017D01*
X59499228Y-67182017D02*
X59451609Y-67277255D01*
X59451609Y-67277255D02*
X59403990Y-67324874D01*
X59403990Y-67324874D02*
X59308752Y-67372493D01*
X59308752Y-67372493D02*
X59070657Y-67372493D01*
X59070657Y-67372493D02*
X58975419Y-67324874D01*
X58975419Y-67324874D02*
X58927800Y-67277255D01*
X58927800Y-67277255D02*
X58880180Y-67182017D01*
X58880180Y-67182017D02*
X58880180Y-66943922D01*
X58880180Y-66943922D02*
X58927800Y-66848684D01*
X58927800Y-66848684D02*
X58975419Y-66801065D01*
X59403990Y-68134398D02*
X59403990Y-67801065D01*
X58880180Y-67801065D02*
X59880180Y-67801065D01*
X59880180Y-67801065D02*
X59880180Y-68277255D01*
X75704819Y-57666666D02*
X75228628Y-57999999D01*
X75704819Y-58238094D02*
X74704819Y-58238094D01*
X74704819Y-58238094D02*
X74704819Y-57857142D01*
X74704819Y-57857142D02*
X74752438Y-57761904D01*
X74752438Y-57761904D02*
X74800057Y-57714285D01*
X74800057Y-57714285D02*
X74895295Y-57666666D01*
X74895295Y-57666666D02*
X75038152Y-57666666D01*
X75038152Y-57666666D02*
X75133390Y-57714285D01*
X75133390Y-57714285D02*
X75181009Y-57761904D01*
X75181009Y-57761904D02*
X75228628Y-57857142D01*
X75228628Y-57857142D02*
X75228628Y-58238094D01*
X74704819Y-56761904D02*
X74704819Y-57238094D01*
X74704819Y-57238094D02*
X75181009Y-57285713D01*
X75181009Y-57285713D02*
X75133390Y-57238094D01*
X75133390Y-57238094D02*
X75085771Y-57142856D01*
X75085771Y-57142856D02*
X75085771Y-56904761D01*
X75085771Y-56904761D02*
X75133390Y-56809523D01*
X75133390Y-56809523D02*
X75181009Y-56761904D01*
X75181009Y-56761904D02*
X75276247Y-56714285D01*
X75276247Y-56714285D02*
X75514342Y-56714285D01*
X75514342Y-56714285D02*
X75609580Y-56761904D01*
X75609580Y-56761904D02*
X75657200Y-56809523D01*
X75657200Y-56809523D02*
X75704819Y-56904761D01*
X75704819Y-56904761D02*
X75704819Y-57142856D01*
X75704819Y-57142856D02*
X75657200Y-57238094D01*
X75657200Y-57238094D02*
X75609580Y-57285713D01*
X101833333Y-77084819D02*
X101500000Y-76608628D01*
X101261905Y-77084819D02*
X101261905Y-76084819D01*
X101261905Y-76084819D02*
X101642857Y-76084819D01*
X101642857Y-76084819D02*
X101738095Y-76132438D01*
X101738095Y-76132438D02*
X101785714Y-76180057D01*
X101785714Y-76180057D02*
X101833333Y-76275295D01*
X101833333Y-76275295D02*
X101833333Y-76418152D01*
X101833333Y-76418152D02*
X101785714Y-76513390D01*
X101785714Y-76513390D02*
X101738095Y-76561009D01*
X101738095Y-76561009D02*
X101642857Y-76608628D01*
X101642857Y-76608628D02*
X101261905Y-76608628D01*
X102214286Y-76180057D02*
X102261905Y-76132438D01*
X102261905Y-76132438D02*
X102357143Y-76084819D01*
X102357143Y-76084819D02*
X102595238Y-76084819D01*
X102595238Y-76084819D02*
X102690476Y-76132438D01*
X102690476Y-76132438D02*
X102738095Y-76180057D01*
X102738095Y-76180057D02*
X102785714Y-76275295D01*
X102785714Y-76275295D02*
X102785714Y-76370533D01*
X102785714Y-76370533D02*
X102738095Y-76513390D01*
X102738095Y-76513390D02*
X102166667Y-77084819D01*
X102166667Y-77084819D02*
X102785714Y-77084819D01*
X57454819Y-76666666D02*
X56978628Y-76999999D01*
X57454819Y-77238094D02*
X56454819Y-77238094D01*
X56454819Y-77238094D02*
X56454819Y-76857142D01*
X56454819Y-76857142D02*
X56502438Y-76761904D01*
X56502438Y-76761904D02*
X56550057Y-76714285D01*
X56550057Y-76714285D02*
X56645295Y-76666666D01*
X56645295Y-76666666D02*
X56788152Y-76666666D01*
X56788152Y-76666666D02*
X56883390Y-76714285D01*
X56883390Y-76714285D02*
X56931009Y-76761904D01*
X56931009Y-76761904D02*
X56978628Y-76857142D01*
X56978628Y-76857142D02*
X56978628Y-77238094D01*
X56454819Y-76333332D02*
X56454819Y-75666666D01*
X56454819Y-75666666D02*
X57454819Y-76095237D01*
X101833333Y-47954819D02*
X101500000Y-47478628D01*
X101261905Y-47954819D02*
X101261905Y-46954819D01*
X101261905Y-46954819D02*
X101642857Y-46954819D01*
X101642857Y-46954819D02*
X101738095Y-47002438D01*
X101738095Y-47002438D02*
X101785714Y-47050057D01*
X101785714Y-47050057D02*
X101833333Y-47145295D01*
X101833333Y-47145295D02*
X101833333Y-47288152D01*
X101833333Y-47288152D02*
X101785714Y-47383390D01*
X101785714Y-47383390D02*
X101738095Y-47431009D01*
X101738095Y-47431009D02*
X101642857Y-47478628D01*
X101642857Y-47478628D02*
X101261905Y-47478628D01*
X102785714Y-47954819D02*
X102214286Y-47954819D01*
X102500000Y-47954819D02*
X102500000Y-46954819D01*
X102500000Y-46954819D02*
X102404762Y-47097676D01*
X102404762Y-47097676D02*
X102309524Y-47192914D01*
X102309524Y-47192914D02*
X102214286Y-47240533D01*
X67454819Y-66466666D02*
X66978628Y-66799999D01*
X67454819Y-67038094D02*
X66454819Y-67038094D01*
X66454819Y-67038094D02*
X66454819Y-66657142D01*
X66454819Y-66657142D02*
X66502438Y-66561904D01*
X66502438Y-66561904D02*
X66550057Y-66514285D01*
X66550057Y-66514285D02*
X66645295Y-66466666D01*
X66645295Y-66466666D02*
X66788152Y-66466666D01*
X66788152Y-66466666D02*
X66883390Y-66514285D01*
X66883390Y-66514285D02*
X66931009Y-66561904D01*
X66931009Y-66561904D02*
X66978628Y-66657142D01*
X66978628Y-66657142D02*
X66978628Y-67038094D01*
X66454819Y-65609523D02*
X66454819Y-65799999D01*
X66454819Y-65799999D02*
X66502438Y-65895237D01*
X66502438Y-65895237D02*
X66550057Y-65942856D01*
X66550057Y-65942856D02*
X66692914Y-66038094D01*
X66692914Y-66038094D02*
X66883390Y-66085713D01*
X66883390Y-66085713D02*
X67264342Y-66085713D01*
X67264342Y-66085713D02*
X67359580Y-66038094D01*
X67359580Y-66038094D02*
X67407200Y-65990475D01*
X67407200Y-65990475D02*
X67454819Y-65895237D01*
X67454819Y-65895237D02*
X67454819Y-65704761D01*
X67454819Y-65704761D02*
X67407200Y-65609523D01*
X67407200Y-65609523D02*
X67359580Y-65561904D01*
X67359580Y-65561904D02*
X67264342Y-65514285D01*
X67264342Y-65514285D02*
X67026247Y-65514285D01*
X67026247Y-65514285D02*
X66931009Y-65561904D01*
X66931009Y-65561904D02*
X66883390Y-65609523D01*
X66883390Y-65609523D02*
X66835771Y-65704761D01*
X66835771Y-65704761D02*
X66835771Y-65895237D01*
X66835771Y-65895237D02*
X66883390Y-65990475D01*
X66883390Y-65990475D02*
X66931009Y-66038094D01*
X66931009Y-66038094D02*
X67026247Y-66085713D01*
X60954819Y-81809523D02*
X59954819Y-81809523D01*
X59954819Y-81809523D02*
X59954819Y-81428571D01*
X59954819Y-81428571D02*
X60002438Y-81333333D01*
X60002438Y-81333333D02*
X60050057Y-81285714D01*
X60050057Y-81285714D02*
X60145295Y-81238095D01*
X60145295Y-81238095D02*
X60288152Y-81238095D01*
X60288152Y-81238095D02*
X60383390Y-81285714D01*
X60383390Y-81285714D02*
X60431009Y-81333333D01*
X60431009Y-81333333D02*
X60478628Y-81428571D01*
X60478628Y-81428571D02*
X60478628Y-81809523D01*
X59954819Y-80904761D02*
X60954819Y-80666666D01*
X60954819Y-80666666D02*
X60240533Y-80476190D01*
X60240533Y-80476190D02*
X60954819Y-80285714D01*
X60954819Y-80285714D02*
X59954819Y-80047619D01*
X60954819Y-79095238D02*
X60478628Y-79428571D01*
X60954819Y-79666666D02*
X59954819Y-79666666D01*
X59954819Y-79666666D02*
X59954819Y-79285714D01*
X59954819Y-79285714D02*
X60002438Y-79190476D01*
X60002438Y-79190476D02*
X60050057Y-79142857D01*
X60050057Y-79142857D02*
X60145295Y-79095238D01*
X60145295Y-79095238D02*
X60288152Y-79095238D01*
X60288152Y-79095238D02*
X60383390Y-79142857D01*
X60383390Y-79142857D02*
X60431009Y-79190476D01*
X60431009Y-79190476D02*
X60478628Y-79285714D01*
X60478628Y-79285714D02*
X60478628Y-79666666D01*
X60954819Y-78142857D02*
X60954819Y-78714285D01*
X60954819Y-78428571D02*
X59954819Y-78428571D01*
X59954819Y-78428571D02*
X60097676Y-78523809D01*
X60097676Y-78523809D02*
X60192914Y-78619047D01*
X60192914Y-78619047D02*
X60240533Y-78714285D01*
X86833333Y-77084819D02*
X86500000Y-76608628D01*
X86261905Y-77084819D02*
X86261905Y-76084819D01*
X86261905Y-76084819D02*
X86642857Y-76084819D01*
X86642857Y-76084819D02*
X86738095Y-76132438D01*
X86738095Y-76132438D02*
X86785714Y-76180057D01*
X86785714Y-76180057D02*
X86833333Y-76275295D01*
X86833333Y-76275295D02*
X86833333Y-76418152D01*
X86833333Y-76418152D02*
X86785714Y-76513390D01*
X86785714Y-76513390D02*
X86738095Y-76561009D01*
X86738095Y-76561009D02*
X86642857Y-76608628D01*
X86642857Y-76608628D02*
X86261905Y-76608628D01*
X87690476Y-76418152D02*
X87690476Y-77084819D01*
X87452381Y-76037200D02*
X87214286Y-76751485D01*
X87214286Y-76751485D02*
X87833333Y-76751485D01*
X86833333Y-47954819D02*
X86500000Y-47478628D01*
X86261905Y-47954819D02*
X86261905Y-46954819D01*
X86261905Y-46954819D02*
X86642857Y-46954819D01*
X86642857Y-46954819D02*
X86738095Y-47002438D01*
X86738095Y-47002438D02*
X86785714Y-47050057D01*
X86785714Y-47050057D02*
X86833333Y-47145295D01*
X86833333Y-47145295D02*
X86833333Y-47288152D01*
X86833333Y-47288152D02*
X86785714Y-47383390D01*
X86785714Y-47383390D02*
X86738095Y-47431009D01*
X86738095Y-47431009D02*
X86642857Y-47478628D01*
X86642857Y-47478628D02*
X86261905Y-47478628D01*
X87166667Y-46954819D02*
X87785714Y-46954819D01*
X87785714Y-46954819D02*
X87452381Y-47335771D01*
X87452381Y-47335771D02*
X87595238Y-47335771D01*
X87595238Y-47335771D02*
X87690476Y-47383390D01*
X87690476Y-47383390D02*
X87738095Y-47431009D01*
X87738095Y-47431009D02*
X87785714Y-47526247D01*
X87785714Y-47526247D02*
X87785714Y-47764342D01*
X87785714Y-47764342D02*
X87738095Y-47859580D01*
X87738095Y-47859580D02*
X87690476Y-47907200D01*
X87690476Y-47907200D02*
X87595238Y-47954819D01*
X87595238Y-47954819D02*
X87309524Y-47954819D01*
X87309524Y-47954819D02*
X87214286Y-47907200D01*
X87214286Y-47907200D02*
X87166667Y-47859580D01*
X50666666Y-90454819D02*
X50666666Y-91169104D01*
X50666666Y-91169104D02*
X50619047Y-91311961D01*
X50619047Y-91311961D02*
X50523809Y-91407200D01*
X50523809Y-91407200D02*
X50380952Y-91454819D01*
X50380952Y-91454819D02*
X50285714Y-91454819D01*
X51666666Y-91454819D02*
X51095238Y-91454819D01*
X51380952Y-91454819D02*
X51380952Y-90454819D01*
X51380952Y-90454819D02*
X51285714Y-90597676D01*
X51285714Y-90597676D02*
X51190476Y-90692914D01*
X51190476Y-90692914D02*
X51095238Y-90740533D01*
X50166666Y-35454819D02*
X50166666Y-36169104D01*
X50166666Y-36169104D02*
X50119047Y-36311961D01*
X50119047Y-36311961D02*
X50023809Y-36407200D01*
X50023809Y-36407200D02*
X49880952Y-36454819D01*
X49880952Y-36454819D02*
X49785714Y-36454819D01*
X50595238Y-35550057D02*
X50642857Y-35502438D01*
X50642857Y-35502438D02*
X50738095Y-35454819D01*
X50738095Y-35454819D02*
X50976190Y-35454819D01*
X50976190Y-35454819D02*
X51071428Y-35502438D01*
X51071428Y-35502438D02*
X51119047Y-35550057D01*
X51119047Y-35550057D02*
X51166666Y-35645295D01*
X51166666Y-35645295D02*
X51166666Y-35740533D01*
X51166666Y-35740533D02*
X51119047Y-35883390D01*
X51119047Y-35883390D02*
X50547619Y-36454819D01*
X50547619Y-36454819D02*
X51166666Y-36454819D01*
D13*
%TO.C,R5*%
X76630000Y-54230000D02*
X76630000Y-60770000D01*
X76630000Y-60770000D02*
X79370000Y-60770000D01*
X78000000Y-53460000D02*
X78000000Y-54230000D01*
X78000000Y-61540000D02*
X78000000Y-60770000D01*
X79370000Y-54230000D02*
X76630000Y-54230000D01*
X79370000Y-60770000D02*
X79370000Y-54230000D01*
%TO.C,R2*%
X97960000Y-79000000D02*
X98730000Y-79000000D01*
X98730000Y-77630000D02*
X98730000Y-80370000D01*
X98730000Y-80370000D02*
X105270000Y-80370000D01*
X105270000Y-77630000D02*
X98730000Y-77630000D01*
X105270000Y-80370000D02*
X105270000Y-77630000D01*
X106040000Y-79000000D02*
X105270000Y-79000000D01*
%TO.C,R7*%
X55630000Y-80730000D02*
X55630000Y-87270000D01*
X55630000Y-87270000D02*
X58370000Y-87270000D01*
X57000000Y-79960000D02*
X57000000Y-80730000D01*
X57000000Y-88040000D02*
X57000000Y-87270000D01*
X58370000Y-80730000D02*
X55630000Y-80730000D01*
X58370000Y-87270000D02*
X58370000Y-80730000D01*
%TO.C,R1*%
X97960000Y-45000000D02*
X98730000Y-45000000D01*
X98730000Y-43630000D02*
X98730000Y-46370000D01*
X98730000Y-46370000D02*
X105270000Y-46370000D01*
X105270000Y-43630000D02*
X98730000Y-43630000D01*
X105270000Y-46370000D02*
X105270000Y-43630000D01*
X106040000Y-45000000D02*
X105270000Y-45000000D01*
D14*
%TO.C,G\u002A\u002A\u002A*%
G36*
X42828662Y-41733178D02*
G01*
X42865244Y-41770225D01*
X42913384Y-41819171D01*
X42972359Y-41879276D01*
X43041450Y-41949799D01*
X43119933Y-42030000D01*
X43207088Y-42119137D01*
X43302195Y-42216470D01*
X43404531Y-42321259D01*
X43513376Y-42432761D01*
X43628007Y-42550238D01*
X43747705Y-42672947D01*
X43871748Y-42800149D01*
X43999414Y-42931102D01*
X44129983Y-43065066D01*
X44262732Y-43201299D01*
X44396942Y-43339062D01*
X44531890Y-43477613D01*
X44666856Y-43616212D01*
X44801118Y-43754118D01*
X44933955Y-43890590D01*
X45064646Y-44024888D01*
X45192469Y-44156270D01*
X45316704Y-44283996D01*
X45436629Y-44407326D01*
X45551522Y-44525518D01*
X45660664Y-44637831D01*
X45763331Y-44743526D01*
X45858805Y-44841860D01*
X45946362Y-44932094D01*
X46025282Y-45013487D01*
X46094843Y-45085298D01*
X46154325Y-45146786D01*
X46203006Y-45197211D01*
X46240165Y-45235831D01*
X46265080Y-45261906D01*
X46277031Y-45274695D01*
X46278021Y-45275924D01*
X46268369Y-45272886D01*
X46241290Y-45263003D01*
X46197980Y-45246737D01*
X46139639Y-45224550D01*
X46067463Y-45196905D01*
X45982651Y-45164263D01*
X45886400Y-45127086D01*
X45779910Y-45085837D01*
X45664376Y-45040977D01*
X45540998Y-44992969D01*
X45410973Y-44942274D01*
X45275500Y-44889356D01*
X45254674Y-44881212D01*
X45118406Y-44827980D01*
X44987350Y-44776903D01*
X44862708Y-44728445D01*
X44745684Y-44683068D01*
X44637482Y-44641233D01*
X44539304Y-44603405D01*
X44452354Y-44570045D01*
X44377835Y-44541617D01*
X44316951Y-44518581D01*
X44270904Y-44501402D01*
X44240898Y-44490542D01*
X44228136Y-44486463D01*
X44227787Y-44486463D01*
X44226950Y-44496732D01*
X44226140Y-44525940D01*
X44225361Y-44573018D01*
X44224618Y-44636895D01*
X44223916Y-44716504D01*
X44223261Y-44810774D01*
X44222658Y-44918636D01*
X44222111Y-45039022D01*
X44221626Y-45170861D01*
X44221207Y-45313085D01*
X44220860Y-45464624D01*
X44220590Y-45624410D01*
X44220402Y-45791372D01*
X44220301Y-45964442D01*
X44220284Y-46070420D01*
X44220235Y-46246560D01*
X44220090Y-46417187D01*
X44219856Y-46581237D01*
X44219537Y-46737643D01*
X44219139Y-46885340D01*
X44218668Y-47023263D01*
X44218128Y-47150345D01*
X44217525Y-47265521D01*
X44216864Y-47367724D01*
X44216151Y-47455891D01*
X44215391Y-47528954D01*
X44214589Y-47585847D01*
X44213751Y-47625506D01*
X44212883Y-47646865D01*
X44212347Y-47650452D01*
X44200470Y-47646915D01*
X44173981Y-47637280D01*
X44136789Y-47623017D01*
X44092806Y-47605592D01*
X44092414Y-47605435D01*
X44048426Y-47587994D01*
X44011235Y-47573700D01*
X43984738Y-47564019D01*
X43972832Y-47560417D01*
X43972801Y-47560417D01*
X43969606Y-47569723D01*
X43966995Y-47594852D01*
X43965293Y-47631622D01*
X43964815Y-47662957D01*
X43964446Y-47765498D01*
X43902559Y-47890547D01*
X43861764Y-47978714D01*
X43832553Y-48056764D01*
X43813683Y-48129934D01*
X43803912Y-48203463D01*
X43801996Y-48282589D01*
X43802871Y-48310712D01*
X43808697Y-48390188D01*
X43818774Y-48451473D01*
X43827183Y-48480779D01*
X43846625Y-48535801D01*
X44033454Y-48609977D01*
X44220284Y-48684154D01*
X44220284Y-49904057D01*
X44220274Y-50085813D01*
X44220232Y-50248597D01*
X44220144Y-50393442D01*
X44219994Y-50521385D01*
X44219769Y-50633459D01*
X44219453Y-50730700D01*
X44219031Y-50814144D01*
X44218488Y-50884823D01*
X44217810Y-50943775D01*
X44216980Y-50992034D01*
X44215985Y-51030634D01*
X44214810Y-51060610D01*
X44213438Y-51082998D01*
X44211857Y-51098833D01*
X44210050Y-51109149D01*
X44208003Y-51114981D01*
X44205700Y-51117365D01*
X44203127Y-51117335D01*
X44202777Y-51117210D01*
X44181930Y-51110460D01*
X44152385Y-51102257D01*
X44145255Y-51100435D01*
X44137060Y-51098772D01*
X44127839Y-51098170D01*
X44116256Y-51099103D01*
X44100980Y-51102048D01*
X44080678Y-51107478D01*
X44054018Y-51115869D01*
X44019665Y-51127695D01*
X43976288Y-51143433D01*
X43922554Y-51163556D01*
X43857130Y-51188540D01*
X43778683Y-51218860D01*
X43685880Y-51254991D01*
X43577389Y-51297407D01*
X43451877Y-51346584D01*
X43424971Y-51357132D01*
X43313847Y-51400705D01*
X43208023Y-51442207D01*
X43108996Y-51481049D01*
X43018260Y-51516646D01*
X42937312Y-51548409D01*
X42867649Y-51575753D01*
X42810765Y-51598089D01*
X42768157Y-51614831D01*
X42741321Y-51625391D01*
X42731870Y-51629133D01*
X42726312Y-51627369D01*
X42722847Y-51614843D01*
X42721242Y-51588951D01*
X42721266Y-51547089D01*
X42721867Y-51517230D01*
X42724695Y-51400047D01*
X43267375Y-51188404D01*
X43366064Y-51149826D01*
X43458971Y-51113334D01*
X43544460Y-51079582D01*
X43620893Y-51049226D01*
X43686632Y-51022920D01*
X43740041Y-51001319D01*
X43779482Y-50985077D01*
X43803319Y-50974849D01*
X43810089Y-50971361D01*
X43801044Y-50966839D01*
X43774995Y-50955740D01*
X43733593Y-50938725D01*
X43678487Y-50916454D01*
X43611326Y-50889588D01*
X43533761Y-50858788D01*
X43447442Y-50824713D01*
X43354017Y-50788024D01*
X43275916Y-50757487D01*
X43177636Y-50719091D01*
X43084826Y-50682748D01*
X42999179Y-50649129D01*
X42922391Y-50618901D01*
X42856156Y-50592735D01*
X42802169Y-50571299D01*
X42762125Y-50555263D01*
X42737718Y-50545296D01*
X42730637Y-50542171D01*
X42728382Y-50534229D01*
X42726464Y-50512901D01*
X42724874Y-50477441D01*
X42723603Y-50427101D01*
X42722643Y-50361134D01*
X42721986Y-50278791D01*
X42721623Y-50179325D01*
X42721545Y-50061989D01*
X42721745Y-49926035D01*
X42722130Y-49794142D01*
X42723052Y-49527815D01*
X42933895Y-49527815D01*
X42933898Y-49591453D01*
X42934209Y-49670281D01*
X42934781Y-49765892D01*
X42935568Y-49879881D01*
X42935588Y-49882685D01*
X42939235Y-50396008D01*
X42992028Y-50415259D01*
X43020739Y-50426013D01*
X43066296Y-50443450D01*
X43126947Y-50466887D01*
X43200937Y-50495637D01*
X43286510Y-50529017D01*
X43381914Y-50566341D01*
X43485393Y-50606925D01*
X43595193Y-50650083D01*
X43709559Y-50695133D01*
X43749983Y-50711078D01*
X43816848Y-50737428D01*
X43877348Y-50761199D01*
X43929073Y-50781452D01*
X43969610Y-50797244D01*
X43996549Y-50807632D01*
X44007477Y-50811676D01*
X44007584Y-50811697D01*
X44008090Y-50802005D01*
X44008564Y-50774174D01*
X44008996Y-50730076D01*
X44009377Y-50671579D01*
X44009697Y-50600555D01*
X44009946Y-50518871D01*
X44010116Y-50428400D01*
X44010196Y-50331009D01*
X44010201Y-50298459D01*
X44010201Y-49785222D01*
X43489792Y-49582188D01*
X43392553Y-49544293D01*
X43300563Y-49508525D01*
X43215571Y-49475558D01*
X43139326Y-49446068D01*
X43073580Y-49420729D01*
X43020081Y-49400216D01*
X42980579Y-49385205D01*
X42956825Y-49376369D01*
X42950662Y-49374258D01*
X42946493Y-49373762D01*
X42943011Y-49375704D01*
X42940168Y-49381677D01*
X42937918Y-49393277D01*
X42936213Y-49412097D01*
X42935006Y-49439731D01*
X42934249Y-49477772D01*
X42933895Y-49527815D01*
X42723052Y-49527815D01*
X42724695Y-49052956D01*
X42946493Y-49139559D01*
X43349942Y-49297090D01*
X43456586Y-49338713D01*
X43558009Y-49378266D01*
X43652630Y-49415132D01*
X43738868Y-49448700D01*
X43815143Y-49478353D01*
X43879876Y-49503479D01*
X43931486Y-49523463D01*
X43968393Y-49537691D01*
X43989017Y-49545549D01*
X43992695Y-49546886D01*
X43997288Y-49547370D01*
X44001002Y-49544293D01*
X44003929Y-49535773D01*
X44006162Y-49519931D01*
X44007795Y-49494887D01*
X44008919Y-49458761D01*
X44009629Y-49409671D01*
X44010017Y-49345739D01*
X44010176Y-49265084D01*
X44010201Y-49192803D01*
X44010048Y-49093594D01*
X44009553Y-49012827D01*
X44008662Y-48948938D01*
X44007322Y-48900364D01*
X44005479Y-48865541D01*
X44003079Y-48842905D01*
X44000069Y-48830893D01*
X43997697Y-48828015D01*
X43981437Y-48821575D01*
X43948587Y-48808661D01*
X43901128Y-48790048D01*
X43841040Y-48766508D01*
X43770304Y-48738818D01*
X43690900Y-48707749D01*
X43604810Y-48674078D01*
X43514015Y-48638577D01*
X43420494Y-48602020D01*
X43326230Y-48565183D01*
X43233202Y-48528839D01*
X43143392Y-48493761D01*
X43058779Y-48460725D01*
X42981346Y-48430504D01*
X42913073Y-48403872D01*
X42855940Y-48381604D01*
X42811929Y-48364473D01*
X42783019Y-48353254D01*
X42772214Y-48349099D01*
X42719693Y-48329283D01*
X42719693Y-48072292D01*
X43402552Y-48072292D01*
X43404367Y-48106676D01*
X43418680Y-48131534D01*
X43442776Y-48149788D01*
X43473845Y-48154651D01*
X43510220Y-48148289D01*
X43533574Y-48127785D01*
X43545913Y-48093656D01*
X43547203Y-48067766D01*
X43536110Y-48046576D01*
X43526583Y-48036267D01*
X43494247Y-48014789D01*
X43461002Y-48011462D01*
X43430803Y-48026260D01*
X43420695Y-48036953D01*
X43402552Y-48072292D01*
X42719693Y-48072292D01*
X42719693Y-47740167D01*
X43131607Y-47740167D01*
X43131897Y-47760121D01*
X43138388Y-47778972D01*
X43156032Y-47787197D01*
X43166063Y-47788543D01*
X43189926Y-47787523D01*
X43200982Y-47776490D01*
X43202269Y-47772457D01*
X43201408Y-47745092D01*
X43186057Y-47725963D01*
X43166039Y-47720480D01*
X43141375Y-47724755D01*
X43131607Y-47740167D01*
X42719693Y-47740167D01*
X42719693Y-47665409D01*
X43592086Y-47665409D01*
X43595783Y-47684749D01*
X43605855Y-47693318D01*
X43628481Y-47695439D01*
X43635054Y-47695470D01*
X43661037Y-47694027D01*
X43673264Y-47687013D01*
X43677923Y-47670405D01*
X43678293Y-47667354D01*
X43674825Y-47635549D01*
X43657585Y-47615649D01*
X43635830Y-47610437D01*
X43608070Y-47618198D01*
X43593536Y-47640390D01*
X43592086Y-47665409D01*
X42719693Y-47665409D01*
X42719693Y-47583638D01*
X42719755Y-47438787D01*
X42719952Y-47312820D01*
X42720304Y-47204613D01*
X42720829Y-47113042D01*
X42721546Y-47036982D01*
X42722476Y-46975310D01*
X42723635Y-46926901D01*
X42725045Y-46890633D01*
X42726722Y-46865380D01*
X42728687Y-46850019D01*
X42730959Y-46843426D01*
X42732198Y-46843059D01*
X42742891Y-46847261D01*
X42770348Y-46858012D01*
X42812699Y-46874582D01*
X42868074Y-46896239D01*
X42934600Y-46922253D01*
X43010407Y-46951891D01*
X43093624Y-46984422D01*
X43166039Y-47012728D01*
X43182381Y-47019116D01*
X43274805Y-47055241D01*
X43369026Y-47092065D01*
X43461002Y-47128011D01*
X43463172Y-47128859D01*
X43555374Y-47164889D01*
X43635830Y-47196327D01*
X43643760Y-47199426D01*
X43726458Y-47231738D01*
X43801598Y-47261093D01*
X43867309Y-47286761D01*
X43921720Y-47308009D01*
X43962959Y-47324108D01*
X43989156Y-47334325D01*
X43997822Y-47337695D01*
X44001210Y-47335320D01*
X44003898Y-47324231D01*
X44005932Y-47302826D01*
X44007357Y-47269501D01*
X44008217Y-47222652D01*
X44008558Y-47160678D01*
X44008423Y-47081973D01*
X44007859Y-46984937D01*
X44007826Y-46980364D01*
X44005199Y-46618160D01*
X42355186Y-45974033D01*
X42950977Y-45974033D01*
X42951689Y-45974765D01*
X42951759Y-45974827D01*
X42961388Y-45978887D01*
X42987907Y-45989519D01*
X43029564Y-46006031D01*
X43084604Y-46027734D01*
X43151273Y-46053938D01*
X43227819Y-46083954D01*
X43312488Y-46117090D01*
X43403525Y-46152659D01*
X43434975Y-46164933D01*
X43529535Y-46201829D01*
X43619770Y-46237044D01*
X43703705Y-46269805D01*
X43779366Y-46299343D01*
X43844777Y-46324885D01*
X43897963Y-46345660D01*
X43936949Y-46360898D01*
X43959760Y-46369827D01*
X43962683Y-46370974D01*
X44010201Y-46389664D01*
X44010201Y-45873537D01*
X44010169Y-45758606D01*
X44010036Y-45662108D01*
X44009750Y-45582470D01*
X44009257Y-45518117D01*
X44008505Y-45467475D01*
X44007439Y-45428970D01*
X44006006Y-45401028D01*
X44004155Y-45382075D01*
X44001830Y-45370536D01*
X43998979Y-45364838D01*
X43995549Y-45363406D01*
X43992976Y-45364020D01*
X43981324Y-45370185D01*
X43954033Y-45385528D01*
X43912728Y-45409113D01*
X43859031Y-45440001D01*
X43794567Y-45477254D01*
X43720959Y-45519936D01*
X43639831Y-45567108D01*
X43552806Y-45617833D01*
X43495280Y-45651428D01*
X43384587Y-45716120D01*
X43289923Y-45771454D01*
X43210045Y-45818168D01*
X43143710Y-45857004D01*
X43089674Y-45888701D01*
X43046695Y-45913998D01*
X43013528Y-45933635D01*
X42988931Y-45948353D01*
X42971661Y-45958890D01*
X42960473Y-45965987D01*
X42954126Y-45970383D01*
X42951375Y-45972819D01*
X42950977Y-45974033D01*
X42355186Y-45974033D01*
X42312033Y-45957187D01*
X40618866Y-45296214D01*
X40620701Y-45260356D01*
X40622365Y-45232362D01*
X40625002Y-45192757D01*
X40628055Y-45149881D01*
X40628204Y-45147868D01*
X40633872Y-45071239D01*
X41669280Y-45475482D01*
X41806664Y-45529094D01*
X41938841Y-45580624D01*
X42064614Y-45629609D01*
X42182791Y-45675586D01*
X42292175Y-45718091D01*
X42391573Y-45756662D01*
X42479790Y-45790835D01*
X42555631Y-45820148D01*
X42617902Y-45844138D01*
X42665408Y-45862340D01*
X42696955Y-45874293D01*
X42711347Y-45879533D01*
X42712115Y-45879740D01*
X42713461Y-45870021D01*
X42714809Y-45841990D01*
X42716132Y-45797342D01*
X42717404Y-45737772D01*
X42718596Y-45664976D01*
X42719683Y-45580649D01*
X42720636Y-45486486D01*
X42721428Y-45384183D01*
X42722033Y-45275435D01*
X42722119Y-45255466D01*
X42724695Y-44631177D01*
X43349942Y-44875378D01*
X43456584Y-44917012D01*
X43558005Y-44956572D01*
X43652624Y-44993445D01*
X43738861Y-45027016D01*
X43815136Y-45056672D01*
X43879869Y-45081799D01*
X43931479Y-45101782D01*
X43968388Y-45116006D01*
X43989015Y-45123859D01*
X43992695Y-45125194D01*
X43995549Y-45125486D01*
X43997239Y-45125659D01*
X44000920Y-45122604D01*
X44003827Y-45114170D01*
X44006048Y-45098497D01*
X44007671Y-45073725D01*
X44008785Y-45037997D01*
X44009478Y-44989451D01*
X44009838Y-44926228D01*
X44009954Y-44846470D01*
X44009925Y-44762489D01*
X44009648Y-44394170D01*
X43367172Y-44144026D01*
X42724695Y-43893882D01*
X42721867Y-43781384D01*
X42721417Y-43729558D01*
X42722925Y-43692490D01*
X42726264Y-43672187D01*
X42728996Y-43668885D01*
X42739787Y-43672437D01*
X42767642Y-43682691D01*
X42810997Y-43699048D01*
X42868288Y-43720905D01*
X42937952Y-43747661D01*
X43018424Y-43778715D01*
X43108142Y-43813465D01*
X43205542Y-43851311D01*
X43309059Y-43891651D01*
X43357070Y-43910399D01*
X43463088Y-43951792D01*
X43563881Y-43991085D01*
X43657860Y-44027663D01*
X43743435Y-44060909D01*
X43819017Y-44090209D01*
X43883016Y-44114946D01*
X43933844Y-44134504D01*
X43969910Y-44148267D01*
X43989625Y-44155620D01*
X43992695Y-44156662D01*
X43996828Y-44156840D01*
X44000256Y-44153804D01*
X44003044Y-44145871D01*
X44005259Y-44131356D01*
X44006965Y-44108576D01*
X44008228Y-44075846D01*
X44009115Y-44031482D01*
X44009690Y-43973800D01*
X44010019Y-43901116D01*
X44010167Y-43811745D01*
X44010201Y-43707261D01*
X44010201Y-43253110D01*
X43365449Y-42593156D01*
X42720697Y-41933201D01*
X42720195Y-41778196D01*
X42719693Y-41623191D01*
X42828662Y-41733178D01*
G37*
D13*
%TO.C,R6*%
X68130000Y-62730000D02*
X68130000Y-69270000D01*
X68130000Y-69270000D02*
X70870000Y-69270000D01*
X69500000Y-61960000D02*
X69500000Y-62730000D01*
X69500000Y-70040000D02*
X69500000Y-69270000D01*
X70870000Y-62730000D02*
X68130000Y-62730000D01*
X70870000Y-69270000D02*
X70870000Y-62730000D01*
%TO.C,PWR1*%
X59540000Y-82640000D02*
X59540000Y-85500000D01*
X61460000Y-82640000D02*
X59540000Y-82640000D01*
X61460000Y-85500000D02*
X61460000Y-82640000D01*
%TO.C,R4*%
X82960000Y-79000000D02*
X83730000Y-79000000D01*
X83730000Y-77630000D02*
X83730000Y-80370000D01*
X83730000Y-80370000D02*
X90270000Y-80370000D01*
X90270000Y-77630000D02*
X83730000Y-77630000D01*
X90270000Y-80370000D02*
X90270000Y-77630000D01*
X91040000Y-79000000D02*
X90270000Y-79000000D01*
%TO.C,R3*%
X82960000Y-45000000D02*
X83730000Y-45000000D01*
X83730000Y-43630000D02*
X83730000Y-46370000D01*
X83730000Y-46370000D02*
X90270000Y-46370000D01*
X90270000Y-43630000D02*
X83730000Y-43630000D01*
X90270000Y-46370000D02*
X90270000Y-43630000D01*
X91040000Y-45000000D02*
X90270000Y-45000000D01*
%TO.C,J1*%
X47690000Y-71890000D02*
X47690000Y-89610000D01*
X47690000Y-89610000D02*
X54310000Y-89610000D01*
X48400000Y-72900000D02*
X48400000Y-88600000D01*
X48400000Y-88600000D02*
X52700000Y-88600000D01*
X51000000Y-71890000D02*
X51000000Y-72900000D01*
X51000000Y-89610000D02*
X51000000Y-88600000D01*
X52700000Y-72900000D02*
X48400000Y-72900000D01*
X52700000Y-88600000D02*
X52700000Y-72900000D01*
X53310000Y-74190000D02*
X54310000Y-74190000D01*
X53310000Y-75950000D02*
X53310000Y-74190000D01*
X53310000Y-78050000D02*
X54310000Y-78050000D01*
X53310000Y-79950000D02*
X53310000Y-78050000D01*
X53310000Y-81550000D02*
X53910000Y-81550000D01*
X53310000Y-83450000D02*
X53310000Y-81550000D01*
X53310000Y-85550000D02*
X54310000Y-85550000D01*
X53310000Y-87310000D02*
X53310000Y-85550000D01*
X53910000Y-79950000D02*
X53310000Y-79950000D01*
X53910000Y-81550000D02*
X53910000Y-79950000D01*
X54310000Y-71890000D02*
X47690000Y-71890000D01*
X54310000Y-74190000D02*
X54310000Y-71890000D01*
X54310000Y-75950000D02*
X53310000Y-75950000D01*
X54310000Y-78050000D02*
X54310000Y-75950000D01*
X54310000Y-83450000D02*
X53310000Y-83450000D01*
X54310000Y-85550000D02*
X54310000Y-83450000D01*
X54310000Y-87310000D02*
X53310000Y-87310000D01*
X54310000Y-89610000D02*
X54310000Y-87310000D01*
X54610000Y-71590000D02*
X53360000Y-71590000D01*
X54610000Y-72840000D02*
X54610000Y-71590000D01*
%TO.C,J2*%
X46580000Y-26305000D02*
X47850000Y-26305000D01*
X46580000Y-27575000D02*
X46580000Y-26305000D01*
X48892929Y-29735000D02*
X49347071Y-29735000D01*
X48892929Y-30495000D02*
X49347071Y-30495000D01*
X48892929Y-32275000D02*
X49347071Y-32275000D01*
X48892929Y-33035000D02*
X49347071Y-33035000D01*
X48960000Y-27195000D02*
X49347071Y-27195000D01*
X48960000Y-27955000D02*
X49347071Y-27955000D01*
X51432929Y-27195000D02*
X51830000Y-27195000D01*
X51432929Y-27955000D02*
X51830000Y-27955000D01*
X51432929Y-29735000D02*
X51830000Y-29735000D01*
X51432929Y-30495000D02*
X51830000Y-30495000D01*
X51432929Y-32275000D02*
X51830000Y-32275000D01*
X51432929Y-33035000D02*
X51830000Y-33035000D01*
X51830000Y-26245000D02*
X51830000Y-33985000D01*
X51830000Y-28845000D02*
X54100000Y-28845000D01*
X51830000Y-31385000D02*
X54100000Y-31385000D01*
X51830000Y-33985000D02*
X54100000Y-33985000D01*
X54100000Y-26245000D02*
X51830000Y-26245000D01*
D11*
X54100000Y-33985000D02*
X54100000Y-26245000D01*
%TD*%
%LPC*%
D15*
%TO.C,R5*%
X78000000Y-62580000D03*
D16*
X78000000Y-52420000D03*
%TD*%
D17*
%TO.C,H1*%
X41500000Y-37000000D03*
%TD*%
%TO.C,H2*%
X41500000Y-87000000D03*
%TD*%
%TO.C,H4*%
X69500000Y-76000000D03*
%TD*%
D15*
%TO.C,R2*%
X96920000Y-79000000D03*
D16*
X107080000Y-79000000D03*
%TD*%
D15*
%TO.C,R7*%
X57000000Y-78920000D03*
D16*
X57000000Y-89080000D03*
%TD*%
D15*
%TO.C,R1*%
X96920000Y-45000000D03*
D16*
X107080000Y-45000000D03*
%TD*%
D15*
%TO.C,R6*%
X69500000Y-60920000D03*
D16*
X69500000Y-71080000D03*
%TD*%
D18*
%TO.C,PWR1*%
X60500000Y-83475000D03*
X60500000Y-85525000D03*
%TD*%
D15*
%TO.C,R4*%
X81920000Y-79000000D03*
D16*
X92080000Y-79000000D03*
%TD*%
D15*
%TO.C,R3*%
X81920000Y-45000000D03*
D16*
X92080000Y-45000000D03*
%TD*%
D17*
%TO.C,H3*%
X69500000Y-48000000D03*
%TD*%
D19*
%TO.C,J1*%
X51000000Y-74500000D03*
D20*
X51000000Y-77000000D03*
X51000000Y-79500000D03*
X51000000Y-82000000D03*
X51000000Y-84500000D03*
X51000000Y-87000000D03*
%TD*%
D21*
%TO.C,J2*%
X47850000Y-27575000D03*
D22*
X50390000Y-27575000D03*
X47850000Y-30115000D03*
X50390000Y-30115000D03*
X47850000Y-32655000D03*
X50390000Y-32655000D03*
%TD*%
D17*
%TO.C,H5*%
X58900000Y-94500000D03*
%TD*%
D23*
%TO.C,IR2*%
X109895000Y-76960000D03*
D24*
X109895000Y-79500000D03*
%TD*%
D23*
%TO.C,IR1*%
X109895000Y-44500000D03*
D24*
X109895000Y-47040000D03*
%TD*%
%LPD*%
M02*
