M48
; DRILL file {KiCad 9.0.0} date 2025-06-18T11:24:59+0900
; FORMAT={-:-/ absolute / inch / decimal}
; #@! TF.CreationDate,2025-06-18T11:24:59+09:00
; #@! TF.GenerationSoftware,Kicad,Pcbnew,9.0.0
; #@! TF.FileFunction,Plated,1,2,PTH
FMAT,2
INCH
; #@! TA.AperFunction,Plated,PTH,ViaDrill
T1C0.0118
; #@! TA.AperFunction,Plated,PTH,ComponentDrill
T2C0.0315
; #@! TA.AperFunction,Plated,PTH,ComponentDrill
T3C0.0354
; #@! TA.AperFunction,Plated,PTH,ComponentDrill
T4C0.0374
; #@! TA.AperFunction,Plated,PTH,ComponentDrill
T5C0.0394
%
G90
G05
T1
X1.8602Y-3.2579
X1.8602Y-3.5531
X1.8602Y-3.8287
X1.9223Y-1.4892
X2.1358Y-3.1988
X2.1358Y-3.563
X2.1358Y-3.8189
X2.3659Y-3.0376
X2.4902Y-3.2087
X2.5Y-3.5335
X2.5098Y-3.1582
T2
X2.2441Y-3.1071
X2.2441Y-3.5071
X2.7362Y-2.3984
X2.7362Y-2.7984
X3.0709Y-2.0638
X3.0709Y-2.4638
X3.2252Y-1.7717
X3.2252Y-3.1102
X3.6252Y-1.7717
X3.6252Y-3.1102
X3.8157Y-1.7717
X3.8157Y-3.1102
X4.2157Y-1.7717
X4.2157Y-3.1102
T3
X4.3266Y-1.752
X4.3266Y-1.852
X4.3266Y-3.0299
X4.3266Y-3.1299
T4
X2.0079Y-2.9331
X2.0079Y-3.0315
X2.0079Y-3.1299
X2.0079Y-3.2283
X2.0079Y-3.3268
X2.0079Y-3.4252
T5
X1.8839Y-1.0856
X1.8839Y-1.1856
X1.8839Y-1.2856
X1.9839Y-1.0856
X1.9839Y-1.1856
X1.9839Y-1.2856
M30
