%TF.GenerationSoftware,KiCad,Pcbnew,9.0.0*%
%TF.CreationDate,2025-06-18T11:24:59+09:00*%
%TF.ProjectId,headlight_lower_side,68656164-6c69-4676-9874-5f6c6f776572,00*%
%TF.SameCoordinates,Original*%
%TF.FileFunction,Legend,Bot*%
%TF.FilePolarity,Positive*%
%FSLAX46Y46*%
G04 Gerber Fmt 4.6, Leading zero omitted, Abs format (unit mm)*
G04 Created by KiCad (PCBNEW 9.0.0) date 2025-06-18 11:24:59*
%MOMM*%
%LPD*%
G01*
G04 APERTURE LIST*
G04 Aperture macros list*
%AMRoundRect*
0 Rectangle with rounded corners*
0 $1 Rounding radius*
0 $2 $3 $4 $5 $6 $7 $8 $9 X,Y pos of 4 corners*
0 Add a 4 corners polygon primitive as box body*
4,1,4,$2,$3,$4,$5,$6,$7,$8,$9,$2,$3,0*
0 Add four circle primitives for the rounded corners*
1,1,$1+$1,$2,$3*
1,1,$1+$1,$4,$5*
1,1,$1+$1,$6,$7*
1,1,$1+$1,$8,$9*
0 Add four rect primitives between the rounded corners*
20,1,$1+$1,$2,$3,$4,$5,0*
20,1,$1+$1,$4,$5,$6,$7,0*
20,1,$1+$1,$6,$7,$8,$9,0*
20,1,$1+$1,$8,$9,$2,$3,0*%
G04 Aperture macros list end*
%ADD10C,0.100000*%
%ADD11C,0.150000*%
%ADD12C,0.120000*%
%ADD13C,1.600000*%
%ADD14O,1.600000X1.600000*%
%ADD15C,3.200000*%
%ADD16RoundRect,0.250000X-0.725000X0.600000X-0.725000X-0.600000X0.725000X-0.600000X0.725000X0.600000X0*%
%ADD17O,1.950000X1.700000*%
%ADD18R,1.700000X1.700000*%
%ADD19O,1.700000X1.700000*%
%ADD20RoundRect,0.250000X-0.325000X-0.450000X0.325000X-0.450000X0.325000X0.450000X-0.325000X0.450000X0*%
%ADD21R,1.800000X1.800000*%
%ADD22C,1.800000*%
G04 APERTURE END LIST*
D10*
X46500000Y-25750000D02*
X46500000Y-98250000D01*
X107000000Y-77000000D02*
X82000000Y-77000000D01*
X82000000Y-47000000D02*
X107000000Y-47000000D01*
X107000000Y-47000000D02*
X107000000Y-48300000D01*
X82000000Y-77000000D02*
X82000000Y-75700000D01*
X82000000Y-48300000D02*
X82000000Y-47000000D01*
X107000000Y-75700000D02*
X107000000Y-77000000D01*
X104303884Y-79008533D02*
X105065789Y-79008533D01*
X104684836Y-78627580D02*
X104684836Y-79389485D01*
D11*
X110204819Y-72023810D02*
X109204819Y-72023810D01*
X110204819Y-73071428D02*
X109728628Y-72738095D01*
X110204819Y-72500000D02*
X109204819Y-72500000D01*
X109204819Y-72500000D02*
X109204819Y-72880952D01*
X109204819Y-72880952D02*
X109252438Y-72976190D01*
X109252438Y-72976190D02*
X109300057Y-73023809D01*
X109300057Y-73023809D02*
X109395295Y-73071428D01*
X109395295Y-73071428D02*
X109538152Y-73071428D01*
X109538152Y-73071428D02*
X109633390Y-73023809D01*
X109633390Y-73023809D02*
X109681009Y-72976190D01*
X109681009Y-72976190D02*
X109728628Y-72880952D01*
X109728628Y-72880952D02*
X109728628Y-72500000D01*
X109300057Y-73452381D02*
X109252438Y-73500000D01*
X109252438Y-73500000D02*
X109204819Y-73595238D01*
X109204819Y-73595238D02*
X109204819Y-73833333D01*
X109204819Y-73833333D02*
X109252438Y-73928571D01*
X109252438Y-73928571D02*
X109300057Y-73976190D01*
X109300057Y-73976190D02*
X109395295Y-74023809D01*
X109395295Y-74023809D02*
X109490533Y-74023809D01*
X109490533Y-74023809D02*
X109633390Y-73976190D01*
X109633390Y-73976190D02*
X110204819Y-73404762D01*
X110204819Y-73404762D02*
X110204819Y-74023809D01*
D10*
X108136466Y-76513884D02*
X108136466Y-77275789D01*
X108517419Y-76894836D02*
X107755514Y-76894836D01*
X89303884Y-79008533D02*
X90065789Y-79008533D01*
X89684836Y-78627580D02*
X89684836Y-79389485D01*
D11*
X110204819Y-49523810D02*
X109204819Y-49523810D01*
X110204819Y-50571428D02*
X109728628Y-50238095D01*
X110204819Y-50000000D02*
X109204819Y-50000000D01*
X109204819Y-50000000D02*
X109204819Y-50380952D01*
X109204819Y-50380952D02*
X109252438Y-50476190D01*
X109252438Y-50476190D02*
X109300057Y-50523809D01*
X109300057Y-50523809D02*
X109395295Y-50571428D01*
X109395295Y-50571428D02*
X109538152Y-50571428D01*
X109538152Y-50571428D02*
X109633390Y-50523809D01*
X109633390Y-50523809D02*
X109681009Y-50476190D01*
X109681009Y-50476190D02*
X109728628Y-50380952D01*
X109728628Y-50380952D02*
X109728628Y-50000000D01*
X110204819Y-51523809D02*
X110204819Y-50952381D01*
X110204819Y-51238095D02*
X109204819Y-51238095D01*
X109204819Y-51238095D02*
X109347676Y-51142857D01*
X109347676Y-51142857D02*
X109442914Y-51047619D01*
X109442914Y-51047619D02*
X109490533Y-50952381D01*
D10*
X107886466Y-46803884D02*
X107886466Y-47565789D01*
X108267419Y-47184836D02*
X107505514Y-47184836D01*
X89303884Y-45008533D02*
X90065789Y-45008533D01*
X89684836Y-44627580D02*
X89684836Y-45389485D01*
X104291384Y-45008533D02*
X105053289Y-45008533D01*
X104672336Y-44627580D02*
X104672336Y-45389485D01*
D12*
%TO.C,LB2*%
X100140000Y-78040000D02*
X103000000Y-78040000D01*
X100140000Y-79960000D02*
X100140000Y-78040000D01*
X103000000Y-79960000D02*
X100140000Y-79960000D01*
%TO.C,IR2*%
X110975000Y-76960000D02*
X110975000Y-76960000D01*
X110975000Y-76960000D02*
X113645000Y-76960000D01*
X110975000Y-79500000D02*
X110975000Y-79500000D01*
X110975000Y-79500000D02*
X113645000Y-79500000D01*
X113645000Y-76670000D02*
X113645000Y-79790000D01*
X113645000Y-76670000D02*
X117505000Y-76670000D01*
X113645000Y-76960000D02*
X110975000Y-76960000D01*
X113645000Y-76960000D02*
X113645000Y-76960000D01*
X113645000Y-79500000D02*
X110975000Y-79500000D01*
X113645000Y-79500000D02*
X113645000Y-79500000D01*
X113645000Y-79790000D02*
X113645000Y-80190000D01*
X113645000Y-79790000D02*
X117505000Y-79790000D01*
X113645000Y-80190000D02*
X114765000Y-80190000D01*
X114765000Y-79790000D02*
X113645000Y-79790000D01*
X114765000Y-80190000D02*
X114765000Y-79790000D01*
X117505000Y-76670000D02*
G75*
G02*
X117505000Y-79790000I0J-1560000D01*
G01*
%TO.C,LB4*%
X85140000Y-78040000D02*
X88000000Y-78040000D01*
X85140000Y-79960000D02*
X85140000Y-78040000D01*
X88000000Y-79960000D02*
X85140000Y-79960000D01*
%TO.C,IR1*%
X110975000Y-44500000D02*
X110975000Y-44500000D01*
X110975000Y-44500000D02*
X113645000Y-44500000D01*
X110975000Y-47040000D02*
X110975000Y-47040000D01*
X110975000Y-47040000D02*
X113645000Y-47040000D01*
X113645000Y-44210000D02*
X113645000Y-47330000D01*
X113645000Y-44210000D02*
X117505000Y-44210000D01*
X113645000Y-44500000D02*
X110975000Y-44500000D01*
X113645000Y-44500000D02*
X113645000Y-44500000D01*
X113645000Y-47040000D02*
X110975000Y-47040000D01*
X113645000Y-47040000D02*
X113645000Y-47040000D01*
X113645000Y-47330000D02*
X113645000Y-47730000D01*
X113645000Y-47330000D02*
X117505000Y-47330000D01*
X113645000Y-47730000D02*
X114765000Y-47730000D01*
X114765000Y-47330000D02*
X113645000Y-47330000D01*
X114765000Y-47730000D02*
X114765000Y-47330000D01*
X117505000Y-44210000D02*
G75*
G02*
X117505000Y-47330000I0J-1560000D01*
G01*
%TO.C,LB3*%
X85140000Y-44040000D02*
X88000000Y-44040000D01*
X85140000Y-45960000D02*
X85140000Y-44040000D01*
X88000000Y-45960000D02*
X85140000Y-45960000D01*
%TO.C,LB1*%
X100127500Y-44040000D02*
X102987500Y-44040000D01*
X100127500Y-45960000D02*
X100127500Y-44040000D01*
X102987500Y-45960000D02*
X100127500Y-45960000D01*
%TD*%
%LPC*%
D13*
%TO.C,R5*%
X78000000Y-62580000D03*
D14*
X78000000Y-52420000D03*
%TD*%
D15*
%TO.C,H1*%
X41500000Y-37000000D03*
%TD*%
%TO.C,H2*%
X41500000Y-87000000D03*
%TD*%
%TO.C,H4*%
X69500000Y-76000000D03*
%TD*%
D13*
%TO.C,R2*%
X96920000Y-79000000D03*
D14*
X107080000Y-79000000D03*
%TD*%
D13*
%TO.C,R7*%
X57000000Y-78920000D03*
D14*
X57000000Y-89080000D03*
%TD*%
D13*
%TO.C,R1*%
X96920000Y-45000000D03*
D14*
X107080000Y-45000000D03*
%TD*%
D13*
%TO.C,R6*%
X69500000Y-60920000D03*
D14*
X69500000Y-71080000D03*
%TD*%
D13*
%TO.C,R4*%
X81920000Y-79000000D03*
D14*
X92080000Y-79000000D03*
%TD*%
D13*
%TO.C,R3*%
X81920000Y-45000000D03*
D14*
X92080000Y-45000000D03*
%TD*%
D15*
%TO.C,H3*%
X69500000Y-48000000D03*
%TD*%
D16*
%TO.C,J1*%
X51000000Y-74500000D03*
D17*
X51000000Y-77000000D03*
X51000000Y-79500000D03*
X51000000Y-82000000D03*
X51000000Y-84500000D03*
X51000000Y-87000000D03*
%TD*%
D18*
%TO.C,J2*%
X47850000Y-27575000D03*
D19*
X50390000Y-27575000D03*
X47850000Y-30115000D03*
X50390000Y-30115000D03*
X47850000Y-32655000D03*
X50390000Y-32655000D03*
%TD*%
D15*
%TO.C,H5*%
X58900000Y-94500000D03*
%TD*%
D20*
%TO.C,LB2*%
X100975000Y-79000000D03*
X103025000Y-79000000D03*
%TD*%
D21*
%TO.C,IR2*%
X109895000Y-76960000D03*
D22*
X109895000Y-79500000D03*
%TD*%
D20*
%TO.C,LB4*%
X85975000Y-79000000D03*
X88025000Y-79000000D03*
%TD*%
D21*
%TO.C,IR1*%
X109895000Y-44500000D03*
D22*
X109895000Y-47040000D03*
%TD*%
D20*
%TO.C,LB3*%
X85975000Y-45000000D03*
X88025000Y-45000000D03*
%TD*%
%TO.C,LB1*%
X100962500Y-45000000D03*
X103012500Y-45000000D03*
%TD*%
%LPD*%
M02*
