%TF.GenerationSoftware,KiCad,Pcbnew,9.0.0*%
%TF.CreationDate,2025-07-24T21:17:22+09:00*%
%TF.ProjectId,AQUA_VESC,41515541-5f56-4455-9343-2e6b69636164,rev?*%
%TF.SameCoordinates,Original*%
%TF.FileFunction,Profile,NP*%
%FSLAX46Y46*%
G04 Gerber Fmt 4.6, Leading zero omitted, Abs format (unit mm)*
G04 Created by KiCad (PCBNEW 9.0.0) date 2025-07-24 21:17:22*
%MOMM*%
%LPD*%
G01*
G04 APERTURE LIST*
%TA.AperFunction,Profile*%
%ADD10C,0.050000*%
%TD*%
%TA.AperFunction,Profile*%
%ADD11C,0.000000*%
%TD*%
G04 APERTURE END LIST*
D10*
X51000000Y-58000000D02*
X51000000Y-81000000D01*
X111500000Y-99797445D02*
X111500000Y-87750000D01*
X42751428Y-47500153D02*
G75*
G02*
X52774607Y-22018569I50748572J-5249847D01*
G01*
X73517975Y-99707759D02*
X75500000Y-99707759D01*
X130750000Y-58005915D02*
X130750000Y-47500000D01*
X136000000Y-81000000D02*
G75*
G02*
X113269937Y-99797445I-42500000J28250000D01*
G01*
X113269936Y-99797445D02*
X111500000Y-99797445D01*
X130750000Y-58005915D02*
X136000000Y-58005915D01*
X56250000Y-58000000D02*
X51000000Y-58000000D01*
X134225341Y-22018608D02*
X52774607Y-22018676D01*
X75500000Y-99707759D02*
X75500000Y-87750000D01*
X42751428Y-47500153D02*
X56250000Y-47500148D01*
X136000000Y-81000000D02*
X136000000Y-58005915D01*
X75500000Y-87750000D02*
X111500000Y-87750000D01*
X73517975Y-99707759D02*
G75*
G02*
X51000000Y-81000000I19982025J46957759D01*
G01*
X130750000Y-47500000D02*
X144250000Y-47500000D01*
X134226539Y-22017704D02*
G75*
G02*
X144250000Y-47500000I-40726539J-30732296D01*
G01*
X56250000Y-47500148D02*
X56250000Y-58000000D01*
D11*
%TA.AperFunction,Profile*%
%TO.C,USB1*%
G36*
X131076439Y-70176642D02*
G01*
X131155567Y-70222326D01*
X131220174Y-70286933D01*
X131265858Y-70366061D01*
X131289506Y-70454316D01*
X131289506Y-70545684D01*
X131265858Y-70633939D01*
X131220174Y-70713067D01*
X131155567Y-70777674D01*
X131076439Y-70823358D01*
X130988184Y-70847006D01*
X130896816Y-70847006D01*
X130808561Y-70823358D01*
X130729433Y-70777674D01*
X130664826Y-70713067D01*
X130619142Y-70633939D01*
X130595494Y-70545684D01*
X130595494Y-70454316D01*
X130619142Y-70366061D01*
X130664826Y-70286933D01*
X130729433Y-70222326D01*
X130808561Y-70176642D01*
X130896816Y-70152994D01*
X130988184Y-70152994D01*
X131076439Y-70176642D01*
G37*
%TD.AperFunction*%
%TA.AperFunction,Profile*%
G36*
X131076439Y-74176642D02*
G01*
X131155567Y-74222326D01*
X131220174Y-74286933D01*
X131265858Y-74366061D01*
X131289506Y-74454316D01*
X131289506Y-74545684D01*
X131265858Y-74633939D01*
X131220174Y-74713067D01*
X131155567Y-74777674D01*
X131076439Y-74823358D01*
X130988184Y-74847006D01*
X130896816Y-74847006D01*
X130808561Y-74823358D01*
X130729433Y-74777674D01*
X130664826Y-74713067D01*
X130619142Y-74633939D01*
X130595494Y-74545684D01*
X130595494Y-74454316D01*
X130619142Y-74366061D01*
X130664826Y-74286933D01*
X130729433Y-74222326D01*
X130808561Y-74176642D01*
X130896816Y-74152994D01*
X130988184Y-74152994D01*
X131076439Y-74176642D01*
G37*
%TD.AperFunction*%
%TD*%
M02*
