%TF.GenerationSoftware,KiCad,Pcbnew,9.0.3*%
%TF.CreationDate,2025-08-05T12:01:24+09:00*%
%TF.ProjectId,AQUA_VESC,41515541-5f56-4455-9343-2e6b69636164,rev?*%
%TF.SameCoordinates,Original*%
%TF.FileFunction,Legend,Bot*%
%TF.FilePolarity,Positive*%
%FSLAX46Y46*%
G04 Gerber Fmt 4.6, Leading zero omitted, Abs format (unit mm)*
G04 Created by KiCad (PCBNEW 9.0.3) date 2025-08-05 12:01:24*
%MOMM*%
%LPD*%
G01*
G04 APERTURE LIST*
G04 Aperture macros list*
%AMRoundRect*
0 Rectangle with rounded corners*
0 $1 Rounding radius*
0 $2 $3 $4 $5 $6 $7 $8 $9 X,Y pos of 4 corners*
0 Add a 4 corners polygon primitive as box body*
4,1,4,$2,$3,$4,$5,$6,$7,$8,$9,$2,$3,0*
0 Add four circle primitives for the rounded corners*
1,1,$1+$1,$2,$3*
1,1,$1+$1,$4,$5*
1,1,$1+$1,$6,$7*
1,1,$1+$1,$8,$9*
0 Add four rect primitives between the rounded corners*
20,1,$1+$1,$2,$3,$4,$5,0*
20,1,$1+$1,$4,$5,$6,$7,0*
20,1,$1+$1,$6,$7,$8,$9,0*
20,1,$1+$1,$8,$9,$2,$3,0*%
G04 Aperture macros list end*
%ADD10C,0.300000*%
%ADD11C,0.112500*%
%ADD12C,0.250000*%
%ADD13C,0.200000*%
%ADD14C,0.100000*%
%ADD15C,0.800000*%
%ADD16C,0.150000*%
%ADD17C,0.400000*%
%ADD18C,0.120000*%
%ADD19C,0.000000*%
%ADD20RoundRect,0.250000X-0.750000X-0.750000X0.750000X-0.750000X0.750000X0.750000X-0.750000X0.750000X0*%
%ADD21C,2.000000*%
%ADD22C,3.200000*%
%ADD23O,2.800000X2.000000*%
%ADD24RoundRect,0.250000X-0.600000X-0.725000X0.600000X-0.725000X0.600000X0.725000X-0.600000X0.725000X0*%
%ADD25O,1.700000X1.950000*%
%ADD26C,0.800000*%
%ADD27C,7.000000*%
%ADD28O,2.400000X1.100000*%
%ADD29R,1.905000X2.000000*%
%ADD30O,1.905000X2.000000*%
%ADD31R,1.700000X1.700000*%
%ADD32C,1.700000*%
G04 APERTURE END LIST*
D10*
X69695489Y-91229400D02*
X68552632Y-91229400D01*
X69124060Y-91800828D02*
X69124060Y-90657971D01*
D11*
X135004558Y-59545350D02*
X134918844Y-59588207D01*
X134918844Y-59588207D02*
X134747415Y-59588207D01*
X134747415Y-59588207D02*
X134661701Y-59545350D01*
X134661701Y-59545350D02*
X134618844Y-59459635D01*
X134618844Y-59459635D02*
X134618844Y-59416778D01*
X134618844Y-59416778D02*
X134661701Y-59331064D01*
X134661701Y-59331064D02*
X134747415Y-59288207D01*
X134747415Y-59288207D02*
X134875987Y-59288207D01*
X134875987Y-59288207D02*
X134961701Y-59245350D01*
X134961701Y-59245350D02*
X135004558Y-59159635D01*
X135004558Y-59159635D02*
X135004558Y-59116778D01*
X135004558Y-59116778D02*
X134961701Y-59031064D01*
X134961701Y-59031064D02*
X134875987Y-58988207D01*
X134875987Y-58988207D02*
X134747415Y-58988207D01*
X134747415Y-58988207D02*
X134661701Y-59031064D01*
X133890273Y-59545350D02*
X133975987Y-59588207D01*
X133975987Y-59588207D02*
X134147416Y-59588207D01*
X134147416Y-59588207D02*
X134233130Y-59545350D01*
X134233130Y-59545350D02*
X134275987Y-59459635D01*
X134275987Y-59459635D02*
X134275987Y-59116778D01*
X134275987Y-59116778D02*
X134233130Y-59031064D01*
X134233130Y-59031064D02*
X134147416Y-58988207D01*
X134147416Y-58988207D02*
X133975987Y-58988207D01*
X133975987Y-58988207D02*
X133890273Y-59031064D01*
X133890273Y-59031064D02*
X133847416Y-59116778D01*
X133847416Y-59116778D02*
X133847416Y-59202492D01*
X133847416Y-59202492D02*
X134275987Y-59288207D01*
X133461701Y-59588207D02*
X133461701Y-58988207D01*
X133461701Y-59159635D02*
X133418844Y-59073921D01*
X133418844Y-59073921D02*
X133375987Y-59031064D01*
X133375987Y-59031064D02*
X133290272Y-58988207D01*
X133290272Y-58988207D02*
X133204558Y-58988207D01*
X132990272Y-58988207D02*
X132775986Y-59588207D01*
X132775986Y-59588207D02*
X132561701Y-58988207D01*
X132090272Y-59588207D02*
X132175987Y-59545350D01*
X132175987Y-59545350D02*
X132218844Y-59502492D01*
X132218844Y-59502492D02*
X132261701Y-59416778D01*
X132261701Y-59416778D02*
X132261701Y-59159635D01*
X132261701Y-59159635D02*
X132218844Y-59073921D01*
X132218844Y-59073921D02*
X132175987Y-59031064D01*
X132175987Y-59031064D02*
X132090272Y-58988207D01*
X132090272Y-58988207D02*
X131961701Y-58988207D01*
X131961701Y-58988207D02*
X131875987Y-59031064D01*
X131875987Y-59031064D02*
X131833130Y-59073921D01*
X131833130Y-59073921D02*
X131790272Y-59159635D01*
X131790272Y-59159635D02*
X131790272Y-59416778D01*
X131790272Y-59416778D02*
X131833130Y-59502492D01*
X131833130Y-59502492D02*
X131875987Y-59545350D01*
X131875987Y-59545350D02*
X131961701Y-59588207D01*
X131961701Y-59588207D02*
X132090272Y-59588207D01*
X130333130Y-58988207D02*
X130333130Y-59716778D01*
X130333130Y-59716778D02*
X130375987Y-59802492D01*
X130375987Y-59802492D02*
X130418844Y-59845350D01*
X130418844Y-59845350D02*
X130504558Y-59888207D01*
X130504558Y-59888207D02*
X130633130Y-59888207D01*
X130633130Y-59888207D02*
X130718844Y-59845350D01*
X130333130Y-59545350D02*
X130418844Y-59588207D01*
X130418844Y-59588207D02*
X130590272Y-59588207D01*
X130590272Y-59588207D02*
X130675987Y-59545350D01*
X130675987Y-59545350D02*
X130718844Y-59502492D01*
X130718844Y-59502492D02*
X130761701Y-59416778D01*
X130761701Y-59416778D02*
X130761701Y-59159635D01*
X130761701Y-59159635D02*
X130718844Y-59073921D01*
X130718844Y-59073921D02*
X130675987Y-59031064D01*
X130675987Y-59031064D02*
X130590272Y-58988207D01*
X130590272Y-58988207D02*
X130418844Y-58988207D01*
X130418844Y-58988207D02*
X130333130Y-59031064D01*
X129904558Y-58988207D02*
X129904558Y-59888207D01*
X129904558Y-59031064D02*
X129818844Y-58988207D01*
X129818844Y-58988207D02*
X129647415Y-58988207D01*
X129647415Y-58988207D02*
X129561701Y-59031064D01*
X129561701Y-59031064D02*
X129518844Y-59073921D01*
X129518844Y-59073921D02*
X129475986Y-59159635D01*
X129475986Y-59159635D02*
X129475986Y-59416778D01*
X129475986Y-59416778D02*
X129518844Y-59502492D01*
X129518844Y-59502492D02*
X129561701Y-59545350D01*
X129561701Y-59545350D02*
X129647415Y-59588207D01*
X129647415Y-59588207D02*
X129818844Y-59588207D01*
X129818844Y-59588207D02*
X129904558Y-59545350D01*
X129090272Y-59588207D02*
X129090272Y-58988207D01*
X129090272Y-58688207D02*
X129133129Y-58731064D01*
X129133129Y-58731064D02*
X129090272Y-58773921D01*
X129090272Y-58773921D02*
X129047415Y-58731064D01*
X129047415Y-58731064D02*
X129090272Y-58688207D01*
X129090272Y-58688207D02*
X129090272Y-58773921D01*
X128533129Y-59588207D02*
X128618844Y-59545350D01*
X128618844Y-59545350D02*
X128661701Y-59502492D01*
X128661701Y-59502492D02*
X128704558Y-59416778D01*
X128704558Y-59416778D02*
X128704558Y-59159635D01*
X128704558Y-59159635D02*
X128661701Y-59073921D01*
X128661701Y-59073921D02*
X128618844Y-59031064D01*
X128618844Y-59031064D02*
X128533129Y-58988207D01*
X128533129Y-58988207D02*
X128404558Y-58988207D01*
X128404558Y-58988207D02*
X128318844Y-59031064D01*
X128318844Y-59031064D02*
X128275987Y-59073921D01*
X128275987Y-59073921D02*
X128233129Y-59159635D01*
X128233129Y-59159635D02*
X128233129Y-59416778D01*
X128233129Y-59416778D02*
X128275987Y-59502492D01*
X128275987Y-59502492D02*
X128318844Y-59545350D01*
X128318844Y-59545350D02*
X128404558Y-59588207D01*
X128404558Y-59588207D02*
X128533129Y-59588207D01*
X127847415Y-59245350D02*
X127161701Y-59245350D01*
X126733129Y-59588207D02*
X126733129Y-58988207D01*
X126733129Y-58688207D02*
X126775986Y-58731064D01*
X126775986Y-58731064D02*
X126733129Y-58773921D01*
X126733129Y-58773921D02*
X126690272Y-58731064D01*
X126690272Y-58731064D02*
X126733129Y-58688207D01*
X126733129Y-58688207D02*
X126733129Y-58773921D01*
X125918844Y-59545350D02*
X126004558Y-59588207D01*
X126004558Y-59588207D02*
X126175986Y-59588207D01*
X126175986Y-59588207D02*
X126261701Y-59545350D01*
X126261701Y-59545350D02*
X126304558Y-59502492D01*
X126304558Y-59502492D02*
X126347415Y-59416778D01*
X126347415Y-59416778D02*
X126347415Y-59159635D01*
X126347415Y-59159635D02*
X126304558Y-59073921D01*
X126304558Y-59073921D02*
X126261701Y-59031064D01*
X126261701Y-59031064D02*
X126175986Y-58988207D01*
X126175986Y-58988207D02*
X126004558Y-58988207D01*
X126004558Y-58988207D02*
X125918844Y-59031064D01*
X125147415Y-58988207D02*
X125147415Y-59588207D01*
X125533129Y-58988207D02*
X125533129Y-59459635D01*
X125533129Y-59459635D02*
X125490272Y-59545350D01*
X125490272Y-59545350D02*
X125404557Y-59588207D01*
X125404557Y-59588207D02*
X125275986Y-59588207D01*
X125275986Y-59588207D02*
X125190272Y-59545350D01*
X125190272Y-59545350D02*
X125147415Y-59502492D01*
X124033129Y-59588207D02*
X124033129Y-58688207D01*
X124033129Y-58688207D02*
X123690272Y-58688207D01*
X123690272Y-58688207D02*
X123604557Y-58731064D01*
X123604557Y-58731064D02*
X123561700Y-58773921D01*
X123561700Y-58773921D02*
X123518843Y-58859635D01*
X123518843Y-58859635D02*
X123518843Y-58988207D01*
X123518843Y-58988207D02*
X123561700Y-59073921D01*
X123561700Y-59073921D02*
X123604557Y-59116778D01*
X123604557Y-59116778D02*
X123690272Y-59159635D01*
X123690272Y-59159635D02*
X124033129Y-59159635D01*
X122833129Y-59116778D02*
X122704557Y-59159635D01*
X122704557Y-59159635D02*
X122661700Y-59202492D01*
X122661700Y-59202492D02*
X122618843Y-59288207D01*
X122618843Y-59288207D02*
X122618843Y-59416778D01*
X122618843Y-59416778D02*
X122661700Y-59502492D01*
X122661700Y-59502492D02*
X122704557Y-59545350D01*
X122704557Y-59545350D02*
X122790272Y-59588207D01*
X122790272Y-59588207D02*
X123133129Y-59588207D01*
X123133129Y-59588207D02*
X123133129Y-58688207D01*
X123133129Y-58688207D02*
X122833129Y-58688207D01*
X122833129Y-58688207D02*
X122747415Y-58731064D01*
X122747415Y-58731064D02*
X122704557Y-58773921D01*
X122704557Y-58773921D02*
X122661700Y-58859635D01*
X122661700Y-58859635D02*
X122661700Y-58945350D01*
X122661700Y-58945350D02*
X122704557Y-59031064D01*
X122704557Y-59031064D02*
X122747415Y-59073921D01*
X122747415Y-59073921D02*
X122833129Y-59116778D01*
X122833129Y-59116778D02*
X123133129Y-59116778D01*
X121847415Y-58688207D02*
X122018843Y-58688207D01*
X122018843Y-58688207D02*
X122104557Y-58731064D01*
X122104557Y-58731064D02*
X122147415Y-58773921D01*
X122147415Y-58773921D02*
X122233129Y-58902492D01*
X122233129Y-58902492D02*
X122275986Y-59073921D01*
X122275986Y-59073921D02*
X122275986Y-59416778D01*
X122275986Y-59416778D02*
X122233129Y-59502492D01*
X122233129Y-59502492D02*
X122190272Y-59545350D01*
X122190272Y-59545350D02*
X122104557Y-59588207D01*
X122104557Y-59588207D02*
X121933129Y-59588207D01*
X121933129Y-59588207D02*
X121847415Y-59545350D01*
X121847415Y-59545350D02*
X121804557Y-59502492D01*
X121804557Y-59502492D02*
X121761700Y-59416778D01*
X121761700Y-59416778D02*
X121761700Y-59202492D01*
X121761700Y-59202492D02*
X121804557Y-59116778D01*
X121804557Y-59116778D02*
X121847415Y-59073921D01*
X121847415Y-59073921D02*
X121933129Y-59031064D01*
X121933129Y-59031064D02*
X122104557Y-59031064D01*
X122104557Y-59031064D02*
X122190272Y-59073921D01*
X122190272Y-59073921D02*
X122233129Y-59116778D01*
X122233129Y-59116778D02*
X122275986Y-59202492D01*
X134447415Y-61037157D02*
X134747415Y-60608585D01*
X134961701Y-61037157D02*
X134961701Y-60137157D01*
X134961701Y-60137157D02*
X134618844Y-60137157D01*
X134618844Y-60137157D02*
X134533129Y-60180014D01*
X134533129Y-60180014D02*
X134490272Y-60222871D01*
X134490272Y-60222871D02*
X134447415Y-60308585D01*
X134447415Y-60308585D02*
X134447415Y-60437157D01*
X134447415Y-60437157D02*
X134490272Y-60522871D01*
X134490272Y-60522871D02*
X134533129Y-60565728D01*
X134533129Y-60565728D02*
X134618844Y-60608585D01*
X134618844Y-60608585D02*
X134961701Y-60608585D01*
X134061701Y-60565728D02*
X133761701Y-60565728D01*
X133633129Y-61037157D02*
X134061701Y-61037157D01*
X134061701Y-61037157D02*
X134061701Y-60137157D01*
X134061701Y-60137157D02*
X133633129Y-60137157D01*
X133247415Y-61037157D02*
X133247415Y-60137157D01*
X133247415Y-60137157D02*
X133033129Y-60137157D01*
X133033129Y-60137157D02*
X132904558Y-60180014D01*
X132904558Y-60180014D02*
X132818843Y-60265728D01*
X132818843Y-60265728D02*
X132775986Y-60351442D01*
X132775986Y-60351442D02*
X132733129Y-60522871D01*
X132733129Y-60522871D02*
X132733129Y-60651442D01*
X132733129Y-60651442D02*
X132775986Y-60822871D01*
X132775986Y-60822871D02*
X132818843Y-60908585D01*
X132818843Y-60908585D02*
X132904558Y-60994300D01*
X132904558Y-60994300D02*
X133033129Y-61037157D01*
X133033129Y-61037157D02*
X133247415Y-61037157D01*
X131275987Y-60437157D02*
X131275987Y-61165728D01*
X131275987Y-61165728D02*
X131318844Y-61251442D01*
X131318844Y-61251442D02*
X131361701Y-61294300D01*
X131361701Y-61294300D02*
X131447415Y-61337157D01*
X131447415Y-61337157D02*
X131575987Y-61337157D01*
X131575987Y-61337157D02*
X131661701Y-61294300D01*
X131275987Y-60994300D02*
X131361701Y-61037157D01*
X131361701Y-61037157D02*
X131533129Y-61037157D01*
X131533129Y-61037157D02*
X131618844Y-60994300D01*
X131618844Y-60994300D02*
X131661701Y-60951442D01*
X131661701Y-60951442D02*
X131704558Y-60865728D01*
X131704558Y-60865728D02*
X131704558Y-60608585D01*
X131704558Y-60608585D02*
X131661701Y-60522871D01*
X131661701Y-60522871D02*
X131618844Y-60480014D01*
X131618844Y-60480014D02*
X131533129Y-60437157D01*
X131533129Y-60437157D02*
X131361701Y-60437157D01*
X131361701Y-60437157D02*
X131275987Y-60480014D01*
X130847415Y-60437157D02*
X130847415Y-61337157D01*
X130847415Y-60480014D02*
X130761701Y-60437157D01*
X130761701Y-60437157D02*
X130590272Y-60437157D01*
X130590272Y-60437157D02*
X130504558Y-60480014D01*
X130504558Y-60480014D02*
X130461701Y-60522871D01*
X130461701Y-60522871D02*
X130418843Y-60608585D01*
X130418843Y-60608585D02*
X130418843Y-60865728D01*
X130418843Y-60865728D02*
X130461701Y-60951442D01*
X130461701Y-60951442D02*
X130504558Y-60994300D01*
X130504558Y-60994300D02*
X130590272Y-61037157D01*
X130590272Y-61037157D02*
X130761701Y-61037157D01*
X130761701Y-61037157D02*
X130847415Y-60994300D01*
X130033129Y-61037157D02*
X130033129Y-60437157D01*
X130033129Y-60137157D02*
X130075986Y-60180014D01*
X130075986Y-60180014D02*
X130033129Y-60222871D01*
X130033129Y-60222871D02*
X129990272Y-60180014D01*
X129990272Y-60180014D02*
X130033129Y-60137157D01*
X130033129Y-60137157D02*
X130033129Y-60222871D01*
X129475986Y-61037157D02*
X129561701Y-60994300D01*
X129561701Y-60994300D02*
X129604558Y-60951442D01*
X129604558Y-60951442D02*
X129647415Y-60865728D01*
X129647415Y-60865728D02*
X129647415Y-60608585D01*
X129647415Y-60608585D02*
X129604558Y-60522871D01*
X129604558Y-60522871D02*
X129561701Y-60480014D01*
X129561701Y-60480014D02*
X129475986Y-60437157D01*
X129475986Y-60437157D02*
X129347415Y-60437157D01*
X129347415Y-60437157D02*
X129261701Y-60480014D01*
X129261701Y-60480014D02*
X129218844Y-60522871D01*
X129218844Y-60522871D02*
X129175986Y-60608585D01*
X129175986Y-60608585D02*
X129175986Y-60865728D01*
X129175986Y-60865728D02*
X129218844Y-60951442D01*
X129218844Y-60951442D02*
X129261701Y-60994300D01*
X129261701Y-60994300D02*
X129347415Y-61037157D01*
X129347415Y-61037157D02*
X129475986Y-61037157D01*
X128790272Y-60694300D02*
X128104558Y-60694300D01*
X127804557Y-60437157D02*
X127461700Y-60437157D01*
X127675986Y-60137157D02*
X127675986Y-60908585D01*
X127675986Y-60908585D02*
X127633129Y-60994300D01*
X127633129Y-60994300D02*
X127547414Y-61037157D01*
X127547414Y-61037157D02*
X127461700Y-61037157D01*
X127247414Y-61037157D02*
X126775986Y-60437157D01*
X127247414Y-60437157D02*
X126775986Y-61037157D01*
X125747415Y-61037157D02*
X125747415Y-60137157D01*
X125747415Y-60137157D02*
X125404558Y-60137157D01*
X125404558Y-60137157D02*
X125318843Y-60180014D01*
X125318843Y-60180014D02*
X125275986Y-60222871D01*
X125275986Y-60222871D02*
X125233129Y-60308585D01*
X125233129Y-60308585D02*
X125233129Y-60437157D01*
X125233129Y-60437157D02*
X125275986Y-60522871D01*
X125275986Y-60522871D02*
X125318843Y-60565728D01*
X125318843Y-60565728D02*
X125404558Y-60608585D01*
X125404558Y-60608585D02*
X125747415Y-60608585D01*
X124547415Y-60565728D02*
X124418843Y-60608585D01*
X124418843Y-60608585D02*
X124375986Y-60651442D01*
X124375986Y-60651442D02*
X124333129Y-60737157D01*
X124333129Y-60737157D02*
X124333129Y-60865728D01*
X124333129Y-60865728D02*
X124375986Y-60951442D01*
X124375986Y-60951442D02*
X124418843Y-60994300D01*
X124418843Y-60994300D02*
X124504558Y-61037157D01*
X124504558Y-61037157D02*
X124847415Y-61037157D01*
X124847415Y-61037157D02*
X124847415Y-60137157D01*
X124847415Y-60137157D02*
X124547415Y-60137157D01*
X124547415Y-60137157D02*
X124461701Y-60180014D01*
X124461701Y-60180014D02*
X124418843Y-60222871D01*
X124418843Y-60222871D02*
X124375986Y-60308585D01*
X124375986Y-60308585D02*
X124375986Y-60394300D01*
X124375986Y-60394300D02*
X124418843Y-60480014D01*
X124418843Y-60480014D02*
X124461701Y-60522871D01*
X124461701Y-60522871D02*
X124547415Y-60565728D01*
X124547415Y-60565728D02*
X124847415Y-60565728D01*
X123475986Y-61037157D02*
X123990272Y-61037157D01*
X123733129Y-61037157D02*
X123733129Y-60137157D01*
X123733129Y-60137157D02*
X123818843Y-60265728D01*
X123818843Y-60265728D02*
X123904558Y-60351442D01*
X123904558Y-60351442D02*
X123990272Y-60394300D01*
X122918843Y-60137157D02*
X122833129Y-60137157D01*
X122833129Y-60137157D02*
X122747415Y-60180014D01*
X122747415Y-60180014D02*
X122704558Y-60222871D01*
X122704558Y-60222871D02*
X122661700Y-60308585D01*
X122661700Y-60308585D02*
X122618843Y-60480014D01*
X122618843Y-60480014D02*
X122618843Y-60694300D01*
X122618843Y-60694300D02*
X122661700Y-60865728D01*
X122661700Y-60865728D02*
X122704558Y-60951442D01*
X122704558Y-60951442D02*
X122747415Y-60994300D01*
X122747415Y-60994300D02*
X122833129Y-61037157D01*
X122833129Y-61037157D02*
X122918843Y-61037157D01*
X122918843Y-61037157D02*
X123004558Y-60994300D01*
X123004558Y-60994300D02*
X123047415Y-60951442D01*
X123047415Y-60951442D02*
X123090272Y-60865728D01*
X123090272Y-60865728D02*
X123133129Y-60694300D01*
X123133129Y-60694300D02*
X123133129Y-60480014D01*
X123133129Y-60480014D02*
X123090272Y-60308585D01*
X123090272Y-60308585D02*
X123047415Y-60222871D01*
X123047415Y-60222871D02*
X123004558Y-60180014D01*
X123004558Y-60180014D02*
X122918843Y-60137157D01*
X134490272Y-61628964D02*
X134575987Y-61586107D01*
X134575987Y-61586107D02*
X134704558Y-61586107D01*
X134704558Y-61586107D02*
X134833129Y-61628964D01*
X134833129Y-61628964D02*
X134918844Y-61714678D01*
X134918844Y-61714678D02*
X134961701Y-61800392D01*
X134961701Y-61800392D02*
X135004558Y-61971821D01*
X135004558Y-61971821D02*
X135004558Y-62100392D01*
X135004558Y-62100392D02*
X134961701Y-62271821D01*
X134961701Y-62271821D02*
X134918844Y-62357535D01*
X134918844Y-62357535D02*
X134833129Y-62443250D01*
X134833129Y-62443250D02*
X134704558Y-62486107D01*
X134704558Y-62486107D02*
X134618844Y-62486107D01*
X134618844Y-62486107D02*
X134490272Y-62443250D01*
X134490272Y-62443250D02*
X134447415Y-62400392D01*
X134447415Y-62400392D02*
X134447415Y-62100392D01*
X134447415Y-62100392D02*
X134618844Y-62100392D01*
X133547415Y-62486107D02*
X133847415Y-62057535D01*
X134061701Y-62486107D02*
X134061701Y-61586107D01*
X134061701Y-61586107D02*
X133718844Y-61586107D01*
X133718844Y-61586107D02*
X133633129Y-61628964D01*
X133633129Y-61628964D02*
X133590272Y-61671821D01*
X133590272Y-61671821D02*
X133547415Y-61757535D01*
X133547415Y-61757535D02*
X133547415Y-61886107D01*
X133547415Y-61886107D02*
X133590272Y-61971821D01*
X133590272Y-61971821D02*
X133633129Y-62014678D01*
X133633129Y-62014678D02*
X133718844Y-62057535D01*
X133718844Y-62057535D02*
X134061701Y-62057535D01*
X133161701Y-62014678D02*
X132861701Y-62014678D01*
X132733129Y-62486107D02*
X133161701Y-62486107D01*
X133161701Y-62486107D02*
X133161701Y-61586107D01*
X133161701Y-61586107D02*
X132733129Y-61586107D01*
X132347415Y-62014678D02*
X132047415Y-62014678D01*
X131918843Y-62486107D02*
X132347415Y-62486107D01*
X132347415Y-62486107D02*
X132347415Y-61586107D01*
X132347415Y-61586107D02*
X131918843Y-61586107D01*
X131533129Y-62486107D02*
X131533129Y-61586107D01*
X131533129Y-61586107D02*
X131018843Y-62486107D01*
X131018843Y-62486107D02*
X131018843Y-61586107D01*
X129518844Y-61886107D02*
X129518844Y-62614678D01*
X129518844Y-62614678D02*
X129561701Y-62700392D01*
X129561701Y-62700392D02*
X129604558Y-62743250D01*
X129604558Y-62743250D02*
X129690272Y-62786107D01*
X129690272Y-62786107D02*
X129818844Y-62786107D01*
X129818844Y-62786107D02*
X129904558Y-62743250D01*
X129518844Y-62443250D02*
X129604558Y-62486107D01*
X129604558Y-62486107D02*
X129775986Y-62486107D01*
X129775986Y-62486107D02*
X129861701Y-62443250D01*
X129861701Y-62443250D02*
X129904558Y-62400392D01*
X129904558Y-62400392D02*
X129947415Y-62314678D01*
X129947415Y-62314678D02*
X129947415Y-62057535D01*
X129947415Y-62057535D02*
X129904558Y-61971821D01*
X129904558Y-61971821D02*
X129861701Y-61928964D01*
X129861701Y-61928964D02*
X129775986Y-61886107D01*
X129775986Y-61886107D02*
X129604558Y-61886107D01*
X129604558Y-61886107D02*
X129518844Y-61928964D01*
X129090272Y-61886107D02*
X129090272Y-62786107D01*
X129090272Y-61928964D02*
X129004558Y-61886107D01*
X129004558Y-61886107D02*
X128833129Y-61886107D01*
X128833129Y-61886107D02*
X128747415Y-61928964D01*
X128747415Y-61928964D02*
X128704558Y-61971821D01*
X128704558Y-61971821D02*
X128661700Y-62057535D01*
X128661700Y-62057535D02*
X128661700Y-62314678D01*
X128661700Y-62314678D02*
X128704558Y-62400392D01*
X128704558Y-62400392D02*
X128747415Y-62443250D01*
X128747415Y-62443250D02*
X128833129Y-62486107D01*
X128833129Y-62486107D02*
X129004558Y-62486107D01*
X129004558Y-62486107D02*
X129090272Y-62443250D01*
X128275986Y-62486107D02*
X128275986Y-61886107D01*
X128275986Y-61586107D02*
X128318843Y-61628964D01*
X128318843Y-61628964D02*
X128275986Y-61671821D01*
X128275986Y-61671821D02*
X128233129Y-61628964D01*
X128233129Y-61628964D02*
X128275986Y-61586107D01*
X128275986Y-61586107D02*
X128275986Y-61671821D01*
X127718843Y-62486107D02*
X127804558Y-62443250D01*
X127804558Y-62443250D02*
X127847415Y-62400392D01*
X127847415Y-62400392D02*
X127890272Y-62314678D01*
X127890272Y-62314678D02*
X127890272Y-62057535D01*
X127890272Y-62057535D02*
X127847415Y-61971821D01*
X127847415Y-61971821D02*
X127804558Y-61928964D01*
X127804558Y-61928964D02*
X127718843Y-61886107D01*
X127718843Y-61886107D02*
X127590272Y-61886107D01*
X127590272Y-61886107D02*
X127504558Y-61928964D01*
X127504558Y-61928964D02*
X127461701Y-61971821D01*
X127461701Y-61971821D02*
X127418843Y-62057535D01*
X127418843Y-62057535D02*
X127418843Y-62314678D01*
X127418843Y-62314678D02*
X127461701Y-62400392D01*
X127461701Y-62400392D02*
X127504558Y-62443250D01*
X127504558Y-62443250D02*
X127590272Y-62486107D01*
X127590272Y-62486107D02*
X127718843Y-62486107D01*
X127033129Y-62143250D02*
X126347415Y-62143250D01*
X125918843Y-62486107D02*
X125918843Y-61886107D01*
X125918843Y-62057535D02*
X125875986Y-61971821D01*
X125875986Y-61971821D02*
X125833129Y-61928964D01*
X125833129Y-61928964D02*
X125747414Y-61886107D01*
X125747414Y-61886107D02*
X125661700Y-61886107D01*
X125447414Y-62486107D02*
X124975986Y-61886107D01*
X125447414Y-61886107D02*
X124975986Y-62486107D01*
X123947415Y-62486107D02*
X123947415Y-61586107D01*
X123947415Y-61586107D02*
X123604558Y-61586107D01*
X123604558Y-61586107D02*
X123518843Y-61628964D01*
X123518843Y-61628964D02*
X123475986Y-61671821D01*
X123475986Y-61671821D02*
X123433129Y-61757535D01*
X123433129Y-61757535D02*
X123433129Y-61886107D01*
X123433129Y-61886107D02*
X123475986Y-61971821D01*
X123475986Y-61971821D02*
X123518843Y-62014678D01*
X123518843Y-62014678D02*
X123604558Y-62057535D01*
X123604558Y-62057535D02*
X123947415Y-62057535D01*
X122747415Y-62014678D02*
X122618843Y-62057535D01*
X122618843Y-62057535D02*
X122575986Y-62100392D01*
X122575986Y-62100392D02*
X122533129Y-62186107D01*
X122533129Y-62186107D02*
X122533129Y-62314678D01*
X122533129Y-62314678D02*
X122575986Y-62400392D01*
X122575986Y-62400392D02*
X122618843Y-62443250D01*
X122618843Y-62443250D02*
X122704558Y-62486107D01*
X122704558Y-62486107D02*
X123047415Y-62486107D01*
X123047415Y-62486107D02*
X123047415Y-61586107D01*
X123047415Y-61586107D02*
X122747415Y-61586107D01*
X122747415Y-61586107D02*
X122661701Y-61628964D01*
X122661701Y-61628964D02*
X122618843Y-61671821D01*
X122618843Y-61671821D02*
X122575986Y-61757535D01*
X122575986Y-61757535D02*
X122575986Y-61843250D01*
X122575986Y-61843250D02*
X122618843Y-61928964D01*
X122618843Y-61928964D02*
X122661701Y-61971821D01*
X122661701Y-61971821D02*
X122747415Y-62014678D01*
X122747415Y-62014678D02*
X123047415Y-62014678D01*
X121675986Y-62486107D02*
X122190272Y-62486107D01*
X121933129Y-62486107D02*
X121933129Y-61586107D01*
X121933129Y-61586107D02*
X122018843Y-61714678D01*
X122018843Y-61714678D02*
X122104558Y-61800392D01*
X122104558Y-61800392D02*
X122190272Y-61843250D01*
X120818843Y-62486107D02*
X121333129Y-62486107D01*
X121075986Y-62486107D02*
X121075986Y-61586107D01*
X121075986Y-61586107D02*
X121161700Y-61714678D01*
X121161700Y-61714678D02*
X121247415Y-61800392D01*
X121247415Y-61800392D02*
X121333129Y-61843250D01*
X134661701Y-63463628D02*
X134533129Y-63506485D01*
X134533129Y-63506485D02*
X134490272Y-63549342D01*
X134490272Y-63549342D02*
X134447415Y-63635057D01*
X134447415Y-63635057D02*
X134447415Y-63763628D01*
X134447415Y-63763628D02*
X134490272Y-63849342D01*
X134490272Y-63849342D02*
X134533129Y-63892200D01*
X134533129Y-63892200D02*
X134618844Y-63935057D01*
X134618844Y-63935057D02*
X134961701Y-63935057D01*
X134961701Y-63935057D02*
X134961701Y-63035057D01*
X134961701Y-63035057D02*
X134661701Y-63035057D01*
X134661701Y-63035057D02*
X134575987Y-63077914D01*
X134575987Y-63077914D02*
X134533129Y-63120771D01*
X134533129Y-63120771D02*
X134490272Y-63206485D01*
X134490272Y-63206485D02*
X134490272Y-63292200D01*
X134490272Y-63292200D02*
X134533129Y-63377914D01*
X134533129Y-63377914D02*
X134575987Y-63420771D01*
X134575987Y-63420771D02*
X134661701Y-63463628D01*
X134661701Y-63463628D02*
X134961701Y-63463628D01*
X133633129Y-63935057D02*
X134061701Y-63935057D01*
X134061701Y-63935057D02*
X134061701Y-63035057D01*
X133333130Y-63035057D02*
X133333130Y-63763628D01*
X133333130Y-63763628D02*
X133290273Y-63849342D01*
X133290273Y-63849342D02*
X133247416Y-63892200D01*
X133247416Y-63892200D02*
X133161701Y-63935057D01*
X133161701Y-63935057D02*
X132990273Y-63935057D01*
X132990273Y-63935057D02*
X132904558Y-63892200D01*
X132904558Y-63892200D02*
X132861701Y-63849342D01*
X132861701Y-63849342D02*
X132818844Y-63763628D01*
X132818844Y-63763628D02*
X132818844Y-63035057D01*
X132390273Y-63463628D02*
X132090273Y-63463628D01*
X131961701Y-63935057D02*
X132390273Y-63935057D01*
X132390273Y-63935057D02*
X132390273Y-63035057D01*
X132390273Y-63035057D02*
X131961701Y-63035057D01*
X130504559Y-63335057D02*
X130504559Y-64063628D01*
X130504559Y-64063628D02*
X130547416Y-64149342D01*
X130547416Y-64149342D02*
X130590273Y-64192200D01*
X130590273Y-64192200D02*
X130675987Y-64235057D01*
X130675987Y-64235057D02*
X130804559Y-64235057D01*
X130804559Y-64235057D02*
X130890273Y-64192200D01*
X130504559Y-63892200D02*
X130590273Y-63935057D01*
X130590273Y-63935057D02*
X130761701Y-63935057D01*
X130761701Y-63935057D02*
X130847416Y-63892200D01*
X130847416Y-63892200D02*
X130890273Y-63849342D01*
X130890273Y-63849342D02*
X130933130Y-63763628D01*
X130933130Y-63763628D02*
X130933130Y-63506485D01*
X130933130Y-63506485D02*
X130890273Y-63420771D01*
X130890273Y-63420771D02*
X130847416Y-63377914D01*
X130847416Y-63377914D02*
X130761701Y-63335057D01*
X130761701Y-63335057D02*
X130590273Y-63335057D01*
X130590273Y-63335057D02*
X130504559Y-63377914D01*
X130075987Y-63335057D02*
X130075987Y-64235057D01*
X130075987Y-63377914D02*
X129990273Y-63335057D01*
X129990273Y-63335057D02*
X129818844Y-63335057D01*
X129818844Y-63335057D02*
X129733130Y-63377914D01*
X129733130Y-63377914D02*
X129690273Y-63420771D01*
X129690273Y-63420771D02*
X129647415Y-63506485D01*
X129647415Y-63506485D02*
X129647415Y-63763628D01*
X129647415Y-63763628D02*
X129690273Y-63849342D01*
X129690273Y-63849342D02*
X129733130Y-63892200D01*
X129733130Y-63892200D02*
X129818844Y-63935057D01*
X129818844Y-63935057D02*
X129990273Y-63935057D01*
X129990273Y-63935057D02*
X130075987Y-63892200D01*
X129261701Y-63935057D02*
X129261701Y-63335057D01*
X129261701Y-63035057D02*
X129304558Y-63077914D01*
X129304558Y-63077914D02*
X129261701Y-63120771D01*
X129261701Y-63120771D02*
X129218844Y-63077914D01*
X129218844Y-63077914D02*
X129261701Y-63035057D01*
X129261701Y-63035057D02*
X129261701Y-63120771D01*
X128704558Y-63935057D02*
X128790273Y-63892200D01*
X128790273Y-63892200D02*
X128833130Y-63849342D01*
X128833130Y-63849342D02*
X128875987Y-63763628D01*
X128875987Y-63763628D02*
X128875987Y-63506485D01*
X128875987Y-63506485D02*
X128833130Y-63420771D01*
X128833130Y-63420771D02*
X128790273Y-63377914D01*
X128790273Y-63377914D02*
X128704558Y-63335057D01*
X128704558Y-63335057D02*
X128575987Y-63335057D01*
X128575987Y-63335057D02*
X128490273Y-63377914D01*
X128490273Y-63377914D02*
X128447416Y-63420771D01*
X128447416Y-63420771D02*
X128404558Y-63506485D01*
X128404558Y-63506485D02*
X128404558Y-63763628D01*
X128404558Y-63763628D02*
X128447416Y-63849342D01*
X128447416Y-63849342D02*
X128490273Y-63892200D01*
X128490273Y-63892200D02*
X128575987Y-63935057D01*
X128575987Y-63935057D02*
X128704558Y-63935057D01*
X128018844Y-63592200D02*
X127333130Y-63592200D01*
X126904558Y-63935057D02*
X126904558Y-63035057D01*
X126518844Y-63935057D02*
X126518844Y-63463628D01*
X126518844Y-63463628D02*
X126561701Y-63377914D01*
X126561701Y-63377914D02*
X126647415Y-63335057D01*
X126647415Y-63335057D02*
X126775986Y-63335057D01*
X126775986Y-63335057D02*
X126861701Y-63377914D01*
X126861701Y-63377914D02*
X126904558Y-63420771D01*
X125704558Y-63935057D02*
X125704558Y-63463628D01*
X125704558Y-63463628D02*
X125747415Y-63377914D01*
X125747415Y-63377914D02*
X125833129Y-63335057D01*
X125833129Y-63335057D02*
X126004558Y-63335057D01*
X126004558Y-63335057D02*
X126090272Y-63377914D01*
X125704558Y-63892200D02*
X125790272Y-63935057D01*
X125790272Y-63935057D02*
X126004558Y-63935057D01*
X126004558Y-63935057D02*
X126090272Y-63892200D01*
X126090272Y-63892200D02*
X126133129Y-63806485D01*
X126133129Y-63806485D02*
X126133129Y-63720771D01*
X126133129Y-63720771D02*
X126090272Y-63635057D01*
X126090272Y-63635057D02*
X126004558Y-63592200D01*
X126004558Y-63592200D02*
X125790272Y-63592200D01*
X125790272Y-63592200D02*
X125704558Y-63549342D01*
X125147414Y-63935057D02*
X125233129Y-63892200D01*
X125233129Y-63892200D02*
X125275986Y-63806485D01*
X125275986Y-63806485D02*
X125275986Y-63035057D01*
X124675985Y-63935057D02*
X124761700Y-63892200D01*
X124761700Y-63892200D02*
X124804557Y-63806485D01*
X124804557Y-63806485D02*
X124804557Y-63035057D01*
X123861699Y-63935057D02*
X124375985Y-63935057D01*
X124118842Y-63935057D02*
X124118842Y-63035057D01*
X124118842Y-63035057D02*
X124204556Y-63163628D01*
X124204556Y-63163628D02*
X124290271Y-63249342D01*
X124290271Y-63249342D02*
X124375985Y-63292200D01*
X122790271Y-63935057D02*
X122790271Y-63035057D01*
X122790271Y-63035057D02*
X122447414Y-63035057D01*
X122447414Y-63035057D02*
X122361699Y-63077914D01*
X122361699Y-63077914D02*
X122318842Y-63120771D01*
X122318842Y-63120771D02*
X122275985Y-63206485D01*
X122275985Y-63206485D02*
X122275985Y-63335057D01*
X122275985Y-63335057D02*
X122318842Y-63420771D01*
X122318842Y-63420771D02*
X122361699Y-63463628D01*
X122361699Y-63463628D02*
X122447414Y-63506485D01*
X122447414Y-63506485D02*
X122790271Y-63506485D01*
X121375985Y-63849342D02*
X121418842Y-63892200D01*
X121418842Y-63892200D02*
X121547414Y-63935057D01*
X121547414Y-63935057D02*
X121633128Y-63935057D01*
X121633128Y-63935057D02*
X121761699Y-63892200D01*
X121761699Y-63892200D02*
X121847414Y-63806485D01*
X121847414Y-63806485D02*
X121890271Y-63720771D01*
X121890271Y-63720771D02*
X121933128Y-63549342D01*
X121933128Y-63549342D02*
X121933128Y-63420771D01*
X121933128Y-63420771D02*
X121890271Y-63249342D01*
X121890271Y-63249342D02*
X121847414Y-63163628D01*
X121847414Y-63163628D02*
X121761699Y-63077914D01*
X121761699Y-63077914D02*
X121633128Y-63035057D01*
X121633128Y-63035057D02*
X121547414Y-63035057D01*
X121547414Y-63035057D02*
X121418842Y-63077914D01*
X121418842Y-63077914D02*
X121375985Y-63120771D01*
X120604557Y-63035057D02*
X120775985Y-63035057D01*
X120775985Y-63035057D02*
X120861699Y-63077914D01*
X120861699Y-63077914D02*
X120904557Y-63120771D01*
X120904557Y-63120771D02*
X120990271Y-63249342D01*
X120990271Y-63249342D02*
X121033128Y-63420771D01*
X121033128Y-63420771D02*
X121033128Y-63763628D01*
X121033128Y-63763628D02*
X120990271Y-63849342D01*
X120990271Y-63849342D02*
X120947414Y-63892200D01*
X120947414Y-63892200D02*
X120861699Y-63935057D01*
X120861699Y-63935057D02*
X120690271Y-63935057D01*
X120690271Y-63935057D02*
X120604557Y-63892200D01*
X120604557Y-63892200D02*
X120561699Y-63849342D01*
X120561699Y-63849342D02*
X120518842Y-63763628D01*
X120518842Y-63763628D02*
X120518842Y-63549342D01*
X120518842Y-63549342D02*
X120561699Y-63463628D01*
X120561699Y-63463628D02*
X120604557Y-63420771D01*
X120604557Y-63420771D02*
X120690271Y-63377914D01*
X120690271Y-63377914D02*
X120861699Y-63377914D01*
X120861699Y-63377914D02*
X120947414Y-63420771D01*
X120947414Y-63420771D02*
X120990271Y-63463628D01*
X120990271Y-63463628D02*
X121033128Y-63549342D01*
X135047415Y-64784007D02*
X134875987Y-65384007D01*
X134875987Y-65384007D02*
X134704558Y-64955435D01*
X134704558Y-64955435D02*
X134533129Y-65384007D01*
X134533129Y-65384007D02*
X134361701Y-64784007D01*
X133633130Y-65384007D02*
X133633130Y-64912578D01*
X133633130Y-64912578D02*
X133675987Y-64826864D01*
X133675987Y-64826864D02*
X133761701Y-64784007D01*
X133761701Y-64784007D02*
X133933130Y-64784007D01*
X133933130Y-64784007D02*
X134018844Y-64826864D01*
X133633130Y-65341150D02*
X133718844Y-65384007D01*
X133718844Y-65384007D02*
X133933130Y-65384007D01*
X133933130Y-65384007D02*
X134018844Y-65341150D01*
X134018844Y-65341150D02*
X134061701Y-65255435D01*
X134061701Y-65255435D02*
X134061701Y-65169721D01*
X134061701Y-65169721D02*
X134018844Y-65084007D01*
X134018844Y-65084007D02*
X133933130Y-65041150D01*
X133933130Y-65041150D02*
X133718844Y-65041150D01*
X133718844Y-65041150D02*
X133633130Y-64998292D01*
X133333129Y-64784007D02*
X132990272Y-64784007D01*
X133204558Y-64484007D02*
X133204558Y-65255435D01*
X133204558Y-65255435D02*
X133161701Y-65341150D01*
X133161701Y-65341150D02*
X133075986Y-65384007D01*
X133075986Y-65384007D02*
X132990272Y-65384007D01*
X132347415Y-65341150D02*
X132433129Y-65384007D01*
X132433129Y-65384007D02*
X132604558Y-65384007D01*
X132604558Y-65384007D02*
X132690272Y-65341150D01*
X132690272Y-65341150D02*
X132733129Y-65255435D01*
X132733129Y-65255435D02*
X132733129Y-64912578D01*
X132733129Y-64912578D02*
X132690272Y-64826864D01*
X132690272Y-64826864D02*
X132604558Y-64784007D01*
X132604558Y-64784007D02*
X132433129Y-64784007D01*
X132433129Y-64784007D02*
X132347415Y-64826864D01*
X132347415Y-64826864D02*
X132304558Y-64912578D01*
X132304558Y-64912578D02*
X132304558Y-64998292D01*
X132304558Y-64998292D02*
X132733129Y-65084007D01*
X131918843Y-65384007D02*
X131918843Y-64784007D01*
X131918843Y-64955435D02*
X131875986Y-64869721D01*
X131875986Y-64869721D02*
X131833129Y-64826864D01*
X131833129Y-64826864D02*
X131747414Y-64784007D01*
X131747414Y-64784007D02*
X131661700Y-64784007D01*
X130718843Y-65341150D02*
X130633129Y-65384007D01*
X130633129Y-65384007D02*
X130461700Y-65384007D01*
X130461700Y-65384007D02*
X130375986Y-65341150D01*
X130375986Y-65341150D02*
X130333129Y-65255435D01*
X130333129Y-65255435D02*
X130333129Y-65212578D01*
X130333129Y-65212578D02*
X130375986Y-65126864D01*
X130375986Y-65126864D02*
X130461700Y-65084007D01*
X130461700Y-65084007D02*
X130590272Y-65084007D01*
X130590272Y-65084007D02*
X130675986Y-65041150D01*
X130675986Y-65041150D02*
X130718843Y-64955435D01*
X130718843Y-64955435D02*
X130718843Y-64912578D01*
X130718843Y-64912578D02*
X130675986Y-64826864D01*
X130675986Y-64826864D02*
X130590272Y-64784007D01*
X130590272Y-64784007D02*
X130461700Y-64784007D01*
X130461700Y-64784007D02*
X130375986Y-64826864D01*
X129604558Y-65341150D02*
X129690272Y-65384007D01*
X129690272Y-65384007D02*
X129861701Y-65384007D01*
X129861701Y-65384007D02*
X129947415Y-65341150D01*
X129947415Y-65341150D02*
X129990272Y-65255435D01*
X129990272Y-65255435D02*
X129990272Y-64912578D01*
X129990272Y-64912578D02*
X129947415Y-64826864D01*
X129947415Y-64826864D02*
X129861701Y-64784007D01*
X129861701Y-64784007D02*
X129690272Y-64784007D01*
X129690272Y-64784007D02*
X129604558Y-64826864D01*
X129604558Y-64826864D02*
X129561701Y-64912578D01*
X129561701Y-64912578D02*
X129561701Y-64998292D01*
X129561701Y-64998292D02*
X129990272Y-65084007D01*
X129175986Y-64784007D02*
X129175986Y-65384007D01*
X129175986Y-64869721D02*
X129133129Y-64826864D01*
X129133129Y-64826864D02*
X129047414Y-64784007D01*
X129047414Y-64784007D02*
X128918843Y-64784007D01*
X128918843Y-64784007D02*
X128833129Y-64826864D01*
X128833129Y-64826864D02*
X128790272Y-64912578D01*
X128790272Y-64912578D02*
X128790272Y-65384007D01*
X128404557Y-65341150D02*
X128318843Y-65384007D01*
X128318843Y-65384007D02*
X128147414Y-65384007D01*
X128147414Y-65384007D02*
X128061700Y-65341150D01*
X128061700Y-65341150D02*
X128018843Y-65255435D01*
X128018843Y-65255435D02*
X128018843Y-65212578D01*
X128018843Y-65212578D02*
X128061700Y-65126864D01*
X128061700Y-65126864D02*
X128147414Y-65084007D01*
X128147414Y-65084007D02*
X128275986Y-65084007D01*
X128275986Y-65084007D02*
X128361700Y-65041150D01*
X128361700Y-65041150D02*
X128404557Y-64955435D01*
X128404557Y-64955435D02*
X128404557Y-64912578D01*
X128404557Y-64912578D02*
X128361700Y-64826864D01*
X128361700Y-64826864D02*
X128275986Y-64784007D01*
X128275986Y-64784007D02*
X128147414Y-64784007D01*
X128147414Y-64784007D02*
X128061700Y-64826864D01*
X127504557Y-65384007D02*
X127590272Y-65341150D01*
X127590272Y-65341150D02*
X127633129Y-65298292D01*
X127633129Y-65298292D02*
X127675986Y-65212578D01*
X127675986Y-65212578D02*
X127675986Y-64955435D01*
X127675986Y-64955435D02*
X127633129Y-64869721D01*
X127633129Y-64869721D02*
X127590272Y-64826864D01*
X127590272Y-64826864D02*
X127504557Y-64784007D01*
X127504557Y-64784007D02*
X127375986Y-64784007D01*
X127375986Y-64784007D02*
X127290272Y-64826864D01*
X127290272Y-64826864D02*
X127247415Y-64869721D01*
X127247415Y-64869721D02*
X127204557Y-64955435D01*
X127204557Y-64955435D02*
X127204557Y-65212578D01*
X127204557Y-65212578D02*
X127247415Y-65298292D01*
X127247415Y-65298292D02*
X127290272Y-65341150D01*
X127290272Y-65341150D02*
X127375986Y-65384007D01*
X127375986Y-65384007D02*
X127504557Y-65384007D01*
X126818843Y-65384007D02*
X126818843Y-64784007D01*
X126818843Y-64955435D02*
X126775986Y-64869721D01*
X126775986Y-64869721D02*
X126733129Y-64826864D01*
X126733129Y-64826864D02*
X126647414Y-64784007D01*
X126647414Y-64784007D02*
X126561700Y-64784007D01*
X125190272Y-64784007D02*
X125190272Y-65512578D01*
X125190272Y-65512578D02*
X125233129Y-65598292D01*
X125233129Y-65598292D02*
X125275986Y-65641150D01*
X125275986Y-65641150D02*
X125361700Y-65684007D01*
X125361700Y-65684007D02*
X125490272Y-65684007D01*
X125490272Y-65684007D02*
X125575986Y-65641150D01*
X125190272Y-65341150D02*
X125275986Y-65384007D01*
X125275986Y-65384007D02*
X125447414Y-65384007D01*
X125447414Y-65384007D02*
X125533129Y-65341150D01*
X125533129Y-65341150D02*
X125575986Y-65298292D01*
X125575986Y-65298292D02*
X125618843Y-65212578D01*
X125618843Y-65212578D02*
X125618843Y-64955435D01*
X125618843Y-64955435D02*
X125575986Y-64869721D01*
X125575986Y-64869721D02*
X125533129Y-64826864D01*
X125533129Y-64826864D02*
X125447414Y-64784007D01*
X125447414Y-64784007D02*
X125275986Y-64784007D01*
X125275986Y-64784007D02*
X125190272Y-64826864D01*
X124761700Y-64784007D02*
X124761700Y-65684007D01*
X124761700Y-64826864D02*
X124675986Y-64784007D01*
X124675986Y-64784007D02*
X124504557Y-64784007D01*
X124504557Y-64784007D02*
X124418843Y-64826864D01*
X124418843Y-64826864D02*
X124375986Y-64869721D01*
X124375986Y-64869721D02*
X124333128Y-64955435D01*
X124333128Y-64955435D02*
X124333128Y-65212578D01*
X124333128Y-65212578D02*
X124375986Y-65298292D01*
X124375986Y-65298292D02*
X124418843Y-65341150D01*
X124418843Y-65341150D02*
X124504557Y-65384007D01*
X124504557Y-65384007D02*
X124675986Y-65384007D01*
X124675986Y-65384007D02*
X124761700Y-65341150D01*
X123947414Y-65384007D02*
X123947414Y-64784007D01*
X123947414Y-64484007D02*
X123990271Y-64526864D01*
X123990271Y-64526864D02*
X123947414Y-64569721D01*
X123947414Y-64569721D02*
X123904557Y-64526864D01*
X123904557Y-64526864D02*
X123947414Y-64484007D01*
X123947414Y-64484007D02*
X123947414Y-64569721D01*
X123390271Y-65384007D02*
X123475986Y-65341150D01*
X123475986Y-65341150D02*
X123518843Y-65298292D01*
X123518843Y-65298292D02*
X123561700Y-65212578D01*
X123561700Y-65212578D02*
X123561700Y-64955435D01*
X123561700Y-64955435D02*
X123518843Y-64869721D01*
X123518843Y-64869721D02*
X123475986Y-64826864D01*
X123475986Y-64826864D02*
X123390271Y-64784007D01*
X123390271Y-64784007D02*
X123261700Y-64784007D01*
X123261700Y-64784007D02*
X123175986Y-64826864D01*
X123175986Y-64826864D02*
X123133129Y-64869721D01*
X123133129Y-64869721D02*
X123090271Y-64955435D01*
X123090271Y-64955435D02*
X123090271Y-65212578D01*
X123090271Y-65212578D02*
X123133129Y-65298292D01*
X123133129Y-65298292D02*
X123175986Y-65341150D01*
X123175986Y-65341150D02*
X123261700Y-65384007D01*
X123261700Y-65384007D02*
X123390271Y-65384007D01*
X122704557Y-65041150D02*
X122018843Y-65041150D01*
X121204557Y-65384007D02*
X121204557Y-64912578D01*
X121204557Y-64912578D02*
X121247414Y-64826864D01*
X121247414Y-64826864D02*
X121333128Y-64784007D01*
X121333128Y-64784007D02*
X121504557Y-64784007D01*
X121504557Y-64784007D02*
X121590271Y-64826864D01*
X121204557Y-65341150D02*
X121290271Y-65384007D01*
X121290271Y-65384007D02*
X121504557Y-65384007D01*
X121504557Y-65384007D02*
X121590271Y-65341150D01*
X121590271Y-65341150D02*
X121633128Y-65255435D01*
X121633128Y-65255435D02*
X121633128Y-65169721D01*
X121633128Y-65169721D02*
X121590271Y-65084007D01*
X121590271Y-65084007D02*
X121504557Y-65041150D01*
X121504557Y-65041150D02*
X121290271Y-65041150D01*
X121290271Y-65041150D02*
X121204557Y-64998292D01*
X120390271Y-65384007D02*
X120390271Y-64484007D01*
X120390271Y-65341150D02*
X120475985Y-65384007D01*
X120475985Y-65384007D02*
X120647413Y-65384007D01*
X120647413Y-65384007D02*
X120733128Y-65341150D01*
X120733128Y-65341150D02*
X120775985Y-65298292D01*
X120775985Y-65298292D02*
X120818842Y-65212578D01*
X120818842Y-65212578D02*
X120818842Y-64955435D01*
X120818842Y-64955435D02*
X120775985Y-64869721D01*
X120775985Y-64869721D02*
X120733128Y-64826864D01*
X120733128Y-64826864D02*
X120647413Y-64784007D01*
X120647413Y-64784007D02*
X120475985Y-64784007D01*
X120475985Y-64784007D02*
X120390271Y-64826864D01*
X119575985Y-65341150D02*
X119661699Y-65384007D01*
X119661699Y-65384007D02*
X119833127Y-65384007D01*
X119833127Y-65384007D02*
X119918842Y-65341150D01*
X119918842Y-65341150D02*
X119961699Y-65298292D01*
X119961699Y-65298292D02*
X120004556Y-65212578D01*
X120004556Y-65212578D02*
X120004556Y-64955435D01*
X120004556Y-64955435D02*
X119961699Y-64869721D01*
X119961699Y-64869721D02*
X119918842Y-64826864D01*
X119918842Y-64826864D02*
X119833127Y-64784007D01*
X119833127Y-64784007D02*
X119661699Y-64784007D01*
X119661699Y-64784007D02*
X119575985Y-64826864D01*
X118547413Y-65126864D02*
X118118842Y-65126864D01*
X118633127Y-65384007D02*
X118333127Y-64484007D01*
X118333127Y-64484007D02*
X118033127Y-65384007D01*
X117733127Y-65384007D02*
X117733127Y-64484007D01*
X117733127Y-64484007D02*
X117518841Y-64484007D01*
X117518841Y-64484007D02*
X117390270Y-64526864D01*
X117390270Y-64526864D02*
X117304555Y-64612578D01*
X117304555Y-64612578D02*
X117261698Y-64698292D01*
X117261698Y-64698292D02*
X117218841Y-64869721D01*
X117218841Y-64869721D02*
X117218841Y-64998292D01*
X117218841Y-64998292D02*
X117261698Y-65169721D01*
X117261698Y-65169721D02*
X117304555Y-65255435D01*
X117304555Y-65255435D02*
X117390270Y-65341150D01*
X117390270Y-65341150D02*
X117518841Y-65384007D01*
X117518841Y-65384007D02*
X117733127Y-65384007D01*
X116318841Y-65298292D02*
X116361698Y-65341150D01*
X116361698Y-65341150D02*
X116490270Y-65384007D01*
X116490270Y-65384007D02*
X116575984Y-65384007D01*
X116575984Y-65384007D02*
X116704555Y-65341150D01*
X116704555Y-65341150D02*
X116790270Y-65255435D01*
X116790270Y-65255435D02*
X116833127Y-65169721D01*
X116833127Y-65169721D02*
X116875984Y-64998292D01*
X116875984Y-64998292D02*
X116875984Y-64869721D01*
X116875984Y-64869721D02*
X116833127Y-64698292D01*
X116833127Y-64698292D02*
X116790270Y-64612578D01*
X116790270Y-64612578D02*
X116704555Y-64526864D01*
X116704555Y-64526864D02*
X116575984Y-64484007D01*
X116575984Y-64484007D02*
X116490270Y-64484007D01*
X116490270Y-64484007D02*
X116361698Y-64526864D01*
X116361698Y-64526864D02*
X116318841Y-64569721D01*
X115547413Y-64484007D02*
X115718841Y-64484007D01*
X115718841Y-64484007D02*
X115804555Y-64526864D01*
X115804555Y-64526864D02*
X115847413Y-64569721D01*
X115847413Y-64569721D02*
X115933127Y-64698292D01*
X115933127Y-64698292D02*
X115975984Y-64869721D01*
X115975984Y-64869721D02*
X115975984Y-65212578D01*
X115975984Y-65212578D02*
X115933127Y-65298292D01*
X115933127Y-65298292D02*
X115890270Y-65341150D01*
X115890270Y-65341150D02*
X115804555Y-65384007D01*
X115804555Y-65384007D02*
X115633127Y-65384007D01*
X115633127Y-65384007D02*
X115547413Y-65341150D01*
X115547413Y-65341150D02*
X115504555Y-65298292D01*
X115504555Y-65298292D02*
X115461698Y-65212578D01*
X115461698Y-65212578D02*
X115461698Y-64998292D01*
X115461698Y-64998292D02*
X115504555Y-64912578D01*
X115504555Y-64912578D02*
X115547413Y-64869721D01*
X115547413Y-64869721D02*
X115633127Y-64826864D01*
X115633127Y-64826864D02*
X115804555Y-64826864D01*
X115804555Y-64826864D02*
X115890270Y-64869721D01*
X115890270Y-64869721D02*
X115933127Y-64912578D01*
X115933127Y-64912578D02*
X115975984Y-64998292D01*
D12*
X113537907Y-82754142D02*
X113633146Y-82658904D01*
X113633146Y-82658904D02*
X113823622Y-82373190D01*
X113823622Y-82373190D02*
X113918860Y-82182714D01*
X113918860Y-82182714D02*
X114014098Y-81897000D01*
X114014098Y-81897000D02*
X114109336Y-81420809D01*
X114109336Y-81420809D02*
X114109336Y-81039857D01*
X114109336Y-81039857D02*
X114014098Y-80563666D01*
X114014098Y-80563666D02*
X113918860Y-80277952D01*
X113918860Y-80277952D02*
X113823622Y-80087476D01*
X113823622Y-80087476D02*
X113633146Y-79801761D01*
X113633146Y-79801761D02*
X113537907Y-79706523D01*
X112776003Y-81992238D02*
X112776003Y-79992238D01*
X112776003Y-80754142D02*
X112585527Y-80658904D01*
X112585527Y-80658904D02*
X112204574Y-80658904D01*
X112204574Y-80658904D02*
X112014098Y-80754142D01*
X112014098Y-80754142D02*
X111918860Y-80849380D01*
X111918860Y-80849380D02*
X111823622Y-81039857D01*
X111823622Y-81039857D02*
X111823622Y-81611285D01*
X111823622Y-81611285D02*
X111918860Y-81801761D01*
X111918860Y-81801761D02*
X112014098Y-81897000D01*
X112014098Y-81897000D02*
X112204574Y-81992238D01*
X112204574Y-81992238D02*
X112585527Y-81992238D01*
X112585527Y-81992238D02*
X112776003Y-81897000D01*
X110109336Y-81992238D02*
X110109336Y-80944619D01*
X110109336Y-80944619D02*
X110204574Y-80754142D01*
X110204574Y-80754142D02*
X110395050Y-80658904D01*
X110395050Y-80658904D02*
X110776003Y-80658904D01*
X110776003Y-80658904D02*
X110966479Y-80754142D01*
X110109336Y-81897000D02*
X110299812Y-81992238D01*
X110299812Y-81992238D02*
X110776003Y-81992238D01*
X110776003Y-81992238D02*
X110966479Y-81897000D01*
X110966479Y-81897000D02*
X111061717Y-81706523D01*
X111061717Y-81706523D02*
X111061717Y-81516047D01*
X111061717Y-81516047D02*
X110966479Y-81325571D01*
X110966479Y-81325571D02*
X110776003Y-81230333D01*
X110776003Y-81230333D02*
X110299812Y-81230333D01*
X110299812Y-81230333D02*
X110109336Y-81135095D01*
X109252193Y-81897000D02*
X109061717Y-81992238D01*
X109061717Y-81992238D02*
X108680765Y-81992238D01*
X108680765Y-81992238D02*
X108490288Y-81897000D01*
X108490288Y-81897000D02*
X108395050Y-81706523D01*
X108395050Y-81706523D02*
X108395050Y-81611285D01*
X108395050Y-81611285D02*
X108490288Y-81420809D01*
X108490288Y-81420809D02*
X108680765Y-81325571D01*
X108680765Y-81325571D02*
X108966479Y-81325571D01*
X108966479Y-81325571D02*
X109156955Y-81230333D01*
X109156955Y-81230333D02*
X109252193Y-81039857D01*
X109252193Y-81039857D02*
X109252193Y-80944619D01*
X109252193Y-80944619D02*
X109156955Y-80754142D01*
X109156955Y-80754142D02*
X108966479Y-80658904D01*
X108966479Y-80658904D02*
X108680765Y-80658904D01*
X108680765Y-80658904D02*
X108490288Y-80754142D01*
X106776002Y-81897000D02*
X106966478Y-81992238D01*
X106966478Y-81992238D02*
X107347431Y-81992238D01*
X107347431Y-81992238D02*
X107537907Y-81897000D01*
X107537907Y-81897000D02*
X107633145Y-81706523D01*
X107633145Y-81706523D02*
X107633145Y-80944619D01*
X107633145Y-80944619D02*
X107537907Y-80754142D01*
X107537907Y-80754142D02*
X107347431Y-80658904D01*
X107347431Y-80658904D02*
X106966478Y-80658904D01*
X106966478Y-80658904D02*
X106776002Y-80754142D01*
X106776002Y-80754142D02*
X106680764Y-80944619D01*
X106680764Y-80944619D02*
X106680764Y-81135095D01*
X106680764Y-81135095D02*
X107633145Y-81325571D01*
X104966478Y-81992238D02*
X104966478Y-79992238D01*
X104966478Y-81897000D02*
X105156954Y-81992238D01*
X105156954Y-81992238D02*
X105537907Y-81992238D01*
X105537907Y-81992238D02*
X105728383Y-81897000D01*
X105728383Y-81897000D02*
X105823621Y-81801761D01*
X105823621Y-81801761D02*
X105918859Y-81611285D01*
X105918859Y-81611285D02*
X105918859Y-81039857D01*
X105918859Y-81039857D02*
X105823621Y-80849380D01*
X105823621Y-80849380D02*
X105728383Y-80754142D01*
X105728383Y-80754142D02*
X105537907Y-80658904D01*
X105537907Y-80658904D02*
X105156954Y-80658904D01*
X105156954Y-80658904D02*
X104966478Y-80754142D01*
X102204573Y-81992238D02*
X102395049Y-81897000D01*
X102395049Y-81897000D02*
X102490287Y-81801761D01*
X102490287Y-81801761D02*
X102585525Y-81611285D01*
X102585525Y-81611285D02*
X102585525Y-81039857D01*
X102585525Y-81039857D02*
X102490287Y-80849380D01*
X102490287Y-80849380D02*
X102395049Y-80754142D01*
X102395049Y-80754142D02*
X102204573Y-80658904D01*
X102204573Y-80658904D02*
X101918858Y-80658904D01*
X101918858Y-80658904D02*
X101728382Y-80754142D01*
X101728382Y-80754142D02*
X101633144Y-80849380D01*
X101633144Y-80849380D02*
X101537906Y-81039857D01*
X101537906Y-81039857D02*
X101537906Y-81611285D01*
X101537906Y-81611285D02*
X101633144Y-81801761D01*
X101633144Y-81801761D02*
X101728382Y-81897000D01*
X101728382Y-81897000D02*
X101918858Y-81992238D01*
X101918858Y-81992238D02*
X102204573Y-81992238D01*
X100680763Y-80658904D02*
X100680763Y-81992238D01*
X100680763Y-80849380D02*
X100585525Y-80754142D01*
X100585525Y-80754142D02*
X100395049Y-80658904D01*
X100395049Y-80658904D02*
X100109334Y-80658904D01*
X100109334Y-80658904D02*
X99918858Y-80754142D01*
X99918858Y-80754142D02*
X99823620Y-80944619D01*
X99823620Y-80944619D02*
X99823620Y-81992238D01*
X96204572Y-81801761D02*
X96299810Y-81897000D01*
X96299810Y-81897000D02*
X96585524Y-81992238D01*
X96585524Y-81992238D02*
X96776000Y-81992238D01*
X96776000Y-81992238D02*
X97061715Y-81897000D01*
X97061715Y-81897000D02*
X97252191Y-81706523D01*
X97252191Y-81706523D02*
X97347429Y-81516047D01*
X97347429Y-81516047D02*
X97442667Y-81135095D01*
X97442667Y-81135095D02*
X97442667Y-80849380D01*
X97442667Y-80849380D02*
X97347429Y-80468428D01*
X97347429Y-80468428D02*
X97252191Y-80277952D01*
X97252191Y-80277952D02*
X97061715Y-80087476D01*
X97061715Y-80087476D02*
X96776000Y-79992238D01*
X96776000Y-79992238D02*
X96585524Y-79992238D01*
X96585524Y-79992238D02*
X96299810Y-80087476D01*
X96299810Y-80087476D02*
X96204572Y-80182714D01*
X95347429Y-81992238D02*
X95347429Y-79992238D01*
X94490286Y-81992238D02*
X94490286Y-80944619D01*
X94490286Y-80944619D02*
X94585524Y-80754142D01*
X94585524Y-80754142D02*
X94776000Y-80658904D01*
X94776000Y-80658904D02*
X95061715Y-80658904D01*
X95061715Y-80658904D02*
X95252191Y-80754142D01*
X95252191Y-80754142D02*
X95347429Y-80849380D01*
X92776000Y-81897000D02*
X92966476Y-81992238D01*
X92966476Y-81992238D02*
X93347429Y-81992238D01*
X93347429Y-81992238D02*
X93537905Y-81897000D01*
X93537905Y-81897000D02*
X93633143Y-81706523D01*
X93633143Y-81706523D02*
X93633143Y-80944619D01*
X93633143Y-80944619D02*
X93537905Y-80754142D01*
X93537905Y-80754142D02*
X93347429Y-80658904D01*
X93347429Y-80658904D02*
X92966476Y-80658904D01*
X92966476Y-80658904D02*
X92776000Y-80754142D01*
X92776000Y-80754142D02*
X92680762Y-80944619D01*
X92680762Y-80944619D02*
X92680762Y-81135095D01*
X92680762Y-81135095D02*
X93633143Y-81325571D01*
X90966476Y-81992238D02*
X90966476Y-80944619D01*
X90966476Y-80944619D02*
X91061714Y-80754142D01*
X91061714Y-80754142D02*
X91252190Y-80658904D01*
X91252190Y-80658904D02*
X91633143Y-80658904D01*
X91633143Y-80658904D02*
X91823619Y-80754142D01*
X90966476Y-81897000D02*
X91156952Y-81992238D01*
X91156952Y-81992238D02*
X91633143Y-81992238D01*
X91633143Y-81992238D02*
X91823619Y-81897000D01*
X91823619Y-81897000D02*
X91918857Y-81706523D01*
X91918857Y-81706523D02*
X91918857Y-81516047D01*
X91918857Y-81516047D02*
X91823619Y-81325571D01*
X91823619Y-81325571D02*
X91633143Y-81230333D01*
X91633143Y-81230333D02*
X91156952Y-81230333D01*
X91156952Y-81230333D02*
X90966476Y-81135095D01*
X90014095Y-80658904D02*
X90014095Y-82658904D01*
X90014095Y-80754142D02*
X89823619Y-80658904D01*
X89823619Y-80658904D02*
X89442666Y-80658904D01*
X89442666Y-80658904D02*
X89252190Y-80754142D01*
X89252190Y-80754142D02*
X89156952Y-80849380D01*
X89156952Y-80849380D02*
X89061714Y-81039857D01*
X89061714Y-81039857D02*
X89061714Y-81611285D01*
X89061714Y-81611285D02*
X89156952Y-81801761D01*
X89156952Y-81801761D02*
X89252190Y-81897000D01*
X89252190Y-81897000D02*
X89442666Y-81992238D01*
X89442666Y-81992238D02*
X89823619Y-81992238D01*
X89823619Y-81992238D02*
X90014095Y-81897000D01*
X86014094Y-80944619D02*
X86680761Y-80944619D01*
X86680761Y-81992238D02*
X86680761Y-79992238D01*
X86680761Y-79992238D02*
X85728380Y-79992238D01*
X84585523Y-79992238D02*
X84204570Y-79992238D01*
X84204570Y-79992238D02*
X84014094Y-80087476D01*
X84014094Y-80087476D02*
X83823618Y-80277952D01*
X83823618Y-80277952D02*
X83728380Y-80658904D01*
X83728380Y-80658904D02*
X83728380Y-81325571D01*
X83728380Y-81325571D02*
X83823618Y-81706523D01*
X83823618Y-81706523D02*
X84014094Y-81897000D01*
X84014094Y-81897000D02*
X84204570Y-81992238D01*
X84204570Y-81992238D02*
X84585523Y-81992238D01*
X84585523Y-81992238D02*
X84775999Y-81897000D01*
X84775999Y-81897000D02*
X84966475Y-81706523D01*
X84966475Y-81706523D02*
X85061713Y-81325571D01*
X85061713Y-81325571D02*
X85061713Y-80658904D01*
X85061713Y-80658904D02*
X84966475Y-80277952D01*
X84966475Y-80277952D02*
X84775999Y-80087476D01*
X84775999Y-80087476D02*
X84585523Y-79992238D01*
X81728380Y-81801761D02*
X81823618Y-81897000D01*
X81823618Y-81897000D02*
X82109332Y-81992238D01*
X82109332Y-81992238D02*
X82299808Y-81992238D01*
X82299808Y-81992238D02*
X82585523Y-81897000D01*
X82585523Y-81897000D02*
X82775999Y-81706523D01*
X82775999Y-81706523D02*
X82871237Y-81516047D01*
X82871237Y-81516047D02*
X82966475Y-81135095D01*
X82966475Y-81135095D02*
X82966475Y-80849380D01*
X82966475Y-80849380D02*
X82871237Y-80468428D01*
X82871237Y-80468428D02*
X82775999Y-80277952D01*
X82775999Y-80277952D02*
X82585523Y-80087476D01*
X82585523Y-80087476D02*
X82299808Y-79992238D01*
X82299808Y-79992238D02*
X82109332Y-79992238D01*
X82109332Y-79992238D02*
X81823618Y-80087476D01*
X81823618Y-80087476D02*
X81728380Y-80182714D01*
X80109332Y-81897000D02*
X80299808Y-81992238D01*
X80299808Y-81992238D02*
X80680761Y-81992238D01*
X80680761Y-81992238D02*
X80871237Y-81897000D01*
X80871237Y-81897000D02*
X80966475Y-81706523D01*
X80966475Y-81706523D02*
X80966475Y-80944619D01*
X80966475Y-80944619D02*
X80871237Y-80754142D01*
X80871237Y-80754142D02*
X80680761Y-80658904D01*
X80680761Y-80658904D02*
X80299808Y-80658904D01*
X80299808Y-80658904D02*
X80109332Y-80754142D01*
X80109332Y-80754142D02*
X80014094Y-80944619D01*
X80014094Y-80944619D02*
X80014094Y-81135095D01*
X80014094Y-81135095D02*
X80966475Y-81325571D01*
X79156951Y-81992238D02*
X79156951Y-80658904D01*
X79156951Y-81039857D02*
X79061713Y-80849380D01*
X79061713Y-80849380D02*
X78966475Y-80754142D01*
X78966475Y-80754142D02*
X78775999Y-80658904D01*
X78775999Y-80658904D02*
X78585522Y-80658904D01*
X78014094Y-80182714D02*
X77918856Y-80087476D01*
X77918856Y-80087476D02*
X77728380Y-79992238D01*
X77728380Y-79992238D02*
X77252189Y-79992238D01*
X77252189Y-79992238D02*
X77061713Y-80087476D01*
X77061713Y-80087476D02*
X76966475Y-80182714D01*
X76966475Y-80182714D02*
X76871237Y-80373190D01*
X76871237Y-80373190D02*
X76871237Y-80563666D01*
X76871237Y-80563666D02*
X76966475Y-80849380D01*
X76966475Y-80849380D02*
X78109332Y-81992238D01*
X78109332Y-81992238D02*
X76871237Y-81992238D01*
X76204570Y-82754142D02*
X76109332Y-82658904D01*
X76109332Y-82658904D02*
X75918856Y-82373190D01*
X75918856Y-82373190D02*
X75823618Y-82182714D01*
X75823618Y-82182714D02*
X75728380Y-81897000D01*
X75728380Y-81897000D02*
X75633142Y-81420809D01*
X75633142Y-81420809D02*
X75633142Y-81039857D01*
X75633142Y-81039857D02*
X75728380Y-80563666D01*
X75728380Y-80563666D02*
X75823618Y-80277952D01*
X75823618Y-80277952D02*
X75918856Y-80087476D01*
X75918856Y-80087476D02*
X76109332Y-79801761D01*
X76109332Y-79801761D02*
X76204570Y-79706523D01*
D13*
X125606517Y-36664838D02*
X125701755Y-36617219D01*
X125701755Y-36617219D02*
X125844612Y-36617219D01*
X125844612Y-36617219D02*
X125987469Y-36664838D01*
X125987469Y-36664838D02*
X126082707Y-36760076D01*
X126082707Y-36760076D02*
X126130326Y-36855314D01*
X126130326Y-36855314D02*
X126177945Y-37045790D01*
X126177945Y-37045790D02*
X126177945Y-37188647D01*
X126177945Y-37188647D02*
X126130326Y-37379123D01*
X126130326Y-37379123D02*
X126082707Y-37474361D01*
X126082707Y-37474361D02*
X125987469Y-37569600D01*
X125987469Y-37569600D02*
X125844612Y-37617219D01*
X125844612Y-37617219D02*
X125749374Y-37617219D01*
X125749374Y-37617219D02*
X125606517Y-37569600D01*
X125606517Y-37569600D02*
X125558898Y-37521980D01*
X125558898Y-37521980D02*
X125558898Y-37188647D01*
X125558898Y-37188647D02*
X125749374Y-37188647D01*
X125130326Y-37617219D02*
X125130326Y-36617219D01*
X125130326Y-36617219D02*
X124558898Y-37617219D01*
X124558898Y-37617219D02*
X124558898Y-36617219D01*
X124082707Y-37617219D02*
X124082707Y-36617219D01*
X124082707Y-36617219D02*
X123844612Y-36617219D01*
X123844612Y-36617219D02*
X123701755Y-36664838D01*
X123701755Y-36664838D02*
X123606517Y-36760076D01*
X123606517Y-36760076D02*
X123558898Y-36855314D01*
X123558898Y-36855314D02*
X123511279Y-37045790D01*
X123511279Y-37045790D02*
X123511279Y-37188647D01*
X123511279Y-37188647D02*
X123558898Y-37379123D01*
X123558898Y-37379123D02*
X123606517Y-37474361D01*
X123606517Y-37474361D02*
X123701755Y-37569600D01*
X123701755Y-37569600D02*
X123844612Y-37617219D01*
X123844612Y-37617219D02*
X124082707Y-37617219D01*
D14*
X58565163Y-35183609D02*
X58565163Y-34683609D01*
X58565163Y-34683609D02*
X58374687Y-34683609D01*
X58374687Y-34683609D02*
X58327068Y-34707419D01*
X58327068Y-34707419D02*
X58303258Y-34731228D01*
X58303258Y-34731228D02*
X58279449Y-34778847D01*
X58279449Y-34778847D02*
X58279449Y-34850276D01*
X58279449Y-34850276D02*
X58303258Y-34897895D01*
X58303258Y-34897895D02*
X58327068Y-34921704D01*
X58327068Y-34921704D02*
X58374687Y-34945514D01*
X58374687Y-34945514D02*
X58565163Y-34945514D01*
X58112782Y-34683609D02*
X57993734Y-35183609D01*
X57993734Y-35183609D02*
X57898496Y-34826466D01*
X57898496Y-34826466D02*
X57803258Y-35183609D01*
X57803258Y-35183609D02*
X57684211Y-34683609D01*
X57493734Y-35183609D02*
X57493734Y-34683609D01*
X57493734Y-34683609D02*
X57327067Y-35040752D01*
X57327067Y-35040752D02*
X57160401Y-34683609D01*
X57160401Y-34683609D02*
X57160401Y-35183609D01*
X62803258Y-34707419D02*
X62850877Y-34683609D01*
X62850877Y-34683609D02*
X62922306Y-34683609D01*
X62922306Y-34683609D02*
X62993734Y-34707419D01*
X62993734Y-34707419D02*
X63041353Y-34755038D01*
X63041353Y-34755038D02*
X63065163Y-34802657D01*
X63065163Y-34802657D02*
X63088972Y-34897895D01*
X63088972Y-34897895D02*
X63088972Y-34969323D01*
X63088972Y-34969323D02*
X63065163Y-35064561D01*
X63065163Y-35064561D02*
X63041353Y-35112180D01*
X63041353Y-35112180D02*
X62993734Y-35159800D01*
X62993734Y-35159800D02*
X62922306Y-35183609D01*
X62922306Y-35183609D02*
X62874687Y-35183609D01*
X62874687Y-35183609D02*
X62803258Y-35159800D01*
X62803258Y-35159800D02*
X62779449Y-35135990D01*
X62779449Y-35135990D02*
X62779449Y-34969323D01*
X62779449Y-34969323D02*
X62874687Y-34969323D01*
X62565163Y-35183609D02*
X62565163Y-34683609D01*
X62565163Y-34683609D02*
X62279449Y-35183609D01*
X62279449Y-35183609D02*
X62279449Y-34683609D01*
X62041353Y-35183609D02*
X62041353Y-34683609D01*
X62041353Y-34683609D02*
X61922305Y-34683609D01*
X61922305Y-34683609D02*
X61850877Y-34707419D01*
X61850877Y-34707419D02*
X61803258Y-34755038D01*
X61803258Y-34755038D02*
X61779448Y-34802657D01*
X61779448Y-34802657D02*
X61755639Y-34897895D01*
X61755639Y-34897895D02*
X61755639Y-34969323D01*
X61755639Y-34969323D02*
X61779448Y-35064561D01*
X61779448Y-35064561D02*
X61803258Y-35112180D01*
X61803258Y-35112180D02*
X61850877Y-35159800D01*
X61850877Y-35159800D02*
X61922305Y-35183609D01*
X61922305Y-35183609D02*
X62041353Y-35183609D01*
D13*
G36*
X58511565Y-35997023D02*
G01*
X58575744Y-36061202D01*
X58613659Y-36212861D01*
X58613659Y-36521575D01*
X58575743Y-36673235D01*
X58511567Y-36737413D01*
X58451957Y-36767219D01*
X58308695Y-36767219D01*
X58249085Y-36737414D01*
X58184908Y-36673236D01*
X58146993Y-36521575D01*
X58146993Y-36212862D01*
X58184908Y-36061202D01*
X58249087Y-35997023D01*
X58308695Y-35967219D01*
X58451957Y-35967219D01*
X58511565Y-35997023D01*
G37*
G36*
X60423183Y-36291028D02*
G01*
X60165838Y-36291028D01*
X60106228Y-36261223D01*
X60081560Y-36236554D01*
X60051755Y-36176944D01*
X60051755Y-36081302D01*
X60081560Y-36021692D01*
X60106228Y-35997023D01*
X60165838Y-35967219D01*
X60423183Y-35967219D01*
X60423183Y-36291028D01*
G37*
G36*
X62639056Y-37078330D02*
G01*
X57835882Y-37078330D01*
X57835882Y-36200552D01*
X57946993Y-36200552D01*
X57946993Y-36533885D01*
X57947328Y-36537287D01*
X57947111Y-36538746D01*
X57948190Y-36546043D01*
X57948914Y-36553394D01*
X57949478Y-36554757D01*
X57949979Y-36558139D01*
X57997598Y-36748614D01*
X58004193Y-36767075D01*
X58008618Y-36773047D01*
X58011464Y-36779918D01*
X58023901Y-36795071D01*
X58119139Y-36890311D01*
X58126807Y-36896604D01*
X58128538Y-36898600D01*
X58131545Y-36900493D01*
X58134292Y-36902747D01*
X58136732Y-36903757D01*
X58145129Y-36909043D01*
X58240366Y-36956662D01*
X58258675Y-36963668D01*
X58262258Y-36963922D01*
X58265579Y-36965298D01*
X58285088Y-36967219D01*
X58475564Y-36967219D01*
X58495073Y-36965298D01*
X58498393Y-36963922D01*
X58501977Y-36963668D01*
X58520285Y-36956662D01*
X58615523Y-36909043D01*
X58623918Y-36903758D01*
X58626360Y-36902747D01*
X58629107Y-36900491D01*
X58632113Y-36898600D01*
X58633843Y-36896605D01*
X58641513Y-36890310D01*
X58736751Y-36795071D01*
X58749188Y-36779918D01*
X58752033Y-36773047D01*
X58756459Y-36767075D01*
X58763054Y-36748615D01*
X58810673Y-36558139D01*
X58811173Y-36554757D01*
X58811738Y-36553394D01*
X58812461Y-36546043D01*
X58813541Y-36538746D01*
X58813323Y-36537287D01*
X58813659Y-36533885D01*
X58813659Y-36200552D01*
X58813323Y-36197149D01*
X58813541Y-36195691D01*
X58812461Y-36188393D01*
X58811738Y-36181043D01*
X58811173Y-36179679D01*
X58810673Y-36176298D01*
X58763054Y-35985822D01*
X58756459Y-35967362D01*
X58752032Y-35961387D01*
X58749187Y-35954519D01*
X58736751Y-35939365D01*
X58677112Y-35879726D01*
X58900159Y-35879726D01*
X58904506Y-35898842D01*
X59237839Y-36898841D01*
X59245830Y-36916742D01*
X59250513Y-36922141D01*
X59253708Y-36928531D01*
X59263179Y-36936746D01*
X59271395Y-36946218D01*
X59277783Y-36949412D01*
X59283184Y-36954096D01*
X59295085Y-36958063D01*
X59306294Y-36963667D01*
X59313418Y-36964173D01*
X59320200Y-36966434D01*
X59332709Y-36965544D01*
X59345214Y-36966434D01*
X59351992Y-36964174D01*
X59359120Y-36963668D01*
X59370336Y-36958059D01*
X59382230Y-36954095D01*
X59387627Y-36949414D01*
X59394019Y-36946218D01*
X59402237Y-36936742D01*
X59411706Y-36928530D01*
X59414899Y-36922143D01*
X59419584Y-36916742D01*
X59427575Y-36898842D01*
X59707957Y-36057695D01*
X59851755Y-36057695D01*
X59851755Y-36200552D01*
X59853676Y-36220061D01*
X59855051Y-36223381D01*
X59855306Y-36226965D01*
X59862312Y-36245273D01*
X59909931Y-36340511D01*
X59915216Y-36348907D01*
X59916227Y-36351347D01*
X59918480Y-36354093D01*
X59920374Y-36357101D01*
X59922368Y-36358830D01*
X59928663Y-36366501D01*
X59976282Y-36414119D01*
X59983948Y-36420411D01*
X59985681Y-36422409D01*
X59988689Y-36424302D01*
X59991435Y-36426556D01*
X59993875Y-36427566D01*
X60002272Y-36432852D01*
X60097509Y-36480471D01*
X60099799Y-36481347D01*
X59869832Y-36809873D01*
X59860218Y-36826957D01*
X59851778Y-36865051D01*
X59858559Y-36903476D01*
X59879528Y-36936381D01*
X59911493Y-36958756D01*
X59949587Y-36967196D01*
X59988012Y-36960415D01*
X60020917Y-36939446D01*
X60033678Y-36924565D01*
X60337153Y-36491028D01*
X60423183Y-36491028D01*
X60423183Y-36867219D01*
X60425104Y-36886728D01*
X60440036Y-36922776D01*
X60467626Y-36950366D01*
X60503674Y-36965298D01*
X60542692Y-36965298D01*
X60578740Y-36950366D01*
X60606330Y-36922776D01*
X60621262Y-36886728D01*
X60623183Y-36867219D01*
X60623183Y-35867219D01*
X60621262Y-35847710D01*
X60853676Y-35847710D01*
X60853676Y-35886728D01*
X60868608Y-35922776D01*
X60896198Y-35950366D01*
X60932246Y-35965298D01*
X60951755Y-35967219D01*
X61327945Y-35967219D01*
X61327945Y-36243409D01*
X61094612Y-36243409D01*
X61075103Y-36245330D01*
X61039055Y-36260262D01*
X61011465Y-36287852D01*
X60996533Y-36323900D01*
X60996533Y-36362918D01*
X61011465Y-36398966D01*
X61039055Y-36426556D01*
X61075103Y-36441488D01*
X61094612Y-36443409D01*
X61327945Y-36443409D01*
X61327945Y-36767219D01*
X60951755Y-36767219D01*
X60932246Y-36769140D01*
X60896198Y-36784072D01*
X60868608Y-36811662D01*
X60853676Y-36847710D01*
X60853676Y-36886728D01*
X60868608Y-36922776D01*
X60896198Y-36950366D01*
X60932246Y-36965298D01*
X60951755Y-36967219D01*
X61427945Y-36967219D01*
X61447454Y-36965298D01*
X61483502Y-36950366D01*
X61511092Y-36922776D01*
X61526024Y-36886728D01*
X61527945Y-36867219D01*
X61527945Y-36581504D01*
X61756517Y-36581504D01*
X61756517Y-36676742D01*
X61758438Y-36696251D01*
X61759813Y-36699571D01*
X61760068Y-36703155D01*
X61767074Y-36721463D01*
X61814693Y-36816701D01*
X61819976Y-36825093D01*
X61820988Y-36827537D01*
X61823244Y-36830286D01*
X61825136Y-36833291D01*
X61827130Y-36835020D01*
X61833425Y-36842690D01*
X61881043Y-36890310D01*
X61888711Y-36896603D01*
X61890443Y-36898600D01*
X61893451Y-36900493D01*
X61896197Y-36902747D01*
X61898637Y-36903757D01*
X61907034Y-36909043D01*
X62002271Y-36956662D01*
X62020580Y-36963668D01*
X62024163Y-36963922D01*
X62027484Y-36965298D01*
X62046993Y-36967219D01*
X62285088Y-36967219D01*
X62294961Y-36966246D01*
X62297595Y-36966434D01*
X62301058Y-36965646D01*
X62304597Y-36965298D01*
X62307039Y-36964286D01*
X62316711Y-36962087D01*
X62459567Y-36914468D01*
X62477468Y-36906477D01*
X62506944Y-36880912D01*
X62524393Y-36846013D01*
X62527160Y-36807093D01*
X62514821Y-36770077D01*
X62489256Y-36740601D01*
X62454357Y-36723151D01*
X62415437Y-36720385D01*
X62396322Y-36724732D01*
X62268861Y-36767219D01*
X62070600Y-36767219D01*
X62010990Y-36737414D01*
X61986323Y-36712746D01*
X61956517Y-36653134D01*
X61956517Y-36605111D01*
X61986322Y-36545501D01*
X62010990Y-36520832D01*
X62081897Y-36485379D01*
X62261722Y-36440423D01*
X62263159Y-36439909D01*
X62263882Y-36439858D01*
X62272006Y-36436749D01*
X62280183Y-36433828D01*
X62280763Y-36433397D01*
X62282190Y-36432852D01*
X62377428Y-36385233D01*
X62385824Y-36379947D01*
X62388264Y-36378937D01*
X62391010Y-36376683D01*
X62394018Y-36374790D01*
X62395747Y-36372795D01*
X62403418Y-36366501D01*
X62451036Y-36318882D01*
X62457328Y-36311215D01*
X62459326Y-36309483D01*
X62461219Y-36306474D01*
X62463473Y-36303729D01*
X62464483Y-36301288D01*
X62469769Y-36292892D01*
X62517388Y-36197655D01*
X62524394Y-36179346D01*
X62524648Y-36175762D01*
X62526024Y-36172442D01*
X62527945Y-36152933D01*
X62527945Y-36057695D01*
X62526024Y-36038186D01*
X62524648Y-36034865D01*
X62524394Y-36031282D01*
X62517388Y-36012973D01*
X62469769Y-35917736D01*
X62464483Y-35909339D01*
X62463473Y-35906899D01*
X62461219Y-35904153D01*
X62459326Y-35901145D01*
X62457328Y-35899412D01*
X62451036Y-35891746D01*
X62403418Y-35844127D01*
X62395747Y-35837832D01*
X62394018Y-35835838D01*
X62391010Y-35833944D01*
X62388264Y-35831691D01*
X62385824Y-35830680D01*
X62377428Y-35825395D01*
X62282190Y-35777776D01*
X62263882Y-35770770D01*
X62260298Y-35770515D01*
X62256978Y-35769140D01*
X62237469Y-35767219D01*
X61999374Y-35767219D01*
X61989500Y-35768191D01*
X61986866Y-35768004D01*
X61983402Y-35768791D01*
X61979865Y-35769140D01*
X61977423Y-35770151D01*
X61967751Y-35772351D01*
X61824894Y-35819970D01*
X61806994Y-35827961D01*
X61777518Y-35853526D01*
X61760068Y-35888425D01*
X61757302Y-35927345D01*
X61769640Y-35964361D01*
X61795205Y-35993837D01*
X61830104Y-36011287D01*
X61869024Y-36014053D01*
X61888140Y-36009706D01*
X62015600Y-35967219D01*
X62213862Y-35967219D01*
X62273471Y-35997024D01*
X62298140Y-36021692D01*
X62327945Y-36081302D01*
X62327945Y-36129326D01*
X62298140Y-36188935D01*
X62273471Y-36213603D01*
X62202564Y-36249057D01*
X62022739Y-36294014D01*
X62021300Y-36294527D01*
X62020580Y-36294579D01*
X62012455Y-36297687D01*
X62004279Y-36300609D01*
X62003699Y-36301038D01*
X62002271Y-36301585D01*
X61907034Y-36349204D01*
X61898637Y-36354489D01*
X61896197Y-36355500D01*
X61893451Y-36357753D01*
X61890443Y-36359647D01*
X61888710Y-36361644D01*
X61881044Y-36367937D01*
X61833425Y-36415555D01*
X61827130Y-36423225D01*
X61825136Y-36424955D01*
X61823242Y-36427962D01*
X61820989Y-36430709D01*
X61819978Y-36433148D01*
X61814693Y-36441545D01*
X61767074Y-36536783D01*
X61760068Y-36555091D01*
X61759813Y-36558674D01*
X61758438Y-36561995D01*
X61756517Y-36581504D01*
X61527945Y-36581504D01*
X61527945Y-35867219D01*
X61526024Y-35847710D01*
X61511092Y-35811662D01*
X61483502Y-35784072D01*
X61447454Y-35769140D01*
X61427945Y-35767219D01*
X60951755Y-35767219D01*
X60932246Y-35769140D01*
X60896198Y-35784072D01*
X60868608Y-35811662D01*
X60853676Y-35847710D01*
X60621262Y-35847710D01*
X60606330Y-35811662D01*
X60578740Y-35784072D01*
X60542692Y-35769140D01*
X60523183Y-35767219D01*
X60142231Y-35767219D01*
X60122722Y-35769140D01*
X60119401Y-35770515D01*
X60115818Y-35770770D01*
X60097509Y-35777776D01*
X60002272Y-35825395D01*
X59993875Y-35830680D01*
X59991435Y-35831691D01*
X59988689Y-35833944D01*
X59985681Y-35835838D01*
X59983948Y-35837835D01*
X59976282Y-35844128D01*
X59928663Y-35891746D01*
X59922368Y-35899416D01*
X59920374Y-35901146D01*
X59918480Y-35904153D01*
X59916227Y-35906900D01*
X59915216Y-35909339D01*
X59909931Y-35917736D01*
X59862312Y-36012974D01*
X59855306Y-36031282D01*
X59855051Y-36034865D01*
X59853676Y-36038186D01*
X59851755Y-36057695D01*
X59707957Y-36057695D01*
X59760908Y-35898842D01*
X59765255Y-35879727D01*
X59762489Y-35840807D01*
X59745039Y-35805908D01*
X59715563Y-35780343D01*
X59678547Y-35768004D01*
X59639627Y-35770771D01*
X59604728Y-35788220D01*
X59579163Y-35817696D01*
X59571172Y-35835597D01*
X59332707Y-36550991D01*
X59094242Y-35835596D01*
X59086251Y-35817696D01*
X59060686Y-35788220D01*
X59025787Y-35770770D01*
X58986867Y-35768004D01*
X58949851Y-35780342D01*
X58920375Y-35805907D01*
X58902925Y-35840806D01*
X58900159Y-35879726D01*
X58677112Y-35879726D01*
X58641513Y-35844127D01*
X58633842Y-35837832D01*
X58632113Y-35835838D01*
X58629105Y-35833944D01*
X58626359Y-35831691D01*
X58623919Y-35830680D01*
X58615523Y-35825395D01*
X58520285Y-35777776D01*
X58501977Y-35770770D01*
X58498393Y-35770515D01*
X58495073Y-35769140D01*
X58475564Y-35767219D01*
X58285088Y-35767219D01*
X58265579Y-35769140D01*
X58262258Y-35770515D01*
X58258675Y-35770770D01*
X58240366Y-35777776D01*
X58145129Y-35825395D01*
X58136730Y-35830681D01*
X58134293Y-35831691D01*
X58131549Y-35833942D01*
X58128538Y-35835838D01*
X58126805Y-35837835D01*
X58119139Y-35844127D01*
X58023901Y-35939365D01*
X58011465Y-35954519D01*
X58008619Y-35961387D01*
X58004193Y-35967362D01*
X57997598Y-35985823D01*
X57949979Y-36176298D01*
X57949478Y-36179679D01*
X57948914Y-36181043D01*
X57948190Y-36188393D01*
X57947111Y-36195691D01*
X57947328Y-36197149D01*
X57946993Y-36200552D01*
X57835882Y-36200552D01*
X57835882Y-35656108D01*
X62639056Y-35656108D01*
X62639056Y-37078330D01*
G37*
D15*
X89021304Y-32445066D02*
X85973685Y-32445066D01*
D13*
G36*
X125566040Y-24517219D02*
G01*
X125444171Y-24517219D01*
X125339106Y-24482197D01*
X125272036Y-24415127D01*
X125236582Y-24344218D01*
X125194612Y-24176337D01*
X125194612Y-24058100D01*
X125236582Y-23890218D01*
X125272035Y-23819312D01*
X125339107Y-23752240D01*
X125444171Y-23717219D01*
X125566040Y-23717219D01*
X125566040Y-24517219D01*
G37*
G36*
X128280326Y-24517219D02*
G01*
X128022981Y-24517219D01*
X127963371Y-24487414D01*
X127938704Y-24462746D01*
X127908898Y-24403134D01*
X127908898Y-24307492D01*
X127938703Y-24247882D01*
X127958154Y-24228430D01*
X128063219Y-24193409D01*
X128280326Y-24193409D01*
X128280326Y-24517219D01*
G37*
G36*
X128280326Y-23993409D02*
G01*
X128070600Y-23993409D01*
X128010990Y-23963604D01*
X127986322Y-23938935D01*
X127956517Y-23879325D01*
X127956517Y-23831302D01*
X127986322Y-23771692D01*
X128010990Y-23747023D01*
X128070600Y-23717219D01*
X128280326Y-23717219D01*
X128280326Y-23993409D01*
G37*
G36*
X130280326Y-24041028D02*
G01*
X130022981Y-24041028D01*
X129963371Y-24011223D01*
X129938703Y-23986554D01*
X129908898Y-23926944D01*
X129908898Y-23831302D01*
X129938703Y-23771692D01*
X129963371Y-23747023D01*
X130022981Y-23717219D01*
X130280326Y-23717219D01*
X130280326Y-24041028D01*
G37*
G36*
X130591437Y-24828330D02*
G01*
X124883501Y-24828330D01*
X124883501Y-24045790D01*
X124994612Y-24045790D01*
X124994612Y-24188647D01*
X124994947Y-24192049D01*
X124994730Y-24193508D01*
X124995809Y-24200805D01*
X124996533Y-24208156D01*
X124997097Y-24209519D01*
X124997598Y-24212901D01*
X125045217Y-24403376D01*
X125045730Y-24404813D01*
X125045782Y-24405536D01*
X125048890Y-24413660D01*
X125051812Y-24421837D01*
X125052242Y-24422417D01*
X125052788Y-24423844D01*
X125100407Y-24519082D01*
X125105689Y-24527474D01*
X125106702Y-24529918D01*
X125108958Y-24532667D01*
X125110850Y-24535672D01*
X125112844Y-24537401D01*
X125119139Y-24545071D01*
X125214377Y-24640311D01*
X125229530Y-24652747D01*
X125232849Y-24654122D01*
X125235565Y-24656477D01*
X125253465Y-24664468D01*
X125396322Y-24712087D01*
X125405994Y-24714286D01*
X125408436Y-24715298D01*
X125411973Y-24715646D01*
X125415437Y-24716434D01*
X125418071Y-24716246D01*
X125427945Y-24717219D01*
X125666040Y-24717219D01*
X125685549Y-24715298D01*
X125721597Y-24700366D01*
X125749187Y-24672776D01*
X125764119Y-24636728D01*
X125766040Y-24617219D01*
X125766040Y-23617219D01*
X125764119Y-23597710D01*
X125996533Y-23597710D01*
X125996533Y-23636728D01*
X126011465Y-23672776D01*
X126039055Y-23700366D01*
X126075103Y-23715298D01*
X126094612Y-23717219D01*
X126470802Y-23717219D01*
X126470802Y-23993409D01*
X126237469Y-23993409D01*
X126217960Y-23995330D01*
X126181912Y-24010262D01*
X126154322Y-24037852D01*
X126139390Y-24073900D01*
X126139390Y-24112918D01*
X126154322Y-24148966D01*
X126181912Y-24176556D01*
X126217960Y-24191488D01*
X126237469Y-24193409D01*
X126470802Y-24193409D01*
X126470802Y-24517219D01*
X126094612Y-24517219D01*
X126075103Y-24519140D01*
X126039055Y-24534072D01*
X126011465Y-24561662D01*
X125996533Y-24597710D01*
X125996533Y-24636728D01*
X126011465Y-24672776D01*
X126039055Y-24700366D01*
X126075103Y-24715298D01*
X126094612Y-24717219D01*
X126570802Y-24717219D01*
X126590311Y-24715298D01*
X126626359Y-24700366D01*
X126653949Y-24672776D01*
X126668881Y-24636728D01*
X126670802Y-24617219D01*
X126670802Y-24597710D01*
X126806057Y-24597710D01*
X126806057Y-24636728D01*
X126820989Y-24672776D01*
X126848579Y-24700366D01*
X126884627Y-24715298D01*
X126904136Y-24717219D01*
X127380326Y-24717219D01*
X127399835Y-24715298D01*
X127435883Y-24700366D01*
X127463473Y-24672776D01*
X127478405Y-24636728D01*
X127480326Y-24617219D01*
X127480326Y-24283885D01*
X127708898Y-24283885D01*
X127708898Y-24426742D01*
X127710819Y-24446251D01*
X127712194Y-24449571D01*
X127712449Y-24453155D01*
X127719455Y-24471463D01*
X127767074Y-24566701D01*
X127772357Y-24575093D01*
X127773369Y-24577537D01*
X127775625Y-24580286D01*
X127777517Y-24583291D01*
X127779511Y-24585020D01*
X127785806Y-24592690D01*
X127833424Y-24640310D01*
X127841092Y-24646603D01*
X127842824Y-24648600D01*
X127845832Y-24650493D01*
X127848578Y-24652747D01*
X127851018Y-24653757D01*
X127859415Y-24659043D01*
X127954652Y-24706662D01*
X127972961Y-24713668D01*
X127976544Y-24713922D01*
X127979865Y-24715298D01*
X127999374Y-24717219D01*
X128380326Y-24717219D01*
X128399835Y-24715298D01*
X128435883Y-24700366D01*
X128463473Y-24672776D01*
X128478405Y-24636728D01*
X128480326Y-24617219D01*
X128480326Y-24188647D01*
X128708898Y-24188647D01*
X128708898Y-24521980D01*
X128710819Y-24541489D01*
X128712303Y-24545071D01*
X128725750Y-24577537D01*
X128738187Y-24592690D01*
X128785805Y-24640310D01*
X128800959Y-24652747D01*
X128804278Y-24654122D01*
X128806994Y-24656477D01*
X128824894Y-24664468D01*
X128967751Y-24712087D01*
X128977423Y-24714286D01*
X128979865Y-24715298D01*
X128983402Y-24715646D01*
X128986866Y-24716434D01*
X128989500Y-24716246D01*
X128999374Y-24717219D01*
X129094612Y-24717219D01*
X129104485Y-24716246D01*
X129107119Y-24716434D01*
X129110582Y-24715646D01*
X129114121Y-24715298D01*
X129116563Y-24714286D01*
X129126235Y-24712087D01*
X129269091Y-24664468D01*
X129286992Y-24656477D01*
X129289707Y-24654122D01*
X129293027Y-24652747D01*
X129308180Y-24640310D01*
X129403418Y-24545071D01*
X129409710Y-24537404D01*
X129411707Y-24535673D01*
X129413600Y-24532665D01*
X129415855Y-24529918D01*
X129416866Y-24527476D01*
X129422150Y-24519082D01*
X129469769Y-24423845D01*
X129470315Y-24422416D01*
X129470745Y-24421837D01*
X129473666Y-24413660D01*
X129476775Y-24405536D01*
X129476826Y-24404815D01*
X129477340Y-24403377D01*
X129524959Y-24212901D01*
X129525459Y-24209519D01*
X129526024Y-24208156D01*
X129526747Y-24200805D01*
X129527827Y-24193508D01*
X129527609Y-24192049D01*
X129527945Y-24188647D01*
X129527945Y-24045790D01*
X129527609Y-24042387D01*
X129527827Y-24040929D01*
X129526747Y-24033631D01*
X129526024Y-24026281D01*
X129525459Y-24024917D01*
X129524959Y-24021536D01*
X129477340Y-23831060D01*
X129476826Y-23829621D01*
X129476775Y-23828901D01*
X129473666Y-23820776D01*
X129470745Y-23812600D01*
X129470315Y-23812020D01*
X129469769Y-23810592D01*
X129468320Y-23807695D01*
X129708898Y-23807695D01*
X129708898Y-23950552D01*
X129710819Y-23970061D01*
X129712194Y-23973381D01*
X129712449Y-23976965D01*
X129719455Y-23995273D01*
X129767074Y-24090511D01*
X129772359Y-24098907D01*
X129773370Y-24101347D01*
X129775623Y-24104093D01*
X129777517Y-24107101D01*
X129779511Y-24108830D01*
X129785806Y-24116501D01*
X129833425Y-24164119D01*
X129841091Y-24170411D01*
X129842824Y-24172409D01*
X129845832Y-24174302D01*
X129848578Y-24176556D01*
X129851018Y-24177566D01*
X129859415Y-24182852D01*
X129954652Y-24230471D01*
X129956942Y-24231347D01*
X129726975Y-24559873D01*
X129717361Y-24576957D01*
X129708921Y-24615051D01*
X129715702Y-24653476D01*
X129736671Y-24686381D01*
X129768636Y-24708756D01*
X129806730Y-24717196D01*
X129845155Y-24710415D01*
X129878060Y-24689446D01*
X129890821Y-24674565D01*
X130194296Y-24241028D01*
X130280326Y-24241028D01*
X130280326Y-24617219D01*
X130282247Y-24636728D01*
X130297179Y-24672776D01*
X130324769Y-24700366D01*
X130360817Y-24715298D01*
X130399835Y-24715298D01*
X130435883Y-24700366D01*
X130463473Y-24672776D01*
X130478405Y-24636728D01*
X130480326Y-24617219D01*
X130480326Y-23617219D01*
X130478405Y-23597710D01*
X130463473Y-23561662D01*
X130435883Y-23534072D01*
X130399835Y-23519140D01*
X130380326Y-23517219D01*
X129999374Y-23517219D01*
X129979865Y-23519140D01*
X129976544Y-23520515D01*
X129972961Y-23520770D01*
X129954652Y-23527776D01*
X129859415Y-23575395D01*
X129851018Y-23580680D01*
X129848578Y-23581691D01*
X129845832Y-23583944D01*
X129842824Y-23585838D01*
X129841091Y-23587835D01*
X129833425Y-23594128D01*
X129785806Y-23641746D01*
X129779511Y-23649416D01*
X129777517Y-23651146D01*
X129775623Y-23654153D01*
X129773370Y-23656900D01*
X129772359Y-23659339D01*
X129767074Y-23667736D01*
X129719455Y-23762974D01*
X129712449Y-23781282D01*
X129712194Y-23784865D01*
X129710819Y-23788186D01*
X129708898Y-23807695D01*
X129468320Y-23807695D01*
X129422150Y-23715355D01*
X129416863Y-23706956D01*
X129415854Y-23704519D01*
X129413602Y-23701775D01*
X129411707Y-23698764D01*
X129409709Y-23697031D01*
X129403418Y-23689365D01*
X129308180Y-23594127D01*
X129293026Y-23581691D01*
X129289707Y-23580316D01*
X129286992Y-23577961D01*
X129269091Y-23569970D01*
X129126235Y-23522351D01*
X129116563Y-23520151D01*
X129114121Y-23519140D01*
X129110582Y-23518791D01*
X129107119Y-23518004D01*
X129104485Y-23518191D01*
X129094612Y-23517219D01*
X128951755Y-23517219D01*
X128932246Y-23519140D01*
X128928925Y-23520515D01*
X128925342Y-23520770D01*
X128907033Y-23527776D01*
X128811796Y-23575395D01*
X128795205Y-23585838D01*
X128769641Y-23615315D01*
X128757302Y-23652331D01*
X128760068Y-23691251D01*
X128777517Y-23726150D01*
X128806994Y-23751714D01*
X128844010Y-23764053D01*
X128882930Y-23761287D01*
X128901238Y-23754281D01*
X128975362Y-23717219D01*
X129078385Y-23717219D01*
X129183449Y-23752240D01*
X129250522Y-23819313D01*
X129285974Y-23890218D01*
X129327945Y-24058099D01*
X129327945Y-24176337D01*
X129285974Y-24344218D01*
X129250521Y-24415124D01*
X129183450Y-24482197D01*
X129078385Y-24517219D01*
X129015600Y-24517219D01*
X128910535Y-24482197D01*
X128908898Y-24480559D01*
X128908898Y-24288647D01*
X128999374Y-24288647D01*
X129018883Y-24286726D01*
X129054931Y-24271794D01*
X129082521Y-24244204D01*
X129097453Y-24208156D01*
X129097453Y-24169138D01*
X129082521Y-24133090D01*
X129054931Y-24105500D01*
X129018883Y-24090568D01*
X128999374Y-24088647D01*
X128808898Y-24088647D01*
X128789389Y-24090568D01*
X128753341Y-24105500D01*
X128725751Y-24133090D01*
X128710819Y-24169138D01*
X128708898Y-24188647D01*
X128480326Y-24188647D01*
X128480326Y-23617219D01*
X128478405Y-23597710D01*
X128463473Y-23561662D01*
X128435883Y-23534072D01*
X128399835Y-23519140D01*
X128380326Y-23517219D01*
X128046993Y-23517219D01*
X128027484Y-23519140D01*
X128024163Y-23520515D01*
X128020580Y-23520770D01*
X128002271Y-23527776D01*
X127907034Y-23575395D01*
X127898637Y-23580680D01*
X127896197Y-23581691D01*
X127893451Y-23583944D01*
X127890443Y-23585838D01*
X127888710Y-23587835D01*
X127881044Y-23594128D01*
X127833425Y-23641746D01*
X127827130Y-23649416D01*
X127825136Y-23651146D01*
X127823242Y-23654153D01*
X127820989Y-23656900D01*
X127819978Y-23659339D01*
X127814693Y-23667736D01*
X127767074Y-23762974D01*
X127760068Y-23781282D01*
X127759813Y-23784865D01*
X127758438Y-23788186D01*
X127756517Y-23807695D01*
X127756517Y-23902933D01*
X127758438Y-23922442D01*
X127759813Y-23925762D01*
X127760068Y-23929346D01*
X127767074Y-23947654D01*
X127814693Y-24042892D01*
X127819978Y-24051288D01*
X127820989Y-24053728D01*
X127823242Y-24056474D01*
X127825136Y-24059482D01*
X127827130Y-24061211D01*
X127833425Y-24068882D01*
X127834213Y-24069670D01*
X127833425Y-24070318D01*
X127785806Y-24117936D01*
X127779511Y-24125606D01*
X127777517Y-24127336D01*
X127775623Y-24130343D01*
X127773370Y-24133090D01*
X127772359Y-24135529D01*
X127767074Y-24143926D01*
X127719455Y-24239164D01*
X127712449Y-24257472D01*
X127712194Y-24261055D01*
X127710819Y-24264376D01*
X127708898Y-24283885D01*
X127480326Y-24283885D01*
X127480326Y-23617219D01*
X127478405Y-23597710D01*
X127463473Y-23561662D01*
X127435883Y-23534072D01*
X127399835Y-23519140D01*
X127360817Y-23519140D01*
X127324769Y-23534072D01*
X127297179Y-23561662D01*
X127282247Y-23597710D01*
X127280326Y-23617219D01*
X127280326Y-24517219D01*
X126904136Y-24517219D01*
X126884627Y-24519140D01*
X126848579Y-24534072D01*
X126820989Y-24561662D01*
X126806057Y-24597710D01*
X126670802Y-24597710D01*
X126670802Y-23617219D01*
X126668881Y-23597710D01*
X126653949Y-23561662D01*
X126626359Y-23534072D01*
X126590311Y-23519140D01*
X126570802Y-23517219D01*
X126094612Y-23517219D01*
X126075103Y-23519140D01*
X126039055Y-23534072D01*
X126011465Y-23561662D01*
X125996533Y-23597710D01*
X125764119Y-23597710D01*
X125749187Y-23561662D01*
X125721597Y-23534072D01*
X125685549Y-23519140D01*
X125666040Y-23517219D01*
X125427945Y-23517219D01*
X125418071Y-23518191D01*
X125415437Y-23518004D01*
X125411973Y-23518791D01*
X125408436Y-23519140D01*
X125405994Y-23520151D01*
X125396322Y-23522351D01*
X125253465Y-23569970D01*
X125235565Y-23577961D01*
X125232849Y-23580316D01*
X125229531Y-23581691D01*
X125214377Y-23594127D01*
X125119139Y-23689365D01*
X125112844Y-23697035D01*
X125110850Y-23698765D01*
X125108956Y-23701772D01*
X125106703Y-23704519D01*
X125105692Y-23706958D01*
X125100407Y-23715355D01*
X125052788Y-23810593D01*
X125052242Y-23812019D01*
X125051812Y-23812600D01*
X125048890Y-23820776D01*
X125045782Y-23828901D01*
X125045730Y-23829623D01*
X125045217Y-23831061D01*
X124997598Y-24021536D01*
X124997097Y-24024917D01*
X124996533Y-24026281D01*
X124995809Y-24033631D01*
X124994730Y-24040929D01*
X124994947Y-24042387D01*
X124994612Y-24045790D01*
X124883501Y-24045790D01*
X124883501Y-23406108D01*
X130591437Y-23406108D01*
X130591437Y-24828330D01*
G37*
D14*
X60612782Y-34683609D02*
X60279449Y-34683609D01*
X60279449Y-34683609D02*
X60493734Y-35183609D01*
X60160401Y-34683609D02*
X59993735Y-35183609D01*
X59993735Y-35183609D02*
X59827068Y-34683609D01*
D15*
X107771304Y-32695066D02*
X104723685Y-32695066D01*
X106247494Y-34218876D02*
X106247494Y-31171257D01*
D14*
X105374687Y-86777180D02*
X105422306Y-86824800D01*
X105422306Y-86824800D02*
X105565163Y-86872419D01*
X105565163Y-86872419D02*
X105660401Y-86872419D01*
X105660401Y-86872419D02*
X105803258Y-86824800D01*
X105803258Y-86824800D02*
X105898496Y-86729561D01*
X105898496Y-86729561D02*
X105946115Y-86634323D01*
X105946115Y-86634323D02*
X105993734Y-86443847D01*
X105993734Y-86443847D02*
X105993734Y-86300990D01*
X105993734Y-86300990D02*
X105946115Y-86110514D01*
X105946115Y-86110514D02*
X105898496Y-86015276D01*
X105898496Y-86015276D02*
X105803258Y-85920038D01*
X105803258Y-85920038D02*
X105660401Y-85872419D01*
X105660401Y-85872419D02*
X105565163Y-85872419D01*
X105565163Y-85872419D02*
X105422306Y-85920038D01*
X105422306Y-85920038D02*
X105374687Y-85967657D01*
X104803258Y-86872419D02*
X104898496Y-86824800D01*
X104898496Y-86824800D02*
X104946115Y-86777180D01*
X104946115Y-86777180D02*
X104993734Y-86681942D01*
X104993734Y-86681942D02*
X104993734Y-86396228D01*
X104993734Y-86396228D02*
X104946115Y-86300990D01*
X104946115Y-86300990D02*
X104898496Y-86253371D01*
X104898496Y-86253371D02*
X104803258Y-86205752D01*
X104803258Y-86205752D02*
X104660401Y-86205752D01*
X104660401Y-86205752D02*
X104565163Y-86253371D01*
X104565163Y-86253371D02*
X104517544Y-86300990D01*
X104517544Y-86300990D02*
X104469925Y-86396228D01*
X104469925Y-86396228D02*
X104469925Y-86681942D01*
X104469925Y-86681942D02*
X104517544Y-86777180D01*
X104517544Y-86777180D02*
X104565163Y-86824800D01*
X104565163Y-86824800D02*
X104660401Y-86872419D01*
X104660401Y-86872419D02*
X104803258Y-86872419D01*
X104041353Y-86872419D02*
X104041353Y-86205752D01*
X104041353Y-86300990D02*
X103993734Y-86253371D01*
X103993734Y-86253371D02*
X103898496Y-86205752D01*
X103898496Y-86205752D02*
X103755639Y-86205752D01*
X103755639Y-86205752D02*
X103660401Y-86253371D01*
X103660401Y-86253371D02*
X103612782Y-86348609D01*
X103612782Y-86348609D02*
X103612782Y-86872419D01*
X103612782Y-86348609D02*
X103565163Y-86253371D01*
X103565163Y-86253371D02*
X103469925Y-86205752D01*
X103469925Y-86205752D02*
X103327068Y-86205752D01*
X103327068Y-86205752D02*
X103231829Y-86253371D01*
X103231829Y-86253371D02*
X103184210Y-86348609D01*
X103184210Y-86348609D02*
X103184210Y-86872419D01*
X102708020Y-86205752D02*
X102708020Y-87205752D01*
X102708020Y-86253371D02*
X102612782Y-86205752D01*
X102612782Y-86205752D02*
X102422306Y-86205752D01*
X102422306Y-86205752D02*
X102327068Y-86253371D01*
X102327068Y-86253371D02*
X102279449Y-86300990D01*
X102279449Y-86300990D02*
X102231830Y-86396228D01*
X102231830Y-86396228D02*
X102231830Y-86681942D01*
X102231830Y-86681942D02*
X102279449Y-86777180D01*
X102279449Y-86777180D02*
X102327068Y-86824800D01*
X102327068Y-86824800D02*
X102422306Y-86872419D01*
X102422306Y-86872419D02*
X102612782Y-86872419D01*
X102612782Y-86872419D02*
X102708020Y-86824800D01*
X101374687Y-86872419D02*
X101374687Y-86348609D01*
X101374687Y-86348609D02*
X101422306Y-86253371D01*
X101422306Y-86253371D02*
X101517544Y-86205752D01*
X101517544Y-86205752D02*
X101708020Y-86205752D01*
X101708020Y-86205752D02*
X101803258Y-86253371D01*
X101374687Y-86824800D02*
X101469925Y-86872419D01*
X101469925Y-86872419D02*
X101708020Y-86872419D01*
X101708020Y-86872419D02*
X101803258Y-86824800D01*
X101803258Y-86824800D02*
X101850877Y-86729561D01*
X101850877Y-86729561D02*
X101850877Y-86634323D01*
X101850877Y-86634323D02*
X101803258Y-86539085D01*
X101803258Y-86539085D02*
X101708020Y-86491466D01*
X101708020Y-86491466D02*
X101469925Y-86491466D01*
X101469925Y-86491466D02*
X101374687Y-86443847D01*
X101041353Y-86205752D02*
X100660401Y-86205752D01*
X100898496Y-85872419D02*
X100898496Y-86729561D01*
X100898496Y-86729561D02*
X100850877Y-86824800D01*
X100850877Y-86824800D02*
X100755639Y-86872419D01*
X100755639Y-86872419D02*
X100660401Y-86872419D01*
X100327067Y-86872419D02*
X100327067Y-86205752D01*
X100327067Y-85872419D02*
X100374686Y-85920038D01*
X100374686Y-85920038D02*
X100327067Y-85967657D01*
X100327067Y-85967657D02*
X100279448Y-85920038D01*
X100279448Y-85920038D02*
X100327067Y-85872419D01*
X100327067Y-85872419D02*
X100327067Y-85967657D01*
X99850877Y-86872419D02*
X99850877Y-85872419D01*
X99850877Y-86253371D02*
X99755639Y-86205752D01*
X99755639Y-86205752D02*
X99565163Y-86205752D01*
X99565163Y-86205752D02*
X99469925Y-86253371D01*
X99469925Y-86253371D02*
X99422306Y-86300990D01*
X99422306Y-86300990D02*
X99374687Y-86396228D01*
X99374687Y-86396228D02*
X99374687Y-86681942D01*
X99374687Y-86681942D02*
X99422306Y-86777180D01*
X99422306Y-86777180D02*
X99469925Y-86824800D01*
X99469925Y-86824800D02*
X99565163Y-86872419D01*
X99565163Y-86872419D02*
X99755639Y-86872419D01*
X99755639Y-86872419D02*
X99850877Y-86824800D01*
X98803258Y-86872419D02*
X98898496Y-86824800D01*
X98898496Y-86824800D02*
X98946115Y-86729561D01*
X98946115Y-86729561D02*
X98946115Y-85872419D01*
X98041353Y-86824800D02*
X98136591Y-86872419D01*
X98136591Y-86872419D02*
X98327067Y-86872419D01*
X98327067Y-86872419D02*
X98422305Y-86824800D01*
X98422305Y-86824800D02*
X98469924Y-86729561D01*
X98469924Y-86729561D02*
X98469924Y-86348609D01*
X98469924Y-86348609D02*
X98422305Y-86253371D01*
X98422305Y-86253371D02*
X98327067Y-86205752D01*
X98327067Y-86205752D02*
X98136591Y-86205752D01*
X98136591Y-86205752D02*
X98041353Y-86253371D01*
X98041353Y-86253371D02*
X97993734Y-86348609D01*
X97993734Y-86348609D02*
X97993734Y-86443847D01*
X97993734Y-86443847D02*
X98469924Y-86539085D01*
X96898495Y-86205752D02*
X96708019Y-86872419D01*
X96708019Y-86872419D02*
X96517543Y-86396228D01*
X96517543Y-86396228D02*
X96327067Y-86872419D01*
X96327067Y-86872419D02*
X96136591Y-86205752D01*
X95755638Y-86872419D02*
X95755638Y-86205752D01*
X95755638Y-85872419D02*
X95803257Y-85920038D01*
X95803257Y-85920038D02*
X95755638Y-85967657D01*
X95755638Y-85967657D02*
X95708019Y-85920038D01*
X95708019Y-85920038D02*
X95755638Y-85872419D01*
X95755638Y-85872419D02*
X95755638Y-85967657D01*
X95422305Y-86205752D02*
X95041353Y-86205752D01*
X95279448Y-85872419D02*
X95279448Y-86729561D01*
X95279448Y-86729561D02*
X95231829Y-86824800D01*
X95231829Y-86824800D02*
X95136591Y-86872419D01*
X95136591Y-86872419D02*
X95041353Y-86872419D01*
X94708019Y-86872419D02*
X94708019Y-85872419D01*
X94279448Y-86872419D02*
X94279448Y-86348609D01*
X94279448Y-86348609D02*
X94327067Y-86253371D01*
X94327067Y-86253371D02*
X94422305Y-86205752D01*
X94422305Y-86205752D02*
X94565162Y-86205752D01*
X94565162Y-86205752D02*
X94660400Y-86253371D01*
X94660400Y-86253371D02*
X94708019Y-86300990D01*
X93184209Y-85872419D02*
X92850876Y-86872419D01*
X92850876Y-86872419D02*
X92517543Y-85872419D01*
X92184209Y-86348609D02*
X91850876Y-86348609D01*
X91708019Y-86872419D02*
X92184209Y-86872419D01*
X92184209Y-86872419D02*
X92184209Y-85872419D01*
X92184209Y-85872419D02*
X91708019Y-85872419D01*
X91327066Y-86824800D02*
X91184209Y-86872419D01*
X91184209Y-86872419D02*
X90946114Y-86872419D01*
X90946114Y-86872419D02*
X90850876Y-86824800D01*
X90850876Y-86824800D02*
X90803257Y-86777180D01*
X90803257Y-86777180D02*
X90755638Y-86681942D01*
X90755638Y-86681942D02*
X90755638Y-86586704D01*
X90755638Y-86586704D02*
X90803257Y-86491466D01*
X90803257Y-86491466D02*
X90850876Y-86443847D01*
X90850876Y-86443847D02*
X90946114Y-86396228D01*
X90946114Y-86396228D02*
X91136590Y-86348609D01*
X91136590Y-86348609D02*
X91231828Y-86300990D01*
X91231828Y-86300990D02*
X91279447Y-86253371D01*
X91279447Y-86253371D02*
X91327066Y-86158133D01*
X91327066Y-86158133D02*
X91327066Y-86062895D01*
X91327066Y-86062895D02*
X91279447Y-85967657D01*
X91279447Y-85967657D02*
X91231828Y-85920038D01*
X91231828Y-85920038D02*
X91136590Y-85872419D01*
X91136590Y-85872419D02*
X90898495Y-85872419D01*
X90898495Y-85872419D02*
X90755638Y-85920038D01*
X89755638Y-86777180D02*
X89803257Y-86824800D01*
X89803257Y-86824800D02*
X89946114Y-86872419D01*
X89946114Y-86872419D02*
X90041352Y-86872419D01*
X90041352Y-86872419D02*
X90184209Y-86824800D01*
X90184209Y-86824800D02*
X90279447Y-86729561D01*
X90279447Y-86729561D02*
X90327066Y-86634323D01*
X90327066Y-86634323D02*
X90374685Y-86443847D01*
X90374685Y-86443847D02*
X90374685Y-86300990D01*
X90374685Y-86300990D02*
X90327066Y-86110514D01*
X90327066Y-86110514D02*
X90279447Y-86015276D01*
X90279447Y-86015276D02*
X90184209Y-85920038D01*
X90184209Y-85920038D02*
X90041352Y-85872419D01*
X90041352Y-85872419D02*
X89946114Y-85872419D01*
X89946114Y-85872419D02*
X89803257Y-85920038D01*
X89803257Y-85920038D02*
X89755638Y-85967657D01*
X88469923Y-86729561D02*
X88708019Y-86443847D01*
X88898495Y-86729561D02*
X88898495Y-86062895D01*
X88898495Y-86062895D02*
X88612781Y-86062895D01*
X88612781Y-86062895D02*
X88517542Y-86110514D01*
X88517542Y-86110514D02*
X88469923Y-86205752D01*
X88469923Y-86205752D02*
X88469923Y-86300990D01*
X88469923Y-86300990D02*
X88517542Y-86396228D01*
X88517542Y-86396228D02*
X88612781Y-86443847D01*
X88612781Y-86443847D02*
X88898495Y-86443847D01*
X88708019Y-85729561D02*
X88946114Y-85777180D01*
X88946114Y-85777180D02*
X89184209Y-85920038D01*
X89184209Y-85920038D02*
X89327066Y-86158133D01*
X89327066Y-86158133D02*
X89374685Y-86396228D01*
X89374685Y-86396228D02*
X89327066Y-86634323D01*
X89327066Y-86634323D02*
X89184209Y-86872419D01*
X89184209Y-86872419D02*
X88946114Y-87015276D01*
X88946114Y-87015276D02*
X88708019Y-87062895D01*
X88708019Y-87062895D02*
X88469923Y-87015276D01*
X88469923Y-87015276D02*
X88231828Y-86872419D01*
X88231828Y-86872419D02*
X88088971Y-86634323D01*
X88088971Y-86634323D02*
X88041352Y-86396228D01*
X88041352Y-86396228D02*
X88088971Y-86158133D01*
X88088971Y-86158133D02*
X88231828Y-85920038D01*
X88231828Y-85920038D02*
X88469923Y-85777180D01*
X88469923Y-85777180D02*
X88708019Y-85729561D01*
X86898494Y-86824800D02*
X86755637Y-86872419D01*
X86755637Y-86872419D02*
X86517542Y-86872419D01*
X86517542Y-86872419D02*
X86422304Y-86824800D01*
X86422304Y-86824800D02*
X86374685Y-86777180D01*
X86374685Y-86777180D02*
X86327066Y-86681942D01*
X86327066Y-86681942D02*
X86327066Y-86586704D01*
X86327066Y-86586704D02*
X86374685Y-86491466D01*
X86374685Y-86491466D02*
X86422304Y-86443847D01*
X86422304Y-86443847D02*
X86517542Y-86396228D01*
X86517542Y-86396228D02*
X86708018Y-86348609D01*
X86708018Y-86348609D02*
X86803256Y-86300990D01*
X86803256Y-86300990D02*
X86850875Y-86253371D01*
X86850875Y-86253371D02*
X86898494Y-86158133D01*
X86898494Y-86158133D02*
X86898494Y-86062895D01*
X86898494Y-86062895D02*
X86850875Y-85967657D01*
X86850875Y-85967657D02*
X86803256Y-85920038D01*
X86803256Y-85920038D02*
X86708018Y-85872419D01*
X86708018Y-85872419D02*
X86469923Y-85872419D01*
X86469923Y-85872419D02*
X86327066Y-85920038D01*
X85755637Y-86872419D02*
X85850875Y-86824800D01*
X85850875Y-86824800D02*
X85898494Y-86777180D01*
X85898494Y-86777180D02*
X85946113Y-86681942D01*
X85946113Y-86681942D02*
X85946113Y-86396228D01*
X85946113Y-86396228D02*
X85898494Y-86300990D01*
X85898494Y-86300990D02*
X85850875Y-86253371D01*
X85850875Y-86253371D02*
X85755637Y-86205752D01*
X85755637Y-86205752D02*
X85612780Y-86205752D01*
X85612780Y-86205752D02*
X85517542Y-86253371D01*
X85517542Y-86253371D02*
X85469923Y-86300990D01*
X85469923Y-86300990D02*
X85422304Y-86396228D01*
X85422304Y-86396228D02*
X85422304Y-86681942D01*
X85422304Y-86681942D02*
X85469923Y-86777180D01*
X85469923Y-86777180D02*
X85517542Y-86824800D01*
X85517542Y-86824800D02*
X85612780Y-86872419D01*
X85612780Y-86872419D02*
X85755637Y-86872419D01*
X85136589Y-86205752D02*
X84755637Y-86205752D01*
X84993732Y-86872419D02*
X84993732Y-86015276D01*
X84993732Y-86015276D02*
X84946113Y-85920038D01*
X84946113Y-85920038D02*
X84850875Y-85872419D01*
X84850875Y-85872419D02*
X84755637Y-85872419D01*
X84565160Y-86205752D02*
X84184208Y-86205752D01*
X84422303Y-85872419D02*
X84422303Y-86729561D01*
X84422303Y-86729561D02*
X84374684Y-86824800D01*
X84374684Y-86824800D02*
X84279446Y-86872419D01*
X84279446Y-86872419D02*
X84184208Y-86872419D01*
X83946112Y-86205752D02*
X83755636Y-86872419D01*
X83755636Y-86872419D02*
X83565160Y-86396228D01*
X83565160Y-86396228D02*
X83374684Y-86872419D01*
X83374684Y-86872419D02*
X83184208Y-86205752D01*
X82374684Y-86872419D02*
X82374684Y-86348609D01*
X82374684Y-86348609D02*
X82422303Y-86253371D01*
X82422303Y-86253371D02*
X82517541Y-86205752D01*
X82517541Y-86205752D02*
X82708017Y-86205752D01*
X82708017Y-86205752D02*
X82803255Y-86253371D01*
X82374684Y-86824800D02*
X82469922Y-86872419D01*
X82469922Y-86872419D02*
X82708017Y-86872419D01*
X82708017Y-86872419D02*
X82803255Y-86824800D01*
X82803255Y-86824800D02*
X82850874Y-86729561D01*
X82850874Y-86729561D02*
X82850874Y-86634323D01*
X82850874Y-86634323D02*
X82803255Y-86539085D01*
X82803255Y-86539085D02*
X82708017Y-86491466D01*
X82708017Y-86491466D02*
X82469922Y-86491466D01*
X82469922Y-86491466D02*
X82374684Y-86443847D01*
X81898493Y-86872419D02*
X81898493Y-86205752D01*
X81898493Y-86396228D02*
X81850874Y-86300990D01*
X81850874Y-86300990D02*
X81803255Y-86253371D01*
X81803255Y-86253371D02*
X81708017Y-86205752D01*
X81708017Y-86205752D02*
X81612779Y-86205752D01*
X80898493Y-86824800D02*
X80993731Y-86872419D01*
X80993731Y-86872419D02*
X81184207Y-86872419D01*
X81184207Y-86872419D02*
X81279445Y-86824800D01*
X81279445Y-86824800D02*
X81327064Y-86729561D01*
X81327064Y-86729561D02*
X81327064Y-86348609D01*
X81327064Y-86348609D02*
X81279445Y-86253371D01*
X81279445Y-86253371D02*
X81184207Y-86205752D01*
X81184207Y-86205752D02*
X80993731Y-86205752D01*
X80993731Y-86205752D02*
X80898493Y-86253371D01*
X80898493Y-86253371D02*
X80850874Y-86348609D01*
X80850874Y-86348609D02*
X80850874Y-86443847D01*
X80850874Y-86443847D02*
X81327064Y-86539085D01*
D16*
X62179887Y-48595342D02*
X62579887Y-48023914D01*
X62865601Y-48595342D02*
X62865601Y-47395342D01*
X62865601Y-47395342D02*
X62408458Y-47395342D01*
X62408458Y-47395342D02*
X62294173Y-47452485D01*
X62294173Y-47452485D02*
X62237030Y-47509628D01*
X62237030Y-47509628D02*
X62179887Y-47623914D01*
X62179887Y-47623914D02*
X62179887Y-47795342D01*
X62179887Y-47795342D02*
X62237030Y-47909628D01*
X62237030Y-47909628D02*
X62294173Y-47966771D01*
X62294173Y-47966771D02*
X62408458Y-48023914D01*
X62408458Y-48023914D02*
X62865601Y-48023914D01*
X61665601Y-47966771D02*
X61265601Y-47966771D01*
X61094173Y-48595342D02*
X61665601Y-48595342D01*
X61665601Y-48595342D02*
X61665601Y-47395342D01*
X61665601Y-47395342D02*
X61094173Y-47395342D01*
X60751316Y-47395342D02*
X60351316Y-48595342D01*
X60351316Y-48595342D02*
X59951316Y-47395342D01*
X59322745Y-47395342D02*
X59208459Y-47395342D01*
X59208459Y-47395342D02*
X59094173Y-47452485D01*
X59094173Y-47452485D02*
X59037031Y-47509628D01*
X59037031Y-47509628D02*
X58979888Y-47623914D01*
X58979888Y-47623914D02*
X58922745Y-47852485D01*
X58922745Y-47852485D02*
X58922745Y-48138200D01*
X58922745Y-48138200D02*
X58979888Y-48366771D01*
X58979888Y-48366771D02*
X59037031Y-48481057D01*
X59037031Y-48481057D02*
X59094173Y-48538200D01*
X59094173Y-48538200D02*
X59208459Y-48595342D01*
X59208459Y-48595342D02*
X59322745Y-48595342D01*
X59322745Y-48595342D02*
X59437031Y-48538200D01*
X59437031Y-48538200D02*
X59494173Y-48481057D01*
X59494173Y-48481057D02*
X59551316Y-48366771D01*
X59551316Y-48366771D02*
X59608459Y-48138200D01*
X59608459Y-48138200D02*
X59608459Y-47852485D01*
X59608459Y-47852485D02*
X59551316Y-47623914D01*
X59551316Y-47623914D02*
X59494173Y-47509628D01*
X59494173Y-47509628D02*
X59437031Y-47452485D01*
X59437031Y-47452485D02*
X59322745Y-47395342D01*
X57779888Y-48595342D02*
X58465602Y-48595342D01*
X58122745Y-48595342D02*
X58122745Y-47395342D01*
X58122745Y-47395342D02*
X58237031Y-47566771D01*
X58237031Y-47566771D02*
X58351316Y-47681057D01*
X58351316Y-47681057D02*
X58465602Y-47738200D01*
D17*
X112142858Y-74663009D02*
X111190477Y-74663009D01*
X112333334Y-75234438D02*
X111666668Y-73234438D01*
X111666668Y-73234438D02*
X111000001Y-75234438D01*
X110523810Y-73901104D02*
X109476191Y-73901104D01*
X109476191Y-73901104D02*
X110523810Y-75234438D01*
X110523810Y-75234438D02*
X109476191Y-75234438D01*
X108714286Y-75234438D02*
X108714286Y-73901104D01*
X108714286Y-73234438D02*
X108809524Y-73329676D01*
X108809524Y-73329676D02*
X108714286Y-73424914D01*
X108714286Y-73424914D02*
X108619048Y-73329676D01*
X108619048Y-73329676D02*
X108714286Y-73234438D01*
X108714286Y-73234438D02*
X108714286Y-73424914D01*
X107761905Y-75234438D02*
X107761905Y-73901104D01*
X107761905Y-74091580D02*
X107666667Y-73996342D01*
X107666667Y-73996342D02*
X107476191Y-73901104D01*
X107476191Y-73901104D02*
X107190476Y-73901104D01*
X107190476Y-73901104D02*
X107000000Y-73996342D01*
X107000000Y-73996342D02*
X106904762Y-74186819D01*
X106904762Y-74186819D02*
X106904762Y-75234438D01*
X106904762Y-74186819D02*
X106809524Y-73996342D01*
X106809524Y-73996342D02*
X106619048Y-73901104D01*
X106619048Y-73901104D02*
X106333334Y-73901104D01*
X106333334Y-73901104D02*
X106142857Y-73996342D01*
X106142857Y-73996342D02*
X106047619Y-74186819D01*
X106047619Y-74186819D02*
X106047619Y-75234438D01*
X104238095Y-73901104D02*
X104238095Y-75234438D01*
X105095238Y-73901104D02*
X105095238Y-74948723D01*
X105095238Y-74948723D02*
X105000000Y-75139200D01*
X105000000Y-75139200D02*
X104809524Y-75234438D01*
X104809524Y-75234438D02*
X104523809Y-75234438D01*
X104523809Y-75234438D02*
X104333333Y-75139200D01*
X104333333Y-75139200D02*
X104238095Y-75043961D01*
X103571428Y-73901104D02*
X102809524Y-73901104D01*
X103285714Y-73234438D02*
X103285714Y-74948723D01*
X103285714Y-74948723D02*
X103190476Y-75139200D01*
X103190476Y-75139200D02*
X103000000Y-75234438D01*
X103000000Y-75234438D02*
X102809524Y-75234438D01*
X102142857Y-75234438D02*
X102142857Y-73234438D01*
X101285714Y-75234438D02*
X101285714Y-74186819D01*
X101285714Y-74186819D02*
X101380952Y-73996342D01*
X101380952Y-73996342D02*
X101571428Y-73901104D01*
X101571428Y-73901104D02*
X101857143Y-73901104D01*
X101857143Y-73901104D02*
X102047619Y-73996342D01*
X102047619Y-73996342D02*
X102142857Y-74091580D01*
X99095237Y-73234438D02*
X97952380Y-73234438D01*
X98523809Y-75234438D02*
X98523809Y-73234438D01*
X97285713Y-75234438D02*
X97285713Y-73234438D01*
X96428570Y-75234438D02*
X96428570Y-74186819D01*
X96428570Y-74186819D02*
X96523808Y-73996342D01*
X96523808Y-73996342D02*
X96714284Y-73901104D01*
X96714284Y-73901104D02*
X96999999Y-73901104D01*
X96999999Y-73901104D02*
X97190475Y-73996342D01*
X97190475Y-73996342D02*
X97285713Y-74091580D01*
X95476189Y-75234438D02*
X95476189Y-73901104D01*
X95476189Y-74282057D02*
X95380951Y-74091580D01*
X95380951Y-74091580D02*
X95285713Y-73996342D01*
X95285713Y-73996342D02*
X95095237Y-73901104D01*
X95095237Y-73901104D02*
X94904760Y-73901104D01*
X93380951Y-73901104D02*
X93380951Y-75234438D01*
X94238094Y-73901104D02*
X94238094Y-74948723D01*
X94238094Y-74948723D02*
X94142856Y-75139200D01*
X94142856Y-75139200D02*
X93952380Y-75234438D01*
X93952380Y-75234438D02*
X93666665Y-75234438D01*
X93666665Y-75234438D02*
X93476189Y-75139200D01*
X93476189Y-75139200D02*
X93380951Y-75043961D01*
X92523808Y-75139200D02*
X92333332Y-75234438D01*
X92333332Y-75234438D02*
X91952380Y-75234438D01*
X91952380Y-75234438D02*
X91761903Y-75139200D01*
X91761903Y-75139200D02*
X91666665Y-74948723D01*
X91666665Y-74948723D02*
X91666665Y-74853485D01*
X91666665Y-74853485D02*
X91761903Y-74663009D01*
X91761903Y-74663009D02*
X91952380Y-74567771D01*
X91952380Y-74567771D02*
X92238094Y-74567771D01*
X92238094Y-74567771D02*
X92428570Y-74472533D01*
X92428570Y-74472533D02*
X92523808Y-74282057D01*
X92523808Y-74282057D02*
X92523808Y-74186819D01*
X92523808Y-74186819D02*
X92428570Y-73996342D01*
X92428570Y-73996342D02*
X92238094Y-73901104D01*
X92238094Y-73901104D02*
X91952380Y-73901104D01*
X91952380Y-73901104D02*
X91761903Y-73996342D01*
X91095236Y-73901104D02*
X90333332Y-73901104D01*
X90809522Y-73234438D02*
X90809522Y-74948723D01*
X90809522Y-74948723D02*
X90714284Y-75139200D01*
X90714284Y-75139200D02*
X90523808Y-75234438D01*
X90523808Y-75234438D02*
X90333332Y-75234438D01*
X88904760Y-75139200D02*
X89095236Y-75234438D01*
X89095236Y-75234438D02*
X89476189Y-75234438D01*
X89476189Y-75234438D02*
X89666665Y-75139200D01*
X89666665Y-75139200D02*
X89761903Y-74948723D01*
X89761903Y-74948723D02*
X89761903Y-74186819D01*
X89761903Y-74186819D02*
X89666665Y-73996342D01*
X89666665Y-73996342D02*
X89476189Y-73901104D01*
X89476189Y-73901104D02*
X89095236Y-73901104D01*
X89095236Y-73901104D02*
X88904760Y-73996342D01*
X88904760Y-73996342D02*
X88809522Y-74186819D01*
X88809522Y-74186819D02*
X88809522Y-74377295D01*
X88809522Y-74377295D02*
X89761903Y-74567771D01*
X87952379Y-75234438D02*
X87952379Y-73901104D01*
X87952379Y-74282057D02*
X87857141Y-74091580D01*
X87857141Y-74091580D02*
X87761903Y-73996342D01*
X87761903Y-73996342D02*
X87571427Y-73901104D01*
X87571427Y-73901104D02*
X87380950Y-73901104D01*
X85190474Y-75234438D02*
X85190474Y-73234438D01*
X85190474Y-73234438D02*
X84714284Y-73234438D01*
X84714284Y-73234438D02*
X84428569Y-73329676D01*
X84428569Y-73329676D02*
X84238093Y-73520152D01*
X84238093Y-73520152D02*
X84142855Y-73710628D01*
X84142855Y-73710628D02*
X84047617Y-74091580D01*
X84047617Y-74091580D02*
X84047617Y-74377295D01*
X84047617Y-74377295D02*
X84142855Y-74758247D01*
X84142855Y-74758247D02*
X84238093Y-74948723D01*
X84238093Y-74948723D02*
X84428569Y-75139200D01*
X84428569Y-75139200D02*
X84714284Y-75234438D01*
X84714284Y-75234438D02*
X85190474Y-75234438D01*
X83190474Y-75234438D02*
X83190474Y-73901104D01*
X83190474Y-74282057D02*
X83095236Y-74091580D01*
X83095236Y-74091580D02*
X82999998Y-73996342D01*
X82999998Y-73996342D02*
X82809522Y-73901104D01*
X82809522Y-73901104D02*
X82619045Y-73901104D01*
X81952379Y-75234438D02*
X81952379Y-73901104D01*
X81952379Y-73234438D02*
X82047617Y-73329676D01*
X82047617Y-73329676D02*
X81952379Y-73424914D01*
X81952379Y-73424914D02*
X81857141Y-73329676D01*
X81857141Y-73329676D02*
X81952379Y-73234438D01*
X81952379Y-73234438D02*
X81952379Y-73424914D01*
X81190474Y-73901104D02*
X80714284Y-75234438D01*
X80714284Y-75234438D02*
X80238093Y-73901104D01*
X78714283Y-75139200D02*
X78904759Y-75234438D01*
X78904759Y-75234438D02*
X79285712Y-75234438D01*
X79285712Y-75234438D02*
X79476188Y-75139200D01*
X79476188Y-75139200D02*
X79571426Y-74948723D01*
X79571426Y-74948723D02*
X79571426Y-74186819D01*
X79571426Y-74186819D02*
X79476188Y-73996342D01*
X79476188Y-73996342D02*
X79285712Y-73901104D01*
X79285712Y-73901104D02*
X78904759Y-73901104D01*
X78904759Y-73901104D02*
X78714283Y-73996342D01*
X78714283Y-73996342D02*
X78619045Y-74186819D01*
X78619045Y-74186819D02*
X78619045Y-74377295D01*
X78619045Y-74377295D02*
X79571426Y-74567771D01*
X77761902Y-75234438D02*
X77761902Y-73901104D01*
X77761902Y-74282057D02*
X77666664Y-74091580D01*
X77666664Y-74091580D02*
X77571426Y-73996342D01*
X77571426Y-73996342D02*
X77380950Y-73901104D01*
X77380950Y-73901104D02*
X77190473Y-73901104D01*
D10*
X132049774Y-36532257D02*
X132192632Y-36460828D01*
X132192632Y-36460828D02*
X132406917Y-36460828D01*
X132406917Y-36460828D02*
X132621203Y-36532257D01*
X132621203Y-36532257D02*
X132764060Y-36675114D01*
X132764060Y-36675114D02*
X132835489Y-36817971D01*
X132835489Y-36817971D02*
X132906917Y-37103685D01*
X132906917Y-37103685D02*
X132906917Y-37317971D01*
X132906917Y-37317971D02*
X132835489Y-37603685D01*
X132835489Y-37603685D02*
X132764060Y-37746542D01*
X132764060Y-37746542D02*
X132621203Y-37889400D01*
X132621203Y-37889400D02*
X132406917Y-37960828D01*
X132406917Y-37960828D02*
X132264060Y-37960828D01*
X132264060Y-37960828D02*
X132049774Y-37889400D01*
X132049774Y-37889400D02*
X131978346Y-37817971D01*
X131978346Y-37817971D02*
X131978346Y-37317971D01*
X131978346Y-37317971D02*
X132264060Y-37317971D01*
X129335489Y-37960828D02*
X129835489Y-37246542D01*
X130192632Y-37960828D02*
X130192632Y-36460828D01*
X130192632Y-36460828D02*
X129621203Y-36460828D01*
X129621203Y-36460828D02*
X129478346Y-36532257D01*
X129478346Y-36532257D02*
X129406917Y-36603685D01*
X129406917Y-36603685D02*
X129335489Y-36746542D01*
X129335489Y-36746542D02*
X129335489Y-36960828D01*
X129335489Y-36960828D02*
X129406917Y-37103685D01*
X129406917Y-37103685D02*
X129478346Y-37175114D01*
X129478346Y-37175114D02*
X129621203Y-37246542D01*
X129621203Y-37246542D02*
X130192632Y-37246542D01*
X127049775Y-37175114D02*
X126835489Y-37246542D01*
X126835489Y-37246542D02*
X126764060Y-37317971D01*
X126764060Y-37317971D02*
X126692632Y-37460828D01*
X126692632Y-37460828D02*
X126692632Y-37675114D01*
X126692632Y-37675114D02*
X126764060Y-37817971D01*
X126764060Y-37817971D02*
X126835489Y-37889400D01*
X126835489Y-37889400D02*
X126978346Y-37960828D01*
X126978346Y-37960828D02*
X127549775Y-37960828D01*
X127549775Y-37960828D02*
X127549775Y-36460828D01*
X127549775Y-36460828D02*
X127049775Y-36460828D01*
X127049775Y-36460828D02*
X126906918Y-36532257D01*
X126906918Y-36532257D02*
X126835489Y-36603685D01*
X126835489Y-36603685D02*
X126764060Y-36746542D01*
X126764060Y-36746542D02*
X126764060Y-36889400D01*
X126764060Y-36889400D02*
X126835489Y-37032257D01*
X126835489Y-37032257D02*
X126906918Y-37103685D01*
X126906918Y-37103685D02*
X127049775Y-37175114D01*
X127049775Y-37175114D02*
X127549775Y-37175114D01*
D18*
%TO.C,Q2*%
X66630000Y-56940000D02*
X66630000Y-66430000D01*
X66630000Y-66670000D02*
X66630000Y-67870000D01*
X66630000Y-69070000D02*
X66630000Y-70270000D01*
X66630000Y-71470000D02*
X66630000Y-72670000D01*
X67270000Y-72830000D02*
X66630000Y-72830000D01*
X69210000Y-54400000D02*
X69210000Y-56940000D01*
X69670000Y-72830000D02*
X68470000Y-72830000D01*
X71750000Y-54400000D02*
X71750000Y-56940000D01*
X72070000Y-72830000D02*
X70870000Y-72830000D01*
X74290000Y-54400000D02*
X74290000Y-56940000D01*
X74471000Y-72830000D02*
X73270000Y-72830000D01*
X76870000Y-56940000D02*
X66630000Y-56940000D01*
X76870000Y-56940000D02*
X76870000Y-66430000D01*
X76870000Y-66430000D02*
X66630000Y-66430000D01*
X76870000Y-66670000D02*
X76870000Y-67870000D01*
X76870000Y-69070000D02*
X76870000Y-70270000D01*
X76870000Y-71470000D02*
X76870000Y-72670000D01*
X76870000Y-72830000D02*
X75670000Y-72830000D01*
%TO.C,M1*%
X55140000Y-22840000D02*
X65360000Y-22840000D01*
X55140000Y-35660000D02*
X55140000Y-22840000D01*
X56250000Y-22840000D02*
X56250000Y-25140000D01*
X56250000Y-25140000D02*
X64250000Y-25140000D01*
X56250000Y-26740000D02*
X56250000Y-30150000D01*
X56250000Y-30150000D02*
X55140000Y-30150000D01*
X56360000Y-32760000D02*
X56360000Y-35660000D01*
X56360000Y-35660000D02*
X55140000Y-35660000D01*
X56640000Y-32760000D02*
X56360000Y-32760000D01*
X57350000Y-26740000D02*
X56250000Y-26740000D01*
X57350000Y-30150000D02*
X57350000Y-26740000D01*
X57350000Y-33750000D02*
X58150000Y-33750000D01*
X57750000Y-33350000D02*
X57350000Y-33750000D01*
X57850000Y-25140000D02*
X57850000Y-30150000D01*
X57850000Y-30150000D02*
X57350000Y-30150000D01*
X58150000Y-33750000D02*
X57750000Y-33350000D01*
X59450000Y-26950000D02*
X59450000Y-28750000D01*
X59450000Y-28750000D02*
X61050000Y-28750000D01*
X61050000Y-26950000D02*
X59450000Y-26950000D01*
X61050000Y-28750000D02*
X61050000Y-26950000D01*
X62650000Y-25140000D02*
X62650000Y-30150000D01*
X62650000Y-30150000D02*
X63150000Y-30150000D01*
X63150000Y-26740000D02*
X64250000Y-26740000D01*
X63150000Y-30150000D02*
X63150000Y-26740000D01*
X64140000Y-32760000D02*
X63860000Y-32760000D01*
X64140000Y-35660000D02*
X64140000Y-32760000D01*
X64250000Y-25140000D02*
X64250000Y-22840000D01*
X64250000Y-26740000D02*
X64250000Y-30150000D01*
X64250000Y-30150000D02*
X65360000Y-30150000D01*
X65360000Y-22840000D02*
X65360000Y-35660000D01*
X65360000Y-35660000D02*
X64140000Y-35660000D01*
%TO.C,J2*%
X67845000Y-87370000D02*
X67845000Y-88750000D01*
X69225000Y-87370000D02*
X67845000Y-87370000D01*
X70495000Y-87370000D02*
X70495000Y-90130000D01*
X70495000Y-87370000D02*
X73145000Y-87370000D01*
X70495000Y-90130000D02*
X73145000Y-90130000D01*
X73145000Y-87370000D02*
X73145000Y-90130000D01*
%TO.C,Q1*%
X72630000Y-22900000D02*
X73830000Y-22900000D01*
X72630000Y-24260000D02*
X72630000Y-23060000D01*
X72630000Y-26660000D02*
X72630000Y-25460000D01*
X72630000Y-29060000D02*
X72630000Y-27860000D01*
X72630000Y-29300000D02*
X82870000Y-29300000D01*
X72630000Y-38790000D02*
X72630000Y-29300000D01*
X72630000Y-38790000D02*
X82870000Y-38790000D01*
X75029000Y-22900000D02*
X76230000Y-22900000D01*
X75210000Y-41330000D02*
X75210000Y-38790000D01*
X77430000Y-22900000D02*
X78630000Y-22900000D01*
X77750000Y-41330000D02*
X77750000Y-38790000D01*
X79830000Y-22900000D02*
X81030000Y-22900000D01*
X80290000Y-41330000D02*
X80290000Y-38790000D01*
X82230000Y-22900000D02*
X82870000Y-22900000D01*
X82870000Y-24260000D02*
X82870000Y-23060000D01*
X82870000Y-26660000D02*
X82870000Y-25460000D01*
X82870000Y-29060000D02*
X82870000Y-27860000D01*
X82870000Y-38790000D02*
X82870000Y-29300000D01*
%TO.C,Q5*%
X110630000Y-22920000D02*
X111830000Y-22920000D01*
X110630000Y-24280000D02*
X110630000Y-23080000D01*
X110630000Y-26680000D02*
X110630000Y-25480000D01*
X110630000Y-29080000D02*
X110630000Y-27880000D01*
X110630000Y-29320000D02*
X120870000Y-29320000D01*
X110630000Y-38810000D02*
X110630000Y-29320000D01*
X110630000Y-38810000D02*
X120870000Y-38810000D01*
X113029000Y-22920000D02*
X114230000Y-22920000D01*
X113210000Y-41350000D02*
X113210000Y-38810000D01*
X115430000Y-22920000D02*
X116630000Y-22920000D01*
X115750000Y-41350000D02*
X115750000Y-38810000D01*
X117830000Y-22920000D02*
X119030000Y-22920000D01*
X118290000Y-41350000D02*
X118290000Y-38810000D01*
X120230000Y-22920000D02*
X120870000Y-22920000D01*
X120870000Y-24280000D02*
X120870000Y-23080000D01*
X120870000Y-26680000D02*
X120870000Y-25480000D01*
X120870000Y-29080000D02*
X120870000Y-27880000D01*
X120870000Y-38810000D02*
X120870000Y-29320000D01*
D19*
%TO.C,G\u002A\u002A\u002A*%
G36*
X65750695Y-42764224D02*
G01*
X65753365Y-42771586D01*
X65769077Y-42812856D01*
X65797538Y-42886702D01*
X65837519Y-42989965D01*
X65887792Y-43119481D01*
X65947127Y-43272091D01*
X66014297Y-43444633D01*
X66088072Y-43633945D01*
X66167223Y-43836867D01*
X66250523Y-44050236D01*
X66739117Y-45301221D01*
X65490047Y-45306376D01*
X65450093Y-45306548D01*
X65232512Y-45307758D01*
X65027826Y-45309344D01*
X64839426Y-45311250D01*
X64670705Y-45313424D01*
X64525055Y-45315810D01*
X64405869Y-45318354D01*
X64316537Y-45321002D01*
X64260453Y-45323699D01*
X64241008Y-45326391D01*
X64241423Y-45327928D01*
X64251906Y-45356724D01*
X64275821Y-45419843D01*
X64312241Y-45514892D01*
X64360238Y-45639483D01*
X64418887Y-45791225D01*
X64487261Y-45967728D01*
X64564433Y-46166603D01*
X64649478Y-46385458D01*
X64741467Y-46621903D01*
X64839476Y-46873550D01*
X64942576Y-47138007D01*
X65049843Y-47412884D01*
X65858647Y-49484515D01*
X65705328Y-49495857D01*
X65701300Y-49496154D01*
X65615514Y-49502262D01*
X65536275Y-49507538D01*
X65480265Y-49510868D01*
X65408520Y-49514539D01*
X64086053Y-46126871D01*
X62763586Y-42739204D01*
X62038893Y-42733948D01*
X62029744Y-42733882D01*
X61835594Y-42732754D01*
X61678123Y-42732485D01*
X61554125Y-42733167D01*
X61460391Y-42734888D01*
X61393715Y-42737738D01*
X61350887Y-42741808D01*
X61328701Y-42747186D01*
X61323949Y-42753964D01*
X61330691Y-42771303D01*
X61351134Y-42823718D01*
X61383344Y-42906230D01*
X61425858Y-43015094D01*
X61477213Y-43146567D01*
X61535947Y-43296907D01*
X61600596Y-43462369D01*
X61606796Y-43478235D01*
X61669696Y-43639209D01*
X61741786Y-43823685D01*
X61743483Y-43828028D01*
X61815401Y-44012053D01*
X61889080Y-44200569D01*
X61961358Y-44385490D01*
X61974139Y-44418186D01*
X62030773Y-44563072D01*
X62095862Y-44729572D01*
X62155161Y-44881247D01*
X62207208Y-45014352D01*
X62250539Y-45125144D01*
X62283692Y-45209880D01*
X62305204Y-45264816D01*
X62313611Y-45286209D01*
X62312876Y-45288689D01*
X62299685Y-45293234D01*
X62268951Y-45297166D01*
X62218426Y-45300522D01*
X62145860Y-45303342D01*
X62049005Y-45305662D01*
X61925612Y-45307521D01*
X61773432Y-45308957D01*
X61590217Y-45310008D01*
X61373717Y-45310712D01*
X61121685Y-45311106D01*
X60831870Y-45311229D01*
X59339992Y-45311229D01*
X59300343Y-45206146D01*
X59292031Y-45184527D01*
X59269583Y-45126686D01*
X59235308Y-45038628D01*
X59190754Y-44924318D01*
X59137469Y-44787717D01*
X59077004Y-44632790D01*
X59010905Y-44463499D01*
X58993189Y-44418139D01*
X60421898Y-44418139D01*
X60424591Y-44438209D01*
X60441046Y-44473510D01*
X60478763Y-44486498D01*
X60518687Y-44487077D01*
X60549523Y-44467533D01*
X60558077Y-44418186D01*
X60547106Y-44378135D01*
X60508834Y-44347421D01*
X60454083Y-44345697D01*
X60446013Y-44348274D01*
X60423939Y-44370393D01*
X60421898Y-44418139D01*
X58993189Y-44418139D01*
X58940723Y-44283807D01*
X58868005Y-44097678D01*
X58794302Y-43909075D01*
X58752577Y-43802332D01*
X59689393Y-43802332D01*
X59699123Y-43864494D01*
X59735645Y-43912705D01*
X59785381Y-43941343D01*
X59854176Y-43944974D01*
X59924882Y-43908673D01*
X59946276Y-43888449D01*
X59975884Y-43828028D01*
X59969227Y-43761511D01*
X59926254Y-43696814D01*
X59905627Y-43677752D01*
X59863232Y-43655557D01*
X59811432Y-43658139D01*
X59743147Y-43682827D01*
X59702121Y-43729553D01*
X59689393Y-43802332D01*
X58752577Y-43802332D01*
X58721160Y-43721961D01*
X58650131Y-43540298D01*
X58626464Y-43479787D01*
X60608117Y-43479787D01*
X60608179Y-43492938D01*
X60612423Y-43538207D01*
X60629568Y-43558359D01*
X60668263Y-43565756D01*
X60718321Y-43562856D01*
X60762723Y-43533775D01*
X60778251Y-43478235D01*
X60767822Y-43434707D01*
X60728006Y-43400214D01*
X60664371Y-43393274D01*
X60658267Y-43394014D01*
X60625037Y-43403337D01*
X60611004Y-43427799D01*
X60608117Y-43479787D01*
X58626464Y-43479787D01*
X58582761Y-43368050D01*
X58520600Y-43209181D01*
X58465196Y-43067653D01*
X58418099Y-42947429D01*
X58380857Y-42852473D01*
X58355019Y-42786747D01*
X58342134Y-42754216D01*
X58336375Y-42749469D01*
X58312342Y-42743447D01*
X58267054Y-42738646D01*
X58197380Y-42734958D01*
X58100194Y-42732276D01*
X57972366Y-42730493D01*
X57810767Y-42729503D01*
X57612270Y-42729196D01*
X57467652Y-42729246D01*
X57306278Y-42729564D01*
X57178363Y-42730341D01*
X57080146Y-42731761D01*
X57007865Y-42734011D01*
X56957757Y-42737278D01*
X56926061Y-42741746D01*
X56909015Y-42747603D01*
X56902857Y-42755033D01*
X56903825Y-42764224D01*
X56906501Y-42771582D01*
X56922223Y-42812846D01*
X56950690Y-42886689D01*
X56990674Y-42989950D01*
X57040946Y-43119466D01*
X57100276Y-43272078D01*
X57167437Y-43444622D01*
X57241200Y-43633937D01*
X57320335Y-43836863D01*
X57403615Y-44050236D01*
X57718801Y-44857451D01*
X57892076Y-45301221D01*
X56409120Y-45306354D01*
X56145228Y-45307124D01*
X55873213Y-45307523D01*
X55638449Y-45307368D01*
X55439439Y-45306642D01*
X55274689Y-45305327D01*
X55142702Y-45303407D01*
X55041982Y-45300865D01*
X54971034Y-45297683D01*
X54928363Y-45293845D01*
X54912471Y-45289334D01*
X54906220Y-45275165D01*
X54886278Y-45226332D01*
X54854193Y-45146212D01*
X54811304Y-45038196D01*
X54758951Y-44905674D01*
X54698472Y-44752037D01*
X54631206Y-44580676D01*
X54558493Y-44394982D01*
X54481670Y-44198346D01*
X54420572Y-44042082D01*
X54347166Y-43855159D01*
X54278989Y-43682452D01*
X54217363Y-43527261D01*
X54163610Y-43392887D01*
X54119051Y-43282631D01*
X54085008Y-43199794D01*
X54062801Y-43147677D01*
X54053754Y-43129579D01*
X54046774Y-43143125D01*
X54026311Y-43190816D01*
X53993815Y-43269730D01*
X53950595Y-43376590D01*
X53897962Y-43508121D01*
X53837225Y-43661046D01*
X53769695Y-43832091D01*
X53696682Y-44017978D01*
X53619495Y-44215434D01*
X53196044Y-45301221D01*
X52961586Y-45306881D01*
X52901844Y-45308082D01*
X52818086Y-45308130D01*
X52766282Y-45304920D01*
X52741220Y-45297987D01*
X52737691Y-45286865D01*
X52745178Y-45267956D01*
X52766307Y-45214264D01*
X52799804Y-45129015D01*
X52844494Y-45015202D01*
X52899202Y-44875820D01*
X52962754Y-44713861D01*
X53033975Y-44532318D01*
X53111691Y-44334184D01*
X53194726Y-44122453D01*
X53281907Y-43900118D01*
X53303013Y-43846285D01*
X53401405Y-43595161D01*
X53486271Y-43378094D01*
X53558560Y-43192416D01*
X53619224Y-43035460D01*
X53669211Y-42904560D01*
X53709474Y-42797049D01*
X53732192Y-42734432D01*
X54373207Y-42734432D01*
X54373250Y-42734648D01*
X54381340Y-42756512D01*
X54402125Y-42810410D01*
X54433721Y-42891517D01*
X54474242Y-42995007D01*
X54521805Y-43116056D01*
X54574524Y-43249838D01*
X54606427Y-43330718D01*
X54696562Y-43559541D01*
X54782914Y-43779227D01*
X54864113Y-43986266D01*
X54938791Y-44177148D01*
X55005576Y-44348363D01*
X55063099Y-44496400D01*
X55109990Y-44617750D01*
X55144880Y-44708902D01*
X55166396Y-44766345D01*
X55204914Y-44871973D01*
X56231963Y-44879270D01*
X56237574Y-44879309D01*
X56465641Y-44880884D01*
X56656938Y-44882030D01*
X56814656Y-44882652D01*
X56941983Y-44882657D01*
X57042108Y-44881949D01*
X57118221Y-44880435D01*
X57173510Y-44878019D01*
X57211164Y-44874608D01*
X57234373Y-44870105D01*
X57246326Y-44864418D01*
X57250211Y-44857451D01*
X57249218Y-44849111D01*
X57244995Y-44836779D01*
X57227316Y-44789252D01*
X57197281Y-44710217D01*
X57156239Y-44603177D01*
X57105542Y-44471633D01*
X57046538Y-44319084D01*
X56980579Y-44149033D01*
X56909015Y-43964979D01*
X56833195Y-43770426D01*
X56426967Y-42729196D01*
X55400087Y-42729196D01*
X55334962Y-42729207D01*
X55140104Y-42729367D01*
X54959089Y-42729707D01*
X54795658Y-42730206D01*
X54653553Y-42730846D01*
X54536514Y-42731608D01*
X54448282Y-42732472D01*
X54392600Y-42733420D01*
X54373207Y-42734432D01*
X53732192Y-42734432D01*
X53740961Y-42710261D01*
X53764624Y-42641529D01*
X53781413Y-42588186D01*
X53792277Y-42547567D01*
X53798169Y-42517003D01*
X53800036Y-42493829D01*
X53798831Y-42475378D01*
X53795503Y-42458983D01*
X53791859Y-42444717D01*
X53775447Y-42385604D01*
X53761941Y-42343893D01*
X53761690Y-42343192D01*
X53761630Y-42338045D01*
X53766400Y-42333438D01*
X53778069Y-42329342D01*
X53798709Y-42325726D01*
X53830391Y-42322562D01*
X53875185Y-42319818D01*
X53935162Y-42317466D01*
X54012392Y-42315476D01*
X54108947Y-42313816D01*
X54226897Y-42312458D01*
X54368312Y-42311372D01*
X54535264Y-42310528D01*
X54729824Y-42309895D01*
X54954061Y-42309445D01*
X55210047Y-42309146D01*
X55499852Y-42308970D01*
X55825547Y-42308886D01*
X56189203Y-42308865D01*
X58629971Y-42308865D01*
X58778382Y-42682672D01*
X58926793Y-43056478D01*
X59036880Y-43095378D01*
X59095515Y-43112202D01*
X59218134Y-43132363D01*
X59377148Y-43144021D01*
X59433417Y-43145772D01*
X59591730Y-43141938D01*
X59738846Y-43122387D01*
X59885244Y-43084632D01*
X60041405Y-43026187D01*
X60217809Y-42944565D01*
X60468006Y-42820743D01*
X60673168Y-42820005D01*
X60735863Y-42819048D01*
X60809432Y-42815644D01*
X60859710Y-42810420D01*
X60878330Y-42804027D01*
X60878329Y-42803965D01*
X60871123Y-42780142D01*
X60852510Y-42729196D01*
X63220758Y-42729196D01*
X63258152Y-42824271D01*
X63260449Y-42830119D01*
X63278313Y-42875758D01*
X63308800Y-42953761D01*
X63350367Y-43060175D01*
X63401472Y-43191049D01*
X63460570Y-43342430D01*
X63526119Y-43510367D01*
X63596576Y-43690909D01*
X63670398Y-43880102D01*
X63694955Y-43943026D01*
X63766120Y-44125173D01*
X63832420Y-44294577D01*
X63892474Y-44447729D01*
X63944903Y-44581121D01*
X63988327Y-44691244D01*
X64021364Y-44774590D01*
X64042635Y-44827650D01*
X64050759Y-44846916D01*
X64050883Y-44847054D01*
X64052348Y-44848480D01*
X64054777Y-44847684D01*
X64059650Y-44842180D01*
X64068446Y-44829480D01*
X64082645Y-44807096D01*
X64103728Y-44772541D01*
X64133174Y-44723328D01*
X64172465Y-44656969D01*
X64223079Y-44570976D01*
X64286497Y-44462862D01*
X64364199Y-44330139D01*
X64457666Y-44170321D01*
X64568377Y-43980918D01*
X64697812Y-43759445D01*
X64765028Y-43644347D01*
X64866518Y-43470228D01*
X64960900Y-43307908D01*
X65046297Y-43160634D01*
X65120833Y-43031655D01*
X65182633Y-42924220D01*
X65229821Y-42841577D01*
X65260520Y-42786974D01*
X65272855Y-42763661D01*
X65274083Y-42758512D01*
X65271218Y-42751649D01*
X65259817Y-42745946D01*
X65236730Y-42741295D01*
X65198809Y-42737589D01*
X65142903Y-42734724D01*
X65065863Y-42732591D01*
X64964540Y-42731085D01*
X64835783Y-42730099D01*
X64676444Y-42729526D01*
X64483372Y-42729261D01*
X64253419Y-42729196D01*
X63220758Y-42729196D01*
X60852510Y-42729196D01*
X60851754Y-42727128D01*
X60823154Y-42652717D01*
X60788259Y-42564707D01*
X60787943Y-42563922D01*
X60753080Y-42475921D01*
X60724542Y-42401508D01*
X60705266Y-42348509D01*
X60698188Y-42324746D01*
X60705366Y-42323674D01*
X60748099Y-42321936D01*
X60827449Y-42320259D01*
X60941281Y-42318655D01*
X61087464Y-42317135D01*
X61263866Y-42315708D01*
X61468355Y-42314386D01*
X61698797Y-42313180D01*
X61953061Y-42312099D01*
X62229015Y-42311156D01*
X62524526Y-42310360D01*
X62837462Y-42309722D01*
X63165690Y-42309253D01*
X63507079Y-42308964D01*
X63859497Y-42308865D01*
X64071537Y-42308831D01*
X64417813Y-42308629D01*
X64751869Y-42308253D01*
X65071566Y-42307713D01*
X65374764Y-42307019D01*
X65659324Y-42306181D01*
X65923107Y-42305210D01*
X66163973Y-42304116D01*
X66379783Y-42302908D01*
X66568397Y-42301598D01*
X66727677Y-42300194D01*
X66855482Y-42298708D01*
X66949674Y-42297149D01*
X67008114Y-42295527D01*
X67028661Y-42293853D01*
X67028660Y-42293154D01*
X67020499Y-42267621D01*
X66998769Y-42207586D01*
X66964398Y-42115456D01*
X66918309Y-41993639D01*
X66861429Y-41844542D01*
X66794683Y-41670574D01*
X66718997Y-41474140D01*
X66635296Y-41257650D01*
X66544505Y-41023511D01*
X66447550Y-40774129D01*
X66345357Y-40511913D01*
X66238851Y-40239270D01*
X66222557Y-40197602D01*
X66116678Y-39926549D01*
X66015249Y-39666397D01*
X65919194Y-39419543D01*
X65829440Y-39188385D01*
X65746909Y-38975320D01*
X65672526Y-38782743D01*
X65607216Y-38613052D01*
X65551904Y-38468643D01*
X65507513Y-38351914D01*
X65474968Y-38265261D01*
X65455194Y-38211081D01*
X65449115Y-38191771D01*
X65451574Y-38193750D01*
X65477163Y-38217662D01*
X65529334Y-38267512D01*
X65606604Y-38341859D01*
X65707493Y-38439260D01*
X65830518Y-38558270D01*
X65974196Y-38697448D01*
X66137046Y-38855350D01*
X66317585Y-39030533D01*
X66514332Y-39221554D01*
X66725804Y-39426971D01*
X66950520Y-39645340D01*
X67186997Y-39875218D01*
X67433753Y-40115162D01*
X67689306Y-40363729D01*
X67952174Y-40619477D01*
X68220875Y-40880961D01*
X68493926Y-41146740D01*
X68769847Y-41415370D01*
X69047154Y-41685407D01*
X69324366Y-41955410D01*
X69600000Y-42223935D01*
X69872575Y-42489539D01*
X70140608Y-42750779D01*
X70402617Y-43006212D01*
X70657120Y-43254395D01*
X70902636Y-43493885D01*
X71137681Y-43723239D01*
X71360775Y-43941014D01*
X71570434Y-44145767D01*
X71765177Y-44336055D01*
X71943522Y-44510435D01*
X72103987Y-44667463D01*
X72245089Y-44805698D01*
X72365346Y-44923695D01*
X72463277Y-45020013D01*
X72537399Y-45093207D01*
X72757461Y-45311229D01*
X72447328Y-45310225D01*
X72137195Y-45309221D01*
X70816766Y-44019209D01*
X69496338Y-42729196D01*
X68587679Y-42729196D01*
X68378627Y-42729264D01*
X68199815Y-42729562D01*
X68054390Y-42730220D01*
X67938980Y-42731370D01*
X67850217Y-42733144D01*
X67784731Y-42735672D01*
X67739153Y-42739086D01*
X67710112Y-42743516D01*
X67694240Y-42749096D01*
X67688166Y-42755954D01*
X67688522Y-42764224D01*
X67690606Y-42770365D01*
X67705318Y-42809811D01*
X67732856Y-42881972D01*
X67771987Y-42983667D01*
X67821480Y-43111716D01*
X67880102Y-43262939D01*
X67946622Y-43434157D01*
X68019806Y-43622188D01*
X68098424Y-43823854D01*
X68181242Y-44035973D01*
X68218752Y-44132033D01*
X68299464Y-44339150D01*
X68375185Y-44534025D01*
X68444714Y-44713532D01*
X68506846Y-44874540D01*
X68560379Y-45013922D01*
X68604110Y-45128549D01*
X68636836Y-45215293D01*
X68657354Y-45271025D01*
X68664460Y-45292617D01*
X68657854Y-45298083D01*
X68617232Y-45304764D01*
X68543066Y-45307781D01*
X68439374Y-45306881D01*
X68214288Y-45301221D01*
X67713803Y-44015763D01*
X67213318Y-42730304D01*
X66476390Y-42729750D01*
X66308362Y-42729692D01*
X66148782Y-42729923D01*
X66022288Y-42730644D01*
X65925158Y-42732030D01*
X65853672Y-42734258D01*
X65804110Y-42737506D01*
X65772752Y-42741950D01*
X65755877Y-42747766D01*
X65749765Y-42755132D01*
X65750111Y-42758512D01*
X65750695Y-42764224D01*
G37*
D18*
%TO.C,RGBLED1*%
X121890000Y-25340000D02*
X134610000Y-25340000D01*
X121890000Y-38160000D02*
X121890000Y-25340000D01*
X123000000Y-25340000D02*
X123000000Y-27640000D01*
X123000000Y-27640000D02*
X133500000Y-27640000D01*
X123110000Y-35260000D02*
X123110000Y-38160000D01*
X123110000Y-38160000D02*
X121890000Y-38160000D01*
X123390000Y-35260000D02*
X123110000Y-35260000D01*
X123950000Y-29240000D02*
X123950000Y-32650000D01*
X123950000Y-32650000D02*
X121890000Y-32650000D01*
X124100000Y-36250000D02*
X124900000Y-36250000D01*
X124500000Y-35850000D02*
X124100000Y-36250000D01*
X124900000Y-36250000D02*
X124500000Y-35850000D01*
X125050000Y-29240000D02*
X123950000Y-29240000D01*
X125050000Y-32650000D02*
X125050000Y-29240000D01*
X125550000Y-27640000D02*
X125550000Y-32650000D01*
X125550000Y-32650000D02*
X125050000Y-32650000D01*
X127450000Y-29450000D02*
X127450000Y-31250000D01*
X127450000Y-31250000D02*
X129050000Y-31250000D01*
X129050000Y-29450000D02*
X127450000Y-29450000D01*
X129050000Y-31250000D02*
X129050000Y-29450000D01*
X130950000Y-27640000D02*
X130950000Y-32650000D01*
X130950000Y-32650000D02*
X131450000Y-32650000D01*
X131450000Y-29240000D02*
X132550000Y-29240000D01*
X131450000Y-32650000D02*
X131450000Y-29240000D01*
X132550000Y-29240000D02*
X132550000Y-32650000D01*
X132550000Y-32650000D02*
X134610000Y-32650000D01*
X133390000Y-35260000D02*
X133110000Y-35260000D01*
X133390000Y-38160000D02*
X133390000Y-35260000D01*
X133500000Y-27640000D02*
X133500000Y-25340000D01*
X134610000Y-25340000D02*
X134610000Y-38160000D01*
X134610000Y-38160000D02*
X133390000Y-38160000D01*
%TO.C,Q3*%
X91630000Y-22900000D02*
X92830000Y-22900000D01*
X91630000Y-24260000D02*
X91630000Y-23060000D01*
X91630000Y-26660000D02*
X91630000Y-25460000D01*
X91630000Y-29060000D02*
X91630000Y-27860000D01*
X91630000Y-29300000D02*
X101870000Y-29300000D01*
X91630000Y-38790000D02*
X91630000Y-29300000D01*
X91630000Y-38790000D02*
X101870000Y-38790000D01*
X94029000Y-22900000D02*
X95230000Y-22900000D01*
X94210000Y-41330000D02*
X94210000Y-38790000D01*
X96430000Y-22900000D02*
X97630000Y-22900000D01*
X96750000Y-41330000D02*
X96750000Y-38790000D01*
X98830000Y-22900000D02*
X100030000Y-22900000D01*
X99290000Y-41330000D02*
X99290000Y-38790000D01*
X101230000Y-22900000D02*
X101870000Y-22900000D01*
X101870000Y-24260000D02*
X101870000Y-23060000D01*
X101870000Y-26660000D02*
X101870000Y-25460000D01*
X101870000Y-29060000D02*
X101870000Y-27860000D01*
X101870000Y-38790000D02*
X101870000Y-29300000D01*
%TO.C,J3*%
X123230000Y-78000000D02*
X123230000Y-79270000D01*
X123230000Y-79270000D02*
X124500000Y-79270000D01*
X125577358Y-67410000D02*
X125890000Y-67410000D01*
X125577358Y-68270000D02*
X125890000Y-68270000D01*
X125577358Y-69950000D02*
X125890000Y-69950000D01*
X125577358Y-70810000D02*
X125890000Y-70810000D01*
X125577358Y-72490000D02*
X125890000Y-72490000D01*
X125577358Y-73350000D02*
X125890000Y-73350000D01*
X125577358Y-75030000D02*
X125890000Y-75030000D01*
X125577358Y-75890000D02*
X125890000Y-75890000D01*
X125660000Y-77570000D02*
X125890000Y-77570000D01*
X125660000Y-78430000D02*
X125890000Y-78430000D01*
X125890000Y-66460000D02*
X128650000Y-66460000D01*
X125890000Y-69110000D02*
X128650000Y-69110000D01*
X125890000Y-71650000D02*
X128650000Y-71650000D01*
X125890000Y-74190000D02*
X128650000Y-74190000D01*
X125890000Y-76730000D02*
X128650000Y-76730000D01*
X125890000Y-79380000D02*
X125890000Y-66460000D01*
X128650000Y-66460000D02*
X128650000Y-79380000D01*
X128650000Y-68270000D02*
X134650000Y-68270000D01*
X128650000Y-70810000D02*
X134650000Y-70810000D01*
X128650000Y-73350000D02*
X134650000Y-73350000D01*
X128650000Y-75890000D02*
X134650000Y-75890000D01*
X128650000Y-79380000D02*
X125890000Y-79380000D01*
X134650000Y-67410000D02*
X128650000Y-67410000D01*
X134650000Y-68270000D02*
X134650000Y-67410000D01*
X134650000Y-69950000D02*
X128650000Y-69950000D01*
X134650000Y-70810000D02*
X134650000Y-69950000D01*
X134650000Y-72490000D02*
X128650000Y-72490000D01*
X134650000Y-73350000D02*
X134650000Y-72490000D01*
X134650000Y-75030000D02*
X128650000Y-75030000D01*
X134650000Y-75890000D02*
X134650000Y-75030000D01*
X128650000Y-78430000D02*
X134650000Y-78430000D01*
X134650000Y-77570000D01*
X128650000Y-77570000D01*
X128650000Y-78430000D01*
G36*
X128650000Y-78430000D02*
G01*
X134650000Y-78430000D01*
X134650000Y-77570000D01*
X128650000Y-77570000D01*
X128650000Y-78430000D01*
G37*
%TO.C,Q4*%
X85630000Y-56940000D02*
X85630000Y-66430000D01*
X85630000Y-66670000D02*
X85630000Y-67870000D01*
X85630000Y-69070000D02*
X85630000Y-70270000D01*
X85630000Y-71470000D02*
X85630000Y-72670000D01*
X86270000Y-72830000D02*
X85630000Y-72830000D01*
X88210000Y-54400000D02*
X88210000Y-56940000D01*
X88670000Y-72830000D02*
X87470000Y-72830000D01*
X90750000Y-54400000D02*
X90750000Y-56940000D01*
X91070000Y-72830000D02*
X89870000Y-72830000D01*
X93290000Y-54400000D02*
X93290000Y-56940000D01*
X93471000Y-72830000D02*
X92270000Y-72830000D01*
X95870000Y-56940000D02*
X85630000Y-56940000D01*
X95870000Y-56940000D02*
X95870000Y-66430000D01*
X95870000Y-66430000D02*
X85630000Y-66430000D01*
X95870000Y-66670000D02*
X95870000Y-67870000D01*
X95870000Y-69070000D02*
X95870000Y-70270000D01*
X95870000Y-71470000D02*
X95870000Y-72670000D01*
X95870000Y-72830000D02*
X94670000Y-72830000D01*
%TO.C,Q6*%
X104630000Y-56940000D02*
X104630000Y-66430000D01*
X104630000Y-66670000D02*
X104630000Y-67870000D01*
X104630000Y-69070000D02*
X104630000Y-70270000D01*
X104630000Y-71470000D02*
X104630000Y-72670000D01*
X105270000Y-72830000D02*
X104630000Y-72830000D01*
X107210000Y-54400000D02*
X107210000Y-56940000D01*
X107670000Y-72830000D02*
X106470000Y-72830000D01*
X109750000Y-54400000D02*
X109750000Y-56940000D01*
X110070000Y-72830000D02*
X108870000Y-72830000D01*
X112290000Y-54400000D02*
X112290000Y-56940000D01*
X112471000Y-72830000D02*
X111270000Y-72830000D01*
X114870000Y-56940000D02*
X104630000Y-56940000D01*
X114870000Y-56940000D02*
X114870000Y-66430000D01*
X114870000Y-66430000D02*
X104630000Y-66430000D01*
X114870000Y-66670000D02*
X114870000Y-67870000D01*
X114870000Y-69070000D02*
X114870000Y-70270000D01*
X114870000Y-71470000D02*
X114870000Y-72670000D01*
X114870000Y-72830000D02*
X113670000Y-72830000D01*
%TD*%
%LPC*%
D20*
%TO.C,C69*%
X75000000Y-27500000D03*
D21*
X80000000Y-27500000D03*
%TD*%
D20*
%TO.C,C68*%
X113382323Y-27500000D03*
D21*
X118382323Y-27500000D03*
%TD*%
D22*
%TO.C,H3*%
X123500000Y-89750000D03*
%TD*%
D23*
%TO.C,CAN1*%
X80500000Y-84600000D03*
D24*
X79250000Y-78100000D03*
D25*
X81750000Y-78100000D03*
%TD*%
D23*
%TO.C,J1*%
X103000000Y-84750000D03*
D24*
X96750000Y-78250000D03*
D25*
X99250000Y-78250000D03*
X101750000Y-78250000D03*
X104250000Y-78250000D03*
X106750000Y-78250000D03*
X109250000Y-78250000D03*
%TD*%
D26*
%TO.C,H7*%
X73875000Y-48000000D03*
X74643845Y-46143845D03*
X74643845Y-49856155D03*
X76500000Y-45375000D03*
D27*
X76500000Y-48000000D03*
D26*
X76500000Y-50625000D03*
X78356155Y-46143845D03*
X78356155Y-49856155D03*
X79125000Y-48000000D03*
%TD*%
D22*
%TO.C,H4*%
X140000000Y-43750000D03*
%TD*%
D28*
%TO.C,USB1*%
X133050000Y-75325000D03*
X133050000Y-69675000D03*
%TD*%
D26*
%TO.C,H6*%
X84625000Y-26500000D03*
X85393845Y-24643845D03*
X85393845Y-28356155D03*
X87250000Y-23875000D03*
D27*
X87250000Y-26500000D03*
D26*
X87250000Y-29125000D03*
X89106155Y-24643845D03*
X89106155Y-28356155D03*
X89875000Y-26500000D03*
%TD*%
%TO.C,H5*%
X103625000Y-26500000D03*
X104393845Y-24643845D03*
X104393845Y-28356155D03*
X106250000Y-23875000D03*
D27*
X106250000Y-26500000D03*
D26*
X106250000Y-29125000D03*
X108106155Y-24643845D03*
X108106155Y-28356155D03*
X108875000Y-26500000D03*
%TD*%
%TO.C,H9*%
X111875000Y-48000000D03*
X112643845Y-46143845D03*
X112643845Y-49856155D03*
X114500000Y-45375000D03*
D27*
X114500000Y-48000000D03*
D26*
X114500000Y-50625000D03*
X116356155Y-46143845D03*
X116356155Y-49856155D03*
X117125000Y-48000000D03*
%TD*%
D22*
%TO.C,H1*%
X47000000Y-43750000D03*
%TD*%
%TO.C,H2*%
X63500000Y-89750000D03*
%TD*%
D26*
%TO.C,H8*%
X92875000Y-48000000D03*
X93643845Y-46143845D03*
X93643845Y-49856155D03*
X95500000Y-45375000D03*
D27*
X95500000Y-48000000D03*
D26*
X95500000Y-50625000D03*
X97356155Y-46143845D03*
X97356155Y-49856155D03*
X98125000Y-48000000D03*
%TD*%
D23*
%TO.C,CAN2*%
X89250000Y-84600000D03*
D24*
X88000000Y-78100000D03*
D25*
X90500000Y-78100000D03*
%TD*%
D29*
%TO.C,Q2*%
X74290000Y-53250000D03*
D30*
X71750000Y-53250000D03*
X69210000Y-53250000D03*
%TD*%
D24*
%TO.C,M1*%
X57750000Y-32150000D03*
D25*
X60250000Y-32150000D03*
X62750000Y-32150000D03*
%TD*%
D31*
%TO.C,J2*%
X69225000Y-88750000D03*
D32*
X71765000Y-88750000D03*
%TD*%
D29*
%TO.C,Q1*%
X75210000Y-42480000D03*
D30*
X77750000Y-42480000D03*
X80290000Y-42480000D03*
%TD*%
D29*
%TO.C,Q5*%
X113210000Y-42500000D03*
D30*
X115750000Y-42500000D03*
X118290000Y-42500000D03*
%TD*%
D24*
%TO.C,RGBLED1*%
X124500000Y-34650000D03*
D25*
X127000000Y-34650000D03*
X129500000Y-34650000D03*
X132000000Y-34650000D03*
%TD*%
D29*
%TO.C,Q3*%
X94210000Y-42480000D03*
D30*
X96750000Y-42480000D03*
X99290000Y-42480000D03*
%TD*%
D31*
%TO.C,J3*%
X124500000Y-78000000D03*
D32*
X124500000Y-75460000D03*
X124500000Y-72920000D03*
X124500000Y-70380000D03*
X124500000Y-67840000D03*
%TD*%
D29*
%TO.C,Q4*%
X93290000Y-53250000D03*
D30*
X90750000Y-53250000D03*
X88210000Y-53250000D03*
%TD*%
D29*
%TO.C,Q6*%
X112290000Y-53250000D03*
D30*
X109750000Y-53250000D03*
X107210000Y-53250000D03*
%TD*%
%LPD*%
M02*
