%TF.GenerationSoftware,KiCad,Pcbnew,9.0.0*%
%TF.CreationDate,2025-07-24T21:17:22+09:00*%
%TF.ProjectId,AQUA_VESC,41515541-5f56-4455-9343-2e6b69636164,rev?*%
%TF.SameCoordinates,Original*%
%TF.FileFunction,Soldermask,Top*%
%TF.FilePolarity,Negative*%
%FSLAX46Y46*%
G04 Gerber Fmt 4.6, Leading zero omitted, Abs format (unit mm)*
G04 Created by KiCad (PCBNEW 9.0.0) date 2025-07-24 21:17:22*
%MOMM*%
%LPD*%
G01*
G04 APERTURE LIST*
G04 Aperture macros list*
%AMRoundRect*
0 Rectangle with rounded corners*
0 $1 Rounding radius*
0 $2 $3 $4 $5 $6 $7 $8 $9 X,Y pos of 4 corners*
0 Add a 4 corners polygon primitive as box body*
4,1,4,$2,$3,$4,$5,$6,$7,$8,$9,$2,$3,0*
0 Add four circle primitives for the rounded corners*
1,1,$1+$1,$2,$3*
1,1,$1+$1,$4,$5*
1,1,$1+$1,$6,$7*
1,1,$1+$1,$8,$9*
0 Add four rect primitives between the rounded corners*
20,1,$1+$1,$2,$3,$4,$5,0*
20,1,$1+$1,$4,$5,$6,$7,0*
20,1,$1+$1,$6,$7,$8,$9,0*
20,1,$1+$1,$8,$9,$2,$3,0*%
%AMFreePoly0*
4,1,23,0.500000,-0.750000,0.000000,-0.750000,0.000000,-0.745722,-0.065263,-0.745722,-0.191342,-0.711940,-0.304381,-0.646677,-0.396677,-0.554381,-0.461940,-0.441342,-0.495722,-0.315263,-0.495722,-0.250000,-0.500000,-0.250000,-0.500000,0.250000,-0.495722,0.250000,-0.495722,0.315263,-0.461940,0.441342,-0.396677,0.554381,-0.304381,0.646677,-0.191342,0.711940,-0.065263,0.745722,0.000000,0.745722,
0.000000,0.750000,0.500000,0.750000,0.500000,-0.750000,0.500000,-0.750000,$1*%
%AMFreePoly1*
4,1,23,0.000000,0.745722,0.065263,0.745722,0.191342,0.711940,0.304381,0.646677,0.396677,0.554381,0.461940,0.441342,0.495722,0.315263,0.495722,0.250000,0.500000,0.250000,0.500000,-0.250000,0.495722,-0.250000,0.495722,-0.315263,0.461940,-0.441342,0.396677,-0.554381,0.304381,-0.646677,0.191342,-0.711940,0.065263,-0.745722,0.000000,-0.745722,0.000000,-0.750000,-0.500000,-0.750000,
-0.500000,0.750000,0.000000,0.750000,0.000000,0.745722,0.000000,0.745722,$1*%
G04 Aperture macros list end*
%ADD10RoundRect,0.225000X-0.250000X0.225000X-0.250000X-0.225000X0.250000X-0.225000X0.250000X0.225000X0*%
%ADD11RoundRect,0.200000X-0.200000X-0.275000X0.200000X-0.275000X0.200000X0.275000X-0.200000X0.275000X0*%
%ADD12RoundRect,0.225000X0.225000X0.250000X-0.225000X0.250000X-0.225000X-0.250000X0.225000X-0.250000X0*%
%ADD13RoundRect,0.225000X-0.225000X-0.250000X0.225000X-0.250000X0.225000X0.250000X-0.225000X0.250000X0*%
%ADD14RoundRect,0.200000X0.275000X-0.200000X0.275000X0.200000X-0.275000X0.200000X-0.275000X-0.200000X0*%
%ADD15RoundRect,0.200000X0.200000X0.275000X-0.200000X0.275000X-0.200000X-0.275000X0.200000X-0.275000X0*%
%ADD16RoundRect,0.250000X-0.600000X-0.725000X0.600000X-0.725000X0.600000X0.725000X-0.600000X0.725000X0*%
%ADD17O,1.700000X1.950000*%
%ADD18RoundRect,0.150000X-0.150000X0.587500X-0.150000X-0.587500X0.150000X-0.587500X0.150000X0.587500X0*%
%ADD19R,1.016000X0.355600*%
%ADD20RoundRect,0.225000X0.250000X-0.225000X0.250000X0.225000X-0.250000X0.225000X-0.250000X-0.225000X0*%
%ADD21R,2.400000X3.200000*%
%ADD22RoundRect,0.243750X0.243750X0.456250X-0.243750X0.456250X-0.243750X-0.456250X0.243750X-0.456250X0*%
%ADD23RoundRect,0.250000X2.450000X-0.650000X2.450000X0.650000X-2.450000X0.650000X-2.450000X-0.650000X0*%
%ADD24RoundRect,0.250000X0.325000X1.100000X-0.325000X1.100000X-0.325000X-1.100000X0.325000X-1.100000X0*%
%ADD25RoundRect,0.250000X0.650000X-1.000000X0.650000X1.000000X-0.650000X1.000000X-0.650000X-1.000000X0*%
%ADD26RoundRect,0.250000X-0.325000X-1.100000X0.325000X-1.100000X0.325000X1.100000X-0.325000X1.100000X0*%
%ADD27RoundRect,0.564250X-1.275750X0.960750X-1.275750X-0.960750X1.275750X-0.960750X1.275750X0.960750X0*%
%ADD28R,2.590800X2.196600*%
%ADD29O,1.692000X0.364000*%
%ADD30R,1.400000X1.700000*%
%ADD31RoundRect,0.250000X-0.250000X-0.475000X0.250000X-0.475000X0.250000X0.475000X-0.250000X0.475000X0*%
%ADD32RoundRect,0.250000X0.325000X0.650000X-0.325000X0.650000X-0.325000X-0.650000X0.325000X-0.650000X0*%
%ADD33RoundRect,0.200000X-0.275000X0.200000X-0.275000X-0.200000X0.275000X-0.200000X0.275000X0.200000X0*%
%ADD34R,1.460500X0.558800*%
%ADD35RoundRect,0.375000X-0.375000X0.625000X-0.375000X-0.625000X0.375000X-0.625000X0.375000X0.625000X0*%
%ADD36RoundRect,0.500000X-1.400000X0.500000X-1.400000X-0.500000X1.400000X-0.500000X1.400000X0.500000X0*%
%ADD37FreePoly0,0.000000*%
%ADD38FreePoly1,0.000000*%
%ADD39R,2.400000X1.900000*%
%ADD40R,1.524000X0.400000*%
%ADD41R,1.220000X1.500000*%
%ADD42R,1.000000X1.000000*%
%ADD43RoundRect,0.243750X-0.243750X-0.456250X0.243750X-0.456250X0.243750X0.456250X-0.243750X0.456250X0*%
%ADD44C,0.800000*%
%ADD45C,7.000000*%
%ADD46R,0.558800X1.460500*%
%ADD47RoundRect,0.150000X0.825000X0.150000X-0.825000X0.150000X-0.825000X-0.150000X0.825000X-0.150000X0*%
%ADD48RoundRect,0.150000X-0.825000X-0.150000X0.825000X-0.150000X0.825000X0.150000X-0.825000X0.150000X0*%
%ADD49R,2.410000X3.300000*%
%ADD50RoundRect,0.250000X1.100000X-0.325000X1.100000X0.325000X-1.100000X0.325000X-1.100000X-0.325000X0*%
%ADD51RoundRect,0.250000X-0.262500X-0.450000X0.262500X-0.450000X0.262500X0.450000X-0.262500X0.450000X0*%
%ADD52RoundRect,0.075000X0.700000X0.075000X-0.700000X0.075000X-0.700000X-0.075000X0.700000X-0.075000X0*%
%ADD53RoundRect,0.075000X0.075000X0.700000X-0.075000X0.700000X-0.075000X-0.700000X0.075000X-0.700000X0*%
%ADD54RoundRect,0.250000X-1.100000X0.325000X-1.100000X-0.325000X1.100000X-0.325000X1.100000X0.325000X0*%
%ADD55RoundRect,0.075000X-2.425000X-0.175000X2.425000X-0.175000X2.425000X0.175000X-2.425000X0.175000X0*%
%ADD56RoundRect,0.150000X0.150000X-0.587500X0.150000X0.587500X-0.150000X0.587500X-0.150000X-0.587500X0*%
%ADD57RoundRect,0.250000X-0.325000X-0.650000X0.325000X-0.650000X0.325000X0.650000X-0.325000X0.650000X0*%
%ADD58RoundRect,0.237500X-0.250000X-0.237500X0.250000X-0.237500X0.250000X0.237500X-0.250000X0.237500X0*%
%ADD59O,0.280000X1.715000*%
%ADD60R,5.825000X3.235000*%
%ADD61R,1.905000X2.000000*%
%ADD62O,1.905000X2.000000*%
%ADD63R,1.700000X1.700000*%
%ADD64O,1.700000X1.700000*%
G04 APERTURE END LIST*
%TO.C,JP1*%
G36*
X117100000Y-83750000D02*
G01*
X117400000Y-83750000D01*
X117400000Y-85250000D01*
X117100000Y-85250000D01*
X117100000Y-83750000D01*
G37*
%TD*%
D10*
%TO.C,C28*%
X121000000Y-62975000D03*
X121000000Y-64525000D03*
%TD*%
D11*
%TO.C,R19*%
X66925000Y-69500000D03*
X68575000Y-69500000D03*
%TD*%
D12*
%TO.C,C33*%
X73025000Y-62250000D03*
X71475000Y-62250000D03*
%TD*%
D13*
%TO.C,C13*%
X111725000Y-66000000D03*
X113275000Y-66000000D03*
%TD*%
D14*
%TO.C,R65*%
X112000000Y-61075000D03*
X112000000Y-59425000D03*
%TD*%
%TO.C,R70*%
X57750000Y-48075000D03*
X57750000Y-46425000D03*
%TD*%
D15*
%TO.C,R40*%
X77575000Y-52750000D03*
X75925000Y-52750000D03*
%TD*%
D11*
%TO.C,R22*%
X66925000Y-74250000D03*
X68575000Y-74250000D03*
%TD*%
D13*
%TO.C,C7*%
X108975000Y-59250000D03*
X110525000Y-59250000D03*
%TD*%
D16*
%TO.C,CAN1*%
X79250000Y-78100000D03*
D17*
X81750000Y-78100000D03*
%TD*%
D18*
%TO.C,Q9*%
X130450000Y-30212500D03*
X128550000Y-30212500D03*
X129500000Y-32087500D03*
%TD*%
D11*
%TO.C,R80*%
X55175000Y-29500000D03*
X56825000Y-29500000D03*
%TD*%
D10*
%TO.C,C17*%
X128500000Y-61975000D03*
X128500000Y-63525000D03*
%TD*%
%TO.C,C19*%
X82000000Y-73975000D03*
X82000000Y-75525000D03*
%TD*%
D19*
%TO.C,U1*%
X115155000Y-79649999D03*
X115155000Y-79000000D03*
X115155000Y-78350001D03*
X113250000Y-78350001D03*
X113250000Y-79000000D03*
X113250000Y-79649999D03*
%TD*%
D11*
%TO.C,R71*%
X62175000Y-46500000D03*
X63825000Y-46500000D03*
%TD*%
D12*
%TO.C,C53*%
X93000000Y-55000000D03*
X91450000Y-55000000D03*
%TD*%
D20*
%TO.C,C3*%
X119000000Y-71275000D03*
X119000000Y-69725000D03*
%TD*%
D11*
%TO.C,R11*%
X114425000Y-60250000D03*
X116075000Y-60250000D03*
%TD*%
D14*
%TO.C,R35*%
X102000000Y-48325000D03*
X102000000Y-46675000D03*
%TD*%
D15*
%TO.C,R32*%
X83075000Y-50000000D03*
X81425000Y-50000000D03*
%TD*%
D21*
%TO.C,U10*%
X63250000Y-36750000D03*
X57250000Y-36750000D03*
%TD*%
D15*
%TO.C,R34*%
X102075000Y-49750000D03*
X100425000Y-49750000D03*
%TD*%
D22*
%TO.C,OCW1*%
X71937500Y-76500000D03*
X70062500Y-76500000D03*
%TD*%
D23*
%TO.C,C51*%
X98500000Y-36800000D03*
X98500000Y-31700000D03*
%TD*%
D10*
%TO.C,C9*%
X96500000Y-71225000D03*
X96500000Y-72775000D03*
%TD*%
D15*
%TO.C,R42*%
X73825000Y-56500000D03*
X72175000Y-56500000D03*
%TD*%
D10*
%TO.C,C20*%
X70000000Y-68475000D03*
X70000000Y-70025000D03*
%TD*%
D24*
%TO.C,C41*%
X56575000Y-67750000D03*
X53625000Y-67750000D03*
%TD*%
D10*
%TO.C,C52*%
X92250000Y-42975000D03*
X92250000Y-44525000D03*
%TD*%
D25*
%TO.C,D6*%
X68000000Y-28750000D03*
X68000000Y-24750000D03*
%TD*%
D11*
%TO.C,R21*%
X69925000Y-71500000D03*
X71575000Y-71500000D03*
%TD*%
%TO.C,R48*%
X90675000Y-41350000D03*
X92325000Y-41350000D03*
%TD*%
D20*
%TO.C,C2*%
X113000000Y-76775000D03*
X113000000Y-75225000D03*
%TD*%
D16*
%TO.C,J1*%
X96750000Y-78250000D03*
D17*
X99250000Y-78250000D03*
X101750000Y-78250000D03*
X104250000Y-78250000D03*
X106750000Y-78250000D03*
X109250000Y-78250000D03*
%TD*%
D22*
%TO.C,5V1*%
X71937500Y-74250000D03*
X70062500Y-74250000D03*
%TD*%
D25*
%TO.C,D4*%
X68250000Y-62750000D03*
X68250000Y-58750000D03*
%TD*%
D11*
%TO.C,R58*%
X111475000Y-39950000D03*
X113125000Y-39950000D03*
%TD*%
D22*
%TO.C,D5*%
X60687500Y-49750000D03*
X58812500Y-49750000D03*
%TD*%
D13*
%TO.C,C36*%
X83725000Y-59500000D03*
X85275000Y-59500000D03*
%TD*%
D15*
%TO.C,R85*%
X130325000Y-28400000D03*
X128675000Y-28400000D03*
%TD*%
D26*
%TO.C,C45*%
X62025000Y-80000000D03*
X64975000Y-80000000D03*
%TD*%
D27*
%TO.C,R66*%
X107000000Y-32115000D03*
X107000000Y-36385000D03*
%TD*%
D14*
%TO.C,R82*%
X51000000Y-28325000D03*
X51000000Y-26675000D03*
%TD*%
%TO.C,R18*%
X73750000Y-75575000D03*
X73750000Y-73925000D03*
%TD*%
D13*
%TO.C,C26*%
X87725000Y-71500000D03*
X89275000Y-71500000D03*
%TD*%
D18*
%TO.C,Q7*%
X64200000Y-48312500D03*
X62300000Y-48312500D03*
X63250000Y-50187500D03*
%TD*%
D11*
%TO.C,R17*%
X125425000Y-56925000D03*
X127075000Y-56925000D03*
%TD*%
D28*
%TO.C,R77*%
X64250000Y-24048300D03*
X64250000Y-29851700D03*
%TD*%
D29*
%TO.C,U11*%
X64896000Y-54050000D03*
X64896000Y-53400000D03*
X64896000Y-52750000D03*
X64896000Y-52100000D03*
X60604000Y-52100000D03*
X60604000Y-52750000D03*
X60604000Y-53400000D03*
X60604000Y-54050000D03*
D30*
X62750000Y-53075000D03*
%TD*%
D31*
%TO.C,C59*%
X119300000Y-46500000D03*
X121200000Y-46500000D03*
%TD*%
D15*
%TO.C,R62*%
X112075000Y-56500000D03*
X110425000Y-56500000D03*
%TD*%
D32*
%TO.C,C38*%
X56575000Y-61550000D03*
X53625000Y-61550000D03*
%TD*%
D10*
%TO.C,C31*%
X67250000Y-34725000D03*
X67250000Y-36275000D03*
%TD*%
D33*
%TO.C,R43*%
X71750000Y-42925000D03*
X71750000Y-44575000D03*
%TD*%
D10*
%TO.C,C23*%
X71500000Y-68475000D03*
X71500000Y-70025000D03*
%TD*%
D15*
%TO.C,R46*%
X84825000Y-41250000D03*
X83175000Y-41250000D03*
%TD*%
D14*
%TO.C,R1*%
X53750000Y-31075000D03*
X53750000Y-29425000D03*
%TD*%
D12*
%TO.C,C22*%
X92275000Y-71500000D03*
X90725000Y-71500000D03*
%TD*%
D34*
%TO.C,U12*%
X58224150Y-27655000D03*
X58224150Y-26385000D03*
X58224150Y-25115000D03*
X58224150Y-23845000D03*
X52775850Y-23845000D03*
X52775850Y-25115000D03*
X52775850Y-26385000D03*
X52775850Y-27655000D03*
%TD*%
D27*
%TO.C,R54*%
X89500000Y-32115000D03*
X89500000Y-36385000D03*
%TD*%
D33*
%TO.C,R53*%
X90750000Y-42925000D03*
X90750000Y-44575000D03*
%TD*%
D35*
%TO.C,U8*%
X59800000Y-71850000D03*
X57500000Y-71850000D03*
D36*
X57500000Y-78150000D03*
D35*
X55200000Y-71850000D03*
%TD*%
D33*
%TO.C,TH1*%
X109000000Y-60675000D03*
X109000000Y-62325000D03*
%TD*%
D15*
%TO.C,R68*%
X122575000Y-44750000D03*
X120925000Y-44750000D03*
%TD*%
D11*
%TO.C,R8*%
X126675000Y-71750000D03*
X128325000Y-71750000D03*
%TD*%
D13*
%TO.C,C14*%
X111725000Y-64500000D03*
X113275000Y-64500000D03*
%TD*%
D15*
%TO.C,R47*%
X84825000Y-42750000D03*
X83175000Y-42750000D03*
%TD*%
D37*
%TO.C,JP1*%
X116600000Y-84500000D03*
D38*
X117900000Y-84500000D03*
%TD*%
D39*
%TO.C,X1*%
X116250000Y-66450000D03*
X116250000Y-70550000D03*
%TD*%
D11*
%TO.C,R37*%
X120925000Y-48350000D03*
X122575000Y-48350000D03*
%TD*%
D24*
%TO.C,C40*%
X56575000Y-64550000D03*
X53625000Y-64550000D03*
%TD*%
D27*
%TO.C,R44*%
X74500000Y-32115000D03*
X74500000Y-36385000D03*
%TD*%
D21*
%TO.C,U7*%
X65000000Y-62750000D03*
X59000000Y-62750000D03*
%TD*%
D15*
%TO.C,R79*%
X61575000Y-25000000D03*
X59925000Y-25000000D03*
%TD*%
D26*
%TO.C,C42*%
X59425000Y-67950000D03*
X62375000Y-67950000D03*
%TD*%
D20*
%TO.C,C5*%
X100750000Y-60525000D03*
X100750000Y-58975000D03*
%TD*%
D13*
%TO.C,C34*%
X77475000Y-60000000D03*
X79025000Y-60000000D03*
%TD*%
D40*
%TO.C,USB1*%
X129992500Y-73800000D03*
X129992500Y-73150000D03*
X129992500Y-72500000D03*
X129992500Y-71850000D03*
X129992500Y-71200000D03*
D41*
X133092500Y-75950000D03*
D42*
X130642500Y-75650000D03*
X130642500Y-69350000D03*
D41*
X133092500Y-69050000D03*
%TD*%
D13*
%TO.C,C39*%
X66975000Y-72750000D03*
X68525000Y-72750000D03*
%TD*%
D43*
%TO.C,SERVO_CNT1*%
X50312500Y-31500000D03*
X52187500Y-31500000D03*
%TD*%
D44*
%TO.C,H7*%
X73875000Y-48000000D03*
X74643845Y-46143845D03*
X74643845Y-49856155D03*
X76500000Y-45375000D03*
D45*
X76500000Y-48000000D03*
D44*
X76500000Y-50625000D03*
X78356155Y-46143845D03*
X78356155Y-49856155D03*
X79125000Y-48000000D03*
%TD*%
D14*
%TO.C,R24*%
X75500000Y-78825000D03*
X75500000Y-77175000D03*
%TD*%
%TO.C,R73*%
X64000000Y-45075000D03*
X64000000Y-43425000D03*
%TD*%
D22*
%TO.C,D1*%
X119437500Y-60250000D03*
X117562500Y-60250000D03*
%TD*%
D15*
%TO.C,R30*%
X126825000Y-66000000D03*
X125175000Y-66000000D03*
%TD*%
%TO.C,R87*%
X133825000Y-28400000D03*
X132175000Y-28400000D03*
%TD*%
D10*
%TO.C,C32*%
X86250000Y-34225000D03*
X86250000Y-35775000D03*
%TD*%
D46*
%TO.C,U5*%
X126655000Y-58775850D03*
X125385000Y-58775850D03*
X124115000Y-58775850D03*
X122845000Y-58775850D03*
X122845000Y-64224150D03*
X124115000Y-64224150D03*
X125385000Y-64224150D03*
X126655000Y-64224150D03*
%TD*%
D10*
%TO.C,C12*%
X109000000Y-74475000D03*
X109000000Y-76025000D03*
%TD*%
D11*
%TO.C,R28*%
X89425000Y-68500000D03*
X91075000Y-68500000D03*
%TD*%
D27*
%TO.C,R55*%
X93500000Y-32115000D03*
X93500000Y-36385000D03*
%TD*%
D47*
%TO.C,U4*%
X125475000Y-85155000D03*
X125475000Y-83885000D03*
X125475000Y-82615000D03*
X125475000Y-81345000D03*
X120525000Y-81345000D03*
X120525000Y-82615000D03*
X120525000Y-83885000D03*
X120525000Y-85155000D03*
%TD*%
D18*
%TO.C,Q13*%
X126950000Y-30212500D03*
X125050000Y-30212500D03*
X126000000Y-32087500D03*
%TD*%
D24*
%TO.C,C37*%
X75475000Y-59500000D03*
X72525000Y-59500000D03*
%TD*%
D11*
%TO.C,R12*%
X114425000Y-61750000D03*
X116075000Y-61750000D03*
%TD*%
D20*
%TO.C,C58*%
X110500000Y-62275000D03*
X110500000Y-60725000D03*
%TD*%
D33*
%TO.C,R14*%
X125500000Y-53850000D03*
X125500000Y-55500000D03*
%TD*%
D27*
%TO.C,R45*%
X70500000Y-32115000D03*
X70500000Y-36385000D03*
%TD*%
D18*
%TO.C,Q11*%
X133950000Y-30212500D03*
X132050000Y-30212500D03*
X133000000Y-32087500D03*
%TD*%
D12*
%TO.C,C21*%
X91025000Y-70000000D03*
X89475000Y-70000000D03*
%TD*%
D22*
%TO.C,D2*%
X119437500Y-63000000D03*
X117562500Y-63000000D03*
%TD*%
D10*
%TO.C,C61*%
X64750000Y-40475000D03*
X64750000Y-42025000D03*
%TD*%
D15*
%TO.C,R52*%
X93050000Y-56500000D03*
X91400000Y-56500000D03*
%TD*%
D11*
%TO.C,R74*%
X59175000Y-48000000D03*
X60825000Y-48000000D03*
%TD*%
D15*
%TO.C,R60*%
X115825000Y-52750000D03*
X114175000Y-52750000D03*
%TD*%
D12*
%TO.C,C48*%
X73750000Y-55000000D03*
X72200000Y-55000000D03*
%TD*%
D20*
%TO.C,C10*%
X99250000Y-60525000D03*
X99250000Y-58975000D03*
%TD*%
D15*
%TO.C,R89*%
X126825000Y-28400000D03*
X125175000Y-28400000D03*
%TD*%
D48*
%TO.C,U9*%
X57025000Y-41095000D03*
X57025000Y-42365000D03*
X57025000Y-43635000D03*
X57025000Y-44905000D03*
X61975000Y-44905000D03*
X61975000Y-43635000D03*
X61975000Y-42365000D03*
X61975000Y-41095000D03*
D49*
X59500000Y-43000000D03*
%TD*%
D11*
%TO.C,R49*%
X92475000Y-39750000D03*
X94125000Y-39750000D03*
%TD*%
%TO.C,R38*%
X73675000Y-39750000D03*
X75325000Y-39750000D03*
%TD*%
D26*
%TO.C,C44*%
X62025000Y-76750000D03*
X64975000Y-76750000D03*
%TD*%
D10*
%TO.C,C11*%
X96500000Y-74225000D03*
X96500000Y-75775000D03*
%TD*%
D15*
%TO.C,R50*%
X96825000Y-52750000D03*
X95175000Y-52750000D03*
%TD*%
D50*
%TO.C,C64*%
X54250000Y-36225000D03*
X54250000Y-33275000D03*
%TD*%
D15*
%TO.C,R67*%
X122575000Y-43250000D03*
X120925000Y-43250000D03*
%TD*%
D51*
%TO.C,R_can_termination1*%
X116337500Y-82250000D03*
X118162500Y-82250000D03*
%TD*%
D52*
%TO.C,U3*%
X109675000Y-72000000D03*
X109675000Y-71500000D03*
X109675000Y-71000000D03*
X109675000Y-70500000D03*
X109675000Y-70000000D03*
X109675000Y-69500000D03*
X109675000Y-69000000D03*
X109675000Y-68500000D03*
X109675000Y-68000000D03*
X109675000Y-67500000D03*
X109675000Y-67000000D03*
X109675000Y-66500000D03*
X109675000Y-66000000D03*
X109675000Y-65500000D03*
X109675000Y-65000000D03*
X109675000Y-64500000D03*
D53*
X107750000Y-62575000D03*
X107250000Y-62575000D03*
X106750000Y-62575000D03*
X106250000Y-62575000D03*
X105750000Y-62575000D03*
X105250000Y-62575000D03*
X104750000Y-62575000D03*
X104250000Y-62575000D03*
X103750000Y-62575000D03*
X103250000Y-62575000D03*
X102750000Y-62575000D03*
X102250000Y-62575000D03*
X101750000Y-62575000D03*
X101250000Y-62575000D03*
X100750000Y-62575000D03*
X100250000Y-62575000D03*
D52*
X98325000Y-64500000D03*
X98325000Y-65000000D03*
X98325000Y-65500000D03*
X98325000Y-66000000D03*
X98325000Y-66500000D03*
X98325000Y-67000000D03*
X98325000Y-67500000D03*
X98325000Y-68000000D03*
X98325000Y-68500000D03*
X98325000Y-69000000D03*
X98325000Y-69500000D03*
X98325000Y-70000000D03*
X98325000Y-70500000D03*
X98325000Y-71000000D03*
X98325000Y-71500000D03*
X98325000Y-72000000D03*
D53*
X100250000Y-73925000D03*
X100750000Y-73925000D03*
X101250000Y-73925000D03*
X101750000Y-73925000D03*
X102250000Y-73925000D03*
X102750000Y-73925000D03*
X103250000Y-73925000D03*
X103750000Y-73925000D03*
X104250000Y-73925000D03*
X104750000Y-73925000D03*
X105250000Y-73925000D03*
X105750000Y-73925000D03*
X106250000Y-73925000D03*
X106750000Y-73925000D03*
X107250000Y-73925000D03*
X107750000Y-73925000D03*
%TD*%
D10*
%TO.C,C15*%
X127500000Y-82575000D03*
X127500000Y-84125000D03*
%TD*%
D11*
%TO.C,R88*%
X126675000Y-40718750D03*
X128325000Y-40718750D03*
%TD*%
D54*
%TO.C,C29*%
X90250000Y-62000000D03*
X90250000Y-64950000D03*
%TD*%
D55*
%TO.C,U2*%
X115900000Y-92350000D03*
X115900000Y-93350000D03*
X115900000Y-94350000D03*
X115900000Y-95350000D03*
X115900000Y-90350000D03*
X115900000Y-91350000D03*
%TD*%
D10*
%TO.C,C18*%
X80000000Y-73975000D03*
X80000000Y-75525000D03*
%TD*%
D11*
%TO.C,R2*%
X92925000Y-62000000D03*
X94575000Y-62000000D03*
%TD*%
D56*
%TO.C,Q10*%
X133100000Y-38906250D03*
X135000000Y-38906250D03*
X134050000Y-37031250D03*
%TD*%
D26*
%TO.C,C46*%
X62025000Y-83250000D03*
X64975000Y-83250000D03*
%TD*%
D57*
%TO.C,C43*%
X62025000Y-74000000D03*
X64975000Y-74000000D03*
%TD*%
D14*
%TO.C,R72*%
X55000000Y-46575000D03*
X55000000Y-44925000D03*
%TD*%
D23*
%TO.C,C54*%
X117500000Y-36800000D03*
X117500000Y-31700000D03*
%TD*%
D15*
%TO.C,R81*%
X60075000Y-29500000D03*
X58425000Y-29500000D03*
%TD*%
D56*
%TO.C,Q12*%
X126100000Y-38906250D03*
X128000000Y-38906250D03*
X127050000Y-37031250D03*
%TD*%
D33*
%TO.C,R15*%
X124000000Y-55350000D03*
X124000000Y-57000000D03*
%TD*%
D44*
%TO.C,H6*%
X84625000Y-26500000D03*
X85393845Y-24643845D03*
X85393845Y-28356155D03*
X87250000Y-23875000D03*
D45*
X87250000Y-26500000D03*
D44*
X87250000Y-29125000D03*
X89106155Y-24643845D03*
X89106155Y-28356155D03*
X89875000Y-26500000D03*
%TD*%
D22*
%TO.C,D3*%
X73187500Y-82000000D03*
X71312500Y-82000000D03*
%TD*%
D33*
%TO.C,R6*%
X116000000Y-75175000D03*
X116000000Y-76825000D03*
%TD*%
%TO.C,R63*%
X109750000Y-42925000D03*
X109750000Y-44575000D03*
%TD*%
D44*
%TO.C,H5*%
X103625000Y-26500000D03*
X104393845Y-24643845D03*
X104393845Y-28356155D03*
X106250000Y-23875000D03*
D45*
X106250000Y-26500000D03*
D44*
X106250000Y-29125000D03*
X108106155Y-24643845D03*
X108106155Y-28356155D03*
X108875000Y-26500000D03*
%TD*%
D20*
%TO.C,C16*%
X113750000Y-35025000D03*
X113750000Y-33475000D03*
%TD*%
D12*
%TO.C,C57*%
X112000000Y-55000000D03*
X110450000Y-55000000D03*
%TD*%
D11*
%TO.C,R23*%
X66925000Y-76500000D03*
X68575000Y-76500000D03*
%TD*%
D10*
%TO.C,C65*%
X58750000Y-52475000D03*
X58750000Y-54025000D03*
%TD*%
D15*
%TO.C,R31*%
X123825000Y-66000000D03*
X122175000Y-66000000D03*
%TD*%
D10*
%TO.C,C6*%
X119000000Y-65975000D03*
X119000000Y-67525000D03*
%TD*%
D44*
%TO.C,H9*%
X111875000Y-48000000D03*
X112643845Y-46143845D03*
X112643845Y-49856155D03*
X114500000Y-45375000D03*
D45*
X114500000Y-48000000D03*
D44*
X114500000Y-50625000D03*
X116356155Y-46143845D03*
X116356155Y-49856155D03*
X117125000Y-48000000D03*
%TD*%
D12*
%TO.C,C25*%
X81775000Y-72500000D03*
X80225000Y-72500000D03*
%TD*%
D14*
%TO.C,R16*%
X128500000Y-60575000D03*
X128500000Y-58925000D03*
%TD*%
D10*
%TO.C,C27*%
X128500000Y-64975000D03*
X128500000Y-66525000D03*
%TD*%
D13*
%TO.C,C8*%
X111725000Y-68750000D03*
X113275000Y-68750000D03*
%TD*%
%TO.C,C4*%
X111725000Y-72000000D03*
X113275000Y-72000000D03*
%TD*%
D11*
%TO.C,R76*%
X59175000Y-46500000D03*
X60825000Y-46500000D03*
%TD*%
D56*
%TO.C,Q8*%
X129600000Y-38906250D03*
X131500000Y-38906250D03*
X130550000Y-37031250D03*
%TD*%
D15*
%TO.C,R61*%
X115825000Y-54500000D03*
X114175000Y-54500000D03*
%TD*%
D44*
%TO.C,H8*%
X92875000Y-48000000D03*
X93643845Y-46143845D03*
X93643845Y-49856155D03*
X95500000Y-45375000D03*
D45*
X95500000Y-48000000D03*
D44*
X95500000Y-50625000D03*
X97356155Y-46143845D03*
X97356155Y-49856155D03*
X98125000Y-48000000D03*
%TD*%
D58*
%TO.C,R10*%
X115987500Y-88950000D03*
X117812500Y-88950000D03*
%TD*%
D59*
%TO.C,U6*%
X74505900Y-69638600D03*
X75005900Y-69638600D03*
X75505900Y-69638600D03*
X76005900Y-69638600D03*
X76505900Y-69638600D03*
X77005900Y-69638600D03*
X77505900Y-69638600D03*
X78005900Y-69638600D03*
X78505900Y-69638600D03*
X79005900Y-69638600D03*
X79505900Y-69638600D03*
X80005900Y-69638600D03*
X80505900Y-69638600D03*
X81005900Y-69638600D03*
X81505900Y-69638600D03*
X82005900Y-69638600D03*
X82505900Y-69638600D03*
X83005900Y-69638600D03*
X83505900Y-69638600D03*
X84005900Y-69638600D03*
X84505900Y-69638600D03*
X85005900Y-69638600D03*
X85505900Y-69638600D03*
X86005900Y-69638600D03*
X86505900Y-69638600D03*
X87005900Y-69638600D03*
X87505900Y-69638600D03*
X88005900Y-69638600D03*
X88005900Y-62223600D03*
X87505900Y-62223600D03*
X87005900Y-62223600D03*
X86505900Y-62223600D03*
X86005900Y-62223600D03*
X85505900Y-62223600D03*
X85005900Y-62223600D03*
X84505900Y-62223600D03*
X84005900Y-62223600D03*
X83505900Y-62223600D03*
X83005900Y-62223600D03*
X82505900Y-62223600D03*
X82005900Y-62223600D03*
X81505900Y-62223600D03*
X81005900Y-62223600D03*
X80505900Y-62223600D03*
X80005900Y-62223600D03*
X79505900Y-62223600D03*
X79005900Y-62223600D03*
X78505900Y-62223600D03*
X78005900Y-62223600D03*
X77505900Y-62223600D03*
X77005900Y-62223600D03*
X76505900Y-62223600D03*
X76005900Y-62223600D03*
X75505900Y-62223600D03*
X75005900Y-62223600D03*
X74505900Y-62223600D03*
D60*
X81255900Y-65931100D03*
%TD*%
D15*
%TO.C,R36*%
X121075000Y-49950000D03*
X119425000Y-49950000D03*
%TD*%
D11*
%TO.C,R86*%
X133225000Y-40718750D03*
X134875000Y-40718750D03*
%TD*%
D16*
%TO.C,CAN2*%
X88000000Y-78100000D03*
D17*
X90500000Y-78100000D03*
%TD*%
D15*
%TO.C,R4*%
X94575000Y-63750000D03*
X92925000Y-63750000D03*
%TD*%
D14*
%TO.C,R69*%
X55000000Y-43575000D03*
X55000000Y-41925000D03*
%TD*%
D13*
%TO.C,C35*%
X80725000Y-57000000D03*
X82275000Y-57000000D03*
%TD*%
D15*
%TO.C,R78*%
X61575000Y-28000000D03*
X59925000Y-28000000D03*
%TD*%
D31*
%TO.C,C55*%
X100300000Y-45000000D03*
X102200000Y-45000000D03*
%TD*%
D11*
%TO.C,R84*%
X129725000Y-40718750D03*
X131375000Y-40718750D03*
%TD*%
D12*
%TO.C,C66*%
X61525000Y-26500000D03*
X59975000Y-26500000D03*
%TD*%
D24*
%TO.C,C63*%
X51725000Y-38750000D03*
X48775000Y-38750000D03*
%TD*%
D15*
%TO.C,R57*%
X103575000Y-42750000D03*
X101925000Y-42750000D03*
%TD*%
D11*
%TO.C,R59*%
X109675000Y-41500000D03*
X111325000Y-41500000D03*
%TD*%
%TO.C,R7*%
X126675000Y-73250000D03*
X128325000Y-73250000D03*
%TD*%
%TO.C,R27*%
X89425000Y-67000000D03*
X91075000Y-67000000D03*
%TD*%
D14*
%TO.C,R26*%
X75500000Y-75575000D03*
X75500000Y-73925000D03*
%TD*%
D27*
%TO.C,R64*%
X111000000Y-32115000D03*
X111000000Y-36385000D03*
%TD*%
D14*
%TO.C,R33*%
X83000000Y-48325000D03*
X83000000Y-46675000D03*
%TD*%
D33*
%TO.C,R29*%
X73000000Y-68425000D03*
X73000000Y-70075000D03*
%TD*%
%TO.C,R9*%
X114500000Y-75175000D03*
X114500000Y-76825000D03*
%TD*%
D12*
%TO.C,C67*%
X52275000Y-29750000D03*
X50725000Y-29750000D03*
%TD*%
D10*
%TO.C,C47*%
X73250000Y-42975000D03*
X73250000Y-44525000D03*
%TD*%
D33*
%TO.C,R5*%
X117500000Y-75175000D03*
X117500000Y-76825000D03*
%TD*%
%TO.C,R83*%
X48750000Y-30925000D03*
X48750000Y-32575000D03*
%TD*%
D15*
%TO.C,R56*%
X103575000Y-41250000D03*
X101925000Y-41250000D03*
%TD*%
D33*
%TO.C,R3*%
X119500000Y-75175000D03*
X119500000Y-76825000D03*
%TD*%
D11*
%TO.C,R39*%
X71675000Y-41350000D03*
X73325000Y-41350000D03*
%TD*%
D31*
%TO.C,C49*%
X81300000Y-45000000D03*
X83200000Y-45000000D03*
%TD*%
D24*
%TO.C,C62*%
X51725000Y-35500000D03*
X48775000Y-35500000D03*
%TD*%
D23*
%TO.C,C50*%
X79500000Y-36800000D03*
X79500000Y-31700000D03*
%TD*%
D15*
%TO.C,R41*%
X77575000Y-54250000D03*
X75925000Y-54250000D03*
%TD*%
D33*
%TO.C,R25*%
X121000000Y-59925000D03*
X121000000Y-61575000D03*
%TD*%
D12*
%TO.C,C1*%
X94475000Y-65350000D03*
X92925000Y-65350000D03*
%TD*%
D11*
%TO.C,R13*%
X67925000Y-82000000D03*
X69575000Y-82000000D03*
%TD*%
D10*
%TO.C,C56*%
X111250000Y-42975000D03*
X111250000Y-44525000D03*
%TD*%
D20*
%TO.C,C30*%
X70750000Y-60525000D03*
X70750000Y-58975000D03*
%TD*%
D54*
%TO.C,C60*%
X52500000Y-42025000D03*
X52500000Y-44975000D03*
%TD*%
D14*
%TO.C,R75*%
X55000000Y-40500000D03*
X55000000Y-38850000D03*
%TD*%
D15*
%TO.C,R51*%
X96825000Y-54500000D03*
X95175000Y-54500000D03*
%TD*%
%TO.C,R20*%
X68575000Y-71250000D03*
X66925000Y-71250000D03*
%TD*%
D20*
%TO.C,C24*%
X86250000Y-73025000D03*
X86250000Y-71475000D03*
%TD*%
D61*
%TO.C,Q2*%
X74290000Y-53250000D03*
D62*
X71750000Y-53250000D03*
X69210000Y-53250000D03*
%TD*%
D16*
%TO.C,M1*%
X57750000Y-32150000D03*
D17*
X60250000Y-32150000D03*
X62750000Y-32150000D03*
%TD*%
D63*
%TO.C,J2*%
X69225000Y-88750000D03*
D64*
X71765000Y-88750000D03*
%TD*%
D61*
%TO.C,Q1*%
X75210000Y-42480000D03*
D62*
X77750000Y-42480000D03*
X80290000Y-42480000D03*
%TD*%
D61*
%TO.C,Q5*%
X113210000Y-42500000D03*
D62*
X115750000Y-42500000D03*
X118290000Y-42500000D03*
%TD*%
D16*
%TO.C,RGBLED1*%
X124500000Y-34650000D03*
D17*
X127000000Y-34650000D03*
X129500000Y-34650000D03*
X132000000Y-34650000D03*
%TD*%
D61*
%TO.C,Q3*%
X94210000Y-42480000D03*
D62*
X96750000Y-42480000D03*
X99290000Y-42480000D03*
%TD*%
D63*
%TO.C,J3*%
X124750000Y-78000000D03*
D64*
X124750000Y-75460000D03*
X124750000Y-72920000D03*
X124750000Y-70380000D03*
X124750000Y-67840000D03*
%TD*%
D61*
%TO.C,Q4*%
X93290000Y-53250000D03*
D62*
X90750000Y-53250000D03*
X88210000Y-53250000D03*
%TD*%
D61*
%TO.C,Q6*%
X112290000Y-53250000D03*
D62*
X109750000Y-53250000D03*
X107210000Y-53250000D03*
%TD*%
M02*
