M48
; DRILL file {KiCad 9.0.0} date 2025-07-24T13:06:19+0900
; FORMAT={-:-/ absolute / inch / decimal}
; #@! TF.CreationDate,2025-07-24T13:06:19+09:00
; #@! TF.GenerationSoftware,Kicad,Pcbnew,9.0.0
; #@! TF.FileFunction,Plated,1,2,PTH
FMAT,2
INCH
; #@! TA.AperFunction,Plated,PTH,ComponentDrill
T1C0.0079
; #@! TA.AperFunction,Plated,PTH,ViaDrill
T2C0.0118
; #@! TA.AperFunction,Plated,PTH,ViaDrill
T3C0.0197
; #@! TA.AperFunction,Plated,PTH,ComponentDrill
T4C0.0197
; #@! TA.AperFunction,Plated,PTH,ComponentDrill
T5C0.0374
; #@! TA.AperFunction,Plated,PTH,ComponentDrill
T6C0.0394
; #@! TA.AperFunction,Plated,PTH,ComponentDrill
T7C0.0433
; #@! TA.AperFunction,Plated,PTH,ComponentDrill
T8C0.1378
%
G90
G05
T1
X7.2953Y-2.876
X7.2953Y-2.9232
X7.2953Y-2.9705
X7.3504Y-2.876
X7.3504Y-2.9232
X7.3504Y-2.9705
T2
X6.7126Y-3.061
X6.8504Y-2.5984
X6.8504Y-2.6378
X6.8504Y-2.6772
X6.8504Y-2.7165
X6.8504Y-2.7559
X6.8504Y-2.7953
X6.939Y-2.5984
X6.939Y-2.6378
X6.939Y-2.6772
X6.939Y-2.7165
X6.939Y-2.7559
X6.939Y-2.7953
X6.939Y-2.874
X6.9587Y-3.0512
X7.0079Y-2.8346
X7.0177Y-2.9528
X7.0374Y-2.8346
X7.0374Y-4.0157
X7.0374Y-4.2126
X7.0374Y-4.4094
X7.0472Y-3.6319
X7.0472Y-3.6713
X7.0472Y-3.7303
X7.0472Y-3.7697
X7.0472Y-3.8091
X7.0472Y-3.8583
X7.0472Y-3.8976
X7.0472Y-3.937
X7.0571Y-2.3524
X7.0571Y-2.9528
X7.0581Y-2.3191
X7.0669Y-2.8346
X7.0965Y-2.8346
X7.0965Y-2.9528
X7.1063Y-2.5838
X7.1063Y-2.6083
X7.1358Y-3.6319
X7.1358Y-3.6713
X7.1358Y-3.7303
X7.1358Y-3.7697
X7.1358Y-3.8091
X7.1358Y-3.8583
X7.1358Y-3.8976
X7.1358Y-3.937
X7.1555Y-4.5768
X7.1752Y-2.7941
X7.185Y-4.1142
X7.185Y-4.2126
X7.185Y-4.3504
X7.185Y-4.3996
X7.2047Y-2.5492
X7.2047Y-2.8177
X7.2638Y-4.3504
X7.2835Y-2.8248
X7.2867Y-4.5046
X7.2933Y-4.2126
X7.2933Y-4.7146
X7.3238Y-3.2602
X7.3281Y-3.3343
X7.3327Y-4.3504
X7.3386Y-3.9843
X7.3435Y-3.1201
X7.3701Y-4.1339
X7.372Y-4.1732
X7.372Y-4.2126
X7.372Y-4.252
X7.372Y-4.2913
X7.372Y-4.3406
X7.372Y-4.3799
X7.372Y-4.4193
X7.372Y-4.4685
X7.372Y-4.5079
X7.372Y-4.5472
X7.4022Y-3.0222
X7.4026Y-2.3031
X7.4311Y-3.6417
X7.4311Y-3.7598
X7.4705Y-2.8051
X7.5197Y-3.4055
X7.5295Y-3.2185
X7.5394Y-2.9331
X7.5394Y-3.002
X7.5591Y-4.9311
X7.5787Y-4.0354
X7.5984Y-2.7756
X7.6083Y-3.8189
X7.6083Y-3.9075
X7.6156Y-4.4587
X7.6575Y-3.4744
X7.6575Y-3.8189
X7.6575Y-3.9075
X7.7067Y-3.8189
X7.7067Y-3.9075
X7.7144Y-3.4077
X7.7368Y-3.4297
X7.7953Y-3.8189
X7.7953Y-3.878
X7.8051Y-2.7953
X7.8543Y-3.7894
X7.8543Y-3.878
X7.8839Y-4.2421
X7.8937Y-4.1142
X7.9035Y-4.3406
X7.9035Y-4.9213
X7.9035Y-5.1181
X7.9134Y-3.5433
X7.9134Y-3.5728
X7.9134Y-3.6024
X7.9134Y-4.7244
X7.9232Y-3.7894
X7.9232Y-3.8484
X7.9232Y-3.9075
X7.9921Y-3.7894
X7.9921Y-3.8484
X7.9921Y-3.9075
X8.0177Y-4.0722
X8.0198Y-4.1554
X8.022Y-3.7697
X8.0315Y-4.3602
X8.065Y-4.0974
X8.0708Y-3.4833
X8.0807Y-3.7795
X8.0807Y-3.8091
X8.0807Y-3.8386
X8.0807Y-3.8681
X8.0863Y-4.0551
X8.0957Y-3.5554
X8.1043Y-3.4449
X8.1144Y-4.0186
X8.1201Y-3.7795
X8.1201Y-3.8091
X8.1201Y-3.8386
X8.1201Y-3.8681
X8.1496Y-4.3996
X8.1594Y-3.7795
X8.1594Y-3.8091
X8.1594Y-3.8386
X8.1594Y-3.8681
X8.194Y-4.0463
X8.1988Y-3.7795
X8.1988Y-3.8091
X8.1988Y-3.8386
X8.1988Y-3.8681
X8.2246Y-4.0391
X8.2382Y-3.7795
X8.2382Y-3.8091
X8.2382Y-3.8386
X8.2382Y-3.8681
X8.2587Y-4.1527
X8.2776Y-3.7795
X8.2776Y-3.8091
X8.2776Y-3.8386
X8.2776Y-3.8681
X8.2794Y-4.1222
X8.2874Y-3.2874
X8.2972Y-4.1929
X8.3012Y-4.0995
X8.3169Y-3.374
X8.3169Y-3.4941
X8.3207Y-4.0748
X8.3307Y-2.9764
X8.3307Y-3.0
X8.3307Y-3.0236
X8.3309Y-4.0354
X8.3453Y-2.7078
X8.3465Y-3.7894
X8.3465Y-3.8287
X8.3465Y-3.878
X8.3503Y-3.374
X8.3653Y-3.6308
X8.3661Y-3.9173
X8.376Y-2.6772
X8.3858Y-3.7353
X8.4134Y-3.6113
X8.4171Y-3.73
X8.4252Y-3.7992
X8.4252Y-3.8484
X8.4429Y-3.6113
X8.4843Y-3.6417
X8.4843Y-3.8287
X8.5138Y-3.6417
X8.5335Y-3.8287
X8.5433Y-2.815
X8.5433Y-4.1634
X8.5778Y-4.498
X8.5827Y-3.8287
X8.6024Y-3.8681
X8.6073Y-4.1575
X8.6171Y-4.1895
X8.6286Y-4.1102
X8.6319Y-4.5571
X8.685Y-3.9567
X8.7031Y-4.2884
X8.7244Y-4.0748
X8.74Y-3.5481
X8.75Y-3.7008
X8.7894Y-3.8839
X8.8051Y-3.9705
X8.8944Y-3.8483
X8.8976Y-3.6516
X8.9016Y-3.8871
X8.9016Y-4.1436
X8.9035Y-3.937
X8.9787Y-4.1985
X8.9833Y-3.7441
X8.999Y-3.189
X9.0097Y-4.1933
X9.0453Y-2.9528
X9.0453Y-3.0217
X9.0453Y-3.1201
X9.0748Y-4.1929
X9.0881Y-3.8154
X9.0945Y-3.5748
X9.0975Y-2.874
X9.0975Y-2.9035
X9.0975Y-2.9331
X9.1102Y-4.0715
X9.1121Y-3.6299
X9.1172Y-4.3769
X9.1224Y-4.1951
X9.1534Y-3.5993
X9.1634Y-4.439
X9.1673Y-3.7771
X9.1754Y-3.5767
X9.1776Y-4.0015
X9.187Y-4.0871
X9.193Y-3.8524
X9.1966Y-4.0571
X9.2224Y-3.8091
X9.2227Y-4.1833
X9.2327Y-3.8504
X9.2329Y-3.5674
X9.248Y-3.7718
X9.2717Y-3.6841
X9.2913Y-2.8248
X9.3012Y-3.6841
X9.3161Y-4.2658
X9.3406Y-3.6841
X9.3415Y-3.7701
X9.3485Y-4.0275
X9.3504Y-4.0591
X9.3551Y-4.3692
X9.3701Y-3.6713
X9.3701Y-4.3407
X9.3799Y-4.2913
X9.4045Y-3.9372
X9.4291Y-3.6122
X9.4391Y-3.6421
X9.4488Y-3.8878
X9.4587Y-4.0079
X9.4961Y-4.7323
X9.5768Y-3.3169
X9.5768Y-3.3465
X9.6358Y-4.3898
X9.6456Y-4.4194
X9.6654Y-4.626
X9.7475Y-3.2938
X9.7736Y-3.9075
X9.7736Y-4.0827
X9.7736Y-4.1142
X9.7822Y-3.625
X9.7972Y-3.1791
X9.8179Y-2.7953
X9.8327Y-2.874
X9.8406Y-3.3386
X9.8642Y-3.3622
X9.9311Y-4.0551
X9.9422Y-4.1178
X9.9705Y-2.8543
X10.0Y-3.7795
X10.0472Y-4.4813
X10.1339Y-2.8588
T3
X7.0374Y-3.563
X7.2343Y-3.189
X7.2343Y-3.4252
X7.6673Y-2.8543
X7.6673Y-3.0512
X7.6673Y-3.248
X7.6772Y-4.5965
X7.7362Y-3.248
X7.7362Y-4.5965
X7.7461Y-2.8543
X7.7559Y-3.0512
X7.7953Y-4.5965
X8.0315Y-2.6083
X8.0315Y-2.7461
X8.1102Y-2.6083
X8.1102Y-2.7461
X8.1791Y-2.7461
X8.189Y-2.6083
X8.4154Y-2.874
X8.4154Y-3.0709
X8.4154Y-3.2579
X8.4252Y-3.4055
X8.4646Y-3.4055
X8.4744Y-3.2579
X8.4941Y-2.874
X8.4941Y-3.0709
X8.7795Y-2.6083
X8.7795Y-2.7461
X8.8583Y-2.6083
X8.8583Y-2.7461
X8.937Y-2.6083
X8.937Y-2.7461
X9.1227Y-2.5794
X9.1418Y-3.0807
X9.1437Y-3.2579
X9.1634Y-2.8839
X9.1929Y-3.4538
X9.2224Y-3.2579
X9.2421Y-2.8839
X9.2421Y-3.0807
X9.4587Y-2.6575
X9.4736Y-4.1713
X9.5276Y-2.6181
X9.5276Y-2.7461
X9.6063Y-2.6181
X9.6063Y-2.7461
X9.6752Y-2.7461
X9.685Y-2.6181
X9.7343Y-3.4646
X9.7539Y-4.1929
X9.7933Y-2.1555
X9.7933Y-2.4902
X9.7933Y-2.5886
X9.8189Y-4.4646
X9.8819Y-2.9134
X9.8819Y-3.1102
X9.8819Y-3.2874
X10.0197Y-2.1555
X10.0394Y-3.1102
X10.0394Y-3.3071
X10.0394Y-3.4646
X10.0787Y-2.9134
X10.2264Y-2.4114
X10.2362Y-2.1555
X10.2362Y-2.9134
X10.2894Y-2.3622
X10.2894Y-2.4094
X10.2894Y-2.4567
X10.3543Y-2.4114
X10.3543Y-2.7165
X10.3543Y-3.0315
X10.5118Y-2.7165
X10.5906Y-3.0315
T4
X7.8888Y-3.1201
X7.919Y-3.047
X7.919Y-3.1932
X7.9921Y-3.0167
X7.9921Y-3.2234
X8.0652Y-3.047
X8.0652Y-3.1932
X8.0955Y-3.1201
X8.312Y-2.2736
X8.3423Y-2.2005
X8.3423Y-2.3467
X8.4154Y-2.1703
X8.4154Y-2.377
X8.4884Y-2.2005
X8.4884Y-2.3467
X8.5187Y-2.2736
X8.6368Y-3.1201
X8.6671Y-3.047
X8.6671Y-3.1932
X8.7402Y-3.0167
X8.7402Y-3.2234
X8.8132Y-3.047
X8.8132Y-3.1932
X8.8435Y-3.1201
X9.06Y-2.2736
X9.0903Y-2.2005
X9.0903Y-2.3467
X9.1634Y-2.1703
X9.1634Y-2.377
X9.2365Y-2.2005
X9.2365Y-2.3467
X9.2667Y-2.2736
X9.3848Y-3.1201
X9.4151Y-3.047
X9.4151Y-3.1932
X9.4882Y-3.0167
X9.4882Y-3.2234
X9.5613Y-3.047
X9.5613Y-3.1932
X9.5915Y-3.1201
T5
X7.2539Y-2.4961
X7.3524Y-2.4961
X7.4508Y-2.4961
X8.1004Y-4.3051
X8.1988Y-4.3051
X8.4449Y-4.3051
X8.5433Y-4.3051
X8.7894Y-4.311
X8.8878Y-4.311
X8.9862Y-4.311
X9.0846Y-4.311
X9.1831Y-4.311
X9.2815Y-4.311
X9.8819Y-2.5945
X9.9803Y-2.5945
X10.0787Y-2.5945
X10.1772Y-2.5945
T6
X7.7057Y-4.7244
X7.8057Y-4.7244
X9.8917Y-3.9012
X9.8917Y-4.0012
X9.8917Y-4.1012
X9.8917Y-4.2012
X9.8917Y-4.3012
T7
X7.7051Y-3.3268
X7.8051Y-3.3268
X7.9051Y-3.3268
X7.9413Y-2.9028
X8.0413Y-2.9028
X8.1413Y-2.9028
X8.4531Y-3.3268
X8.5531Y-3.3268
X8.6531Y-3.3268
X8.6894Y-2.9028
X8.7894Y-2.9028
X8.8894Y-2.9028
X9.2012Y-3.3268
X9.3012Y-3.3268
X9.4012Y-3.3268
X9.4374Y-2.9035
X9.5374Y-2.9035
X9.6374Y-2.9035
T8
X7.9921Y-3.1201
X8.4154Y-2.2736
X8.7402Y-3.1201
X9.1634Y-2.2736
X9.4882Y-3.1201
M30
