%TF.GenerationSoftware,KiCad,Pcbnew,9.0.0*%
%TF.CreationDate,2025-07-24T21:17:22+09:00*%
%TF.ProjectId,AQUA_VESC,41515541-5f56-4455-9343-2e6b69636164,rev?*%
%TF.SameCoordinates,Original*%
%TF.FileFunction,Copper,L2,Bot*%
%TF.FilePolarity,Positive*%
%FSLAX46Y46*%
G04 Gerber Fmt 4.6, Leading zero omitted, Abs format (unit mm)*
G04 Created by KiCad (PCBNEW 9.0.0) date 2025-07-24 21:17:22*
%MOMM*%
%LPD*%
G01*
G04 APERTURE LIST*
G04 Aperture macros list*
%AMRoundRect*
0 Rectangle with rounded corners*
0 $1 Rounding radius*
0 $2 $3 $4 $5 $6 $7 $8 $9 X,Y pos of 4 corners*
0 Add a 4 corners polygon primitive as box body*
4,1,4,$2,$3,$4,$5,$6,$7,$8,$9,$2,$3,0*
0 Add four circle primitives for the rounded corners*
1,1,$1+$1,$2,$3*
1,1,$1+$1,$4,$5*
1,1,$1+$1,$6,$7*
1,1,$1+$1,$8,$9*
0 Add four rect primitives between the rounded corners*
20,1,$1+$1,$2,$3,$4,$5,0*
20,1,$1+$1,$4,$5,$6,$7,0*
20,1,$1+$1,$6,$7,$8,$9,0*
20,1,$1+$1,$8,$9,$2,$3,0*%
G04 Aperture macros list end*
%TA.AperFunction,ComponentPad*%
%ADD10RoundRect,0.250000X-0.600000X-0.725000X0.600000X-0.725000X0.600000X0.725000X-0.600000X0.725000X0*%
%TD*%
%TA.AperFunction,ComponentPad*%
%ADD11O,1.700000X1.950000*%
%TD*%
%TA.AperFunction,ComponentPad*%
%ADD12C,0.800000*%
%TD*%
%TA.AperFunction,ComponentPad*%
%ADD13C,7.000000*%
%TD*%
%TA.AperFunction,HeatsinkPad*%
%ADD14C,0.500000*%
%TD*%
%TA.AperFunction,HeatsinkPad*%
%ADD15R,1.900000X2.900000*%
%TD*%
%TA.AperFunction,ComponentPad*%
%ADD16R,1.905000X2.000000*%
%TD*%
%TA.AperFunction,ComponentPad*%
%ADD17O,1.905000X2.000000*%
%TD*%
%TA.AperFunction,ComponentPad*%
%ADD18R,1.700000X1.700000*%
%TD*%
%TA.AperFunction,ComponentPad*%
%ADD19O,1.700000X1.700000*%
%TD*%
%TA.AperFunction,ViaPad*%
%ADD20C,0.600000*%
%TD*%
%TA.AperFunction,ViaPad*%
%ADD21C,1.000000*%
%TD*%
%TA.AperFunction,Conductor*%
%ADD22C,0.200000*%
%TD*%
%TA.AperFunction,Conductor*%
%ADD23C,0.300000*%
%TD*%
%TA.AperFunction,Conductor*%
%ADD24C,1.000000*%
%TD*%
%TA.AperFunction,Conductor*%
%ADD25C,0.800000*%
%TD*%
%TA.AperFunction,Conductor*%
%ADD26C,0.500000*%
%TD*%
%TA.AperFunction,Conductor*%
%ADD27C,0.600000*%
%TD*%
%TA.AperFunction,Conductor*%
%ADD28C,0.250000*%
%TD*%
G04 APERTURE END LIST*
D10*
%TO.P,CAN1,1,Pin_1*%
%TO.N,/CAN/CANH*%
X79250000Y-78100000D03*
D11*
%TO.P,CAN1,2,Pin_2*%
%TO.N,/CAN/CANL*%
X81750000Y-78100000D03*
%TD*%
D10*
%TO.P,J1,1,Pin_1*%
%TO.N,GNDD*%
X96750000Y-78250000D03*
D11*
%TO.P,J1,2,Pin_2*%
%TO.N,/STM32F405/HALL_1*%
X99250000Y-78250000D03*
%TO.P,J1,3,Pin_3*%
%TO.N,/STM32F405/HALL_2*%
X101750000Y-78250000D03*
%TO.P,J1,4,Pin_4*%
%TO.N,/STM32F405/HALL_3*%
X104250000Y-78250000D03*
%TO.P,J1,5,Pin_5*%
%TO.N,/STM32F405/TEMP_MOTER*%
X106750000Y-78250000D03*
%TO.P,J1,6,Pin_6*%
%TO.N,+3V3*%
X109250000Y-78250000D03*
%TD*%
D12*
%TO.P,H7,1,1*%
%TO.N,/DRV8301/H1_VS*%
X73875000Y-48000000D03*
X74643845Y-46143845D03*
X74643845Y-49856155D03*
X76500000Y-45375000D03*
D13*
X76500000Y-48000000D03*
D12*
X76500000Y-50625000D03*
X78356155Y-46143845D03*
X78356155Y-49856155D03*
X79125000Y-48000000D03*
%TD*%
D14*
%TO.P,U9,9,PAD*%
%TO.N,GNDPWR*%
X58800000Y-41800000D03*
X58800000Y-43000000D03*
X58800000Y-44200000D03*
D15*
X59500000Y-43000000D03*
D14*
X60200000Y-41800000D03*
X60200000Y-43000000D03*
X60200000Y-44200000D03*
%TD*%
D12*
%TO.P,H6,1,1*%
%TO.N,GNDPWR*%
X84625000Y-26500000D03*
X85393845Y-24643845D03*
X85393845Y-28356155D03*
X87250000Y-23875000D03*
D13*
X87250000Y-26500000D03*
D12*
X87250000Y-29125000D03*
X89106155Y-24643845D03*
X89106155Y-28356155D03*
X89875000Y-26500000D03*
%TD*%
%TO.P,H5,1,1*%
%TO.N,V_SUPPLY*%
X103625000Y-26500000D03*
X104393845Y-24643845D03*
X104393845Y-28356155D03*
X106250000Y-23875000D03*
D13*
X106250000Y-26500000D03*
D12*
X106250000Y-29125000D03*
X108106155Y-24643845D03*
X108106155Y-28356155D03*
X108875000Y-26500000D03*
%TD*%
%TO.P,H9,1,1*%
%TO.N,/DRV8301/H3_VS*%
X111875000Y-48000000D03*
X112643845Y-46143845D03*
X112643845Y-49856155D03*
X114500000Y-45375000D03*
D13*
X114500000Y-48000000D03*
D12*
X114500000Y-50625000D03*
X116356155Y-46143845D03*
X116356155Y-49856155D03*
X117125000Y-48000000D03*
%TD*%
%TO.P,H8,1,1*%
%TO.N,/DRV8301/H2_VS*%
X92875000Y-48000000D03*
X93643845Y-46143845D03*
X93643845Y-49856155D03*
X95500000Y-45375000D03*
D13*
X95500000Y-48000000D03*
D12*
X95500000Y-50625000D03*
X97356155Y-46143845D03*
X97356155Y-49856155D03*
X98125000Y-48000000D03*
%TD*%
D10*
%TO.P,CAN2,1,Pin_1*%
%TO.N,/CAN/CANH*%
X88000000Y-78100000D03*
D11*
%TO.P,CAN2,2,Pin_2*%
%TO.N,/CAN/CANL*%
X90500000Y-78100000D03*
%TD*%
D16*
%TO.P,Q2,1,G*%
%TO.N,Net-(Q2-G)*%
X74290000Y-53250000D03*
D17*
%TO.P,Q2,2,D*%
%TO.N,/DRV8301/H1_VS*%
X71750000Y-53250000D03*
%TO.P,Q2,3,S*%
%TO.N,Net-(Q2-S)*%
X69210000Y-53250000D03*
%TD*%
D10*
%TO.P,M1,1,PWM*%
%TO.N,Net-(M1-PWM)*%
X57750000Y-32150000D03*
D11*
%TO.P,M1,2,+*%
%TO.N,+7V*%
X60250000Y-32150000D03*
%TO.P,M1,3,-*%
%TO.N,Net-(M1--)*%
X62750000Y-32150000D03*
%TD*%
D18*
%TO.P,J2,1,Pin_1*%
%TO.N,+5V*%
X69225000Y-88750000D03*
D19*
%TO.P,J2,2,Pin_2*%
%TO.N,GNDPWR*%
X71765000Y-88750000D03*
%TD*%
D16*
%TO.P,Q1,1,G*%
%TO.N,Net-(Q1-G)*%
X75210000Y-42480000D03*
D17*
%TO.P,Q1,2,D*%
%TO.N,V_SUPPLY*%
X77750000Y-42480000D03*
%TO.P,Q1,3,S*%
%TO.N,/DRV8301/H1_VS*%
X80290000Y-42480000D03*
%TD*%
D16*
%TO.P,Q5,1,G*%
%TO.N,Net-(Q5-G)*%
X113210000Y-42500000D03*
D17*
%TO.P,Q5,2,D*%
%TO.N,V_SUPPLY*%
X115750000Y-42500000D03*
%TO.P,Q5,3,S*%
%TO.N,/DRV8301/H3_VS*%
X118290000Y-42500000D03*
%TD*%
D10*
%TO.P,RGBLED1,1,Pin_1*%
%TO.N,GNDPWR*%
X124500000Y-34650000D03*
D11*
%TO.P,RGBLED1,2,Pin_2*%
%TO.N,/RGBLED_Driver/BLUE_OUT*%
X127000000Y-34650000D03*
%TO.P,RGBLED1,3,Pin_3*%
%TO.N,/RGBLED_Driver/RED_OUT*%
X129500000Y-34650000D03*
%TO.P,RGBLED1,4,Pin_4*%
%TO.N,/RGBLED_Driver/GREEN_OUT*%
X132000000Y-34650000D03*
%TD*%
D16*
%TO.P,Q3,1,G*%
%TO.N,Net-(Q3-G)*%
X94210000Y-42480000D03*
D17*
%TO.P,Q3,2,D*%
%TO.N,V_SUPPLY*%
X96750000Y-42480000D03*
%TO.P,Q3,3,S*%
%TO.N,/DRV8301/H2_VS*%
X99290000Y-42480000D03*
%TD*%
D18*
%TO.P,J3,1,Pin_1*%
%TO.N,+3V3*%
X124750000Y-78000000D03*
D19*
%TO.P,J3,2,Pin_2*%
%TO.N,SWCLK*%
X124750000Y-75460000D03*
%TO.P,J3,3,Pin_3*%
%TO.N,GNDD*%
X124750000Y-72920000D03*
%TO.P,J3,4,Pin_4*%
%TO.N,SWDIO*%
X124750000Y-70380000D03*
%TO.P,J3,5,Pin_5*%
%TO.N,NRST*%
X124750000Y-67840000D03*
%TD*%
D16*
%TO.P,Q4,1,G*%
%TO.N,Net-(Q4-G)*%
X93290000Y-53250000D03*
D17*
%TO.P,Q4,2,D*%
%TO.N,/DRV8301/H2_VS*%
X90750000Y-53250000D03*
%TO.P,Q4,3,S*%
%TO.N,Net-(Q4-S)*%
X88210000Y-53250000D03*
%TD*%
D16*
%TO.P,Q6,1,G*%
%TO.N,Net-(Q6-G)*%
X112290000Y-53250000D03*
D17*
%TO.P,Q6,2,D*%
%TO.N,/DRV8301/H3_VS*%
X109750000Y-53250000D03*
%TO.P,Q6,3,S*%
%TO.N,Net-(Q6-S)*%
X107210000Y-53250000D03*
%TD*%
D20*
%TO.N,GNDPWR*%
X69250000Y-65750000D03*
X54750000Y-64500000D03*
X52250000Y-75750000D03*
X85500000Y-66000000D03*
X81750000Y-66250000D03*
X103250000Y-48000000D03*
X78750000Y-66250000D03*
D21*
X140500000Y-37750000D03*
D20*
X47500000Y-37750000D03*
X52500000Y-66750000D03*
D21*
X57250000Y-49750000D03*
D20*
X49750000Y-34750000D03*
D21*
X133500000Y-23500000D03*
D20*
X74500000Y-88750000D03*
D21*
X124500000Y-42750000D03*
D20*
X76500000Y-66500000D03*
D21*
X122250000Y-34500000D03*
D20*
X76500000Y-65250000D03*
X54750000Y-63500000D03*
X50250000Y-46250000D03*
X78750000Y-67000000D03*
X74250000Y-98750000D03*
X64500000Y-55250000D03*
X79750000Y-67000000D03*
X62250000Y-64250000D03*
X49750000Y-37750000D03*
D21*
X128000000Y-23500000D03*
D20*
X54750000Y-67750000D03*
X74750000Y-68000000D03*
X65000000Y-43250000D03*
X80750000Y-64750000D03*
X116750000Y-53750000D03*
X80750000Y-67000000D03*
X79750000Y-64750000D03*
X49750000Y-36750000D03*
X52500000Y-68750000D03*
X73000000Y-65000000D03*
X52500000Y-62000000D03*
X116750000Y-53000000D03*
D21*
X136750000Y-29750000D03*
D20*
X90250000Y-66000000D03*
D21*
X133500000Y-42750000D03*
X122250000Y-29000000D03*
D20*
X74750000Y-65000000D03*
X81750000Y-64750000D03*
X65500000Y-94000000D03*
D21*
X124500000Y-52250000D03*
D20*
X79750000Y-65500000D03*
X76500000Y-68000000D03*
X44000000Y-46500000D03*
D21*
X136500000Y-45750000D03*
D20*
X74750000Y-66500000D03*
X71500000Y-67250000D03*
X82750000Y-66250000D03*
X91500000Y-66000000D03*
X65000000Y-45000000D03*
X52500000Y-63500000D03*
X47500000Y-38750000D03*
X69250000Y-68000000D03*
D21*
X122250000Y-23500000D03*
X136750000Y-37750000D03*
D20*
X52250000Y-80750000D03*
X89000000Y-66000000D03*
X52750000Y-43750000D03*
D21*
X128500000Y-43250000D03*
D20*
X83750000Y-66250000D03*
X66750000Y-65750000D03*
D21*
X57250000Y-55750000D03*
D20*
X85500000Y-65000000D03*
X81750000Y-65500000D03*
X51750000Y-43750000D03*
X47500000Y-35750000D03*
X78750000Y-64750000D03*
X49750000Y-35750000D03*
X64750000Y-50500000D03*
X81750000Y-67000000D03*
X103250000Y-45500000D03*
X58750000Y-88500000D03*
X54750000Y-61000000D03*
X54750000Y-62000000D03*
X77202677Y-74297323D03*
X52500000Y-65500000D03*
X49750000Y-39750000D03*
X52500000Y-67750000D03*
X62250000Y-61250000D03*
X54750000Y-68750000D03*
X49750000Y-41750000D03*
X87500000Y-65250000D03*
X80750000Y-66250000D03*
D21*
X142500000Y-45750000D03*
D20*
X83750000Y-64750000D03*
X80750000Y-65500000D03*
X52250000Y-70750000D03*
X54750000Y-65500000D03*
X82750000Y-65500000D03*
X83750000Y-67000000D03*
X74250000Y-93750000D03*
X72561120Y-66061119D03*
X78750000Y-65500000D03*
D21*
X120750000Y-56750000D03*
D20*
X68000000Y-65750000D03*
X47500000Y-34750000D03*
D21*
X128500000Y-47750000D03*
D20*
X82750000Y-64750000D03*
X47500000Y-36750000D03*
D21*
X52250000Y-59250000D03*
X128500000Y-52750000D03*
X124500000Y-47750000D03*
D20*
X47500000Y-39750000D03*
X66750000Y-68000000D03*
X53750000Y-43750000D03*
X52500000Y-61000000D03*
X54750000Y-66750000D03*
X49750000Y-38750000D03*
X79750000Y-66250000D03*
X83750000Y-65500000D03*
X103250000Y-43750000D03*
D21*
X128500000Y-56750000D03*
D20*
X52500000Y-64500000D03*
X71500000Y-65750000D03*
X82750000Y-67000000D03*
X85500000Y-67250000D03*
X55250000Y-85000000D03*
X87500000Y-66500000D03*
X68000000Y-68000000D03*
%TO.N,/STM32F405/AN_IN*%
X95750000Y-62750000D03*
X100750000Y-64250000D03*
%TO.N,/STM32F405/TEMP_MOTER*%
X110128702Y-77100117D03*
X104263909Y-66236091D03*
%TO.N,+3V3*%
X77258949Y-64500000D03*
X60750000Y-77750000D03*
X56000000Y-79250000D03*
X108285195Y-66275000D03*
X60750000Y-81000000D03*
X58000000Y-79250000D03*
X114700000Y-88950000D03*
X60750000Y-75750000D03*
X56000000Y-73250000D03*
X56000000Y-75750000D03*
D21*
X121250000Y-75250000D03*
D20*
X59750000Y-79250000D03*
X111120528Y-79728000D03*
X107756996Y-75006446D03*
X127500000Y-64750000D03*
X60750000Y-79000000D03*
X99500000Y-61500000D03*
X60700000Y-73750000D03*
X60750000Y-80000000D03*
X94558364Y-77674366D03*
X106350000Y-64687959D03*
D21*
X122900000Y-82150000D03*
D20*
X60750000Y-84250000D03*
X66937500Y-82000000D03*
X58750000Y-75750000D03*
X74250000Y-79000000D03*
X111000000Y-71850265D03*
X60750000Y-83250000D03*
X58582107Y-83167893D03*
X60750000Y-74750000D03*
X60750000Y-82250000D03*
X73750000Y-76500000D03*
D21*
X114129321Y-74701000D03*
D20*
X56000000Y-80500000D03*
X86000000Y-68250000D03*
X60750000Y-76750000D03*
%TO.N,NRST*%
X112375000Y-68755109D03*
X121750000Y-68000000D03*
%TO.N,+5V*%
X66000000Y-71250000D03*
X134850000Y-30250000D03*
D21*
X71500000Y-85500000D03*
X68500000Y-85500000D03*
X70000000Y-85500000D03*
D20*
X134850000Y-28650000D03*
X134850000Y-29500000D03*
X128700000Y-82575000D03*
X59900000Y-69950000D03*
D21*
%TO.N,/DRV8301/H3_LOW*%
X105217600Y-34265696D03*
D20*
X87294996Y-63492116D03*
X95495558Y-58870558D03*
X122350000Y-49500000D03*
X123450000Y-53550000D03*
D21*
X113750000Y-36250000D03*
D20*
%TO.N,/DRV8301/BR_SO3*%
X121967285Y-60825000D03*
X113500000Y-67500000D03*
%TO.N,/DRV8301/BR_SO1*%
X99650000Y-68750000D03*
X92000000Y-67000000D03*
%TO.N,/DRV8301/H1_LOW*%
X85977473Y-60972013D03*
X69444892Y-55305108D03*
X78498897Y-57226103D03*
%TO.N,/DRV8301/H2_LOW*%
X87200000Y-60476000D03*
X86250000Y-36750000D03*
X84750000Y-54450000D03*
X85471475Y-37528525D03*
X84750000Y-57500000D03*
%TO.N,/DRV8301/H1_VS*%
X79349914Y-56250000D03*
X79131757Y-59055912D03*
D21*
%TO.N,/DRV8301/H2_VS*%
X87500000Y-55250000D03*
X88500000Y-55250000D03*
%TO.N,/DRV8301/H3_VS*%
X107000000Y-56476000D03*
%TO.N,V_SUPPLY*%
X117500000Y-38500000D03*
X100500000Y-35000000D03*
X79500000Y-38500000D03*
X96500000Y-38500000D03*
D20*
X53750000Y-40750000D03*
D21*
X79500000Y-35000000D03*
X117500000Y-35250000D03*
X115500000Y-35250000D03*
D20*
X89750000Y-61250000D03*
D21*
X119500000Y-35250000D03*
X98500000Y-38500000D03*
X77500000Y-35000000D03*
X115500000Y-38500000D03*
X119250000Y-38500000D03*
D20*
X74500000Y-58750000D03*
D21*
X81500000Y-35000000D03*
D20*
X74500000Y-60250000D03*
D21*
X77500000Y-38500000D03*
D20*
X53000000Y-40750000D03*
D21*
X81250000Y-38500000D03*
D20*
X52250000Y-40750000D03*
X51500000Y-40750000D03*
X89000000Y-61250000D03*
D21*
X98500000Y-35000000D03*
D20*
X74500000Y-59500000D03*
D21*
X96500000Y-35000000D03*
X100500000Y-38500000D03*
D20*
%TO.N,+7V*%
X60025000Y-48000000D03*
X55750000Y-39719999D03*
X54000000Y-34379365D03*
X52775850Y-27655000D03*
X59523754Y-51559756D03*
X52750000Y-28501700D03*
X54000000Y-35000000D03*
%TO.N,Net-(M1--)*%
X61525000Y-27250000D03*
%TO.N,/CAN/CANH*%
X92750000Y-84500000D03*
X91375000Y-83000000D03*
%TO.N,/STM32F405/HALL_3*%
X111750000Y-77750000D03*
X96750000Y-67400000D03*
X111501791Y-79002846D03*
%TO.N,/STM32F405/HALL_1*%
X106250000Y-81500000D03*
X99417747Y-66496903D03*
%TO.N,/STM32F405/HALL_2*%
X105075735Y-79924265D03*
X99600000Y-67482314D03*
%TO.N,SWDIO*%
X106611091Y-70388909D03*
X110950738Y-71049265D03*
X113750000Y-70550000D03*
%TO.N,Net-(M1-PWM)*%
X56500000Y-33500000D03*
X59633689Y-53440658D03*
%TO.N,/RGBLED_Driver/RED_GATE*%
X128932403Y-41502936D03*
X104500000Y-59550000D03*
%TO.N,/RGBLED_Driver/GREEN_GATE*%
X132225000Y-40750000D03*
X106554298Y-59599000D03*
%TO.N,/RGBLED_Driver/BLUE_GATE*%
X108015132Y-59361338D03*
X126100000Y-40143750D03*
%TO.N,/STM32F405/USB_DP*%
X121750000Y-73250000D03*
X126032001Y-73343060D03*
%TO.N,/STM32F405/USB_DM*%
X121750000Y-72449997D03*
X125750000Y-71750000D03*
%TO.N,/STM32F405/ADC_EXT*%
X119000000Y-86250000D03*
X107001057Y-66600000D03*
%TO.N,/STM32F405/LED_RED*%
X105995832Y-60171814D03*
X113000000Y-60500000D03*
%TO.N,/STM32F405/LED_GREEN*%
X113252983Y-61258949D03*
X104948530Y-60950000D03*
%TO.N,Net-(U9-BOOT)*%
X58500000Y-40500000D03*
X63250000Y-40000000D03*
%TO.N,/DRV8301/FAULT*%
X77500000Y-79500000D03*
X74000000Y-73250000D03*
X80500000Y-80500000D03*
X105207830Y-75306360D03*
%TO.N,/DRV8301/EN_GATE*%
X104000000Y-75250000D03*
X81626959Y-71525000D03*
%TO.N,/DRV8301/SDO*%
X101557727Y-75390802D03*
X77150000Y-72183142D03*
X78892876Y-71750000D03*
%TO.N,/DRV8301/SENS1*%
X84000000Y-52250000D03*
X106750000Y-65500000D03*
%TO.N,/DRV8301/SENS2*%
X102075000Y-49750000D03*
X108400002Y-64553684D03*
%TO.N,/DRV8301/SENS3*%
X110775001Y-64509911D03*
X121086058Y-52412528D03*
%TO.N,/DRV8301/GH_A*%
X71750000Y-39750000D03*
X66500000Y-39250000D03*
%TO.N,/Power MOSFETs/TEMP*%
X109000000Y-62325000D03*
X111500000Y-62000000D03*
X110750000Y-62325000D03*
X109750000Y-62325000D03*
%TO.N,Net-(U9-FB)*%
X61514999Y-45514999D03*
X56500000Y-40319999D03*
%TO.N,/DRV8301/L3*%
X94100000Y-69250000D03*
X85105894Y-71250000D03*
%TO.N,/DRV8301/CS*%
X84250000Y-75250000D03*
X92125000Y-74350000D03*
%TO.N,/DRV8301/L1*%
X83270993Y-74229007D03*
X90500000Y-74500000D03*
%TO.N,/DRV8301/H3*%
X97150612Y-69600000D03*
X84846943Y-72250000D03*
%TO.N,/CAN/CAN_RX*%
X118250000Y-80250000D03*
X107093649Y-71801000D03*
%TO.N,/DRV8301/L2*%
X92667185Y-73150000D03*
X84349604Y-72876624D03*
%TO.N,/DRV8301/SDI*%
X78350000Y-72825000D03*
X102346935Y-75259836D03*
%TO.N,/CAN/CAN_TX*%
X118497516Y-81002484D03*
X106850000Y-72562996D03*
%TO.N,/DRV8301/SCLK*%
X99600002Y-73998528D03*
X79605904Y-70823190D03*
%TO.N,/SERVO/SERVO_PWM*%
X104898083Y-72165356D03*
X68000000Y-57000000D03*
%TO.N,/DRV8301/H2*%
X83796080Y-73454218D03*
X95100000Y-72250000D03*
%TO.N,/DRV8301/H1*%
X92375000Y-75162763D03*
X82405896Y-71342630D03*
%TO.N,/DRV8301/GH_C*%
X104576000Y-42500000D03*
X104576000Y-43250000D03*
X104576000Y-41750000D03*
X109500000Y-40500000D03*
%TO.N,/DRV8301/GH_B*%
X90500000Y-40250000D03*
X85100000Y-44950000D03*
X85100000Y-45550000D03*
X85100000Y-44350000D03*
D21*
%TO.N,Net-(Q2-S)*%
X70500000Y-46250000D03*
X68250000Y-46250000D03*
X68250000Y-41250000D03*
X68250000Y-51250000D03*
X70000000Y-51250000D03*
X70250000Y-41250000D03*
D20*
%TO.N,/DRV8301/SPC*%
X124050000Y-54150000D03*
X123000000Y-41750000D03*
%TO.N,/DRV8301/SPA*%
X70015808Y-55865517D03*
X86500000Y-63626000D03*
D21*
%TO.N,Net-(Q4-S)*%
X87250000Y-51500000D03*
X88750000Y-51500000D03*
X87250000Y-46750000D03*
X89250000Y-46750000D03*
X89250000Y-41750000D03*
X87250000Y-41750000D03*
D20*
%TO.N,/DRV8301/SPB*%
X87950000Y-60476000D03*
X85598527Y-54450000D03*
D21*
%TO.N,Net-(Q6-S)*%
X108250000Y-47000000D03*
X105701000Y-47000000D03*
X106250000Y-42000000D03*
X107750000Y-51500000D03*
X105750000Y-51500000D03*
X108250000Y-42000000D03*
%TD*%
D22*
%TO.N,/STM32F405/AN_IN*%
X95950000Y-62950000D02*
X95750000Y-62750000D01*
X99450000Y-62950000D02*
X95950000Y-62950000D01*
X100750000Y-64250000D02*
X99450000Y-62950000D01*
%TO.N,/STM32F405/TEMP_MOTER*%
X109852877Y-77100117D02*
X110128702Y-77100117D01*
X109726760Y-76974000D02*
X109852877Y-77100117D01*
X107793860Y-76974000D02*
X109726760Y-76974000D01*
X107151000Y-76331140D02*
X107793860Y-76974000D01*
X107151000Y-73901000D02*
X107151000Y-76331140D01*
X105716216Y-72466216D02*
X107151000Y-73901000D01*
X105716216Y-71966216D02*
X105716216Y-72466216D01*
X104263909Y-66236091D02*
X104250000Y-66250000D01*
X104250000Y-70500000D02*
X105716216Y-71966216D01*
X104250000Y-66250000D02*
X104250000Y-70500000D01*
%TO.N,/CAN/CAN_RX*%
X107340220Y-72189220D02*
X107340220Y-72047571D01*
X107485764Y-72334764D02*
X107340220Y-72189220D01*
X107584764Y-72334764D02*
X107485764Y-72334764D01*
X108833900Y-73583900D02*
X107584764Y-72334764D01*
X110083900Y-73583900D02*
X108833900Y-73583900D01*
X107340220Y-72047571D02*
X107093649Y-71801000D01*
X116750000Y-80250000D02*
X110083900Y-73583900D01*
X118250000Y-80250000D02*
X116750000Y-80250000D01*
%TO.N,/CAN/CAN_TX*%
X108287004Y-74000000D02*
X106850000Y-72562996D01*
X109750000Y-74000000D02*
X108287004Y-74000000D01*
X116752484Y-81002484D02*
X109750000Y-74000000D01*
X118497516Y-81002484D02*
X116752484Y-81002484D01*
%TO.N,+3V3*%
X74351000Y-65899000D02*
X71000000Y-69250000D01*
X74700943Y-65899000D02*
X74351000Y-65899000D01*
X76099943Y-64500000D02*
X74700943Y-65899000D01*
X77258949Y-64500000D02*
X76099943Y-64500000D01*
%TO.N,/DRV8301/SENS1*%
X106750000Y-65500000D02*
X106951000Y-65500000D01*
%TO.N,GNDPWR*%
X77202677Y-74297323D02*
X75750000Y-72844646D01*
D23*
X75750000Y-72844646D02*
X75750000Y-68250000D01*
D22*
%TO.N,+3V3*%
X110801000Y-72049265D02*
X111000000Y-71850265D01*
X85000000Y-69000000D02*
X85000000Y-69500000D01*
X85750000Y-68250000D02*
X85000000Y-69000000D01*
X86000000Y-68250000D02*
X85750000Y-68250000D01*
%TO.N,NRST*%
X112408292Y-69000000D02*
X120750000Y-69000000D01*
X120750000Y-69000000D02*
X121750000Y-68000000D01*
X112375000Y-68755109D02*
X112375000Y-68966708D01*
X112375000Y-68966708D02*
X112408292Y-69000000D01*
D24*
%TO.N,+5V*%
X112500000Y-85500000D02*
X114999000Y-87999000D01*
X134850000Y-28650000D02*
X134850000Y-43750000D01*
X133756915Y-59006915D02*
X134999000Y-60249000D01*
X132600000Y-46000000D02*
X130500000Y-46000000D01*
X129750000Y-47084372D02*
X129749000Y-47085372D01*
X115093918Y-87999000D02*
X115651000Y-88556082D01*
X70000000Y-85500000D02*
X68500000Y-85500000D01*
X114999000Y-87999000D02*
X115093918Y-87999000D01*
X115651000Y-88651000D02*
X116000000Y-89000000D01*
X115651000Y-88556082D02*
X115651000Y-88651000D01*
X71500000Y-85500000D02*
X112500000Y-85500000D01*
X71500000Y-85500000D02*
X70000000Y-85500000D01*
X130335372Y-59006915D02*
X133756915Y-59006915D01*
X134850000Y-43750000D02*
X132600000Y-46000000D01*
X129749000Y-58420543D02*
X130335372Y-59006915D01*
X134999000Y-76276000D02*
X128700000Y-82575000D01*
X130500000Y-46000000D02*
X129750000Y-46750000D01*
X129749000Y-47085372D02*
X129749000Y-58420543D01*
X129750000Y-46750000D02*
X129750000Y-47084372D01*
D25*
X59900000Y-69950000D02*
X62450000Y-69950000D01*
D24*
X134999000Y-60249000D02*
X134999000Y-76276000D01*
D25*
X62450000Y-69950000D02*
X63750000Y-71250000D01*
X63750000Y-71250000D02*
X66000000Y-71250000D01*
D24*
X125675000Y-82575000D02*
X128700000Y-82575000D01*
X119250000Y-89000000D02*
X125675000Y-82575000D01*
X116000000Y-89000000D02*
X119250000Y-89000000D01*
D22*
%TO.N,/DRV8301/H3_LOW*%
X87408844Y-63624000D02*
X90626000Y-63624000D01*
X87294996Y-63510152D02*
X87408844Y-63624000D01*
X87294996Y-63492116D02*
X87294996Y-63510152D01*
X95379442Y-58870558D02*
X95495558Y-58870558D01*
X122350000Y-49500000D02*
X122350000Y-52450000D01*
X90626000Y-63624000D02*
X95379442Y-58870558D01*
X105217600Y-34265696D02*
X111765696Y-34265696D01*
X111765696Y-34265696D02*
X113750000Y-36250000D01*
X122350000Y-52450000D02*
X123450000Y-53550000D01*
%TO.N,/DRV8301/BR_SO3*%
X117250000Y-63250000D02*
X119542285Y-63250000D01*
X114239041Y-66260959D02*
X117250000Y-63250000D01*
X113500000Y-67500000D02*
X113500000Y-67114041D01*
X114239041Y-66375000D02*
X114239041Y-66260959D01*
X113500000Y-67114041D02*
X114239041Y-66375000D01*
X119542285Y-63250000D02*
X121967285Y-60825000D01*
%TO.N,/DRV8301/BR_SO1*%
X95201000Y-66799000D02*
X95000000Y-67000000D01*
X97699000Y-66799000D02*
X95201000Y-66799000D01*
X99650000Y-68750000D02*
X97699000Y-66799000D01*
X95000000Y-67000000D02*
X92000000Y-67000000D01*
%TO.N,/DRV8301/H1_LOW*%
X78475000Y-57250000D02*
X78498897Y-57226103D01*
X78475000Y-59249098D02*
X78475000Y-57250000D01*
X80197915Y-60972013D02*
X78475000Y-59249098D01*
X76500000Y-55250000D02*
X78476103Y-57226103D01*
X69444892Y-55305108D02*
X69500000Y-55250000D01*
X69500000Y-55250000D02*
X76500000Y-55250000D01*
X78476103Y-57226103D02*
X78498897Y-57226103D01*
X85977473Y-60972013D02*
X80197915Y-60972013D01*
%TO.N,/DRV8301/H2_LOW*%
X87200000Y-60476000D02*
X87250000Y-60426000D01*
X87250000Y-59250000D02*
X84750000Y-56750000D01*
X84750000Y-54450000D02*
X84750000Y-57500000D01*
X87250000Y-60426000D02*
X87250000Y-59250000D01*
X85471475Y-37528525D02*
X86250000Y-36750000D01*
%TO.N,/DRV8301/H1_VS*%
X79349914Y-56250000D02*
X79250000Y-56349914D01*
X79250000Y-56349914D02*
X79250000Y-58937669D01*
X79250000Y-58937669D02*
X79131757Y-59055912D01*
D25*
%TO.N,/DRV8301/H2_VS*%
X90500000Y-53250000D02*
X88500000Y-55250000D01*
X88500000Y-55250000D02*
X87750000Y-55250000D01*
X90750000Y-53250000D02*
X90500000Y-53250000D01*
D26*
%TO.N,/DRV8301/H3_VS*%
X107000000Y-56000000D02*
X107000000Y-56476000D01*
X109750000Y-53250000D02*
X107000000Y-56000000D01*
D23*
%TO.N,V_SUPPLY*%
X86599000Y-60599000D02*
X86450000Y-60450000D01*
X87050000Y-61250000D02*
X86599000Y-60799000D01*
X86599000Y-60799000D02*
X86599000Y-60599000D01*
X89750000Y-61250000D02*
X87050000Y-61250000D01*
%TO.N,+7V*%
X55750000Y-41250000D02*
X56000000Y-41500000D01*
X60025000Y-48000000D02*
X60037500Y-47987500D01*
X59500000Y-51528992D02*
X59530764Y-51559756D01*
X59500000Y-46750000D02*
X59500000Y-51528992D01*
X59530764Y-51559756D02*
X59523754Y-51559756D01*
X60037500Y-47287500D02*
X59500000Y-46750000D01*
D26*
X52750000Y-27680850D02*
X52750000Y-33129365D01*
D23*
X56000000Y-41500000D02*
X56000000Y-43250000D01*
X60037500Y-47987500D02*
X60037500Y-47287500D01*
X56000000Y-43250000D02*
X59500000Y-46750000D01*
D26*
X52775850Y-27655000D02*
X52750000Y-27680850D01*
X54000000Y-35000000D02*
X54000000Y-34379365D01*
D23*
X55750000Y-39719999D02*
X55750000Y-41250000D01*
D26*
X52750000Y-33129365D02*
X54000000Y-34379365D01*
%TO.N,Net-(M1--)*%
X61500000Y-27275000D02*
X61550000Y-27275000D01*
X61550000Y-27275000D02*
X62750000Y-28475000D01*
X62750000Y-28475000D02*
X62750000Y-32650000D01*
X61525000Y-27250000D02*
X61500000Y-27275000D01*
D27*
%TO.N,/CAN/CANH*%
X91375000Y-83125000D02*
X92750000Y-84500000D01*
X91375000Y-83000000D02*
X91375000Y-83125000D01*
D22*
%TO.N,/STM32F405/HALL_3*%
X103258655Y-72508655D02*
X101758655Y-72508655D01*
X96750000Y-67500000D02*
X96750000Y-67400000D01*
X104250000Y-78250000D02*
X104250000Y-77500000D01*
X104250000Y-77500000D02*
X105851000Y-75899000D01*
X105851000Y-75899000D02*
X105851000Y-75101000D01*
X104250000Y-77750000D02*
X104250000Y-78250000D01*
X101758655Y-72508655D02*
X96750000Y-67500000D01*
X111750000Y-77750000D02*
X111750000Y-78754637D01*
X111750000Y-78754637D02*
X111501791Y-79002846D01*
X105851000Y-75101000D02*
X103258655Y-72508655D01*
%TO.N,/STM32F405/HALL_1*%
X105500057Y-73068571D02*
X105734957Y-73303472D01*
X105197943Y-72817273D02*
X105223351Y-72791865D01*
X103590855Y-71590855D02*
X103590855Y-71706655D01*
X105223351Y-72791865D02*
X105382900Y-72951415D01*
X107901000Y-77648240D02*
X107901000Y-79849000D01*
X99417747Y-66496903D02*
X99464532Y-66496903D01*
X106750000Y-76497240D02*
X107901000Y-77648240D01*
X105803472Y-73303472D02*
X106750000Y-74250000D01*
X104701473Y-72817273D02*
X105197943Y-72817273D01*
X100750000Y-67782371D02*
X100750000Y-68750000D01*
X103590855Y-71706655D02*
X104701473Y-72817273D01*
X106750000Y-74250000D02*
X106750000Y-76497240D01*
X107901000Y-79849000D02*
X106250000Y-81500000D01*
X105734957Y-73303472D02*
X105803472Y-73303472D01*
X105382900Y-72951415D02*
X105500057Y-73068571D01*
X100750000Y-68750000D02*
X103590855Y-71590855D01*
X99464532Y-66496903D02*
X100750000Y-67782371D01*
%TO.N,/STM32F405/HALL_2*%
X105075735Y-79924265D02*
X105500000Y-79500000D01*
X105500000Y-79500000D02*
X105500000Y-76817100D01*
X100250000Y-68932900D02*
X100250000Y-68132314D01*
X100250000Y-68132314D02*
X99600000Y-67482314D01*
X106252000Y-76065100D02*
X106252000Y-74934900D01*
X105500000Y-76817100D02*
X106252000Y-76065100D01*
X106252000Y-74934900D02*
X100250000Y-68932900D01*
%TO.N,SWDIO*%
X107850000Y-70500000D02*
X108399265Y-71049265D01*
X108399265Y-71049265D02*
X110950738Y-71049265D01*
X113920000Y-70380000D02*
X124750000Y-70380000D01*
X106611091Y-70388909D02*
X106722182Y-70500000D01*
X106722182Y-70500000D02*
X107850000Y-70500000D01*
X113750000Y-70550000D02*
X113920000Y-70380000D01*
D28*
%TO.N,Net-(M1-PWM)*%
X50875000Y-39125000D02*
X56500000Y-33500000D01*
X52564588Y-41750000D02*
X51685412Y-41750000D01*
X59633689Y-53440658D02*
X58076000Y-51882969D01*
X50875000Y-40939588D02*
X50875000Y-39125000D01*
X58076000Y-47576000D02*
X56500000Y-46000000D01*
X56500000Y-45685412D02*
X52564588Y-41750000D01*
X58076000Y-51882969D02*
X58076000Y-47576000D01*
X51685412Y-41750000D02*
X50875000Y-40939588D01*
X56500000Y-46000000D02*
X56500000Y-45685412D01*
D22*
%TO.N,/RGBLED_Driver/RED_GATE*%
X126000000Y-40750000D02*
X121750000Y-40750000D01*
X105755381Y-59550000D02*
X104500000Y-59550000D01*
X107766189Y-59962338D02*
X107414132Y-59610281D01*
X105953298Y-59352083D02*
X105755381Y-59550000D01*
X105953298Y-59350057D02*
X105953298Y-59352083D01*
X107414132Y-59610281D02*
X107414132Y-59608891D01*
X128932403Y-41502936D02*
X126752936Y-41502936D01*
X106305355Y-58998000D02*
X105953298Y-59350057D01*
X121750000Y-40750000D02*
X121250000Y-41250000D01*
X121250000Y-41250000D02*
X121250000Y-50832957D01*
X107767579Y-59962338D02*
X107766189Y-59962338D01*
X121250000Y-50832957D02*
X112035957Y-60047000D01*
X126752936Y-41502936D02*
X126000000Y-40750000D01*
X107852241Y-60047000D02*
X107767579Y-59962338D01*
X112035957Y-60047000D02*
X107852241Y-60047000D01*
X107414132Y-59608891D02*
X106803241Y-58998000D01*
X106803241Y-58998000D02*
X106305355Y-58998000D01*
%TO.N,/RGBLED_Driver/GREEN_GATE*%
X112202057Y-60448000D02*
X107403324Y-60448000D01*
X130339199Y-42209550D02*
X126603272Y-42209550D01*
X122351000Y-41149000D02*
X121750000Y-41750000D01*
X107403324Y-60448000D02*
X106554324Y-59599000D01*
X106554324Y-59599000D02*
X106554298Y-59599000D01*
X132225000Y-40750000D02*
X131798749Y-40750000D01*
X131798749Y-40750000D02*
X130339199Y-42209550D01*
X121750000Y-50900057D02*
X112202057Y-60448000D01*
X121750000Y-41750000D02*
X121750000Y-50900057D01*
X125542722Y-41149000D02*
X122351000Y-41149000D01*
X126603272Y-42209550D02*
X125542722Y-41149000D01*
%TO.N,/RGBLED_Driver/BLUE_GATE*%
X126100000Y-40143750D02*
X126093750Y-40150000D01*
X120750000Y-50765857D02*
X112165857Y-59350000D01*
X126093750Y-40150000D02*
X121600000Y-40150000D01*
X112165857Y-59350000D02*
X108015132Y-59350000D01*
X121600000Y-40150000D02*
X120750000Y-41000000D01*
X108015132Y-59350000D02*
X108015132Y-59361338D01*
X120750000Y-41000000D02*
X120750000Y-50765857D01*
%TO.N,/STM32F405/USB_DP*%
X126032001Y-73430499D02*
X125212500Y-74250000D01*
X122750000Y-74250000D02*
X121750000Y-73250000D01*
X126032001Y-73343060D02*
X126032001Y-73430499D01*
X125212500Y-74250000D02*
X122750000Y-74250000D01*
%TO.N,/STM32F405/USB_DM*%
X122449997Y-71750000D02*
X125750000Y-71750000D01*
X121750000Y-72449997D02*
X122449997Y-71750000D01*
%TO.N,/STM32F405/ADC_EXT*%
X108883980Y-67633980D02*
X108035037Y-67633980D01*
X119000000Y-86250000D02*
X119000000Y-85660842D01*
X120250000Y-79000000D02*
X108883980Y-67633980D01*
X108035037Y-67633980D02*
X107001057Y-66600000D01*
X120250000Y-84410842D02*
X120250000Y-79000000D01*
X119000000Y-85660842D02*
X120250000Y-84410842D01*
%TO.N,/STM32F405/LED_RED*%
X105996191Y-60171814D02*
X106673377Y-60849000D01*
X112651000Y-60849000D02*
X113000000Y-60500000D01*
X105995832Y-60171814D02*
X105996191Y-60171814D01*
X106673377Y-60849000D02*
X112651000Y-60849000D01*
%TO.N,/STM32F405/LED_GREEN*%
X105550000Y-60950000D02*
X105850000Y-61250000D01*
X113244034Y-61250000D02*
X113252983Y-61258949D01*
X105850000Y-61250000D02*
X113244034Y-61250000D01*
X104948530Y-60950000D02*
X105550000Y-60950000D01*
D26*
%TO.N,Net-(U9-BOOT)*%
X62750000Y-40500000D02*
X63250000Y-40000000D01*
X58500000Y-40500000D02*
X62750000Y-40500000D01*
D22*
%TO.N,/DRV8301/FAULT*%
X74000001Y-75900057D02*
X74000000Y-75900057D01*
X100516065Y-76401000D02*
X101466686Y-76401000D01*
X104300586Y-76250000D02*
X105207830Y-75342756D01*
X101474884Y-76392802D02*
X101972770Y-76392802D01*
X105207830Y-75342756D02*
X105207830Y-75306360D01*
X80500000Y-80500000D02*
X80750000Y-80750000D01*
X101466686Y-76401000D02*
X101474884Y-76392802D01*
X93500000Y-79350000D02*
X93500000Y-77884200D01*
X93500000Y-77884200D02*
X95832200Y-75552000D01*
X74000000Y-73250000D02*
X74000000Y-75900057D01*
X80750000Y-80750000D02*
X92100000Y-80750000D01*
X77500000Y-79500000D02*
X76500000Y-78500000D01*
X95832200Y-75552000D02*
X99667065Y-75552000D01*
X92100000Y-80750000D02*
X93500000Y-79350000D01*
X76500000Y-78400056D02*
X74000001Y-75900057D01*
X76500000Y-78500000D02*
X76500000Y-78400056D01*
X101972770Y-76392802D02*
X102115572Y-76250000D01*
X99667065Y-75552000D02*
X100516065Y-76401000D01*
X102115572Y-76250000D02*
X104300586Y-76250000D01*
%TO.N,/DRV8301/EN_GATE*%
X95750000Y-73000000D02*
X92426326Y-76323674D01*
X101750000Y-73000000D02*
X95750000Y-73000000D01*
X104000000Y-75250000D02*
X101750000Y-73000000D01*
X92426326Y-76323674D02*
X83811054Y-76323674D01*
X83811054Y-76323674D02*
X82132550Y-74645170D01*
X82132550Y-74645170D02*
X82132550Y-72100999D01*
X82132550Y-72100999D02*
X82100999Y-72100999D01*
X82100999Y-72100999D02*
X81626959Y-71626959D01*
X81626959Y-71626959D02*
X81626959Y-71525000D01*
%TO.N,/DRV8301/SDO*%
X100858463Y-75390802D02*
X100217661Y-74750000D01*
X78892876Y-71750000D02*
X78892876Y-72542876D01*
X77766858Y-72183142D02*
X77150000Y-72183142D01*
X84651000Y-77151000D02*
X87116100Y-79616100D01*
X78200000Y-71750000D02*
X77766858Y-72183142D01*
X83504180Y-77151000D02*
X84651000Y-77151000D01*
X78892876Y-71750000D02*
X78200000Y-71750000D01*
X83251000Y-76901000D02*
X83254180Y-76901000D01*
X92327000Y-77923000D02*
X92327000Y-78673000D01*
X91383900Y-79616100D02*
X92327000Y-78673000D01*
X87116100Y-79616100D02*
X91383900Y-79616100D01*
X100217661Y-74750000D02*
X95500000Y-74750000D01*
X101557727Y-75390802D02*
X100858463Y-75390802D01*
X95500000Y-74750000D02*
X92327000Y-77923000D01*
X83254180Y-76901000D02*
X83504180Y-77151000D01*
X78892876Y-72542876D02*
X83251000Y-76901000D01*
%TO.N,/DRV8301/SENS1*%
X97352057Y-57750000D02*
X88867214Y-57750000D01*
X107000000Y-65500000D02*
X106312098Y-65500000D01*
X102852057Y-63250000D02*
X97352057Y-57750000D01*
X86199527Y-55082313D02*
X86199527Y-54201057D01*
X86199527Y-54201057D02*
X84248470Y-52250000D01*
X104062098Y-63250000D02*
X102852057Y-63250000D01*
X84248470Y-52250000D02*
X84000000Y-52250000D01*
X88867214Y-57750000D02*
X86199527Y-55082313D01*
X106312098Y-65500000D02*
X104062098Y-63250000D01*
%TO.N,/DRV8301/SENS2*%
X102075000Y-58925000D02*
X102075000Y-49750000D01*
X107871002Y-64024684D02*
X107174684Y-64024684D01*
X108400002Y-64553684D02*
X107871002Y-64024684D01*
X107174684Y-64024684D02*
X102075000Y-58925000D01*
%TO.N,/DRV8301/SENS3*%
X114000000Y-59750000D02*
X114000000Y-61500000D01*
X114000000Y-61500000D02*
X111500000Y-64000000D01*
X111500000Y-64000000D02*
X111284911Y-64000000D01*
X111284911Y-64000000D02*
X110775001Y-64509911D01*
X121086058Y-52663942D02*
X114000000Y-59750000D01*
D25*
%TO.N,/DRV8301/GH_A*%
X67500000Y-39250000D02*
X68000000Y-39750000D01*
X68000000Y-39750000D02*
X71750000Y-39750000D01*
X66500000Y-39250000D02*
X67500000Y-39250000D01*
D23*
%TO.N,Net-(U9-FB)*%
X56500000Y-43000000D02*
X59014999Y-45514999D01*
X56500000Y-40319999D02*
X56500000Y-43000000D01*
X59014999Y-45514999D02*
X61514999Y-45514999D01*
D22*
%TO.N,/DRV8301/L3*%
X94100000Y-69250000D02*
X94000000Y-69250000D01*
X86356260Y-70893740D02*
X86000000Y-71250000D01*
X86000000Y-71250000D02*
X85105894Y-71250000D01*
X94000000Y-69250000D02*
X92356260Y-70893740D01*
X92356260Y-70893740D02*
X86356260Y-70893740D01*
%TO.N,/DRV8301/CS*%
X91225000Y-75250000D02*
X92125000Y-74350000D01*
X84250000Y-75250000D02*
X91225000Y-75250000D01*
%TO.N,/DRV8301/L1*%
X90500000Y-74500000D02*
X83541986Y-74500000D01*
X83270993Y-74229007D02*
X83141031Y-74099045D01*
X83541986Y-74500000D02*
X83270993Y-74229007D01*
X83141031Y-74099045D02*
X83141031Y-74074543D01*
%TO.N,/DRV8301/H3*%
X97150612Y-69600000D02*
X96900000Y-69600000D01*
X94025000Y-72475000D02*
X85071943Y-72475000D01*
X96900000Y-69600000D02*
X94025000Y-72475000D01*
X85071943Y-72475000D02*
X84846943Y-72250000D01*
%TO.N,/CAN/CAN_RX*%
X107093649Y-71801000D02*
X107093649Y-71876972D01*
X107093649Y-71876972D02*
X107008349Y-71962272D01*
%TO.N,/DRV8301/L2*%
X84349604Y-72876495D02*
X84349604Y-72876624D01*
X84623109Y-73150000D02*
X84349604Y-72876495D01*
X92667185Y-73150000D02*
X84623109Y-73150000D01*
%TO.N,/DRV8301/SDI*%
X101300586Y-76000000D02*
X101308784Y-75991802D01*
X101806670Y-75991802D02*
X102346935Y-75451537D01*
X95666100Y-75151000D02*
X99833165Y-75151000D01*
X102346935Y-75259836D02*
X102346935Y-75403065D01*
X78475000Y-72950000D02*
X78500000Y-72950000D01*
X91700000Y-80150000D02*
X92900000Y-78950000D01*
X102346935Y-75451537D02*
X102346935Y-75259836D01*
X102346935Y-75403065D02*
X102250000Y-75500000D01*
X85700000Y-80150000D02*
X91700000Y-80150000D01*
X101308784Y-75991802D02*
X101806670Y-75991802D01*
X78350000Y-72825000D02*
X78475000Y-72950000D01*
X100682165Y-76000000D02*
X101300586Y-76000000D01*
X78500000Y-72950000D02*
X85700000Y-80150000D01*
X92900000Y-77917100D02*
X95666100Y-75151000D01*
X92900000Y-78950000D02*
X92900000Y-77917100D01*
X99833165Y-75151000D02*
X100682165Y-76000000D01*
%TO.N,/DRV8301/SCLK*%
X79605904Y-72605904D02*
X81731550Y-74731550D01*
X98398528Y-73998528D02*
X99600002Y-73998528D01*
X96099000Y-73401000D02*
X97801000Y-73401000D01*
X92750000Y-76750000D02*
X96099000Y-73401000D01*
X83670280Y-76750000D02*
X92750000Y-76750000D01*
X81731550Y-74731550D02*
X81731550Y-74811270D01*
X79605904Y-70823190D02*
X79605904Y-72605904D01*
X97801000Y-73401000D02*
X98398528Y-73998528D01*
X81731550Y-74811270D02*
X83670280Y-76750000D01*
D28*
%TO.N,/SERVO/SERVO_PWM*%
X68000000Y-57000000D02*
X68750000Y-57000000D01*
X104847166Y-72114439D02*
X104949000Y-72114439D01*
X103750000Y-71017273D02*
X104847166Y-72114439D01*
X87564588Y-64000000D02*
X98000000Y-64000000D01*
X84951000Y-64201000D02*
X87363588Y-64201000D01*
X103750000Y-69750000D02*
X103750000Y-71017273D01*
X68750000Y-57000000D02*
X74500000Y-62750000D01*
X83500000Y-62750000D02*
X84951000Y-64201000D01*
X87363588Y-64201000D02*
X87564588Y-64000000D01*
X74500000Y-62750000D02*
X83500000Y-62750000D01*
X98000000Y-64000000D02*
X103750000Y-69750000D01*
X104949000Y-72114439D02*
X104898083Y-72165356D01*
D22*
%TO.N,/DRV8301/H2*%
X94000000Y-73750000D02*
X95100000Y-72650000D01*
X95100000Y-72650000D02*
X95100000Y-72250000D01*
X83810114Y-73454218D02*
X84105896Y-73750000D01*
X83796080Y-73454218D02*
X83810114Y-73454218D01*
X84105896Y-73750000D02*
X94000000Y-73750000D01*
%TO.N,/DRV8301/H1*%
X91577326Y-75922674D02*
X92337237Y-75162763D01*
X92337237Y-75162763D02*
X92375000Y-75162763D01*
X83977154Y-75922674D02*
X91577326Y-75922674D01*
X82533550Y-74479070D02*
X83977154Y-75922674D01*
X82533550Y-71685021D02*
X82533550Y-74479070D01*
X82405896Y-71342630D02*
X82405896Y-71557367D01*
X82405896Y-71557367D02*
X82533550Y-71685021D01*
D25*
%TO.N,/DRV8301/GH_C*%
X104500000Y-41750000D02*
X104500000Y-43250000D01*
X105750000Y-40500000D02*
X109500000Y-40500000D01*
X104500000Y-41750000D02*
X105750000Y-40500000D01*
%TO.N,/DRV8301/GH_B*%
X90400000Y-40350000D02*
X90500000Y-40250000D01*
X85100000Y-45550000D02*
X85100000Y-42092950D01*
X86842950Y-40350000D02*
X90400000Y-40350000D01*
X85100000Y-42092950D02*
X86842950Y-40350000D01*
D22*
%TO.N,/DRV8301/SPC*%
X124051000Y-53798943D02*
X124050000Y-53799943D01*
X123000000Y-52250057D02*
X124051000Y-53301057D01*
X124051000Y-53301057D02*
X124051000Y-53798943D01*
X124050000Y-53799943D02*
X124050000Y-54150000D01*
X123000000Y-41750000D02*
X123000000Y-52250057D01*
%TO.N,/DRV8301/SPA*%
X85124000Y-62250000D02*
X80000000Y-62250000D01*
X86411000Y-63537000D02*
X85124000Y-62250000D01*
X74750000Y-55750000D02*
X70131325Y-55750000D01*
X86500000Y-63448000D02*
X86411000Y-63537000D01*
X77500000Y-59750000D02*
X77500000Y-58500000D01*
X70131325Y-55750000D02*
X70015808Y-55865517D01*
X80000000Y-62250000D02*
X77500000Y-59750000D01*
X86500000Y-63626000D02*
X86500000Y-63448000D01*
X77500000Y-58500000D02*
X74750000Y-55750000D01*
%TO.N,/DRV8301/SPB*%
X87401000Y-58833900D02*
X85500000Y-56932900D01*
X85500000Y-54548527D02*
X85598527Y-54450000D01*
X87950000Y-60476000D02*
X87750000Y-60276000D01*
X87401000Y-58901000D02*
X87401000Y-58833900D01*
X87750000Y-59250000D02*
X87401000Y-58901000D01*
X87750000Y-60276000D02*
X87750000Y-59250000D01*
X85500000Y-56932900D02*
X85500000Y-54548527D01*
%TD*%
%TA.AperFunction,Conductor*%
%TO.N,/DRV8301/H1_VS*%
G36*
X82193039Y-41269685D02*
G01*
X82238794Y-41322489D01*
X82250000Y-41374000D01*
X82250000Y-51876000D01*
X82230315Y-51943039D01*
X82177511Y-51988794D01*
X82126000Y-52000000D01*
X73000000Y-52000000D01*
X73000000Y-54376000D01*
X72980315Y-54443039D01*
X72927511Y-54488794D01*
X72876000Y-54500000D01*
X70624000Y-54500000D01*
X70556961Y-54480315D01*
X70511206Y-54427511D01*
X70500000Y-54376000D01*
X70500000Y-51792018D01*
X70519685Y-51724979D01*
X70536317Y-51704338D01*
X70544114Y-51696542D01*
X70620775Y-51581811D01*
X70673580Y-51454328D01*
X70687337Y-51385167D01*
X70698039Y-51353920D01*
X71250000Y-50250000D01*
X71250000Y-43874000D01*
X71269685Y-43806961D01*
X71322489Y-43761206D01*
X71374000Y-43750000D01*
X78750000Y-43750000D01*
X79250000Y-43250000D01*
X79250000Y-41374000D01*
X79269685Y-41306961D01*
X79322489Y-41261206D01*
X79374000Y-41250000D01*
X82126000Y-41250000D01*
X82193039Y-41269685D01*
G37*
%TD.AperFunction*%
%TD*%
%TA.AperFunction,Conductor*%
%TO.N,/DRV8301/H3_VS*%
G36*
X120193039Y-41269685D02*
G01*
X120238794Y-41322489D01*
X120250000Y-41374000D01*
X120250000Y-50789523D01*
X120230315Y-50856562D01*
X120213681Y-50877204D01*
X119127205Y-51963681D01*
X119065882Y-51997166D01*
X119039524Y-52000000D01*
X111000000Y-52000000D01*
X111000000Y-54376000D01*
X110980315Y-54443039D01*
X110927511Y-54488794D01*
X110876000Y-54500000D01*
X108624000Y-54500000D01*
X108556961Y-54480315D01*
X108511206Y-54427511D01*
X108500000Y-54376000D01*
X108500000Y-51779272D01*
X108513090Y-51723818D01*
X109250000Y-50250000D01*
X109250000Y-43874000D01*
X109269685Y-43806961D01*
X109322489Y-43761206D01*
X109374000Y-43750000D01*
X116750000Y-43750000D01*
X117250000Y-43250000D01*
X117250000Y-41374000D01*
X117269685Y-41306961D01*
X117322489Y-41261206D01*
X117374000Y-41250000D01*
X120126000Y-41250000D01*
X120193039Y-41269685D01*
G37*
%TD.AperFunction*%
%TD*%
%TA.AperFunction,Conductor*%
%TO.N,/Power MOSFETs/TEMP*%
G36*
X111443039Y-61769685D02*
G01*
X111488794Y-61822489D01*
X111500000Y-61874000D01*
X111500000Y-62876000D01*
X111480315Y-62943039D01*
X111427511Y-62988794D01*
X111376000Y-63000000D01*
X108374000Y-63000000D01*
X108306961Y-62980315D01*
X108261206Y-62927511D01*
X108250000Y-62876000D01*
X108250000Y-61874000D01*
X108269685Y-61806961D01*
X108322489Y-61761206D01*
X108374000Y-61750000D01*
X111376000Y-61750000D01*
X111443039Y-61769685D01*
G37*
%TD.AperFunction*%
%TD*%
%TA.AperFunction,Conductor*%
%TO.N,/DRV8301/H2_VS*%
G36*
X101193039Y-41269685D02*
G01*
X101238794Y-41322489D01*
X101250000Y-41374000D01*
X101250000Y-51876000D01*
X101230315Y-51943039D01*
X101177511Y-51988794D01*
X101126000Y-52000000D01*
X92000000Y-52000000D01*
X92000000Y-54376000D01*
X91980315Y-54443039D01*
X91927511Y-54488794D01*
X91876000Y-54500000D01*
X89624000Y-54500000D01*
X89556961Y-54480315D01*
X89511206Y-54427511D01*
X89500000Y-54376000D01*
X89500000Y-51779272D01*
X89513090Y-51723818D01*
X90250000Y-50250000D01*
X90250000Y-43874000D01*
X90269685Y-43806961D01*
X90322489Y-43761206D01*
X90374000Y-43750000D01*
X97750000Y-43750000D01*
X98250000Y-43250000D01*
X98250000Y-41374000D01*
X98269685Y-41306961D01*
X98322489Y-41261206D01*
X98374000Y-41250000D01*
X101126000Y-41250000D01*
X101193039Y-41269685D01*
G37*
%TD.AperFunction*%
%TD*%
%TA.AperFunction,Conductor*%
%TO.N,V_SUPPLY*%
G36*
X67000000Y-41250000D02*
G01*
X67000000Y-54500000D01*
X68198638Y-54500000D01*
X68265677Y-54519685D01*
X68286319Y-54536319D01*
X68908073Y-55158073D01*
X68941558Y-55219396D01*
X68944392Y-55245754D01*
X68944392Y-55370999D01*
X68978500Y-55498295D01*
X69008641Y-55550500D01*
X69044392Y-55612422D01*
X69137578Y-55705608D01*
X69251706Y-55771500D01*
X69379000Y-55805608D01*
X69379002Y-55805608D01*
X69391308Y-55805608D01*
X69458347Y-55825293D01*
X69504102Y-55878097D01*
X69513954Y-55923387D01*
X69514247Y-55923349D01*
X69514707Y-55926849D01*
X69515308Y-55929608D01*
X69515308Y-55931408D01*
X69549416Y-56058704D01*
X69552638Y-56064284D01*
X69615308Y-56172831D01*
X69708494Y-56266017D01*
X69822622Y-56331909D01*
X69949916Y-56366017D01*
X69949918Y-56366017D01*
X70081698Y-56366017D01*
X70081700Y-56366017D01*
X70208994Y-56331909D01*
X70323122Y-56266017D01*
X70416308Y-56172831D01*
X70451141Y-56112499D01*
X70501709Y-56064284D01*
X70558528Y-56050500D01*
X74574167Y-56050500D01*
X74641206Y-56070185D01*
X74661848Y-56086819D01*
X76463681Y-57888652D01*
X76497166Y-57949975D01*
X76500000Y-57976333D01*
X76500000Y-61126000D01*
X76480315Y-61193039D01*
X76427511Y-61238794D01*
X76376000Y-61250000D01*
X74124000Y-61250000D01*
X74056961Y-61230315D01*
X74011206Y-61177511D01*
X74000000Y-61126000D01*
X74000000Y-57500000D01*
X69761689Y-57500000D01*
X69694650Y-57480315D01*
X69674008Y-57463681D01*
X68949864Y-56739537D01*
X68949862Y-56739535D01*
X68912750Y-56718108D01*
X68875640Y-56696682D01*
X68834246Y-56685591D01*
X68792853Y-56674500D01*
X68792852Y-56674500D01*
X68433676Y-56674500D01*
X68366637Y-56654815D01*
X68345995Y-56638181D01*
X68307316Y-56599502D01*
X68307314Y-56599500D01*
X68250250Y-56566554D01*
X68193187Y-56533608D01*
X68129539Y-56516554D01*
X68065892Y-56499500D01*
X67934108Y-56499500D01*
X67806812Y-56533608D01*
X67692686Y-56599500D01*
X67692683Y-56599502D01*
X67599502Y-56692683D01*
X67599500Y-56692686D01*
X67533608Y-56806812D01*
X67511731Y-56888461D01*
X67499500Y-56934108D01*
X67499500Y-57065892D01*
X67531827Y-57186541D01*
X67533609Y-57193188D01*
X67533609Y-57193189D01*
X67577091Y-57268501D01*
X67593564Y-57336401D01*
X67570712Y-57402428D01*
X67515791Y-57445618D01*
X67446237Y-57452260D01*
X67384135Y-57420244D01*
X67371824Y-57406630D01*
X65526120Y-55033582D01*
X65500500Y-54968579D01*
X65500000Y-54957453D01*
X65500000Y-45067758D01*
X65500500Y-45065892D01*
X65500500Y-44934108D01*
X65500000Y-44932241D01*
X65500000Y-43327816D01*
X65500500Y-43320186D01*
X65500500Y-43179815D01*
X65500000Y-43172185D01*
X65500000Y-41250000D01*
X65500000Y-40000000D01*
X67000000Y-40000000D01*
X67000000Y-41250000D01*
G37*
%TD.AperFunction*%
%TD*%
%TA.AperFunction,Conductor*%
%TO.N,Net-(Q4-S)*%
G36*
X90193039Y-40970185D02*
G01*
X90238794Y-41022989D01*
X90250000Y-41074500D01*
X90250000Y-43498386D01*
X90230315Y-43565425D01*
X90192501Y-43600276D01*
X90193656Y-43601957D01*
X90187917Y-43605898D01*
X90135104Y-43651660D01*
X90117160Y-43669242D01*
X90117154Y-43669249D01*
X90072511Y-43749059D01*
X90072509Y-43749064D01*
X90052826Y-43816096D01*
X90044500Y-43874003D01*
X90044500Y-50172213D01*
X90031409Y-50227667D01*
X89329287Y-51631910D01*
X89313084Y-51676614D01*
X89300000Y-51732043D01*
X89299997Y-51732063D01*
X89294500Y-51779270D01*
X89294500Y-53554902D01*
X89274815Y-53621941D01*
X89258181Y-53642583D01*
X88437083Y-54463681D01*
X88375760Y-54497166D01*
X88349402Y-54500000D01*
X86624027Y-54500000D01*
X86556988Y-54480315D01*
X86511233Y-54427511D01*
X86500027Y-54376000D01*
X86500027Y-54161496D01*
X86500027Y-54161495D01*
X86479548Y-54085068D01*
X86479544Y-54085061D01*
X86439991Y-54016552D01*
X86439985Y-54016544D01*
X86036319Y-53612878D01*
X86002834Y-53551555D01*
X86000000Y-53525197D01*
X86000000Y-42093547D01*
X86019685Y-42026508D01*
X86036319Y-42005866D01*
X87055367Y-40986819D01*
X87116690Y-40953334D01*
X87143048Y-40950500D01*
X90126000Y-40950500D01*
X90193039Y-40970185D01*
G37*
%TD.AperFunction*%
%TD*%
%TA.AperFunction,Conductor*%
%TO.N,Net-(Q6-S)*%
G36*
X109193039Y-41269685D02*
G01*
X109238794Y-41322489D01*
X109250000Y-41374000D01*
X109250000Y-43498386D01*
X109230315Y-43565425D01*
X109192501Y-43600276D01*
X109193656Y-43601957D01*
X109187917Y-43605898D01*
X109135104Y-43651660D01*
X109117160Y-43669242D01*
X109117154Y-43669249D01*
X109072511Y-43749059D01*
X109072509Y-43749064D01*
X109052826Y-43816096D01*
X109044500Y-43874003D01*
X109044500Y-50172213D01*
X109031409Y-50227667D01*
X108329287Y-51631910D01*
X108313084Y-51676614D01*
X108300000Y-51732043D01*
X108299997Y-51732063D01*
X108294500Y-51779270D01*
X108294500Y-54017035D01*
X108274815Y-54084074D01*
X108258181Y-54104716D01*
X107899216Y-54463681D01*
X107837893Y-54497166D01*
X107811535Y-54500000D01*
X105124000Y-54500000D01*
X105056961Y-54480315D01*
X105011206Y-54427511D01*
X105000000Y-54376000D01*
X105000000Y-43618200D01*
X105016613Y-43556200D01*
X105023368Y-43544500D01*
X105059577Y-43481784D01*
X105100500Y-43329057D01*
X105100500Y-42050097D01*
X105120185Y-41983058D01*
X105136819Y-41962416D01*
X105812916Y-41286319D01*
X105874239Y-41252834D01*
X105900597Y-41250000D01*
X109126000Y-41250000D01*
X109193039Y-41269685D01*
G37*
%TD.AperFunction*%
%TD*%
%TA.AperFunction,Conductor*%
%TO.N,GNDPWR*%
G36*
X50749827Y-26105845D02*
G01*
X50788760Y-26163862D01*
X50794500Y-26201151D01*
X50794500Y-26328296D01*
X50794500Y-27211159D01*
X50794500Y-38361021D01*
X50794500Y-38361023D01*
X50794499Y-38361023D01*
X50810141Y-38439656D01*
X50810143Y-38439662D01*
X50831818Y-38491990D01*
X50831822Y-38491997D01*
X50862504Y-38540828D01*
X50881504Y-38608065D01*
X50861136Y-38674900D01*
X50845192Y-38694480D01*
X50614534Y-38925139D01*
X50614533Y-38925141D01*
X50571681Y-38999361D01*
X50571682Y-38999362D01*
X50549500Y-39082147D01*
X50549500Y-40982440D01*
X50571682Y-41065228D01*
X50593108Y-41102338D01*
X50614535Y-41139450D01*
X51424945Y-41949859D01*
X51424947Y-41949862D01*
X51485550Y-42010465D01*
X51538352Y-42040950D01*
X51559772Y-42053317D01*
X51559773Y-42053317D01*
X51559774Y-42053318D01*
X51642559Y-42075501D01*
X51642561Y-42075501D01*
X51735861Y-42075501D01*
X51735877Y-42075500D01*
X52378399Y-42075500D01*
X52445438Y-42095185D01*
X52466080Y-42111819D01*
X56138181Y-45783920D01*
X56171666Y-45845243D01*
X56174500Y-45871601D01*
X56174500Y-46042852D01*
X56196682Y-46125640D01*
X56218108Y-46162750D01*
X56239535Y-46199862D01*
X56989483Y-46949810D01*
X57714181Y-47674507D01*
X57747666Y-47735830D01*
X57750500Y-47762188D01*
X57750500Y-51925821D01*
X57772682Y-52008609D01*
X57794108Y-52045719D01*
X57815535Y-52082831D01*
X57815537Y-52082833D01*
X59096870Y-53364166D01*
X59130355Y-53425489D01*
X59133189Y-53451847D01*
X59133189Y-53506549D01*
X59167297Y-53633845D01*
X59200243Y-53690908D01*
X59233189Y-53747972D01*
X59326375Y-53841158D01*
X59440503Y-53907050D01*
X59567797Y-53941158D01*
X59567799Y-53941158D01*
X59699579Y-53941158D01*
X59699581Y-53941158D01*
X59826875Y-53907050D01*
X59941003Y-53841158D01*
X60034189Y-53747972D01*
X60100081Y-53633844D01*
X60134189Y-53506550D01*
X60134189Y-53374766D01*
X60100081Y-53247472D01*
X60034189Y-53133344D01*
X59941003Y-53040158D01*
X59870654Y-52999542D01*
X59826876Y-52974266D01*
X59763228Y-52957212D01*
X59699581Y-52940158D01*
X59699580Y-52940158D01*
X59644878Y-52940158D01*
X59577839Y-52920473D01*
X59557197Y-52903839D01*
X58437819Y-51784461D01*
X58404334Y-51723138D01*
X58401500Y-51696780D01*
X58401500Y-47628855D01*
X58401501Y-47628842D01*
X58401501Y-47533149D01*
X58379317Y-47450360D01*
X58379316Y-47450359D01*
X58355774Y-47409582D01*
X58355773Y-47409581D01*
X58349953Y-47399500D01*
X58336465Y-47376138D01*
X58275862Y-47315535D01*
X58275859Y-47315533D01*
X56861819Y-45901492D01*
X56828334Y-45840169D01*
X56825500Y-45813811D01*
X56825500Y-45642560D01*
X56825500Y-45642559D01*
X56814632Y-45602000D01*
X56803318Y-45559773D01*
X56760465Y-45485550D01*
X52942096Y-41667181D01*
X52908611Y-41605858D01*
X52913595Y-41536166D01*
X52955467Y-41480233D01*
X53020931Y-41455816D01*
X53029777Y-41455500D01*
X55325502Y-41455500D01*
X55372526Y-41446146D01*
X55380432Y-41446853D01*
X55387871Y-41444079D01*
X55414737Y-41449923D01*
X55442117Y-41452373D01*
X55450124Y-41457620D01*
X55456144Y-41458930D01*
X55484399Y-41480081D01*
X55613182Y-41608863D01*
X55646666Y-41670184D01*
X55649500Y-41696543D01*
X55649500Y-43296144D01*
X55664065Y-43350501D01*
X55664065Y-43350502D01*
X55673384Y-43385284D01*
X55673385Y-43385286D01*
X55719527Y-43465208D01*
X55719531Y-43465213D01*
X59113181Y-46858863D01*
X59146666Y-46920186D01*
X59149500Y-46946544D01*
X59149500Y-51176145D01*
X59129815Y-51243184D01*
X59123878Y-51251629D01*
X59123255Y-51252440D01*
X59057362Y-51366568D01*
X59023254Y-51493864D01*
X59023254Y-51625647D01*
X59057362Y-51752943D01*
X59090308Y-51810006D01*
X59123254Y-51867070D01*
X59216440Y-51960256D01*
X59330568Y-52026148D01*
X59457862Y-52060256D01*
X59457864Y-52060256D01*
X59589644Y-52060256D01*
X59589646Y-52060256D01*
X59716940Y-52026148D01*
X59831068Y-51960256D01*
X59924254Y-51867070D01*
X59990146Y-51752942D01*
X60024254Y-51625648D01*
X60024254Y-51493864D01*
X59990146Y-51366570D01*
X59924254Y-51252442D01*
X59886819Y-51215007D01*
X59853334Y-51153684D01*
X59850500Y-51127326D01*
X59850500Y-48624500D01*
X59870185Y-48557461D01*
X59922989Y-48511706D01*
X59974500Y-48500500D01*
X60090890Y-48500500D01*
X60090892Y-48500500D01*
X60218186Y-48466392D01*
X60332314Y-48400500D01*
X60425500Y-48307314D01*
X60491392Y-48193186D01*
X60525500Y-48065892D01*
X60525500Y-47934108D01*
X60491392Y-47806814D01*
X60425500Y-47692686D01*
X60424319Y-47691505D01*
X60423642Y-47690266D01*
X60420553Y-47686240D01*
X60421180Y-47685758D01*
X60390834Y-47630182D01*
X60388000Y-47603824D01*
X60388000Y-47241358D01*
X60388000Y-47241356D01*
X60364114Y-47152212D01*
X60364113Y-47152210D01*
X60363132Y-47150510D01*
X60363132Y-47150511D01*
X60363126Y-47150500D01*
X60317970Y-47072288D01*
X59715212Y-46469530D01*
X59322862Y-46077180D01*
X59289377Y-46015857D01*
X59294361Y-45946165D01*
X59336233Y-45890232D01*
X59401697Y-45865815D01*
X59410543Y-45865499D01*
X61106323Y-45865499D01*
X61173362Y-45885184D01*
X61194004Y-45901818D01*
X61207685Y-45915499D01*
X61321813Y-45981391D01*
X61449107Y-46015499D01*
X61449109Y-46015499D01*
X61580889Y-46015499D01*
X61580891Y-46015499D01*
X61708185Y-45981391D01*
X61822313Y-45915499D01*
X61915499Y-45822313D01*
X61981391Y-45708185D01*
X62015499Y-45580891D01*
X62015499Y-45449107D01*
X61981391Y-45321813D01*
X61915499Y-45207685D01*
X61822313Y-45114499D01*
X61765249Y-45081553D01*
X61708186Y-45048607D01*
X61644538Y-45031553D01*
X61580891Y-45014499D01*
X61449107Y-45014499D01*
X61321811Y-45048607D01*
X61207685Y-45114499D01*
X61207682Y-45114501D01*
X61194004Y-45128180D01*
X61132681Y-45161665D01*
X61106323Y-45164499D01*
X59211543Y-45164499D01*
X59144504Y-45144814D01*
X59123862Y-45128180D01*
X56886819Y-42891137D01*
X56853334Y-42829814D01*
X56850500Y-42803456D01*
X56850500Y-41579500D01*
X56870185Y-41512461D01*
X56922989Y-41466706D01*
X56974500Y-41455500D01*
X65170500Y-41455500D01*
X65237539Y-41475185D01*
X65283294Y-41527989D01*
X65294500Y-41579500D01*
X65294500Y-43172185D01*
X65294934Y-43185457D01*
X65295000Y-43189481D01*
X65295000Y-43310523D01*
X65294934Y-43314539D01*
X65294500Y-43327816D01*
X65294500Y-43327831D01*
X65294500Y-44932243D01*
X65294734Y-44935812D01*
X65295000Y-44943925D01*
X65295000Y-45056073D01*
X65294734Y-45064185D01*
X65294500Y-45067754D01*
X65294500Y-54957451D01*
X65294706Y-54966679D01*
X65295206Y-54977804D01*
X65295207Y-54977808D01*
X65309313Y-55043931D01*
X65334933Y-55108933D01*
X65334934Y-55108935D01*
X65363908Y-55159747D01*
X67209612Y-57532795D01*
X67211602Y-57535166D01*
X67219411Y-57544472D01*
X67231713Y-57558076D01*
X67231718Y-57558080D01*
X67289967Y-57602898D01*
X67289972Y-57602901D01*
X67352079Y-57634919D01*
X67375075Y-57645046D01*
X67375076Y-57645046D01*
X67375078Y-57645047D01*
X67465772Y-57656829D01*
X67535326Y-57650187D01*
X67560155Y-57646272D01*
X67642822Y-57607152D01*
X67697743Y-57563962D01*
X67716516Y-57547243D01*
X67724047Y-57535165D01*
X67776223Y-57488698D01*
X67845240Y-57477815D01*
X67861345Y-57481003D01*
X67934108Y-57500500D01*
X67934111Y-57500500D01*
X68065890Y-57500500D01*
X68065892Y-57500500D01*
X68193186Y-57466392D01*
X68307314Y-57400500D01*
X68345995Y-57361819D01*
X68372922Y-57347115D01*
X68398741Y-57330523D01*
X68404941Y-57329631D01*
X68407318Y-57328334D01*
X68433676Y-57325500D01*
X68563811Y-57325500D01*
X68630850Y-57345185D01*
X68651492Y-57361819D01*
X74300138Y-63010465D01*
X74374361Y-63053318D01*
X74457147Y-63075500D01*
X83313811Y-63075500D01*
X83380850Y-63095185D01*
X83401492Y-63111819D01*
X84751138Y-64461465D01*
X84825361Y-64504318D01*
X84908147Y-64526500D01*
X84908149Y-64526500D01*
X87406439Y-64526500D01*
X87406441Y-64526500D01*
X87489227Y-64504318D01*
X87563450Y-64461465D01*
X87663096Y-64361819D01*
X87724419Y-64328334D01*
X87750777Y-64325500D01*
X93420500Y-64325500D01*
X93487539Y-64345185D01*
X93533294Y-64397989D01*
X93544500Y-64449500D01*
X93544500Y-66575500D01*
X93524815Y-66642539D01*
X93472011Y-66688294D01*
X93420500Y-66699500D01*
X92458676Y-66699500D01*
X92391637Y-66679815D01*
X92370995Y-66663181D01*
X92307316Y-66599502D01*
X92307314Y-66599500D01*
X92250250Y-66566554D01*
X92193187Y-66533608D01*
X92129539Y-66516554D01*
X92065892Y-66499500D01*
X91934108Y-66499500D01*
X91806812Y-66533608D01*
X91692686Y-66599500D01*
X91692683Y-66599502D01*
X91599502Y-66692683D01*
X91599500Y-66692686D01*
X91533608Y-66806812D01*
X91499500Y-66934108D01*
X91499500Y-67065891D01*
X91533608Y-67193187D01*
X91566554Y-67250250D01*
X91599500Y-67307314D01*
X91692686Y-67400500D01*
X91806814Y-67466392D01*
X91934108Y-67500500D01*
X91934110Y-67500500D01*
X92065890Y-67500500D01*
X92065892Y-67500500D01*
X92193186Y-67466392D01*
X92307314Y-67400500D01*
X92370995Y-67336819D01*
X92432318Y-67303334D01*
X92458676Y-67300500D01*
X93420500Y-67300500D01*
X93487539Y-67320185D01*
X93533294Y-67372989D01*
X93544500Y-67424500D01*
X93544500Y-68668295D01*
X93524815Y-68735334D01*
X93472011Y-68781089D01*
X93419673Y-68792292D01*
X86505393Y-68746197D01*
X86438487Y-68726066D01*
X86393085Y-68672958D01*
X86383603Y-68603735D01*
X86398833Y-68560199D01*
X86400496Y-68557317D01*
X86400500Y-68557314D01*
X86466392Y-68443186D01*
X86500500Y-68315892D01*
X86500500Y-68184108D01*
X86466392Y-68056814D01*
X86400500Y-67942686D01*
X86307314Y-67849500D01*
X86250250Y-67816554D01*
X86193187Y-67783608D01*
X86129539Y-67766554D01*
X86065892Y-67749500D01*
X85934108Y-67749500D01*
X85806812Y-67783608D01*
X85692686Y-67849500D01*
X85692683Y-67849502D01*
X85599502Y-67942683D01*
X85599498Y-67942689D01*
X85562795Y-68006258D01*
X85543090Y-68031937D01*
X84876594Y-68698433D01*
X84815271Y-68731918D01*
X84788086Y-68734749D01*
X76176709Y-68677339D01*
X76176698Y-68677340D01*
X76176697Y-68677340D01*
X76176694Y-68677340D01*
X76132309Y-68681887D01*
X76079974Y-68693090D01*
X76069130Y-68695721D01*
X76069122Y-68695724D01*
X75988419Y-68738729D01*
X75988413Y-68738733D01*
X75935604Y-68784492D01*
X75917660Y-68802074D01*
X75917656Y-68802079D01*
X75909380Y-68816875D01*
X75899915Y-68826147D01*
X75894331Y-68838164D01*
X75875439Y-68850127D01*
X75859471Y-68865772D01*
X75845175Y-68869292D01*
X75835302Y-68875545D01*
X75800334Y-68880335D01*
X75701933Y-68879679D01*
X75635027Y-68859548D01*
X75600432Y-68821501D01*
X75598741Y-68822647D01*
X75594839Y-68816885D01*
X75594835Y-68816877D01*
X75549433Y-68763769D01*
X75531962Y-68745699D01*
X75531959Y-68745697D01*
X75531957Y-68745695D01*
X75452450Y-68700522D01*
X75452444Y-68700520D01*
X75436495Y-68695721D01*
X75385543Y-68680390D01*
X75385540Y-68680389D01*
X75385538Y-68680389D01*
X75361810Y-68676816D01*
X75327702Y-68671680D01*
X75327699Y-68671679D01*
X75327697Y-68671679D01*
X72321861Y-68651640D01*
X72254955Y-68631509D01*
X72209553Y-68578401D01*
X72200071Y-68509178D01*
X72229518Y-68445817D01*
X72234990Y-68439979D01*
X74439152Y-66235819D01*
X74500475Y-66202334D01*
X74526833Y-66199500D01*
X74740503Y-66199500D01*
X74740505Y-66199500D01*
X74816932Y-66179021D01*
X74885454Y-66139460D01*
X74941403Y-66083511D01*
X76188095Y-64836819D01*
X76249418Y-64803334D01*
X76275776Y-64800500D01*
X76800273Y-64800500D01*
X76867312Y-64820185D01*
X76887954Y-64836819D01*
X76951635Y-64900500D01*
X77065763Y-64966392D01*
X77193057Y-65000500D01*
X77193059Y-65000500D01*
X77324839Y-65000500D01*
X77324841Y-65000500D01*
X77452135Y-64966392D01*
X77566263Y-64900500D01*
X77659449Y-64807314D01*
X77725341Y-64693186D01*
X77759449Y-64565892D01*
X77759449Y-64434108D01*
X77725341Y-64306814D01*
X77659449Y-64192686D01*
X77566263Y-64099500D01*
X77509199Y-64066554D01*
X77452136Y-64033608D01*
X77388488Y-64016554D01*
X77324841Y-63999500D01*
X77193057Y-63999500D01*
X77065761Y-64033608D01*
X76951635Y-64099500D01*
X76951632Y-64099502D01*
X76887954Y-64163181D01*
X76826631Y-64196666D01*
X76800273Y-64199500D01*
X76060381Y-64199500D01*
X75983953Y-64219978D01*
X75915432Y-64259540D01*
X75915429Y-64259542D01*
X74612791Y-65562181D01*
X74551468Y-65595666D01*
X74525110Y-65598500D01*
X74311438Y-65598500D01*
X74235010Y-65618978D01*
X74166489Y-65658540D01*
X74166486Y-65658542D01*
X71217654Y-68607373D01*
X71156331Y-68640858D01*
X71129146Y-68643689D01*
X56376210Y-68545336D01*
X56376181Y-68545337D01*
X56331823Y-68549881D01*
X56331811Y-68549883D01*
X56279482Y-68561084D01*
X56268628Y-68563718D01*
X56268626Y-68563719D01*
X56187916Y-68606728D01*
X56187913Y-68606730D01*
X56135104Y-68652489D01*
X56117160Y-68670071D01*
X56117154Y-68670078D01*
X56072511Y-68749888D01*
X56072509Y-68749893D01*
X56052826Y-68816925D01*
X56052825Y-68816930D01*
X56052825Y-68816931D01*
X56045297Y-68869292D01*
X56044500Y-68874832D01*
X56044500Y-72424863D01*
X56024815Y-72491902D01*
X55972011Y-72537657D01*
X55922153Y-72548852D01*
X55619602Y-72552886D01*
X55577319Y-72557860D01*
X55527450Y-72569059D01*
X55518633Y-72571245D01*
X55518621Y-72571249D01*
X55437919Y-72614254D01*
X55437913Y-72614258D01*
X55385104Y-72660017D01*
X55367160Y-72677599D01*
X55367154Y-72677606D01*
X55322511Y-72757416D01*
X55322509Y-72757421D01*
X55302826Y-72824453D01*
X55302825Y-72824458D01*
X55302825Y-72824459D01*
X55298125Y-72857151D01*
X55294500Y-72882360D01*
X55294500Y-80698638D01*
X55295678Y-80720618D01*
X55298511Y-80746965D01*
X55298512Y-80746967D01*
X55322470Y-80823478D01*
X55322471Y-80823483D01*
X55336872Y-80849855D01*
X55355956Y-80884805D01*
X55355958Y-80884808D01*
X55355960Y-80884811D01*
X55390998Y-80931615D01*
X55391002Y-80931619D01*
X55391009Y-80931629D01*
X55391016Y-80931636D01*
X62318365Y-87858986D01*
X62318366Y-87858987D01*
X62334716Y-87873674D01*
X62334730Y-87873686D01*
X62334738Y-87873693D01*
X62343136Y-87880460D01*
X62355379Y-87890327D01*
X62426424Y-87927490D01*
X62497713Y-87948423D01*
X62497235Y-87950048D01*
X62552310Y-87980109D01*
X62585806Y-88041426D01*
X62580835Y-88111118D01*
X62538974Y-88167059D01*
X62526651Y-88175189D01*
X62469711Y-88208064D01*
X62469708Y-88208065D01*
X62469703Y-88208069D01*
X62277263Y-88355733D01*
X62277256Y-88355739D01*
X62105739Y-88527256D01*
X62105733Y-88527263D01*
X61958067Y-88719706D01*
X61836777Y-88929785D01*
X61836773Y-88929794D01*
X61743947Y-89153895D01*
X61681161Y-89388214D01*
X61649500Y-89628711D01*
X61649500Y-89871288D01*
X61681161Y-90111785D01*
X61743947Y-90346104D01*
X61836773Y-90570205D01*
X61836776Y-90570212D01*
X61958064Y-90780289D01*
X61958066Y-90780292D01*
X61958067Y-90780293D01*
X62105733Y-90972736D01*
X62105739Y-90972743D01*
X62277256Y-91144260D01*
X62277262Y-91144265D01*
X62469711Y-91291936D01*
X62679788Y-91413224D01*
X62903900Y-91506054D01*
X63138211Y-91568838D01*
X63318586Y-91592584D01*
X63378711Y-91600500D01*
X63378712Y-91600500D01*
X63621289Y-91600500D01*
X63669388Y-91594167D01*
X63861789Y-91568838D01*
X64096100Y-91506054D01*
X64320212Y-91413224D01*
X64530289Y-91291936D01*
X64722738Y-91144265D01*
X64894265Y-90972738D01*
X65041936Y-90780289D01*
X65163224Y-90570212D01*
X65256054Y-90346100D01*
X65318838Y-90111789D01*
X65350500Y-89871288D01*
X65350500Y-89628712D01*
X65349320Y-89619752D01*
X65318838Y-89388214D01*
X65318838Y-89388211D01*
X65256054Y-89153900D01*
X65163224Y-88929788D01*
X65041936Y-88719711D01*
X64894265Y-88527262D01*
X64894260Y-88527256D01*
X64722743Y-88355739D01*
X64722736Y-88355733D01*
X64530296Y-88208069D01*
X64530294Y-88208067D01*
X64530289Y-88208064D01*
X64493606Y-88186885D01*
X64445393Y-88136319D01*
X64432171Y-88067712D01*
X64458139Y-88002848D01*
X64515053Y-87962320D01*
X64555609Y-87955500D01*
X68050500Y-87955500D01*
X68117539Y-87975185D01*
X68163294Y-88027989D01*
X68174500Y-88079500D01*
X68174500Y-89619752D01*
X68186131Y-89678229D01*
X68186132Y-89678230D01*
X68230447Y-89744552D01*
X68296769Y-89788867D01*
X68296770Y-89788868D01*
X68355247Y-89800499D01*
X68355250Y-89800500D01*
X68355252Y-89800500D01*
X70094750Y-89800500D01*
X70094751Y-89800499D01*
X70109568Y-89797552D01*
X70153229Y-89788868D01*
X70153229Y-89788867D01*
X70153231Y-89788867D01*
X70219552Y-89744552D01*
X70263867Y-89678231D01*
X70263867Y-89678229D01*
X70263868Y-89678229D01*
X70275499Y-89619752D01*
X70275500Y-89619750D01*
X70275500Y-88079500D01*
X70295185Y-88012461D01*
X70347989Y-87966706D01*
X70399500Y-87955500D01*
X71663948Y-87955500D01*
X71666978Y-87955351D01*
X71666980Y-87955398D01*
X71675111Y-87955000D01*
X71854889Y-87955000D01*
X71863019Y-87955398D01*
X71863022Y-87955351D01*
X71866052Y-87955500D01*
X74875500Y-87955500D01*
X74942539Y-87975185D01*
X74988294Y-88027989D01*
X74999500Y-88079500D01*
X74999500Y-99083259D01*
X74979815Y-99150298D01*
X74927011Y-99196053D01*
X74875500Y-99207259D01*
X73649521Y-99207259D01*
X73599464Y-99196706D01*
X73494287Y-99150298D01*
X72554337Y-98735555D01*
X72492824Y-98708413D01*
X72489841Y-98707050D01*
X71284823Y-98136817D01*
X71281878Y-98135375D01*
X70092406Y-97533498D01*
X70089500Y-97531979D01*
X68916329Y-96898843D01*
X68913464Y-96897247D01*
X67757500Y-96233340D01*
X67754678Y-96231670D01*
X66616614Y-95537390D01*
X66613837Y-95535645D01*
X65494560Y-94811533D01*
X65491830Y-94809715D01*
X64392067Y-94056240D01*
X64389387Y-94054351D01*
X63309982Y-93272093D01*
X63307352Y-93270134D01*
X62248973Y-92459576D01*
X62246396Y-92457548D01*
X61209808Y-91619277D01*
X61207286Y-91617181D01*
X60193275Y-90751831D01*
X60190809Y-90749670D01*
X59199998Y-89857776D01*
X59197590Y-89855550D01*
X58230734Y-88937789D01*
X58228385Y-88935500D01*
X57286119Y-87992474D01*
X57283832Y-87990124D01*
X57269674Y-87975185D01*
X56366831Y-87022510D01*
X56364607Y-87020100D01*
X55473511Y-86028572D01*
X55471352Y-86026104D01*
X54606820Y-85011397D01*
X54604726Y-85008873D01*
X53767290Y-83971611D01*
X53765264Y-83969032D01*
X53003128Y-82972216D01*
X52955556Y-82909995D01*
X52953616Y-82907387D01*
X52172209Y-81827326D01*
X52170322Y-81824644D01*
X51522149Y-80876942D01*
X51500551Y-80810494D01*
X51500500Y-80806940D01*
X51500500Y-58624500D01*
X51520185Y-58557461D01*
X51572989Y-58511706D01*
X51624500Y-58500500D01*
X56315890Y-58500500D01*
X56315892Y-58500500D01*
X56443186Y-58466392D01*
X56557314Y-58400500D01*
X56650500Y-58307314D01*
X56716392Y-58193186D01*
X56750500Y-58065892D01*
X56750500Y-47434256D01*
X56716392Y-47306962D01*
X56650500Y-47192834D01*
X56557314Y-47099648D01*
X56500250Y-47066702D01*
X56443187Y-47033756D01*
X56363062Y-47012287D01*
X56315892Y-46999648D01*
X56184108Y-46999648D01*
X56184107Y-46999648D01*
X43453346Y-46999651D01*
X43386307Y-46979966D01*
X43340552Y-46927162D01*
X43330189Y-46861217D01*
X43330465Y-46858863D01*
X43408835Y-46190165D01*
X43409257Y-46186944D01*
X43605517Y-44831865D01*
X43606043Y-44828563D01*
X43614380Y-44780289D01*
X43813243Y-43628711D01*
X45149500Y-43628711D01*
X45149500Y-43871288D01*
X45181161Y-44111785D01*
X45243947Y-44346104D01*
X45336773Y-44570205D01*
X45336776Y-44570212D01*
X45458064Y-44780289D01*
X45458066Y-44780292D01*
X45458067Y-44780293D01*
X45605733Y-44972736D01*
X45605739Y-44972743D01*
X45777256Y-45144260D01*
X45777263Y-45144266D01*
X45859909Y-45207682D01*
X45969711Y-45291936D01*
X46179788Y-45413224D01*
X46403900Y-45506054D01*
X46638211Y-45568838D01*
X46818586Y-45592584D01*
X46878711Y-45600500D01*
X46878712Y-45600500D01*
X47121289Y-45600500D01*
X47169388Y-45594167D01*
X47361789Y-45568838D01*
X47596100Y-45506054D01*
X47820212Y-45413224D01*
X48030289Y-45291936D01*
X48222738Y-45144265D01*
X48394265Y-44972738D01*
X48541936Y-44780289D01*
X48663224Y-44570212D01*
X48756054Y-44346100D01*
X48818838Y-44111789D01*
X48850500Y-43871288D01*
X48850500Y-43628712D01*
X48818838Y-43388211D01*
X48756054Y-43153900D01*
X48663224Y-42929788D01*
X48541936Y-42719711D01*
X48394265Y-42527262D01*
X48394260Y-42527256D01*
X48222743Y-42355739D01*
X48222736Y-42355733D01*
X48030293Y-42208067D01*
X48030292Y-42208066D01*
X48030289Y-42208064D01*
X47820212Y-42086776D01*
X47792992Y-42075501D01*
X47596104Y-41993947D01*
X47431578Y-41949862D01*
X47361789Y-41931162D01*
X47361788Y-41931161D01*
X47361785Y-41931161D01*
X47121289Y-41899500D01*
X47121288Y-41899500D01*
X46878712Y-41899500D01*
X46878711Y-41899500D01*
X46638214Y-41931161D01*
X46403895Y-41993947D01*
X46179794Y-42086773D01*
X46179785Y-42086777D01*
X45969706Y-42208067D01*
X45777263Y-42355733D01*
X45777256Y-42355739D01*
X45605739Y-42527256D01*
X45605733Y-42527263D01*
X45458067Y-42719706D01*
X45336777Y-42929785D01*
X45336773Y-42929794D01*
X45243947Y-43153895D01*
X45181161Y-43388214D01*
X45149500Y-43628711D01*
X43813243Y-43628711D01*
X43839015Y-43479468D01*
X43839629Y-43476179D01*
X43839682Y-43475917D01*
X44109174Y-42133857D01*
X44109875Y-42130597D01*
X44109947Y-42130284D01*
X44415791Y-40796060D01*
X44416554Y-40792927D01*
X44758617Y-39467160D01*
X44759499Y-39463927D01*
X44759609Y-39463545D01*
X45137436Y-38147991D01*
X45138379Y-38144868D01*
X45551939Y-36839635D01*
X45552965Y-36836542D01*
X46001824Y-35543039D01*
X46002929Y-35539986D01*
X46486788Y-34259077D01*
X46487967Y-34256081D01*
X47006416Y-32988854D01*
X47007705Y-32985822D01*
X47560384Y-31733150D01*
X47561758Y-31730149D01*
X48148256Y-30492963D01*
X48149675Y-30490072D01*
X48769603Y-29269201D01*
X48771088Y-29266372D01*
X49423937Y-28062819D01*
X49425529Y-28059977D01*
X50110833Y-26874597D01*
X50112499Y-26871804D01*
X50564875Y-26136194D01*
X50616760Y-26089401D01*
X50685708Y-26078087D01*
X50749827Y-26105845D01*
G37*
%TD.AperFunction*%
%TA.AperFunction,Conductor*%
G36*
X103819615Y-41462543D02*
G01*
X103844439Y-41465512D01*
X103852560Y-41472217D01*
X103862666Y-41475185D01*
X103879037Y-41494078D01*
X103898317Y-41509997D01*
X103901524Y-41520029D01*
X103908421Y-41527989D01*
X103911979Y-41552734D01*
X103919592Y-41576549D01*
X103917690Y-41592454D01*
X103918365Y-41597147D01*
X103915402Y-41611593D01*
X103899499Y-41670943D01*
X103899499Y-41839046D01*
X103899500Y-41839059D01*
X103899500Y-43329057D01*
X103939809Y-43479490D01*
X103940423Y-43481783D01*
X103940426Y-43481790D01*
X104019475Y-43618709D01*
X104019479Y-43618714D01*
X104019480Y-43618716D01*
X104131284Y-43730520D01*
X104131286Y-43730521D01*
X104131290Y-43730524D01*
X104268209Y-43809573D01*
X104268216Y-43809577D01*
X104420943Y-43850500D01*
X104420945Y-43850500D01*
X104579055Y-43850500D01*
X104579057Y-43850500D01*
X104638407Y-43834597D01*
X104708255Y-43836259D01*
X104766118Y-43875420D01*
X104793623Y-43939648D01*
X104794500Y-43954371D01*
X104794500Y-54376007D01*
X104799197Y-54419686D01*
X104810397Y-54471174D01*
X104812890Y-54481372D01*
X104812891Y-54481375D01*
X104855899Y-54562083D01*
X104855901Y-54562086D01*
X104901660Y-54614895D01*
X104919242Y-54632839D01*
X104919246Y-54632843D01*
X104919247Y-54632844D01*
X104919249Y-54632845D01*
X104950810Y-54650499D01*
X104999063Y-54677490D01*
X105066102Y-54697175D01*
X105124000Y-54705500D01*
X107358035Y-54705500D01*
X107425074Y-54725185D01*
X107470829Y-54777989D01*
X107480773Y-54847147D01*
X107451748Y-54910703D01*
X107445716Y-54917181D01*
X106639513Y-55723383D01*
X106639509Y-55723389D01*
X106580201Y-55826112D01*
X106580200Y-55826117D01*
X106580199Y-55826116D01*
X106559872Y-55901977D01*
X106527780Y-55957562D01*
X106455887Y-56029456D01*
X106455883Y-56029461D01*
X106379228Y-56144182D01*
X106379221Y-56144195D01*
X106326421Y-56271667D01*
X106326418Y-56271677D01*
X106299500Y-56407004D01*
X106299500Y-56407007D01*
X106299500Y-56544993D01*
X106299500Y-56544995D01*
X106299499Y-56544995D01*
X106326418Y-56680322D01*
X106326421Y-56680332D01*
X106379221Y-56807804D01*
X106379228Y-56807817D01*
X106455885Y-56922541D01*
X106455888Y-56922545D01*
X106553454Y-57020111D01*
X106553458Y-57020114D01*
X106668182Y-57096771D01*
X106668195Y-57096778D01*
X106765419Y-57137049D01*
X106795672Y-57149580D01*
X106795676Y-57149580D01*
X106795677Y-57149581D01*
X106931004Y-57176500D01*
X106931007Y-57176500D01*
X107068995Y-57176500D01*
X107160041Y-57158389D01*
X107204328Y-57149580D01*
X107331811Y-57096775D01*
X107446542Y-57020114D01*
X107544114Y-56922542D01*
X107620775Y-56807811D01*
X107673580Y-56680328D01*
X107698049Y-56557316D01*
X107700500Y-56544995D01*
X107700500Y-56407004D01*
X107673581Y-56271677D01*
X107673580Y-56271676D01*
X107673580Y-56271672D01*
X107635539Y-56179833D01*
X107620777Y-56144193D01*
X107619592Y-56141976D01*
X107619322Y-56140679D01*
X107618444Y-56138560D01*
X107618845Y-56138393D01*
X107605346Y-56073574D01*
X107630343Y-56008329D01*
X107641266Y-55995836D01*
X108895284Y-54741819D01*
X108956607Y-54708334D01*
X108982965Y-54705500D01*
X110875991Y-54705500D01*
X110876000Y-54705500D01*
X110919684Y-54700803D01*
X110948875Y-54694452D01*
X110971174Y-54689602D01*
X110971190Y-54689598D01*
X110971195Y-54689597D01*
X110981373Y-54687110D01*
X111062085Y-54644100D01*
X111114889Y-54598345D01*
X111132843Y-54580754D01*
X111172918Y-54509109D01*
X111222822Y-54460214D01*
X111291243Y-54446059D01*
X111305329Y-54448029D01*
X111317751Y-54450500D01*
X111317752Y-54450500D01*
X113262250Y-54450500D01*
X113262251Y-54450499D01*
X113277068Y-54447552D01*
X113320729Y-54438868D01*
X113320729Y-54438867D01*
X113320731Y-54438867D01*
X113387052Y-54394552D01*
X113431367Y-54328231D01*
X113431367Y-54328229D01*
X113431368Y-54328229D01*
X113442999Y-54269752D01*
X113443000Y-54269750D01*
X113443000Y-52329500D01*
X113462685Y-52262461D01*
X113515489Y-52216706D01*
X113567000Y-52205500D01*
X118586024Y-52205500D01*
X118653063Y-52225185D01*
X118698818Y-52277989D01*
X118708762Y-52347147D01*
X118679737Y-52410703D01*
X118673705Y-52417181D01*
X113388093Y-57702791D01*
X113326770Y-57736276D01*
X113257078Y-57731292D01*
X113224617Y-57713248D01*
X113223797Y-57712614D01*
X113144194Y-57667574D01*
X113077263Y-57647564D01*
X113077258Y-57647563D01*
X113060349Y-57645047D01*
X113019402Y-57638954D01*
X112396462Y-57635900D01*
X102498892Y-57587383D01*
X102431950Y-57567370D01*
X102386454Y-57514342D01*
X102375500Y-57463384D01*
X102375500Y-50208676D01*
X102395185Y-50141637D01*
X102411819Y-50120995D01*
X102439337Y-50093477D01*
X102475500Y-50057314D01*
X102541392Y-49943186D01*
X102575500Y-49815892D01*
X102575500Y-49684108D01*
X102541392Y-49556814D01*
X102475500Y-49442686D01*
X102382314Y-49349500D01*
X102325250Y-49316554D01*
X102268187Y-49283608D01*
X102204539Y-49266554D01*
X102140892Y-49249500D01*
X102009108Y-49249500D01*
X101881812Y-49283608D01*
X101767686Y-49349500D01*
X101767683Y-49349502D01*
X101668753Y-49448433D01*
X101666741Y-49446421D01*
X101621430Y-49479496D01*
X101551683Y-49483640D01*
X101490768Y-49449418D01*
X101458025Y-49387695D01*
X101455500Y-49362800D01*
X101455500Y-41579500D01*
X101475185Y-41512461D01*
X101527989Y-41466706D01*
X101579500Y-41455500D01*
X103795627Y-41455500D01*
X103819615Y-41462543D01*
G37*
%TD.AperFunction*%
%TA.AperFunction,Conductor*%
G36*
X133977882Y-22538793D02*
G01*
X134010829Y-22569768D01*
X134637771Y-23424497D01*
X134639727Y-23427240D01*
X135419227Y-24552842D01*
X135421107Y-24555638D01*
X136169717Y-25701956D01*
X136171512Y-25704789D01*
X136453827Y-26163862D01*
X136888703Y-26871017D01*
X136890429Y-26873910D01*
X137575696Y-28059226D01*
X137577342Y-28062165D01*
X138136361Y-29092740D01*
X138230141Y-29265626D01*
X138231697Y-29268590D01*
X138583459Y-29961341D01*
X138851580Y-30489372D01*
X138853060Y-30492389D01*
X138965047Y-30728618D01*
X139439532Y-31729518D01*
X139440934Y-31732581D01*
X139993601Y-32985223D01*
X139994919Y-32988324D01*
X140513346Y-34255496D01*
X140514574Y-34258620D01*
X140576113Y-34421530D01*
X140998394Y-35539426D01*
X140999541Y-35542593D01*
X141448379Y-36836034D01*
X141449440Y-36839231D01*
X141862979Y-38144399D01*
X141863953Y-38147624D01*
X142241885Y-39463545D01*
X142242771Y-39466795D01*
X142584823Y-40792514D01*
X142585620Y-40795787D01*
X142874800Y-42057316D01*
X142891527Y-42130284D01*
X142892233Y-42133571D01*
X143159634Y-43465213D01*
X143161784Y-43475917D01*
X143162402Y-43479229D01*
X143395375Y-44828333D01*
X143395904Y-44831660D01*
X143592159Y-46186693D01*
X143592596Y-46190033D01*
X143668502Y-46837709D01*
X143671240Y-46861066D01*
X143659493Y-46929941D01*
X143612374Y-46981532D01*
X143548083Y-46999500D01*
X130790519Y-46999500D01*
X130769273Y-46993261D01*
X130747185Y-46991682D01*
X130736401Y-46983609D01*
X130723480Y-46979815D01*
X130708980Y-46963081D01*
X130691252Y-46949810D01*
X130686544Y-46937189D01*
X130677725Y-46927011D01*
X130674573Y-46905093D01*
X130666835Y-46884346D01*
X130669697Y-46871185D01*
X130667781Y-46857853D01*
X130676980Y-46837709D01*
X130681687Y-46816073D01*
X130694955Y-46798347D01*
X130696806Y-46794297D01*
X130702838Y-46787819D01*
X130753838Y-46736819D01*
X130815161Y-46703334D01*
X130841519Y-46700500D01*
X132668996Y-46700500D01*
X132766990Y-46681007D01*
X132804328Y-46673580D01*
X132868069Y-46647177D01*
X132931807Y-46620777D01*
X132931808Y-46620776D01*
X132931811Y-46620775D01*
X133046543Y-46544114D01*
X135394114Y-44196543D01*
X135470775Y-44081811D01*
X135523580Y-43954328D01*
X135550500Y-43818993D01*
X135550500Y-43681006D01*
X135550500Y-43628711D01*
X138149500Y-43628711D01*
X138149500Y-43871288D01*
X138181161Y-44111785D01*
X138243947Y-44346104D01*
X138336773Y-44570205D01*
X138336776Y-44570212D01*
X138458064Y-44780289D01*
X138458066Y-44780292D01*
X138458067Y-44780293D01*
X138605733Y-44972736D01*
X138605739Y-44972743D01*
X138777256Y-45144260D01*
X138777263Y-45144266D01*
X138859909Y-45207682D01*
X138969711Y-45291936D01*
X139179788Y-45413224D01*
X139403900Y-45506054D01*
X139638211Y-45568838D01*
X139818586Y-45592584D01*
X139878711Y-45600500D01*
X139878712Y-45600500D01*
X140121289Y-45600500D01*
X140169388Y-45594167D01*
X140361789Y-45568838D01*
X140596100Y-45506054D01*
X140820212Y-45413224D01*
X141030289Y-45291936D01*
X141222738Y-45144265D01*
X141394265Y-44972738D01*
X141541936Y-44780289D01*
X141663224Y-44570212D01*
X141756054Y-44346100D01*
X141818838Y-44111789D01*
X141850500Y-43871288D01*
X141850500Y-43628712D01*
X141818838Y-43388211D01*
X141756054Y-43153900D01*
X141663224Y-42929788D01*
X141541936Y-42719711D01*
X141394265Y-42527262D01*
X141394260Y-42527256D01*
X141222743Y-42355739D01*
X141222736Y-42355733D01*
X141030293Y-42208067D01*
X141030292Y-42208066D01*
X141030289Y-42208064D01*
X140820212Y-42086776D01*
X140792992Y-42075501D01*
X140596104Y-41993947D01*
X140431578Y-41949862D01*
X140361789Y-41931162D01*
X140361788Y-41931161D01*
X140361785Y-41931161D01*
X140121289Y-41899500D01*
X140121288Y-41899500D01*
X139878712Y-41899500D01*
X139878711Y-41899500D01*
X139638214Y-41931161D01*
X139403895Y-41993947D01*
X139179794Y-42086773D01*
X139179785Y-42086777D01*
X138969706Y-42208067D01*
X138777263Y-42355733D01*
X138777256Y-42355739D01*
X138605739Y-42527256D01*
X138605733Y-42527263D01*
X138458067Y-42719706D01*
X138336777Y-42929785D01*
X138336773Y-42929794D01*
X138243947Y-43153895D01*
X138181161Y-43388214D01*
X138149500Y-43628711D01*
X135550500Y-43628711D01*
X135550500Y-28581007D01*
X135550500Y-28581004D01*
X135523581Y-28445677D01*
X135523580Y-28445676D01*
X135523580Y-28445672D01*
X135523578Y-28445667D01*
X135470778Y-28318195D01*
X135470771Y-28318182D01*
X135394114Y-28203458D01*
X135394111Y-28203454D01*
X135296545Y-28105888D01*
X135296541Y-28105885D01*
X135181817Y-28029228D01*
X135181804Y-28029221D01*
X135054332Y-27976421D01*
X135054322Y-27976418D01*
X134918995Y-27949500D01*
X134918993Y-27949500D01*
X134781007Y-27949500D01*
X134781005Y-27949500D01*
X134645677Y-27976418D01*
X134645667Y-27976421D01*
X134518195Y-28029221D01*
X134518182Y-28029228D01*
X134403458Y-28105885D01*
X134403454Y-28105888D01*
X134305888Y-28203454D01*
X134305885Y-28203458D01*
X134229228Y-28318182D01*
X134229221Y-28318195D01*
X134176421Y-28445667D01*
X134176418Y-28445677D01*
X134149500Y-28581004D01*
X134149500Y-43408481D01*
X134129815Y-43475520D01*
X134113181Y-43496162D01*
X132346162Y-45263181D01*
X132284839Y-45296666D01*
X132258481Y-45299500D01*
X130431003Y-45299500D01*
X130322590Y-45321065D01*
X130322589Y-45321065D01*
X130295671Y-45326420D01*
X130168190Y-45379224D01*
X130053454Y-45455887D01*
X129205887Y-46303454D01*
X129129222Y-46418192D01*
X129076421Y-46545667D01*
X129076418Y-46545679D01*
X129052050Y-46668186D01*
X129052049Y-46668191D01*
X129049500Y-46681002D01*
X129049500Y-47000134D01*
X129048903Y-47012287D01*
X129048500Y-47016379D01*
X129048500Y-57592918D01*
X129028815Y-57659957D01*
X128976011Y-57705712D01*
X128923892Y-57716916D01*
X128777017Y-57716197D01*
X116816158Y-57657564D01*
X116749216Y-57637551D01*
X116703720Y-57584523D01*
X116694116Y-57515317D01*
X116723452Y-57451904D01*
X116729070Y-57445899D01*
X121307469Y-52867500D01*
X121333143Y-52847800D01*
X121393372Y-52813028D01*
X121486558Y-52719842D01*
X121552450Y-52605714D01*
X121586558Y-52478420D01*
X121586558Y-52346636D01*
X121552450Y-52219342D01*
X121486558Y-52105214D01*
X121393372Y-52012028D01*
X121323872Y-51971902D01*
X121275657Y-51921334D01*
X121262435Y-51852727D01*
X121288403Y-51787863D01*
X121298182Y-51776844D01*
X121837820Y-51237207D01*
X121899142Y-51203723D01*
X121968834Y-51208707D01*
X122024767Y-51250579D01*
X122049184Y-51316043D01*
X122049500Y-51324889D01*
X122049500Y-52489562D01*
X122063152Y-52540513D01*
X122069979Y-52565990D01*
X122069980Y-52565991D01*
X122092914Y-52605714D01*
X122109540Y-52634511D01*
X122109542Y-52634513D01*
X122913181Y-53438152D01*
X122946666Y-53499475D01*
X122949500Y-53525833D01*
X122949500Y-53615892D01*
X122966554Y-53679539D01*
X122983608Y-53743187D01*
X123016554Y-53800250D01*
X123049500Y-53857314D01*
X123142686Y-53950500D01*
X123256814Y-54016392D01*
X123384108Y-54050500D01*
X123384110Y-54050500D01*
X123425500Y-54050500D01*
X123492539Y-54070185D01*
X123538294Y-54122989D01*
X123549500Y-54174500D01*
X123549500Y-54215891D01*
X123583608Y-54343187D01*
X123602553Y-54376000D01*
X123649500Y-54457314D01*
X123742686Y-54550500D01*
X123856814Y-54616392D01*
X123984108Y-54650500D01*
X123984110Y-54650500D01*
X124115890Y-54650500D01*
X124115892Y-54650500D01*
X124243186Y-54616392D01*
X124357314Y-54550500D01*
X124450500Y-54457314D01*
X124516392Y-54343186D01*
X124550500Y-54215892D01*
X124550500Y-54084108D01*
X124516392Y-53956814D01*
X124450500Y-53842686D01*
X124387819Y-53780005D01*
X124354334Y-53718682D01*
X124351500Y-53692324D01*
X124351500Y-53261496D01*
X124331020Y-53185066D01*
X124331017Y-53185061D01*
X124291464Y-53116552D01*
X124291458Y-53116544D01*
X123336819Y-52161905D01*
X123303334Y-52100582D01*
X123300500Y-52074224D01*
X123300500Y-42208676D01*
X123320185Y-42141637D01*
X123336819Y-42120995D01*
X123362629Y-42095185D01*
X123400500Y-42057314D01*
X123466392Y-41943186D01*
X123500500Y-41815892D01*
X123500500Y-41684108D01*
X123479462Y-41605592D01*
X123481125Y-41535743D01*
X123520288Y-41477881D01*
X123584516Y-41450377D01*
X123599237Y-41449500D01*
X125366889Y-41449500D01*
X125433928Y-41469185D01*
X125454570Y-41485819D01*
X126362812Y-42394061D01*
X126418761Y-42450010D01*
X126418763Y-42450011D01*
X126418767Y-42450014D01*
X126487276Y-42489567D01*
X126487283Y-42489571D01*
X126563710Y-42510050D01*
X126563712Y-42510050D01*
X130378759Y-42510050D01*
X130378761Y-42510050D01*
X130455188Y-42489571D01*
X130523710Y-42450010D01*
X130579659Y-42394061D01*
X131790518Y-41183201D01*
X131851839Y-41149718D01*
X131921531Y-41154702D01*
X131940197Y-41163497D01*
X132031814Y-41216392D01*
X132159108Y-41250500D01*
X132159110Y-41250500D01*
X132290890Y-41250500D01*
X132290892Y-41250500D01*
X132418186Y-41216392D01*
X132532314Y-41150500D01*
X132625500Y-41057314D01*
X132691392Y-40943186D01*
X132725500Y-40815892D01*
X132725500Y-40684108D01*
X132691392Y-40556814D01*
X132688779Y-40552289D01*
X132664098Y-40509540D01*
X132625500Y-40442686D01*
X132532314Y-40349500D01*
X132475250Y-40316554D01*
X132418187Y-40283608D01*
X132354539Y-40266554D01*
X132290892Y-40249500D01*
X132159108Y-40249500D01*
X132031812Y-40283608D01*
X131917686Y-40349500D01*
X131917683Y-40349502D01*
X131854005Y-40413181D01*
X131805275Y-40443223D01*
X131786304Y-40449500D01*
X131759187Y-40449500D01*
X131682760Y-40469979D01*
X131637841Y-40495913D01*
X131626852Y-40502257D01*
X131626847Y-40502259D01*
X131614241Y-40509537D01*
X131614236Y-40509541D01*
X130251047Y-41872731D01*
X130189724Y-41906216D01*
X130163366Y-41909050D01*
X129490636Y-41909050D01*
X129423597Y-41889365D01*
X129377842Y-41836561D01*
X129367898Y-41767403D01*
X129383248Y-41723051D01*
X129398794Y-41696123D01*
X129398795Y-41696122D01*
X129432903Y-41568828D01*
X129432903Y-41437044D01*
X129398795Y-41309750D01*
X129332903Y-41195622D01*
X129239717Y-41102436D01*
X129161562Y-41057313D01*
X129125590Y-41036544D01*
X129061942Y-41019490D01*
X128998295Y-41002436D01*
X128866511Y-41002436D01*
X128739215Y-41036544D01*
X128625089Y-41102436D01*
X128625086Y-41102438D01*
X128561408Y-41166117D01*
X128500085Y-41199602D01*
X128473727Y-41202436D01*
X126928769Y-41202436D01*
X126861730Y-41182751D01*
X126841088Y-41166117D01*
X126400867Y-40725896D01*
X126367382Y-40664573D01*
X126372366Y-40594881D01*
X126403859Y-40552289D01*
X126401567Y-40549997D01*
X126449305Y-40502259D01*
X126500500Y-40451064D01*
X126566392Y-40336936D01*
X126600500Y-40209642D01*
X126600500Y-40077858D01*
X126566392Y-39950564D01*
X126500500Y-39836436D01*
X126407314Y-39743250D01*
X126350250Y-39710304D01*
X126293187Y-39677358D01*
X126229539Y-39660304D01*
X126165892Y-39643250D01*
X126034108Y-39643250D01*
X125906812Y-39677358D01*
X125792686Y-39743250D01*
X125722754Y-39813182D01*
X125661430Y-39846666D01*
X125635073Y-39849500D01*
X121579500Y-39849500D01*
X121512461Y-39829815D01*
X121466706Y-39777011D01*
X121455500Y-39725500D01*
X121455500Y-34421530D01*
X125949500Y-34421530D01*
X125949500Y-34878469D01*
X125989868Y-35081412D01*
X125989870Y-35081420D01*
X126069058Y-35272596D01*
X126184024Y-35444657D01*
X126330342Y-35590975D01*
X126330345Y-35590977D01*
X126502402Y-35705941D01*
X126693580Y-35785130D01*
X126896530Y-35825499D01*
X126896534Y-35825500D01*
X126896535Y-35825500D01*
X127103466Y-35825500D01*
X127103467Y-35825499D01*
X127306420Y-35785130D01*
X127497598Y-35705941D01*
X127669655Y-35590977D01*
X127815977Y-35444655D01*
X127930941Y-35272598D01*
X128010130Y-35081420D01*
X128050500Y-34878465D01*
X128050500Y-34421535D01*
X128050499Y-34421530D01*
X128449500Y-34421530D01*
X128449500Y-34878469D01*
X128489868Y-35081412D01*
X128489870Y-35081420D01*
X128569058Y-35272596D01*
X128684024Y-35444657D01*
X128830342Y-35590975D01*
X128830345Y-35590977D01*
X129002402Y-35705941D01*
X129193580Y-35785130D01*
X129396530Y-35825499D01*
X129396534Y-35825500D01*
X129396535Y-35825500D01*
X129603466Y-35825500D01*
X129603467Y-35825499D01*
X129806420Y-35785130D01*
X129997598Y-35705941D01*
X130169655Y-35590977D01*
X130315977Y-35444655D01*
X130430941Y-35272598D01*
X130510130Y-35081420D01*
X130550500Y-34878465D01*
X130550500Y-34421535D01*
X130550499Y-34421530D01*
X130949500Y-34421530D01*
X130949500Y-34878469D01*
X130989868Y-35081412D01*
X130989870Y-35081420D01*
X131069058Y-35272596D01*
X131184024Y-35444657D01*
X131330342Y-35590975D01*
X131330345Y-35590977D01*
X131502402Y-35705941D01*
X131693580Y-35785130D01*
X131896530Y-35825499D01*
X131896534Y-35825500D01*
X131896535Y-35825500D01*
X132103466Y-35825500D01*
X132103467Y-35825499D01*
X132306420Y-35785130D01*
X132497598Y-35705941D01*
X132669655Y-35590977D01*
X132815977Y-35444655D01*
X132930941Y-35272598D01*
X133010130Y-35081420D01*
X133050500Y-34878465D01*
X133050500Y-34421535D01*
X133010130Y-34218580D01*
X132930941Y-34027402D01*
X132815977Y-33855345D01*
X132815975Y-33855342D01*
X132669657Y-33709024D01*
X132583626Y-33651541D01*
X132497598Y-33594059D01*
X132306420Y-33514870D01*
X132306412Y-33514868D01*
X132103469Y-33474500D01*
X132103465Y-33474500D01*
X131896535Y-33474500D01*
X131896530Y-33474500D01*
X131693587Y-33514868D01*
X131693579Y-33514870D01*
X131502403Y-33594058D01*
X131330342Y-33709024D01*
X131184024Y-33855342D01*
X131069058Y-34027403D01*
X130989870Y-34218579D01*
X130989868Y-34218587D01*
X130949500Y-34421530D01*
X130550499Y-34421530D01*
X130510130Y-34218580D01*
X130430941Y-34027402D01*
X130315977Y-33855345D01*
X130315975Y-33855342D01*
X130169657Y-33709024D01*
X130083626Y-33651541D01*
X129997598Y-33594059D01*
X129806420Y-33514870D01*
X129806412Y-33514868D01*
X129603469Y-33474500D01*
X129603465Y-33474500D01*
X129396535Y-33474500D01*
X129396530Y-33474500D01*
X129193587Y-33514868D01*
X129193579Y-33514870D01*
X129002403Y-33594058D01*
X128830342Y-33709024D01*
X128684024Y-33855342D01*
X128569058Y-34027403D01*
X128489870Y-34218579D01*
X128489868Y-34218587D01*
X128449500Y-34421530D01*
X128050499Y-34421530D01*
X128010130Y-34218580D01*
X127930941Y-34027402D01*
X127815977Y-33855345D01*
X127815975Y-33855342D01*
X127669657Y-33709024D01*
X127583626Y-33651541D01*
X127497598Y-33594059D01*
X127306420Y-33514870D01*
X127306412Y-33514868D01*
X127103469Y-33474500D01*
X127103465Y-33474500D01*
X126896535Y-33474500D01*
X126896530Y-33474500D01*
X126693587Y-33514868D01*
X126693579Y-33514870D01*
X126502403Y-33594058D01*
X126330342Y-33709024D01*
X126184024Y-33855342D01*
X126069058Y-34027403D01*
X125989870Y-34218579D01*
X125989868Y-34218587D01*
X125949500Y-34421530D01*
X121455500Y-34421530D01*
X121455500Y-22643117D01*
X121475185Y-22576078D01*
X121527989Y-22530323D01*
X121579495Y-22519117D01*
X133910843Y-22519108D01*
X133977882Y-22538793D01*
G37*
%TD.AperFunction*%
%TD*%
%TA.AperFunction,Conductor*%
%TO.N,V_SUPPLY*%
G36*
X121228326Y-22540792D02*
G01*
X121250000Y-22593118D01*
X121250000Y-40044377D01*
X121228326Y-40096703D01*
X120509540Y-40815488D01*
X120469979Y-40884009D01*
X120469977Y-40884014D01*
X120449500Y-40960435D01*
X120449500Y-41058217D01*
X120427826Y-41110543D01*
X120375500Y-41132217D01*
X120335893Y-41118811D01*
X120335373Y-41119741D01*
X120316539Y-41109206D01*
X120250937Y-41072510D01*
X120250939Y-41072510D01*
X120183901Y-41052825D01*
X120183896Y-41052824D01*
X120126002Y-41044500D01*
X120126000Y-41044500D01*
X117374000Y-41044500D01*
X117373999Y-41044500D01*
X117330315Y-41049197D01*
X117278784Y-41060407D01*
X117268629Y-41062888D01*
X117268627Y-41062889D01*
X117187916Y-41105899D01*
X117187912Y-41105901D01*
X117135115Y-41151651D01*
X117117155Y-41169248D01*
X117072510Y-41249061D01*
X117052825Y-41316098D01*
X117052824Y-41316103D01*
X117044500Y-41373997D01*
X117044500Y-43134228D01*
X117022826Y-43186554D01*
X116686554Y-43522826D01*
X116634228Y-43544500D01*
X114574000Y-43544500D01*
X114521674Y-43522826D01*
X114500000Y-43470500D01*
X114500000Y-41250000D01*
X109471602Y-41250000D01*
X109461229Y-41245703D01*
X109450056Y-41246794D01*
X109436039Y-41235269D01*
X109419276Y-41228326D01*
X109406308Y-41210824D01*
X109405508Y-41209324D01*
X109400008Y-41152954D01*
X109435978Y-41109206D01*
X109470802Y-41100500D01*
X109579059Y-41100500D01*
X109579059Y-41100499D01*
X109731784Y-41059577D01*
X109868716Y-40980520D01*
X109980520Y-40868716D01*
X110059577Y-40731784D01*
X110100499Y-40579059D01*
X110100500Y-40579059D01*
X110100500Y-40420941D01*
X110100499Y-40420940D01*
X110081738Y-40350924D01*
X110059577Y-40268216D01*
X109980520Y-40131284D01*
X109868716Y-40019480D01*
X109731784Y-39940423D01*
X109731781Y-39940422D01*
X109731779Y-39940421D01*
X109579059Y-39899500D01*
X109579057Y-39899500D01*
X105833603Y-39899500D01*
X105833587Y-39899499D01*
X105829057Y-39899499D01*
X105670943Y-39899499D01*
X105670941Y-39899499D01*
X105518218Y-39940421D01*
X105518209Y-39940425D01*
X105507187Y-39946790D01*
X105507184Y-39946792D01*
X105381283Y-40019480D01*
X104172438Y-41228326D01*
X104120112Y-41250000D01*
X101471602Y-41250000D01*
X101419276Y-41228326D01*
X101406296Y-41210801D01*
X101394101Y-41187916D01*
X101394098Y-41187912D01*
X101362677Y-41151651D01*
X101348345Y-41135111D01*
X101330754Y-41117157D01*
X101330751Y-41117155D01*
X101250937Y-41072510D01*
X101250939Y-41072510D01*
X101183901Y-41052825D01*
X101183896Y-41052824D01*
X101126002Y-41044500D01*
X101126000Y-41044500D01*
X98374000Y-41044500D01*
X98373999Y-41044500D01*
X98330315Y-41049197D01*
X98278784Y-41060407D01*
X98268629Y-41062888D01*
X98268627Y-41062889D01*
X98187916Y-41105899D01*
X98187912Y-41105901D01*
X98135115Y-41151651D01*
X98117155Y-41169248D01*
X98072510Y-41249061D01*
X98052825Y-41316098D01*
X98052824Y-41316103D01*
X98044500Y-41373997D01*
X98044500Y-43134228D01*
X98022826Y-43186554D01*
X97686554Y-43522826D01*
X97634228Y-43544500D01*
X95574000Y-43544500D01*
X95521674Y-43522826D01*
X95500000Y-43470500D01*
X95500000Y-41250000D01*
X90529500Y-41250000D01*
X90477174Y-41228326D01*
X90455500Y-41176000D01*
X90455500Y-41074499D01*
X90454252Y-41062890D01*
X90450803Y-41030816D01*
X90450801Y-41030805D01*
X90450486Y-41028857D01*
X90451263Y-41028731D01*
X90460902Y-40975290D01*
X90504001Y-40943817D01*
X90631785Y-40909577D01*
X90707283Y-40865988D01*
X90768716Y-40830520D01*
X90880520Y-40718716D01*
X90880521Y-40718713D01*
X90980519Y-40618716D01*
X91059576Y-40481785D01*
X91100499Y-40329060D01*
X91100500Y-40329060D01*
X91100500Y-40170941D01*
X91100499Y-40170940D01*
X91095330Y-40151651D01*
X91083071Y-40105899D01*
X91059577Y-40018218D01*
X91029134Y-39965489D01*
X90980519Y-39881284D01*
X90868716Y-39769481D01*
X90735702Y-39692686D01*
X90731781Y-39690422D01*
X90579059Y-39649500D01*
X90579057Y-39649500D01*
X90420942Y-39649500D01*
X90420940Y-39649500D01*
X90268218Y-39690422D01*
X90268213Y-39690424D01*
X90183064Y-39739586D01*
X90146064Y-39749500D01*
X86926554Y-39749500D01*
X86926538Y-39749499D01*
X86922008Y-39749499D01*
X86763893Y-39749499D01*
X86763891Y-39749499D01*
X86611168Y-39790421D01*
X86474233Y-39869480D01*
X85500000Y-40843713D01*
X85500000Y-40250000D01*
X82500000Y-40250000D01*
X82500000Y-41250000D01*
X82471602Y-41250000D01*
X82419276Y-41228326D01*
X82406296Y-41210801D01*
X82394101Y-41187916D01*
X82394098Y-41187912D01*
X82362677Y-41151651D01*
X82348345Y-41135111D01*
X82330754Y-41117157D01*
X82330751Y-41117155D01*
X82250937Y-41072510D01*
X82250939Y-41072510D01*
X82183901Y-41052825D01*
X82183896Y-41052824D01*
X82126002Y-41044500D01*
X82126000Y-41044500D01*
X79374000Y-41044500D01*
X79373999Y-41044500D01*
X79330315Y-41049197D01*
X79278784Y-41060407D01*
X79268629Y-41062888D01*
X79268627Y-41062889D01*
X79187916Y-41105899D01*
X79187912Y-41105901D01*
X79135115Y-41151651D01*
X79117155Y-41169248D01*
X79072510Y-41249061D01*
X79052825Y-41316098D01*
X79052824Y-41316103D01*
X79044500Y-41373997D01*
X79044500Y-43134228D01*
X79022826Y-43186554D01*
X78686554Y-43522826D01*
X78634228Y-43544500D01*
X76574000Y-43544500D01*
X76521674Y-43522826D01*
X76500000Y-43470500D01*
X76500000Y-41250000D01*
X71529500Y-41250000D01*
X71477174Y-41228326D01*
X71455500Y-41176000D01*
X71455500Y-40474500D01*
X71452919Y-40450500D01*
X71450974Y-40432410D01*
X71466929Y-40378069D01*
X71516638Y-40350924D01*
X71524550Y-40350500D01*
X71829059Y-40350500D01*
X71829059Y-40350499D01*
X71981784Y-40309577D01*
X72118716Y-40230520D01*
X72230520Y-40118716D01*
X72309577Y-39981784D01*
X72350499Y-39829059D01*
X72350500Y-39829059D01*
X72350500Y-39670941D01*
X72350499Y-39670940D01*
X72311880Y-39526813D01*
X72309577Y-39518216D01*
X72230520Y-39381284D01*
X72118716Y-39269480D01*
X71981784Y-39190423D01*
X71981781Y-39190422D01*
X71981779Y-39190421D01*
X71829059Y-39149500D01*
X71829057Y-39149500D01*
X68279388Y-39149500D01*
X68227062Y-39127826D01*
X67868715Y-38769479D01*
X67781904Y-38719360D01*
X67781902Y-38719359D01*
X67731788Y-38690424D01*
X67731781Y-38690421D01*
X67579059Y-38649499D01*
X67579057Y-38649499D01*
X67420943Y-38649499D01*
X67416413Y-38649499D01*
X67416397Y-38649500D01*
X66420941Y-38649500D01*
X66268220Y-38690421D01*
X66268214Y-38690424D01*
X66131283Y-38769480D01*
X66019480Y-38881283D01*
X65940424Y-39018214D01*
X65940421Y-39018220D01*
X65899500Y-39170940D01*
X65899500Y-39329059D01*
X65940421Y-39481779D01*
X65940422Y-39481781D01*
X65940423Y-39481784D01*
X66019480Y-39618716D01*
X66131284Y-39730520D01*
X66268216Y-39809577D01*
X66420940Y-39850499D01*
X66420941Y-39850500D01*
X66420943Y-39850500D01*
X67220614Y-39850500D01*
X67231144Y-39854862D01*
X67272939Y-39872174D01*
X67272939Y-39872175D01*
X67324827Y-39924064D01*
X67346501Y-39976390D01*
X67324826Y-40028715D01*
X67287542Y-40047814D01*
X67287752Y-40048776D01*
X67285817Y-40049196D01*
X67285816Y-40049197D01*
X67275521Y-40051436D01*
X67234284Y-40060407D01*
X67224129Y-40062888D01*
X67224127Y-40062889D01*
X67143416Y-40105899D01*
X67143412Y-40105901D01*
X67090615Y-40151651D01*
X67072655Y-40169248D01*
X67028010Y-40249061D01*
X67008325Y-40316098D01*
X67008324Y-40316103D01*
X67000000Y-40373997D01*
X67000000Y-40000000D01*
X65500000Y-40000000D01*
X65500000Y-41250000D01*
X56924500Y-41250000D01*
X56872174Y-41228326D01*
X56850500Y-41176000D01*
X56850500Y-40707965D01*
X56872174Y-40655639D01*
X56900500Y-40627313D01*
X56966392Y-40513185D01*
X56987581Y-40434105D01*
X57999500Y-40434105D01*
X57999500Y-40565894D01*
X58033606Y-40693181D01*
X58033610Y-40693190D01*
X58080329Y-40774109D01*
X58099500Y-40807314D01*
X58192686Y-40900500D01*
X58306814Y-40966392D01*
X58434105Y-41000499D01*
X58434106Y-41000500D01*
X58434108Y-41000500D01*
X58565894Y-41000500D01*
X58565894Y-41000499D01*
X58693186Y-40966392D01*
X58703542Y-40960412D01*
X58740540Y-40950500D01*
X62809309Y-40950500D01*
X62899673Y-40926286D01*
X62899674Y-40926286D01*
X62910350Y-40923425D01*
X62923887Y-40919799D01*
X63026614Y-40860489D01*
X63398466Y-40488636D01*
X63431637Y-40469486D01*
X63443186Y-40466392D01*
X63557314Y-40400500D01*
X63650500Y-40307314D01*
X63716392Y-40193186D01*
X63750499Y-40065894D01*
X63750500Y-40065894D01*
X63750500Y-39934106D01*
X63750499Y-39934105D01*
X63746585Y-39919499D01*
X63716392Y-39806814D01*
X63650500Y-39692686D01*
X63557314Y-39599500D01*
X63443190Y-39533610D01*
X63443181Y-39533606D01*
X63315894Y-39499500D01*
X63315892Y-39499500D01*
X63184108Y-39499500D01*
X63184106Y-39499500D01*
X63056818Y-39533606D01*
X63056809Y-39533610D01*
X62942685Y-39599500D01*
X62849500Y-39692685D01*
X62783606Y-39806815D01*
X62780511Y-39818366D01*
X62761360Y-39851533D01*
X62585071Y-40027825D01*
X62532746Y-40049500D01*
X58740540Y-40049500D01*
X58703542Y-40039587D01*
X58693186Y-40033608D01*
X58693182Y-40033607D01*
X58693181Y-40033606D01*
X58565894Y-39999500D01*
X58565892Y-39999500D01*
X58434108Y-39999500D01*
X58434106Y-39999500D01*
X58306818Y-40033606D01*
X58306809Y-40033610D01*
X58192685Y-40099500D01*
X58099500Y-40192685D01*
X58033610Y-40306809D01*
X58033606Y-40306818D01*
X57999500Y-40434105D01*
X56987581Y-40434105D01*
X57000500Y-40385891D01*
X57000500Y-40254107D01*
X57000500Y-40254105D01*
X57000499Y-40254104D01*
X56967590Y-40131286D01*
X56966392Y-40126813D01*
X56900500Y-40012685D01*
X56807314Y-39919499D01*
X56721543Y-39869979D01*
X56693190Y-39853609D01*
X56693181Y-39853605D01*
X56565894Y-39819499D01*
X56565892Y-39819499D01*
X56434108Y-39819499D01*
X56343652Y-39843736D01*
X56287500Y-39836343D01*
X56253021Y-39791409D01*
X56250500Y-39772257D01*
X56250500Y-39654105D01*
X56250499Y-39654104D01*
X56249265Y-39649500D01*
X56216392Y-39526813D01*
X56150500Y-39412685D01*
X56057314Y-39319499D01*
X55970679Y-39269480D01*
X55943190Y-39253609D01*
X55943181Y-39253605D01*
X55815894Y-39219499D01*
X55815892Y-39219499D01*
X55684108Y-39219499D01*
X55684106Y-39219499D01*
X55556818Y-39253605D01*
X55556809Y-39253609D01*
X55442685Y-39319499D01*
X55349500Y-39412684D01*
X55283610Y-39526808D01*
X55283606Y-39526817D01*
X55249500Y-39654104D01*
X55249500Y-39785893D01*
X55283606Y-39913180D01*
X55283610Y-39913189D01*
X55349500Y-40027313D01*
X55377826Y-40055639D01*
X55399500Y-40107965D01*
X55399500Y-41176000D01*
X55377826Y-41228326D01*
X55325500Y-41250000D01*
X51676390Y-41250000D01*
X51624064Y-41228326D01*
X51506281Y-41110543D01*
X51222174Y-40826435D01*
X51200500Y-40774109D01*
X51200500Y-39290479D01*
X51222174Y-39238153D01*
X52997697Y-37462630D01*
X84970975Y-37462630D01*
X84970975Y-37594419D01*
X85005081Y-37721706D01*
X85005082Y-37721709D01*
X85005083Y-37721711D01*
X85070975Y-37835839D01*
X85164161Y-37929025D01*
X85278289Y-37994917D01*
X85405580Y-38029024D01*
X85405581Y-38029025D01*
X85405583Y-38029025D01*
X85537369Y-38029025D01*
X85537369Y-38029024D01*
X85664661Y-37994917D01*
X85778789Y-37929025D01*
X85871975Y-37835839D01*
X85937867Y-37721711D01*
X85971974Y-37594419D01*
X85971975Y-37594419D01*
X85971975Y-37483647D01*
X85993649Y-37431321D01*
X86152796Y-37272174D01*
X86205122Y-37250500D01*
X86315894Y-37250500D01*
X86315894Y-37250499D01*
X86443186Y-37216392D01*
X86557314Y-37150500D01*
X86650500Y-37057314D01*
X86716392Y-36943186D01*
X86750499Y-36815894D01*
X86750500Y-36815894D01*
X86750500Y-36684106D01*
X86750499Y-36684105D01*
X86716393Y-36556818D01*
X86716392Y-36556814D01*
X86650500Y-36442686D01*
X86557314Y-36349500D01*
X86443190Y-36283610D01*
X86443181Y-36283606D01*
X86315894Y-36249500D01*
X86315892Y-36249500D01*
X86184108Y-36249500D01*
X86184106Y-36249500D01*
X86056818Y-36283606D01*
X86056809Y-36283610D01*
X85942685Y-36349500D01*
X85849500Y-36442685D01*
X85783610Y-36556809D01*
X85783606Y-36556818D01*
X85749500Y-36684105D01*
X85749500Y-36794876D01*
X85727826Y-36847202D01*
X85568677Y-37006351D01*
X85516351Y-37028025D01*
X85405581Y-37028025D01*
X85278293Y-37062131D01*
X85278284Y-37062135D01*
X85164160Y-37128025D01*
X85070975Y-37221210D01*
X85005085Y-37335334D01*
X85005081Y-37335343D01*
X84970975Y-37462630D01*
X52997697Y-37462630D01*
X56263623Y-34196704D01*
X104517100Y-34196704D01*
X104517100Y-34334687D01*
X104544018Y-34470018D01*
X104544021Y-34470028D01*
X104596823Y-34597504D01*
X104668200Y-34704328D01*
X104673486Y-34712238D01*
X104771058Y-34809810D01*
X104885789Y-34886471D01*
X104885790Y-34886471D01*
X104885791Y-34886472D01*
X105000788Y-34934105D01*
X105013272Y-34939276D01*
X105148607Y-34966196D01*
X105148609Y-34966196D01*
X105286591Y-34966196D01*
X105286593Y-34966196D01*
X105421928Y-34939276D01*
X105549411Y-34886471D01*
X105664142Y-34809810D01*
X105761714Y-34712238D01*
X105837321Y-34599083D01*
X105884413Y-34567618D01*
X105898850Y-34566196D01*
X111610573Y-34566196D01*
X111662899Y-34587870D01*
X113055797Y-35980768D01*
X113077471Y-36033094D01*
X113076049Y-36047530D01*
X113049500Y-36181007D01*
X113049500Y-36318991D01*
X113076418Y-36454322D01*
X113076421Y-36454332D01*
X113129223Y-36581808D01*
X113197576Y-36684106D01*
X113205886Y-36696542D01*
X113303458Y-36794114D01*
X113418189Y-36870775D01*
X113545672Y-36923580D01*
X113681007Y-36950500D01*
X113681009Y-36950500D01*
X113818991Y-36950500D01*
X113818993Y-36950500D01*
X113954328Y-36923580D01*
X114081811Y-36870775D01*
X114196542Y-36794114D01*
X114294114Y-36696542D01*
X114370775Y-36581811D01*
X114423580Y-36454328D01*
X114450500Y-36318993D01*
X114450500Y-36181007D01*
X114423580Y-36045672D01*
X114370775Y-35918189D01*
X114294114Y-35803458D01*
X114196542Y-35705886D01*
X114081811Y-35629225D01*
X114081810Y-35629224D01*
X114081808Y-35629223D01*
X113954332Y-35576421D01*
X113954322Y-35576418D01*
X113863694Y-35558391D01*
X113818993Y-35549500D01*
X113681007Y-35549500D01*
X113547530Y-35576049D01*
X113491981Y-35564999D01*
X113480768Y-35555797D01*
X111950207Y-34025236D01*
X111939191Y-34018876D01*
X111881686Y-33985675D01*
X111881681Y-33985673D01*
X111805260Y-33965196D01*
X111805258Y-33965196D01*
X105898850Y-33965196D01*
X105846524Y-33943522D01*
X105837321Y-33932308D01*
X105761716Y-33819157D01*
X105761714Y-33819154D01*
X105664142Y-33721582D01*
X105621650Y-33693190D01*
X105549408Y-33644919D01*
X105421932Y-33592117D01*
X105421922Y-33592114D01*
X105331294Y-33574087D01*
X105286593Y-33565196D01*
X105148607Y-33565196D01*
X105110242Y-33572827D01*
X105013277Y-33592114D01*
X105013267Y-33592117D01*
X104885791Y-33644919D01*
X104771061Y-33721579D01*
X104673483Y-33819157D01*
X104596823Y-33933887D01*
X104544021Y-34061363D01*
X104544018Y-34061373D01*
X104517100Y-34196704D01*
X56263623Y-34196704D01*
X56438153Y-34022174D01*
X56490479Y-34000500D01*
X56565894Y-34000500D01*
X56565894Y-34000499D01*
X56693186Y-33966392D01*
X56807314Y-33900500D01*
X56900500Y-33807314D01*
X56966392Y-33693186D01*
X57000499Y-33565894D01*
X57000500Y-33565894D01*
X57000500Y-33434106D01*
X56995729Y-33416303D01*
X57003120Y-33360150D01*
X57048053Y-33325671D01*
X57074112Y-33323472D01*
X57095734Y-33325500D01*
X57095741Y-33325500D01*
X58404258Y-33325500D01*
X58404266Y-33325500D01*
X58434699Y-33322646D01*
X58562882Y-33277793D01*
X58672150Y-33197150D01*
X58752793Y-33087882D01*
X58797646Y-32959699D01*
X58800500Y-32929266D01*
X58800500Y-31921535D01*
X59199500Y-31921535D01*
X59199500Y-32378464D01*
X59239868Y-32581413D01*
X59239870Y-32581420D01*
X59319059Y-32772598D01*
X59425642Y-32932113D01*
X59434023Y-32944655D01*
X59580345Y-33090977D01*
X59752402Y-33205941D01*
X59943580Y-33285130D01*
X60146535Y-33325500D01*
X60146536Y-33325500D01*
X60353464Y-33325500D01*
X60353465Y-33325500D01*
X60556420Y-33285130D01*
X60747598Y-33205941D01*
X60919655Y-33090977D01*
X61065977Y-32944655D01*
X61180941Y-32772598D01*
X61260130Y-32581420D01*
X61300500Y-32378465D01*
X61300500Y-31921535D01*
X61260130Y-31718580D01*
X61180941Y-31527402D01*
X61065977Y-31355345D01*
X60919655Y-31209023D01*
X60747598Y-31094059D01*
X60556420Y-31014870D01*
X60556413Y-31014868D01*
X60403516Y-30984455D01*
X60353465Y-30974500D01*
X60146535Y-30974500D01*
X60132182Y-30977355D01*
X59943586Y-31014868D01*
X59943579Y-31014870D01*
X59752401Y-31094059D01*
X59580345Y-31209022D01*
X59580344Y-31209024D01*
X59434024Y-31355344D01*
X59434022Y-31355345D01*
X59319059Y-31527401D01*
X59239870Y-31718579D01*
X59239868Y-31718586D01*
X59199500Y-31921535D01*
X58800500Y-31921535D01*
X58800500Y-31370734D01*
X58797646Y-31340301D01*
X58752793Y-31212118D01*
X58750509Y-31209023D01*
X58672153Y-31102853D01*
X58672146Y-31102846D01*
X58562883Y-31022207D01*
X58562881Y-31022206D01*
X58434704Y-30977355D01*
X58434705Y-30977355D01*
X58434700Y-30977354D01*
X58434699Y-30977354D01*
X58404266Y-30974500D01*
X57095734Y-30974500D01*
X57065301Y-30977354D01*
X57065299Y-30977354D01*
X57065295Y-30977355D01*
X56937118Y-31022206D01*
X56937116Y-31022207D01*
X56827853Y-31102846D01*
X56827846Y-31102853D01*
X56747207Y-31212116D01*
X56747206Y-31212118D01*
X56702355Y-31340295D01*
X56702354Y-31340299D01*
X56702354Y-31340301D01*
X56699500Y-31370734D01*
X56699500Y-31370740D01*
X56699500Y-32929268D01*
X56699767Y-32932113D01*
X56683071Y-32986233D01*
X56632996Y-33012696D01*
X56606938Y-33010498D01*
X56565892Y-32999500D01*
X56434108Y-32999500D01*
X56434106Y-32999500D01*
X56306818Y-33033606D01*
X56306809Y-33033610D01*
X56192685Y-33099500D01*
X56099500Y-33192685D01*
X56033610Y-33306809D01*
X56033606Y-33306818D01*
X55999500Y-33434105D01*
X55999500Y-33509521D01*
X55977826Y-33561847D01*
X54613334Y-34926338D01*
X54596991Y-34933107D01*
X54583478Y-34944518D01*
X54571818Y-34943534D01*
X54561008Y-34948012D01*
X54544666Y-34941243D01*
X54527042Y-34939756D01*
X54520019Y-34931034D01*
X54508682Y-34926338D01*
X54490502Y-34896482D01*
X54489976Y-34894831D01*
X54466392Y-34806814D01*
X54456419Y-34789541D01*
X54453994Y-34781930D01*
X54454599Y-34774759D01*
X54450500Y-34759460D01*
X54450500Y-34619904D01*
X54460416Y-34582901D01*
X54466392Y-34572551D01*
X54500500Y-34445257D01*
X54500500Y-34313473D01*
X54500500Y-34313471D01*
X54500499Y-34313470D01*
X54466393Y-34186183D01*
X54466392Y-34186179D01*
X54400500Y-34072051D01*
X54307314Y-33978865D01*
X54283639Y-33965196D01*
X54193187Y-33912973D01*
X54181633Y-33909877D01*
X54148463Y-33890725D01*
X53222174Y-32964436D01*
X53200500Y-32912110D01*
X53200500Y-28742239D01*
X53210416Y-28705236D01*
X53216392Y-28694886D01*
X53250500Y-28567592D01*
X53250500Y-28435808D01*
X53250500Y-28435806D01*
X53250499Y-28435805D01*
X53216393Y-28308518D01*
X53216392Y-28308514D01*
X53210412Y-28298157D01*
X53200500Y-28261160D01*
X53200500Y-27940313D01*
X53210414Y-27903313D01*
X53242242Y-27848186D01*
X53276349Y-27720894D01*
X53276350Y-27720894D01*
X53276350Y-27589106D01*
X53276349Y-27589105D01*
X53242243Y-27461818D01*
X53242242Y-27461814D01*
X53176350Y-27347686D01*
X53083164Y-27254500D01*
X53030509Y-27224099D01*
X52969040Y-27188610D01*
X52969031Y-27188606D01*
X52952233Y-27184105D01*
X61024500Y-27184105D01*
X61024500Y-27315894D01*
X61058606Y-27443181D01*
X61058607Y-27443184D01*
X61058608Y-27443186D01*
X61124500Y-27557314D01*
X61217686Y-27650500D01*
X61331814Y-27716392D01*
X61343362Y-27719486D01*
X61376535Y-27738638D01*
X62277826Y-28639929D01*
X62299500Y-28692255D01*
X62299500Y-31025104D01*
X62277826Y-31077430D01*
X62255589Y-31092289D01*
X62255617Y-31092340D01*
X62255099Y-31092616D01*
X62253827Y-31093467D01*
X62252415Y-31094051D01*
X62252407Y-31094055D01*
X62080345Y-31209022D01*
X62080344Y-31209024D01*
X61934024Y-31355344D01*
X61934022Y-31355345D01*
X61819059Y-31527401D01*
X61739870Y-31718579D01*
X61739868Y-31718586D01*
X61699500Y-31921535D01*
X61699500Y-32378464D01*
X61739868Y-32581413D01*
X61739870Y-32581420D01*
X61819059Y-32772598D01*
X61925642Y-32932113D01*
X61934023Y-32944655D01*
X62080345Y-33090977D01*
X62252402Y-33205941D01*
X62443580Y-33285130D01*
X62646535Y-33325500D01*
X62646536Y-33325500D01*
X62853464Y-33325500D01*
X62853465Y-33325500D01*
X63056420Y-33285130D01*
X63247598Y-33205941D01*
X63419655Y-33090977D01*
X63565977Y-32944655D01*
X63680941Y-32772598D01*
X63760130Y-32581420D01*
X63800500Y-32378465D01*
X63800500Y-31921535D01*
X63760130Y-31718580D01*
X63680941Y-31527402D01*
X63565977Y-31355345D01*
X63419655Y-31209023D01*
X63247598Y-31094059D01*
X63247597Y-31094058D01*
X63247592Y-31094055D01*
X63247584Y-31094051D01*
X63246173Y-31093467D01*
X63245808Y-31093101D01*
X63244383Y-31092340D01*
X63244614Y-31091907D01*
X63206129Y-31053414D01*
X63200500Y-31025104D01*
X63200500Y-28415689D01*
X63200499Y-28415688D01*
X63197563Y-28404732D01*
X63169799Y-28301114D01*
X63143629Y-28255787D01*
X63110489Y-28198386D01*
X62013638Y-27101535D01*
X61994486Y-27068362D01*
X61991392Y-27056814D01*
X61925500Y-26942686D01*
X61832314Y-26849500D01*
X61718190Y-26783610D01*
X61718181Y-26783606D01*
X61590894Y-26749500D01*
X61590892Y-26749500D01*
X61459108Y-26749500D01*
X61459106Y-26749500D01*
X61331818Y-26783606D01*
X61331809Y-26783610D01*
X61217685Y-26849500D01*
X61124500Y-26942685D01*
X61058610Y-27056809D01*
X61058606Y-27056818D01*
X61024500Y-27184105D01*
X52952233Y-27184105D01*
X52841744Y-27154500D01*
X52841742Y-27154500D01*
X52709958Y-27154500D01*
X52709956Y-27154500D01*
X52582668Y-27188606D01*
X52582659Y-27188610D01*
X52468535Y-27254500D01*
X52375350Y-27347685D01*
X52309460Y-27461809D01*
X52309456Y-27461818D01*
X52275350Y-27589105D01*
X52275350Y-27589108D01*
X52275350Y-27720892D01*
X52280105Y-27738638D01*
X52296979Y-27801613D01*
X52299500Y-27820765D01*
X52299500Y-28261160D01*
X52289587Y-28298157D01*
X52283608Y-28308514D01*
X52283608Y-28308515D01*
X52283606Y-28308518D01*
X52249500Y-28435805D01*
X52249500Y-28435808D01*
X52249500Y-28567592D01*
X52274690Y-28661603D01*
X52283609Y-28694888D01*
X52289584Y-28705236D01*
X52299500Y-28742239D01*
X52299500Y-33188676D01*
X52323379Y-33277790D01*
X52323380Y-33277794D01*
X52330199Y-33303249D01*
X52389508Y-33405975D01*
X52389509Y-33405976D01*
X52389511Y-33405979D01*
X52962397Y-33978865D01*
X53511360Y-34527828D01*
X53527400Y-34551834D01*
X53529259Y-34556322D01*
X53533608Y-34572551D01*
X53542009Y-34587102D01*
X53543866Y-34591584D01*
X53543866Y-34598880D01*
X53549500Y-34619904D01*
X53549500Y-34759460D01*
X53539587Y-34796457D01*
X53533608Y-34806814D01*
X53533608Y-34806815D01*
X53533606Y-34806818D01*
X53499500Y-34934105D01*
X53499500Y-35065894D01*
X53533606Y-35193181D01*
X53533610Y-35193190D01*
X53599500Y-35307314D01*
X53692686Y-35400500D01*
X53806814Y-35466392D01*
X53806818Y-35466393D01*
X53893165Y-35489530D01*
X53938098Y-35524008D01*
X53945490Y-35580161D01*
X53926338Y-35613334D01*
X51126326Y-38413347D01*
X51074000Y-38435021D01*
X51021674Y-38413347D01*
X51000000Y-38361021D01*
X51000000Y-26318206D01*
X83549500Y-26318206D01*
X83549500Y-26681793D01*
X83585138Y-27043635D01*
X83656068Y-27400228D01*
X83703720Y-27557314D01*
X83758724Y-27738638D01*
X83761614Y-27748163D01*
X83761619Y-27748177D01*
X83900752Y-28084074D01*
X83900755Y-28084081D01*
X84072145Y-28404729D01*
X84072146Y-28404731D01*
X84092909Y-28435805D01*
X84274146Y-28707044D01*
X84504803Y-28988101D01*
X84761899Y-29245197D01*
X85042956Y-29475854D01*
X85345268Y-29677853D01*
X85665924Y-29849247D01*
X86001836Y-29988386D01*
X86349767Y-30093930D01*
X86349769Y-30093930D01*
X86349771Y-30093931D01*
X86697107Y-30163019D01*
X86706369Y-30164862D01*
X87068206Y-30200500D01*
X87068207Y-30200500D01*
X87431793Y-30200500D01*
X87431794Y-30200500D01*
X87793631Y-30164862D01*
X88150233Y-30093930D01*
X88498164Y-29988386D01*
X88834076Y-29849247D01*
X89154732Y-29677853D01*
X89457044Y-29475854D01*
X89738101Y-29245197D01*
X89995197Y-28988101D01*
X90225854Y-28707044D01*
X90427853Y-28404732D01*
X90599247Y-28084076D01*
X90738386Y-27748164D01*
X90843930Y-27400233D01*
X90914862Y-27043631D01*
X90950500Y-26681794D01*
X90950500Y-26318206D01*
X90914862Y-25956369D01*
X90843930Y-25599767D01*
X90738386Y-25251836D01*
X90599247Y-24915924D01*
X90427853Y-24595268D01*
X90225854Y-24292956D01*
X89995197Y-24011899D01*
X89738101Y-23754803D01*
X89457044Y-23524146D01*
X89154732Y-23322147D01*
X89154731Y-23322146D01*
X89154729Y-23322145D01*
X88834081Y-23150755D01*
X88834074Y-23150752D01*
X88498177Y-23011619D01*
X88498170Y-23011616D01*
X88498164Y-23011614D01*
X88314454Y-22955886D01*
X88150228Y-22906068D01*
X87793635Y-22835138D01*
X87504161Y-22806627D01*
X87431794Y-22799500D01*
X87068206Y-22799500D01*
X87007899Y-22805439D01*
X86706364Y-22835138D01*
X86349771Y-22906068D01*
X86001836Y-23011614D01*
X86001822Y-23011619D01*
X85665925Y-23150752D01*
X85665918Y-23150755D01*
X85345270Y-23322145D01*
X85345268Y-23322146D01*
X85042957Y-23524145D01*
X85042952Y-23524149D01*
X84761900Y-23754802D01*
X84504802Y-24011900D01*
X84274149Y-24292952D01*
X84274145Y-24292957D01*
X84072146Y-24595268D01*
X84072145Y-24595270D01*
X83900755Y-24915918D01*
X83900752Y-24915925D01*
X83761619Y-25251822D01*
X83761614Y-25251836D01*
X83656068Y-25599771D01*
X83585138Y-25956364D01*
X83549500Y-26318206D01*
X51000000Y-26318206D01*
X51000000Y-25466726D01*
X51012041Y-25426265D01*
X51580504Y-24555797D01*
X51581551Y-24554240D01*
X52361854Y-23427480D01*
X52362948Y-23425946D01*
X53005887Y-22549405D01*
X53054311Y-22520033D01*
X53065542Y-22519174D01*
X121176001Y-22519118D01*
X121228326Y-22540792D01*
G37*
%TD.AperFunction*%
%TD*%
%TA.AperFunction,Conductor*%
%TO.N,V_SUPPLY*%
G36*
X85500000Y-40843713D02*
G01*
X84619481Y-41724232D01*
X84619479Y-41724235D01*
X84569361Y-41811044D01*
X84569359Y-41811046D01*
X84540425Y-41861159D01*
X84540424Y-41861160D01*
X84540423Y-41861165D01*
X84499499Y-42013893D01*
X84499499Y-42013895D01*
X84499499Y-42181996D01*
X84499500Y-42182009D01*
X84499500Y-45629056D01*
X84540423Y-45781783D01*
X84540426Y-45781790D01*
X84619475Y-45918709D01*
X84619479Y-45918714D01*
X84619480Y-45918716D01*
X84731284Y-46030520D01*
X84731286Y-46030521D01*
X84731290Y-46030524D01*
X84857597Y-46103446D01*
X84868216Y-46109577D01*
X85020943Y-46150500D01*
X85020945Y-46150500D01*
X85179055Y-46150500D01*
X85179057Y-46150500D01*
X85331784Y-46109577D01*
X85331785Y-46109576D01*
X85339635Y-46107473D01*
X85340221Y-46109663D01*
X85398005Y-46103446D01*
X85460487Y-46134715D01*
X85496145Y-46194800D01*
X85500000Y-46225478D01*
X85500000Y-52777197D01*
X85480315Y-52844236D01*
X85427511Y-52889991D01*
X85358353Y-52899935D01*
X85294797Y-52870910D01*
X85288319Y-52864878D01*
X84458998Y-52035557D01*
X84439292Y-52009875D01*
X84400504Y-51942692D01*
X84400498Y-51942684D01*
X84307316Y-51849502D01*
X84307314Y-51849500D01*
X84207753Y-51792018D01*
X84193187Y-51783608D01*
X84129539Y-51766554D01*
X84065892Y-51749500D01*
X83934108Y-51749500D01*
X83806812Y-51783608D01*
X83692686Y-51849500D01*
X83692683Y-51849502D01*
X83599502Y-51942683D01*
X83599500Y-51942686D01*
X83533608Y-52056812D01*
X83499500Y-52184108D01*
X83499500Y-52315891D01*
X83533608Y-52443187D01*
X83566554Y-52500250D01*
X83599500Y-52557314D01*
X83692686Y-52650500D01*
X83791521Y-52707563D01*
X83806389Y-52716147D01*
X83806814Y-52716392D01*
X83934108Y-52750500D01*
X83934110Y-52750500D01*
X84065889Y-52750500D01*
X84065892Y-52750500D01*
X84193186Y-52716392D01*
X84193190Y-52716389D01*
X84200302Y-52714484D01*
X84270152Y-52716147D01*
X84320077Y-52746578D01*
X85387288Y-53813789D01*
X85396467Y-53830600D01*
X85409714Y-53844440D01*
X85412867Y-53860633D01*
X85420773Y-53875112D01*
X85419406Y-53894218D01*
X85423068Y-53913022D01*
X85416965Y-53928348D01*
X85415789Y-53944804D01*
X85404308Y-53960139D01*
X85397223Y-53977936D01*
X85379405Y-53993404D01*
X85373917Y-54000737D01*
X85371726Y-54002340D01*
X85366816Y-54005850D01*
X85291213Y-54049500D01*
X85254710Y-54086002D01*
X85246382Y-54091957D01*
X85222664Y-54100216D01*
X85200619Y-54112254D01*
X85190231Y-54111510D01*
X85180399Y-54114935D01*
X85155980Y-54109060D01*
X85130928Y-54107268D01*
X85120396Y-54100499D01*
X85112467Y-54098592D01*
X85104538Y-54090307D01*
X85086582Y-54078768D01*
X85057316Y-54049502D01*
X85057314Y-54049500D01*
X84975631Y-54002340D01*
X84943187Y-53983608D01*
X84857307Y-53960597D01*
X84815892Y-53949500D01*
X84684108Y-53949500D01*
X84556812Y-53983608D01*
X84442686Y-54049500D01*
X84442683Y-54049502D01*
X84349502Y-54142683D01*
X84349500Y-54142686D01*
X84283608Y-54256812D01*
X84249500Y-54384108D01*
X84249500Y-54515891D01*
X84283608Y-54643187D01*
X84310403Y-54689597D01*
X84349500Y-54757314D01*
X84349502Y-54757316D01*
X84413181Y-54820995D01*
X84446666Y-54882318D01*
X84449500Y-54908676D01*
X84449500Y-57041323D01*
X84429815Y-57108362D01*
X84413182Y-57129004D01*
X84349500Y-57192686D01*
X84283608Y-57306812D01*
X84249500Y-57434108D01*
X84249500Y-57565891D01*
X84283608Y-57693187D01*
X84309967Y-57738841D01*
X84349500Y-57807314D01*
X84442686Y-57900500D01*
X84556814Y-57966392D01*
X84684108Y-58000500D01*
X84684110Y-58000500D01*
X84815890Y-58000500D01*
X84815892Y-58000500D01*
X84943186Y-57966392D01*
X85057314Y-57900500D01*
X85150500Y-57807314D01*
X85154559Y-57800282D01*
X85172652Y-57783029D01*
X85187637Y-57763013D01*
X85197501Y-57759333D01*
X85205121Y-57752068D01*
X85229671Y-57747334D01*
X85253101Y-57738596D01*
X85263389Y-57740834D01*
X85273727Y-57738841D01*
X85296940Y-57748132D01*
X85321374Y-57753448D01*
X85334191Y-57763043D01*
X85338593Y-57764805D01*
X85349628Y-57774599D01*
X85463681Y-57888652D01*
X85497166Y-57949975D01*
X85500000Y-57976333D01*
X85500000Y-59500000D01*
X86626000Y-59500000D01*
X86693039Y-59519685D01*
X86738794Y-59572489D01*
X86750000Y-59624000D01*
X86750000Y-60221196D01*
X86735624Y-60274850D01*
X86736719Y-60275304D01*
X86733608Y-60282814D01*
X86699500Y-60410108D01*
X86699500Y-60541892D01*
X86713437Y-60593909D01*
X86712842Y-60618901D01*
X86716401Y-60643647D01*
X86712025Y-60653227D01*
X86711775Y-60663756D01*
X86697762Y-60684460D01*
X86687376Y-60707203D01*
X86678516Y-60712896D01*
X86672613Y-60721619D01*
X86649629Y-60731461D01*
X86628598Y-60744977D01*
X86612743Y-60747256D01*
X86608385Y-60749123D01*
X86593663Y-60750000D01*
X86498813Y-60750000D01*
X86431774Y-60730315D01*
X86391426Y-60688001D01*
X86389382Y-60684460D01*
X86377973Y-60664699D01*
X86284787Y-60571513D01*
X86227723Y-60538567D01*
X86170660Y-60505621D01*
X86107012Y-60488567D01*
X86043365Y-60471513D01*
X85911581Y-60471513D01*
X85784285Y-60505621D01*
X85670159Y-60571513D01*
X85670156Y-60571515D01*
X85606478Y-60635194D01*
X85545155Y-60668679D01*
X85518797Y-60671513D01*
X82624000Y-60671513D01*
X82556961Y-60651828D01*
X82511206Y-60599024D01*
X82500000Y-60547513D01*
X82500000Y-41250000D01*
X82500000Y-40250000D01*
X85500000Y-40250000D01*
X85500000Y-40843713D01*
G37*
%TD.AperFunction*%
%TD*%
%TA.AperFunction,Conductor*%
%TO.N,+3V3*%
G36*
X101701111Y-57788975D02*
G01*
X101768050Y-57808988D01*
X101813546Y-57862016D01*
X101824500Y-57912974D01*
X101824500Y-58875172D01*
X101824500Y-58974828D01*
X101862636Y-59066897D01*
X107032787Y-64237048D01*
X107124856Y-64275184D01*
X107224511Y-64275184D01*
X107715879Y-64275184D01*
X107745319Y-64283828D01*
X107775306Y-64290352D01*
X107780321Y-64294106D01*
X107782918Y-64294869D01*
X107803560Y-64311503D01*
X107913183Y-64421126D01*
X107946668Y-64482449D01*
X107949502Y-64508807D01*
X107949502Y-64612993D01*
X107980203Y-64727570D01*
X108039513Y-64830297D01*
X108123389Y-64914173D01*
X108226116Y-64973483D01*
X108340693Y-65004184D01*
X108340696Y-65004184D01*
X108459308Y-65004184D01*
X108459311Y-65004184D01*
X108573888Y-64973483D01*
X108676615Y-64914173D01*
X108760491Y-64830297D01*
X108819801Y-64727570D01*
X108850502Y-64612993D01*
X108850502Y-64494375D01*
X108819801Y-64379798D01*
X108760491Y-64277071D01*
X108676615Y-64193195D01*
X108573888Y-64133885D01*
X108459311Y-64103184D01*
X108355125Y-64103184D01*
X108288086Y-64083499D01*
X108267444Y-64066865D01*
X108012899Y-63812320D01*
X107920831Y-63774184D01*
X107920830Y-63774184D01*
X107329807Y-63774184D01*
X107262768Y-63754499D01*
X107242126Y-63737865D01*
X105078025Y-61573764D01*
X105044540Y-61512441D01*
X105049524Y-61442749D01*
X105091396Y-61386816D01*
X105118268Y-61371516D01*
X105122410Y-61369800D01*
X105122416Y-61369799D01*
X105225143Y-61310489D01*
X105298813Y-61236819D01*
X105325740Y-61222115D01*
X105351559Y-61205523D01*
X105357759Y-61204631D01*
X105360136Y-61203334D01*
X105386494Y-61200500D01*
X105394877Y-61200500D01*
X105461916Y-61220185D01*
X105482558Y-61236819D01*
X105637636Y-61391897D01*
X105708103Y-61462364D01*
X105800172Y-61500500D01*
X108059778Y-61500500D01*
X108126817Y-61520185D01*
X108172572Y-61572989D01*
X108182516Y-61642147D01*
X108165658Y-61689039D01*
X108120486Y-61763145D01*
X108120483Y-61763151D01*
X108100799Y-61830187D01*
X108100797Y-61830197D01*
X108094500Y-61873996D01*
X108094500Y-62876008D01*
X108098054Y-62909055D01*
X108109260Y-62960566D01*
X108143686Y-63029342D01*
X108189436Y-63082139D01*
X108194422Y-63087623D01*
X108263145Y-63129513D01*
X108263150Y-63129516D01*
X108330189Y-63149201D01*
X108374000Y-63155500D01*
X108374003Y-63155500D01*
X111375991Y-63155500D01*
X111376000Y-63155500D01*
X111409055Y-63151946D01*
X111460566Y-63140740D01*
X111529342Y-63106313D01*
X111582146Y-63060558D01*
X111587621Y-63055580D01*
X111629516Y-62986850D01*
X111649201Y-62919811D01*
X111655500Y-62876000D01*
X111655500Y-62502005D01*
X111675185Y-62434966D01*
X111717500Y-62394618D01*
X111722213Y-62391897D01*
X111776613Y-62360489D01*
X111860489Y-62276613D01*
X111919799Y-62173886D01*
X111950500Y-62059309D01*
X111950500Y-61940691D01*
X111919799Y-61826114D01*
X111860489Y-61723387D01*
X111849283Y-61712181D01*
X111815798Y-61650858D01*
X111820782Y-61581166D01*
X111862654Y-61525233D01*
X111928118Y-61500816D01*
X111936964Y-61500500D01*
X112806070Y-61500500D01*
X112873109Y-61520185D01*
X112893751Y-61536819D01*
X112976370Y-61619438D01*
X113079097Y-61678748D01*
X113177564Y-61705132D01*
X113237223Y-61741496D01*
X113267752Y-61804343D01*
X113259457Y-61873718D01*
X113233150Y-61912587D01*
X111432558Y-63713181D01*
X111371235Y-63746666D01*
X111344877Y-63749500D01*
X111235081Y-63749500D01*
X111143013Y-63787636D01*
X111143012Y-63787637D01*
X110907558Y-64023092D01*
X110846235Y-64056577D01*
X110819877Y-64059411D01*
X110715692Y-64059411D01*
X110601115Y-64090112D01*
X110601113Y-64090112D01*
X110601113Y-64090113D01*
X110498388Y-64149422D01*
X110498385Y-64149424D01*
X110414514Y-64233295D01*
X110414512Y-64233298D01*
X110358565Y-64330201D01*
X110355202Y-64336025D01*
X110324501Y-64450602D01*
X110324501Y-64569220D01*
X110355202Y-64683797D01*
X110414512Y-64786524D01*
X110498388Y-64870400D01*
X110601115Y-64929710D01*
X110715692Y-64960411D01*
X110715695Y-64960411D01*
X110834307Y-64960411D01*
X110834310Y-64960411D01*
X110948887Y-64929710D01*
X111051614Y-64870400D01*
X111135490Y-64786524D01*
X111194800Y-64683797D01*
X111225501Y-64569220D01*
X111225501Y-64465032D01*
X111234145Y-64435592D01*
X111240669Y-64405605D01*
X111244423Y-64400589D01*
X111245186Y-64397993D01*
X111261814Y-64377356D01*
X111352354Y-64286817D01*
X111413677Y-64253334D01*
X111440034Y-64250500D01*
X111549826Y-64250500D01*
X111549828Y-64250500D01*
X111641897Y-64212364D01*
X114124455Y-61729803D01*
X114124458Y-61729802D01*
X114141896Y-61712364D01*
X114141897Y-61712364D01*
X114212364Y-61641897D01*
X114250500Y-61549828D01*
X114250500Y-59905122D01*
X114270185Y-59838083D01*
X114286814Y-59817446D01*
X116207428Y-57896832D01*
X116268747Y-57863350D01*
X116295705Y-57860517D01*
X128975109Y-57922671D01*
X129042050Y-57942684D01*
X129087546Y-57995712D01*
X129098500Y-58046670D01*
X129098500Y-58484612D01*
X129098500Y-58484614D01*
X129098499Y-58484614D01*
X129118150Y-58583398D01*
X129118883Y-58587081D01*
X129123499Y-58610287D01*
X129172535Y-58728670D01*
X129234387Y-58821239D01*
X129243726Y-58835216D01*
X129920699Y-59512189D01*
X130012759Y-59573701D01*
X130012760Y-59573701D01*
X130012761Y-59573702D01*
X130027245Y-59583380D01*
X130145628Y-59632416D01*
X130145632Y-59632416D01*
X130145633Y-59632417D01*
X130271300Y-59657415D01*
X130271303Y-59657415D01*
X133436107Y-59657415D01*
X133503146Y-59677100D01*
X133523788Y-59693734D01*
X134312181Y-60482127D01*
X134345666Y-60543450D01*
X134348500Y-60569808D01*
X134348500Y-75955192D01*
X134328815Y-76022231D01*
X134312181Y-76042873D01*
X128466873Y-81888181D01*
X128405550Y-81921666D01*
X128379192Y-81924500D01*
X125610929Y-81924500D01*
X125485261Y-81949497D01*
X125485255Y-81949499D01*
X125366875Y-81998533D01*
X125366866Y-81998538D01*
X125260331Y-82069723D01*
X125260327Y-82069726D01*
X119016873Y-88313181D01*
X118955550Y-88346666D01*
X118929192Y-88349500D01*
X116352380Y-88349500D01*
X116339109Y-88345603D01*
X116325307Y-88346509D01*
X116306243Y-88335952D01*
X116285341Y-88329815D01*
X116275017Y-88318661D01*
X116264183Y-88312662D01*
X116250781Y-88292476D01*
X116243199Y-88284284D01*
X116240224Y-88278759D01*
X116227465Y-88247955D01*
X116211049Y-88223387D01*
X116156277Y-88141413D01*
X116156275Y-88141411D01*
X116156273Y-88141408D01*
X115508591Y-87493726D01*
X115432203Y-87442686D01*
X115402045Y-87422535D01*
X115402044Y-87422534D01*
X115402042Y-87422533D01*
X115323148Y-87389854D01*
X115282920Y-87362974D01*
X112914674Y-84994727D01*
X112914673Y-84994726D01*
X112808131Y-84923538D01*
X112808127Y-84923535D01*
X112808122Y-84923533D01*
X112759089Y-84903223D01*
X112689744Y-84874499D01*
X112689742Y-84874498D01*
X112689741Y-84874498D01*
X112683254Y-84873208D01*
X112683249Y-84873207D01*
X112564071Y-84849500D01*
X112564069Y-84849500D01*
X93282637Y-84849500D01*
X93215598Y-84829815D01*
X93169843Y-84777011D01*
X93159899Y-84707853D01*
X93168074Y-84678051D01*
X93169798Y-84673888D01*
X93169799Y-84673887D01*
X93179010Y-84639511D01*
X93200500Y-84559309D01*
X93200500Y-84440691D01*
X93169799Y-84326114D01*
X93169799Y-84326113D01*
X93169799Y-84326112D01*
X93110492Y-84223389D01*
X93110488Y-84223384D01*
X91848154Y-82961051D01*
X91816060Y-82905463D01*
X91794799Y-82826114D01*
X91735489Y-82723387D01*
X91651613Y-82639511D01*
X91548886Y-82580201D01*
X91434309Y-82549500D01*
X91315691Y-82549500D01*
X91201114Y-82580201D01*
X91201112Y-82580201D01*
X91201112Y-82580202D01*
X91098387Y-82639511D01*
X91098384Y-82639513D01*
X91014513Y-82723384D01*
X91014511Y-82723387D01*
X90955201Y-82826114D01*
X90924500Y-82940691D01*
X90924500Y-83184309D01*
X90941007Y-83245913D01*
X90955201Y-83298887D01*
X91014511Y-83401614D01*
X91014513Y-83401616D01*
X92250715Y-84637819D01*
X92284200Y-84699142D01*
X92279216Y-84768834D01*
X92237344Y-84824767D01*
X92171880Y-84849184D01*
X92163034Y-84849500D01*
X68435929Y-84849500D01*
X68310261Y-84874497D01*
X68310255Y-84874499D01*
X68191875Y-84923533D01*
X68191866Y-84923538D01*
X68085331Y-84994723D01*
X68085327Y-84994726D01*
X67994726Y-85085327D01*
X67994723Y-85085331D01*
X67923538Y-85191866D01*
X67923533Y-85191875D01*
X67874499Y-85310255D01*
X67874497Y-85310261D01*
X67849500Y-85435928D01*
X67849500Y-85435931D01*
X67849500Y-85564069D01*
X67849500Y-85564071D01*
X67849499Y-85564071D01*
X67874497Y-85689738D01*
X67874499Y-85689744D01*
X67923533Y-85808124D01*
X67923538Y-85808133D01*
X67994723Y-85914668D01*
X67994726Y-85914672D01*
X68085327Y-86005273D01*
X68085331Y-86005276D01*
X68191866Y-86076461D01*
X68191872Y-86076464D01*
X68191873Y-86076465D01*
X68310256Y-86125501D01*
X68310260Y-86125501D01*
X68310261Y-86125502D01*
X68435928Y-86150500D01*
X68435931Y-86150500D01*
X69935931Y-86150500D01*
X71435931Y-86150500D01*
X112179192Y-86150500D01*
X112246231Y-86170185D01*
X112266873Y-86186819D01*
X114584325Y-88504272D01*
X114584326Y-88504273D01*
X114584329Y-88504275D01*
X114584331Y-88504277D01*
X114690873Y-88575465D01*
X114692440Y-88576114D01*
X114769767Y-88608144D01*
X114809996Y-88635024D01*
X115014974Y-88840002D01*
X115041854Y-88880230D01*
X115074533Y-88959124D01*
X115074534Y-88959126D01*
X115074535Y-88959127D01*
X115098153Y-88994475D01*
X115145726Y-89065673D01*
X115585325Y-89505272D01*
X115585332Y-89505278D01*
X115609687Y-89521551D01*
X115691874Y-89576466D01*
X115761221Y-89605189D01*
X115810256Y-89625501D01*
X115810259Y-89625501D01*
X115810260Y-89625502D01*
X115935928Y-89650500D01*
X115935931Y-89650500D01*
X119314071Y-89650500D01*
X119398615Y-89633682D01*
X119423606Y-89628711D01*
X121649500Y-89628711D01*
X121649500Y-89871288D01*
X121681161Y-90111785D01*
X121743947Y-90346104D01*
X121836773Y-90570205D01*
X121836776Y-90570212D01*
X121958064Y-90780289D01*
X121958066Y-90780292D01*
X121958067Y-90780293D01*
X122105733Y-90972736D01*
X122105739Y-90972743D01*
X122277256Y-91144260D01*
X122277262Y-91144265D01*
X122469711Y-91291936D01*
X122679788Y-91413224D01*
X122903900Y-91506054D01*
X123138211Y-91568838D01*
X123318586Y-91592584D01*
X123378711Y-91600500D01*
X123378712Y-91600500D01*
X123621289Y-91600500D01*
X123669388Y-91594167D01*
X123861789Y-91568838D01*
X124096100Y-91506054D01*
X124320212Y-91413224D01*
X124530289Y-91291936D01*
X124722738Y-91144265D01*
X124894265Y-90972738D01*
X125041936Y-90780289D01*
X125163224Y-90570212D01*
X125256054Y-90346100D01*
X125318838Y-90111789D01*
X125350500Y-89871288D01*
X125350500Y-89628712D01*
X125350077Y-89625502D01*
X125318838Y-89388214D01*
X125318838Y-89388211D01*
X125256054Y-89153900D01*
X125163224Y-88929788D01*
X125041936Y-88719711D01*
X124956328Y-88608144D01*
X124894266Y-88527263D01*
X124894260Y-88527256D01*
X124722743Y-88355739D01*
X124722736Y-88355733D01*
X124530293Y-88208067D01*
X124530292Y-88208066D01*
X124530289Y-88208064D01*
X124320212Y-88086776D01*
X124230220Y-88049500D01*
X124096104Y-87993947D01*
X123861785Y-87931161D01*
X123621289Y-87899500D01*
X123621288Y-87899500D01*
X123378712Y-87899500D01*
X123378711Y-87899500D01*
X123138214Y-87931161D01*
X122903895Y-87993947D01*
X122679794Y-88086773D01*
X122679785Y-88086777D01*
X122469706Y-88208067D01*
X122277263Y-88355733D01*
X122277256Y-88355739D01*
X122105739Y-88527256D01*
X122105733Y-88527263D01*
X121958067Y-88719706D01*
X121836777Y-88929785D01*
X121836773Y-88929794D01*
X121743947Y-89153895D01*
X121681161Y-89388214D01*
X121649500Y-89628711D01*
X119423606Y-89628711D01*
X119439744Y-89625501D01*
X119558127Y-89576465D01*
X119664669Y-89505277D01*
X125908126Y-83261818D01*
X125969449Y-83228334D01*
X125995807Y-83225500D01*
X128764071Y-83225500D01*
X128848615Y-83208682D01*
X128889744Y-83200501D01*
X129008127Y-83151465D01*
X129114669Y-83080277D01*
X135287819Y-76907125D01*
X135349142Y-76873641D01*
X135418834Y-76878625D01*
X135474767Y-76920497D01*
X135499184Y-76985961D01*
X135499500Y-76994807D01*
X135499500Y-80806907D01*
X135479815Y-80873946D01*
X135477844Y-80876920D01*
X134823718Y-81833114D01*
X134821816Y-81835816D01*
X134034009Y-82924017D01*
X134032035Y-82926668D01*
X133215521Y-83993472D01*
X133213478Y-83996069D01*
X132368811Y-85040753D01*
X132366699Y-85043295D01*
X131494500Y-86065090D01*
X131492321Y-86067575D01*
X130593206Y-87065759D01*
X130590962Y-87068185D01*
X129665548Y-88042071D01*
X129663240Y-88044436D01*
X128712185Y-88993334D01*
X128709830Y-88995621D01*
X127921021Y-89741767D01*
X127733867Y-89918799D01*
X127731436Y-89921037D01*
X126731231Y-90817866D01*
X126728742Y-90820039D01*
X125704929Y-91689951D01*
X125702382Y-91692058D01*
X124655783Y-92534349D01*
X124653181Y-92536386D01*
X123584543Y-93350461D01*
X123581888Y-93352429D01*
X122491857Y-94137793D01*
X122489150Y-94139688D01*
X121378681Y-94895656D01*
X121375925Y-94897480D01*
X120245617Y-95623642D01*
X120242813Y-95625391D01*
X119093562Y-96321170D01*
X119090712Y-96322843D01*
X117923405Y-96987704D01*
X117920512Y-96989302D01*
X116735802Y-97622873D01*
X116732867Y-97624392D01*
X115531770Y-98226129D01*
X115528796Y-98227570D01*
X114312057Y-98797101D01*
X114309046Y-98798462D01*
X113785742Y-99026613D01*
X113331955Y-99224456D01*
X113189389Y-99286612D01*
X113139832Y-99296945D01*
X112124500Y-99296945D01*
X112057461Y-99277260D01*
X112011706Y-99224456D01*
X112000500Y-99172945D01*
X112000500Y-87684110D01*
X112000500Y-87684108D01*
X111966392Y-87556814D01*
X111900500Y-87442686D01*
X111807314Y-87349500D01*
X111750250Y-87316554D01*
X111693187Y-87283608D01*
X111629539Y-87266554D01*
X111565892Y-87249500D01*
X75565892Y-87249500D01*
X75434108Y-87249500D01*
X75306812Y-87283608D01*
X75192686Y-87349500D01*
X75192683Y-87349502D01*
X75099502Y-87442683D01*
X75099500Y-87442686D01*
X75033608Y-87556812D01*
X75006471Y-87658093D01*
X74970106Y-87717754D01*
X74907259Y-87748283D01*
X74886696Y-87750000D01*
X71866055Y-87750000D01*
X71863541Y-87749500D01*
X71666459Y-87749500D01*
X71663945Y-87750000D01*
X70100988Y-87750000D01*
X70090810Y-87749500D01*
X70089820Y-87749500D01*
X68360180Y-87749500D01*
X68359190Y-87749500D01*
X68349012Y-87750000D01*
X62551362Y-87750000D01*
X62484323Y-87730315D01*
X62463681Y-87713681D01*
X55536319Y-80786319D01*
X55502834Y-80724996D01*
X55500000Y-80698638D01*
X55500000Y-73190691D01*
X73549500Y-73190691D01*
X73549500Y-73309309D01*
X73580201Y-73423886D01*
X73639511Y-73526613D01*
X73639513Y-73526615D01*
X73713181Y-73600283D01*
X73746666Y-73661606D01*
X73749500Y-73687964D01*
X73749500Y-75949886D01*
X73787636Y-76041954D01*
X73875539Y-76129857D01*
X73875545Y-76129862D01*
X76213181Y-78467498D01*
X76246666Y-78528821D01*
X76248247Y-78543529D01*
X76249500Y-78549829D01*
X76264034Y-78584916D01*
X76287636Y-78641897D01*
X76667091Y-79021352D01*
X77013181Y-79367441D01*
X77046666Y-79428764D01*
X77049500Y-79455122D01*
X77049500Y-79559309D01*
X77080201Y-79673886D01*
X77139511Y-79776613D01*
X77223387Y-79860489D01*
X77326114Y-79919799D01*
X77440691Y-79950500D01*
X77440694Y-79950500D01*
X77559306Y-79950500D01*
X77559309Y-79950500D01*
X77673886Y-79919799D01*
X77776613Y-79860489D01*
X77860489Y-79776613D01*
X77919799Y-79673886D01*
X77950500Y-79559309D01*
X77950500Y-79440691D01*
X77919799Y-79326114D01*
X77860489Y-79223387D01*
X77776613Y-79139511D01*
X77673886Y-79080201D01*
X77559309Y-79049500D01*
X77455122Y-79049500D01*
X77388083Y-79029815D01*
X77367441Y-79013181D01*
X77080493Y-78726233D01*
X76786819Y-78432558D01*
X76753334Y-78371235D01*
X76751752Y-78356526D01*
X76750500Y-78350231D01*
X76750500Y-78350228D01*
X76712364Y-78258159D01*
X76641897Y-78187692D01*
X75797680Y-77343475D01*
X78249500Y-77343475D01*
X78249500Y-78856517D01*
X78260292Y-78924657D01*
X78264354Y-78950304D01*
X78321950Y-79063342D01*
X78321952Y-79063344D01*
X78321954Y-79063347D01*
X78411652Y-79153045D01*
X78411654Y-79153046D01*
X78411658Y-79153050D01*
X78524694Y-79210645D01*
X78524698Y-79210647D01*
X78618475Y-79225499D01*
X78618481Y-79225500D01*
X79881518Y-79225499D01*
X79975304Y-79210646D01*
X80088342Y-79153050D01*
X80178050Y-79063342D01*
X80235646Y-78950304D01*
X80235646Y-78950302D01*
X80235647Y-78950301D01*
X80246282Y-78883147D01*
X80250500Y-78856519D01*
X80250499Y-77343482D01*
X80235646Y-77249696D01*
X80178050Y-77136658D01*
X80178046Y-77136654D01*
X80178045Y-77136652D01*
X80088347Y-77046954D01*
X80088344Y-77046952D01*
X80088342Y-77046950D01*
X80009422Y-77006738D01*
X79975301Y-76989352D01*
X79881524Y-76974500D01*
X78618482Y-76974500D01*
X78546120Y-76985961D01*
X78524696Y-76989354D01*
X78411658Y-77046950D01*
X78411657Y-77046951D01*
X78411652Y-77046954D01*
X78321954Y-77136652D01*
X78321951Y-77136657D01*
X78321950Y-77136658D01*
X78302751Y-77174337D01*
X78264352Y-77249698D01*
X78249500Y-77343475D01*
X75797680Y-77343475D01*
X74286819Y-75832614D01*
X74253334Y-75771291D01*
X74250500Y-75744933D01*
X74250500Y-73687964D01*
X74270185Y-73620925D01*
X74286819Y-73600283D01*
X74308373Y-73578729D01*
X74360489Y-73526613D01*
X74419799Y-73423886D01*
X74450500Y-73309309D01*
X74450500Y-73190691D01*
X74419799Y-73076114D01*
X74360489Y-72973387D01*
X74276613Y-72889511D01*
X74173886Y-72830201D01*
X74059309Y-72799500D01*
X73940691Y-72799500D01*
X73826114Y-72830201D01*
X73826112Y-72830201D01*
X73826112Y-72830202D01*
X73723387Y-72889511D01*
X73723384Y-72889513D01*
X73639513Y-72973384D01*
X73639511Y-72973387D01*
X73611687Y-73021580D01*
X73580201Y-73076114D01*
X73549500Y-73190691D01*
X55500000Y-73190691D01*
X55500000Y-72882357D01*
X55519685Y-72815318D01*
X55572489Y-72769563D01*
X55622343Y-72758368D01*
X56250000Y-72750000D01*
X56250000Y-69877525D01*
X59349500Y-69877525D01*
X59349500Y-70022475D01*
X59378366Y-70130202D01*
X59387017Y-70162488D01*
X59459488Y-70288011D01*
X59459490Y-70288013D01*
X59459491Y-70288015D01*
X59561985Y-70390509D01*
X59561986Y-70390510D01*
X59561988Y-70390511D01*
X59687511Y-70462982D01*
X59687512Y-70462982D01*
X59687515Y-70462984D01*
X59827525Y-70500500D01*
X62170613Y-70500500D01*
X62237652Y-70520185D01*
X62258294Y-70536819D01*
X62851742Y-71130266D01*
X63411986Y-71690510D01*
X63411988Y-71690511D01*
X63411992Y-71690514D01*
X63512034Y-71748273D01*
X63512036Y-71748273D01*
X63537515Y-71762984D01*
X63677525Y-71800500D01*
X63677526Y-71800500D01*
X63677528Y-71800500D01*
X66072472Y-71800500D01*
X66072475Y-71800500D01*
X66212485Y-71762984D01*
X66338015Y-71690509D01*
X66440509Y-71588015D01*
X66512984Y-71462485D01*
X66550500Y-71322475D01*
X66550500Y-71177525D01*
X66512984Y-71037515D01*
X66491613Y-71000500D01*
X66440511Y-70911988D01*
X66440506Y-70911982D01*
X66338017Y-70809493D01*
X66338011Y-70809488D01*
X66212488Y-70737017D01*
X66212489Y-70737017D01*
X66163487Y-70723887D01*
X66072475Y-70699500D01*
X66072472Y-70699500D01*
X64029386Y-70699500D01*
X63962347Y-70679815D01*
X63941705Y-70663181D01*
X63378024Y-70099500D01*
X62788015Y-69509490D01*
X62662485Y-69437016D01*
X62662486Y-69437016D01*
X62627482Y-69427637D01*
X62522475Y-69399500D01*
X59827525Y-69399500D01*
X59701529Y-69433261D01*
X59687511Y-69437017D01*
X59561988Y-69509488D01*
X59561982Y-69509493D01*
X59459493Y-69611982D01*
X59459488Y-69611988D01*
X59387019Y-69737508D01*
X59387017Y-69737510D01*
X59386654Y-69738865D01*
X59349500Y-69877525D01*
X56250000Y-69877525D01*
X56250000Y-68874829D01*
X56269685Y-68807790D01*
X56322489Y-68762035D01*
X56374826Y-68750832D01*
X75326332Y-68877175D01*
X75393233Y-68897305D01*
X75438635Y-68950413D01*
X75449500Y-69001171D01*
X75449500Y-72884208D01*
X75463152Y-72935159D01*
X75469979Y-72960636D01*
X75469982Y-72960641D01*
X75509535Y-73029150D01*
X75509539Y-73029155D01*
X75509540Y-73029157D01*
X75565489Y-73085106D01*
X75565491Y-73085107D01*
X75565495Y-73085110D01*
X75598372Y-73104091D01*
X75634011Y-73124667D01*
X75658948Y-73131348D01*
X75714535Y-73163442D01*
X76222278Y-73671185D01*
X76715858Y-74164764D01*
X76749343Y-74226087D01*
X76752177Y-74252445D01*
X76752177Y-74356632D01*
X76782878Y-74471209D01*
X76842188Y-74573936D01*
X76926064Y-74657812D01*
X77028791Y-74717122D01*
X77143368Y-74747823D01*
X77143371Y-74747823D01*
X77261983Y-74747823D01*
X77261986Y-74747823D01*
X77376563Y-74717122D01*
X77479290Y-74657812D01*
X77563166Y-74573936D01*
X77622476Y-74471209D01*
X77653177Y-74356632D01*
X77653177Y-74238014D01*
X77622476Y-74123437D01*
X77563166Y-74020710D01*
X77479290Y-73936834D01*
X77376563Y-73877524D01*
X77261986Y-73846823D01*
X77157799Y-73846823D01*
X77090760Y-73827138D01*
X77070118Y-73810504D01*
X76580849Y-73321235D01*
X76086819Y-72827204D01*
X76053334Y-72765881D01*
X76050500Y-72739523D01*
X76050500Y-69006832D01*
X76070185Y-68939793D01*
X76122989Y-68894038D01*
X76175324Y-68882835D01*
X93540199Y-68998601D01*
X93559598Y-69004438D01*
X93579834Y-69005386D01*
X93592372Y-69014299D01*
X93607104Y-69018732D01*
X93620267Y-69034129D01*
X93636781Y-69045869D01*
X93642510Y-69060148D01*
X93652506Y-69071840D01*
X93655255Y-69091909D01*
X93662800Y-69110713D01*
X93660923Y-69133293D01*
X93661988Y-69141063D01*
X93661149Y-69145968D01*
X93660304Y-69150367D01*
X93649500Y-69190691D01*
X93649500Y-69206668D01*
X93647278Y-69218247D01*
X93636469Y-69239253D01*
X93629815Y-69261916D01*
X93615966Y-69279101D01*
X93615311Y-69280375D01*
X93614616Y-69280776D01*
X93613181Y-69282558D01*
X92288818Y-70606921D01*
X92227495Y-70640406D01*
X92201137Y-70643240D01*
X86420530Y-70643240D01*
X86420522Y-70643239D01*
X86406088Y-70643239D01*
X86306433Y-70643239D01*
X86306432Y-70643239D01*
X86291791Y-70649304D01*
X86252638Y-70665522D01*
X86218132Y-70679815D01*
X86214361Y-70681377D01*
X85932558Y-70963181D01*
X85871235Y-70996666D01*
X85844877Y-70999500D01*
X85543858Y-70999500D01*
X85476819Y-70979815D01*
X85456177Y-70963181D01*
X85382509Y-70889513D01*
X85382507Y-70889511D01*
X85279780Y-70830201D01*
X85165203Y-70799500D01*
X85046585Y-70799500D01*
X84932008Y-70830201D01*
X84932006Y-70830201D01*
X84932006Y-70830202D01*
X84829281Y-70889511D01*
X84829278Y-70889513D01*
X84745407Y-70973384D01*
X84745405Y-70973387D01*
X84691925Y-71066017D01*
X84686095Y-71076114D01*
X84655394Y-71190691D01*
X84655394Y-71309309D01*
X84686095Y-71423886D01*
X84745405Y-71526613D01*
X84745407Y-71526615D01*
X84817680Y-71598888D01*
X84851165Y-71660211D01*
X84846181Y-71729903D01*
X84804309Y-71785836D01*
X84762094Y-71806343D01*
X84673057Y-71830201D01*
X84673055Y-71830201D01*
X84673055Y-71830202D01*
X84570330Y-71889511D01*
X84570327Y-71889513D01*
X84486456Y-71973384D01*
X84486454Y-71973387D01*
X84455723Y-72026615D01*
X84427144Y-72076114D01*
X84396443Y-72190691D01*
X84396443Y-72190693D01*
X84396443Y-72303404D01*
X84376758Y-72370443D01*
X84323954Y-72416198D01*
X84298044Y-72423640D01*
X84298146Y-72424021D01*
X84290297Y-72426124D01*
X84290295Y-72426124D01*
X84175718Y-72456825D01*
X84175716Y-72456825D01*
X84175716Y-72456826D01*
X84072991Y-72516135D01*
X84072988Y-72516137D01*
X83989117Y-72600008D01*
X83989115Y-72600011D01*
X83952850Y-72662824D01*
X83929805Y-72702738D01*
X83899104Y-72817315D01*
X83899104Y-72817317D01*
X83899104Y-72879718D01*
X83879419Y-72946757D01*
X83826615Y-72992512D01*
X83775104Y-73003718D01*
X83736771Y-73003718D01*
X83622194Y-73034419D01*
X83622192Y-73034419D01*
X83622192Y-73034420D01*
X83519467Y-73093729D01*
X83519464Y-73093731D01*
X83435593Y-73177602D01*
X83435591Y-73177605D01*
X83416619Y-73210466D01*
X83376281Y-73280332D01*
X83345580Y-73394909D01*
X83345580Y-73513527D01*
X83374756Y-73622416D01*
X83373094Y-73692263D01*
X83333932Y-73750126D01*
X83269704Y-73777630D01*
X83254982Y-73778507D01*
X83211684Y-73778507D01*
X83125751Y-73801532D01*
X83097106Y-73809208D01*
X83030035Y-73847931D01*
X83030015Y-73847943D01*
X83021165Y-73853053D01*
X82999134Y-73862179D01*
X82985722Y-73875590D01*
X82973708Y-73883090D01*
X82953146Y-73888834D01*
X82934408Y-73899066D01*
X82920166Y-73898047D01*
X82906415Y-73901889D01*
X82886013Y-73895605D01*
X82864716Y-73894082D01*
X82853284Y-73885524D01*
X82839641Y-73881322D01*
X82825874Y-73865005D01*
X82808783Y-73852210D01*
X82803793Y-73838832D01*
X82794586Y-73827919D01*
X82791826Y-73806749D01*
X82784366Y-73786746D01*
X82784050Y-73777900D01*
X82784050Y-71622980D01*
X82788371Y-71622980D01*
X82792448Y-71576875D01*
X82800495Y-71560161D01*
X82825695Y-71516516D01*
X82856396Y-71401939D01*
X82856396Y-71283321D01*
X82825695Y-71168744D01*
X82766385Y-71066017D01*
X82682509Y-70982141D01*
X82579782Y-70922831D01*
X82465205Y-70892130D01*
X82346587Y-70892130D01*
X82232010Y-70922831D01*
X82232008Y-70922831D01*
X82232008Y-70922832D01*
X82129283Y-70982141D01*
X82129280Y-70982143D01*
X82045409Y-71066014D01*
X82045403Y-71066023D01*
X82029298Y-71093917D01*
X81978731Y-71142132D01*
X81910124Y-71155354D01*
X81859912Y-71139303D01*
X81800848Y-71105202D01*
X81800849Y-71105202D01*
X81780707Y-71099805D01*
X81686268Y-71074500D01*
X81567650Y-71074500D01*
X81453073Y-71105201D01*
X81453071Y-71105201D01*
X81453071Y-71105202D01*
X81350346Y-71164511D01*
X81350343Y-71164513D01*
X81266472Y-71248384D01*
X81266470Y-71248387D01*
X81209792Y-71346556D01*
X81207160Y-71351114D01*
X81176459Y-71465691D01*
X81176459Y-71584309D01*
X81207160Y-71698886D01*
X81266470Y-71801613D01*
X81350346Y-71885489D01*
X81453073Y-71944799D01*
X81567650Y-71975500D01*
X81569877Y-71975500D01*
X81571685Y-71976031D01*
X81575710Y-71976561D01*
X81575627Y-71977188D01*
X81636916Y-71995185D01*
X81657558Y-72011819D01*
X81845731Y-72199991D01*
X81879216Y-72261314D01*
X81882050Y-72287672D01*
X81882050Y-74228427D01*
X81862365Y-74295466D01*
X81809561Y-74341221D01*
X81740403Y-74351165D01*
X81676847Y-74322140D01*
X81670369Y-74316108D01*
X79892723Y-72538462D01*
X79859238Y-72477139D01*
X79856404Y-72450781D01*
X79856404Y-71261154D01*
X79876089Y-71194115D01*
X79892723Y-71173473D01*
X79926893Y-71139303D01*
X79966393Y-71099803D01*
X80025703Y-70997076D01*
X80056404Y-70882499D01*
X80056404Y-70763881D01*
X80025703Y-70649304D01*
X79966393Y-70546577D01*
X79882517Y-70462701D01*
X79779790Y-70403391D01*
X79665213Y-70372690D01*
X79546595Y-70372690D01*
X79432018Y-70403391D01*
X79432016Y-70403391D01*
X79432016Y-70403392D01*
X79329291Y-70462701D01*
X79329288Y-70462703D01*
X79245417Y-70546574D01*
X79245415Y-70546577D01*
X79196962Y-70630500D01*
X79186105Y-70649304D01*
X79155404Y-70763881D01*
X79155404Y-70882499D01*
X79186105Y-70997076D01*
X79245415Y-71099803D01*
X79245417Y-71099805D01*
X79319085Y-71173473D01*
X79333788Y-71200400D01*
X79350381Y-71226219D01*
X79351272Y-71232419D01*
X79352570Y-71234796D01*
X79355404Y-71261154D01*
X79355404Y-71282074D01*
X79335719Y-71349113D01*
X79282915Y-71394868D01*
X79213757Y-71404812D01*
X79169404Y-71389461D01*
X79066765Y-71330202D01*
X79066766Y-71330202D01*
X79037917Y-71322472D01*
X78952185Y-71299500D01*
X78833567Y-71299500D01*
X78718990Y-71330201D01*
X78718988Y-71330201D01*
X78718988Y-71330202D01*
X78616263Y-71389511D01*
X78616260Y-71389513D01*
X78542593Y-71463181D01*
X78481270Y-71496666D01*
X78454912Y-71499500D01*
X78150170Y-71499500D01*
X78058102Y-71537636D01*
X78058101Y-71537637D01*
X77699416Y-71896323D01*
X77672488Y-71911026D01*
X77646670Y-71927619D01*
X77640469Y-71928510D01*
X77638093Y-71929808D01*
X77611735Y-71932642D01*
X77587964Y-71932642D01*
X77520925Y-71912957D01*
X77500283Y-71896323D01*
X77426615Y-71822655D01*
X77426613Y-71822653D01*
X77323886Y-71763343D01*
X77209309Y-71732642D01*
X77090691Y-71732642D01*
X76976114Y-71763343D01*
X76976112Y-71763343D01*
X76976112Y-71763344D01*
X76873387Y-71822653D01*
X76873384Y-71822655D01*
X76789513Y-71906526D01*
X76789511Y-71906529D01*
X76774435Y-71932642D01*
X76730201Y-72009256D01*
X76699500Y-72123833D01*
X76699500Y-72242451D01*
X76730201Y-72357028D01*
X76789511Y-72459755D01*
X76873387Y-72543631D01*
X76976114Y-72602941D01*
X77090691Y-72633642D01*
X77090694Y-72633642D01*
X77209306Y-72633642D01*
X77209309Y-72633642D01*
X77323886Y-72602941D01*
X77426613Y-72543631D01*
X77500283Y-72469961D01*
X77561606Y-72436476D01*
X77587964Y-72433642D01*
X77816685Y-72433642D01*
X77816686Y-72433642D01*
X77816686Y-72433641D01*
X77818359Y-72433309D01*
X77822081Y-72433642D01*
X77828899Y-72433642D01*
X77828899Y-72434251D01*
X77887950Y-72439535D01*
X77943128Y-72482397D01*
X77966374Y-72548287D01*
X77950307Y-72616284D01*
X77949939Y-72616926D01*
X77930202Y-72651110D01*
X77930201Y-72651114D01*
X77899500Y-72765691D01*
X77899500Y-72884309D01*
X77930201Y-72998886D01*
X77989511Y-73101613D01*
X78073387Y-73185489D01*
X78176114Y-73244799D01*
X78290691Y-73275500D01*
X78290694Y-73275500D01*
X78417437Y-73275500D01*
X78417437Y-73278466D01*
X78472435Y-73287039D01*
X78507274Y-73311535D01*
X81961071Y-76765332D01*
X81994556Y-76826655D01*
X81989572Y-76896347D01*
X81947700Y-76952280D01*
X81882236Y-76976697D01*
X81854618Y-76974969D01*
X81854606Y-76975097D01*
X81851043Y-76974746D01*
X81849202Y-76974631D01*
X81848543Y-76974500D01*
X81848541Y-76974500D01*
X81651459Y-76974500D01*
X81651457Y-76974500D01*
X81458170Y-77012947D01*
X81458160Y-77012950D01*
X81276092Y-77088364D01*
X81276079Y-77088371D01*
X81112218Y-77197860D01*
X81112214Y-77197863D01*
X80972863Y-77337214D01*
X80972860Y-77337218D01*
X80863371Y-77501079D01*
X80863364Y-77501092D01*
X80787950Y-77683160D01*
X80787947Y-77683170D01*
X80749500Y-77876456D01*
X80749500Y-77876459D01*
X80749500Y-78323541D01*
X80749500Y-78323543D01*
X80749499Y-78323543D01*
X80787947Y-78516829D01*
X80787950Y-78516839D01*
X80863364Y-78698907D01*
X80863371Y-78698920D01*
X80972860Y-78862781D01*
X80972863Y-78862785D01*
X81112214Y-79002136D01*
X81112218Y-79002139D01*
X81276079Y-79111628D01*
X81276092Y-79111635D01*
X81458160Y-79187049D01*
X81458165Y-79187051D01*
X81458169Y-79187051D01*
X81458170Y-79187052D01*
X81651456Y-79225500D01*
X81651459Y-79225500D01*
X81848543Y-79225500D01*
X81978582Y-79199632D01*
X82041835Y-79187051D01*
X82223914Y-79111632D01*
X82387782Y-79002139D01*
X82527139Y-78862782D01*
X82636632Y-78698914D01*
X82712051Y-78516835D01*
X82750500Y-78323541D01*
X82750500Y-77876459D01*
X82750370Y-77875805D01*
X82750401Y-77875455D01*
X82749903Y-77870394D01*
X82750862Y-77870299D01*
X82756593Y-77806215D01*
X82799453Y-77751035D01*
X82865342Y-77727786D01*
X82933339Y-77743850D01*
X82959665Y-77763925D01*
X85483573Y-80287833D01*
X85490023Y-80299651D01*
X85492084Y-80298106D01*
X85492087Y-80298110D01*
X85490026Y-80299655D01*
X85500366Y-80318600D01*
X85517043Y-80349142D01*
X85517042Y-80349151D01*
X85517048Y-80349162D01*
X85514386Y-80386285D01*
X85512059Y-80418834D01*
X85512052Y-80418842D01*
X85512052Y-80418853D01*
X85489819Y-80448542D01*
X85470187Y-80474767D01*
X85470178Y-80474770D01*
X85470171Y-80474780D01*
X85434384Y-80488120D01*
X85404723Y-80499184D01*
X85404705Y-80499184D01*
X85404702Y-80499186D01*
X85404697Y-80499184D01*
X85395877Y-80499500D01*
X81061406Y-80499500D01*
X80994367Y-80479815D01*
X80948612Y-80427011D01*
X80941633Y-80407600D01*
X80919799Y-80326114D01*
X80860489Y-80223387D01*
X80776613Y-80139511D01*
X80673886Y-80080201D01*
X80559309Y-80049500D01*
X80440691Y-80049500D01*
X80326114Y-80080201D01*
X80326112Y-80080201D01*
X80326112Y-80080202D01*
X80223387Y-80139511D01*
X80223384Y-80139513D01*
X80139513Y-80223384D01*
X80139511Y-80223387D01*
X80095480Y-80299651D01*
X80080201Y-80326114D01*
X80049500Y-80440691D01*
X80049500Y-80559309D01*
X80080201Y-80673886D01*
X80139511Y-80776613D01*
X80223387Y-80860489D01*
X80326114Y-80919799D01*
X80440691Y-80950500D01*
X80440694Y-80950500D01*
X80554797Y-80950500D01*
X80602250Y-80959939D01*
X80608101Y-80962362D01*
X80608103Y-80962364D01*
X80700172Y-81000500D01*
X80700174Y-81000500D01*
X92149826Y-81000500D01*
X92149828Y-81000500D01*
X92241897Y-80962364D01*
X93712364Y-79491897D01*
X93750500Y-79399828D01*
X93750500Y-79300172D01*
X93750500Y-78039322D01*
X93770185Y-77972283D01*
X93786819Y-77951641D01*
X94244985Y-77493475D01*
X95749500Y-77493475D01*
X95749500Y-79006517D01*
X95756308Y-79049500D01*
X95764354Y-79100304D01*
X95821950Y-79213342D01*
X95821952Y-79213344D01*
X95821954Y-79213347D01*
X95911652Y-79303045D01*
X95911654Y-79303046D01*
X95911658Y-79303050D01*
X96024694Y-79360645D01*
X96024698Y-79360647D01*
X96118475Y-79375499D01*
X96118481Y-79375500D01*
X97381518Y-79375499D01*
X97475304Y-79360646D01*
X97588342Y-79303050D01*
X97678050Y-79213342D01*
X97735646Y-79100304D01*
X97735646Y-79100302D01*
X97735647Y-79100301D01*
X97749507Y-79012790D01*
X97750500Y-79006519D01*
X97750500Y-78473543D01*
X98249499Y-78473543D01*
X98287947Y-78666829D01*
X98287950Y-78666839D01*
X98363364Y-78848907D01*
X98363371Y-78848920D01*
X98472860Y-79012781D01*
X98472863Y-79012785D01*
X98612214Y-79152136D01*
X98612218Y-79152139D01*
X98776079Y-79261628D01*
X98776092Y-79261635D01*
X98939406Y-79329281D01*
X98958165Y-79337051D01*
X98958169Y-79337051D01*
X98958170Y-79337052D01*
X99151456Y-79375500D01*
X99151459Y-79375500D01*
X99348543Y-79375500D01*
X99497273Y-79345915D01*
X99541835Y-79337051D01*
X99723914Y-79261632D01*
X99887782Y-79152139D01*
X100027139Y-79012782D01*
X100136632Y-78848914D01*
X100212051Y-78666835D01*
X100235325Y-78549829D01*
X100250500Y-78473543D01*
X100749499Y-78473543D01*
X100787947Y-78666829D01*
X100787950Y-78666839D01*
X100863364Y-78848907D01*
X100863371Y-78848920D01*
X100972860Y-79012781D01*
X100972863Y-79012785D01*
X101112214Y-79152136D01*
X101112218Y-79152139D01*
X101276079Y-79261628D01*
X101276092Y-79261635D01*
X101439406Y-79329281D01*
X101458165Y-79337051D01*
X101458169Y-79337051D01*
X101458170Y-79337052D01*
X101651456Y-79375500D01*
X101651459Y-79375500D01*
X101848543Y-79375500D01*
X101997273Y-79345915D01*
X102041835Y-79337051D01*
X102223914Y-79261632D01*
X102387782Y-79152139D01*
X102527139Y-79012782D01*
X102636632Y-78848914D01*
X102712051Y-78666835D01*
X102735325Y-78549829D01*
X102750500Y-78473543D01*
X102750500Y-78026456D01*
X102712052Y-77833170D01*
X102712051Y-77833169D01*
X102712051Y-77833165D01*
X102700888Y-77806215D01*
X102636635Y-77651092D01*
X102636628Y-77651079D01*
X102527139Y-77487218D01*
X102527136Y-77487214D01*
X102387785Y-77347863D01*
X102387781Y-77347860D01*
X102223920Y-77238371D01*
X102223907Y-77238364D01*
X102041839Y-77162950D01*
X102041829Y-77162947D01*
X101848543Y-77124500D01*
X101848541Y-77124500D01*
X101651459Y-77124500D01*
X101651457Y-77124500D01*
X101458170Y-77162947D01*
X101458160Y-77162950D01*
X101276092Y-77238364D01*
X101276079Y-77238371D01*
X101112218Y-77347860D01*
X101112214Y-77347863D01*
X100972863Y-77487214D01*
X100972860Y-77487218D01*
X100863371Y-77651079D01*
X100863364Y-77651092D01*
X100787950Y-77833160D01*
X100787947Y-77833170D01*
X100749500Y-78026456D01*
X100749500Y-78026459D01*
X100749500Y-78473541D01*
X100749500Y-78473543D01*
X100749499Y-78473543D01*
X100250500Y-78473543D01*
X100250500Y-78026456D01*
X100212052Y-77833170D01*
X100212051Y-77833169D01*
X100212051Y-77833165D01*
X100200888Y-77806215D01*
X100136635Y-77651092D01*
X100136628Y-77651079D01*
X100027139Y-77487218D01*
X100027136Y-77487214D01*
X99887785Y-77347863D01*
X99887781Y-77347860D01*
X99723920Y-77238371D01*
X99723907Y-77238364D01*
X99541839Y-77162950D01*
X99541829Y-77162947D01*
X99348543Y-77124500D01*
X99348541Y-77124500D01*
X99151459Y-77124500D01*
X99151457Y-77124500D01*
X98958170Y-77162947D01*
X98958160Y-77162950D01*
X98776092Y-77238364D01*
X98776079Y-77238371D01*
X98612218Y-77347860D01*
X98612214Y-77347863D01*
X98472863Y-77487214D01*
X98472860Y-77487218D01*
X98363371Y-77651079D01*
X98363364Y-77651092D01*
X98287950Y-77833160D01*
X98287947Y-77833170D01*
X98249500Y-78026456D01*
X98249500Y-78026459D01*
X98249500Y-78473541D01*
X98249500Y-78473543D01*
X98249499Y-78473543D01*
X97750500Y-78473543D01*
X97750499Y-77493482D01*
X97735646Y-77399696D01*
X97678050Y-77286658D01*
X97678046Y-77286654D01*
X97678045Y-77286652D01*
X97588347Y-77196954D01*
X97588344Y-77196952D01*
X97588342Y-77196950D01*
X97480786Y-77142147D01*
X97475301Y-77139352D01*
X97381524Y-77124500D01*
X96118482Y-77124500D01*
X96041719Y-77136658D01*
X96024696Y-77139354D01*
X95911658Y-77196950D01*
X95911657Y-77196951D01*
X95911652Y-77196954D01*
X95821954Y-77286652D01*
X95821951Y-77286657D01*
X95821950Y-77286658D01*
X95803207Y-77323444D01*
X95764352Y-77399698D01*
X95749500Y-77493475D01*
X94244985Y-77493475D01*
X95899641Y-75838819D01*
X95960964Y-75805334D01*
X95987322Y-75802500D01*
X99511942Y-75802500D01*
X99578981Y-75822185D01*
X99599623Y-75838819D01*
X100374168Y-76613364D01*
X100466237Y-76651500D01*
X100466239Y-76651500D01*
X101516512Y-76651500D01*
X101516514Y-76651500D01*
X101516515Y-76651499D01*
X101528493Y-76649117D01*
X101528616Y-76649737D01*
X101560971Y-76643302D01*
X102022596Y-76643302D01*
X102022598Y-76643302D01*
X102114667Y-76605166D01*
X102183014Y-76536819D01*
X102244337Y-76503334D01*
X102270695Y-76500500D01*
X104350412Y-76500500D01*
X104350414Y-76500500D01*
X104442483Y-76462364D01*
X105111666Y-75793178D01*
X105131933Y-75782111D01*
X105149624Y-75767266D01*
X105165024Y-75764043D01*
X105172989Y-75759694D01*
X105183641Y-75757859D01*
X105191465Y-75756860D01*
X105267139Y-75756860D01*
X105336030Y-75738400D01*
X105344328Y-75737341D01*
X105370896Y-75741590D01*
X105397789Y-75742230D01*
X105404872Y-75747023D01*
X105413321Y-75748375D01*
X105433372Y-75766312D01*
X105455652Y-75781391D01*
X105459020Y-75789256D01*
X105465395Y-75794959D01*
X105472565Y-75820887D01*
X105483157Y-75845620D01*
X105481738Y-75854055D01*
X105484019Y-75862301D01*
X105476031Y-75887992D01*
X105471571Y-75914522D01*
X105464850Y-75923959D01*
X105463277Y-75929021D01*
X105458230Y-75933256D01*
X105447715Y-75948023D01*
X104307558Y-77088181D01*
X104246235Y-77121666D01*
X104219877Y-77124500D01*
X104151457Y-77124500D01*
X103958170Y-77162947D01*
X103958160Y-77162950D01*
X103776092Y-77238364D01*
X103776079Y-77238371D01*
X103612218Y-77347860D01*
X103612214Y-77347863D01*
X103472863Y-77487214D01*
X103472860Y-77487218D01*
X103363371Y-77651079D01*
X103363364Y-77651092D01*
X103287950Y-77833160D01*
X103287947Y-77833170D01*
X103249500Y-78026456D01*
X103249500Y-78026459D01*
X103249500Y-78473541D01*
X103249500Y-78473543D01*
X103249499Y-78473543D01*
X103287947Y-78666829D01*
X103287950Y-78666839D01*
X103363364Y-78848907D01*
X103363371Y-78848920D01*
X103472860Y-79012781D01*
X103472863Y-79012785D01*
X103612214Y-79152136D01*
X103612218Y-79152139D01*
X103776079Y-79261628D01*
X103776092Y-79261635D01*
X103939406Y-79329281D01*
X103958165Y-79337051D01*
X103958169Y-79337051D01*
X103958170Y-79337052D01*
X104151456Y-79375500D01*
X104151459Y-79375500D01*
X104348543Y-79375500D01*
X104497273Y-79345915D01*
X104541835Y-79337051D01*
X104723914Y-79261632D01*
X104887782Y-79152139D01*
X105027139Y-79012782D01*
X105027145Y-79012772D01*
X105029643Y-79009730D01*
X105031365Y-79008556D01*
X105031447Y-79008475D01*
X105031462Y-79008490D01*
X105087387Y-78970393D01*
X105157232Y-78968520D01*
X105217002Y-79004704D01*
X105247721Y-79067459D01*
X105249500Y-79088391D01*
X105249500Y-79344875D01*
X105240856Y-79374311D01*
X105234338Y-79404291D01*
X105230578Y-79409314D01*
X105229815Y-79411914D01*
X105213190Y-79432547D01*
X105208301Y-79437437D01*
X105146981Y-79470929D01*
X105120611Y-79473765D01*
X105016426Y-79473765D01*
X104901849Y-79504466D01*
X104901847Y-79504466D01*
X104901847Y-79504467D01*
X104799122Y-79563776D01*
X104799119Y-79563778D01*
X104715248Y-79647649D01*
X104715246Y-79647652D01*
X104658904Y-79745239D01*
X104655936Y-79750379D01*
X104625235Y-79864956D01*
X104625235Y-79983574D01*
X104655936Y-80098151D01*
X104715246Y-80200878D01*
X104799122Y-80284754D01*
X104901849Y-80344064D01*
X105016426Y-80374765D01*
X105016429Y-80374765D01*
X105135041Y-80374765D01*
X105135044Y-80374765D01*
X105249621Y-80344064D01*
X105352348Y-80284754D01*
X105436224Y-80200878D01*
X105495534Y-80098151D01*
X105526235Y-79983574D01*
X105526235Y-79879387D01*
X105545920Y-79812348D01*
X105562548Y-79791711D01*
X105712364Y-79641897D01*
X105750500Y-79549828D01*
X105750500Y-79450173D01*
X105750500Y-79088391D01*
X105770185Y-79021352D01*
X105822989Y-78975597D01*
X105892147Y-78965653D01*
X105955703Y-78994678D01*
X105970357Y-79009730D01*
X105972859Y-79012779D01*
X105972860Y-79012781D01*
X105972868Y-79012790D01*
X106112214Y-79152136D01*
X106112218Y-79152139D01*
X106276079Y-79261628D01*
X106276092Y-79261635D01*
X106439406Y-79329281D01*
X106458165Y-79337051D01*
X106458169Y-79337051D01*
X106458170Y-79337052D01*
X106651456Y-79375500D01*
X106651459Y-79375500D01*
X106848543Y-79375500D01*
X106997273Y-79345915D01*
X107041835Y-79337051D01*
X107223914Y-79261632D01*
X107387782Y-79152139D01*
X107412882Y-79127039D01*
X107438819Y-79101103D01*
X107500142Y-79067618D01*
X107569834Y-79072602D01*
X107625767Y-79114474D01*
X107650184Y-79179938D01*
X107650500Y-79188784D01*
X107650500Y-79693876D01*
X107630815Y-79760915D01*
X107614181Y-79781557D01*
X106382557Y-81013181D01*
X106321234Y-81046666D01*
X106294876Y-81049500D01*
X106190691Y-81049500D01*
X106076114Y-81080201D01*
X106076112Y-81080201D01*
X106076112Y-81080202D01*
X105973387Y-81139511D01*
X105973384Y-81139513D01*
X105889513Y-81223384D01*
X105889511Y-81223387D01*
X105857347Y-81279097D01*
X105830201Y-81326114D01*
X105799500Y-81440691D01*
X105799500Y-81559309D01*
X105830201Y-81673886D01*
X105889511Y-81776613D01*
X105973387Y-81860489D01*
X106076114Y-81919799D01*
X106190691Y-81950500D01*
X106190694Y-81950500D01*
X106309306Y-81950500D01*
X106309309Y-81950500D01*
X106423886Y-81919799D01*
X106526613Y-81860489D01*
X106610489Y-81776613D01*
X106669799Y-81673886D01*
X106700500Y-81559309D01*
X106700500Y-81455121D01*
X106720185Y-81388082D01*
X106736814Y-81367444D01*
X108042895Y-80061364D01*
X108042897Y-80061364D01*
X108113364Y-79990897D01*
X108142814Y-79919799D01*
X108151501Y-79898827D01*
X108151501Y-79799172D01*
X108151501Y-79789183D01*
X108151500Y-79789169D01*
X108151500Y-78943537D01*
X111051291Y-78943537D01*
X111051291Y-79062155D01*
X111081992Y-79176732D01*
X111141302Y-79279459D01*
X111225178Y-79363335D01*
X111327905Y-79422645D01*
X111442482Y-79453346D01*
X111442485Y-79453346D01*
X111561097Y-79453346D01*
X111561100Y-79453346D01*
X111675677Y-79422645D01*
X111778404Y-79363335D01*
X111862280Y-79279459D01*
X111921590Y-79176732D01*
X111952291Y-79062155D01*
X111952291Y-78945517D01*
X111953917Y-78937338D01*
X111953002Y-78932262D01*
X111961730Y-78898064D01*
X111978283Y-78858103D01*
X111996179Y-78814897D01*
X112000501Y-78804464D01*
X112000501Y-78704809D01*
X112000501Y-78694820D01*
X112000500Y-78694806D01*
X112000500Y-78187964D01*
X112020185Y-78120925D01*
X112036819Y-78100283D01*
X112110489Y-78026613D01*
X112169799Y-77923886D01*
X112200500Y-77809309D01*
X112200500Y-77690691D01*
X112169799Y-77576114D01*
X112110489Y-77473387D01*
X112026613Y-77389511D01*
X111923886Y-77330201D01*
X111809309Y-77299500D01*
X111690691Y-77299500D01*
X111576114Y-77330201D01*
X111576112Y-77330201D01*
X111576112Y-77330202D01*
X111473387Y-77389511D01*
X111473384Y-77389513D01*
X111389513Y-77473384D01*
X111389511Y-77473387D01*
X111373808Y-77500586D01*
X111330201Y-77576114D01*
X111299500Y-77690691D01*
X111299500Y-77809309D01*
X111330201Y-77923886D01*
X111389511Y-78026613D01*
X111389513Y-78026615D01*
X111463181Y-78100283D01*
X111496666Y-78161606D01*
X111499500Y-78187964D01*
X111499500Y-78441919D01*
X111479815Y-78508958D01*
X111427011Y-78554713D01*
X111407595Y-78561693D01*
X111327906Y-78583046D01*
X111327905Y-78583046D01*
X111225178Y-78642357D01*
X111225175Y-78642359D01*
X111141304Y-78726230D01*
X111141302Y-78726233D01*
X111081992Y-78828960D01*
X111051291Y-78943537D01*
X108151500Y-78943537D01*
X108151500Y-77598413D01*
X108151499Y-77598410D01*
X108142263Y-77576112D01*
X108113364Y-77506343D01*
X108043202Y-77436181D01*
X108009717Y-77374858D01*
X108014701Y-77305166D01*
X108056573Y-77249233D01*
X108122037Y-77224816D01*
X108130883Y-77224500D01*
X109571637Y-77224500D01*
X109598719Y-77232452D01*
X109626530Y-77237312D01*
X109634341Y-77242912D01*
X109638676Y-77244185D01*
X109655632Y-77257281D01*
X109657500Y-77259001D01*
X109710980Y-77312481D01*
X109719339Y-77315943D01*
X109734831Y-77330208D01*
X109741941Y-77342043D01*
X109758223Y-77359427D01*
X109768210Y-77376726D01*
X109768212Y-77376728D01*
X109768213Y-77376730D01*
X109852089Y-77460606D01*
X109954816Y-77519916D01*
X110069393Y-77550617D01*
X110069396Y-77550617D01*
X110188008Y-77550617D01*
X110188011Y-77550617D01*
X110302588Y-77519916D01*
X110405315Y-77460606D01*
X110489191Y-77376730D01*
X110548501Y-77274003D01*
X110579202Y-77159426D01*
X110579202Y-77040808D01*
X110548501Y-76926231D01*
X110489191Y-76823504D01*
X110405315Y-76739628D01*
X110302588Y-76680318D01*
X110188011Y-76649617D01*
X110069393Y-76649617D01*
X109964207Y-76677801D01*
X109954812Y-76680319D01*
X109889771Y-76717871D01*
X109821871Y-76734344D01*
X109780318Y-76725045D01*
X109776589Y-76723500D01*
X109776588Y-76723500D01*
X107948983Y-76723500D01*
X107881944Y-76703815D01*
X107861302Y-76687181D01*
X107437819Y-76263698D01*
X107404334Y-76202375D01*
X107401500Y-76176017D01*
X107401500Y-73851173D01*
X107401500Y-73851172D01*
X107369650Y-73774279D01*
X107362182Y-73704816D01*
X107393456Y-73642336D01*
X107453545Y-73606683D01*
X107523370Y-73609176D01*
X107571893Y-73639150D01*
X107818268Y-73885524D01*
X108074639Y-74141895D01*
X108074640Y-74141897D01*
X108145107Y-74212364D01*
X108171719Y-74223387D01*
X108237177Y-74250501D01*
X108237178Y-74250501D01*
X108351266Y-74250501D01*
X108351274Y-74250500D01*
X109594877Y-74250500D01*
X109661916Y-74270185D01*
X109682558Y-74286819D01*
X116533049Y-81137309D01*
X116533052Y-81137313D01*
X116540120Y-81144381D01*
X116610587Y-81214848D01*
X116702656Y-81252984D01*
X118059552Y-81252984D01*
X118126591Y-81272669D01*
X118147233Y-81289303D01*
X118220903Y-81362973D01*
X118323630Y-81422283D01*
X118438207Y-81452984D01*
X118438210Y-81452984D01*
X118556822Y-81452984D01*
X118556825Y-81452984D01*
X118671402Y-81422283D01*
X118774129Y-81362973D01*
X118858005Y-81279097D01*
X118917315Y-81176370D01*
X118948016Y-81061793D01*
X118948016Y-80943175D01*
X118917315Y-80828598D01*
X118858005Y-80725871D01*
X118774129Y-80641995D01*
X118708823Y-80604290D01*
X118660609Y-80553723D01*
X118647387Y-80485116D01*
X118663439Y-80434902D01*
X118664388Y-80433257D01*
X118669799Y-80423886D01*
X118700500Y-80309309D01*
X118700500Y-80190691D01*
X118669799Y-80076114D01*
X118610489Y-79973387D01*
X118526613Y-79889511D01*
X118423886Y-79830201D01*
X118309309Y-79799500D01*
X118190691Y-79799500D01*
X118076114Y-79830201D01*
X118076112Y-79830201D01*
X118076112Y-79830202D01*
X117973387Y-79889511D01*
X117973384Y-79889513D01*
X117899717Y-79963181D01*
X117838394Y-79996666D01*
X117812036Y-79999500D01*
X116905123Y-79999500D01*
X116838084Y-79979815D01*
X116817442Y-79963181D01*
X110225797Y-73371536D01*
X110133729Y-73333400D01*
X110133728Y-73333400D01*
X108989023Y-73333400D01*
X108921984Y-73313715D01*
X108901342Y-73297081D01*
X107726662Y-72122401D01*
X107726661Y-72122400D01*
X107666769Y-72097592D01*
X107612366Y-72053750D01*
X107598174Y-72026719D01*
X107590720Y-72006918D01*
X107590720Y-71997743D01*
X107552812Y-71906226D01*
X107552100Y-71904333D01*
X107551656Y-71898388D01*
X107544149Y-71860645D01*
X107544149Y-71741693D01*
X107544149Y-71741691D01*
X107513448Y-71627114D01*
X107454138Y-71524387D01*
X107370262Y-71440511D01*
X107267535Y-71381201D01*
X107152958Y-71350500D01*
X107034340Y-71350500D01*
X106919763Y-71381201D01*
X106919761Y-71381201D01*
X106919761Y-71381202D01*
X106817036Y-71440511D01*
X106817033Y-71440513D01*
X106733162Y-71524384D01*
X106733160Y-71524387D01*
X106683449Y-71610489D01*
X106673850Y-71627114D01*
X106643149Y-71741691D01*
X106643149Y-71860309D01*
X106673850Y-71974886D01*
X106673851Y-71974889D01*
X106685296Y-71994712D01*
X106701769Y-72062612D01*
X106678917Y-72128639D01*
X106639911Y-72164098D01*
X106573390Y-72202505D01*
X106573384Y-72202509D01*
X106489513Y-72286380D01*
X106489511Y-72286383D01*
X106431557Y-72386762D01*
X106430201Y-72389110D01*
X106411272Y-72459754D01*
X106399499Y-72503690D01*
X106398439Y-72511747D01*
X106394973Y-72511290D01*
X106379815Y-72562916D01*
X106327011Y-72608671D01*
X106257853Y-72618615D01*
X106194297Y-72589590D01*
X106187819Y-72583558D01*
X106003035Y-72398774D01*
X105969550Y-72337451D01*
X105966716Y-72311093D01*
X105966716Y-72040504D01*
X105966716Y-72016046D01*
X105966717Y-72016044D01*
X105966717Y-71916389D01*
X105939010Y-71849500D01*
X105928580Y-71824319D01*
X105858113Y-71753852D01*
X105851048Y-71746787D01*
X105851041Y-71746781D01*
X104536819Y-70432558D01*
X104522115Y-70405630D01*
X104505523Y-70379812D01*
X104504631Y-70373611D01*
X104503334Y-70371235D01*
X104500500Y-70344877D01*
X104500500Y-70329600D01*
X106160591Y-70329600D01*
X106160591Y-70448218D01*
X106191292Y-70562795D01*
X106250602Y-70665522D01*
X106334478Y-70749398D01*
X106437205Y-70808708D01*
X106551782Y-70839409D01*
X106551785Y-70839409D01*
X106670397Y-70839409D01*
X106670400Y-70839409D01*
X106784977Y-70808708D01*
X106807107Y-70795931D01*
X106857022Y-70767113D01*
X106919022Y-70750500D01*
X107694877Y-70750500D01*
X107761916Y-70770185D01*
X107782558Y-70786819D01*
X108186901Y-71191162D01*
X108257368Y-71261629D01*
X108349437Y-71299765D01*
X110512774Y-71299765D01*
X110579813Y-71319450D01*
X110600455Y-71336084D01*
X110674125Y-71409754D01*
X110776852Y-71469064D01*
X110891429Y-71499765D01*
X110891432Y-71499765D01*
X111010044Y-71499765D01*
X111010047Y-71499765D01*
X111124624Y-71469064D01*
X111227351Y-71409754D01*
X111311227Y-71325878D01*
X111370537Y-71223151D01*
X111401238Y-71108574D01*
X111401238Y-70989956D01*
X111370537Y-70875379D01*
X111311227Y-70772652D01*
X111227351Y-70688776D01*
X111124624Y-70629466D01*
X111010047Y-70598765D01*
X110891429Y-70598765D01*
X110776852Y-70629466D01*
X110776850Y-70629466D01*
X110776850Y-70629467D01*
X110674125Y-70688776D01*
X110674122Y-70688778D01*
X110600455Y-70762446D01*
X110539132Y-70795931D01*
X110512774Y-70798765D01*
X108554388Y-70798765D01*
X108487349Y-70779080D01*
X108466707Y-70762446D01*
X107991897Y-70287636D01*
X107899829Y-70249500D01*
X107899828Y-70249500D01*
X107122387Y-70249500D01*
X107055348Y-70229815D01*
X107015000Y-70187501D01*
X106971580Y-70112296D01*
X106887704Y-70028420D01*
X106784977Y-69969110D01*
X106670400Y-69938409D01*
X106551782Y-69938409D01*
X106437205Y-69969110D01*
X106437203Y-69969110D01*
X106437203Y-69969111D01*
X106334478Y-70028420D01*
X106334475Y-70028422D01*
X106250604Y-70112293D01*
X106250602Y-70112296D01*
X106243109Y-70125275D01*
X106191292Y-70215023D01*
X106160591Y-70329600D01*
X104500500Y-70329600D01*
X104500500Y-66687964D01*
X104520185Y-66620925D01*
X104536819Y-66600283D01*
X104577793Y-66559309D01*
X104596411Y-66540691D01*
X106550557Y-66540691D01*
X106550557Y-66659309D01*
X106581258Y-66773886D01*
X106640568Y-66876613D01*
X106724444Y-66960489D01*
X106827171Y-67019799D01*
X106941748Y-67050500D01*
X106941751Y-67050500D01*
X107045934Y-67050500D01*
X107112973Y-67070185D01*
X107133615Y-67086819D01*
X107483929Y-67437132D01*
X107822672Y-67775875D01*
X107822673Y-67775877D01*
X107893140Y-67846344D01*
X107921529Y-67858103D01*
X107985210Y-67884481D01*
X107985211Y-67884481D01*
X108099299Y-67884481D01*
X108099307Y-67884480D01*
X108728857Y-67884480D01*
X108795896Y-67904165D01*
X108816538Y-67920799D01*
X119963181Y-79067441D01*
X119996666Y-79128764D01*
X119999500Y-79155122D01*
X119999500Y-84255718D01*
X119979815Y-84322757D01*
X119963181Y-84343399D01*
X118840661Y-85465918D01*
X118840662Y-85465919D01*
X118787636Y-85518945D01*
X118749500Y-85611012D01*
X118749500Y-85812035D01*
X118729815Y-85879074D01*
X118713182Y-85899716D01*
X118639511Y-85973387D01*
X118580201Y-86076114D01*
X118549500Y-86190691D01*
X118549500Y-86309309D01*
X118580201Y-86423886D01*
X118639511Y-86526613D01*
X118723387Y-86610489D01*
X118826114Y-86669799D01*
X118940691Y-86700500D01*
X118940694Y-86700500D01*
X119059306Y-86700500D01*
X119059309Y-86700500D01*
X119173886Y-86669799D01*
X119276613Y-86610489D01*
X119360489Y-86526613D01*
X119419799Y-86423886D01*
X119450500Y-86309309D01*
X119450500Y-86190691D01*
X119419799Y-86076114D01*
X119360489Y-85973387D01*
X119288782Y-85901680D01*
X119255298Y-85840356D01*
X119260283Y-85770665D01*
X119288781Y-85726320D01*
X120374455Y-84640645D01*
X120374458Y-84640644D01*
X120391896Y-84623206D01*
X120391897Y-84623206D01*
X120462364Y-84552739D01*
X120500500Y-84460670D01*
X120500500Y-79064270D01*
X120500501Y-79064261D01*
X120500501Y-78950174D01*
X120500501Y-78950173D01*
X120464302Y-78862782D01*
X120462364Y-78858103D01*
X120391897Y-78787636D01*
X120391895Y-78787635D01*
X120384829Y-78780568D01*
X120384825Y-78780565D01*
X112174506Y-70570245D01*
X112094952Y-70490691D01*
X113299500Y-70490691D01*
X113299500Y-70609309D01*
X113330201Y-70723886D01*
X113389511Y-70826613D01*
X113473387Y-70910489D01*
X113576114Y-70969799D01*
X113690691Y-71000500D01*
X113690694Y-71000500D01*
X113809306Y-71000500D01*
X113809309Y-71000500D01*
X113923886Y-70969799D01*
X114026613Y-70910489D01*
X114110489Y-70826613D01*
X114169799Y-70723886D01*
X114170196Y-70722404D01*
X114170872Y-70721295D01*
X114172907Y-70716382D01*
X114173673Y-70716699D01*
X114206560Y-70662746D01*
X114269407Y-70632217D01*
X114289970Y-70630500D01*
X123687974Y-70630500D01*
X123755013Y-70650185D01*
X123800768Y-70702989D01*
X123802526Y-70707028D01*
X123814948Y-70737016D01*
X123863364Y-70853908D01*
X123863371Y-70853920D01*
X123972860Y-71017781D01*
X123972863Y-71017785D01*
X124112214Y-71157136D01*
X124112218Y-71157139D01*
X124281151Y-71270017D01*
X124280342Y-71271226D01*
X124325010Y-71315100D01*
X124340473Y-71383237D01*
X124316645Y-71448917D01*
X124261089Y-71491288D01*
X124216715Y-71499500D01*
X122400167Y-71499500D01*
X122308099Y-71537636D01*
X121882557Y-71963178D01*
X121821234Y-71996663D01*
X121794876Y-71999497D01*
X121690691Y-71999497D01*
X121576114Y-72030198D01*
X121576112Y-72030198D01*
X121576112Y-72030199D01*
X121473387Y-72089508D01*
X121473384Y-72089510D01*
X121389513Y-72173381D01*
X121389511Y-72173384D01*
X121348432Y-72244535D01*
X121330201Y-72276111D01*
X121299500Y-72390688D01*
X121299500Y-72509306D01*
X121330201Y-72623883D01*
X121389511Y-72726610D01*
X121389513Y-72726612D01*
X121425218Y-72762317D01*
X121458703Y-72823640D01*
X121453719Y-72893332D01*
X121425219Y-72937678D01*
X121389514Y-72973383D01*
X121389511Y-72973387D01*
X121361687Y-73021580D01*
X121330201Y-73076114D01*
X121299500Y-73190691D01*
X121299500Y-73309309D01*
X121330201Y-73423886D01*
X121389511Y-73526613D01*
X121473387Y-73610489D01*
X121576114Y-73669799D01*
X121690691Y-73700500D01*
X121690694Y-73700500D01*
X121794877Y-73700500D01*
X121861916Y-73720185D01*
X121882558Y-73736819D01*
X122206552Y-74060812D01*
X122537635Y-74391895D01*
X122537636Y-74391897D01*
X122608103Y-74462364D01*
X122629457Y-74471209D01*
X122700173Y-74500501D01*
X122700174Y-74500501D01*
X122814262Y-74500501D01*
X122814270Y-74500500D01*
X123995216Y-74500500D01*
X124062255Y-74520185D01*
X124108010Y-74572989D01*
X124117954Y-74642147D01*
X124088929Y-74705703D01*
X124082897Y-74712181D01*
X123972863Y-74822214D01*
X123972860Y-74822218D01*
X123863371Y-74986079D01*
X123863364Y-74986092D01*
X123787950Y-75168160D01*
X123787947Y-75168170D01*
X123749500Y-75361456D01*
X123749500Y-75361459D01*
X123749500Y-75558541D01*
X123749500Y-75558543D01*
X123749499Y-75558543D01*
X123787947Y-75751829D01*
X123787950Y-75751839D01*
X123863364Y-75933907D01*
X123863371Y-75933920D01*
X123972860Y-76097781D01*
X123972863Y-76097785D01*
X124112214Y-76237136D01*
X124112218Y-76237139D01*
X124276079Y-76346628D01*
X124276092Y-76346635D01*
X124365190Y-76383540D01*
X124458165Y-76422051D01*
X124458169Y-76422051D01*
X124458170Y-76422052D01*
X124651456Y-76460500D01*
X124651459Y-76460500D01*
X124848543Y-76460500D01*
X124978582Y-76434632D01*
X125041835Y-76422051D01*
X125223914Y-76346632D01*
X125387782Y-76237139D01*
X125527139Y-76097782D01*
X125636632Y-75933914D01*
X125640756Y-75923959D01*
X125666295Y-75862301D01*
X125712051Y-75751835D01*
X125730513Y-75659023D01*
X125750500Y-75558543D01*
X125750500Y-75361456D01*
X125712052Y-75168170D01*
X125712051Y-75168169D01*
X125712051Y-75168165D01*
X125698362Y-75135116D01*
X125636635Y-74986092D01*
X125636628Y-74986079D01*
X125527139Y-74822218D01*
X125527136Y-74822214D01*
X125387785Y-74682863D01*
X125387779Y-74682858D01*
X125360393Y-74664559D01*
X125315589Y-74610947D01*
X125306882Y-74541621D01*
X125337037Y-74478594D01*
X125342146Y-74473238D01*
X125352257Y-74463250D01*
X125354397Y-74462364D01*
X125362453Y-74454308D01*
X130089994Y-74454308D01*
X130089994Y-74545691D01*
X130098212Y-74608104D01*
X130107219Y-74676518D01*
X130112937Y-74697856D01*
X130130868Y-74764778D01*
X130181359Y-74886675D01*
X130181364Y-74886685D01*
X130181365Y-74886687D01*
X130182997Y-74889513D01*
X130227050Y-74965817D01*
X130307384Y-75070509D01*
X130307392Y-75070518D01*
X130371982Y-75135108D01*
X130371990Y-75135115D01*
X130371991Y-75135116D01*
X130379692Y-75141025D01*
X130457441Y-75200685D01*
X130476685Y-75215451D01*
X130555813Y-75261135D01*
X130555818Y-75261137D01*
X130555824Y-75261140D01*
X130677722Y-75311631D01*
X130677720Y-75311631D01*
X130677726Y-75311632D01*
X130677727Y-75311633D01*
X130765982Y-75335281D01*
X130896816Y-75352506D01*
X130896823Y-75352506D01*
X130988177Y-75352506D01*
X130988184Y-75352506D01*
X131119018Y-75335281D01*
X131207273Y-75311633D01*
X131255609Y-75291612D01*
X131329175Y-75261140D01*
X131329175Y-75261139D01*
X131329187Y-75261135D01*
X131408315Y-75215451D01*
X131513009Y-75135116D01*
X131513013Y-75135111D01*
X131513018Y-75135108D01*
X131577608Y-75070518D01*
X131577611Y-75070513D01*
X131577616Y-75070509D01*
X131657951Y-74965815D01*
X131703635Y-74886687D01*
X131710736Y-74869543D01*
X131754131Y-74764778D01*
X131754131Y-74764777D01*
X131754133Y-74764773D01*
X131777781Y-74676518D01*
X131795006Y-74545684D01*
X131795006Y-74454316D01*
X131777781Y-74323482D01*
X131754133Y-74235227D01*
X131751891Y-74229815D01*
X131703640Y-74113324D01*
X131703635Y-74113314D01*
X131703635Y-74113313D01*
X131657951Y-74034185D01*
X131647208Y-74020185D01*
X131595190Y-73952394D01*
X131577616Y-73929491D01*
X131577615Y-73929490D01*
X131577608Y-73929482D01*
X131513018Y-73864892D01*
X131513009Y-73864884D01*
X131408317Y-73784550D01*
X131348692Y-73750126D01*
X131329187Y-73738865D01*
X131329185Y-73738864D01*
X131329175Y-73738859D01*
X131207277Y-73688368D01*
X131207279Y-73688368D01*
X131160376Y-73675801D01*
X131119018Y-73664719D01*
X131089943Y-73660891D01*
X130988191Y-73647494D01*
X130988184Y-73647494D01*
X130896816Y-73647494D01*
X130896808Y-73647494D01*
X130780519Y-73662805D01*
X130765982Y-73664719D01*
X130741851Y-73671185D01*
X130677721Y-73688368D01*
X130555824Y-73738859D01*
X130555814Y-73738864D01*
X130476682Y-73784550D01*
X130371990Y-73864884D01*
X130307384Y-73929490D01*
X130227050Y-74034182D01*
X130181364Y-74113314D01*
X130181359Y-74113324D01*
X130130868Y-74235221D01*
X130122099Y-74267950D01*
X130107219Y-74323482D01*
X130105305Y-74338019D01*
X130089994Y-74454308D01*
X125362453Y-74454308D01*
X125986882Y-73829879D01*
X126048205Y-73796394D01*
X126074563Y-73793560D01*
X126091307Y-73793560D01*
X126091310Y-73793560D01*
X126205887Y-73762859D01*
X126308614Y-73703549D01*
X126392490Y-73619673D01*
X126451800Y-73516946D01*
X126482501Y-73402369D01*
X126482501Y-73283751D01*
X126451800Y-73169174D01*
X126392490Y-73066447D01*
X126308614Y-72982571D01*
X126205887Y-72923261D01*
X126091310Y-72892560D01*
X125972692Y-72892560D01*
X125903052Y-72911220D01*
X125833202Y-72909557D01*
X125775340Y-72870394D01*
X125749342Y-72815636D01*
X125724643Y-72691468D01*
X125712051Y-72628165D01*
X125707130Y-72616284D01*
X125636635Y-72446092D01*
X125636628Y-72446079D01*
X125601423Y-72393391D01*
X125580545Y-72326713D01*
X125599030Y-72259333D01*
X125651008Y-72212643D01*
X125704525Y-72200500D01*
X125809306Y-72200500D01*
X125809309Y-72200500D01*
X125923886Y-72169799D01*
X126026613Y-72110489D01*
X126110489Y-72026613D01*
X126169799Y-71923886D01*
X126200500Y-71809309D01*
X126200500Y-71690691D01*
X126169799Y-71576114D01*
X126110489Y-71473387D01*
X126026613Y-71389511D01*
X125923886Y-71330201D01*
X125809309Y-71299500D01*
X125690691Y-71299500D01*
X125576114Y-71330201D01*
X125576113Y-71330201D01*
X125576111Y-71330202D01*
X125536733Y-71352937D01*
X125468833Y-71369409D01*
X125402806Y-71346556D01*
X125359616Y-71291634D01*
X125352975Y-71222081D01*
X125384992Y-71159979D01*
X125387053Y-71157867D01*
X125387778Y-71157141D01*
X125387782Y-71157139D01*
X125527139Y-71017782D01*
X125636632Y-70853914D01*
X125712051Y-70671835D01*
X125732259Y-70570245D01*
X125750500Y-70478543D01*
X125750500Y-70454308D01*
X130089994Y-70454308D01*
X130089994Y-70545691D01*
X130102465Y-70640406D01*
X130107219Y-70676518D01*
X130108521Y-70681376D01*
X130130868Y-70764778D01*
X130181359Y-70886675D01*
X130181364Y-70886685D01*
X130181365Y-70886687D01*
X130202233Y-70922832D01*
X130227050Y-70965817D01*
X130307384Y-71070509D01*
X130307392Y-71070518D01*
X130371982Y-71135108D01*
X130371990Y-71135115D01*
X130371991Y-71135116D01*
X130383880Y-71144239D01*
X130448879Y-71194115D01*
X130476685Y-71215451D01*
X130555813Y-71261135D01*
X130555818Y-71261137D01*
X130555824Y-71261140D01*
X130677722Y-71311631D01*
X130677720Y-71311631D01*
X130677726Y-71311632D01*
X130677727Y-71311633D01*
X130765982Y-71335281D01*
X130896816Y-71352506D01*
X130896823Y-71352506D01*
X130988177Y-71352506D01*
X130988184Y-71352506D01*
X131119018Y-71335281D01*
X131207273Y-71311633D01*
X131329187Y-71261135D01*
X131408315Y-71215451D01*
X131513009Y-71135116D01*
X131513013Y-71135111D01*
X131513018Y-71135108D01*
X131577608Y-71070518D01*
X131577611Y-71070513D01*
X131577616Y-71070509D01*
X131657951Y-70965815D01*
X131703635Y-70886687D01*
X131748207Y-70779080D01*
X131754131Y-70764778D01*
X131754131Y-70764777D01*
X131754133Y-70764773D01*
X131777781Y-70676518D01*
X131795006Y-70545684D01*
X131795006Y-70454316D01*
X131777781Y-70323482D01*
X131754133Y-70235227D01*
X131751891Y-70229815D01*
X131703640Y-70113324D01*
X131703635Y-70113314D01*
X131703635Y-70113313D01*
X131657951Y-70034185D01*
X131653527Y-70028420D01*
X131577615Y-69929490D01*
X131577608Y-69929482D01*
X131513018Y-69864892D01*
X131513009Y-69864884D01*
X131408317Y-69784550D01*
X131368751Y-69761707D01*
X131329187Y-69738865D01*
X131329185Y-69738864D01*
X131329175Y-69738859D01*
X131207277Y-69688368D01*
X131207279Y-69688368D01*
X131160376Y-69675801D01*
X131119018Y-69664719D01*
X131089943Y-69660891D01*
X130988191Y-69647494D01*
X130988184Y-69647494D01*
X130896816Y-69647494D01*
X130896808Y-69647494D01*
X130780519Y-69662805D01*
X130765982Y-69664719D01*
X130740440Y-69671563D01*
X130677721Y-69688368D01*
X130555824Y-69738859D01*
X130555814Y-69738864D01*
X130476682Y-69784550D01*
X130371990Y-69864884D01*
X130307384Y-69929490D01*
X130227050Y-70034182D01*
X130181364Y-70113314D01*
X130181359Y-70113324D01*
X130130868Y-70235221D01*
X130107219Y-70323483D01*
X130089994Y-70454308D01*
X125750500Y-70454308D01*
X125750500Y-70281456D01*
X125712052Y-70088170D01*
X125712051Y-70088169D01*
X125712051Y-70088165D01*
X125712049Y-70088160D01*
X125636635Y-69906092D01*
X125636628Y-69906079D01*
X125527139Y-69742218D01*
X125527136Y-69742214D01*
X125387785Y-69602863D01*
X125387781Y-69602860D01*
X125223920Y-69493371D01*
X125223907Y-69493364D01*
X125041839Y-69417950D01*
X125041829Y-69417947D01*
X124848543Y-69379500D01*
X124848541Y-69379500D01*
X124651459Y-69379500D01*
X124651457Y-69379500D01*
X124458170Y-69417947D01*
X124458160Y-69417950D01*
X124276092Y-69493364D01*
X124276079Y-69493371D01*
X124112218Y-69602860D01*
X124112214Y-69602863D01*
X123972863Y-69742214D01*
X123972860Y-69742218D01*
X123863371Y-69906079D01*
X123863364Y-69906091D01*
X123821773Y-70006505D01*
X123803551Y-70050500D01*
X123802535Y-70052952D01*
X123758695Y-70107356D01*
X123692401Y-70129421D01*
X123687974Y-70129500D01*
X113937596Y-70129500D01*
X113905503Y-70125275D01*
X113857053Y-70112293D01*
X113809309Y-70099500D01*
X113690691Y-70099500D01*
X113576114Y-70130201D01*
X113576112Y-70130201D01*
X113576112Y-70130202D01*
X113473387Y-70189511D01*
X113473384Y-70189513D01*
X113389513Y-70273384D01*
X113389511Y-70273387D01*
X113330201Y-70376114D01*
X113299500Y-70490691D01*
X112094952Y-70490691D01*
X110300061Y-68695800D01*
X111924500Y-68695800D01*
X111924500Y-68814418D01*
X111955201Y-68928995D01*
X112014511Y-69031722D01*
X112098387Y-69115598D01*
X112192262Y-69169797D01*
X112201114Y-69174908D01*
X112207026Y-69176492D01*
X112262618Y-69208587D01*
X112266395Y-69212364D01*
X112358464Y-69250500D01*
X112358466Y-69250500D01*
X120799826Y-69250500D01*
X120799828Y-69250500D01*
X120891897Y-69212364D01*
X121617440Y-68486818D01*
X121678763Y-68453334D01*
X121705121Y-68450500D01*
X121809306Y-68450500D01*
X121809309Y-68450500D01*
X121923886Y-68419799D01*
X122026613Y-68360489D01*
X122110489Y-68276613D01*
X122169799Y-68173886D01*
X122200500Y-68059309D01*
X122200500Y-67940691D01*
X122199924Y-67938543D01*
X123749499Y-67938543D01*
X123787947Y-68131829D01*
X123787950Y-68131839D01*
X123863364Y-68313907D01*
X123863371Y-68313920D01*
X123972860Y-68477781D01*
X123972863Y-68477785D01*
X124112214Y-68617136D01*
X124112218Y-68617139D01*
X124276079Y-68726628D01*
X124276092Y-68726635D01*
X124452006Y-68799500D01*
X124458165Y-68802051D01*
X124458169Y-68802051D01*
X124458170Y-68802052D01*
X124651456Y-68840500D01*
X124651459Y-68840500D01*
X124848543Y-68840500D01*
X125012983Y-68807790D01*
X125041835Y-68802051D01*
X125182655Y-68743721D01*
X125223907Y-68726635D01*
X125223907Y-68726634D01*
X125223914Y-68726632D01*
X125387782Y-68617139D01*
X125527139Y-68477782D01*
X125636632Y-68313914D01*
X125712051Y-68131835D01*
X125725248Y-68065489D01*
X125750500Y-67938543D01*
X125750500Y-67741456D01*
X125712052Y-67548170D01*
X125712051Y-67548169D01*
X125712051Y-67548165D01*
X125666060Y-67437132D01*
X125636635Y-67366092D01*
X125636628Y-67366079D01*
X125527139Y-67202218D01*
X125527136Y-67202214D01*
X125387785Y-67062863D01*
X125387781Y-67062860D01*
X125223920Y-66953371D01*
X125223907Y-66953364D01*
X125041839Y-66877950D01*
X125041829Y-66877947D01*
X124848543Y-66839500D01*
X124848541Y-66839500D01*
X124651459Y-66839500D01*
X124651457Y-66839500D01*
X124458170Y-66877947D01*
X124458160Y-66877950D01*
X124276092Y-66953364D01*
X124276079Y-66953371D01*
X124112218Y-67062860D01*
X124112214Y-67062863D01*
X123972863Y-67202214D01*
X123972860Y-67202218D01*
X123863371Y-67366079D01*
X123863364Y-67366092D01*
X123787950Y-67548160D01*
X123787947Y-67548170D01*
X123749500Y-67741456D01*
X123749500Y-67741459D01*
X123749500Y-67938541D01*
X123749500Y-67938543D01*
X123749499Y-67938543D01*
X122199924Y-67938543D01*
X122169799Y-67826114D01*
X122169797Y-67826111D01*
X122169797Y-67826109D01*
X122169796Y-67826108D01*
X122153204Y-67797370D01*
X122153202Y-67797368D01*
X122141219Y-67776613D01*
X122110489Y-67723387D01*
X122026613Y-67639511D01*
X121923886Y-67580201D01*
X121809309Y-67549500D01*
X121690691Y-67549500D01*
X121576114Y-67580201D01*
X121576112Y-67580201D01*
X121576112Y-67580202D01*
X121473387Y-67639511D01*
X121473384Y-67639513D01*
X121389513Y-67723384D01*
X121389511Y-67723387D01*
X121346797Y-67797370D01*
X121330201Y-67826114D01*
X121299500Y-67940691D01*
X121299500Y-67940693D01*
X121299500Y-68044877D01*
X121279815Y-68111916D01*
X121263181Y-68132558D01*
X120682558Y-68713181D01*
X120621235Y-68746666D01*
X120594877Y-68749500D01*
X112935037Y-68749500D01*
X112867998Y-68729815D01*
X112822243Y-68677011D01*
X112815264Y-68657601D01*
X112794799Y-68581223D01*
X112735489Y-68478496D01*
X112651613Y-68394620D01*
X112548886Y-68335310D01*
X112434309Y-68304609D01*
X112315691Y-68304609D01*
X112201114Y-68335310D01*
X112201112Y-68335310D01*
X112201112Y-68335311D01*
X112098387Y-68394620D01*
X112098384Y-68394622D01*
X112014513Y-68478493D01*
X112014511Y-68478496D01*
X111955201Y-68581223D01*
X111924500Y-68695800D01*
X110300061Y-68695800D01*
X109044952Y-67440691D01*
X113049500Y-67440691D01*
X113049500Y-67559309D01*
X113080201Y-67673886D01*
X113139511Y-67776613D01*
X113223387Y-67860489D01*
X113326114Y-67919799D01*
X113440691Y-67950500D01*
X113440694Y-67950500D01*
X113559306Y-67950500D01*
X113559309Y-67950500D01*
X113673886Y-67919799D01*
X113776613Y-67860489D01*
X113860489Y-67776613D01*
X113919799Y-67673886D01*
X113950500Y-67559309D01*
X113950500Y-67440691D01*
X113919799Y-67326114D01*
X113865758Y-67232513D01*
X113849286Y-67164616D01*
X113872138Y-67098589D01*
X113885459Y-67082840D01*
X114363496Y-66604804D01*
X114363499Y-66604802D01*
X114380937Y-66587364D01*
X114380938Y-66587364D01*
X114451405Y-66516897D01*
X114489541Y-66424828D01*
X114489541Y-66416082D01*
X114509226Y-66349043D01*
X114525860Y-66328401D01*
X117317442Y-63536819D01*
X117378765Y-63503334D01*
X117405123Y-63500500D01*
X119592111Y-63500500D01*
X119592113Y-63500500D01*
X119684182Y-63462364D01*
X121834725Y-61311818D01*
X121896048Y-61278334D01*
X121922406Y-61275500D01*
X122026591Y-61275500D01*
X122026594Y-61275500D01*
X122141171Y-61244799D01*
X122243898Y-61185489D01*
X122327774Y-61101613D01*
X122387084Y-60998886D01*
X122417785Y-60884309D01*
X122417785Y-60765691D01*
X122387084Y-60651114D01*
X122327774Y-60548387D01*
X122243898Y-60464511D01*
X122141171Y-60405201D01*
X122026594Y-60374500D01*
X121907976Y-60374500D01*
X121793399Y-60405201D01*
X121793397Y-60405201D01*
X121793397Y-60405202D01*
X121690672Y-60464511D01*
X121690669Y-60464513D01*
X121606798Y-60548384D01*
X121606796Y-60548387D01*
X121552749Y-60641999D01*
X121547486Y-60651114D01*
X121516785Y-60765691D01*
X121516785Y-60765693D01*
X121516785Y-60869877D01*
X121497100Y-60936916D01*
X121480466Y-60957558D01*
X119474843Y-62963181D01*
X119413520Y-62996666D01*
X119387162Y-62999500D01*
X117200170Y-62999500D01*
X117108102Y-63037636D01*
X114026677Y-66119061D01*
X113988541Y-66211129D01*
X113988541Y-66219876D01*
X113968856Y-66286915D01*
X113952222Y-66307557D01*
X113340661Y-66919117D01*
X113340662Y-66919118D01*
X113287636Y-66972144D01*
X113249500Y-67064211D01*
X113247118Y-67076190D01*
X113245441Y-67075856D01*
X113229815Y-67129074D01*
X113213182Y-67149716D01*
X113139511Y-67223387D01*
X113080201Y-67326114D01*
X113049500Y-67440691D01*
X109044952Y-67440691D01*
X109025877Y-67421616D01*
X108933809Y-67383480D01*
X108933808Y-67383480D01*
X108190159Y-67383480D01*
X108123120Y-67363795D01*
X108102478Y-67347161D01*
X107487876Y-66732558D01*
X107454391Y-66671235D01*
X107451557Y-66644877D01*
X107451557Y-66540693D01*
X107451557Y-66540691D01*
X107420856Y-66426114D01*
X107361546Y-66323387D01*
X107277670Y-66239511D01*
X107174943Y-66180201D01*
X107060366Y-66149500D01*
X106941748Y-66149500D01*
X106827171Y-66180201D01*
X106807438Y-66191594D01*
X106724444Y-66239511D01*
X106724441Y-66239513D01*
X106640570Y-66323384D01*
X106640568Y-66323387D01*
X106582002Y-66424826D01*
X106581258Y-66426114D01*
X106550557Y-66540691D01*
X104596411Y-66540691D01*
X104624398Y-66512704D01*
X104683708Y-66409977D01*
X104714409Y-66295400D01*
X104714409Y-66176782D01*
X104683708Y-66062205D01*
X104624398Y-65959478D01*
X104540522Y-65875602D01*
X104437795Y-65816292D01*
X104323218Y-65785591D01*
X104204600Y-65785591D01*
X104090023Y-65816292D01*
X104090021Y-65816292D01*
X104090021Y-65816293D01*
X103987296Y-65875602D01*
X103987293Y-65875604D01*
X103903422Y-65959475D01*
X103903420Y-65959478D01*
X103844110Y-66062205D01*
X103813409Y-66176782D01*
X103813409Y-66295400D01*
X103844110Y-66409977D01*
X103903420Y-66512704D01*
X103903422Y-66512706D01*
X103963181Y-66572465D01*
X103996666Y-66633788D01*
X103999500Y-66660146D01*
X103999500Y-69310523D01*
X103979815Y-69377562D01*
X103927011Y-69423317D01*
X103857853Y-69433261D01*
X103794297Y-69404236D01*
X103787819Y-69398204D01*
X98156060Y-63766445D01*
X98156058Y-63766443D01*
X98142077Y-63760652D01*
X98142075Y-63760650D01*
X98054802Y-63724500D01*
X98054800Y-63724500D01*
X93874000Y-63724500D01*
X93806961Y-63704815D01*
X93761206Y-63652011D01*
X93750000Y-63600500D01*
X93750000Y-62690691D01*
X95299500Y-62690691D01*
X95299500Y-62809309D01*
X95330201Y-62923886D01*
X95389511Y-63026613D01*
X95473387Y-63110489D01*
X95576114Y-63169799D01*
X95690691Y-63200500D01*
X95690694Y-63200500D01*
X95809308Y-63200500D01*
X95809309Y-63200500D01*
X95823820Y-63196611D01*
X95862261Y-63192547D01*
X95883612Y-63193641D01*
X95900173Y-63200501D01*
X95999828Y-63200501D01*
X95999830Y-63200500D01*
X99294877Y-63200500D01*
X99361916Y-63220185D01*
X99382558Y-63236819D01*
X100263181Y-64117441D01*
X100296666Y-64178764D01*
X100299500Y-64205122D01*
X100299500Y-64309309D01*
X100330201Y-64423886D01*
X100389511Y-64526613D01*
X100473387Y-64610489D01*
X100576114Y-64669799D01*
X100690691Y-64700500D01*
X100690694Y-64700500D01*
X100809306Y-64700500D01*
X100809309Y-64700500D01*
X100923886Y-64669799D01*
X101026613Y-64610489D01*
X101110489Y-64526613D01*
X101169799Y-64423886D01*
X101200500Y-64309309D01*
X101200500Y-64190691D01*
X101169799Y-64076114D01*
X101110489Y-63973387D01*
X101026613Y-63889511D01*
X100923886Y-63830201D01*
X100809309Y-63799500D01*
X100705122Y-63799500D01*
X100638083Y-63779815D01*
X100617441Y-63763181D01*
X100119771Y-63265511D01*
X99591897Y-62737636D01*
X99499829Y-62699500D01*
X99499828Y-62699500D01*
X96298008Y-62699500D01*
X96230969Y-62679815D01*
X96185214Y-62627011D01*
X96178235Y-62607598D01*
X96169799Y-62576114D01*
X96110489Y-62473387D01*
X96026613Y-62389511D01*
X95923886Y-62330201D01*
X95809309Y-62299500D01*
X95690691Y-62299500D01*
X95576114Y-62330201D01*
X95576112Y-62330201D01*
X95576112Y-62330202D01*
X95473387Y-62389511D01*
X95473384Y-62389513D01*
X95389513Y-62473384D01*
X95389511Y-62473387D01*
X95330201Y-62576114D01*
X95299500Y-62690691D01*
X93750000Y-62690691D01*
X93750000Y-60905622D01*
X93769685Y-60838583D01*
X93786319Y-60817941D01*
X94524059Y-60080201D01*
X95264923Y-59339336D01*
X95326244Y-59305853D01*
X95384694Y-59307243D01*
X95436249Y-59321058D01*
X95436251Y-59321058D01*
X95554864Y-59321058D01*
X95554867Y-59321058D01*
X95669444Y-59290357D01*
X95772171Y-59231047D01*
X95856047Y-59147171D01*
X95915357Y-59044444D01*
X95946058Y-58929867D01*
X95946058Y-58811249D01*
X95915357Y-58696672D01*
X95856047Y-58593945D01*
X95772171Y-58510069D01*
X95669444Y-58450759D01*
X95554867Y-58420058D01*
X95436249Y-58420058D01*
X95321672Y-58450759D01*
X95321670Y-58450759D01*
X95321670Y-58450760D01*
X95218945Y-58510069D01*
X95218942Y-58510071D01*
X95135071Y-58593942D01*
X95135069Y-58593945D01*
X95075759Y-58696672D01*
X95045058Y-58811249D01*
X95045058Y-58811251D01*
X95045057Y-58811255D01*
X95044572Y-58814937D01*
X95043300Y-58817810D01*
X95042955Y-58819100D01*
X95042753Y-58819046D01*
X95016300Y-58878831D01*
X95009315Y-58886423D01*
X93961681Y-59934058D01*
X93900358Y-59967543D01*
X93830666Y-59962559D01*
X93774733Y-59920687D01*
X93750316Y-59855223D01*
X93750000Y-59846377D01*
X93750000Y-58124500D01*
X93769685Y-58057461D01*
X93822489Y-58011706D01*
X93874000Y-58000500D01*
X97196934Y-58000500D01*
X97263973Y-58020185D01*
X97284615Y-58036819D01*
X99966598Y-60718801D01*
X102639692Y-63391895D01*
X102639693Y-63391897D01*
X102710160Y-63462364D01*
X102748297Y-63478160D01*
X102802230Y-63500501D01*
X102802231Y-63500501D01*
X102916319Y-63500501D01*
X102916327Y-63500500D01*
X103906975Y-63500500D01*
X103974014Y-63520185D01*
X103994656Y-63536819D01*
X105068324Y-64610486D01*
X106099733Y-65641895D01*
X106099734Y-65641897D01*
X106170201Y-65712364D01*
X106196813Y-65723387D01*
X106262271Y-65750501D01*
X106262272Y-65750501D01*
X106312037Y-65750501D01*
X106379076Y-65770186D01*
X106399718Y-65786820D01*
X106473387Y-65860489D01*
X106576114Y-65919799D01*
X106690691Y-65950500D01*
X106690694Y-65950500D01*
X106748992Y-65950500D01*
X106809309Y-65950500D01*
X106923886Y-65919799D01*
X107026613Y-65860489D01*
X107110489Y-65776613D01*
X107147190Y-65713043D01*
X107166888Y-65687371D01*
X107212364Y-65641897D01*
X107250500Y-65549828D01*
X107250500Y-65450172D01*
X107212364Y-65358103D01*
X107166894Y-65312633D01*
X107147188Y-65286952D01*
X107141219Y-65276613D01*
X107110489Y-65223387D01*
X107026613Y-65139511D01*
X106923886Y-65080201D01*
X106809309Y-65049500D01*
X106690691Y-65049500D01*
X106576114Y-65080201D01*
X106576112Y-65080201D01*
X106576112Y-65080202D01*
X106473387Y-65139511D01*
X106466941Y-65144458D01*
X106465209Y-65142201D01*
X106415953Y-65169080D01*
X106346263Y-65164077D01*
X106301947Y-65135588D01*
X104203995Y-63037636D01*
X104111927Y-62999500D01*
X104111926Y-62999500D01*
X103007179Y-62999500D01*
X102940140Y-62979815D01*
X102919498Y-62963181D01*
X97938964Y-57982646D01*
X97905479Y-57921323D01*
X97910463Y-57851631D01*
X97952335Y-57795698D01*
X98017799Y-57771281D01*
X98027230Y-57770966D01*
X101701111Y-57788975D01*
G37*
%TD.AperFunction*%
%TD*%
%TA.AperFunction,Conductor*%
%TO.N,Net-(Q2-S)*%
G36*
X67693799Y-40266612D02*
G01*
X67768216Y-40309577D01*
X67920943Y-40350501D01*
X67920945Y-40350501D01*
X68086654Y-40350501D01*
X68086670Y-40350500D01*
X71126000Y-40350500D01*
X71193039Y-40370185D01*
X71238794Y-40422989D01*
X71250000Y-40474500D01*
X71250000Y-43498386D01*
X71230315Y-43565425D01*
X71192501Y-43600276D01*
X71193656Y-43601957D01*
X71187917Y-43605898D01*
X71135104Y-43651660D01*
X71117160Y-43669242D01*
X71117154Y-43669249D01*
X71072511Y-43749059D01*
X71072509Y-43749064D01*
X71052826Y-43816096D01*
X71044500Y-43874003D01*
X71044500Y-50172213D01*
X71031409Y-50227667D01*
X70514238Y-51262008D01*
X70503629Y-51287326D01*
X70492922Y-51318587D01*
X70485787Y-51345072D01*
X70478359Y-51382410D01*
X70471303Y-51405668D01*
X70443337Y-51473183D01*
X70431879Y-51494620D01*
X70387492Y-51561051D01*
X70377345Y-51574116D01*
X70377373Y-51574140D01*
X70376855Y-51574747D01*
X70376663Y-51574996D01*
X70376307Y-51575392D01*
X70376290Y-51575412D01*
X70359668Y-51596040D01*
X70322512Y-51667076D01*
X70322508Y-51667085D01*
X70302826Y-51734112D01*
X70294500Y-51792021D01*
X70294500Y-54376007D01*
X70299197Y-54419686D01*
X70310397Y-54471174D01*
X70312890Y-54481372D01*
X70312891Y-54481375D01*
X70355899Y-54562083D01*
X70355901Y-54562086D01*
X70401660Y-54614895D01*
X70419242Y-54632839D01*
X70419246Y-54632843D01*
X70436534Y-54642513D01*
X70445520Y-54651684D01*
X70457203Y-54657020D01*
X70469507Y-54676166D01*
X70485432Y-54692419D01*
X70488916Y-54706367D01*
X70494977Y-54715798D01*
X70500000Y-54750733D01*
X70500000Y-54825500D01*
X70480315Y-54892539D01*
X70427511Y-54938294D01*
X70376000Y-54949500D01*
X69848460Y-54949500D01*
X69781421Y-54929815D01*
X69760779Y-54913181D01*
X69752208Y-54904610D01*
X69752206Y-54904608D01*
X69695142Y-54871662D01*
X69638079Y-54838716D01*
X69574431Y-54821662D01*
X69510784Y-54804608D01*
X69379000Y-54804608D01*
X69251704Y-54838716D01*
X69137578Y-54904608D01*
X69137573Y-54904612D01*
X69129081Y-54913104D01*
X69067757Y-54946587D01*
X68998065Y-54941600D01*
X68953722Y-54913101D01*
X68431633Y-54391012D01*
X68415283Y-54376325D01*
X68415269Y-54376313D01*
X68414889Y-54376007D01*
X68409812Y-54371915D01*
X68394620Y-54359672D01*
X68323575Y-54322509D01*
X68256543Y-54302826D01*
X68255894Y-54302732D01*
X68198638Y-54294500D01*
X68198634Y-54294500D01*
X67329500Y-54294500D01*
X67262461Y-54274815D01*
X67216706Y-54222011D01*
X67205500Y-54170500D01*
X67205500Y-40374000D01*
X67225185Y-40306961D01*
X67277989Y-40261206D01*
X67329500Y-40250000D01*
X67631800Y-40250000D01*
X67693799Y-40266612D01*
G37*
%TD.AperFunction*%
%TD*%
M02*
