%TF.GenerationSoftware,KiCad,Pcbnew,9.0.0*%
%TF.CreationDate,2025-07-24T13:06:19+09:00*%
%TF.ProjectId,AQUA_VESC,41515541-5f56-4455-9343-2e6b69636164,rev?*%
%TF.SameCoordinates,Original*%
%TF.FileFunction,Profile,NP*%
%FSLAX46Y46*%
G04 Gerber Fmt 4.6, Leading zero omitted, Abs format (unit mm)*
G04 Created by KiCad (PCBNEW 9.0.0) date 2025-07-24 13:06:19*
%MOMM*%
%LPD*%
G01*
G04 APERTURE LIST*
%TA.AperFunction,Profile*%
%ADD10C,0.050000*%
%TD*%
%TA.AperFunction,Profile*%
%ADD11C,0.000000*%
%TD*%
G04 APERTURE END LIST*
D10*
X177500000Y-89250000D02*
X177500000Y-112250000D01*
X238000000Y-131047445D02*
X238000000Y-119000000D01*
X169251428Y-78750153D02*
G75*
G02*
X179274607Y-53268569I50748572J-5249847D01*
G01*
X200017975Y-130957759D02*
X202000000Y-130957759D01*
X257250000Y-89255915D02*
X257250000Y-78750000D01*
X262500000Y-112250000D02*
G75*
G02*
X239769937Y-131047445I-42500000J28250000D01*
G01*
X239769936Y-131047445D02*
X238000000Y-131047445D01*
X257250000Y-89255915D02*
X262500000Y-89255915D01*
X182750000Y-89250000D02*
X177500000Y-89250000D01*
X260725341Y-53268608D02*
X179274607Y-53268676D01*
X202000000Y-130957759D02*
X202000000Y-119000000D01*
X169251428Y-78750153D02*
X182750000Y-78750148D01*
X262500000Y-112250000D02*
X262500000Y-89255915D01*
X202000000Y-119000000D02*
X238000000Y-119000000D01*
X200017975Y-130957759D02*
G75*
G02*
X177500000Y-112250000I19982025J46957759D01*
G01*
X257250000Y-78750000D02*
X270750000Y-78750000D01*
X260726539Y-53267704D02*
G75*
G02*
X270750000Y-78750000I-40726539J-30732296D01*
G01*
X182750000Y-78750148D02*
X182750000Y-89250000D01*
D11*
%TA.AperFunction,Profile*%
%TO.C,USB1*%
G36*
X257576439Y-101426642D02*
G01*
X257655567Y-101472326D01*
X257720174Y-101536933D01*
X257765858Y-101616061D01*
X257789506Y-101704316D01*
X257789506Y-101795684D01*
X257765858Y-101883939D01*
X257720174Y-101963067D01*
X257655567Y-102027674D01*
X257576439Y-102073358D01*
X257488184Y-102097006D01*
X257396816Y-102097006D01*
X257308561Y-102073358D01*
X257229433Y-102027674D01*
X257164826Y-101963067D01*
X257119142Y-101883939D01*
X257095494Y-101795684D01*
X257095494Y-101704316D01*
X257119142Y-101616061D01*
X257164826Y-101536933D01*
X257229433Y-101472326D01*
X257308561Y-101426642D01*
X257396816Y-101402994D01*
X257488184Y-101402994D01*
X257576439Y-101426642D01*
G37*
%TD.AperFunction*%
%TA.AperFunction,Profile*%
G36*
X257576439Y-105426642D02*
G01*
X257655567Y-105472326D01*
X257720174Y-105536933D01*
X257765858Y-105616061D01*
X257789506Y-105704316D01*
X257789506Y-105795684D01*
X257765858Y-105883939D01*
X257720174Y-105963067D01*
X257655567Y-106027674D01*
X257576439Y-106073358D01*
X257488184Y-106097006D01*
X257396816Y-106097006D01*
X257308561Y-106073358D01*
X257229433Y-106027674D01*
X257164826Y-105963067D01*
X257119142Y-105883939D01*
X257095494Y-105795684D01*
X257095494Y-105704316D01*
X257119142Y-105616061D01*
X257164826Y-105536933D01*
X257229433Y-105472326D01*
X257308561Y-105426642D01*
X257396816Y-105402994D01*
X257488184Y-105402994D01*
X257576439Y-105426642D01*
G37*
%TD.AperFunction*%
%TD*%
M02*
