%TF.GenerationSoftware,KiCad,Pcbnew,9.0.0*%
%TF.CreationDate,2025-07-24T13:06:19+09:00*%
%TF.ProjectId,AQUA_VESC,41515541-5f56-4455-9343-2e6b69636164,rev?*%
%TF.SameCoordinates,Original*%
%TF.FileFunction,Soldermask,Top*%
%TF.FilePolarity,Negative*%
%FSLAX46Y46*%
G04 Gerber Fmt 4.6, Leading zero omitted, Abs format (unit mm)*
G04 Created by KiCad (PCBNEW 9.0.0) date 2025-07-24 13:06:19*
%MOMM*%
%LPD*%
G01*
G04 APERTURE LIST*
G04 Aperture macros list*
%AMRoundRect*
0 Rectangle with rounded corners*
0 $1 Rounding radius*
0 $2 $3 $4 $5 $6 $7 $8 $9 X,Y pos of 4 corners*
0 Add a 4 corners polygon primitive as box body*
4,1,4,$2,$3,$4,$5,$6,$7,$8,$9,$2,$3,0*
0 Add four circle primitives for the rounded corners*
1,1,$1+$1,$2,$3*
1,1,$1+$1,$4,$5*
1,1,$1+$1,$6,$7*
1,1,$1+$1,$8,$9*
0 Add four rect primitives between the rounded corners*
20,1,$1+$1,$2,$3,$4,$5,0*
20,1,$1+$1,$4,$5,$6,$7,0*
20,1,$1+$1,$6,$7,$8,$9,0*
20,1,$1+$1,$8,$9,$2,$3,0*%
%AMFreePoly0*
4,1,23,0.500000,-0.750000,0.000000,-0.750000,0.000000,-0.745722,-0.065263,-0.745722,-0.191342,-0.711940,-0.304381,-0.646677,-0.396677,-0.554381,-0.461940,-0.441342,-0.495722,-0.315263,-0.495722,-0.250000,-0.500000,-0.250000,-0.500000,0.250000,-0.495722,0.250000,-0.495722,0.315263,-0.461940,0.441342,-0.396677,0.554381,-0.304381,0.646677,-0.191342,0.711940,-0.065263,0.745722,0.000000,0.745722,
0.000000,0.750000,0.500000,0.750000,0.500000,-0.750000,0.500000,-0.750000,$1*%
%AMFreePoly1*
4,1,23,0.000000,0.745722,0.065263,0.745722,0.191342,0.711940,0.304381,0.646677,0.396677,0.554381,0.461940,0.441342,0.495722,0.315263,0.495722,0.250000,0.500000,0.250000,0.500000,-0.250000,0.495722,-0.250000,0.495722,-0.315263,0.461940,-0.441342,0.396677,-0.554381,0.304381,-0.646677,0.191342,-0.711940,0.065263,-0.745722,0.000000,-0.745722,0.000000,-0.750000,-0.500000,-0.750000,
-0.500000,0.750000,0.000000,0.750000,0.000000,0.745722,0.000000,0.745722,$1*%
G04 Aperture macros list end*
%ADD10RoundRect,0.225000X-0.250000X0.225000X-0.250000X-0.225000X0.250000X-0.225000X0.250000X0.225000X0*%
%ADD11RoundRect,0.200000X-0.200000X-0.275000X0.200000X-0.275000X0.200000X0.275000X-0.200000X0.275000X0*%
%ADD12RoundRect,0.225000X0.225000X0.250000X-0.225000X0.250000X-0.225000X-0.250000X0.225000X-0.250000X0*%
%ADD13RoundRect,0.225000X-0.225000X-0.250000X0.225000X-0.250000X0.225000X0.250000X-0.225000X0.250000X0*%
%ADD14RoundRect,0.200000X0.275000X-0.200000X0.275000X0.200000X-0.275000X0.200000X-0.275000X-0.200000X0*%
%ADD15RoundRect,0.200000X0.200000X0.275000X-0.200000X0.275000X-0.200000X-0.275000X0.200000X-0.275000X0*%
%ADD16RoundRect,0.250000X-0.600000X-0.725000X0.600000X-0.725000X0.600000X0.725000X-0.600000X0.725000X0*%
%ADD17O,1.700000X1.950000*%
%ADD18RoundRect,0.150000X-0.150000X0.587500X-0.150000X-0.587500X0.150000X-0.587500X0.150000X0.587500X0*%
%ADD19R,1.016000X0.355600*%
%ADD20RoundRect,0.225000X0.250000X-0.225000X0.250000X0.225000X-0.250000X0.225000X-0.250000X-0.225000X0*%
%ADD21R,2.400000X3.200000*%
%ADD22RoundRect,0.243750X0.243750X0.456250X-0.243750X0.456250X-0.243750X-0.456250X0.243750X-0.456250X0*%
%ADD23RoundRect,0.250000X2.450000X-0.650000X2.450000X0.650000X-2.450000X0.650000X-2.450000X-0.650000X0*%
%ADD24RoundRect,0.250000X0.325000X1.100000X-0.325000X1.100000X-0.325000X-1.100000X0.325000X-1.100000X0*%
%ADD25RoundRect,0.250000X0.650000X-1.000000X0.650000X1.000000X-0.650000X1.000000X-0.650000X-1.000000X0*%
%ADD26RoundRect,0.250000X-0.325000X-1.100000X0.325000X-1.100000X0.325000X1.100000X-0.325000X1.100000X0*%
%ADD27RoundRect,0.564250X-1.275750X0.960750X-1.275750X-0.960750X1.275750X-0.960750X1.275750X0.960750X0*%
%ADD28R,2.590800X2.196600*%
%ADD29O,1.692000X0.364000*%
%ADD30R,1.400000X1.700000*%
%ADD31RoundRect,0.250000X-0.250000X-0.475000X0.250000X-0.475000X0.250000X0.475000X-0.250000X0.475000X0*%
%ADD32RoundRect,0.250000X0.325000X0.650000X-0.325000X0.650000X-0.325000X-0.650000X0.325000X-0.650000X0*%
%ADD33RoundRect,0.200000X-0.275000X0.200000X-0.275000X-0.200000X0.275000X-0.200000X0.275000X0.200000X0*%
%ADD34R,1.460500X0.558800*%
%ADD35RoundRect,0.375000X-0.375000X0.625000X-0.375000X-0.625000X0.375000X-0.625000X0.375000X0.625000X0*%
%ADD36RoundRect,0.500000X-1.400000X0.500000X-1.400000X-0.500000X1.400000X-0.500000X1.400000X0.500000X0*%
%ADD37FreePoly0,0.000000*%
%ADD38FreePoly1,0.000000*%
%ADD39R,2.400000X1.900000*%
%ADD40R,1.524000X0.400000*%
%ADD41R,1.220000X1.500000*%
%ADD42R,1.000000X1.000000*%
%ADD43RoundRect,0.243750X-0.243750X-0.456250X0.243750X-0.456250X0.243750X0.456250X-0.243750X0.456250X0*%
%ADD44C,0.800000*%
%ADD45C,7.000000*%
%ADD46R,0.558800X1.460500*%
%ADD47RoundRect,0.150000X0.825000X0.150000X-0.825000X0.150000X-0.825000X-0.150000X0.825000X-0.150000X0*%
%ADD48RoundRect,0.150000X-0.825000X-0.150000X0.825000X-0.150000X0.825000X0.150000X-0.825000X0.150000X0*%
%ADD49R,2.410000X3.300000*%
%ADD50RoundRect,0.250000X1.100000X-0.325000X1.100000X0.325000X-1.100000X0.325000X-1.100000X-0.325000X0*%
%ADD51RoundRect,0.250000X-0.262500X-0.450000X0.262500X-0.450000X0.262500X0.450000X-0.262500X0.450000X0*%
%ADD52RoundRect,0.075000X0.700000X0.075000X-0.700000X0.075000X-0.700000X-0.075000X0.700000X-0.075000X0*%
%ADD53RoundRect,0.075000X0.075000X0.700000X-0.075000X0.700000X-0.075000X-0.700000X0.075000X-0.700000X0*%
%ADD54RoundRect,0.250000X-1.100000X0.325000X-1.100000X-0.325000X1.100000X-0.325000X1.100000X0.325000X0*%
%ADD55RoundRect,0.075000X-2.425000X-0.175000X2.425000X-0.175000X2.425000X0.175000X-2.425000X0.175000X0*%
%ADD56RoundRect,0.150000X0.150000X-0.587500X0.150000X0.587500X-0.150000X0.587500X-0.150000X-0.587500X0*%
%ADD57RoundRect,0.250000X-0.325000X-0.650000X0.325000X-0.650000X0.325000X0.650000X-0.325000X0.650000X0*%
%ADD58RoundRect,0.237500X-0.250000X-0.237500X0.250000X-0.237500X0.250000X0.237500X-0.250000X0.237500X0*%
%ADD59O,0.280000X1.715000*%
%ADD60R,5.825000X3.235000*%
%ADD61R,1.905000X2.000000*%
%ADD62O,1.905000X2.000000*%
%ADD63R,1.700000X1.700000*%
%ADD64O,1.700000X1.700000*%
G04 APERTURE END LIST*
%TO.C,JP1*%
G36*
X243600000Y-115000000D02*
G01*
X243900000Y-115000000D01*
X243900000Y-116500000D01*
X243600000Y-116500000D01*
X243600000Y-115000000D01*
G37*
%TD*%
D10*
%TO.C,C28*%
X247500000Y-94225000D03*
X247500000Y-95775000D03*
%TD*%
D11*
%TO.C,R19*%
X193425000Y-100750000D03*
X195075000Y-100750000D03*
%TD*%
D12*
%TO.C,C33*%
X199525000Y-93500000D03*
X197975000Y-93500000D03*
%TD*%
D13*
%TO.C,C13*%
X238225000Y-97250000D03*
X239775000Y-97250000D03*
%TD*%
D14*
%TO.C,R65*%
X238500000Y-92325000D03*
X238500000Y-90675000D03*
%TD*%
%TO.C,R70*%
X184250000Y-79325000D03*
X184250000Y-77675000D03*
%TD*%
D15*
%TO.C,R40*%
X204075000Y-84000000D03*
X202425000Y-84000000D03*
%TD*%
D11*
%TO.C,R22*%
X193425000Y-105500000D03*
X195075000Y-105500000D03*
%TD*%
D13*
%TO.C,C7*%
X235475000Y-90500000D03*
X237025000Y-90500000D03*
%TD*%
D16*
%TO.C,CAN1*%
X205750000Y-109350000D03*
D17*
X208250000Y-109350000D03*
%TD*%
D18*
%TO.C,Q9*%
X254700000Y-61462500D03*
X252800000Y-61462500D03*
X253750000Y-63337500D03*
%TD*%
D11*
%TO.C,R80*%
X181675000Y-60750000D03*
X183325000Y-60750000D03*
%TD*%
D10*
%TO.C,C17*%
X255000000Y-93225000D03*
X255000000Y-94775000D03*
%TD*%
%TO.C,C19*%
X208500000Y-105225000D03*
X208500000Y-106775000D03*
%TD*%
D19*
%TO.C,U1*%
X241655000Y-110899999D03*
X241655000Y-110250000D03*
X241655000Y-109600001D03*
X239750000Y-109600001D03*
X239750000Y-110250000D03*
X239750000Y-110899999D03*
%TD*%
D11*
%TO.C,R71*%
X188675000Y-77750000D03*
X190325000Y-77750000D03*
%TD*%
D12*
%TO.C,C53*%
X219500000Y-86250000D03*
X217950000Y-86250000D03*
%TD*%
D20*
%TO.C,C3*%
X245500000Y-102525000D03*
X245500000Y-100975000D03*
%TD*%
D11*
%TO.C,R11*%
X240925000Y-91500000D03*
X242575000Y-91500000D03*
%TD*%
D14*
%TO.C,R35*%
X228500000Y-79575000D03*
X228500000Y-77925000D03*
%TD*%
D15*
%TO.C,R32*%
X209575000Y-81250000D03*
X207925000Y-81250000D03*
%TD*%
D21*
%TO.C,U10*%
X189750000Y-68000000D03*
X183750000Y-68000000D03*
%TD*%
D15*
%TO.C,R34*%
X228575000Y-81000000D03*
X226925000Y-81000000D03*
%TD*%
D22*
%TO.C,OCW1*%
X198437500Y-107750000D03*
X196562500Y-107750000D03*
%TD*%
D23*
%TO.C,C51*%
X225000000Y-68050000D03*
X225000000Y-62950000D03*
%TD*%
D10*
%TO.C,C9*%
X223000000Y-102475000D03*
X223000000Y-104025000D03*
%TD*%
D15*
%TO.C,R42*%
X200325000Y-87750000D03*
X198675000Y-87750000D03*
%TD*%
D10*
%TO.C,C20*%
X196500000Y-99725000D03*
X196500000Y-101275000D03*
%TD*%
D24*
%TO.C,C41*%
X183075000Y-99000000D03*
X180125000Y-99000000D03*
%TD*%
D10*
%TO.C,C52*%
X218750000Y-74225000D03*
X218750000Y-75775000D03*
%TD*%
D25*
%TO.C,D6*%
X194500000Y-60000000D03*
X194500000Y-56000000D03*
%TD*%
D11*
%TO.C,R21*%
X196425000Y-102750000D03*
X198075000Y-102750000D03*
%TD*%
%TO.C,R48*%
X217175000Y-72600000D03*
X218825000Y-72600000D03*
%TD*%
D20*
%TO.C,C2*%
X239500000Y-108025000D03*
X239500000Y-106475000D03*
%TD*%
D16*
%TO.C,J1*%
X223250000Y-109500000D03*
D17*
X225750000Y-109500000D03*
X228250000Y-109500000D03*
X230750000Y-109500000D03*
X233250000Y-109500000D03*
X235750000Y-109500000D03*
%TD*%
D22*
%TO.C,5V1*%
X198437500Y-105500000D03*
X196562500Y-105500000D03*
%TD*%
D25*
%TO.C,D4*%
X194750000Y-94000000D03*
X194750000Y-90000000D03*
%TD*%
D11*
%TO.C,R58*%
X237975000Y-71200000D03*
X239625000Y-71200000D03*
%TD*%
D22*
%TO.C,D5*%
X187187500Y-81000000D03*
X185312500Y-81000000D03*
%TD*%
D13*
%TO.C,C36*%
X210225000Y-90750000D03*
X211775000Y-90750000D03*
%TD*%
D15*
%TO.C,R85*%
X254575000Y-59650000D03*
X252925000Y-59650000D03*
%TD*%
D26*
%TO.C,C45*%
X188525000Y-111250000D03*
X191475000Y-111250000D03*
%TD*%
D27*
%TO.C,R66*%
X233500000Y-63365000D03*
X233500000Y-67635000D03*
%TD*%
D14*
%TO.C,R82*%
X177500000Y-59575000D03*
X177500000Y-57925000D03*
%TD*%
%TO.C,R18*%
X200250000Y-106825000D03*
X200250000Y-105175000D03*
%TD*%
D13*
%TO.C,C26*%
X214225000Y-102750000D03*
X215775000Y-102750000D03*
%TD*%
D18*
%TO.C,Q7*%
X190700000Y-79562500D03*
X188800000Y-79562500D03*
X189750000Y-81437500D03*
%TD*%
D11*
%TO.C,R17*%
X251925000Y-88175000D03*
X253575000Y-88175000D03*
%TD*%
D28*
%TO.C,R77*%
X190750000Y-55298300D03*
X190750000Y-61101700D03*
%TD*%
D29*
%TO.C,U11*%
X191396000Y-85300000D03*
X191396000Y-84650000D03*
X191396000Y-84000000D03*
X191396000Y-83350000D03*
X187104000Y-83350000D03*
X187104000Y-84000000D03*
X187104000Y-84650000D03*
X187104000Y-85300000D03*
D30*
X189250000Y-84325000D03*
%TD*%
D31*
%TO.C,C59*%
X245800000Y-77750000D03*
X247700000Y-77750000D03*
%TD*%
D15*
%TO.C,R62*%
X238575000Y-87750000D03*
X236925000Y-87750000D03*
%TD*%
D32*
%TO.C,C38*%
X183075000Y-92800000D03*
X180125000Y-92800000D03*
%TD*%
D10*
%TO.C,C31*%
X193750000Y-65975000D03*
X193750000Y-67525000D03*
%TD*%
D33*
%TO.C,R43*%
X198250000Y-74175000D03*
X198250000Y-75825000D03*
%TD*%
D10*
%TO.C,C23*%
X198000000Y-99725000D03*
X198000000Y-101275000D03*
%TD*%
D15*
%TO.C,R46*%
X211325000Y-72500000D03*
X209675000Y-72500000D03*
%TD*%
D14*
%TO.C,R1*%
X180250000Y-62325000D03*
X180250000Y-60675000D03*
%TD*%
D12*
%TO.C,C22*%
X218775000Y-102750000D03*
X217225000Y-102750000D03*
%TD*%
D34*
%TO.C,U12*%
X184724150Y-58905000D03*
X184724150Y-57635000D03*
X184724150Y-56365000D03*
X184724150Y-55095000D03*
X179275850Y-55095000D03*
X179275850Y-56365000D03*
X179275850Y-57635000D03*
X179275850Y-58905000D03*
%TD*%
D27*
%TO.C,R54*%
X216000000Y-63365000D03*
X216000000Y-67635000D03*
%TD*%
D33*
%TO.C,R53*%
X217250000Y-74175000D03*
X217250000Y-75825000D03*
%TD*%
D35*
%TO.C,U8*%
X186300000Y-103100000D03*
X184000000Y-103100000D03*
D36*
X184000000Y-109400000D03*
D35*
X181700000Y-103100000D03*
%TD*%
D33*
%TO.C,TH1*%
X235500000Y-91925000D03*
X235500000Y-93575000D03*
%TD*%
D15*
%TO.C,R68*%
X249075000Y-76000000D03*
X247425000Y-76000000D03*
%TD*%
D11*
%TO.C,R8*%
X253175000Y-103000000D03*
X254825000Y-103000000D03*
%TD*%
D13*
%TO.C,C14*%
X238225000Y-95750000D03*
X239775000Y-95750000D03*
%TD*%
D15*
%TO.C,R47*%
X211325000Y-74000000D03*
X209675000Y-74000000D03*
%TD*%
D37*
%TO.C,JP1*%
X243100000Y-115750000D03*
D38*
X244400000Y-115750000D03*
%TD*%
D39*
%TO.C,X1*%
X242750000Y-97700000D03*
X242750000Y-101800000D03*
%TD*%
D11*
%TO.C,R37*%
X247425000Y-79600000D03*
X249075000Y-79600000D03*
%TD*%
D24*
%TO.C,C40*%
X183075000Y-95800000D03*
X180125000Y-95800000D03*
%TD*%
D27*
%TO.C,R44*%
X201000000Y-63365000D03*
X201000000Y-67635000D03*
%TD*%
D21*
%TO.C,U7*%
X191500000Y-94000000D03*
X185500000Y-94000000D03*
%TD*%
D15*
%TO.C,R79*%
X188075000Y-56250000D03*
X186425000Y-56250000D03*
%TD*%
D26*
%TO.C,C42*%
X185925000Y-99200000D03*
X188875000Y-99200000D03*
%TD*%
D20*
%TO.C,C5*%
X227250000Y-91775000D03*
X227250000Y-90225000D03*
%TD*%
D13*
%TO.C,C34*%
X203975000Y-91250000D03*
X205525000Y-91250000D03*
%TD*%
D40*
%TO.C,USB1*%
X256492500Y-105050000D03*
X256492500Y-104400000D03*
X256492500Y-103750000D03*
X256492500Y-103100000D03*
X256492500Y-102450000D03*
D41*
X259592500Y-107200000D03*
D42*
X257142500Y-106900000D03*
X257142500Y-100600000D03*
D41*
X259592500Y-100300000D03*
%TD*%
D13*
%TO.C,C39*%
X193475000Y-104000000D03*
X195025000Y-104000000D03*
%TD*%
D43*
%TO.C,SERVO_CNT1*%
X176812500Y-62750000D03*
X178687500Y-62750000D03*
%TD*%
D44*
%TO.C,H7*%
X200375000Y-79250000D03*
X201143845Y-77393845D03*
X201143845Y-81106155D03*
X203000000Y-76625000D03*
D45*
X203000000Y-79250000D03*
D44*
X203000000Y-81875000D03*
X204856155Y-77393845D03*
X204856155Y-81106155D03*
X205625000Y-79250000D03*
%TD*%
D14*
%TO.C,R24*%
X202000000Y-110075000D03*
X202000000Y-108425000D03*
%TD*%
%TO.C,R73*%
X190500000Y-76325000D03*
X190500000Y-74675000D03*
%TD*%
D22*
%TO.C,D1*%
X245937500Y-91500000D03*
X244062500Y-91500000D03*
%TD*%
D15*
%TO.C,R30*%
X253325000Y-97250000D03*
X251675000Y-97250000D03*
%TD*%
%TO.C,R87*%
X258075000Y-59650000D03*
X256425000Y-59650000D03*
%TD*%
D10*
%TO.C,C32*%
X212750000Y-65475000D03*
X212750000Y-67025000D03*
%TD*%
D46*
%TO.C,U5*%
X253155000Y-90025850D03*
X251885000Y-90025850D03*
X250615000Y-90025850D03*
X249345000Y-90025850D03*
X249345000Y-95474150D03*
X250615000Y-95474150D03*
X251885000Y-95474150D03*
X253155000Y-95474150D03*
%TD*%
D10*
%TO.C,C12*%
X235500000Y-105725000D03*
X235500000Y-107275000D03*
%TD*%
D11*
%TO.C,R28*%
X215925000Y-99750000D03*
X217575000Y-99750000D03*
%TD*%
D27*
%TO.C,R55*%
X220000000Y-63365000D03*
X220000000Y-67635000D03*
%TD*%
D47*
%TO.C,U4*%
X251975000Y-116405000D03*
X251975000Y-115135000D03*
X251975000Y-113865000D03*
X251975000Y-112595000D03*
X247025000Y-112595000D03*
X247025000Y-113865000D03*
X247025000Y-115135000D03*
X247025000Y-116405000D03*
%TD*%
D18*
%TO.C,Q13*%
X251200000Y-61462500D03*
X249300000Y-61462500D03*
X250250000Y-63337500D03*
%TD*%
D24*
%TO.C,C37*%
X201975000Y-90750000D03*
X199025000Y-90750000D03*
%TD*%
D11*
%TO.C,R12*%
X240925000Y-93000000D03*
X242575000Y-93000000D03*
%TD*%
D20*
%TO.C,C58*%
X237000000Y-93525000D03*
X237000000Y-91975000D03*
%TD*%
D33*
%TO.C,R14*%
X252000000Y-85100000D03*
X252000000Y-86750000D03*
%TD*%
D27*
%TO.C,R45*%
X197000000Y-63365000D03*
X197000000Y-67635000D03*
%TD*%
D18*
%TO.C,Q11*%
X258200000Y-61462500D03*
X256300000Y-61462500D03*
X257250000Y-63337500D03*
%TD*%
D12*
%TO.C,C21*%
X217525000Y-101250000D03*
X215975000Y-101250000D03*
%TD*%
D22*
%TO.C,D2*%
X245937500Y-94250000D03*
X244062500Y-94250000D03*
%TD*%
D10*
%TO.C,C61*%
X191250000Y-71725000D03*
X191250000Y-73275000D03*
%TD*%
D15*
%TO.C,R52*%
X219550000Y-87750000D03*
X217900000Y-87750000D03*
%TD*%
D11*
%TO.C,R74*%
X185675000Y-79250000D03*
X187325000Y-79250000D03*
%TD*%
D15*
%TO.C,R60*%
X242325000Y-84000000D03*
X240675000Y-84000000D03*
%TD*%
D12*
%TO.C,C48*%
X200250000Y-86250000D03*
X198700000Y-86250000D03*
%TD*%
D20*
%TO.C,C10*%
X225750000Y-91775000D03*
X225750000Y-90225000D03*
%TD*%
D15*
%TO.C,R89*%
X251075000Y-59650000D03*
X249425000Y-59650000D03*
%TD*%
D48*
%TO.C,U9*%
X183525000Y-72345000D03*
X183525000Y-73615000D03*
X183525000Y-74885000D03*
X183525000Y-76155000D03*
X188475000Y-76155000D03*
X188475000Y-74885000D03*
X188475000Y-73615000D03*
X188475000Y-72345000D03*
D49*
X186000000Y-74250000D03*
%TD*%
D11*
%TO.C,R49*%
X218975000Y-71000000D03*
X220625000Y-71000000D03*
%TD*%
%TO.C,R38*%
X200175000Y-71000000D03*
X201825000Y-71000000D03*
%TD*%
D26*
%TO.C,C44*%
X188525000Y-108000000D03*
X191475000Y-108000000D03*
%TD*%
D10*
%TO.C,C11*%
X223000000Y-105475000D03*
X223000000Y-107025000D03*
%TD*%
D15*
%TO.C,R50*%
X223325000Y-84000000D03*
X221675000Y-84000000D03*
%TD*%
D50*
%TO.C,C64*%
X180750000Y-67475000D03*
X180750000Y-64525000D03*
%TD*%
D15*
%TO.C,R67*%
X249075000Y-74500000D03*
X247425000Y-74500000D03*
%TD*%
D51*
%TO.C,R_can_termination1*%
X242837500Y-113500000D03*
X244662500Y-113500000D03*
%TD*%
D52*
%TO.C,U3*%
X236175000Y-103250000D03*
X236175000Y-102750000D03*
X236175000Y-102250000D03*
X236175000Y-101750000D03*
X236175000Y-101250000D03*
X236175000Y-100750000D03*
X236175000Y-100250000D03*
X236175000Y-99750000D03*
X236175000Y-99250000D03*
X236175000Y-98750000D03*
X236175000Y-98250000D03*
X236175000Y-97750000D03*
X236175000Y-97250000D03*
X236175000Y-96750000D03*
X236175000Y-96250000D03*
X236175000Y-95750000D03*
D53*
X234250000Y-93825000D03*
X233750000Y-93825000D03*
X233250000Y-93825000D03*
X232750000Y-93825000D03*
X232250000Y-93825000D03*
X231750000Y-93825000D03*
X231250000Y-93825000D03*
X230750000Y-93825000D03*
X230250000Y-93825000D03*
X229750000Y-93825000D03*
X229250000Y-93825000D03*
X228750000Y-93825000D03*
X228250000Y-93825000D03*
X227750000Y-93825000D03*
X227250000Y-93825000D03*
X226750000Y-93825000D03*
D52*
X224825000Y-95750000D03*
X224825000Y-96250000D03*
X224825000Y-96750000D03*
X224825000Y-97250000D03*
X224825000Y-97750000D03*
X224825000Y-98250000D03*
X224825000Y-98750000D03*
X224825000Y-99250000D03*
X224825000Y-99750000D03*
X224825000Y-100250000D03*
X224825000Y-100750000D03*
X224825000Y-101250000D03*
X224825000Y-101750000D03*
X224825000Y-102250000D03*
X224825000Y-102750000D03*
X224825000Y-103250000D03*
D53*
X226750000Y-105175000D03*
X227250000Y-105175000D03*
X227750000Y-105175000D03*
X228250000Y-105175000D03*
X228750000Y-105175000D03*
X229250000Y-105175000D03*
X229750000Y-105175000D03*
X230250000Y-105175000D03*
X230750000Y-105175000D03*
X231250000Y-105175000D03*
X231750000Y-105175000D03*
X232250000Y-105175000D03*
X232750000Y-105175000D03*
X233250000Y-105175000D03*
X233750000Y-105175000D03*
X234250000Y-105175000D03*
%TD*%
D10*
%TO.C,C15*%
X254000000Y-113825000D03*
X254000000Y-115375000D03*
%TD*%
D11*
%TO.C,R88*%
X250925000Y-71562500D03*
X252575000Y-71562500D03*
%TD*%
D54*
%TO.C,C29*%
X216750000Y-93250000D03*
X216750000Y-96200000D03*
%TD*%
D55*
%TO.C,U2*%
X242400000Y-123600000D03*
X242400000Y-124600000D03*
X242400000Y-125600000D03*
X242400000Y-126600000D03*
X242400000Y-121600000D03*
X242400000Y-122600000D03*
%TD*%
D10*
%TO.C,C18*%
X206500000Y-105225000D03*
X206500000Y-106775000D03*
%TD*%
D11*
%TO.C,R2*%
X219425000Y-93250000D03*
X221075000Y-93250000D03*
%TD*%
D56*
%TO.C,Q10*%
X257350000Y-69750000D03*
X259250000Y-69750000D03*
X258300000Y-67875000D03*
%TD*%
D26*
%TO.C,C46*%
X188525000Y-114500000D03*
X191475000Y-114500000D03*
%TD*%
D57*
%TO.C,C43*%
X188525000Y-105250000D03*
X191475000Y-105250000D03*
%TD*%
D14*
%TO.C,R72*%
X181500000Y-77825000D03*
X181500000Y-76175000D03*
%TD*%
D23*
%TO.C,C54*%
X244000000Y-68050000D03*
X244000000Y-62950000D03*
%TD*%
D15*
%TO.C,R81*%
X186575000Y-60750000D03*
X184925000Y-60750000D03*
%TD*%
D56*
%TO.C,Q12*%
X250350000Y-69750000D03*
X252250000Y-69750000D03*
X251300000Y-67875000D03*
%TD*%
D33*
%TO.C,R15*%
X250500000Y-86600000D03*
X250500000Y-88250000D03*
%TD*%
D44*
%TO.C,H6*%
X211125000Y-57750000D03*
X211893845Y-55893845D03*
X211893845Y-59606155D03*
X213750000Y-55125000D03*
D45*
X213750000Y-57750000D03*
D44*
X213750000Y-60375000D03*
X215606155Y-55893845D03*
X215606155Y-59606155D03*
X216375000Y-57750000D03*
%TD*%
D22*
%TO.C,D3*%
X199687500Y-113250000D03*
X197812500Y-113250000D03*
%TD*%
D33*
%TO.C,R6*%
X242500000Y-106425000D03*
X242500000Y-108075000D03*
%TD*%
%TO.C,R63*%
X236250000Y-74175000D03*
X236250000Y-75825000D03*
%TD*%
D44*
%TO.C,H5*%
X230125000Y-57750000D03*
X230893845Y-55893845D03*
X230893845Y-59606155D03*
X232750000Y-55125000D03*
D45*
X232750000Y-57750000D03*
D44*
X232750000Y-60375000D03*
X234606155Y-55893845D03*
X234606155Y-59606155D03*
X235375000Y-57750000D03*
%TD*%
D20*
%TO.C,C16*%
X240250000Y-66275000D03*
X240250000Y-64725000D03*
%TD*%
D12*
%TO.C,C57*%
X238500000Y-86250000D03*
X236950000Y-86250000D03*
%TD*%
D11*
%TO.C,R23*%
X193425000Y-107750000D03*
X195075000Y-107750000D03*
%TD*%
D10*
%TO.C,C65*%
X185250000Y-83725000D03*
X185250000Y-85275000D03*
%TD*%
D15*
%TO.C,R31*%
X250325000Y-97250000D03*
X248675000Y-97250000D03*
%TD*%
D10*
%TO.C,C6*%
X245500000Y-97225000D03*
X245500000Y-98775000D03*
%TD*%
D44*
%TO.C,H9*%
X238375000Y-79250000D03*
X239143845Y-77393845D03*
X239143845Y-81106155D03*
X241000000Y-76625000D03*
D45*
X241000000Y-79250000D03*
D44*
X241000000Y-81875000D03*
X242856155Y-77393845D03*
X242856155Y-81106155D03*
X243625000Y-79250000D03*
%TD*%
D12*
%TO.C,C25*%
X208275000Y-103750000D03*
X206725000Y-103750000D03*
%TD*%
D14*
%TO.C,R16*%
X255000000Y-91825000D03*
X255000000Y-90175000D03*
%TD*%
D10*
%TO.C,C27*%
X255000000Y-96225000D03*
X255000000Y-97775000D03*
%TD*%
D13*
%TO.C,C8*%
X238225000Y-100000000D03*
X239775000Y-100000000D03*
%TD*%
%TO.C,C4*%
X238225000Y-103250000D03*
X239775000Y-103250000D03*
%TD*%
D11*
%TO.C,R76*%
X185675000Y-77750000D03*
X187325000Y-77750000D03*
%TD*%
D56*
%TO.C,Q8*%
X253850000Y-69750000D03*
X255750000Y-69750000D03*
X254800000Y-67875000D03*
%TD*%
D15*
%TO.C,R61*%
X242325000Y-85750000D03*
X240675000Y-85750000D03*
%TD*%
D44*
%TO.C,H8*%
X219375000Y-79250000D03*
X220143845Y-77393845D03*
X220143845Y-81106155D03*
X222000000Y-76625000D03*
D45*
X222000000Y-79250000D03*
D44*
X222000000Y-81875000D03*
X223856155Y-77393845D03*
X223856155Y-81106155D03*
X224625000Y-79250000D03*
%TD*%
D58*
%TO.C,R10*%
X242487500Y-120200000D03*
X244312500Y-120200000D03*
%TD*%
D59*
%TO.C,U6*%
X201005900Y-100888600D03*
X201505900Y-100888600D03*
X202005900Y-100888600D03*
X202505900Y-100888600D03*
X203005900Y-100888600D03*
X203505900Y-100888600D03*
X204005900Y-100888600D03*
X204505900Y-100888600D03*
X205005900Y-100888600D03*
X205505900Y-100888600D03*
X206005900Y-100888600D03*
X206505900Y-100888600D03*
X207005900Y-100888600D03*
X207505900Y-100888600D03*
X208005900Y-100888600D03*
X208505900Y-100888600D03*
X209005900Y-100888600D03*
X209505900Y-100888600D03*
X210005900Y-100888600D03*
X210505900Y-100888600D03*
X211005900Y-100888600D03*
X211505900Y-100888600D03*
X212005900Y-100888600D03*
X212505900Y-100888600D03*
X213005900Y-100888600D03*
X213505900Y-100888600D03*
X214005900Y-100888600D03*
X214505900Y-100888600D03*
X214505900Y-93473600D03*
X214005900Y-93473600D03*
X213505900Y-93473600D03*
X213005900Y-93473600D03*
X212505900Y-93473600D03*
X212005900Y-93473600D03*
X211505900Y-93473600D03*
X211005900Y-93473600D03*
X210505900Y-93473600D03*
X210005900Y-93473600D03*
X209505900Y-93473600D03*
X209005900Y-93473600D03*
X208505900Y-93473600D03*
X208005900Y-93473600D03*
X207505900Y-93473600D03*
X207005900Y-93473600D03*
X206505900Y-93473600D03*
X206005900Y-93473600D03*
X205505900Y-93473600D03*
X205005900Y-93473600D03*
X204505900Y-93473600D03*
X204005900Y-93473600D03*
X203505900Y-93473600D03*
X203005900Y-93473600D03*
X202505900Y-93473600D03*
X202005900Y-93473600D03*
X201505900Y-93473600D03*
X201005900Y-93473600D03*
D60*
X207755900Y-97181100D03*
%TD*%
D15*
%TO.C,R36*%
X247575000Y-81200000D03*
X245925000Y-81200000D03*
%TD*%
D11*
%TO.C,R86*%
X257475000Y-71562500D03*
X259125000Y-71562500D03*
%TD*%
D16*
%TO.C,CAN2*%
X214500000Y-109350000D03*
D17*
X217000000Y-109350000D03*
%TD*%
D15*
%TO.C,R4*%
X221075000Y-95000000D03*
X219425000Y-95000000D03*
%TD*%
D14*
%TO.C,R69*%
X181500000Y-74825000D03*
X181500000Y-73175000D03*
%TD*%
D13*
%TO.C,C35*%
X207225000Y-88250000D03*
X208775000Y-88250000D03*
%TD*%
D15*
%TO.C,R78*%
X188075000Y-59250000D03*
X186425000Y-59250000D03*
%TD*%
D31*
%TO.C,C55*%
X226800000Y-76250000D03*
X228700000Y-76250000D03*
%TD*%
D11*
%TO.C,R84*%
X253975000Y-71562500D03*
X255625000Y-71562500D03*
%TD*%
D12*
%TO.C,C66*%
X188025000Y-57750000D03*
X186475000Y-57750000D03*
%TD*%
D24*
%TO.C,C63*%
X178225000Y-70000000D03*
X175275000Y-70000000D03*
%TD*%
D15*
%TO.C,R57*%
X230075000Y-74000000D03*
X228425000Y-74000000D03*
%TD*%
D11*
%TO.C,R59*%
X236175000Y-72750000D03*
X237825000Y-72750000D03*
%TD*%
%TO.C,R7*%
X253175000Y-104500000D03*
X254825000Y-104500000D03*
%TD*%
%TO.C,R27*%
X215925000Y-98250000D03*
X217575000Y-98250000D03*
%TD*%
D14*
%TO.C,R26*%
X202000000Y-106825000D03*
X202000000Y-105175000D03*
%TD*%
D27*
%TO.C,R64*%
X237500000Y-63365000D03*
X237500000Y-67635000D03*
%TD*%
D14*
%TO.C,R33*%
X209500000Y-79575000D03*
X209500000Y-77925000D03*
%TD*%
D33*
%TO.C,R29*%
X199500000Y-99675000D03*
X199500000Y-101325000D03*
%TD*%
%TO.C,R9*%
X241000000Y-106425000D03*
X241000000Y-108075000D03*
%TD*%
D12*
%TO.C,C67*%
X178775000Y-61000000D03*
X177225000Y-61000000D03*
%TD*%
D10*
%TO.C,C47*%
X199750000Y-74225000D03*
X199750000Y-75775000D03*
%TD*%
D33*
%TO.C,R5*%
X244000000Y-106425000D03*
X244000000Y-108075000D03*
%TD*%
%TO.C,R83*%
X175250000Y-62175000D03*
X175250000Y-63825000D03*
%TD*%
D15*
%TO.C,R56*%
X230075000Y-72500000D03*
X228425000Y-72500000D03*
%TD*%
D33*
%TO.C,R3*%
X246000000Y-106425000D03*
X246000000Y-108075000D03*
%TD*%
D11*
%TO.C,R39*%
X198175000Y-72600000D03*
X199825000Y-72600000D03*
%TD*%
D31*
%TO.C,C49*%
X207800000Y-76250000D03*
X209700000Y-76250000D03*
%TD*%
D24*
%TO.C,C62*%
X178225000Y-66750000D03*
X175275000Y-66750000D03*
%TD*%
D23*
%TO.C,C50*%
X206000000Y-68050000D03*
X206000000Y-62950000D03*
%TD*%
D15*
%TO.C,R41*%
X204075000Y-85500000D03*
X202425000Y-85500000D03*
%TD*%
D33*
%TO.C,R25*%
X247500000Y-91175000D03*
X247500000Y-92825000D03*
%TD*%
D12*
%TO.C,C1*%
X220975000Y-96600000D03*
X219425000Y-96600000D03*
%TD*%
D11*
%TO.C,R13*%
X194425000Y-113250000D03*
X196075000Y-113250000D03*
%TD*%
D10*
%TO.C,C56*%
X237750000Y-74225000D03*
X237750000Y-75775000D03*
%TD*%
D20*
%TO.C,C30*%
X197250000Y-91775000D03*
X197250000Y-90225000D03*
%TD*%
D54*
%TO.C,C60*%
X179000000Y-73275000D03*
X179000000Y-76225000D03*
%TD*%
D14*
%TO.C,R75*%
X181500000Y-71750000D03*
X181500000Y-70100000D03*
%TD*%
D15*
%TO.C,R51*%
X223325000Y-85750000D03*
X221675000Y-85750000D03*
%TD*%
%TO.C,R20*%
X195075000Y-102500000D03*
X193425000Y-102500000D03*
%TD*%
D20*
%TO.C,C24*%
X212750000Y-104275000D03*
X212750000Y-102725000D03*
%TD*%
D61*
%TO.C,Q2*%
X200790000Y-84500000D03*
D62*
X198250000Y-84500000D03*
X195710000Y-84500000D03*
%TD*%
D16*
%TO.C,M1*%
X184250000Y-63400000D03*
D17*
X186750000Y-63400000D03*
X189250000Y-63400000D03*
%TD*%
D63*
%TO.C,J2*%
X195725000Y-120000000D03*
D64*
X198265000Y-120000000D03*
%TD*%
D61*
%TO.C,Q1*%
X201710000Y-73730000D03*
D62*
X204250000Y-73730000D03*
X206790000Y-73730000D03*
%TD*%
D61*
%TO.C,Q5*%
X239710000Y-73750000D03*
D62*
X242250000Y-73750000D03*
X244790000Y-73750000D03*
%TD*%
D16*
%TO.C,RGBLED1*%
X251000000Y-65900000D03*
D17*
X253500000Y-65900000D03*
X256000000Y-65900000D03*
X258500000Y-65900000D03*
%TD*%
D61*
%TO.C,Q3*%
X220710000Y-73730000D03*
D62*
X223250000Y-73730000D03*
X225790000Y-73730000D03*
%TD*%
D63*
%TO.C,J3*%
X251250000Y-109250000D03*
D64*
X251250000Y-106710000D03*
X251250000Y-104170000D03*
X251250000Y-101630000D03*
X251250000Y-99090000D03*
%TD*%
D61*
%TO.C,Q4*%
X219790000Y-84500000D03*
D62*
X217250000Y-84500000D03*
X214710000Y-84500000D03*
%TD*%
D61*
%TO.C,Q6*%
X238790000Y-84500000D03*
D62*
X236250000Y-84500000D03*
X233710000Y-84500000D03*
%TD*%
M02*
