%TF.GenerationSoftware,KiCad,Pcbnew,9.0.0*%
%TF.CreationDate,2025-07-24T13:06:19+09:00*%
%TF.ProjectId,AQUA_VESC,41515541-5f56-4455-9343-2e6b69636164,rev?*%
%TF.SameCoordinates,Original*%
%TF.FileFunction,Legend,Top*%
%TF.FilePolarity,Positive*%
%FSLAX46Y46*%
G04 Gerber Fmt 4.6, Leading zero omitted, Abs format (unit mm)*
G04 Created by KiCad (PCBNEW 9.0.0) date 2025-07-24 13:06:19*
%MOMM*%
%LPD*%
G01*
G04 APERTURE LIST*
G04 Aperture macros list*
%AMRoundRect*
0 Rectangle with rounded corners*
0 $1 Rounding radius*
0 $2 $3 $4 $5 $6 $7 $8 $9 X,Y pos of 4 corners*
0 Add a 4 corners polygon primitive as box body*
4,1,4,$2,$3,$4,$5,$6,$7,$8,$9,$2,$3,0*
0 Add four circle primitives for the rounded corners*
1,1,$1+$1,$2,$3*
1,1,$1+$1,$4,$5*
1,1,$1+$1,$6,$7*
1,1,$1+$1,$8,$9*
0 Add four rect primitives between the rounded corners*
20,1,$1+$1,$2,$3,$4,$5,0*
20,1,$1+$1,$4,$5,$6,$7,0*
20,1,$1+$1,$6,$7,$8,$9,0*
20,1,$1+$1,$8,$9,$2,$3,0*%
%AMFreePoly0*
4,1,23,0.500000,-0.750000,0.000000,-0.750000,0.000000,-0.745722,-0.065263,-0.745722,-0.191342,-0.711940,-0.304381,-0.646677,-0.396677,-0.554381,-0.461940,-0.441342,-0.495722,-0.315263,-0.495722,-0.250000,-0.500000,-0.250000,-0.500000,0.250000,-0.495722,0.250000,-0.495722,0.315263,-0.461940,0.441342,-0.396677,0.554381,-0.304381,0.646677,-0.191342,0.711940,-0.065263,0.745722,0.000000,0.745722,
0.000000,0.750000,0.500000,0.750000,0.500000,-0.750000,0.500000,-0.750000,$1*%
%AMFreePoly1*
4,1,23,0.000000,0.745722,0.065263,0.745722,0.191342,0.711940,0.304381,0.646677,0.396677,0.554381,0.461940,0.441342,0.495722,0.315263,0.495722,0.250000,0.500000,0.250000,0.500000,-0.250000,0.495722,-0.250000,0.495722,-0.315263,0.461940,-0.441342,0.396677,-0.554381,0.304381,-0.646677,0.191342,-0.711940,0.065263,-0.745722,0.000000,-0.745722,0.000000,-0.750000,-0.500000,-0.750000,
-0.500000,0.750000,0.000000,0.750000,0.000000,0.745722,0.000000,0.745722,$1*%
G04 Aperture macros list end*
%ADD10C,0.100000*%
%ADD11C,0.125000*%
%ADD12C,0.200000*%
%ADD13C,0.120000*%
%ADD14C,0.800000*%
%ADD15C,0.300000*%
%ADD16C,0.150000*%
%ADD17C,0.152400*%
%ADD18C,0.254000*%
%ADD19C,0.152500*%
%ADD20RoundRect,0.225000X-0.250000X0.225000X-0.250000X-0.225000X0.250000X-0.225000X0.250000X0.225000X0*%
%ADD21RoundRect,0.200000X-0.200000X-0.275000X0.200000X-0.275000X0.200000X0.275000X-0.200000X0.275000X0*%
%ADD22RoundRect,0.225000X0.225000X0.250000X-0.225000X0.250000X-0.225000X-0.250000X0.225000X-0.250000X0*%
%ADD23C,3.200000*%
%ADD24RoundRect,0.225000X-0.225000X-0.250000X0.225000X-0.250000X0.225000X0.250000X-0.225000X0.250000X0*%
%ADD25RoundRect,0.200000X0.275000X-0.200000X0.275000X0.200000X-0.275000X0.200000X-0.275000X-0.200000X0*%
%ADD26RoundRect,0.200000X0.200000X0.275000X-0.200000X0.275000X-0.200000X-0.275000X0.200000X-0.275000X0*%
%ADD27RoundRect,0.250000X-0.600000X-0.725000X0.600000X-0.725000X0.600000X0.725000X-0.600000X0.725000X0*%
%ADD28O,1.700000X1.950000*%
%ADD29RoundRect,0.150000X-0.150000X0.587500X-0.150000X-0.587500X0.150000X-0.587500X0.150000X0.587500X0*%
%ADD30R,1.016000X0.355600*%
%ADD31RoundRect,0.225000X0.250000X-0.225000X0.250000X0.225000X-0.250000X0.225000X-0.250000X-0.225000X0*%
%ADD32R,2.400000X3.200000*%
%ADD33RoundRect,0.243750X0.243750X0.456250X-0.243750X0.456250X-0.243750X-0.456250X0.243750X-0.456250X0*%
%ADD34RoundRect,0.250000X2.450000X-0.650000X2.450000X0.650000X-2.450000X0.650000X-2.450000X-0.650000X0*%
%ADD35RoundRect,0.250000X0.325000X1.100000X-0.325000X1.100000X-0.325000X-1.100000X0.325000X-1.100000X0*%
%ADD36RoundRect,0.250000X0.650000X-1.000000X0.650000X1.000000X-0.650000X1.000000X-0.650000X-1.000000X0*%
%ADD37RoundRect,0.250000X-0.325000X-1.100000X0.325000X-1.100000X0.325000X1.100000X-0.325000X1.100000X0*%
%ADD38RoundRect,0.564250X-1.275750X0.960750X-1.275750X-0.960750X1.275750X-0.960750X1.275750X0.960750X0*%
%ADD39R,2.590800X2.196600*%
%ADD40O,1.692000X0.364000*%
%ADD41R,1.400000X1.700000*%
%ADD42RoundRect,0.250000X-0.250000X-0.475000X0.250000X-0.475000X0.250000X0.475000X-0.250000X0.475000X0*%
%ADD43RoundRect,0.250000X0.325000X0.650000X-0.325000X0.650000X-0.325000X-0.650000X0.325000X-0.650000X0*%
%ADD44RoundRect,0.200000X-0.275000X0.200000X-0.275000X-0.200000X0.275000X-0.200000X0.275000X0.200000X0*%
%ADD45R,1.460500X0.558800*%
%ADD46RoundRect,0.375000X-0.375000X0.625000X-0.375000X-0.625000X0.375000X-0.625000X0.375000X0.625000X0*%
%ADD47RoundRect,0.500000X-1.400000X0.500000X-1.400000X-0.500000X1.400000X-0.500000X1.400000X0.500000X0*%
%ADD48FreePoly0,0.000000*%
%ADD49FreePoly1,0.000000*%
%ADD50R,2.400000X1.900000*%
%ADD51R,1.524000X0.400000*%
%ADD52R,1.220000X1.500000*%
%ADD53R,1.000000X1.000000*%
%ADD54RoundRect,0.243750X-0.243750X-0.456250X0.243750X-0.456250X0.243750X0.456250X-0.243750X0.456250X0*%
%ADD55C,0.800000*%
%ADD56C,7.000000*%
%ADD57R,0.558800X1.460500*%
%ADD58RoundRect,0.150000X0.825000X0.150000X-0.825000X0.150000X-0.825000X-0.150000X0.825000X-0.150000X0*%
%ADD59RoundRect,0.150000X-0.825000X-0.150000X0.825000X-0.150000X0.825000X0.150000X-0.825000X0.150000X0*%
%ADD60R,2.410000X3.300000*%
%ADD61RoundRect,0.250000X1.100000X-0.325000X1.100000X0.325000X-1.100000X0.325000X-1.100000X-0.325000X0*%
%ADD62RoundRect,0.250000X-0.262500X-0.450000X0.262500X-0.450000X0.262500X0.450000X-0.262500X0.450000X0*%
%ADD63RoundRect,0.075000X0.700000X0.075000X-0.700000X0.075000X-0.700000X-0.075000X0.700000X-0.075000X0*%
%ADD64RoundRect,0.075000X0.075000X0.700000X-0.075000X0.700000X-0.075000X-0.700000X0.075000X-0.700000X0*%
%ADD65RoundRect,0.250000X-1.100000X0.325000X-1.100000X-0.325000X1.100000X-0.325000X1.100000X0.325000X0*%
%ADD66RoundRect,0.075000X-2.425000X-0.175000X2.425000X-0.175000X2.425000X0.175000X-2.425000X0.175000X0*%
%ADD67RoundRect,0.150000X0.150000X-0.587500X0.150000X0.587500X-0.150000X0.587500X-0.150000X-0.587500X0*%
%ADD68RoundRect,0.250000X-0.325000X-0.650000X0.325000X-0.650000X0.325000X0.650000X-0.325000X0.650000X0*%
%ADD69RoundRect,0.237500X-0.250000X-0.237500X0.250000X-0.237500X0.250000X0.237500X-0.250000X0.237500X0*%
%ADD70O,0.280000X1.715000*%
%ADD71R,5.825000X3.235000*%
%ADD72R,1.905000X2.000000*%
%ADD73O,1.905000X2.000000*%
%ADD74R,1.700000X1.700000*%
%ADD75O,1.700000X1.700000*%
G04 APERTURE END LIST*
D10*
X201250000Y-126750000D02*
X201250000Y-121000000D01*
X193250000Y-126750000D02*
X201250000Y-126750000D01*
X201250000Y-121000000D02*
X199750000Y-121000000D01*
X193250000Y-121000000D02*
X193250000Y-126750000D01*
X194000000Y-121000000D02*
X193250000Y-121000000D01*
X240522931Y-89977847D02*
X240256265Y-89977847D01*
X240256265Y-90396895D02*
X240256265Y-89596895D01*
X240256265Y-89596895D02*
X240637217Y-89596895D01*
X240903883Y-90168323D02*
X241284836Y-90168323D01*
X240827693Y-90396895D02*
X241094360Y-89596895D01*
X241094360Y-89596895D02*
X241361026Y-90396895D01*
X241627693Y-89596895D02*
X241627693Y-90244514D01*
X241627693Y-90244514D02*
X241665788Y-90320704D01*
X241665788Y-90320704D02*
X241703883Y-90358800D01*
X241703883Y-90358800D02*
X241780074Y-90396895D01*
X241780074Y-90396895D02*
X241932455Y-90396895D01*
X241932455Y-90396895D02*
X242008645Y-90358800D01*
X242008645Y-90358800D02*
X242046740Y-90320704D01*
X242046740Y-90320704D02*
X242084836Y-90244514D01*
X242084836Y-90244514D02*
X242084836Y-89596895D01*
X242846740Y-90396895D02*
X242465788Y-90396895D01*
X242465788Y-90396895D02*
X242465788Y-89596895D01*
X242999121Y-89596895D02*
X243456264Y-89596895D01*
X243227692Y-90396895D02*
X243227692Y-89596895D01*
X240756265Y-94896895D02*
X240756265Y-94096895D01*
X240756265Y-94096895D02*
X241022931Y-94668323D01*
X241022931Y-94668323D02*
X241289598Y-94096895D01*
X241289598Y-94096895D02*
X241289598Y-94896895D01*
X242127694Y-94820704D02*
X242089598Y-94858800D01*
X242089598Y-94858800D02*
X241975313Y-94896895D01*
X241975313Y-94896895D02*
X241899122Y-94896895D01*
X241899122Y-94896895D02*
X241784836Y-94858800D01*
X241784836Y-94858800D02*
X241708646Y-94782609D01*
X241708646Y-94782609D02*
X241670551Y-94706419D01*
X241670551Y-94706419D02*
X241632455Y-94554038D01*
X241632455Y-94554038D02*
X241632455Y-94439752D01*
X241632455Y-94439752D02*
X241670551Y-94287371D01*
X241670551Y-94287371D02*
X241708646Y-94211180D01*
X241708646Y-94211180D02*
X241784836Y-94134990D01*
X241784836Y-94134990D02*
X241899122Y-94096895D01*
X241899122Y-94096895D02*
X241975313Y-94096895D01*
X241975313Y-94096895D02*
X242089598Y-94134990D01*
X242089598Y-94134990D02*
X242127694Y-94173085D01*
X242470551Y-94096895D02*
X242470551Y-94744514D01*
X242470551Y-94744514D02*
X242508646Y-94820704D01*
X242508646Y-94820704D02*
X242546741Y-94858800D01*
X242546741Y-94858800D02*
X242622932Y-94896895D01*
X242622932Y-94896895D02*
X242775313Y-94896895D01*
X242775313Y-94896895D02*
X242851503Y-94858800D01*
X242851503Y-94858800D02*
X242889598Y-94820704D01*
X242889598Y-94820704D02*
X242927694Y-94744514D01*
X242927694Y-94744514D02*
X242927694Y-94096895D01*
D11*
X197475093Y-114621119D02*
X198094140Y-114621119D01*
X198094140Y-114621119D02*
X197760807Y-115002071D01*
X197760807Y-115002071D02*
X197903664Y-115002071D01*
X197903664Y-115002071D02*
X197998902Y-115049690D01*
X197998902Y-115049690D02*
X198046521Y-115097309D01*
X198046521Y-115097309D02*
X198094140Y-115192547D01*
X198094140Y-115192547D02*
X198094140Y-115430642D01*
X198094140Y-115430642D02*
X198046521Y-115525880D01*
X198046521Y-115525880D02*
X197998902Y-115573500D01*
X197998902Y-115573500D02*
X197903664Y-115621119D01*
X197903664Y-115621119D02*
X197617950Y-115621119D01*
X197617950Y-115621119D02*
X197522712Y-115573500D01*
X197522712Y-115573500D02*
X197475093Y-115525880D01*
X198379855Y-114621119D02*
X198713188Y-115621119D01*
X198713188Y-115621119D02*
X199046521Y-114621119D01*
X199284617Y-114621119D02*
X199903664Y-114621119D01*
X199903664Y-114621119D02*
X199570331Y-115002071D01*
X199570331Y-115002071D02*
X199713188Y-115002071D01*
X199713188Y-115002071D02*
X199808426Y-115049690D01*
X199808426Y-115049690D02*
X199856045Y-115097309D01*
X199856045Y-115097309D02*
X199903664Y-115192547D01*
X199903664Y-115192547D02*
X199903664Y-115430642D01*
X199903664Y-115430642D02*
X199856045Y-115525880D01*
X199856045Y-115525880D02*
X199808426Y-115573500D01*
X199808426Y-115573500D02*
X199713188Y-115621119D01*
X199713188Y-115621119D02*
X199427474Y-115621119D01*
X199427474Y-115621119D02*
X199332236Y-115573500D01*
X199332236Y-115573500D02*
X199284617Y-115525880D01*
D12*
G36*
X201000912Y-54997023D02*
G01*
X201065091Y-55061202D01*
X201103006Y-55212861D01*
X201103006Y-55521575D01*
X201065090Y-55673235D01*
X201000914Y-55737413D01*
X200941304Y-55767219D01*
X200798042Y-55767219D01*
X200738432Y-55737414D01*
X200674255Y-55673236D01*
X200636340Y-55521575D01*
X200636340Y-55212862D01*
X200674255Y-55061202D01*
X200738434Y-54997023D01*
X200798042Y-54967219D01*
X200941304Y-54967219D01*
X201000912Y-54997023D01*
G37*
G36*
X199143770Y-54997024D02*
G01*
X199168439Y-55021692D01*
X199198244Y-55081302D01*
X199198244Y-55176945D01*
X199168439Y-55236554D01*
X199143770Y-55261222D01*
X199084161Y-55291028D01*
X198826816Y-55291028D01*
X198826816Y-54967219D01*
X199084161Y-54967219D01*
X199143770Y-54997024D01*
G37*
G36*
X201414117Y-56078330D02*
G01*
X196610943Y-56078330D01*
X196610943Y-55057695D01*
X196722054Y-55057695D01*
X196722054Y-55152933D01*
X196723975Y-55172442D01*
X196725350Y-55175762D01*
X196725605Y-55179346D01*
X196732611Y-55197654D01*
X196780230Y-55292892D01*
X196785515Y-55301288D01*
X196786526Y-55303728D01*
X196788779Y-55306474D01*
X196790673Y-55309482D01*
X196792667Y-55311211D01*
X196798962Y-55318882D01*
X196846581Y-55366500D01*
X196854247Y-55372792D01*
X196855980Y-55374790D01*
X196858988Y-55376683D01*
X196861734Y-55378937D01*
X196864174Y-55379947D01*
X196872571Y-55385233D01*
X196967808Y-55432852D01*
X196969236Y-55433398D01*
X196969816Y-55433828D01*
X196977992Y-55436749D01*
X196986117Y-55439858D01*
X196986837Y-55439909D01*
X196988276Y-55440423D01*
X197168101Y-55485379D01*
X197239008Y-55520833D01*
X197263677Y-55545501D01*
X197293482Y-55605111D01*
X197293482Y-55653135D01*
X197263677Y-55712743D01*
X197239008Y-55737413D01*
X197179399Y-55767219D01*
X196981137Y-55767219D01*
X196853677Y-55724732D01*
X196834561Y-55720385D01*
X196795641Y-55723151D01*
X196760742Y-55740601D01*
X196735177Y-55770077D01*
X196722839Y-55807093D01*
X196725605Y-55846013D01*
X196743055Y-55880912D01*
X196772531Y-55906477D01*
X196790431Y-55914468D01*
X196933288Y-55962087D01*
X196942960Y-55964286D01*
X196945402Y-55965298D01*
X196948939Y-55965646D01*
X196952403Y-55966434D01*
X196955037Y-55966246D01*
X196964911Y-55967219D01*
X197203006Y-55967219D01*
X197222515Y-55965298D01*
X197225835Y-55963922D01*
X197229419Y-55963668D01*
X197247727Y-55956662D01*
X197342965Y-55909043D01*
X197351360Y-55903758D01*
X197353802Y-55902747D01*
X197356549Y-55900491D01*
X197359555Y-55898600D01*
X197361285Y-55896605D01*
X197368955Y-55890310D01*
X197416574Y-55842690D01*
X197422866Y-55835023D01*
X197424863Y-55833292D01*
X197426756Y-55830284D01*
X197429011Y-55827537D01*
X197430022Y-55825095D01*
X197435306Y-55816701D01*
X197482925Y-55721464D01*
X197489931Y-55703155D01*
X197490185Y-55699571D01*
X197491561Y-55696251D01*
X197493482Y-55676742D01*
X197493482Y-55581504D01*
X197491561Y-55561995D01*
X197490185Y-55558674D01*
X197489931Y-55555091D01*
X197482925Y-55536782D01*
X197435306Y-55441545D01*
X197430020Y-55433148D01*
X197429010Y-55430708D01*
X197426756Y-55427962D01*
X197424863Y-55424954D01*
X197422865Y-55423221D01*
X197416573Y-55415555D01*
X197368955Y-55367936D01*
X197361284Y-55361641D01*
X197359555Y-55359647D01*
X197356547Y-55357753D01*
X197353801Y-55355500D01*
X197351361Y-55354489D01*
X197342965Y-55349204D01*
X197247727Y-55301585D01*
X197246300Y-55301039D01*
X197245720Y-55300609D01*
X197237543Y-55297687D01*
X197229419Y-55294579D01*
X197228696Y-55294527D01*
X197227259Y-55294014D01*
X197047434Y-55249057D01*
X196976527Y-55213604D01*
X196951859Y-55188935D01*
X196922054Y-55129325D01*
X196922054Y-55081302D01*
X196951859Y-55021692D01*
X196976527Y-54997023D01*
X197036137Y-54967219D01*
X197234398Y-54967219D01*
X197361859Y-55009706D01*
X197380974Y-55014053D01*
X197419894Y-55011287D01*
X197454793Y-54993837D01*
X197480358Y-54964361D01*
X197492697Y-54927345D01*
X197489930Y-54888425D01*
X197479327Y-54867219D01*
X197722054Y-54867219D01*
X197722054Y-55867219D01*
X197723975Y-55886728D01*
X197738907Y-55922776D01*
X197766497Y-55950366D01*
X197802545Y-55965298D01*
X197822054Y-55967219D01*
X198298244Y-55967219D01*
X198317753Y-55965298D01*
X198353801Y-55950366D01*
X198381391Y-55922776D01*
X198396323Y-55886728D01*
X198396323Y-55847710D01*
X198381391Y-55811662D01*
X198353801Y-55784072D01*
X198317753Y-55769140D01*
X198298244Y-55767219D01*
X197922054Y-55767219D01*
X197922054Y-55443409D01*
X198155387Y-55443409D01*
X198174896Y-55441488D01*
X198210944Y-55426556D01*
X198238534Y-55398966D01*
X198253466Y-55362918D01*
X198253466Y-55323900D01*
X198238534Y-55287852D01*
X198210944Y-55260262D01*
X198174896Y-55245330D01*
X198155387Y-55243409D01*
X197922054Y-55243409D01*
X197922054Y-54967219D01*
X198298244Y-54967219D01*
X198317753Y-54965298D01*
X198353801Y-54950366D01*
X198381391Y-54922776D01*
X198396323Y-54886728D01*
X198396323Y-54867219D01*
X198626816Y-54867219D01*
X198626816Y-55867219D01*
X198628737Y-55886728D01*
X198643669Y-55922776D01*
X198671259Y-55950366D01*
X198707307Y-55965298D01*
X198746325Y-55965298D01*
X198782373Y-55950366D01*
X198809963Y-55922776D01*
X198824895Y-55886728D01*
X198826816Y-55867219D01*
X198826816Y-55491028D01*
X198912846Y-55491028D01*
X199216321Y-55924565D01*
X199229082Y-55939446D01*
X199261987Y-55960415D01*
X199300412Y-55967196D01*
X199338506Y-55958756D01*
X199370471Y-55936381D01*
X199391440Y-55903476D01*
X199398221Y-55865052D01*
X199389781Y-55826957D01*
X199380167Y-55809873D01*
X199150199Y-55481347D01*
X199152489Y-55480471D01*
X199247727Y-55432852D01*
X199256123Y-55427566D01*
X199258563Y-55426556D01*
X199261309Y-55424302D01*
X199264317Y-55422409D01*
X199266046Y-55420414D01*
X199273717Y-55414120D01*
X199321335Y-55366501D01*
X199327627Y-55358834D01*
X199329625Y-55357102D01*
X199331518Y-55354093D01*
X199333772Y-55351348D01*
X199334782Y-55348907D01*
X199340068Y-55340511D01*
X199387687Y-55245274D01*
X199394693Y-55226965D01*
X199394947Y-55223381D01*
X199396323Y-55220061D01*
X199398244Y-55200552D01*
X199398244Y-55057695D01*
X199396323Y-55038186D01*
X199394947Y-55034865D01*
X199394693Y-55031282D01*
X199387687Y-55012973D01*
X199340068Y-54917736D01*
X199334782Y-54909339D01*
X199333772Y-54906899D01*
X199331518Y-54904153D01*
X199329625Y-54901145D01*
X199327627Y-54899412D01*
X199321335Y-54891746D01*
X199309315Y-54879726D01*
X199484744Y-54879726D01*
X199489091Y-54898842D01*
X199822424Y-55898841D01*
X199830415Y-55916742D01*
X199835098Y-55922141D01*
X199838293Y-55928531D01*
X199847764Y-55936746D01*
X199855980Y-55946218D01*
X199862368Y-55949412D01*
X199867769Y-55954096D01*
X199879670Y-55958063D01*
X199890879Y-55963667D01*
X199898003Y-55964173D01*
X199904785Y-55966434D01*
X199917294Y-55965544D01*
X199929799Y-55966434D01*
X199936577Y-55964174D01*
X199943705Y-55963668D01*
X199954921Y-55958059D01*
X199966815Y-55954095D01*
X199972212Y-55949414D01*
X199978604Y-55946218D01*
X199986822Y-55936742D01*
X199996291Y-55928530D01*
X199999484Y-55922143D01*
X200004169Y-55916742D01*
X200012160Y-55898842D01*
X200244923Y-55200552D01*
X200436340Y-55200552D01*
X200436340Y-55533885D01*
X200436675Y-55537287D01*
X200436458Y-55538746D01*
X200437537Y-55546043D01*
X200438261Y-55553394D01*
X200438825Y-55554757D01*
X200439326Y-55558139D01*
X200486945Y-55748614D01*
X200493540Y-55767075D01*
X200497965Y-55773047D01*
X200500811Y-55779918D01*
X200513248Y-55795071D01*
X200608486Y-55890311D01*
X200616154Y-55896604D01*
X200617885Y-55898600D01*
X200620892Y-55900493D01*
X200623639Y-55902747D01*
X200626079Y-55903757D01*
X200634476Y-55909043D01*
X200729713Y-55956662D01*
X200748022Y-55963668D01*
X200751605Y-55963922D01*
X200754926Y-55965298D01*
X200774435Y-55967219D01*
X200964911Y-55967219D01*
X200984420Y-55965298D01*
X200987740Y-55963922D01*
X200991324Y-55963668D01*
X201009632Y-55956662D01*
X201104870Y-55909043D01*
X201113265Y-55903758D01*
X201115707Y-55902747D01*
X201118454Y-55900491D01*
X201121460Y-55898600D01*
X201123190Y-55896605D01*
X201130860Y-55890310D01*
X201226098Y-55795071D01*
X201238535Y-55779918D01*
X201241380Y-55773047D01*
X201245806Y-55767075D01*
X201252401Y-55748615D01*
X201300020Y-55558139D01*
X201300520Y-55554757D01*
X201301085Y-55553394D01*
X201301808Y-55546043D01*
X201302888Y-55538746D01*
X201302670Y-55537287D01*
X201303006Y-55533885D01*
X201303006Y-55200552D01*
X201302670Y-55197149D01*
X201302888Y-55195691D01*
X201301808Y-55188393D01*
X201301085Y-55181043D01*
X201300520Y-55179679D01*
X201300020Y-55176298D01*
X201252401Y-54985822D01*
X201245806Y-54967362D01*
X201241379Y-54961387D01*
X201238534Y-54954519D01*
X201226098Y-54939365D01*
X201130860Y-54844127D01*
X201123189Y-54837832D01*
X201121460Y-54835838D01*
X201118452Y-54833944D01*
X201115706Y-54831691D01*
X201113266Y-54830680D01*
X201104870Y-54825395D01*
X201009632Y-54777776D01*
X200991324Y-54770770D01*
X200987740Y-54770515D01*
X200984420Y-54769140D01*
X200964911Y-54767219D01*
X200774435Y-54767219D01*
X200754926Y-54769140D01*
X200751605Y-54770515D01*
X200748022Y-54770770D01*
X200729713Y-54777776D01*
X200634476Y-54825395D01*
X200626077Y-54830681D01*
X200623640Y-54831691D01*
X200620896Y-54833942D01*
X200617885Y-54835838D01*
X200616152Y-54837835D01*
X200608486Y-54844127D01*
X200513248Y-54939365D01*
X200500812Y-54954519D01*
X200497966Y-54961387D01*
X200493540Y-54967362D01*
X200486945Y-54985823D01*
X200439326Y-55176298D01*
X200438825Y-55179679D01*
X200438261Y-55181043D01*
X200437537Y-55188393D01*
X200436458Y-55195691D01*
X200436675Y-55197149D01*
X200436340Y-55200552D01*
X200244923Y-55200552D01*
X200345493Y-54898842D01*
X200349840Y-54879727D01*
X200347074Y-54840807D01*
X200329624Y-54805908D01*
X200300148Y-54780343D01*
X200263132Y-54768004D01*
X200224212Y-54770771D01*
X200189313Y-54788220D01*
X200163748Y-54817696D01*
X200155757Y-54835597D01*
X199917292Y-55550991D01*
X199678827Y-54835596D01*
X199670836Y-54817696D01*
X199645271Y-54788220D01*
X199610372Y-54770770D01*
X199571452Y-54768004D01*
X199534436Y-54780342D01*
X199504960Y-54805907D01*
X199487510Y-54840806D01*
X199484744Y-54879726D01*
X199309315Y-54879726D01*
X199273717Y-54844127D01*
X199266046Y-54837832D01*
X199264317Y-54835838D01*
X199261309Y-54833944D01*
X199258563Y-54831691D01*
X199256123Y-54830680D01*
X199247727Y-54825395D01*
X199152489Y-54777776D01*
X199134181Y-54770770D01*
X199130597Y-54770515D01*
X199127277Y-54769140D01*
X199107768Y-54767219D01*
X198726816Y-54767219D01*
X198707307Y-54769140D01*
X198671259Y-54784072D01*
X198643669Y-54811662D01*
X198628737Y-54847710D01*
X198626816Y-54867219D01*
X198396323Y-54867219D01*
X198396323Y-54847710D01*
X198381391Y-54811662D01*
X198353801Y-54784072D01*
X198317753Y-54769140D01*
X198298244Y-54767219D01*
X197822054Y-54767219D01*
X197802545Y-54769140D01*
X197766497Y-54784072D01*
X197738907Y-54811662D01*
X197723975Y-54847710D01*
X197722054Y-54867219D01*
X197479327Y-54867219D01*
X197472481Y-54853526D01*
X197443005Y-54827961D01*
X197425104Y-54819970D01*
X197282248Y-54772351D01*
X197272576Y-54770151D01*
X197270134Y-54769140D01*
X197266595Y-54768791D01*
X197263132Y-54768004D01*
X197260498Y-54768191D01*
X197250625Y-54767219D01*
X197012530Y-54767219D01*
X196993021Y-54769140D01*
X196989700Y-54770515D01*
X196986117Y-54770770D01*
X196967808Y-54777776D01*
X196872571Y-54825395D01*
X196864174Y-54830680D01*
X196861734Y-54831691D01*
X196858988Y-54833944D01*
X196855980Y-54835838D01*
X196854247Y-54837835D01*
X196846581Y-54844128D01*
X196798962Y-54891746D01*
X196792667Y-54899416D01*
X196790673Y-54901146D01*
X196788779Y-54904153D01*
X196786526Y-54906900D01*
X196785515Y-54909339D01*
X196780230Y-54917736D01*
X196732611Y-55012974D01*
X196725605Y-55031282D01*
X196725350Y-55034865D01*
X196723975Y-55038186D01*
X196722054Y-55057695D01*
X196610943Y-55057695D01*
X196610943Y-54656108D01*
X201414117Y-54656108D01*
X201414117Y-56078330D01*
G37*
D10*
X201713408Y-103646895D02*
X201446741Y-103265942D01*
X201256265Y-103646895D02*
X201256265Y-102846895D01*
X201256265Y-102846895D02*
X201561027Y-102846895D01*
X201561027Y-102846895D02*
X201637217Y-102884990D01*
X201637217Y-102884990D02*
X201675312Y-102923085D01*
X201675312Y-102923085D02*
X201713408Y-102999276D01*
X201713408Y-102999276D02*
X201713408Y-103113561D01*
X201713408Y-103113561D02*
X201675312Y-103189752D01*
X201675312Y-103189752D02*
X201637217Y-103227847D01*
X201637217Y-103227847D02*
X201561027Y-103265942D01*
X201561027Y-103265942D02*
X201256265Y-103265942D01*
X201865789Y-103723085D02*
X202475312Y-103723085D01*
X202665789Y-103646895D02*
X202665789Y-102846895D01*
X202665789Y-102846895D02*
X202856265Y-102846895D01*
X202856265Y-102846895D02*
X202970551Y-102884990D01*
X202970551Y-102884990D02*
X203046741Y-102961180D01*
X203046741Y-102961180D02*
X203084836Y-103037371D01*
X203084836Y-103037371D02*
X203122932Y-103189752D01*
X203122932Y-103189752D02*
X203122932Y-103304038D01*
X203122932Y-103304038D02*
X203084836Y-103456419D01*
X203084836Y-103456419D02*
X203046741Y-103532609D01*
X203046741Y-103532609D02*
X202970551Y-103608800D01*
X202970551Y-103608800D02*
X202856265Y-103646895D01*
X202856265Y-103646895D02*
X202665789Y-103646895D01*
X203351503Y-102846895D02*
X203808646Y-102846895D01*
X203580074Y-103646895D02*
X203580074Y-102846895D01*
X204532456Y-103570704D02*
X204494360Y-103608800D01*
X204494360Y-103608800D02*
X204380075Y-103646895D01*
X204380075Y-103646895D02*
X204303884Y-103646895D01*
X204303884Y-103646895D02*
X204189598Y-103608800D01*
X204189598Y-103608800D02*
X204113408Y-103532609D01*
X204113408Y-103532609D02*
X204075313Y-103456419D01*
X204075313Y-103456419D02*
X204037217Y-103304038D01*
X204037217Y-103304038D02*
X204037217Y-103189752D01*
X204037217Y-103189752D02*
X204075313Y-103037371D01*
X204075313Y-103037371D02*
X204113408Y-102961180D01*
X204113408Y-102961180D02*
X204189598Y-102884990D01*
X204189598Y-102884990D02*
X204303884Y-102846895D01*
X204303884Y-102846895D02*
X204380075Y-102846895D01*
X204380075Y-102846895D02*
X204494360Y-102884990D01*
X204494360Y-102884990D02*
X204532456Y-102923085D01*
X248074800Y-108243734D02*
X248122419Y-108100877D01*
X248122419Y-108100877D02*
X248122419Y-107862782D01*
X248122419Y-107862782D02*
X248074800Y-107767544D01*
X248074800Y-107767544D02*
X248027180Y-107719925D01*
X248027180Y-107719925D02*
X247931942Y-107672306D01*
X247931942Y-107672306D02*
X247836704Y-107672306D01*
X247836704Y-107672306D02*
X247741466Y-107719925D01*
X247741466Y-107719925D02*
X247693847Y-107767544D01*
X247693847Y-107767544D02*
X247646228Y-107862782D01*
X247646228Y-107862782D02*
X247598609Y-108053258D01*
X247598609Y-108053258D02*
X247550990Y-108148496D01*
X247550990Y-108148496D02*
X247503371Y-108196115D01*
X247503371Y-108196115D02*
X247408133Y-108243734D01*
X247408133Y-108243734D02*
X247312895Y-108243734D01*
X247312895Y-108243734D02*
X247217657Y-108196115D01*
X247217657Y-108196115D02*
X247170038Y-108148496D01*
X247170038Y-108148496D02*
X247122419Y-108053258D01*
X247122419Y-108053258D02*
X247122419Y-107815163D01*
X247122419Y-107815163D02*
X247170038Y-107672306D01*
X247122419Y-107386591D02*
X247122419Y-106815163D01*
X248122419Y-107100877D02*
X247122419Y-107100877D01*
X247741466Y-106481829D02*
X247741466Y-105719925D01*
X248122419Y-104767544D02*
X248122419Y-105243734D01*
X248122419Y-105243734D02*
X247122419Y-105243734D01*
X248122419Y-104434210D02*
X247122419Y-104434210D01*
X248122419Y-103958020D02*
X247122419Y-103958020D01*
X247122419Y-103958020D02*
X248122419Y-103386592D01*
X248122419Y-103386592D02*
X247122419Y-103386592D01*
X248122419Y-102910401D02*
X247122419Y-102910401D01*
X248122419Y-102338973D02*
X247550990Y-102767544D01*
X247122419Y-102338973D02*
X247693847Y-102910401D01*
X187696741Y-61707419D02*
X187649122Y-61683609D01*
X187649122Y-61683609D02*
X187577693Y-61683609D01*
X187577693Y-61683609D02*
X187506265Y-61707419D01*
X187506265Y-61707419D02*
X187458646Y-61755038D01*
X187458646Y-61755038D02*
X187434836Y-61802657D01*
X187434836Y-61802657D02*
X187411027Y-61897895D01*
X187411027Y-61897895D02*
X187411027Y-61969323D01*
X187411027Y-61969323D02*
X187434836Y-62064561D01*
X187434836Y-62064561D02*
X187458646Y-62112180D01*
X187458646Y-62112180D02*
X187506265Y-62159800D01*
X187506265Y-62159800D02*
X187577693Y-62183609D01*
X187577693Y-62183609D02*
X187625312Y-62183609D01*
X187625312Y-62183609D02*
X187696741Y-62159800D01*
X187696741Y-62159800D02*
X187720550Y-62135990D01*
X187720550Y-62135990D02*
X187720550Y-61969323D01*
X187720550Y-61969323D02*
X187625312Y-61969323D01*
X187934836Y-62183609D02*
X187934836Y-61683609D01*
X187934836Y-61683609D02*
X188220550Y-62183609D01*
X188220550Y-62183609D02*
X188220550Y-61683609D01*
X188458646Y-62183609D02*
X188458646Y-61683609D01*
X188458646Y-61683609D02*
X188577694Y-61683609D01*
X188577694Y-61683609D02*
X188649122Y-61707419D01*
X188649122Y-61707419D02*
X188696741Y-61755038D01*
X188696741Y-61755038D02*
X188720551Y-61802657D01*
X188720551Y-61802657D02*
X188744360Y-61897895D01*
X188744360Y-61897895D02*
X188744360Y-61969323D01*
X188744360Y-61969323D02*
X188720551Y-62064561D01*
X188720551Y-62064561D02*
X188696741Y-62112180D01*
X188696741Y-62112180D02*
X188649122Y-62159800D01*
X188649122Y-62159800D02*
X188577694Y-62183609D01*
X188577694Y-62183609D02*
X188458646Y-62183609D01*
X186137217Y-61683609D02*
X186470550Y-61683609D01*
X186470550Y-61683609D02*
X186256265Y-62183609D01*
X186589598Y-61683609D02*
X186756264Y-62183609D01*
X186756264Y-62183609D02*
X186922931Y-61683609D01*
D11*
X214820331Y-107121119D02*
X214820331Y-106121119D01*
X214820331Y-106597309D02*
X215391759Y-106597309D01*
X215391759Y-107121119D02*
X215391759Y-106121119D01*
X217106045Y-107121119D02*
X216629855Y-107121119D01*
X216629855Y-107121119D02*
X216629855Y-106121119D01*
D10*
X195463408Y-71396895D02*
X195196741Y-71015942D01*
X195006265Y-71396895D02*
X195006265Y-70596895D01*
X195006265Y-70596895D02*
X195311027Y-70596895D01*
X195311027Y-70596895D02*
X195387217Y-70634990D01*
X195387217Y-70634990D02*
X195425312Y-70673085D01*
X195425312Y-70673085D02*
X195463408Y-70749276D01*
X195463408Y-70749276D02*
X195463408Y-70863561D01*
X195463408Y-70863561D02*
X195425312Y-70939752D01*
X195425312Y-70939752D02*
X195387217Y-70977847D01*
X195387217Y-70977847D02*
X195311027Y-71015942D01*
X195311027Y-71015942D02*
X195006265Y-71015942D01*
X195615789Y-71473085D02*
X196225312Y-71473085D01*
X196834836Y-70634990D02*
X196758646Y-70596895D01*
X196758646Y-70596895D02*
X196644360Y-70596895D01*
X196644360Y-70596895D02*
X196530074Y-70634990D01*
X196530074Y-70634990D02*
X196453884Y-70711180D01*
X196453884Y-70711180D02*
X196415789Y-70787371D01*
X196415789Y-70787371D02*
X196377693Y-70939752D01*
X196377693Y-70939752D02*
X196377693Y-71054038D01*
X196377693Y-71054038D02*
X196415789Y-71206419D01*
X196415789Y-71206419D02*
X196453884Y-71282609D01*
X196453884Y-71282609D02*
X196530074Y-71358800D01*
X196530074Y-71358800D02*
X196644360Y-71396895D01*
X196644360Y-71396895D02*
X196720551Y-71396895D01*
X196720551Y-71396895D02*
X196834836Y-71358800D01*
X196834836Y-71358800D02*
X196872932Y-71320704D01*
X196872932Y-71320704D02*
X196872932Y-71054038D01*
X196872932Y-71054038D02*
X196720551Y-71054038D01*
X197215789Y-71396895D02*
X197215789Y-70596895D01*
X197215789Y-70977847D02*
X197672932Y-70977847D01*
X197672932Y-71396895D02*
X197672932Y-70596895D01*
X197863408Y-71473085D02*
X198472931Y-71473085D01*
X198625312Y-71168323D02*
X199006265Y-71168323D01*
X198549122Y-71396895D02*
X198815789Y-70596895D01*
X198815789Y-70596895D02*
X199082455Y-71396895D01*
X224963408Y-85146895D02*
X224696741Y-84765942D01*
X224506265Y-85146895D02*
X224506265Y-84346895D01*
X224506265Y-84346895D02*
X224811027Y-84346895D01*
X224811027Y-84346895D02*
X224887217Y-84384990D01*
X224887217Y-84384990D02*
X224925312Y-84423085D01*
X224925312Y-84423085D02*
X224963408Y-84499276D01*
X224963408Y-84499276D02*
X224963408Y-84613561D01*
X224963408Y-84613561D02*
X224925312Y-84689752D01*
X224925312Y-84689752D02*
X224887217Y-84727847D01*
X224887217Y-84727847D02*
X224811027Y-84765942D01*
X224811027Y-84765942D02*
X224506265Y-84765942D01*
X225115789Y-85223085D02*
X225725312Y-85223085D01*
X226334836Y-84384990D02*
X226258646Y-84346895D01*
X226258646Y-84346895D02*
X226144360Y-84346895D01*
X226144360Y-84346895D02*
X226030074Y-84384990D01*
X226030074Y-84384990D02*
X225953884Y-84461180D01*
X225953884Y-84461180D02*
X225915789Y-84537371D01*
X225915789Y-84537371D02*
X225877693Y-84689752D01*
X225877693Y-84689752D02*
X225877693Y-84804038D01*
X225877693Y-84804038D02*
X225915789Y-84956419D01*
X225915789Y-84956419D02*
X225953884Y-85032609D01*
X225953884Y-85032609D02*
X226030074Y-85108800D01*
X226030074Y-85108800D02*
X226144360Y-85146895D01*
X226144360Y-85146895D02*
X226220551Y-85146895D01*
X226220551Y-85146895D02*
X226334836Y-85108800D01*
X226334836Y-85108800D02*
X226372932Y-85070704D01*
X226372932Y-85070704D02*
X226372932Y-84804038D01*
X226372932Y-84804038D02*
X226220551Y-84804038D01*
X227096741Y-85146895D02*
X226715789Y-85146895D01*
X226715789Y-85146895D02*
X226715789Y-84346895D01*
X227172932Y-85223085D02*
X227782455Y-85223085D01*
X228239598Y-84727847D02*
X228353884Y-84765942D01*
X228353884Y-84765942D02*
X228391979Y-84804038D01*
X228391979Y-84804038D02*
X228430075Y-84880228D01*
X228430075Y-84880228D02*
X228430075Y-84994514D01*
X228430075Y-84994514D02*
X228391979Y-85070704D01*
X228391979Y-85070704D02*
X228353884Y-85108800D01*
X228353884Y-85108800D02*
X228277694Y-85146895D01*
X228277694Y-85146895D02*
X227972932Y-85146895D01*
X227972932Y-85146895D02*
X227972932Y-84346895D01*
X227972932Y-84346895D02*
X228239598Y-84346895D01*
X228239598Y-84346895D02*
X228315789Y-84384990D01*
X228315789Y-84384990D02*
X228353884Y-84423085D01*
X228353884Y-84423085D02*
X228391979Y-84499276D01*
X228391979Y-84499276D02*
X228391979Y-84575466D01*
X228391979Y-84575466D02*
X228353884Y-84651657D01*
X228353884Y-84651657D02*
X228315789Y-84689752D01*
X228315789Y-84689752D02*
X228239598Y-84727847D01*
X228239598Y-84727847D02*
X227972932Y-84727847D01*
X249183609Y-109862782D02*
X249183609Y-109553258D01*
X249183609Y-109553258D02*
X249374085Y-109719925D01*
X249374085Y-109719925D02*
X249374085Y-109648496D01*
X249374085Y-109648496D02*
X249397895Y-109600877D01*
X249397895Y-109600877D02*
X249421704Y-109577068D01*
X249421704Y-109577068D02*
X249469323Y-109553258D01*
X249469323Y-109553258D02*
X249588371Y-109553258D01*
X249588371Y-109553258D02*
X249635990Y-109577068D01*
X249635990Y-109577068D02*
X249659800Y-109600877D01*
X249659800Y-109600877D02*
X249683609Y-109648496D01*
X249683609Y-109648496D02*
X249683609Y-109791353D01*
X249683609Y-109791353D02*
X249659800Y-109838972D01*
X249659800Y-109838972D02*
X249635990Y-109862782D01*
X249183609Y-109410401D02*
X249683609Y-109243735D01*
X249683609Y-109243735D02*
X249183609Y-109077068D01*
X249183609Y-108958021D02*
X249183609Y-108648497D01*
X249183609Y-108648497D02*
X249374085Y-108815164D01*
X249374085Y-108815164D02*
X249374085Y-108743735D01*
X249374085Y-108743735D02*
X249397895Y-108696116D01*
X249397895Y-108696116D02*
X249421704Y-108672307D01*
X249421704Y-108672307D02*
X249469323Y-108648497D01*
X249469323Y-108648497D02*
X249588371Y-108648497D01*
X249588371Y-108648497D02*
X249635990Y-108672307D01*
X249635990Y-108672307D02*
X249659800Y-108696116D01*
X249659800Y-108696116D02*
X249683609Y-108743735D01*
X249683609Y-108743735D02*
X249683609Y-108886592D01*
X249683609Y-108886592D02*
X249659800Y-108934211D01*
X249659800Y-108934211D02*
X249635990Y-108958021D01*
X195411027Y-127372419D02*
X195744360Y-128372419D01*
X195744360Y-128372419D02*
X196077693Y-127372419D01*
X196411027Y-127848609D02*
X196744360Y-127848609D01*
X196887217Y-128372419D02*
X196411027Y-128372419D01*
X196411027Y-128372419D02*
X196411027Y-127372419D01*
X196411027Y-127372419D02*
X196887217Y-127372419D01*
X197268170Y-128324800D02*
X197411027Y-128372419D01*
X197411027Y-128372419D02*
X197649122Y-128372419D01*
X197649122Y-128372419D02*
X197744360Y-128324800D01*
X197744360Y-128324800D02*
X197791979Y-128277180D01*
X197791979Y-128277180D02*
X197839598Y-128181942D01*
X197839598Y-128181942D02*
X197839598Y-128086704D01*
X197839598Y-128086704D02*
X197791979Y-127991466D01*
X197791979Y-127991466D02*
X197744360Y-127943847D01*
X197744360Y-127943847D02*
X197649122Y-127896228D01*
X197649122Y-127896228D02*
X197458646Y-127848609D01*
X197458646Y-127848609D02*
X197363408Y-127800990D01*
X197363408Y-127800990D02*
X197315789Y-127753371D01*
X197315789Y-127753371D02*
X197268170Y-127658133D01*
X197268170Y-127658133D02*
X197268170Y-127562895D01*
X197268170Y-127562895D02*
X197315789Y-127467657D01*
X197315789Y-127467657D02*
X197363408Y-127420038D01*
X197363408Y-127420038D02*
X197458646Y-127372419D01*
X197458646Y-127372419D02*
X197696741Y-127372419D01*
X197696741Y-127372419D02*
X197839598Y-127420038D01*
X198839598Y-128277180D02*
X198791979Y-128324800D01*
X198791979Y-128324800D02*
X198649122Y-128372419D01*
X198649122Y-128372419D02*
X198553884Y-128372419D01*
X198553884Y-128372419D02*
X198411027Y-128324800D01*
X198411027Y-128324800D02*
X198315789Y-128229561D01*
X198315789Y-128229561D02*
X198268170Y-128134323D01*
X198268170Y-128134323D02*
X198220551Y-127943847D01*
X198220551Y-127943847D02*
X198220551Y-127800990D01*
X198220551Y-127800990D02*
X198268170Y-127610514D01*
X198268170Y-127610514D02*
X198315789Y-127515276D01*
X198315789Y-127515276D02*
X198411027Y-127420038D01*
X198411027Y-127420038D02*
X198553884Y-127372419D01*
X198553884Y-127372419D02*
X198649122Y-127372419D01*
X198649122Y-127372419D02*
X198791979Y-127420038D01*
X198791979Y-127420038D02*
X198839598Y-127467657D01*
X199030075Y-128467657D02*
X199791979Y-128467657D01*
X200030075Y-128372419D02*
X200030075Y-127372419D01*
X200506265Y-128372419D02*
X200506265Y-127372419D01*
X200506265Y-127372419D02*
X200744360Y-127372419D01*
X200744360Y-127372419D02*
X200887217Y-127420038D01*
X200887217Y-127420038D02*
X200982455Y-127515276D01*
X200982455Y-127515276D02*
X201030074Y-127610514D01*
X201030074Y-127610514D02*
X201077693Y-127800990D01*
X201077693Y-127800990D02*
X201077693Y-127943847D01*
X201077693Y-127943847D02*
X201030074Y-128134323D01*
X201030074Y-128134323D02*
X200982455Y-128229561D01*
X200982455Y-128229561D02*
X200887217Y-128324800D01*
X200887217Y-128324800D02*
X200744360Y-128372419D01*
X200744360Y-128372419D02*
X200506265Y-128372419D01*
D13*
X197814661Y-94947805D02*
X197786089Y-94976377D01*
X197786089Y-94976377D02*
X197700375Y-95004948D01*
X197700375Y-95004948D02*
X197643232Y-95004948D01*
X197643232Y-95004948D02*
X197557518Y-94976377D01*
X197557518Y-94976377D02*
X197500375Y-94919234D01*
X197500375Y-94919234D02*
X197471804Y-94862091D01*
X197471804Y-94862091D02*
X197443232Y-94747805D01*
X197443232Y-94747805D02*
X197443232Y-94662091D01*
X197443232Y-94662091D02*
X197471804Y-94547805D01*
X197471804Y-94547805D02*
X197500375Y-94490662D01*
X197500375Y-94490662D02*
X197557518Y-94433519D01*
X197557518Y-94433519D02*
X197643232Y-94404948D01*
X197643232Y-94404948D02*
X197700375Y-94404948D01*
X197700375Y-94404948D02*
X197786089Y-94433519D01*
X197786089Y-94433519D02*
X197814661Y-94462091D01*
X197928947Y-95062091D02*
X198386089Y-95062091D01*
X198728947Y-94690662D02*
X198814661Y-94719234D01*
X198814661Y-94719234D02*
X198843232Y-94747805D01*
X198843232Y-94747805D02*
X198871804Y-94804948D01*
X198871804Y-94804948D02*
X198871804Y-94890662D01*
X198871804Y-94890662D02*
X198843232Y-94947805D01*
X198843232Y-94947805D02*
X198814661Y-94976377D01*
X198814661Y-94976377D02*
X198757518Y-95004948D01*
X198757518Y-95004948D02*
X198528947Y-95004948D01*
X198528947Y-95004948D02*
X198528947Y-94404948D01*
X198528947Y-94404948D02*
X198728947Y-94404948D01*
X198728947Y-94404948D02*
X198786090Y-94433519D01*
X198786090Y-94433519D02*
X198814661Y-94462091D01*
X198814661Y-94462091D02*
X198843232Y-94519234D01*
X198843232Y-94519234D02*
X198843232Y-94576377D01*
X198843232Y-94576377D02*
X198814661Y-94633519D01*
X198814661Y-94633519D02*
X198786090Y-94662091D01*
X198786090Y-94662091D02*
X198728947Y-94690662D01*
X198728947Y-94690662D02*
X198528947Y-94690662D01*
X199100375Y-94976377D02*
X199186090Y-95004948D01*
X199186090Y-95004948D02*
X199328947Y-95004948D01*
X199328947Y-95004948D02*
X199386090Y-94976377D01*
X199386090Y-94976377D02*
X199414661Y-94947805D01*
X199414661Y-94947805D02*
X199443232Y-94890662D01*
X199443232Y-94890662D02*
X199443232Y-94833519D01*
X199443232Y-94833519D02*
X199414661Y-94776377D01*
X199414661Y-94776377D02*
X199386090Y-94747805D01*
X199386090Y-94747805D02*
X199328947Y-94719234D01*
X199328947Y-94719234D02*
X199214661Y-94690662D01*
X199214661Y-94690662D02*
X199157518Y-94662091D01*
X199157518Y-94662091D02*
X199128947Y-94633519D01*
X199128947Y-94633519D02*
X199100375Y-94576377D01*
X199100375Y-94576377D02*
X199100375Y-94519234D01*
X199100375Y-94519234D02*
X199128947Y-94462091D01*
X199128947Y-94462091D02*
X199157518Y-94433519D01*
X199157518Y-94433519D02*
X199214661Y-94404948D01*
X199214661Y-94404948D02*
X199357518Y-94404948D01*
X199357518Y-94404948D02*
X199443232Y-94433519D01*
X199614661Y-94404948D02*
X199957519Y-94404948D01*
X199786090Y-95004948D02*
X199786090Y-94404948D01*
D10*
X249659800Y-102588972D02*
X249683609Y-102517544D01*
X249683609Y-102517544D02*
X249683609Y-102398496D01*
X249683609Y-102398496D02*
X249659800Y-102350877D01*
X249659800Y-102350877D02*
X249635990Y-102327068D01*
X249635990Y-102327068D02*
X249588371Y-102303258D01*
X249588371Y-102303258D02*
X249540752Y-102303258D01*
X249540752Y-102303258D02*
X249493133Y-102327068D01*
X249493133Y-102327068D02*
X249469323Y-102350877D01*
X249469323Y-102350877D02*
X249445514Y-102398496D01*
X249445514Y-102398496D02*
X249421704Y-102493734D01*
X249421704Y-102493734D02*
X249397895Y-102541353D01*
X249397895Y-102541353D02*
X249374085Y-102565163D01*
X249374085Y-102565163D02*
X249326466Y-102588972D01*
X249326466Y-102588972D02*
X249278847Y-102588972D01*
X249278847Y-102588972D02*
X249231228Y-102565163D01*
X249231228Y-102565163D02*
X249207419Y-102541353D01*
X249207419Y-102541353D02*
X249183609Y-102493734D01*
X249183609Y-102493734D02*
X249183609Y-102374687D01*
X249183609Y-102374687D02*
X249207419Y-102303258D01*
X249183609Y-102136592D02*
X249683609Y-102017544D01*
X249683609Y-102017544D02*
X249326466Y-101922306D01*
X249326466Y-101922306D02*
X249683609Y-101827068D01*
X249683609Y-101827068D02*
X249183609Y-101708021D01*
X249683609Y-101517544D02*
X249183609Y-101517544D01*
X249183609Y-101517544D02*
X249183609Y-101398496D01*
X249183609Y-101398496D02*
X249207419Y-101327068D01*
X249207419Y-101327068D02*
X249255038Y-101279449D01*
X249255038Y-101279449D02*
X249302657Y-101255639D01*
X249302657Y-101255639D02*
X249397895Y-101231830D01*
X249397895Y-101231830D02*
X249469323Y-101231830D01*
X249469323Y-101231830D02*
X249564561Y-101255639D01*
X249564561Y-101255639D02*
X249612180Y-101279449D01*
X249612180Y-101279449D02*
X249659800Y-101327068D01*
X249659800Y-101327068D02*
X249683609Y-101398496D01*
X249683609Y-101398496D02*
X249683609Y-101517544D01*
X249683609Y-101017544D02*
X249183609Y-101017544D01*
X249183609Y-100684211D02*
X249183609Y-100588973D01*
X249183609Y-100588973D02*
X249207419Y-100541354D01*
X249207419Y-100541354D02*
X249255038Y-100493735D01*
X249255038Y-100493735D02*
X249350276Y-100469925D01*
X249350276Y-100469925D02*
X249516942Y-100469925D01*
X249516942Y-100469925D02*
X249612180Y-100493735D01*
X249612180Y-100493735D02*
X249659800Y-100541354D01*
X249659800Y-100541354D02*
X249683609Y-100588973D01*
X249683609Y-100588973D02*
X249683609Y-100684211D01*
X249683609Y-100684211D02*
X249659800Y-100731830D01*
X249659800Y-100731830D02*
X249612180Y-100779449D01*
X249612180Y-100779449D02*
X249516942Y-100803258D01*
X249516942Y-100803258D02*
X249350276Y-100803258D01*
X249350276Y-100803258D02*
X249255038Y-100779449D01*
X249255038Y-100779449D02*
X249207419Y-100731830D01*
X249207419Y-100731830D02*
X249183609Y-100684211D01*
D11*
X205022712Y-107395595D02*
X205022712Y-106595595D01*
X205022712Y-106976547D02*
X205479855Y-106976547D01*
X205479855Y-107395595D02*
X205479855Y-106595595D01*
D14*
X237728695Y-57945066D02*
X240776315Y-57945066D01*
X239252505Y-59468876D02*
X239252505Y-56421257D01*
D10*
X249659800Y-107838972D02*
X249683609Y-107767544D01*
X249683609Y-107767544D02*
X249683609Y-107648496D01*
X249683609Y-107648496D02*
X249659800Y-107600877D01*
X249659800Y-107600877D02*
X249635990Y-107577068D01*
X249635990Y-107577068D02*
X249588371Y-107553258D01*
X249588371Y-107553258D02*
X249540752Y-107553258D01*
X249540752Y-107553258D02*
X249493133Y-107577068D01*
X249493133Y-107577068D02*
X249469323Y-107600877D01*
X249469323Y-107600877D02*
X249445514Y-107648496D01*
X249445514Y-107648496D02*
X249421704Y-107743734D01*
X249421704Y-107743734D02*
X249397895Y-107791353D01*
X249397895Y-107791353D02*
X249374085Y-107815163D01*
X249374085Y-107815163D02*
X249326466Y-107838972D01*
X249326466Y-107838972D02*
X249278847Y-107838972D01*
X249278847Y-107838972D02*
X249231228Y-107815163D01*
X249231228Y-107815163D02*
X249207419Y-107791353D01*
X249207419Y-107791353D02*
X249183609Y-107743734D01*
X249183609Y-107743734D02*
X249183609Y-107624687D01*
X249183609Y-107624687D02*
X249207419Y-107553258D01*
X249183609Y-107386592D02*
X249683609Y-107267544D01*
X249683609Y-107267544D02*
X249326466Y-107172306D01*
X249326466Y-107172306D02*
X249683609Y-107077068D01*
X249683609Y-107077068D02*
X249183609Y-106958021D01*
X249635990Y-106481830D02*
X249659800Y-106505639D01*
X249659800Y-106505639D02*
X249683609Y-106577068D01*
X249683609Y-106577068D02*
X249683609Y-106624687D01*
X249683609Y-106624687D02*
X249659800Y-106696115D01*
X249659800Y-106696115D02*
X249612180Y-106743734D01*
X249612180Y-106743734D02*
X249564561Y-106767544D01*
X249564561Y-106767544D02*
X249469323Y-106791353D01*
X249469323Y-106791353D02*
X249397895Y-106791353D01*
X249397895Y-106791353D02*
X249302657Y-106767544D01*
X249302657Y-106767544D02*
X249255038Y-106743734D01*
X249255038Y-106743734D02*
X249207419Y-106696115D01*
X249207419Y-106696115D02*
X249183609Y-106624687D01*
X249183609Y-106624687D02*
X249183609Y-106577068D01*
X249183609Y-106577068D02*
X249207419Y-106505639D01*
X249207419Y-106505639D02*
X249231228Y-106481830D01*
X249683609Y-106029449D02*
X249683609Y-106267544D01*
X249683609Y-106267544D02*
X249183609Y-106267544D01*
X249683609Y-105862782D02*
X249183609Y-105862782D01*
X249683609Y-105577068D02*
X249397895Y-105791353D01*
X249183609Y-105577068D02*
X249469323Y-105862782D01*
X205463408Y-85146895D02*
X205196741Y-84765942D01*
X205006265Y-85146895D02*
X205006265Y-84346895D01*
X205006265Y-84346895D02*
X205311027Y-84346895D01*
X205311027Y-84346895D02*
X205387217Y-84384990D01*
X205387217Y-84384990D02*
X205425312Y-84423085D01*
X205425312Y-84423085D02*
X205463408Y-84499276D01*
X205463408Y-84499276D02*
X205463408Y-84613561D01*
X205463408Y-84613561D02*
X205425312Y-84689752D01*
X205425312Y-84689752D02*
X205387217Y-84727847D01*
X205387217Y-84727847D02*
X205311027Y-84765942D01*
X205311027Y-84765942D02*
X205006265Y-84765942D01*
X205615789Y-85223085D02*
X206225312Y-85223085D01*
X206834836Y-84384990D02*
X206758646Y-84346895D01*
X206758646Y-84346895D02*
X206644360Y-84346895D01*
X206644360Y-84346895D02*
X206530074Y-84384990D01*
X206530074Y-84384990D02*
X206453884Y-84461180D01*
X206453884Y-84461180D02*
X206415789Y-84537371D01*
X206415789Y-84537371D02*
X206377693Y-84689752D01*
X206377693Y-84689752D02*
X206377693Y-84804038D01*
X206377693Y-84804038D02*
X206415789Y-84956419D01*
X206415789Y-84956419D02*
X206453884Y-85032609D01*
X206453884Y-85032609D02*
X206530074Y-85108800D01*
X206530074Y-85108800D02*
X206644360Y-85146895D01*
X206644360Y-85146895D02*
X206720551Y-85146895D01*
X206720551Y-85146895D02*
X206834836Y-85108800D01*
X206834836Y-85108800D02*
X206872932Y-85070704D01*
X206872932Y-85070704D02*
X206872932Y-84804038D01*
X206872932Y-84804038D02*
X206720551Y-84804038D01*
X207596741Y-85146895D02*
X207215789Y-85146895D01*
X207215789Y-85146895D02*
X207215789Y-84346895D01*
X207672932Y-85223085D02*
X208282455Y-85223085D01*
X208434836Y-84918323D02*
X208815789Y-84918323D01*
X208358646Y-85146895D02*
X208625313Y-84346895D01*
X208625313Y-84346895D02*
X208891979Y-85146895D01*
D12*
X257643482Y-56914838D02*
X257548244Y-56867219D01*
X257548244Y-56867219D02*
X257405387Y-56867219D01*
X257405387Y-56867219D02*
X257262530Y-56914838D01*
X257262530Y-56914838D02*
X257167292Y-57010076D01*
X257167292Y-57010076D02*
X257119673Y-57105314D01*
X257119673Y-57105314D02*
X257072054Y-57295790D01*
X257072054Y-57295790D02*
X257072054Y-57438647D01*
X257072054Y-57438647D02*
X257119673Y-57629123D01*
X257119673Y-57629123D02*
X257167292Y-57724361D01*
X257167292Y-57724361D02*
X257262530Y-57819600D01*
X257262530Y-57819600D02*
X257405387Y-57867219D01*
X257405387Y-57867219D02*
X257500625Y-57867219D01*
X257500625Y-57867219D02*
X257643482Y-57819600D01*
X257643482Y-57819600D02*
X257691101Y-57771980D01*
X257691101Y-57771980D02*
X257691101Y-57438647D01*
X257691101Y-57438647D02*
X257500625Y-57438647D01*
X258119673Y-57867219D02*
X258119673Y-56867219D01*
X258119673Y-56867219D02*
X258691101Y-57867219D01*
X258691101Y-57867219D02*
X258691101Y-56867219D01*
X259167292Y-57867219D02*
X259167292Y-56867219D01*
X259167292Y-56867219D02*
X259405387Y-56867219D01*
X259405387Y-56867219D02*
X259548244Y-56914838D01*
X259548244Y-56914838D02*
X259643482Y-57010076D01*
X259643482Y-57010076D02*
X259691101Y-57105314D01*
X259691101Y-57105314D02*
X259738720Y-57295790D01*
X259738720Y-57295790D02*
X259738720Y-57438647D01*
X259738720Y-57438647D02*
X259691101Y-57629123D01*
X259691101Y-57629123D02*
X259643482Y-57724361D01*
X259643482Y-57724361D02*
X259548244Y-57819600D01*
X259548244Y-57819600D02*
X259405387Y-57867219D01*
X259405387Y-57867219D02*
X259167292Y-57867219D01*
D14*
X204978695Y-58195066D02*
X208026315Y-58195066D01*
D10*
X249457419Y-104553258D02*
X249433609Y-104600877D01*
X249433609Y-104600877D02*
X249433609Y-104672306D01*
X249433609Y-104672306D02*
X249457419Y-104743734D01*
X249457419Y-104743734D02*
X249505038Y-104791353D01*
X249505038Y-104791353D02*
X249552657Y-104815163D01*
X249552657Y-104815163D02*
X249647895Y-104838972D01*
X249647895Y-104838972D02*
X249719323Y-104838972D01*
X249719323Y-104838972D02*
X249814561Y-104815163D01*
X249814561Y-104815163D02*
X249862180Y-104791353D01*
X249862180Y-104791353D02*
X249909800Y-104743734D01*
X249909800Y-104743734D02*
X249933609Y-104672306D01*
X249933609Y-104672306D02*
X249933609Y-104624687D01*
X249933609Y-104624687D02*
X249909800Y-104553258D01*
X249909800Y-104553258D02*
X249885990Y-104529449D01*
X249885990Y-104529449D02*
X249719323Y-104529449D01*
X249719323Y-104529449D02*
X249719323Y-104624687D01*
X249933609Y-104315163D02*
X249433609Y-104315163D01*
X249433609Y-104315163D02*
X249933609Y-104029449D01*
X249933609Y-104029449D02*
X249433609Y-104029449D01*
X249933609Y-103791353D02*
X249433609Y-103791353D01*
X249433609Y-103791353D02*
X249433609Y-103672305D01*
X249433609Y-103672305D02*
X249457419Y-103600877D01*
X249457419Y-103600877D02*
X249505038Y-103553258D01*
X249505038Y-103553258D02*
X249552657Y-103529448D01*
X249552657Y-103529448D02*
X249647895Y-103505639D01*
X249647895Y-103505639D02*
X249719323Y-103505639D01*
X249719323Y-103505639D02*
X249814561Y-103529448D01*
X249814561Y-103529448D02*
X249862180Y-103553258D01*
X249862180Y-103553258D02*
X249909800Y-103600877D01*
X249909800Y-103600877D02*
X249933609Y-103672305D01*
X249933609Y-103672305D02*
X249933609Y-103791353D01*
D15*
X250054510Y-57265114D02*
X250268796Y-57336542D01*
X250268796Y-57336542D02*
X250340225Y-57407971D01*
X250340225Y-57407971D02*
X250411653Y-57550828D01*
X250411653Y-57550828D02*
X250411653Y-57765114D01*
X250411653Y-57765114D02*
X250340225Y-57907971D01*
X250340225Y-57907971D02*
X250268796Y-57979400D01*
X250268796Y-57979400D02*
X250125939Y-58050828D01*
X250125939Y-58050828D02*
X249554510Y-58050828D01*
X249554510Y-58050828D02*
X249554510Y-56550828D01*
X249554510Y-56550828D02*
X250054510Y-56550828D01*
X250054510Y-56550828D02*
X250197368Y-56622257D01*
X250197368Y-56622257D02*
X250268796Y-56693685D01*
X250268796Y-56693685D02*
X250340225Y-56836542D01*
X250340225Y-56836542D02*
X250340225Y-56979400D01*
X250340225Y-56979400D02*
X250268796Y-57122257D01*
X250268796Y-57122257D02*
X250197368Y-57193685D01*
X250197368Y-57193685D02*
X250054510Y-57265114D01*
X250054510Y-57265114D02*
X249554510Y-57265114D01*
X253054510Y-58050828D02*
X252554510Y-57336542D01*
X252197367Y-58050828D02*
X252197367Y-56550828D01*
X252197367Y-56550828D02*
X252768796Y-56550828D01*
X252768796Y-56550828D02*
X252911653Y-56622257D01*
X252911653Y-56622257D02*
X252983082Y-56693685D01*
X252983082Y-56693685D02*
X253054510Y-56836542D01*
X253054510Y-56836542D02*
X253054510Y-57050828D01*
X253054510Y-57050828D02*
X252983082Y-57193685D01*
X252983082Y-57193685D02*
X252911653Y-57265114D01*
X252911653Y-57265114D02*
X252768796Y-57336542D01*
X252768796Y-57336542D02*
X252197367Y-57336542D01*
X255625939Y-56622257D02*
X255483082Y-56550828D01*
X255483082Y-56550828D02*
X255268796Y-56550828D01*
X255268796Y-56550828D02*
X255054510Y-56622257D01*
X255054510Y-56622257D02*
X254911653Y-56765114D01*
X254911653Y-56765114D02*
X254840224Y-56907971D01*
X254840224Y-56907971D02*
X254768796Y-57193685D01*
X254768796Y-57193685D02*
X254768796Y-57407971D01*
X254768796Y-57407971D02*
X254840224Y-57693685D01*
X254840224Y-57693685D02*
X254911653Y-57836542D01*
X254911653Y-57836542D02*
X255054510Y-57979400D01*
X255054510Y-57979400D02*
X255268796Y-58050828D01*
X255268796Y-58050828D02*
X255411653Y-58050828D01*
X255411653Y-58050828D02*
X255625939Y-57979400D01*
X255625939Y-57979400D02*
X255697367Y-57907971D01*
X255697367Y-57907971D02*
X255697367Y-57407971D01*
X255697367Y-57407971D02*
X255411653Y-57407971D01*
D16*
X239209523Y-117812295D02*
X239399999Y-118612295D01*
X239399999Y-118612295D02*
X239552380Y-118040866D01*
X239552380Y-118040866D02*
X239704761Y-118612295D01*
X239704761Y-118612295D02*
X239895238Y-117812295D01*
X240542857Y-118612295D02*
X240542857Y-118193247D01*
X240542857Y-118193247D02*
X240504762Y-118117057D01*
X240504762Y-118117057D02*
X240428571Y-118078961D01*
X240428571Y-118078961D02*
X240276190Y-118078961D01*
X240276190Y-118078961D02*
X240200000Y-118117057D01*
X240542857Y-118574200D02*
X240466666Y-118612295D01*
X240466666Y-118612295D02*
X240276190Y-118612295D01*
X240276190Y-118612295D02*
X240200000Y-118574200D01*
X240200000Y-118574200D02*
X240161904Y-118498009D01*
X240161904Y-118498009D02*
X240161904Y-118421819D01*
X240161904Y-118421819D02*
X240200000Y-118345628D01*
X240200000Y-118345628D02*
X240276190Y-118307533D01*
X240276190Y-118307533D02*
X240466666Y-118307533D01*
X240466666Y-118307533D02*
X240542857Y-118269438D01*
X240809524Y-118078961D02*
X241114286Y-118078961D01*
X240923810Y-117812295D02*
X240923810Y-118498009D01*
X240923810Y-118498009D02*
X240961905Y-118574200D01*
X240961905Y-118574200D02*
X241038095Y-118612295D01*
X241038095Y-118612295D02*
X241114286Y-118612295D01*
X241685715Y-118574200D02*
X241609524Y-118612295D01*
X241609524Y-118612295D02*
X241457143Y-118612295D01*
X241457143Y-118612295D02*
X241380953Y-118574200D01*
X241380953Y-118574200D02*
X241342857Y-118498009D01*
X241342857Y-118498009D02*
X241342857Y-118193247D01*
X241342857Y-118193247D02*
X241380953Y-118117057D01*
X241380953Y-118117057D02*
X241457143Y-118078961D01*
X241457143Y-118078961D02*
X241609524Y-118078961D01*
X241609524Y-118078961D02*
X241685715Y-118117057D01*
X241685715Y-118117057D02*
X241723810Y-118193247D01*
X241723810Y-118193247D02*
X241723810Y-118269438D01*
X241723810Y-118269438D02*
X241342857Y-118345628D01*
X242066667Y-118612295D02*
X242066667Y-118078961D01*
X242066667Y-118231342D02*
X242104762Y-118155152D01*
X242104762Y-118155152D02*
X242142857Y-118117057D01*
X242142857Y-118117057D02*
X242219048Y-118078961D01*
X242219048Y-118078961D02*
X242295238Y-118078961D01*
X243133333Y-118574200D02*
X243209524Y-118612295D01*
X243209524Y-118612295D02*
X243361905Y-118612295D01*
X243361905Y-118612295D02*
X243438095Y-118574200D01*
X243438095Y-118574200D02*
X243476191Y-118498009D01*
X243476191Y-118498009D02*
X243476191Y-118459914D01*
X243476191Y-118459914D02*
X243438095Y-118383723D01*
X243438095Y-118383723D02*
X243361905Y-118345628D01*
X243361905Y-118345628D02*
X243247619Y-118345628D01*
X243247619Y-118345628D02*
X243171429Y-118307533D01*
X243171429Y-118307533D02*
X243133333Y-118231342D01*
X243133333Y-118231342D02*
X243133333Y-118193247D01*
X243133333Y-118193247D02*
X243171429Y-118117057D01*
X243171429Y-118117057D02*
X243247619Y-118078961D01*
X243247619Y-118078961D02*
X243361905Y-118078961D01*
X243361905Y-118078961D02*
X243438095Y-118117057D01*
X244123810Y-118574200D02*
X244047619Y-118612295D01*
X244047619Y-118612295D02*
X243895238Y-118612295D01*
X243895238Y-118612295D02*
X243819048Y-118574200D01*
X243819048Y-118574200D02*
X243780952Y-118498009D01*
X243780952Y-118498009D02*
X243780952Y-118193247D01*
X243780952Y-118193247D02*
X243819048Y-118117057D01*
X243819048Y-118117057D02*
X243895238Y-118078961D01*
X243895238Y-118078961D02*
X244047619Y-118078961D01*
X244047619Y-118078961D02*
X244123810Y-118117057D01*
X244123810Y-118117057D02*
X244161905Y-118193247D01*
X244161905Y-118193247D02*
X244161905Y-118269438D01*
X244161905Y-118269438D02*
X243780952Y-118345628D01*
X244504762Y-118078961D02*
X244504762Y-118612295D01*
X244504762Y-118155152D02*
X244542857Y-118117057D01*
X244542857Y-118117057D02*
X244619047Y-118078961D01*
X244619047Y-118078961D02*
X244733333Y-118078961D01*
X244733333Y-118078961D02*
X244809524Y-118117057D01*
X244809524Y-118117057D02*
X244847619Y-118193247D01*
X244847619Y-118193247D02*
X244847619Y-118612295D01*
X245190476Y-118574200D02*
X245266667Y-118612295D01*
X245266667Y-118612295D02*
X245419048Y-118612295D01*
X245419048Y-118612295D02*
X245495238Y-118574200D01*
X245495238Y-118574200D02*
X245533334Y-118498009D01*
X245533334Y-118498009D02*
X245533334Y-118459914D01*
X245533334Y-118459914D02*
X245495238Y-118383723D01*
X245495238Y-118383723D02*
X245419048Y-118345628D01*
X245419048Y-118345628D02*
X245304762Y-118345628D01*
X245304762Y-118345628D02*
X245228572Y-118307533D01*
X245228572Y-118307533D02*
X245190476Y-118231342D01*
X245190476Y-118231342D02*
X245190476Y-118193247D01*
X245190476Y-118193247D02*
X245228572Y-118117057D01*
X245228572Y-118117057D02*
X245304762Y-118078961D01*
X245304762Y-118078961D02*
X245419048Y-118078961D01*
X245419048Y-118078961D02*
X245495238Y-118117057D01*
X245990476Y-118612295D02*
X245914286Y-118574200D01*
X245914286Y-118574200D02*
X245876191Y-118536104D01*
X245876191Y-118536104D02*
X245838095Y-118459914D01*
X245838095Y-118459914D02*
X245838095Y-118231342D01*
X245838095Y-118231342D02*
X245876191Y-118155152D01*
X245876191Y-118155152D02*
X245914286Y-118117057D01*
X245914286Y-118117057D02*
X245990476Y-118078961D01*
X245990476Y-118078961D02*
X246104762Y-118078961D01*
X246104762Y-118078961D02*
X246180953Y-118117057D01*
X246180953Y-118117057D02*
X246219048Y-118155152D01*
X246219048Y-118155152D02*
X246257143Y-118231342D01*
X246257143Y-118231342D02*
X246257143Y-118459914D01*
X246257143Y-118459914D02*
X246219048Y-118536104D01*
X246219048Y-118536104D02*
X246180953Y-118574200D01*
X246180953Y-118574200D02*
X246104762Y-118612295D01*
X246104762Y-118612295D02*
X245990476Y-118612295D01*
X246600001Y-118612295D02*
X246600001Y-118078961D01*
X246600001Y-118231342D02*
X246638096Y-118155152D01*
X246638096Y-118155152D02*
X246676191Y-118117057D01*
X246676191Y-118117057D02*
X246752382Y-118078961D01*
X246752382Y-118078961D02*
X246828572Y-118078961D01*
D10*
X221863408Y-92683609D02*
X222030074Y-93183609D01*
X222030074Y-93183609D02*
X222196741Y-92683609D01*
X222434836Y-93183609D02*
X222387217Y-93159800D01*
X222387217Y-93159800D02*
X222363407Y-93135990D01*
X222363407Y-93135990D02*
X222339598Y-93088371D01*
X222339598Y-93088371D02*
X222339598Y-92945514D01*
X222339598Y-92945514D02*
X222363407Y-92897895D01*
X222363407Y-92897895D02*
X222387217Y-92874085D01*
X222387217Y-92874085D02*
X222434836Y-92850276D01*
X222434836Y-92850276D02*
X222506264Y-92850276D01*
X222506264Y-92850276D02*
X222553883Y-92874085D01*
X222553883Y-92874085D02*
X222577693Y-92897895D01*
X222577693Y-92897895D02*
X222601502Y-92945514D01*
X222601502Y-92945514D02*
X222601502Y-93088371D01*
X222601502Y-93088371D02*
X222577693Y-93135990D01*
X222577693Y-93135990D02*
X222553883Y-93159800D01*
X222553883Y-93159800D02*
X222506264Y-93183609D01*
X222506264Y-93183609D02*
X222434836Y-93183609D01*
X222887217Y-93183609D02*
X222839598Y-93159800D01*
X222839598Y-93159800D02*
X222815788Y-93112180D01*
X222815788Y-93112180D02*
X222815788Y-92683609D01*
X223006265Y-92850276D02*
X223196741Y-92850276D01*
X223077693Y-92683609D02*
X223077693Y-93112180D01*
X223077693Y-93112180D02*
X223101503Y-93159800D01*
X223101503Y-93159800D02*
X223149122Y-93183609D01*
X223149122Y-93183609D02*
X223196741Y-93183609D01*
X223577693Y-93183609D02*
X223577693Y-92921704D01*
X223577693Y-92921704D02*
X223553883Y-92874085D01*
X223553883Y-92874085D02*
X223506264Y-92850276D01*
X223506264Y-92850276D02*
X223411026Y-92850276D01*
X223411026Y-92850276D02*
X223363407Y-92874085D01*
X223577693Y-93159800D02*
X223530074Y-93183609D01*
X223530074Y-93183609D02*
X223411026Y-93183609D01*
X223411026Y-93183609D02*
X223363407Y-93159800D01*
X223363407Y-93159800D02*
X223339598Y-93112180D01*
X223339598Y-93112180D02*
X223339598Y-93064561D01*
X223339598Y-93064561D02*
X223363407Y-93016942D01*
X223363407Y-93016942D02*
X223411026Y-92993133D01*
X223411026Y-92993133D02*
X223530074Y-92993133D01*
X223530074Y-92993133D02*
X223577693Y-92969323D01*
X224030074Y-92850276D02*
X224030074Y-93255038D01*
X224030074Y-93255038D02*
X224006264Y-93302657D01*
X224006264Y-93302657D02*
X223982455Y-93326466D01*
X223982455Y-93326466D02*
X223934836Y-93350276D01*
X223934836Y-93350276D02*
X223863407Y-93350276D01*
X223863407Y-93350276D02*
X223815788Y-93326466D01*
X224030074Y-93159800D02*
X223982455Y-93183609D01*
X223982455Y-93183609D02*
X223887217Y-93183609D01*
X223887217Y-93183609D02*
X223839598Y-93159800D01*
X223839598Y-93159800D02*
X223815788Y-93135990D01*
X223815788Y-93135990D02*
X223791979Y-93088371D01*
X223791979Y-93088371D02*
X223791979Y-92945514D01*
X223791979Y-92945514D02*
X223815788Y-92897895D01*
X223815788Y-92897895D02*
X223839598Y-92874085D01*
X223839598Y-92874085D02*
X223887217Y-92850276D01*
X223887217Y-92850276D02*
X223982455Y-92850276D01*
X223982455Y-92850276D02*
X224030074Y-92874085D01*
X224458645Y-93159800D02*
X224411026Y-93183609D01*
X224411026Y-93183609D02*
X224315788Y-93183609D01*
X224315788Y-93183609D02*
X224268169Y-93159800D01*
X224268169Y-93159800D02*
X224244360Y-93112180D01*
X224244360Y-93112180D02*
X224244360Y-92921704D01*
X224244360Y-92921704D02*
X224268169Y-92874085D01*
X224268169Y-92874085D02*
X224315788Y-92850276D01*
X224315788Y-92850276D02*
X224411026Y-92850276D01*
X224411026Y-92850276D02*
X224458645Y-92874085D01*
X224458645Y-92874085D02*
X224482455Y-92921704D01*
X224482455Y-92921704D02*
X224482455Y-92969323D01*
X224482455Y-92969323D02*
X224244360Y-93016942D01*
X224577693Y-93231228D02*
X224958645Y-93231228D01*
X225077692Y-93183609D02*
X225077692Y-92683609D01*
X225315787Y-93183609D02*
X225315787Y-92683609D01*
X225315787Y-92683609D02*
X225601501Y-93183609D01*
X225601501Y-93183609D02*
X225601501Y-92683609D01*
X214213408Y-71396895D02*
X213946741Y-71015942D01*
X213756265Y-71396895D02*
X213756265Y-70596895D01*
X213756265Y-70596895D02*
X214061027Y-70596895D01*
X214061027Y-70596895D02*
X214137217Y-70634990D01*
X214137217Y-70634990D02*
X214175312Y-70673085D01*
X214175312Y-70673085D02*
X214213408Y-70749276D01*
X214213408Y-70749276D02*
X214213408Y-70863561D01*
X214213408Y-70863561D02*
X214175312Y-70939752D01*
X214175312Y-70939752D02*
X214137217Y-70977847D01*
X214137217Y-70977847D02*
X214061027Y-71015942D01*
X214061027Y-71015942D02*
X213756265Y-71015942D01*
X214365789Y-71473085D02*
X214975312Y-71473085D01*
X215584836Y-70634990D02*
X215508646Y-70596895D01*
X215508646Y-70596895D02*
X215394360Y-70596895D01*
X215394360Y-70596895D02*
X215280074Y-70634990D01*
X215280074Y-70634990D02*
X215203884Y-70711180D01*
X215203884Y-70711180D02*
X215165789Y-70787371D01*
X215165789Y-70787371D02*
X215127693Y-70939752D01*
X215127693Y-70939752D02*
X215127693Y-71054038D01*
X215127693Y-71054038D02*
X215165789Y-71206419D01*
X215165789Y-71206419D02*
X215203884Y-71282609D01*
X215203884Y-71282609D02*
X215280074Y-71358800D01*
X215280074Y-71358800D02*
X215394360Y-71396895D01*
X215394360Y-71396895D02*
X215470551Y-71396895D01*
X215470551Y-71396895D02*
X215584836Y-71358800D01*
X215584836Y-71358800D02*
X215622932Y-71320704D01*
X215622932Y-71320704D02*
X215622932Y-71054038D01*
X215622932Y-71054038D02*
X215470551Y-71054038D01*
X215965789Y-71396895D02*
X215965789Y-70596895D01*
X215965789Y-70977847D02*
X216422932Y-70977847D01*
X216422932Y-71396895D02*
X216422932Y-70596895D01*
X216613408Y-71473085D02*
X217222931Y-71473085D01*
X217680074Y-70977847D02*
X217794360Y-71015942D01*
X217794360Y-71015942D02*
X217832455Y-71054038D01*
X217832455Y-71054038D02*
X217870551Y-71130228D01*
X217870551Y-71130228D02*
X217870551Y-71244514D01*
X217870551Y-71244514D02*
X217832455Y-71320704D01*
X217832455Y-71320704D02*
X217794360Y-71358800D01*
X217794360Y-71358800D02*
X217718170Y-71396895D01*
X217718170Y-71396895D02*
X217413408Y-71396895D01*
X217413408Y-71396895D02*
X217413408Y-70596895D01*
X217413408Y-70596895D02*
X217680074Y-70596895D01*
X217680074Y-70596895D02*
X217756265Y-70634990D01*
X217756265Y-70634990D02*
X217794360Y-70673085D01*
X217794360Y-70673085D02*
X217832455Y-70749276D01*
X217832455Y-70749276D02*
X217832455Y-70825466D01*
X217832455Y-70825466D02*
X217794360Y-70901657D01*
X217794360Y-70901657D02*
X217756265Y-70939752D01*
X217756265Y-70939752D02*
X217680074Y-70977847D01*
X217680074Y-70977847D02*
X217413408Y-70977847D01*
D13*
X239314661Y-116113188D02*
X239286089Y-116141760D01*
X239286089Y-116141760D02*
X239200375Y-116170331D01*
X239200375Y-116170331D02*
X239143232Y-116170331D01*
X239143232Y-116170331D02*
X239057518Y-116141760D01*
X239057518Y-116141760D02*
X239000375Y-116084617D01*
X239000375Y-116084617D02*
X238971804Y-116027474D01*
X238971804Y-116027474D02*
X238943232Y-115913188D01*
X238943232Y-115913188D02*
X238943232Y-115827474D01*
X238943232Y-115827474D02*
X238971804Y-115713188D01*
X238971804Y-115713188D02*
X239000375Y-115656045D01*
X239000375Y-115656045D02*
X239057518Y-115598902D01*
X239057518Y-115598902D02*
X239143232Y-115570331D01*
X239143232Y-115570331D02*
X239200375Y-115570331D01*
X239200375Y-115570331D02*
X239286089Y-115598902D01*
X239286089Y-115598902D02*
X239314661Y-115627474D01*
X239543232Y-115998902D02*
X239828947Y-115998902D01*
X239486089Y-116170331D02*
X239686089Y-115570331D01*
X239686089Y-115570331D02*
X239886089Y-116170331D01*
X240086090Y-116170331D02*
X240086090Y-115570331D01*
X240086090Y-115570331D02*
X240428947Y-116170331D01*
X240428947Y-116170331D02*
X240428947Y-115570331D01*
X241514661Y-116170331D02*
X241314661Y-115884617D01*
X241171804Y-116170331D02*
X241171804Y-115570331D01*
X241171804Y-115570331D02*
X241400375Y-115570331D01*
X241400375Y-115570331D02*
X241457518Y-115598902D01*
X241457518Y-115598902D02*
X241486089Y-115627474D01*
X241486089Y-115627474D02*
X241514661Y-115684617D01*
X241514661Y-115684617D02*
X241514661Y-115770331D01*
X241514661Y-115770331D02*
X241486089Y-115827474D01*
X241486089Y-115827474D02*
X241457518Y-115856045D01*
X241457518Y-115856045D02*
X241400375Y-115884617D01*
X241400375Y-115884617D02*
X241171804Y-115884617D01*
D10*
X244213408Y-85396895D02*
X243946741Y-85015942D01*
X243756265Y-85396895D02*
X243756265Y-84596895D01*
X243756265Y-84596895D02*
X244061027Y-84596895D01*
X244061027Y-84596895D02*
X244137217Y-84634990D01*
X244137217Y-84634990D02*
X244175312Y-84673085D01*
X244175312Y-84673085D02*
X244213408Y-84749276D01*
X244213408Y-84749276D02*
X244213408Y-84863561D01*
X244213408Y-84863561D02*
X244175312Y-84939752D01*
X244175312Y-84939752D02*
X244137217Y-84977847D01*
X244137217Y-84977847D02*
X244061027Y-85015942D01*
X244061027Y-85015942D02*
X243756265Y-85015942D01*
X244365789Y-85473085D02*
X244975312Y-85473085D01*
X245584836Y-84634990D02*
X245508646Y-84596895D01*
X245508646Y-84596895D02*
X245394360Y-84596895D01*
X245394360Y-84596895D02*
X245280074Y-84634990D01*
X245280074Y-84634990D02*
X245203884Y-84711180D01*
X245203884Y-84711180D02*
X245165789Y-84787371D01*
X245165789Y-84787371D02*
X245127693Y-84939752D01*
X245127693Y-84939752D02*
X245127693Y-85054038D01*
X245127693Y-85054038D02*
X245165789Y-85206419D01*
X245165789Y-85206419D02*
X245203884Y-85282609D01*
X245203884Y-85282609D02*
X245280074Y-85358800D01*
X245280074Y-85358800D02*
X245394360Y-85396895D01*
X245394360Y-85396895D02*
X245470551Y-85396895D01*
X245470551Y-85396895D02*
X245584836Y-85358800D01*
X245584836Y-85358800D02*
X245622932Y-85320704D01*
X245622932Y-85320704D02*
X245622932Y-85054038D01*
X245622932Y-85054038D02*
X245470551Y-85054038D01*
X246346741Y-85396895D02*
X245965789Y-85396895D01*
X245965789Y-85396895D02*
X245965789Y-84596895D01*
X246422932Y-85473085D02*
X247032455Y-85473085D01*
X247680075Y-85320704D02*
X247641979Y-85358800D01*
X247641979Y-85358800D02*
X247527694Y-85396895D01*
X247527694Y-85396895D02*
X247451503Y-85396895D01*
X247451503Y-85396895D02*
X247337217Y-85358800D01*
X247337217Y-85358800D02*
X247261027Y-85282609D01*
X247261027Y-85282609D02*
X247222932Y-85206419D01*
X247222932Y-85206419D02*
X247184836Y-85054038D01*
X247184836Y-85054038D02*
X247184836Y-84939752D01*
X247184836Y-84939752D02*
X247222932Y-84787371D01*
X247222932Y-84787371D02*
X247261027Y-84711180D01*
X247261027Y-84711180D02*
X247337217Y-84634990D01*
X247337217Y-84634990D02*
X247451503Y-84596895D01*
X247451503Y-84596895D02*
X247527694Y-84596895D01*
X247527694Y-84596895D02*
X247641979Y-84634990D01*
X247641979Y-84634990D02*
X247680075Y-84673085D01*
X249683609Y-99815163D02*
X249183609Y-99815163D01*
X249183609Y-99815163D02*
X249683609Y-99529449D01*
X249683609Y-99529449D02*
X249183609Y-99529449D01*
X249683609Y-99005639D02*
X249445514Y-99172305D01*
X249683609Y-99291353D02*
X249183609Y-99291353D01*
X249183609Y-99291353D02*
X249183609Y-99100877D01*
X249183609Y-99100877D02*
X249207419Y-99053258D01*
X249207419Y-99053258D02*
X249231228Y-99029448D01*
X249231228Y-99029448D02*
X249278847Y-99005639D01*
X249278847Y-99005639D02*
X249350276Y-99005639D01*
X249350276Y-99005639D02*
X249397895Y-99029448D01*
X249397895Y-99029448D02*
X249421704Y-99053258D01*
X249421704Y-99053258D02*
X249445514Y-99100877D01*
X249445514Y-99100877D02*
X249445514Y-99291353D01*
X249659800Y-98815162D02*
X249683609Y-98743734D01*
X249683609Y-98743734D02*
X249683609Y-98624686D01*
X249683609Y-98624686D02*
X249659800Y-98577067D01*
X249659800Y-98577067D02*
X249635990Y-98553258D01*
X249635990Y-98553258D02*
X249588371Y-98529448D01*
X249588371Y-98529448D02*
X249540752Y-98529448D01*
X249540752Y-98529448D02*
X249493133Y-98553258D01*
X249493133Y-98553258D02*
X249469323Y-98577067D01*
X249469323Y-98577067D02*
X249445514Y-98624686D01*
X249445514Y-98624686D02*
X249421704Y-98719924D01*
X249421704Y-98719924D02*
X249397895Y-98767543D01*
X249397895Y-98767543D02*
X249374085Y-98791353D01*
X249374085Y-98791353D02*
X249326466Y-98815162D01*
X249326466Y-98815162D02*
X249278847Y-98815162D01*
X249278847Y-98815162D02*
X249231228Y-98791353D01*
X249231228Y-98791353D02*
X249207419Y-98767543D01*
X249207419Y-98767543D02*
X249183609Y-98719924D01*
X249183609Y-98719924D02*
X249183609Y-98600877D01*
X249183609Y-98600877D02*
X249207419Y-98529448D01*
X249183609Y-98386591D02*
X249183609Y-98100877D01*
X249683609Y-98243734D02*
X249183609Y-98243734D01*
D12*
G36*
X254041844Y-55478430D02*
G01*
X254061296Y-55497882D01*
X254091101Y-55557492D01*
X254091101Y-55653135D01*
X254061296Y-55712743D01*
X254036627Y-55737413D01*
X253977018Y-55767219D01*
X253719673Y-55767219D01*
X253719673Y-55443409D01*
X253936779Y-55443409D01*
X254041844Y-55478430D01*
G37*
G36*
X253989008Y-54997024D02*
G01*
X254013677Y-55021692D01*
X254043482Y-55081302D01*
X254043482Y-55129326D01*
X254013677Y-55188935D01*
X253989008Y-55213603D01*
X253929399Y-55243409D01*
X253719673Y-55243409D01*
X253719673Y-54967219D01*
X253929399Y-54967219D01*
X253989008Y-54997024D01*
G37*
G36*
X256660891Y-55002240D02*
G01*
X256727964Y-55069313D01*
X256763416Y-55140218D01*
X256805387Y-55308099D01*
X256805387Y-55426337D01*
X256763416Y-55594218D01*
X256727963Y-55665124D01*
X256660892Y-55732197D01*
X256555827Y-55767219D01*
X256433959Y-55767219D01*
X256433959Y-54967219D01*
X256555827Y-54967219D01*
X256660891Y-55002240D01*
G37*
G36*
X252036627Y-54997024D02*
G01*
X252061296Y-55021692D01*
X252091101Y-55081302D01*
X252091101Y-55176945D01*
X252061296Y-55236554D01*
X252036627Y-55261222D01*
X251977018Y-55291028D01*
X251719673Y-55291028D01*
X251719673Y-54967219D01*
X251977018Y-54967219D01*
X252036627Y-54997024D01*
G37*
G36*
X257116498Y-56078330D02*
G01*
X251408562Y-56078330D01*
X251408562Y-54867219D01*
X251519673Y-54867219D01*
X251519673Y-55867219D01*
X251521594Y-55886728D01*
X251536526Y-55922776D01*
X251564116Y-55950366D01*
X251600164Y-55965298D01*
X251639182Y-55965298D01*
X251675230Y-55950366D01*
X251702820Y-55922776D01*
X251717752Y-55886728D01*
X251719673Y-55867219D01*
X251719673Y-55491028D01*
X251805703Y-55491028D01*
X252109178Y-55924565D01*
X252121939Y-55939446D01*
X252154844Y-55960415D01*
X252193269Y-55967196D01*
X252231363Y-55958756D01*
X252263328Y-55936381D01*
X252284297Y-55903476D01*
X252291078Y-55865052D01*
X252282638Y-55826957D01*
X252273024Y-55809873D01*
X252043056Y-55481347D01*
X252045346Y-55480471D01*
X252140584Y-55432852D01*
X252148980Y-55427566D01*
X252151420Y-55426556D01*
X252154166Y-55424302D01*
X252157174Y-55422409D01*
X252158903Y-55420414D01*
X252166574Y-55414120D01*
X252214192Y-55366501D01*
X252220484Y-55358834D01*
X252222482Y-55357102D01*
X252224375Y-55354093D01*
X252226629Y-55351348D01*
X252227639Y-55348907D01*
X252232925Y-55340511D01*
X252255286Y-55295790D01*
X252472054Y-55295790D01*
X252472054Y-55438647D01*
X252472389Y-55442049D01*
X252472172Y-55443508D01*
X252473251Y-55450805D01*
X252473975Y-55458156D01*
X252474539Y-55459519D01*
X252475040Y-55462901D01*
X252522659Y-55653376D01*
X252523172Y-55654813D01*
X252523224Y-55655536D01*
X252526332Y-55663660D01*
X252529254Y-55671837D01*
X252529684Y-55672417D01*
X252530230Y-55673844D01*
X252577849Y-55769082D01*
X252583131Y-55777474D01*
X252584144Y-55779918D01*
X252586400Y-55782667D01*
X252588292Y-55785672D01*
X252590286Y-55787401D01*
X252596581Y-55795071D01*
X252691819Y-55890311D01*
X252706972Y-55902747D01*
X252710291Y-55904122D01*
X252713007Y-55906477D01*
X252730907Y-55914468D01*
X252873764Y-55962087D01*
X252883436Y-55964286D01*
X252885878Y-55965298D01*
X252889415Y-55965646D01*
X252892879Y-55966434D01*
X252895513Y-55966246D01*
X252905387Y-55967219D01*
X253000625Y-55967219D01*
X253010498Y-55966246D01*
X253013132Y-55966434D01*
X253016595Y-55965646D01*
X253020134Y-55965298D01*
X253022576Y-55964286D01*
X253032248Y-55962087D01*
X253175104Y-55914468D01*
X253193005Y-55906477D01*
X253195720Y-55904122D01*
X253199040Y-55902747D01*
X253214193Y-55890310D01*
X253261812Y-55842690D01*
X253274249Y-55827537D01*
X253287696Y-55795071D01*
X253289180Y-55791489D01*
X253291101Y-55771980D01*
X253291101Y-55438647D01*
X253289180Y-55419138D01*
X253274248Y-55383090D01*
X253246658Y-55355500D01*
X253210610Y-55340568D01*
X253191101Y-55338647D01*
X253000625Y-55338647D01*
X252981116Y-55340568D01*
X252945068Y-55355500D01*
X252917478Y-55383090D01*
X252902546Y-55419138D01*
X252902546Y-55458156D01*
X252917478Y-55494204D01*
X252945068Y-55521794D01*
X252981116Y-55536726D01*
X253000625Y-55538647D01*
X253091101Y-55538647D01*
X253091101Y-55730559D01*
X253089462Y-55732197D01*
X252984398Y-55767219D01*
X252921613Y-55767219D01*
X252816548Y-55732197D01*
X252749478Y-55665127D01*
X252714024Y-55594218D01*
X252672054Y-55426337D01*
X252672054Y-55308100D01*
X252714024Y-55140218D01*
X252749477Y-55069312D01*
X252816549Y-55002240D01*
X252921613Y-54967219D01*
X253024637Y-54967219D01*
X253098760Y-55004281D01*
X253117069Y-55011287D01*
X253155989Y-55014053D01*
X253193005Y-55001714D01*
X253222482Y-54976149D01*
X253239931Y-54941251D01*
X253242696Y-54902331D01*
X253230993Y-54867219D01*
X253519673Y-54867219D01*
X253519673Y-55867219D01*
X253521594Y-55886728D01*
X253536526Y-55922776D01*
X253564116Y-55950366D01*
X253600164Y-55965298D01*
X253619673Y-55967219D01*
X254000625Y-55967219D01*
X254020134Y-55965298D01*
X254023454Y-55963922D01*
X254027038Y-55963668D01*
X254045346Y-55956662D01*
X254140584Y-55909043D01*
X254148979Y-55903758D01*
X254151421Y-55902747D01*
X254154168Y-55900491D01*
X254157174Y-55898600D01*
X254158904Y-55896605D01*
X254166574Y-55890310D01*
X254214193Y-55842690D01*
X254220485Y-55835023D01*
X254222482Y-55833292D01*
X254224375Y-55830284D01*
X254226630Y-55827537D01*
X254227641Y-55825095D01*
X254232925Y-55816701D01*
X254280544Y-55721464D01*
X254287550Y-55703155D01*
X254287804Y-55699571D01*
X254289180Y-55696251D01*
X254291101Y-55676742D01*
X254291101Y-55533885D01*
X254289180Y-55514376D01*
X254287804Y-55511055D01*
X254287550Y-55507472D01*
X254280544Y-55489163D01*
X254232925Y-55393926D01*
X254227639Y-55385529D01*
X254226629Y-55383089D01*
X254224375Y-55380343D01*
X254222482Y-55377335D01*
X254220484Y-55375602D01*
X254214192Y-55367936D01*
X254166574Y-55320317D01*
X254165785Y-55319669D01*
X254166573Y-55318882D01*
X254172865Y-55311215D01*
X254174863Y-55309483D01*
X254176756Y-55306474D01*
X254179010Y-55303729D01*
X254180020Y-55301288D01*
X254185306Y-55292892D01*
X254232925Y-55197655D01*
X254239931Y-55179346D01*
X254240185Y-55175762D01*
X254241561Y-55172442D01*
X254243482Y-55152933D01*
X254243482Y-55057695D01*
X254241561Y-55038186D01*
X254240185Y-55034865D01*
X254239931Y-55031282D01*
X254232925Y-55012973D01*
X254185306Y-54917736D01*
X254180020Y-54909339D01*
X254179010Y-54906899D01*
X254176756Y-54904153D01*
X254174863Y-54901145D01*
X254172865Y-54899412D01*
X254166573Y-54891746D01*
X254142047Y-54867219D01*
X254519673Y-54867219D01*
X254519673Y-55867219D01*
X254521594Y-55886728D01*
X254536526Y-55922776D01*
X254564116Y-55950366D01*
X254600164Y-55965298D01*
X254619673Y-55967219D01*
X255095863Y-55967219D01*
X255115372Y-55965298D01*
X255151420Y-55950366D01*
X255179010Y-55922776D01*
X255193942Y-55886728D01*
X255193942Y-55847710D01*
X255179010Y-55811662D01*
X255151420Y-55784072D01*
X255115372Y-55769140D01*
X255095863Y-55767219D01*
X254719673Y-55767219D01*
X254719673Y-54867219D01*
X255329197Y-54867219D01*
X255329197Y-55867219D01*
X255331118Y-55886728D01*
X255346050Y-55922776D01*
X255373640Y-55950366D01*
X255409688Y-55965298D01*
X255429197Y-55967219D01*
X255905387Y-55967219D01*
X255924896Y-55965298D01*
X255960944Y-55950366D01*
X255988534Y-55922776D01*
X256003466Y-55886728D01*
X256003466Y-55847710D01*
X255988534Y-55811662D01*
X255960944Y-55784072D01*
X255924896Y-55769140D01*
X255905387Y-55767219D01*
X255529197Y-55767219D01*
X255529197Y-55443409D01*
X255762530Y-55443409D01*
X255782039Y-55441488D01*
X255818087Y-55426556D01*
X255845677Y-55398966D01*
X255860609Y-55362918D01*
X255860609Y-55323900D01*
X255845677Y-55287852D01*
X255818087Y-55260262D01*
X255782039Y-55245330D01*
X255762530Y-55243409D01*
X255529197Y-55243409D01*
X255529197Y-54967219D01*
X255905387Y-54967219D01*
X255924896Y-54965298D01*
X255960944Y-54950366D01*
X255988534Y-54922776D01*
X256003466Y-54886728D01*
X256003466Y-54867219D01*
X256233959Y-54867219D01*
X256233959Y-55867219D01*
X256235880Y-55886728D01*
X256250812Y-55922776D01*
X256278402Y-55950366D01*
X256314450Y-55965298D01*
X256333959Y-55967219D01*
X256572054Y-55967219D01*
X256581927Y-55966246D01*
X256584561Y-55966434D01*
X256588024Y-55965646D01*
X256591563Y-55965298D01*
X256594005Y-55964286D01*
X256603677Y-55962087D01*
X256746533Y-55914468D01*
X256764434Y-55906477D01*
X256767149Y-55904122D01*
X256770469Y-55902747D01*
X256785622Y-55890310D01*
X256880860Y-55795071D01*
X256887152Y-55787404D01*
X256889149Y-55785673D01*
X256891042Y-55782665D01*
X256893297Y-55779918D01*
X256894308Y-55777476D01*
X256899592Y-55769082D01*
X256947211Y-55673845D01*
X256947757Y-55672416D01*
X256948187Y-55671837D01*
X256951108Y-55663660D01*
X256954217Y-55655536D01*
X256954268Y-55654815D01*
X256954782Y-55653377D01*
X257002401Y-55462901D01*
X257002901Y-55459519D01*
X257003466Y-55458156D01*
X257004189Y-55450805D01*
X257005269Y-55443508D01*
X257005051Y-55442049D01*
X257005387Y-55438647D01*
X257005387Y-55295790D01*
X257005051Y-55292387D01*
X257005269Y-55290929D01*
X257004189Y-55283631D01*
X257003466Y-55276281D01*
X257002901Y-55274917D01*
X257002401Y-55271536D01*
X256954782Y-55081060D01*
X256954268Y-55079621D01*
X256954217Y-55078901D01*
X256951108Y-55070776D01*
X256948187Y-55062600D01*
X256947757Y-55062020D01*
X256947211Y-55060592D01*
X256899592Y-54965355D01*
X256894305Y-54956956D01*
X256893296Y-54954519D01*
X256891044Y-54951775D01*
X256889149Y-54948764D01*
X256887151Y-54947031D01*
X256880860Y-54939365D01*
X256785622Y-54844127D01*
X256770468Y-54831691D01*
X256767149Y-54830316D01*
X256764434Y-54827961D01*
X256746533Y-54819970D01*
X256603677Y-54772351D01*
X256594005Y-54770151D01*
X256591563Y-54769140D01*
X256588024Y-54768791D01*
X256584561Y-54768004D01*
X256581927Y-54768191D01*
X256572054Y-54767219D01*
X256333959Y-54767219D01*
X256314450Y-54769140D01*
X256278402Y-54784072D01*
X256250812Y-54811662D01*
X256235880Y-54847710D01*
X256233959Y-54867219D01*
X256003466Y-54867219D01*
X256003466Y-54847710D01*
X255988534Y-54811662D01*
X255960944Y-54784072D01*
X255924896Y-54769140D01*
X255905387Y-54767219D01*
X255429197Y-54767219D01*
X255409688Y-54769140D01*
X255373640Y-54784072D01*
X255346050Y-54811662D01*
X255331118Y-54847710D01*
X255329197Y-54867219D01*
X254719673Y-54867219D01*
X254717752Y-54847710D01*
X254702820Y-54811662D01*
X254675230Y-54784072D01*
X254639182Y-54769140D01*
X254600164Y-54769140D01*
X254564116Y-54784072D01*
X254536526Y-54811662D01*
X254521594Y-54847710D01*
X254519673Y-54867219D01*
X254142047Y-54867219D01*
X254118955Y-54844127D01*
X254111284Y-54837832D01*
X254109555Y-54835838D01*
X254106547Y-54833944D01*
X254103801Y-54831691D01*
X254101361Y-54830680D01*
X254092965Y-54825395D01*
X253997727Y-54777776D01*
X253979419Y-54770770D01*
X253975835Y-54770515D01*
X253972515Y-54769140D01*
X253953006Y-54767219D01*
X253619673Y-54767219D01*
X253600164Y-54769140D01*
X253564116Y-54784072D01*
X253536526Y-54811662D01*
X253521594Y-54847710D01*
X253519673Y-54867219D01*
X253230993Y-54867219D01*
X253230358Y-54865315D01*
X253204793Y-54835838D01*
X253188203Y-54825395D01*
X253092965Y-54777776D01*
X253074657Y-54770770D01*
X253071073Y-54770515D01*
X253067753Y-54769140D01*
X253048244Y-54767219D01*
X252905387Y-54767219D01*
X252895513Y-54768191D01*
X252892879Y-54768004D01*
X252889415Y-54768791D01*
X252885878Y-54769140D01*
X252883436Y-54770151D01*
X252873764Y-54772351D01*
X252730907Y-54819970D01*
X252713007Y-54827961D01*
X252710291Y-54830316D01*
X252706973Y-54831691D01*
X252691819Y-54844127D01*
X252596581Y-54939365D01*
X252590286Y-54947035D01*
X252588292Y-54948765D01*
X252586398Y-54951772D01*
X252584145Y-54954519D01*
X252583134Y-54956958D01*
X252577849Y-54965355D01*
X252530230Y-55060593D01*
X252529684Y-55062019D01*
X252529254Y-55062600D01*
X252526332Y-55070776D01*
X252523224Y-55078901D01*
X252523172Y-55079623D01*
X252522659Y-55081061D01*
X252475040Y-55271536D01*
X252474539Y-55274917D01*
X252473975Y-55276281D01*
X252473251Y-55283631D01*
X252472172Y-55290929D01*
X252472389Y-55292387D01*
X252472054Y-55295790D01*
X252255286Y-55295790D01*
X252280544Y-55245274D01*
X252287550Y-55226965D01*
X252287804Y-55223381D01*
X252289180Y-55220061D01*
X252291101Y-55200552D01*
X252291101Y-55057695D01*
X252289180Y-55038186D01*
X252287804Y-55034865D01*
X252287550Y-55031282D01*
X252280544Y-55012973D01*
X252232925Y-54917736D01*
X252227639Y-54909339D01*
X252226629Y-54906899D01*
X252224375Y-54904153D01*
X252222482Y-54901145D01*
X252220484Y-54899412D01*
X252214192Y-54891746D01*
X252166574Y-54844127D01*
X252158903Y-54837832D01*
X252157174Y-54835838D01*
X252154166Y-54833944D01*
X252151420Y-54831691D01*
X252148980Y-54830680D01*
X252140584Y-54825395D01*
X252045346Y-54777776D01*
X252027038Y-54770770D01*
X252023454Y-54770515D01*
X252020134Y-54769140D01*
X252000625Y-54767219D01*
X251619673Y-54767219D01*
X251600164Y-54769140D01*
X251564116Y-54784072D01*
X251536526Y-54811662D01*
X251521594Y-54847710D01*
X251519673Y-54867219D01*
X251408562Y-54867219D01*
X251408562Y-54656108D01*
X257116498Y-54656108D01*
X257116498Y-56078330D01*
G37*
D10*
X184184836Y-62183609D02*
X184184836Y-61683609D01*
X184184836Y-61683609D02*
X184375312Y-61683609D01*
X184375312Y-61683609D02*
X184422931Y-61707419D01*
X184422931Y-61707419D02*
X184446741Y-61731228D01*
X184446741Y-61731228D02*
X184470550Y-61778847D01*
X184470550Y-61778847D02*
X184470550Y-61850276D01*
X184470550Y-61850276D02*
X184446741Y-61897895D01*
X184446741Y-61897895D02*
X184422931Y-61921704D01*
X184422931Y-61921704D02*
X184375312Y-61945514D01*
X184375312Y-61945514D02*
X184184836Y-61945514D01*
X184637217Y-61683609D02*
X184756265Y-62183609D01*
X184756265Y-62183609D02*
X184851503Y-61826466D01*
X184851503Y-61826466D02*
X184946741Y-62183609D01*
X184946741Y-62183609D02*
X185065789Y-61683609D01*
X185256265Y-62183609D02*
X185256265Y-61683609D01*
X185256265Y-61683609D02*
X185422932Y-62040752D01*
X185422932Y-62040752D02*
X185589598Y-61683609D01*
X185589598Y-61683609D02*
X185589598Y-62183609D01*
X232963408Y-71146895D02*
X232696741Y-70765942D01*
X232506265Y-71146895D02*
X232506265Y-70346895D01*
X232506265Y-70346895D02*
X232811027Y-70346895D01*
X232811027Y-70346895D02*
X232887217Y-70384990D01*
X232887217Y-70384990D02*
X232925312Y-70423085D01*
X232925312Y-70423085D02*
X232963408Y-70499276D01*
X232963408Y-70499276D02*
X232963408Y-70613561D01*
X232963408Y-70613561D02*
X232925312Y-70689752D01*
X232925312Y-70689752D02*
X232887217Y-70727847D01*
X232887217Y-70727847D02*
X232811027Y-70765942D01*
X232811027Y-70765942D02*
X232506265Y-70765942D01*
X233115789Y-71223085D02*
X233725312Y-71223085D01*
X234334836Y-70384990D02*
X234258646Y-70346895D01*
X234258646Y-70346895D02*
X234144360Y-70346895D01*
X234144360Y-70346895D02*
X234030074Y-70384990D01*
X234030074Y-70384990D02*
X233953884Y-70461180D01*
X233953884Y-70461180D02*
X233915789Y-70537371D01*
X233915789Y-70537371D02*
X233877693Y-70689752D01*
X233877693Y-70689752D02*
X233877693Y-70804038D01*
X233877693Y-70804038D02*
X233915789Y-70956419D01*
X233915789Y-70956419D02*
X233953884Y-71032609D01*
X233953884Y-71032609D02*
X234030074Y-71108800D01*
X234030074Y-71108800D02*
X234144360Y-71146895D01*
X234144360Y-71146895D02*
X234220551Y-71146895D01*
X234220551Y-71146895D02*
X234334836Y-71108800D01*
X234334836Y-71108800D02*
X234372932Y-71070704D01*
X234372932Y-71070704D02*
X234372932Y-70804038D01*
X234372932Y-70804038D02*
X234220551Y-70804038D01*
X234715789Y-71146895D02*
X234715789Y-70346895D01*
X234715789Y-70727847D02*
X235172932Y-70727847D01*
X235172932Y-71146895D02*
X235172932Y-70346895D01*
X235363408Y-71223085D02*
X235972931Y-71223085D01*
X236620551Y-71070704D02*
X236582455Y-71108800D01*
X236582455Y-71108800D02*
X236468170Y-71146895D01*
X236468170Y-71146895D02*
X236391979Y-71146895D01*
X236391979Y-71146895D02*
X236277693Y-71108800D01*
X236277693Y-71108800D02*
X236201503Y-71032609D01*
X236201503Y-71032609D02*
X236163408Y-70956419D01*
X236163408Y-70956419D02*
X236125312Y-70804038D01*
X236125312Y-70804038D02*
X236125312Y-70689752D01*
X236125312Y-70689752D02*
X236163408Y-70537371D01*
X236163408Y-70537371D02*
X236201503Y-70461180D01*
X236201503Y-70461180D02*
X236277693Y-70384990D01*
X236277693Y-70384990D02*
X236391979Y-70346895D01*
X236391979Y-70346895D02*
X236468170Y-70346895D01*
X236468170Y-70346895D02*
X236582455Y-70384990D01*
X236582455Y-70384990D02*
X236620551Y-70423085D01*
D16*
X190985714Y-101112295D02*
X190719047Y-100731342D01*
X190528571Y-101112295D02*
X190528571Y-100312295D01*
X190528571Y-100312295D02*
X190833333Y-100312295D01*
X190833333Y-100312295D02*
X190909523Y-100350390D01*
X190909523Y-100350390D02*
X190947618Y-100388485D01*
X190947618Y-100388485D02*
X190985714Y-100464676D01*
X190985714Y-100464676D02*
X190985714Y-100578961D01*
X190985714Y-100578961D02*
X190947618Y-100655152D01*
X190947618Y-100655152D02*
X190909523Y-100693247D01*
X190909523Y-100693247D02*
X190833333Y-100731342D01*
X190833333Y-100731342D02*
X190528571Y-100731342D01*
X191747618Y-101112295D02*
X191290475Y-101112295D01*
X191519047Y-101112295D02*
X191519047Y-100312295D01*
X191519047Y-100312295D02*
X191442856Y-100426580D01*
X191442856Y-100426580D02*
X191366666Y-100502771D01*
X191366666Y-100502771D02*
X191290475Y-100540866D01*
X192128571Y-101112295D02*
X192280952Y-101112295D01*
X192280952Y-101112295D02*
X192357142Y-101074200D01*
X192357142Y-101074200D02*
X192395238Y-101036104D01*
X192395238Y-101036104D02*
X192471428Y-100921819D01*
X192471428Y-100921819D02*
X192509523Y-100769438D01*
X192509523Y-100769438D02*
X192509523Y-100464676D01*
X192509523Y-100464676D02*
X192471428Y-100388485D01*
X192471428Y-100388485D02*
X192433333Y-100350390D01*
X192433333Y-100350390D02*
X192357142Y-100312295D01*
X192357142Y-100312295D02*
X192204761Y-100312295D01*
X192204761Y-100312295D02*
X192128571Y-100350390D01*
X192128571Y-100350390D02*
X192090476Y-100388485D01*
X192090476Y-100388485D02*
X192052380Y-100464676D01*
X192052380Y-100464676D02*
X192052380Y-100655152D01*
X192052380Y-100655152D02*
X192090476Y-100731342D01*
X192090476Y-100731342D02*
X192128571Y-100769438D01*
X192128571Y-100769438D02*
X192204761Y-100807533D01*
X192204761Y-100807533D02*
X192357142Y-100807533D01*
X192357142Y-100807533D02*
X192433333Y-100769438D01*
X192433333Y-100769438D02*
X192471428Y-100731342D01*
X192471428Y-100731342D02*
X192509523Y-100655152D01*
X203604762Y-105536104D02*
X203566666Y-105574200D01*
X203566666Y-105574200D02*
X203452381Y-105612295D01*
X203452381Y-105612295D02*
X203376190Y-105612295D01*
X203376190Y-105612295D02*
X203261904Y-105574200D01*
X203261904Y-105574200D02*
X203185714Y-105498009D01*
X203185714Y-105498009D02*
X203147619Y-105421819D01*
X203147619Y-105421819D02*
X203109523Y-105269438D01*
X203109523Y-105269438D02*
X203109523Y-105155152D01*
X203109523Y-105155152D02*
X203147619Y-105002771D01*
X203147619Y-105002771D02*
X203185714Y-104926580D01*
X203185714Y-104926580D02*
X203261904Y-104850390D01*
X203261904Y-104850390D02*
X203376190Y-104812295D01*
X203376190Y-104812295D02*
X203452381Y-104812295D01*
X203452381Y-104812295D02*
X203566666Y-104850390D01*
X203566666Y-104850390D02*
X203604762Y-104888485D01*
X203909523Y-105383723D02*
X204290476Y-105383723D01*
X203833333Y-105612295D02*
X204100000Y-104812295D01*
X204100000Y-104812295D02*
X204366666Y-105612295D01*
X204633333Y-105612295D02*
X204633333Y-104812295D01*
X204633333Y-104812295D02*
X205090476Y-105612295D01*
X205090476Y-105612295D02*
X205090476Y-104812295D01*
X205890475Y-105612295D02*
X205433332Y-105612295D01*
X205661904Y-105612295D02*
X205661904Y-104812295D01*
X205661904Y-104812295D02*
X205585713Y-104926580D01*
X205585713Y-104926580D02*
X205509523Y-105002771D01*
X205509523Y-105002771D02*
X205433332Y-105040866D01*
X227432295Y-79264285D02*
X227051342Y-79530952D01*
X227432295Y-79721428D02*
X226632295Y-79721428D01*
X226632295Y-79721428D02*
X226632295Y-79416666D01*
X226632295Y-79416666D02*
X226670390Y-79340476D01*
X226670390Y-79340476D02*
X226708485Y-79302381D01*
X226708485Y-79302381D02*
X226784676Y-79264285D01*
X226784676Y-79264285D02*
X226898961Y-79264285D01*
X226898961Y-79264285D02*
X226975152Y-79302381D01*
X226975152Y-79302381D02*
X227013247Y-79340476D01*
X227013247Y-79340476D02*
X227051342Y-79416666D01*
X227051342Y-79416666D02*
X227051342Y-79721428D01*
X226632295Y-78997619D02*
X226632295Y-78502381D01*
X226632295Y-78502381D02*
X226937057Y-78769047D01*
X226937057Y-78769047D02*
X226937057Y-78654762D01*
X226937057Y-78654762D02*
X226975152Y-78578571D01*
X226975152Y-78578571D02*
X227013247Y-78540476D01*
X227013247Y-78540476D02*
X227089438Y-78502381D01*
X227089438Y-78502381D02*
X227279914Y-78502381D01*
X227279914Y-78502381D02*
X227356104Y-78540476D01*
X227356104Y-78540476D02*
X227394200Y-78578571D01*
X227394200Y-78578571D02*
X227432295Y-78654762D01*
X227432295Y-78654762D02*
X227432295Y-78883333D01*
X227432295Y-78883333D02*
X227394200Y-78959524D01*
X227394200Y-78959524D02*
X227356104Y-78997619D01*
X226632295Y-77778571D02*
X226632295Y-78159523D01*
X226632295Y-78159523D02*
X227013247Y-78197619D01*
X227013247Y-78197619D02*
X226975152Y-78159523D01*
X226975152Y-78159523D02*
X226937057Y-78083333D01*
X226937057Y-78083333D02*
X226937057Y-77892857D01*
X226937057Y-77892857D02*
X226975152Y-77816666D01*
X226975152Y-77816666D02*
X227013247Y-77778571D01*
X227013247Y-77778571D02*
X227089438Y-77740476D01*
X227089438Y-77740476D02*
X227279914Y-77740476D01*
X227279914Y-77740476D02*
X227356104Y-77778571D01*
X227356104Y-77778571D02*
X227394200Y-77816666D01*
X227394200Y-77816666D02*
X227432295Y-77892857D01*
X227432295Y-77892857D02*
X227432295Y-78083333D01*
X227432295Y-78083333D02*
X227394200Y-78159523D01*
X227394200Y-78159523D02*
X227356104Y-78197619D01*
X208235714Y-83042295D02*
X207969047Y-82661342D01*
X207778571Y-83042295D02*
X207778571Y-82242295D01*
X207778571Y-82242295D02*
X208083333Y-82242295D01*
X208083333Y-82242295D02*
X208159523Y-82280390D01*
X208159523Y-82280390D02*
X208197618Y-82318485D01*
X208197618Y-82318485D02*
X208235714Y-82394676D01*
X208235714Y-82394676D02*
X208235714Y-82508961D01*
X208235714Y-82508961D02*
X208197618Y-82585152D01*
X208197618Y-82585152D02*
X208159523Y-82623247D01*
X208159523Y-82623247D02*
X208083333Y-82661342D01*
X208083333Y-82661342D02*
X207778571Y-82661342D01*
X208502380Y-82242295D02*
X208997618Y-82242295D01*
X208997618Y-82242295D02*
X208730952Y-82547057D01*
X208730952Y-82547057D02*
X208845237Y-82547057D01*
X208845237Y-82547057D02*
X208921428Y-82585152D01*
X208921428Y-82585152D02*
X208959523Y-82623247D01*
X208959523Y-82623247D02*
X208997618Y-82699438D01*
X208997618Y-82699438D02*
X208997618Y-82889914D01*
X208997618Y-82889914D02*
X208959523Y-82966104D01*
X208959523Y-82966104D02*
X208921428Y-83004200D01*
X208921428Y-83004200D02*
X208845237Y-83042295D01*
X208845237Y-83042295D02*
X208616666Y-83042295D01*
X208616666Y-83042295D02*
X208540475Y-83004200D01*
X208540475Y-83004200D02*
X208502380Y-82966104D01*
X209302380Y-82318485D02*
X209340476Y-82280390D01*
X209340476Y-82280390D02*
X209416666Y-82242295D01*
X209416666Y-82242295D02*
X209607142Y-82242295D01*
X209607142Y-82242295D02*
X209683333Y-82280390D01*
X209683333Y-82280390D02*
X209721428Y-82318485D01*
X209721428Y-82318485D02*
X209759523Y-82394676D01*
X209759523Y-82394676D02*
X209759523Y-82470866D01*
X209759523Y-82470866D02*
X209721428Y-82585152D01*
X209721428Y-82585152D02*
X209264285Y-83042295D01*
X209264285Y-83042295D02*
X209759523Y-83042295D01*
X227235714Y-82792295D02*
X226969047Y-82411342D01*
X226778571Y-82792295D02*
X226778571Y-81992295D01*
X226778571Y-81992295D02*
X227083333Y-81992295D01*
X227083333Y-81992295D02*
X227159523Y-82030390D01*
X227159523Y-82030390D02*
X227197618Y-82068485D01*
X227197618Y-82068485D02*
X227235714Y-82144676D01*
X227235714Y-82144676D02*
X227235714Y-82258961D01*
X227235714Y-82258961D02*
X227197618Y-82335152D01*
X227197618Y-82335152D02*
X227159523Y-82373247D01*
X227159523Y-82373247D02*
X227083333Y-82411342D01*
X227083333Y-82411342D02*
X226778571Y-82411342D01*
X227502380Y-81992295D02*
X227997618Y-81992295D01*
X227997618Y-81992295D02*
X227730952Y-82297057D01*
X227730952Y-82297057D02*
X227845237Y-82297057D01*
X227845237Y-82297057D02*
X227921428Y-82335152D01*
X227921428Y-82335152D02*
X227959523Y-82373247D01*
X227959523Y-82373247D02*
X227997618Y-82449438D01*
X227997618Y-82449438D02*
X227997618Y-82639914D01*
X227997618Y-82639914D02*
X227959523Y-82716104D01*
X227959523Y-82716104D02*
X227921428Y-82754200D01*
X227921428Y-82754200D02*
X227845237Y-82792295D01*
X227845237Y-82792295D02*
X227616666Y-82792295D01*
X227616666Y-82792295D02*
X227540475Y-82754200D01*
X227540475Y-82754200D02*
X227502380Y-82716104D01*
X228683333Y-82258961D02*
X228683333Y-82792295D01*
X228492857Y-81954200D02*
X228302380Y-82525628D01*
X228302380Y-82525628D02*
X228797619Y-82525628D01*
X193185714Y-110812295D02*
X193338095Y-110812295D01*
X193338095Y-110812295D02*
X193414285Y-110850390D01*
X193414285Y-110850390D02*
X193490476Y-110926580D01*
X193490476Y-110926580D02*
X193528571Y-111078961D01*
X193528571Y-111078961D02*
X193528571Y-111345628D01*
X193528571Y-111345628D02*
X193490476Y-111498009D01*
X193490476Y-111498009D02*
X193414285Y-111574200D01*
X193414285Y-111574200D02*
X193338095Y-111612295D01*
X193338095Y-111612295D02*
X193185714Y-111612295D01*
X193185714Y-111612295D02*
X193109523Y-111574200D01*
X193109523Y-111574200D02*
X193033333Y-111498009D01*
X193033333Y-111498009D02*
X192995237Y-111345628D01*
X192995237Y-111345628D02*
X192995237Y-111078961D01*
X192995237Y-111078961D02*
X193033333Y-110926580D01*
X193033333Y-110926580D02*
X193109523Y-110850390D01*
X193109523Y-110850390D02*
X193185714Y-110812295D01*
X194328571Y-111536104D02*
X194290475Y-111574200D01*
X194290475Y-111574200D02*
X194176190Y-111612295D01*
X194176190Y-111612295D02*
X194099999Y-111612295D01*
X194099999Y-111612295D02*
X193985713Y-111574200D01*
X193985713Y-111574200D02*
X193909523Y-111498009D01*
X193909523Y-111498009D02*
X193871428Y-111421819D01*
X193871428Y-111421819D02*
X193833332Y-111269438D01*
X193833332Y-111269438D02*
X193833332Y-111155152D01*
X193833332Y-111155152D02*
X193871428Y-111002771D01*
X193871428Y-111002771D02*
X193909523Y-110926580D01*
X193909523Y-110926580D02*
X193985713Y-110850390D01*
X193985713Y-110850390D02*
X194099999Y-110812295D01*
X194099999Y-110812295D02*
X194176190Y-110812295D01*
X194176190Y-110812295D02*
X194290475Y-110850390D01*
X194290475Y-110850390D02*
X194328571Y-110888485D01*
X194595237Y-110812295D02*
X194785713Y-111612295D01*
X194785713Y-111612295D02*
X194938094Y-111040866D01*
X194938094Y-111040866D02*
X195090475Y-111612295D01*
X195090475Y-111612295D02*
X195280952Y-110812295D01*
X196004761Y-111612295D02*
X195547618Y-111612295D01*
X195776190Y-111612295D02*
X195776190Y-110812295D01*
X195776190Y-110812295D02*
X195699999Y-110926580D01*
X195699999Y-110926580D02*
X195623809Y-111002771D01*
X195623809Y-111002771D02*
X195547618Y-111040866D01*
X196786104Y-98264285D02*
X196824200Y-98302381D01*
X196824200Y-98302381D02*
X196862295Y-98416666D01*
X196862295Y-98416666D02*
X196862295Y-98492857D01*
X196862295Y-98492857D02*
X196824200Y-98607143D01*
X196824200Y-98607143D02*
X196748009Y-98683333D01*
X196748009Y-98683333D02*
X196671819Y-98721428D01*
X196671819Y-98721428D02*
X196519438Y-98759524D01*
X196519438Y-98759524D02*
X196405152Y-98759524D01*
X196405152Y-98759524D02*
X196252771Y-98721428D01*
X196252771Y-98721428D02*
X196176580Y-98683333D01*
X196176580Y-98683333D02*
X196100390Y-98607143D01*
X196100390Y-98607143D02*
X196062295Y-98492857D01*
X196062295Y-98492857D02*
X196062295Y-98416666D01*
X196062295Y-98416666D02*
X196100390Y-98302381D01*
X196100390Y-98302381D02*
X196138485Y-98264285D01*
X196138485Y-97959524D02*
X196100390Y-97921428D01*
X196100390Y-97921428D02*
X196062295Y-97845238D01*
X196062295Y-97845238D02*
X196062295Y-97654762D01*
X196062295Y-97654762D02*
X196100390Y-97578571D01*
X196100390Y-97578571D02*
X196138485Y-97540476D01*
X196138485Y-97540476D02*
X196214676Y-97502381D01*
X196214676Y-97502381D02*
X196290866Y-97502381D01*
X196290866Y-97502381D02*
X196405152Y-97540476D01*
X196405152Y-97540476D02*
X196862295Y-97997619D01*
X196862295Y-97997619D02*
X196862295Y-97502381D01*
X196062295Y-97007142D02*
X196062295Y-96930952D01*
X196062295Y-96930952D02*
X196100390Y-96854761D01*
X196100390Y-96854761D02*
X196138485Y-96816666D01*
X196138485Y-96816666D02*
X196214676Y-96778571D01*
X196214676Y-96778571D02*
X196367057Y-96740476D01*
X196367057Y-96740476D02*
X196557533Y-96740476D01*
X196557533Y-96740476D02*
X196709914Y-96778571D01*
X196709914Y-96778571D02*
X196786104Y-96816666D01*
X196786104Y-96816666D02*
X196824200Y-96854761D01*
X196824200Y-96854761D02*
X196862295Y-96930952D01*
X196862295Y-96930952D02*
X196862295Y-97007142D01*
X196862295Y-97007142D02*
X196824200Y-97083333D01*
X196824200Y-97083333D02*
X196786104Y-97121428D01*
X196786104Y-97121428D02*
X196709914Y-97159523D01*
X196709914Y-97159523D02*
X196557533Y-97197619D01*
X196557533Y-97197619D02*
X196367057Y-97197619D01*
X196367057Y-97197619D02*
X196214676Y-97159523D01*
X196214676Y-97159523D02*
X196138485Y-97121428D01*
X196138485Y-97121428D02*
X196100390Y-97083333D01*
X196100390Y-97083333D02*
X196062295Y-97007142D01*
X196735714Y-104362295D02*
X196469047Y-103981342D01*
X196278571Y-104362295D02*
X196278571Y-103562295D01*
X196278571Y-103562295D02*
X196583333Y-103562295D01*
X196583333Y-103562295D02*
X196659523Y-103600390D01*
X196659523Y-103600390D02*
X196697618Y-103638485D01*
X196697618Y-103638485D02*
X196735714Y-103714676D01*
X196735714Y-103714676D02*
X196735714Y-103828961D01*
X196735714Y-103828961D02*
X196697618Y-103905152D01*
X196697618Y-103905152D02*
X196659523Y-103943247D01*
X196659523Y-103943247D02*
X196583333Y-103981342D01*
X196583333Y-103981342D02*
X196278571Y-103981342D01*
X197040475Y-103638485D02*
X197078571Y-103600390D01*
X197078571Y-103600390D02*
X197154761Y-103562295D01*
X197154761Y-103562295D02*
X197345237Y-103562295D01*
X197345237Y-103562295D02*
X197421428Y-103600390D01*
X197421428Y-103600390D02*
X197459523Y-103638485D01*
X197459523Y-103638485D02*
X197497618Y-103714676D01*
X197497618Y-103714676D02*
X197497618Y-103790866D01*
X197497618Y-103790866D02*
X197459523Y-103905152D01*
X197459523Y-103905152D02*
X197002380Y-104362295D01*
X197002380Y-104362295D02*
X197497618Y-104362295D01*
X198259523Y-104362295D02*
X197802380Y-104362295D01*
X198030952Y-104362295D02*
X198030952Y-103562295D01*
X198030952Y-103562295D02*
X197954761Y-103676580D01*
X197954761Y-103676580D02*
X197878571Y-103752771D01*
X197878571Y-103752771D02*
X197802380Y-103790866D01*
X224233333Y-106812295D02*
X224233333Y-107383723D01*
X224233333Y-107383723D02*
X224195238Y-107498009D01*
X224195238Y-107498009D02*
X224119047Y-107574200D01*
X224119047Y-107574200D02*
X224004762Y-107612295D01*
X224004762Y-107612295D02*
X223928571Y-107612295D01*
X225033333Y-107612295D02*
X224576190Y-107612295D01*
X224804762Y-107612295D02*
X224804762Y-106812295D01*
X224804762Y-106812295D02*
X224728571Y-106926580D01*
X224728571Y-106926580D02*
X224652381Y-107002771D01*
X224652381Y-107002771D02*
X224576190Y-107040866D01*
X193466666Y-108812295D02*
X193085714Y-108812295D01*
X193085714Y-108812295D02*
X193047618Y-109193247D01*
X193047618Y-109193247D02*
X193085714Y-109155152D01*
X193085714Y-109155152D02*
X193161904Y-109117057D01*
X193161904Y-109117057D02*
X193352380Y-109117057D01*
X193352380Y-109117057D02*
X193428571Y-109155152D01*
X193428571Y-109155152D02*
X193466666Y-109193247D01*
X193466666Y-109193247D02*
X193504761Y-109269438D01*
X193504761Y-109269438D02*
X193504761Y-109459914D01*
X193504761Y-109459914D02*
X193466666Y-109536104D01*
X193466666Y-109536104D02*
X193428571Y-109574200D01*
X193428571Y-109574200D02*
X193352380Y-109612295D01*
X193352380Y-109612295D02*
X193161904Y-109612295D01*
X193161904Y-109612295D02*
X193085714Y-109574200D01*
X193085714Y-109574200D02*
X193047618Y-109536104D01*
X193733333Y-108812295D02*
X194000000Y-109612295D01*
X194000000Y-109612295D02*
X194266666Y-108812295D01*
X194952380Y-109612295D02*
X194495237Y-109612295D01*
X194723809Y-109612295D02*
X194723809Y-108812295D01*
X194723809Y-108812295D02*
X194647618Y-108926580D01*
X194647618Y-108926580D02*
X194571428Y-109002771D01*
X194571428Y-109002771D02*
X194495237Y-109040866D01*
X198286104Y-98264285D02*
X198324200Y-98302381D01*
X198324200Y-98302381D02*
X198362295Y-98416666D01*
X198362295Y-98416666D02*
X198362295Y-98492857D01*
X198362295Y-98492857D02*
X198324200Y-98607143D01*
X198324200Y-98607143D02*
X198248009Y-98683333D01*
X198248009Y-98683333D02*
X198171819Y-98721428D01*
X198171819Y-98721428D02*
X198019438Y-98759524D01*
X198019438Y-98759524D02*
X197905152Y-98759524D01*
X197905152Y-98759524D02*
X197752771Y-98721428D01*
X197752771Y-98721428D02*
X197676580Y-98683333D01*
X197676580Y-98683333D02*
X197600390Y-98607143D01*
X197600390Y-98607143D02*
X197562295Y-98492857D01*
X197562295Y-98492857D02*
X197562295Y-98416666D01*
X197562295Y-98416666D02*
X197600390Y-98302381D01*
X197600390Y-98302381D02*
X197638485Y-98264285D01*
X197638485Y-97959524D02*
X197600390Y-97921428D01*
X197600390Y-97921428D02*
X197562295Y-97845238D01*
X197562295Y-97845238D02*
X197562295Y-97654762D01*
X197562295Y-97654762D02*
X197600390Y-97578571D01*
X197600390Y-97578571D02*
X197638485Y-97540476D01*
X197638485Y-97540476D02*
X197714676Y-97502381D01*
X197714676Y-97502381D02*
X197790866Y-97502381D01*
X197790866Y-97502381D02*
X197905152Y-97540476D01*
X197905152Y-97540476D02*
X198362295Y-97997619D01*
X198362295Y-97997619D02*
X198362295Y-97502381D01*
X197562295Y-97235714D02*
X197562295Y-96740476D01*
X197562295Y-96740476D02*
X197867057Y-97007142D01*
X197867057Y-97007142D02*
X197867057Y-96892857D01*
X197867057Y-96892857D02*
X197905152Y-96816666D01*
X197905152Y-96816666D02*
X197943247Y-96778571D01*
X197943247Y-96778571D02*
X198019438Y-96740476D01*
X198019438Y-96740476D02*
X198209914Y-96740476D01*
X198209914Y-96740476D02*
X198286104Y-96778571D01*
X198286104Y-96778571D02*
X198324200Y-96816666D01*
X198324200Y-96816666D02*
X198362295Y-96892857D01*
X198362295Y-96892857D02*
X198362295Y-97121428D01*
X198362295Y-97121428D02*
X198324200Y-97197619D01*
X198324200Y-97197619D02*
X198286104Y-97235714D01*
X233812295Y-92278571D02*
X233812295Y-91821428D01*
X234612295Y-92050000D02*
X233812295Y-92050000D01*
X234612295Y-91554761D02*
X233812295Y-91554761D01*
X234193247Y-91554761D02*
X234193247Y-91097618D01*
X234612295Y-91097618D02*
X233812295Y-91097618D01*
X234612295Y-90297619D02*
X234612295Y-90754762D01*
X234612295Y-90526190D02*
X233812295Y-90526190D01*
X233812295Y-90526190D02*
X233926580Y-90602381D01*
X233926580Y-90602381D02*
X234002771Y-90678571D01*
X234002771Y-90678571D02*
X234040866Y-90754762D01*
X250735714Y-79862295D02*
X250469047Y-79481342D01*
X250278571Y-79862295D02*
X250278571Y-79062295D01*
X250278571Y-79062295D02*
X250583333Y-79062295D01*
X250583333Y-79062295D02*
X250659523Y-79100390D01*
X250659523Y-79100390D02*
X250697618Y-79138485D01*
X250697618Y-79138485D02*
X250735714Y-79214676D01*
X250735714Y-79214676D02*
X250735714Y-79328961D01*
X250735714Y-79328961D02*
X250697618Y-79405152D01*
X250697618Y-79405152D02*
X250659523Y-79443247D01*
X250659523Y-79443247D02*
X250583333Y-79481342D01*
X250583333Y-79481342D02*
X250278571Y-79481342D01*
X251002380Y-79062295D02*
X251497618Y-79062295D01*
X251497618Y-79062295D02*
X251230952Y-79367057D01*
X251230952Y-79367057D02*
X251345237Y-79367057D01*
X251345237Y-79367057D02*
X251421428Y-79405152D01*
X251421428Y-79405152D02*
X251459523Y-79443247D01*
X251459523Y-79443247D02*
X251497618Y-79519438D01*
X251497618Y-79519438D02*
X251497618Y-79709914D01*
X251497618Y-79709914D02*
X251459523Y-79786104D01*
X251459523Y-79786104D02*
X251421428Y-79824200D01*
X251421428Y-79824200D02*
X251345237Y-79862295D01*
X251345237Y-79862295D02*
X251116666Y-79862295D01*
X251116666Y-79862295D02*
X251040475Y-79824200D01*
X251040475Y-79824200D02*
X251002380Y-79786104D01*
X251764285Y-79062295D02*
X252297619Y-79062295D01*
X252297619Y-79062295D02*
X251954761Y-79862295D01*
X206748870Y-91370919D02*
X206748870Y-92180442D01*
X206748870Y-92180442D02*
X206796489Y-92275680D01*
X206796489Y-92275680D02*
X206844108Y-92323300D01*
X206844108Y-92323300D02*
X206939346Y-92370919D01*
X206939346Y-92370919D02*
X207129822Y-92370919D01*
X207129822Y-92370919D02*
X207225060Y-92323300D01*
X207225060Y-92323300D02*
X207272679Y-92275680D01*
X207272679Y-92275680D02*
X207320298Y-92180442D01*
X207320298Y-92180442D02*
X207320298Y-91370919D01*
X208225060Y-91370919D02*
X208034584Y-91370919D01*
X208034584Y-91370919D02*
X207939346Y-91418538D01*
X207939346Y-91418538D02*
X207891727Y-91466157D01*
X207891727Y-91466157D02*
X207796489Y-91609014D01*
X207796489Y-91609014D02*
X207748870Y-91799490D01*
X207748870Y-91799490D02*
X207748870Y-92180442D01*
X207748870Y-92180442D02*
X207796489Y-92275680D01*
X207796489Y-92275680D02*
X207844108Y-92323300D01*
X207844108Y-92323300D02*
X207939346Y-92370919D01*
X207939346Y-92370919D02*
X208129822Y-92370919D01*
X208129822Y-92370919D02*
X208225060Y-92323300D01*
X208225060Y-92323300D02*
X208272679Y-92275680D01*
X208272679Y-92275680D02*
X208320298Y-92180442D01*
X208320298Y-92180442D02*
X208320298Y-91942347D01*
X208320298Y-91942347D02*
X208272679Y-91847109D01*
X208272679Y-91847109D02*
X208225060Y-91799490D01*
X208225060Y-91799490D02*
X208129822Y-91751871D01*
X208129822Y-91751871D02*
X207939346Y-91751871D01*
X207939346Y-91751871D02*
X207844108Y-91799490D01*
X207844108Y-91799490D02*
X207796489Y-91847109D01*
X207796489Y-91847109D02*
X207748870Y-91942347D01*
X249985714Y-81612295D02*
X249719047Y-81231342D01*
X249528571Y-81612295D02*
X249528571Y-80812295D01*
X249528571Y-80812295D02*
X249833333Y-80812295D01*
X249833333Y-80812295D02*
X249909523Y-80850390D01*
X249909523Y-80850390D02*
X249947618Y-80888485D01*
X249947618Y-80888485D02*
X249985714Y-80964676D01*
X249985714Y-80964676D02*
X249985714Y-81078961D01*
X249985714Y-81078961D02*
X249947618Y-81155152D01*
X249947618Y-81155152D02*
X249909523Y-81193247D01*
X249909523Y-81193247D02*
X249833333Y-81231342D01*
X249833333Y-81231342D02*
X249528571Y-81231342D01*
X250252380Y-80812295D02*
X250747618Y-80812295D01*
X250747618Y-80812295D02*
X250480952Y-81117057D01*
X250480952Y-81117057D02*
X250595237Y-81117057D01*
X250595237Y-81117057D02*
X250671428Y-81155152D01*
X250671428Y-81155152D02*
X250709523Y-81193247D01*
X250709523Y-81193247D02*
X250747618Y-81269438D01*
X250747618Y-81269438D02*
X250747618Y-81459914D01*
X250747618Y-81459914D02*
X250709523Y-81536104D01*
X250709523Y-81536104D02*
X250671428Y-81574200D01*
X250671428Y-81574200D02*
X250595237Y-81612295D01*
X250595237Y-81612295D02*
X250366666Y-81612295D01*
X250366666Y-81612295D02*
X250290475Y-81574200D01*
X250290475Y-81574200D02*
X250252380Y-81536104D01*
X251433333Y-80812295D02*
X251280952Y-80812295D01*
X251280952Y-80812295D02*
X251204761Y-80850390D01*
X251204761Y-80850390D02*
X251166666Y-80888485D01*
X251166666Y-80888485D02*
X251090476Y-81002771D01*
X251090476Y-81002771D02*
X251052380Y-81155152D01*
X251052380Y-81155152D02*
X251052380Y-81459914D01*
X251052380Y-81459914D02*
X251090476Y-81536104D01*
X251090476Y-81536104D02*
X251128571Y-81574200D01*
X251128571Y-81574200D02*
X251204761Y-81612295D01*
X251204761Y-81612295D02*
X251357142Y-81612295D01*
X251357142Y-81612295D02*
X251433333Y-81574200D01*
X251433333Y-81574200D02*
X251471428Y-81536104D01*
X251471428Y-81536104D02*
X251509523Y-81459914D01*
X251509523Y-81459914D02*
X251509523Y-81269438D01*
X251509523Y-81269438D02*
X251471428Y-81193247D01*
X251471428Y-81193247D02*
X251433333Y-81155152D01*
X251433333Y-81155152D02*
X251357142Y-81117057D01*
X251357142Y-81117057D02*
X251204761Y-81117057D01*
X251204761Y-81117057D02*
X251128571Y-81155152D01*
X251128571Y-81155152D02*
X251090476Y-81193247D01*
X251090476Y-81193247D02*
X251052380Y-81269438D01*
X214829762Y-104671104D02*
X214791666Y-104709200D01*
X214791666Y-104709200D02*
X214677381Y-104747295D01*
X214677381Y-104747295D02*
X214601190Y-104747295D01*
X214601190Y-104747295D02*
X214486904Y-104709200D01*
X214486904Y-104709200D02*
X214410714Y-104633009D01*
X214410714Y-104633009D02*
X214372619Y-104556819D01*
X214372619Y-104556819D02*
X214334523Y-104404438D01*
X214334523Y-104404438D02*
X214334523Y-104290152D01*
X214334523Y-104290152D02*
X214372619Y-104137771D01*
X214372619Y-104137771D02*
X214410714Y-104061580D01*
X214410714Y-104061580D02*
X214486904Y-103985390D01*
X214486904Y-103985390D02*
X214601190Y-103947295D01*
X214601190Y-103947295D02*
X214677381Y-103947295D01*
X214677381Y-103947295D02*
X214791666Y-103985390D01*
X214791666Y-103985390D02*
X214829762Y-104023485D01*
X215134523Y-104518723D02*
X215515476Y-104518723D01*
X215058333Y-104747295D02*
X215325000Y-103947295D01*
X215325000Y-103947295D02*
X215591666Y-104747295D01*
X215858333Y-104747295D02*
X215858333Y-103947295D01*
X215858333Y-103947295D02*
X216315476Y-104747295D01*
X216315476Y-104747295D02*
X216315476Y-103947295D01*
X216658332Y-104023485D02*
X216696428Y-103985390D01*
X216696428Y-103985390D02*
X216772618Y-103947295D01*
X216772618Y-103947295D02*
X216963094Y-103947295D01*
X216963094Y-103947295D02*
X217039285Y-103985390D01*
X217039285Y-103985390D02*
X217077380Y-104023485D01*
X217077380Y-104023485D02*
X217115475Y-104099676D01*
X217115475Y-104099676D02*
X217115475Y-104175866D01*
X217115475Y-104175866D02*
X217077380Y-104290152D01*
X217077380Y-104290152D02*
X216620237Y-104747295D01*
X216620237Y-104747295D02*
X217115475Y-104747295D01*
X208432295Y-79264285D02*
X208051342Y-79530952D01*
X208432295Y-79721428D02*
X207632295Y-79721428D01*
X207632295Y-79721428D02*
X207632295Y-79416666D01*
X207632295Y-79416666D02*
X207670390Y-79340476D01*
X207670390Y-79340476D02*
X207708485Y-79302381D01*
X207708485Y-79302381D02*
X207784676Y-79264285D01*
X207784676Y-79264285D02*
X207898961Y-79264285D01*
X207898961Y-79264285D02*
X207975152Y-79302381D01*
X207975152Y-79302381D02*
X208013247Y-79340476D01*
X208013247Y-79340476D02*
X208051342Y-79416666D01*
X208051342Y-79416666D02*
X208051342Y-79721428D01*
X207632295Y-78997619D02*
X207632295Y-78502381D01*
X207632295Y-78502381D02*
X207937057Y-78769047D01*
X207937057Y-78769047D02*
X207937057Y-78654762D01*
X207937057Y-78654762D02*
X207975152Y-78578571D01*
X207975152Y-78578571D02*
X208013247Y-78540476D01*
X208013247Y-78540476D02*
X208089438Y-78502381D01*
X208089438Y-78502381D02*
X208279914Y-78502381D01*
X208279914Y-78502381D02*
X208356104Y-78540476D01*
X208356104Y-78540476D02*
X208394200Y-78578571D01*
X208394200Y-78578571D02*
X208432295Y-78654762D01*
X208432295Y-78654762D02*
X208432295Y-78883333D01*
X208432295Y-78883333D02*
X208394200Y-78959524D01*
X208394200Y-78959524D02*
X208356104Y-78997619D01*
X207632295Y-78235714D02*
X207632295Y-77740476D01*
X207632295Y-77740476D02*
X207937057Y-78007142D01*
X207937057Y-78007142D02*
X207937057Y-77892857D01*
X207937057Y-77892857D02*
X207975152Y-77816666D01*
X207975152Y-77816666D02*
X208013247Y-77778571D01*
X208013247Y-77778571D02*
X208089438Y-77740476D01*
X208089438Y-77740476D02*
X208279914Y-77740476D01*
X208279914Y-77740476D02*
X208356104Y-77778571D01*
X208356104Y-77778571D02*
X208394200Y-77816666D01*
X208394200Y-77816666D02*
X208432295Y-77892857D01*
X208432295Y-77892857D02*
X208432295Y-78121428D01*
X208432295Y-78121428D02*
X208394200Y-78197619D01*
X208394200Y-78197619D02*
X208356104Y-78235714D01*
X199862295Y-98264285D02*
X199481342Y-98530952D01*
X199862295Y-98721428D02*
X199062295Y-98721428D01*
X199062295Y-98721428D02*
X199062295Y-98416666D01*
X199062295Y-98416666D02*
X199100390Y-98340476D01*
X199100390Y-98340476D02*
X199138485Y-98302381D01*
X199138485Y-98302381D02*
X199214676Y-98264285D01*
X199214676Y-98264285D02*
X199328961Y-98264285D01*
X199328961Y-98264285D02*
X199405152Y-98302381D01*
X199405152Y-98302381D02*
X199443247Y-98340476D01*
X199443247Y-98340476D02*
X199481342Y-98416666D01*
X199481342Y-98416666D02*
X199481342Y-98721428D01*
X199138485Y-97959524D02*
X199100390Y-97921428D01*
X199100390Y-97921428D02*
X199062295Y-97845238D01*
X199062295Y-97845238D02*
X199062295Y-97654762D01*
X199062295Y-97654762D02*
X199100390Y-97578571D01*
X199100390Y-97578571D02*
X199138485Y-97540476D01*
X199138485Y-97540476D02*
X199214676Y-97502381D01*
X199214676Y-97502381D02*
X199290866Y-97502381D01*
X199290866Y-97502381D02*
X199405152Y-97540476D01*
X199405152Y-97540476D02*
X199862295Y-97997619D01*
X199862295Y-97997619D02*
X199862295Y-97502381D01*
X199862295Y-97121428D02*
X199862295Y-96969047D01*
X199862295Y-96969047D02*
X199824200Y-96892857D01*
X199824200Y-96892857D02*
X199786104Y-96854761D01*
X199786104Y-96854761D02*
X199671819Y-96778571D01*
X199671819Y-96778571D02*
X199519438Y-96740476D01*
X199519438Y-96740476D02*
X199214676Y-96740476D01*
X199214676Y-96740476D02*
X199138485Y-96778571D01*
X199138485Y-96778571D02*
X199100390Y-96816666D01*
X199100390Y-96816666D02*
X199062295Y-96892857D01*
X199062295Y-96892857D02*
X199062295Y-97045238D01*
X199062295Y-97045238D02*
X199100390Y-97121428D01*
X199100390Y-97121428D02*
X199138485Y-97159523D01*
X199138485Y-97159523D02*
X199214676Y-97197619D01*
X199214676Y-97197619D02*
X199405152Y-97197619D01*
X199405152Y-97197619D02*
X199481342Y-97159523D01*
X199481342Y-97159523D02*
X199519438Y-97121428D01*
X199519438Y-97121428D02*
X199557533Y-97045238D01*
X199557533Y-97045238D02*
X199557533Y-96892857D01*
X199557533Y-96892857D02*
X199519438Y-96816666D01*
X199519438Y-96816666D02*
X199481342Y-96778571D01*
X199481342Y-96778571D02*
X199405152Y-96740476D01*
X190985714Y-102862295D02*
X190719047Y-102481342D01*
X190528571Y-102862295D02*
X190528571Y-102062295D01*
X190528571Y-102062295D02*
X190833333Y-102062295D01*
X190833333Y-102062295D02*
X190909523Y-102100390D01*
X190909523Y-102100390D02*
X190947618Y-102138485D01*
X190947618Y-102138485D02*
X190985714Y-102214676D01*
X190985714Y-102214676D02*
X190985714Y-102328961D01*
X190985714Y-102328961D02*
X190947618Y-102405152D01*
X190947618Y-102405152D02*
X190909523Y-102443247D01*
X190909523Y-102443247D02*
X190833333Y-102481342D01*
X190833333Y-102481342D02*
X190528571Y-102481342D01*
X191290475Y-102138485D02*
X191328571Y-102100390D01*
X191328571Y-102100390D02*
X191404761Y-102062295D01*
X191404761Y-102062295D02*
X191595237Y-102062295D01*
X191595237Y-102062295D02*
X191671428Y-102100390D01*
X191671428Y-102100390D02*
X191709523Y-102138485D01*
X191709523Y-102138485D02*
X191747618Y-102214676D01*
X191747618Y-102214676D02*
X191747618Y-102290866D01*
X191747618Y-102290866D02*
X191709523Y-102405152D01*
X191709523Y-102405152D02*
X191252380Y-102862295D01*
X191252380Y-102862295D02*
X191747618Y-102862295D01*
X192242857Y-102062295D02*
X192319047Y-102062295D01*
X192319047Y-102062295D02*
X192395238Y-102100390D01*
X192395238Y-102100390D02*
X192433333Y-102138485D01*
X192433333Y-102138485D02*
X192471428Y-102214676D01*
X192471428Y-102214676D02*
X192509523Y-102367057D01*
X192509523Y-102367057D02*
X192509523Y-102557533D01*
X192509523Y-102557533D02*
X192471428Y-102709914D01*
X192471428Y-102709914D02*
X192433333Y-102786104D01*
X192433333Y-102786104D02*
X192395238Y-102824200D01*
X192395238Y-102824200D02*
X192319047Y-102862295D01*
X192319047Y-102862295D02*
X192242857Y-102862295D01*
X192242857Y-102862295D02*
X192166666Y-102824200D01*
X192166666Y-102824200D02*
X192128571Y-102786104D01*
X192128571Y-102786104D02*
X192090476Y-102709914D01*
X192090476Y-102709914D02*
X192052380Y-102557533D01*
X192052380Y-102557533D02*
X192052380Y-102367057D01*
X192052380Y-102367057D02*
X192090476Y-102214676D01*
X192090476Y-102214676D02*
X192128571Y-102138485D01*
X192128571Y-102138485D02*
X192166666Y-102100390D01*
X192166666Y-102100390D02*
X192242857Y-102062295D01*
D13*
%TO.C,C28*%
X246990000Y-94859420D02*
X246990000Y-95140580D01*
X248010000Y-94859420D02*
X248010000Y-95140580D01*
%TO.C,R19*%
X194012742Y-100227500D02*
X194487258Y-100227500D01*
X194012742Y-101272500D02*
X194487258Y-101272500D01*
%TO.C,C33*%
X198890580Y-92990000D02*
X198609420Y-92990000D01*
X198890580Y-94010000D02*
X198609420Y-94010000D01*
%TO.C,C13*%
X238859420Y-96740000D02*
X239140580Y-96740000D01*
X238859420Y-97760000D02*
X239140580Y-97760000D01*
%TO.C,R65*%
X237977500Y-91737258D02*
X237977500Y-91262742D01*
X239022500Y-91737258D02*
X239022500Y-91262742D01*
%TO.C,R70*%
X183727500Y-78737258D02*
X183727500Y-78262742D01*
X184772500Y-78737258D02*
X184772500Y-78262742D01*
%TO.C,R40*%
X203487258Y-83477500D02*
X203012742Y-83477500D01*
X203487258Y-84522500D02*
X203012742Y-84522500D01*
%TO.C,R22*%
X194012742Y-104977500D02*
X194487258Y-104977500D01*
X194012742Y-106022500D02*
X194487258Y-106022500D01*
%TO.C,C7*%
X236109420Y-89990000D02*
X236390580Y-89990000D01*
X236109420Y-91010000D02*
X236390580Y-91010000D01*
%TO.C,CAN1*%
X203140000Y-105840000D02*
X203140000Y-118660000D01*
X203140000Y-118660000D02*
X210860000Y-118660000D01*
X203800000Y-111350000D02*
X203140000Y-111350000D01*
X203800000Y-114760000D02*
X203800000Y-111350000D01*
X204250000Y-116360000D02*
X209750000Y-116360000D01*
X204250000Y-118660000D02*
X204250000Y-116360000D01*
X204360000Y-105840000D02*
X203140000Y-105840000D01*
X204360000Y-108740000D02*
X204360000Y-105840000D01*
X204640000Y-108740000D02*
X204360000Y-108740000D01*
X204900000Y-111350000D02*
X204900000Y-114760000D01*
X204900000Y-114760000D02*
X203800000Y-114760000D01*
X205350000Y-107750000D02*
X206150000Y-107750000D01*
X205400000Y-111350000D02*
X204900000Y-111350000D01*
X205400000Y-116360000D02*
X205400000Y-111350000D01*
X205750000Y-108150000D02*
X205350000Y-107750000D01*
X206150000Y-107750000D02*
X205750000Y-108150000D01*
X206600000Y-112750000D02*
X207400000Y-112750000D01*
X206600000Y-114550000D02*
X206600000Y-112750000D01*
X207400000Y-112750000D02*
X207400000Y-114550000D01*
X207400000Y-114550000D02*
X206600000Y-114550000D01*
X208600000Y-111350000D02*
X209100000Y-111350000D01*
X208600000Y-116360000D02*
X208600000Y-111350000D01*
X209100000Y-111350000D02*
X209100000Y-114760000D01*
X209100000Y-114760000D02*
X210200000Y-114760000D01*
X209640000Y-105840000D02*
X209640000Y-108740000D01*
X209640000Y-108740000D02*
X209360000Y-108740000D01*
X209750000Y-116360000D02*
X209750000Y-118660000D01*
X210200000Y-111350000D02*
X210860000Y-111350000D01*
X210200000Y-114760000D02*
X210200000Y-111350000D01*
X210860000Y-105840000D02*
X209640000Y-105840000D01*
X210860000Y-118660000D02*
X210860000Y-105840000D01*
%TO.C,Q9*%
X252190000Y-62400000D02*
X252190000Y-61750000D01*
X252190000Y-62400000D02*
X252190000Y-63050000D01*
X255310000Y-62400000D02*
X255310000Y-61750000D01*
X255310000Y-62400000D02*
X255310000Y-63050000D01*
X255590000Y-61477500D02*
X255260000Y-61237500D01*
X255590000Y-60997500D01*
X255590000Y-61477500D01*
G36*
X255590000Y-61477500D02*
G01*
X255260000Y-61237500D01*
X255590000Y-60997500D01*
X255590000Y-61477500D01*
G37*
%TO.C,R80*%
X182262742Y-60227500D02*
X182737258Y-60227500D01*
X182262742Y-61272500D02*
X182737258Y-61272500D01*
%TO.C,C17*%
X254490000Y-93859420D02*
X254490000Y-94140580D01*
X255510000Y-93859420D02*
X255510000Y-94140580D01*
%TO.C,C19*%
X207990000Y-105859420D02*
X207990000Y-106140580D01*
X209010000Y-105859420D02*
X209010000Y-106140580D01*
D17*
%TO.C,U1*%
X239902400Y-111481900D02*
X241502600Y-111481900D01*
X241502600Y-109018100D02*
X239902400Y-109018100D01*
D13*
%TO.C,R71*%
X189262742Y-77227500D02*
X189737258Y-77227500D01*
X189262742Y-78272500D02*
X189737258Y-78272500D01*
%TO.C,C53*%
X218865580Y-85740000D02*
X218584420Y-85740000D01*
X218865580Y-86760000D02*
X218584420Y-86760000D01*
%TO.C,C3*%
X244990000Y-101890580D02*
X244990000Y-101609420D01*
X246010000Y-101890580D02*
X246010000Y-101609420D01*
%TO.C,R11*%
X241512742Y-90977500D02*
X241987258Y-90977500D01*
X241512742Y-92022500D02*
X241987258Y-92022500D01*
%TO.C,R35*%
X227977500Y-78987258D02*
X227977500Y-78512742D01*
X229022500Y-78987258D02*
X229022500Y-78512742D01*
%TO.C,R32*%
X208987258Y-80727500D02*
X208512742Y-80727500D01*
X208987258Y-81772500D02*
X208512742Y-81772500D01*
D18*
%TO.C,U10*%
X183250000Y-64700000D02*
X190240000Y-64700000D01*
X183250000Y-65919000D02*
X183250000Y-64700000D01*
X183250000Y-71300000D02*
X183250000Y-70081000D01*
X183270000Y-71300000D02*
X183250000Y-71280000D01*
X190240000Y-64700000D02*
X190250000Y-64700000D01*
X190250000Y-64700000D02*
X190250000Y-65919000D01*
X190250000Y-70081000D02*
X190250000Y-71300000D01*
X190250000Y-71300000D02*
X183270000Y-71300000D01*
D13*
%TO.C,R34*%
X227987258Y-80477500D02*
X227512742Y-80477500D01*
X227987258Y-81522500D02*
X227512742Y-81522500D01*
%TO.C,OCW1*%
X196500000Y-108710000D02*
X199185000Y-108710000D01*
X199185000Y-106790000D02*
X196500000Y-106790000D01*
X199185000Y-108710000D02*
X199185000Y-106790000D01*
%TO.C,C51*%
X222390000Y-66915748D02*
X222390000Y-64084252D01*
X227610000Y-66915748D02*
X227610000Y-64084252D01*
%TO.C,C9*%
X222490000Y-103109420D02*
X222490000Y-103390580D01*
X223510000Y-103109420D02*
X223510000Y-103390580D01*
%TO.C,R42*%
X199737258Y-87227500D02*
X199262742Y-87227500D01*
X199737258Y-88272500D02*
X199262742Y-88272500D01*
%TO.C,C20*%
X195990000Y-100359420D02*
X195990000Y-100640580D01*
X197010000Y-100359420D02*
X197010000Y-100640580D01*
%TO.C,C41*%
X182311252Y-97640000D02*
X180888748Y-97640000D01*
X182311252Y-100360000D02*
X180888748Y-100360000D01*
%TO.C,C52*%
X218240000Y-74859420D02*
X218240000Y-75140580D01*
X219260000Y-74859420D02*
X219260000Y-75140580D01*
%TO.C,D6*%
X192850000Y-61510000D02*
X192850000Y-56000000D01*
X192850000Y-61510000D02*
X196150000Y-61510000D01*
X196150000Y-61510000D02*
X196150000Y-56000000D01*
%TO.C,R21*%
X197012742Y-102227500D02*
X197487258Y-102227500D01*
X197012742Y-103272500D02*
X197487258Y-103272500D01*
%TO.C,R48*%
X217762742Y-72077500D02*
X218237258Y-72077500D01*
X217762742Y-73122500D02*
X218237258Y-73122500D01*
%TO.C,C2*%
X238990000Y-107390580D02*
X238990000Y-107109420D01*
X240010000Y-107390580D02*
X240010000Y-107109420D01*
%TO.C,J1*%
X220640000Y-105990000D02*
X220640000Y-118810000D01*
X220640000Y-118810000D02*
X238360000Y-118810000D01*
X221750000Y-116510000D02*
X237250000Y-116510000D01*
X221750000Y-118810000D02*
X221750000Y-116510000D01*
X221860000Y-105990000D02*
X220640000Y-105990000D01*
X221860000Y-108890000D02*
X221860000Y-105990000D01*
X222140000Y-108890000D02*
X221860000Y-108890000D01*
X222850000Y-107900000D02*
X223650000Y-107900000D01*
X223050000Y-111500000D02*
X220640000Y-111500000D01*
X223050000Y-116510000D02*
X223050000Y-111500000D01*
X223250000Y-108300000D02*
X222850000Y-107900000D01*
X223650000Y-107900000D02*
X223250000Y-108300000D01*
X224700000Y-111500000D02*
X224700000Y-116510000D01*
X225200000Y-111500000D02*
X224700000Y-111500000D01*
X225200000Y-114910000D02*
X225200000Y-111500000D01*
X226300000Y-111500000D02*
X226300000Y-114910000D01*
X226300000Y-114910000D02*
X225200000Y-114910000D01*
X226800000Y-111500000D02*
X226300000Y-111500000D01*
X226800000Y-116510000D02*
X226800000Y-111500000D01*
X228700000Y-112900000D02*
X230300000Y-112900000D01*
X228700000Y-114700000D02*
X228700000Y-112900000D01*
X230300000Y-112900000D02*
X230300000Y-114700000D01*
X230300000Y-114700000D02*
X228700000Y-114700000D01*
X232200000Y-111500000D02*
X232700000Y-111500000D01*
X232200000Y-116510000D02*
X232200000Y-111500000D01*
X232700000Y-111500000D02*
X232700000Y-114910000D01*
X232700000Y-114910000D02*
X233800000Y-114910000D01*
X233800000Y-111500000D02*
X234300000Y-111500000D01*
X233800000Y-114910000D02*
X233800000Y-111500000D01*
X234300000Y-111500000D02*
X234300000Y-116510000D01*
X235950000Y-111500000D02*
X238360000Y-111500000D01*
X235950000Y-116510000D02*
X235950000Y-111500000D01*
X237140000Y-105990000D02*
X237140000Y-108890000D01*
X237140000Y-108890000D02*
X236860000Y-108890000D01*
X237250000Y-116510000D02*
X237250000Y-118810000D01*
X238360000Y-105990000D02*
X237140000Y-105990000D01*
X238360000Y-118810000D02*
X238360000Y-105990000D01*
%TO.C,5V1*%
X196500000Y-106460000D02*
X199185000Y-106460000D01*
X199185000Y-104540000D02*
X196500000Y-104540000D01*
X199185000Y-106460000D02*
X199185000Y-104540000D01*
%TO.C,D4*%
X193100000Y-95510000D02*
X193100000Y-90000000D01*
X193100000Y-95510000D02*
X196400000Y-95510000D01*
X196400000Y-95510000D02*
X196400000Y-90000000D01*
%TO.C,R58*%
X238562742Y-70677500D02*
X239037258Y-70677500D01*
X238562742Y-71722500D02*
X239037258Y-71722500D01*
%TO.C,D5*%
X185250000Y-81960000D02*
X187935000Y-81960000D01*
X187935000Y-80040000D02*
X185250000Y-80040000D01*
X187935000Y-81960000D02*
X187935000Y-80040000D01*
%TO.C,C36*%
X210859420Y-90240000D02*
X211140580Y-90240000D01*
X210859420Y-91260000D02*
X211140580Y-91260000D01*
%TO.C,R85*%
X253987258Y-59127500D02*
X253512742Y-59127500D01*
X253987258Y-60172500D02*
X253512742Y-60172500D01*
%TO.C,C45*%
X189288748Y-109890000D02*
X190711252Y-109890000D01*
X189288748Y-112610000D02*
X190711252Y-112610000D01*
%TO.C,R66*%
X231790000Y-63447936D02*
X231790000Y-67552064D01*
X235210000Y-63447936D02*
X235210000Y-67552064D01*
%TO.C,R82*%
X176977500Y-58987258D02*
X176977500Y-58512742D01*
X178022500Y-58987258D02*
X178022500Y-58512742D01*
%TO.C,R18*%
X199727500Y-106237258D02*
X199727500Y-105762742D01*
X200772500Y-106237258D02*
X200772500Y-105762742D01*
%TO.C,C26*%
X214859420Y-102240000D02*
X215140580Y-102240000D01*
X214859420Y-103260000D02*
X215140580Y-103260000D01*
%TO.C,Q7*%
X188190000Y-80500000D02*
X188190000Y-79850000D01*
X188190000Y-80500000D02*
X188190000Y-81150000D01*
X191310000Y-80500000D02*
X191310000Y-79850000D01*
X191310000Y-80500000D02*
X191310000Y-81150000D01*
X191590000Y-79577500D02*
X191260000Y-79337500D01*
X191590000Y-79097500D01*
X191590000Y-79577500D01*
G36*
X191590000Y-79577500D02*
G01*
X191260000Y-79337500D01*
X191590000Y-79097500D01*
X191590000Y-79577500D01*
G37*
%TO.C,R17*%
X252512742Y-87652500D02*
X252987258Y-87652500D01*
X252512742Y-88697500D02*
X252987258Y-88697500D01*
D17*
%TO.C,R77*%
X188972000Y-54771000D02*
X188972000Y-61629000D01*
X192528000Y-61629000D02*
X192528000Y-54771000D01*
D19*
%TO.C,U11*%
X188178500Y-82774000D02*
X190321500Y-82774000D01*
X188178500Y-85876000D02*
X188178500Y-82774000D01*
X190321500Y-82774000D02*
X190321500Y-85876000D01*
X190321500Y-85876000D02*
X188178500Y-85876000D01*
D15*
X191546500Y-85934500D02*
G75*
G02*
X191245500Y-85934500I-150500J0D01*
G01*
X191245500Y-85934500D02*
G75*
G02*
X191546500Y-85934500I150500J0D01*
G01*
D13*
%TO.C,C59*%
X246488748Y-77015000D02*
X247011252Y-77015000D01*
X246488748Y-78485000D02*
X247011252Y-78485000D01*
%TO.C,R62*%
X237987258Y-87227500D02*
X237512742Y-87227500D01*
X237987258Y-88272500D02*
X237512742Y-88272500D01*
%TO.C,C38*%
X182311252Y-91890000D02*
X180888748Y-91890000D01*
X182311252Y-93710000D02*
X180888748Y-93710000D01*
%TO.C,C31*%
X193240000Y-66609420D02*
X193240000Y-66890580D01*
X194260000Y-66609420D02*
X194260000Y-66890580D01*
%TO.C,R43*%
X197727500Y-74762742D02*
X197727500Y-75237258D01*
X198772500Y-74762742D02*
X198772500Y-75237258D01*
%TO.C,C23*%
X197490000Y-100359420D02*
X197490000Y-100640580D01*
X198510000Y-100359420D02*
X198510000Y-100640580D01*
%TO.C,R46*%
X210737258Y-71977500D02*
X210262742Y-71977500D01*
X210737258Y-73022500D02*
X210262742Y-73022500D01*
%TO.C,R1*%
X179727500Y-61737258D02*
X179727500Y-61262742D01*
X180772500Y-61737258D02*
X180772500Y-61262742D01*
%TO.C,C22*%
X218140580Y-102240000D02*
X217859420Y-102240000D01*
X218140580Y-103260000D02*
X217859420Y-103260000D01*
D17*
%TO.C,U12*%
X179879100Y-59679700D02*
X184120900Y-59679700D01*
X184120900Y-54320300D02*
X179879100Y-54320300D01*
D13*
%TO.C,R54*%
X214290000Y-63447936D02*
X214290000Y-67552064D01*
X217710000Y-63447936D02*
X217710000Y-67552064D01*
%TO.C,R53*%
X216727500Y-74762742D02*
X216727500Y-75237258D01*
X217772500Y-74762742D02*
X217772500Y-75237258D01*
%TO.C,U8*%
X180590000Y-104400000D02*
X180590000Y-108160000D01*
X180590000Y-108160000D02*
X181850000Y-108160000D01*
X187410000Y-104400000D02*
X187410000Y-108160000D01*
X187410000Y-108160000D02*
X186150000Y-108160000D01*
X187640000Y-103360000D02*
X187310000Y-103120000D01*
X187640000Y-102880000D01*
X187640000Y-103360000D01*
G36*
X187640000Y-103360000D02*
G01*
X187310000Y-103120000D01*
X187640000Y-102880000D01*
X187640000Y-103360000D01*
G37*
%TO.C,TH1*%
X234977500Y-92512742D02*
X234977500Y-92987258D01*
X236022500Y-92512742D02*
X236022500Y-92987258D01*
%TO.C,R68*%
X248487258Y-75477500D02*
X248012742Y-75477500D01*
X248487258Y-76522500D02*
X248012742Y-76522500D01*
%TO.C,R8*%
X253762742Y-102477500D02*
X254237258Y-102477500D01*
X253762742Y-103522500D02*
X254237258Y-103522500D01*
%TO.C,C14*%
X238859420Y-95240000D02*
X239140580Y-95240000D01*
X238859420Y-96260000D02*
X239140580Y-96260000D01*
%TO.C,R47*%
X210737258Y-73477500D02*
X210262742Y-73477500D01*
X210737258Y-74522500D02*
X210262742Y-74522500D01*
%TO.C,JP1*%
X242350000Y-116050000D02*
X242350000Y-115450000D01*
X243050000Y-114750000D02*
X244450000Y-114750000D01*
X244450000Y-116750000D02*
X243050000Y-116750000D01*
X245150000Y-115450000D02*
X245150000Y-116050000D01*
X242350000Y-115450000D02*
G75*
G02*
X243050000Y-114750000I699999J1D01*
G01*
X243050000Y-116750000D02*
G75*
G02*
X242350000Y-116050000I-1J699999D01*
G01*
X244450000Y-114750000D02*
G75*
G02*
X245150000Y-115450000I0J-700000D01*
G01*
X245150000Y-116050000D02*
G75*
G02*
X244450000Y-116750000I-700000J0D01*
G01*
D18*
%TO.C,X1*%
X240900000Y-96425000D02*
X242050000Y-96425000D01*
X240900000Y-103075000D02*
X240900000Y-96425000D01*
D10*
X241740500Y-99567500D02*
X241740500Y-99967500D01*
X241740500Y-99967500D02*
X243640500Y-99967500D01*
D18*
X242050000Y-96425000D02*
X243450000Y-96425000D01*
X242050000Y-103075000D02*
X240900000Y-103075000D01*
D10*
X242740500Y-100367500D02*
X242740500Y-100667500D01*
X242750000Y-98810000D02*
X242750000Y-99166000D01*
D18*
X243450000Y-96425000D02*
X244600000Y-96425000D01*
X243450000Y-103075000D02*
X242050000Y-103075000D01*
D10*
X243640500Y-99567500D02*
X241740500Y-99567500D01*
X243640500Y-99967500D02*
X243640500Y-99567500D01*
X243740500Y-99267500D02*
X241640500Y-99267500D01*
X243740500Y-100267500D02*
X241640500Y-100267500D01*
D18*
X244600000Y-96425000D02*
X244600000Y-103075000D01*
X244600000Y-103075000D02*
X243450000Y-103075000D01*
D13*
%TO.C,R37*%
X248012742Y-79077500D02*
X248487258Y-79077500D01*
X248012742Y-80122500D02*
X248487258Y-80122500D01*
%TO.C,C40*%
X182311252Y-94440000D02*
X180888748Y-94440000D01*
X182311252Y-97160000D02*
X180888748Y-97160000D01*
%TO.C,R44*%
X199290000Y-63447936D02*
X199290000Y-67552064D01*
X202710000Y-63447936D02*
X202710000Y-67552064D01*
D18*
%TO.C,U7*%
X185000000Y-90700000D02*
X191990000Y-90700000D01*
X185000000Y-91919000D02*
X185000000Y-90700000D01*
X185000000Y-97300000D02*
X185000000Y-96081000D01*
X185020000Y-97300000D02*
X185000000Y-97280000D01*
X191990000Y-90700000D02*
X192000000Y-90700000D01*
X192000000Y-90700000D02*
X192000000Y-91919000D01*
X192000000Y-96081000D02*
X192000000Y-97300000D01*
X192000000Y-97300000D02*
X185020000Y-97300000D01*
D13*
%TO.C,R79*%
X187487258Y-55727500D02*
X187012742Y-55727500D01*
X187487258Y-56772500D02*
X187012742Y-56772500D01*
%TO.C,C42*%
X186688748Y-97840000D02*
X188111252Y-97840000D01*
X186688748Y-100560000D02*
X188111252Y-100560000D01*
%TO.C,C5*%
X226740000Y-91140580D02*
X226740000Y-90859420D01*
X227760000Y-91140580D02*
X227760000Y-90859420D01*
%TO.C,C34*%
X204609420Y-90740000D02*
X204890580Y-90740000D01*
X204609420Y-91760000D02*
X204890580Y-91760000D01*
D18*
%TO.C,USB1*%
X256391500Y-100050000D02*
X256391500Y-102019000D01*
X256391500Y-107450000D02*
X256391500Y-105481000D01*
X256417000Y-100050000D02*
X256391500Y-100050000D01*
X256417000Y-107450000D02*
X256391500Y-107450000D01*
X258751500Y-100050000D02*
X257868000Y-100050000D01*
X258751500Y-107450000D02*
X257868000Y-107450000D01*
X262142500Y-100050000D02*
X260433500Y-100050000D01*
X262142500Y-100050000D02*
X262142500Y-107450000D01*
X262142500Y-107450000D02*
X260433500Y-107450000D01*
D13*
%TO.C,C39*%
X194109420Y-103490000D02*
X194390580Y-103490000D01*
X194109420Y-104510000D02*
X194390580Y-104510000D01*
%TO.C,SERVO_CNT1*%
X176065000Y-61790000D02*
X176065000Y-63710000D01*
X176065000Y-63710000D02*
X178750000Y-63710000D01*
X178750000Y-61790000D02*
X176065000Y-61790000D01*
%TO.C,R24*%
X201477500Y-109487258D02*
X201477500Y-109012742D01*
X202522500Y-109487258D02*
X202522500Y-109012742D01*
%TO.C,R73*%
X189977500Y-75737258D02*
X189977500Y-75262742D01*
X191022500Y-75737258D02*
X191022500Y-75262742D01*
%TO.C,D1*%
X244000000Y-92460000D02*
X246685000Y-92460000D01*
X246685000Y-90540000D02*
X244000000Y-90540000D01*
X246685000Y-92460000D02*
X246685000Y-90540000D01*
%TO.C,R30*%
X252737258Y-96727500D02*
X252262742Y-96727500D01*
X252737258Y-97772500D02*
X252262742Y-97772500D01*
%TO.C,R87*%
X257487258Y-59127500D02*
X257012742Y-59127500D01*
X257487258Y-60172500D02*
X257012742Y-60172500D01*
%TO.C,C32*%
X212240000Y-66109420D02*
X212240000Y-66390580D01*
X213260000Y-66109420D02*
X213260000Y-66390580D01*
D17*
%TO.C,U5*%
X248570300Y-90629100D02*
X248570300Y-94870900D01*
X253929700Y-94870900D02*
X253929700Y-90629100D01*
D13*
%TO.C,C12*%
X234990000Y-106359420D02*
X234990000Y-106640580D01*
X236010000Y-106359420D02*
X236010000Y-106640580D01*
%TO.C,R28*%
X216512742Y-99227500D02*
X216987258Y-99227500D01*
X216512742Y-100272500D02*
X216987258Y-100272500D01*
%TO.C,R55*%
X218290000Y-63447936D02*
X218290000Y-67552064D01*
X221710000Y-63447936D02*
X221710000Y-67552064D01*
%TO.C,U4*%
X249500000Y-111940000D02*
X247550000Y-111940000D01*
X249500000Y-111940000D02*
X251450000Y-111940000D01*
X249500000Y-117060000D02*
X247550000Y-117060000D01*
X249500000Y-117060000D02*
X251450000Y-117060000D01*
X252440000Y-117295000D02*
X251960000Y-117295000D01*
X252200000Y-116965000D01*
X252440000Y-117295000D01*
G36*
X252440000Y-117295000D02*
G01*
X251960000Y-117295000D01*
X252200000Y-116965000D01*
X252440000Y-117295000D01*
G37*
%TO.C,Q13*%
X248690000Y-62400000D02*
X248690000Y-61750000D01*
X248690000Y-62400000D02*
X248690000Y-63050000D01*
X251810000Y-62400000D02*
X251810000Y-61750000D01*
X251810000Y-62400000D02*
X251810000Y-63050000D01*
X252090000Y-61477500D02*
X251760000Y-61237500D01*
X252090000Y-60997500D01*
X252090000Y-61477500D01*
G36*
X252090000Y-61477500D02*
G01*
X251760000Y-61237500D01*
X252090000Y-60997500D01*
X252090000Y-61477500D01*
G37*
%TO.C,C37*%
X201211252Y-89390000D02*
X199788748Y-89390000D01*
X201211252Y-92110000D02*
X199788748Y-92110000D01*
%TO.C,R12*%
X241512742Y-92477500D02*
X241987258Y-92477500D01*
X241512742Y-93522500D02*
X241987258Y-93522500D01*
%TO.C,C58*%
X236490000Y-92890580D02*
X236490000Y-92609420D01*
X237510000Y-92890580D02*
X237510000Y-92609420D01*
%TO.C,R14*%
X251477500Y-85687742D02*
X251477500Y-86162258D01*
X252522500Y-85687742D02*
X252522500Y-86162258D01*
%TO.C,R45*%
X195290000Y-63447936D02*
X195290000Y-67552064D01*
X198710000Y-63447936D02*
X198710000Y-67552064D01*
%TO.C,Q11*%
X255690000Y-62400000D02*
X255690000Y-61750000D01*
X255690000Y-62400000D02*
X255690000Y-63050000D01*
X258810000Y-62400000D02*
X258810000Y-61750000D01*
X258810000Y-62400000D02*
X258810000Y-63050000D01*
X259090000Y-61477500D02*
X258760000Y-61237500D01*
X259090000Y-60997500D01*
X259090000Y-61477500D01*
G36*
X259090000Y-61477500D02*
G01*
X258760000Y-61237500D01*
X259090000Y-60997500D01*
X259090000Y-61477500D01*
G37*
%TO.C,C21*%
X216890580Y-100740000D02*
X216609420Y-100740000D01*
X216890580Y-101760000D02*
X216609420Y-101760000D01*
%TO.C,D2*%
X244000000Y-95210000D02*
X246685000Y-95210000D01*
X246685000Y-93290000D02*
X244000000Y-93290000D01*
X246685000Y-95210000D02*
X246685000Y-93290000D01*
%TO.C,C61*%
X190740000Y-72359420D02*
X190740000Y-72640580D01*
X191760000Y-72359420D02*
X191760000Y-72640580D01*
%TO.C,R52*%
X218962258Y-87227500D02*
X218487742Y-87227500D01*
X218962258Y-88272500D02*
X218487742Y-88272500D01*
%TO.C,R74*%
X186262742Y-78727500D02*
X186737258Y-78727500D01*
X186262742Y-79772500D02*
X186737258Y-79772500D01*
%TO.C,R60*%
X241737258Y-83477500D02*
X241262742Y-83477500D01*
X241737258Y-84522500D02*
X241262742Y-84522500D01*
%TO.C,C48*%
X199615580Y-85740000D02*
X199334420Y-85740000D01*
X199615580Y-86760000D02*
X199334420Y-86760000D01*
%TO.C,C10*%
X225240000Y-91140580D02*
X225240000Y-90859420D01*
X226260000Y-91140580D02*
X226260000Y-90859420D01*
%TO.C,R89*%
X250487258Y-59127500D02*
X250012742Y-59127500D01*
X250487258Y-60172500D02*
X250012742Y-60172500D01*
%TO.C,U9*%
X186000000Y-71690000D02*
X184050000Y-71690000D01*
X186000000Y-71690000D02*
X187950000Y-71690000D01*
X186000000Y-76810000D02*
X184050000Y-76810000D01*
X186000000Y-76810000D02*
X187950000Y-76810000D01*
X183300000Y-71785000D02*
X183060000Y-71455000D01*
X183540000Y-71455000D01*
X183300000Y-71785000D01*
G36*
X183300000Y-71785000D02*
G01*
X183060000Y-71455000D01*
X183540000Y-71455000D01*
X183300000Y-71785000D01*
G37*
%TO.C,R49*%
X219562742Y-70477500D02*
X220037258Y-70477500D01*
X219562742Y-71522500D02*
X220037258Y-71522500D01*
%TO.C,R38*%
X200762742Y-70477500D02*
X201237258Y-70477500D01*
X200762742Y-71522500D02*
X201237258Y-71522500D01*
%TO.C,C44*%
X189288748Y-106640000D02*
X190711252Y-106640000D01*
X189288748Y-109360000D02*
X190711252Y-109360000D01*
%TO.C,C11*%
X222490000Y-106109420D02*
X222490000Y-106390580D01*
X223510000Y-106109420D02*
X223510000Y-106390580D01*
%TO.C,R50*%
X222737258Y-83477500D02*
X222262742Y-83477500D01*
X222737258Y-84522500D02*
X222262742Y-84522500D01*
%TO.C,C64*%
X179390000Y-66711252D02*
X179390000Y-65288748D01*
X182110000Y-66711252D02*
X182110000Y-65288748D01*
%TO.C,R67*%
X248487258Y-73977500D02*
X248012742Y-73977500D01*
X248487258Y-75022500D02*
X248012742Y-75022500D01*
%TO.C,R_can_termination1*%
X243522936Y-112765000D02*
X243977064Y-112765000D01*
X243522936Y-114235000D02*
X243977064Y-114235000D01*
%TO.C,U3*%
X225390000Y-94390000D02*
X225390000Y-95340000D01*
X225390000Y-104610000D02*
X225390000Y-103660000D01*
X226340000Y-94390000D02*
X225390000Y-94390000D01*
X226340000Y-104610000D02*
X225390000Y-104610000D01*
X234660000Y-94390000D02*
X235610000Y-94390000D01*
X234660000Y-104610000D02*
X235610000Y-104610000D01*
X235610000Y-94390000D02*
X235610000Y-95340000D01*
X235610000Y-104610000D02*
X235610000Y-103660000D01*
X236565000Y-104130000D02*
X235885000Y-104130000D01*
X236225000Y-103660000D01*
X236565000Y-104130000D01*
G36*
X236565000Y-104130000D02*
G01*
X235885000Y-104130000D01*
X236225000Y-103660000D01*
X236565000Y-104130000D01*
G37*
%TO.C,C15*%
X253490000Y-114459420D02*
X253490000Y-114740580D01*
X254510000Y-114459420D02*
X254510000Y-114740580D01*
%TO.C,R88*%
X251512742Y-71040000D02*
X251987258Y-71040000D01*
X251512742Y-72085000D02*
X251987258Y-72085000D01*
%TO.C,C29*%
X215390000Y-94013748D02*
X215390000Y-95436252D01*
X218110000Y-94013748D02*
X218110000Y-95436252D01*
%TO.C,C18*%
X205990000Y-105859420D02*
X205990000Y-106140580D01*
X207010000Y-105859420D02*
X207010000Y-106140580D01*
%TO.C,R2*%
X220012742Y-92727500D02*
X220487258Y-92727500D01*
X220012742Y-93772500D02*
X220487258Y-93772500D01*
%TO.C,Q10*%
X256740000Y-68812500D02*
X256740000Y-68162500D01*
X256740000Y-68812500D02*
X256740000Y-69462500D01*
X259860000Y-68812500D02*
X259860000Y-68162500D01*
X259860000Y-68812500D02*
X259860000Y-69462500D01*
X256790000Y-69975000D02*
X256460000Y-70215000D01*
X256460000Y-69735000D01*
X256790000Y-69975000D01*
G36*
X256790000Y-69975000D02*
G01*
X256460000Y-70215000D01*
X256460000Y-69735000D01*
X256790000Y-69975000D01*
G37*
%TO.C,C46*%
X189288748Y-113140000D02*
X190711252Y-113140000D01*
X189288748Y-115860000D02*
X190711252Y-115860000D01*
%TO.C,C43*%
X189288748Y-104340000D02*
X190711252Y-104340000D01*
X189288748Y-106160000D02*
X190711252Y-106160000D01*
%TO.C,R72*%
X180977500Y-77237258D02*
X180977500Y-76762742D01*
X182022500Y-77237258D02*
X182022500Y-76762742D01*
%TO.C,C54*%
X241390000Y-66915748D02*
X241390000Y-64084252D01*
X246610000Y-66915748D02*
X246610000Y-64084252D01*
%TO.C,R81*%
X185987258Y-60227500D02*
X185512742Y-60227500D01*
X185987258Y-61272500D02*
X185512742Y-61272500D01*
%TO.C,Q12*%
X249740000Y-68812500D02*
X249740000Y-68162500D01*
X249740000Y-68812500D02*
X249740000Y-69462500D01*
X252860000Y-68812500D02*
X252860000Y-68162500D01*
X252860000Y-68812500D02*
X252860000Y-69462500D01*
X249790000Y-69975000D02*
X249460000Y-70215000D01*
X249460000Y-69735000D01*
X249790000Y-69975000D01*
G36*
X249790000Y-69975000D02*
G01*
X249460000Y-70215000D01*
X249460000Y-69735000D01*
X249790000Y-69975000D01*
G37*
%TO.C,R15*%
X249977500Y-87187742D02*
X249977500Y-87662258D01*
X251022500Y-87187742D02*
X251022500Y-87662258D01*
%TO.C,D3*%
X197750000Y-114210000D02*
X200435000Y-114210000D01*
X200435000Y-112290000D02*
X197750000Y-112290000D01*
X200435000Y-114210000D02*
X200435000Y-112290000D01*
%TO.C,R6*%
X241977500Y-107012742D02*
X241977500Y-107487258D01*
X243022500Y-107012742D02*
X243022500Y-107487258D01*
%TO.C,R63*%
X235727500Y-74762742D02*
X235727500Y-75237258D01*
X236772500Y-74762742D02*
X236772500Y-75237258D01*
%TO.C,C16*%
X239740000Y-65640580D02*
X239740000Y-65359420D01*
X240760000Y-65640580D02*
X240760000Y-65359420D01*
%TO.C,C57*%
X237865580Y-85740000D02*
X237584420Y-85740000D01*
X237865580Y-86760000D02*
X237584420Y-86760000D01*
%TO.C,R23*%
X194012742Y-107227500D02*
X194487258Y-107227500D01*
X194012742Y-108272500D02*
X194487258Y-108272500D01*
%TO.C,C65*%
X184740000Y-84359420D02*
X184740000Y-84640580D01*
X185760000Y-84359420D02*
X185760000Y-84640580D01*
%TO.C,R31*%
X249737258Y-96727500D02*
X249262742Y-96727500D01*
X249737258Y-97772500D02*
X249262742Y-97772500D01*
%TO.C,C6*%
X244990000Y-97859420D02*
X244990000Y-98140580D01*
X246010000Y-97859420D02*
X246010000Y-98140580D01*
%TO.C,C25*%
X207640580Y-103240000D02*
X207359420Y-103240000D01*
X207640580Y-104260000D02*
X207359420Y-104260000D01*
%TO.C,R16*%
X254477500Y-91237258D02*
X254477500Y-90762742D01*
X255522500Y-91237258D02*
X255522500Y-90762742D01*
%TO.C,C27*%
X254490000Y-96859420D02*
X254490000Y-97140580D01*
X255510000Y-96859420D02*
X255510000Y-97140580D01*
%TO.C,C8*%
X238859420Y-99490000D02*
X239140580Y-99490000D01*
X238859420Y-100510000D02*
X239140580Y-100510000D01*
%TO.C,C4*%
X238859420Y-102740000D02*
X239140580Y-102740000D01*
X238859420Y-103760000D02*
X239140580Y-103760000D01*
%TO.C,R76*%
X186262742Y-77227500D02*
X186737258Y-77227500D01*
X186262742Y-78272500D02*
X186737258Y-78272500D01*
%TO.C,Q8*%
X253240000Y-68812500D02*
X253240000Y-68162500D01*
X253240000Y-68812500D02*
X253240000Y-69462500D01*
X256360000Y-68812500D02*
X256360000Y-68162500D01*
X256360000Y-68812500D02*
X256360000Y-69462500D01*
X253290000Y-69975000D02*
X252960000Y-70215000D01*
X252960000Y-69735000D01*
X253290000Y-69975000D01*
G36*
X253290000Y-69975000D02*
G01*
X252960000Y-70215000D01*
X252960000Y-69735000D01*
X253290000Y-69975000D01*
G37*
%TO.C,R61*%
X241737258Y-85227500D02*
X241262742Y-85227500D01*
X241737258Y-86272500D02*
X241262742Y-86272500D01*
%TO.C,R10*%
X243145276Y-119677500D02*
X243654724Y-119677500D01*
X243145276Y-120722500D02*
X243654724Y-120722500D01*
D19*
%TO.C,U6*%
X200679900Y-94559600D02*
X214831900Y-94559600D01*
X200679900Y-99802600D02*
X200679900Y-94559600D01*
X214831900Y-94559600D02*
X214831900Y-99802600D01*
X214831900Y-99802600D02*
X200679900Y-99802600D01*
D15*
X200563400Y-100888600D02*
G75*
G02*
X200263400Y-100888600I-150000J0D01*
G01*
X200263400Y-100888600D02*
G75*
G02*
X200563400Y-100888600I150000J0D01*
G01*
X201155900Y-99050100D02*
G75*
G02*
X200855900Y-99050100I-150000J0D01*
G01*
X200855900Y-99050100D02*
G75*
G02*
X201155900Y-99050100I150000J0D01*
G01*
D13*
%TO.C,R36*%
X246987258Y-80677500D02*
X246512742Y-80677500D01*
X246987258Y-81722500D02*
X246512742Y-81722500D01*
%TO.C,R86*%
X258062742Y-71040000D02*
X258537258Y-71040000D01*
X258062742Y-72085000D02*
X258537258Y-72085000D01*
%TO.C,CAN2*%
X211890000Y-105840000D02*
X211890000Y-118660000D01*
X211890000Y-118660000D02*
X219610000Y-118660000D01*
X212550000Y-111350000D02*
X211890000Y-111350000D01*
X212550000Y-114760000D02*
X212550000Y-111350000D01*
X213000000Y-116360000D02*
X218500000Y-116360000D01*
X213000000Y-118660000D02*
X213000000Y-116360000D01*
X213110000Y-105840000D02*
X211890000Y-105840000D01*
X213110000Y-108740000D02*
X213110000Y-105840000D01*
X213390000Y-108740000D02*
X213110000Y-108740000D01*
X213650000Y-111350000D02*
X213650000Y-114760000D01*
X213650000Y-114760000D02*
X212550000Y-114760000D01*
X214100000Y-107750000D02*
X214900000Y-107750000D01*
X214150000Y-111350000D02*
X213650000Y-111350000D01*
X214150000Y-116360000D02*
X214150000Y-111350000D01*
X214500000Y-108150000D02*
X214100000Y-107750000D01*
X214900000Y-107750000D02*
X214500000Y-108150000D01*
X215350000Y-112750000D02*
X216150000Y-112750000D01*
X215350000Y-114550000D02*
X215350000Y-112750000D01*
X216150000Y-112750000D02*
X216150000Y-114550000D01*
X216150000Y-114550000D02*
X215350000Y-114550000D01*
X217350000Y-111350000D02*
X217850000Y-111350000D01*
X217350000Y-116360000D02*
X217350000Y-111350000D01*
X217850000Y-111350000D02*
X217850000Y-114760000D01*
X217850000Y-114760000D02*
X218950000Y-114760000D01*
X218390000Y-105840000D02*
X218390000Y-108740000D01*
X218390000Y-108740000D02*
X218110000Y-108740000D01*
X218500000Y-116360000D02*
X218500000Y-118660000D01*
X218950000Y-111350000D02*
X219610000Y-111350000D01*
X218950000Y-114760000D02*
X218950000Y-111350000D01*
X219610000Y-105840000D02*
X218390000Y-105840000D01*
X219610000Y-118660000D02*
X219610000Y-105840000D01*
%TO.C,R4*%
X220487258Y-94477500D02*
X220012742Y-94477500D01*
X220487258Y-95522500D02*
X220012742Y-95522500D01*
%TO.C,R69*%
X180977500Y-74237258D02*
X180977500Y-73762742D01*
X182022500Y-74237258D02*
X182022500Y-73762742D01*
%TO.C,C35*%
X207859420Y-87740000D02*
X208140580Y-87740000D01*
X207859420Y-88760000D02*
X208140580Y-88760000D01*
%TO.C,R78*%
X187487258Y-58727500D02*
X187012742Y-58727500D01*
X187487258Y-59772500D02*
X187012742Y-59772500D01*
%TO.C,C55*%
X227488748Y-75515000D02*
X228011252Y-75515000D01*
X227488748Y-76985000D02*
X228011252Y-76985000D01*
%TO.C,R84*%
X254562742Y-71040000D02*
X255037258Y-71040000D01*
X254562742Y-72085000D02*
X255037258Y-72085000D01*
%TO.C,C66*%
X187390580Y-57240000D02*
X187109420Y-57240000D01*
X187390580Y-58260000D02*
X187109420Y-58260000D01*
%TO.C,C63*%
X177461252Y-68640000D02*
X176038748Y-68640000D01*
X177461252Y-71360000D02*
X176038748Y-71360000D01*
%TO.C,R57*%
X229487258Y-73477500D02*
X229012742Y-73477500D01*
X229487258Y-74522500D02*
X229012742Y-74522500D01*
%TO.C,R59*%
X236762742Y-72227500D02*
X237237258Y-72227500D01*
X236762742Y-73272500D02*
X237237258Y-73272500D01*
%TO.C,R7*%
X253762742Y-103977500D02*
X254237258Y-103977500D01*
X253762742Y-105022500D02*
X254237258Y-105022500D01*
%TO.C,R27*%
X216512742Y-97727500D02*
X216987258Y-97727500D01*
X216512742Y-98772500D02*
X216987258Y-98772500D01*
%TO.C,R26*%
X201477500Y-106237258D02*
X201477500Y-105762742D01*
X202522500Y-106237258D02*
X202522500Y-105762742D01*
%TO.C,R64*%
X235790000Y-63447936D02*
X235790000Y-67552064D01*
X239210000Y-63447936D02*
X239210000Y-67552064D01*
%TO.C,R33*%
X208977500Y-78987258D02*
X208977500Y-78512742D01*
X210022500Y-78987258D02*
X210022500Y-78512742D01*
%TO.C,R29*%
X198977500Y-100262742D02*
X198977500Y-100737258D01*
X200022500Y-100262742D02*
X200022500Y-100737258D01*
%TO.C,R9*%
X240477500Y-107012742D02*
X240477500Y-107487258D01*
X241522500Y-107012742D02*
X241522500Y-107487258D01*
%TO.C,C67*%
X178140580Y-60490000D02*
X177859420Y-60490000D01*
X178140580Y-61510000D02*
X177859420Y-61510000D01*
%TO.C,C47*%
X199240000Y-74859420D02*
X199240000Y-75140580D01*
X200260000Y-74859420D02*
X200260000Y-75140580D01*
%TO.C,R5*%
X243477500Y-107012742D02*
X243477500Y-107487258D01*
X244522500Y-107012742D02*
X244522500Y-107487258D01*
%TO.C,R83*%
X174727500Y-62762742D02*
X174727500Y-63237258D01*
X175772500Y-62762742D02*
X175772500Y-63237258D01*
%TO.C,R56*%
X229487258Y-71977500D02*
X229012742Y-71977500D01*
X229487258Y-73022500D02*
X229012742Y-73022500D01*
%TO.C,R3*%
X245477500Y-107012742D02*
X245477500Y-107487258D01*
X246522500Y-107012742D02*
X246522500Y-107487258D01*
%TO.C,R39*%
X198762742Y-72077500D02*
X199237258Y-72077500D01*
X198762742Y-73122500D02*
X199237258Y-73122500D01*
%TO.C,C49*%
X208488748Y-75515000D02*
X209011252Y-75515000D01*
X208488748Y-76985000D02*
X209011252Y-76985000D01*
%TO.C,C62*%
X177461252Y-65390000D02*
X176038748Y-65390000D01*
X177461252Y-68110000D02*
X176038748Y-68110000D01*
%TO.C,C50*%
X203390000Y-66915748D02*
X203390000Y-64084252D01*
X208610000Y-66915748D02*
X208610000Y-64084252D01*
%TO.C,R41*%
X203487258Y-84977500D02*
X203012742Y-84977500D01*
X203487258Y-86022500D02*
X203012742Y-86022500D01*
%TO.C,R25*%
X246977500Y-91762742D02*
X246977500Y-92237258D01*
X248022500Y-91762742D02*
X248022500Y-92237258D01*
%TO.C,C1*%
X220340580Y-96090000D02*
X220059420Y-96090000D01*
X220340580Y-97110000D02*
X220059420Y-97110000D01*
%TO.C,R13*%
X195012742Y-112727500D02*
X195487258Y-112727500D01*
X195012742Y-113772500D02*
X195487258Y-113772500D01*
%TO.C,C56*%
X237240000Y-74859420D02*
X237240000Y-75140580D01*
X238260000Y-74859420D02*
X238260000Y-75140580D01*
%TO.C,C30*%
X196740000Y-91140580D02*
X196740000Y-90859420D01*
X197760000Y-91140580D02*
X197760000Y-90859420D01*
%TO.C,C60*%
X177640000Y-74038748D02*
X177640000Y-75461252D01*
X180360000Y-74038748D02*
X180360000Y-75461252D01*
%TO.C,R75*%
X180977500Y-71162258D02*
X180977500Y-70687742D01*
X182022500Y-71162258D02*
X182022500Y-70687742D01*
%TO.C,R51*%
X222737258Y-85227500D02*
X222262742Y-85227500D01*
X222737258Y-86272500D02*
X222262742Y-86272500D01*
%TO.C,R20*%
X194487258Y-101977500D02*
X194012742Y-101977500D01*
X194487258Y-103022500D02*
X194012742Y-103022500D01*
%TO.C,C24*%
X212240000Y-103640580D02*
X212240000Y-103359420D01*
X213260000Y-103640580D02*
X213260000Y-103359420D01*
%TD*%
%LPC*%
%TO.C,JP1*%
G36*
X243600000Y-115000000D02*
G01*
X243900000Y-115000000D01*
X243900000Y-116500000D01*
X243600000Y-116500000D01*
X243600000Y-115000000D01*
G37*
%TD*%
D20*
%TO.C,C28*%
X247500000Y-94225000D03*
X247500000Y-95775000D03*
%TD*%
D21*
%TO.C,R19*%
X193425000Y-100750000D03*
X195075000Y-100750000D03*
%TD*%
D22*
%TO.C,C33*%
X199525000Y-93500000D03*
X197975000Y-93500000D03*
%TD*%
D23*
%TO.C,H3*%
X250000000Y-121000000D03*
%TD*%
D24*
%TO.C,C13*%
X238225000Y-97250000D03*
X239775000Y-97250000D03*
%TD*%
D25*
%TO.C,R65*%
X238500000Y-92325000D03*
X238500000Y-90675000D03*
%TD*%
%TO.C,R70*%
X184250000Y-79325000D03*
X184250000Y-77675000D03*
%TD*%
D26*
%TO.C,R40*%
X204075000Y-84000000D03*
X202425000Y-84000000D03*
%TD*%
D21*
%TO.C,R22*%
X193425000Y-105500000D03*
X195075000Y-105500000D03*
%TD*%
D24*
%TO.C,C7*%
X235475000Y-90500000D03*
X237025000Y-90500000D03*
%TD*%
D27*
%TO.C,CAN1*%
X205750000Y-109350000D03*
D28*
X208250000Y-109350000D03*
%TD*%
D29*
%TO.C,Q9*%
X254700000Y-61462500D03*
X252800000Y-61462500D03*
X253750000Y-63337500D03*
%TD*%
D21*
%TO.C,R80*%
X181675000Y-60750000D03*
X183325000Y-60750000D03*
%TD*%
D20*
%TO.C,C17*%
X255000000Y-93225000D03*
X255000000Y-94775000D03*
%TD*%
%TO.C,C19*%
X208500000Y-105225000D03*
X208500000Y-106775000D03*
%TD*%
D30*
%TO.C,U1*%
X241655000Y-110899999D03*
X241655000Y-110250000D03*
X241655000Y-109600001D03*
X239750000Y-109600001D03*
X239750000Y-110250000D03*
X239750000Y-110899999D03*
%TD*%
D21*
%TO.C,R71*%
X188675000Y-77750000D03*
X190325000Y-77750000D03*
%TD*%
D22*
%TO.C,C53*%
X219500000Y-86250000D03*
X217950000Y-86250000D03*
%TD*%
D31*
%TO.C,C3*%
X245500000Y-102525000D03*
X245500000Y-100975000D03*
%TD*%
D21*
%TO.C,R11*%
X240925000Y-91500000D03*
X242575000Y-91500000D03*
%TD*%
D25*
%TO.C,R35*%
X228500000Y-79575000D03*
X228500000Y-77925000D03*
%TD*%
D26*
%TO.C,R32*%
X209575000Y-81250000D03*
X207925000Y-81250000D03*
%TD*%
D32*
%TO.C,U10*%
X189750000Y-68000000D03*
X183750000Y-68000000D03*
%TD*%
D26*
%TO.C,R34*%
X228575000Y-81000000D03*
X226925000Y-81000000D03*
%TD*%
D33*
%TO.C,OCW1*%
X198437500Y-107750000D03*
X196562500Y-107750000D03*
%TD*%
D34*
%TO.C,C51*%
X225000000Y-68050000D03*
X225000000Y-62950000D03*
%TD*%
D20*
%TO.C,C9*%
X223000000Y-102475000D03*
X223000000Y-104025000D03*
%TD*%
D26*
%TO.C,R42*%
X200325000Y-87750000D03*
X198675000Y-87750000D03*
%TD*%
D20*
%TO.C,C20*%
X196500000Y-99725000D03*
X196500000Y-101275000D03*
%TD*%
D35*
%TO.C,C41*%
X183075000Y-99000000D03*
X180125000Y-99000000D03*
%TD*%
D20*
%TO.C,C52*%
X218750000Y-74225000D03*
X218750000Y-75775000D03*
%TD*%
D36*
%TO.C,D6*%
X194500000Y-60000000D03*
X194500000Y-56000000D03*
%TD*%
D21*
%TO.C,R21*%
X196425000Y-102750000D03*
X198075000Y-102750000D03*
%TD*%
%TO.C,R48*%
X217175000Y-72600000D03*
X218825000Y-72600000D03*
%TD*%
D31*
%TO.C,C2*%
X239500000Y-108025000D03*
X239500000Y-106475000D03*
%TD*%
D27*
%TO.C,J1*%
X223250000Y-109500000D03*
D28*
X225750000Y-109500000D03*
X228250000Y-109500000D03*
X230750000Y-109500000D03*
X233250000Y-109500000D03*
X235750000Y-109500000D03*
%TD*%
D33*
%TO.C,5V1*%
X198437500Y-105500000D03*
X196562500Y-105500000D03*
%TD*%
D36*
%TO.C,D4*%
X194750000Y-94000000D03*
X194750000Y-90000000D03*
%TD*%
D21*
%TO.C,R58*%
X237975000Y-71200000D03*
X239625000Y-71200000D03*
%TD*%
D33*
%TO.C,D5*%
X187187500Y-81000000D03*
X185312500Y-81000000D03*
%TD*%
D24*
%TO.C,C36*%
X210225000Y-90750000D03*
X211775000Y-90750000D03*
%TD*%
D26*
%TO.C,R85*%
X254575000Y-59650000D03*
X252925000Y-59650000D03*
%TD*%
D37*
%TO.C,C45*%
X188525000Y-111250000D03*
X191475000Y-111250000D03*
%TD*%
D38*
%TO.C,R66*%
X233500000Y-63365000D03*
X233500000Y-67635000D03*
%TD*%
D25*
%TO.C,R82*%
X177500000Y-59575000D03*
X177500000Y-57925000D03*
%TD*%
%TO.C,R18*%
X200250000Y-106825000D03*
X200250000Y-105175000D03*
%TD*%
D24*
%TO.C,C26*%
X214225000Y-102750000D03*
X215775000Y-102750000D03*
%TD*%
D29*
%TO.C,Q7*%
X190700000Y-79562500D03*
X188800000Y-79562500D03*
X189750000Y-81437500D03*
%TD*%
D21*
%TO.C,R17*%
X251925000Y-88175000D03*
X253575000Y-88175000D03*
%TD*%
D39*
%TO.C,R77*%
X190750000Y-55298300D03*
X190750000Y-61101700D03*
%TD*%
D40*
%TO.C,U11*%
X191396000Y-85300000D03*
X191396000Y-84650000D03*
X191396000Y-84000000D03*
X191396000Y-83350000D03*
X187104000Y-83350000D03*
X187104000Y-84000000D03*
X187104000Y-84650000D03*
X187104000Y-85300000D03*
D41*
X189250000Y-84325000D03*
%TD*%
D42*
%TO.C,C59*%
X245800000Y-77750000D03*
X247700000Y-77750000D03*
%TD*%
D26*
%TO.C,R62*%
X238575000Y-87750000D03*
X236925000Y-87750000D03*
%TD*%
D43*
%TO.C,C38*%
X183075000Y-92800000D03*
X180125000Y-92800000D03*
%TD*%
D20*
%TO.C,C31*%
X193750000Y-65975000D03*
X193750000Y-67525000D03*
%TD*%
D44*
%TO.C,R43*%
X198250000Y-74175000D03*
X198250000Y-75825000D03*
%TD*%
D20*
%TO.C,C23*%
X198000000Y-99725000D03*
X198000000Y-101275000D03*
%TD*%
D26*
%TO.C,R46*%
X211325000Y-72500000D03*
X209675000Y-72500000D03*
%TD*%
D25*
%TO.C,R1*%
X180250000Y-62325000D03*
X180250000Y-60675000D03*
%TD*%
D22*
%TO.C,C22*%
X218775000Y-102750000D03*
X217225000Y-102750000D03*
%TD*%
D45*
%TO.C,U12*%
X184724150Y-58905000D03*
X184724150Y-57635000D03*
X184724150Y-56365000D03*
X184724150Y-55095000D03*
X179275850Y-55095000D03*
X179275850Y-56365000D03*
X179275850Y-57635000D03*
X179275850Y-58905000D03*
%TD*%
D38*
%TO.C,R54*%
X216000000Y-63365000D03*
X216000000Y-67635000D03*
%TD*%
D44*
%TO.C,R53*%
X217250000Y-74175000D03*
X217250000Y-75825000D03*
%TD*%
D46*
%TO.C,U8*%
X186300000Y-103100000D03*
X184000000Y-103100000D03*
D47*
X184000000Y-109400000D03*
D46*
X181700000Y-103100000D03*
%TD*%
D44*
%TO.C,TH1*%
X235500000Y-91925000D03*
X235500000Y-93575000D03*
%TD*%
D26*
%TO.C,R68*%
X249075000Y-76000000D03*
X247425000Y-76000000D03*
%TD*%
D21*
%TO.C,R8*%
X253175000Y-103000000D03*
X254825000Y-103000000D03*
%TD*%
D24*
%TO.C,C14*%
X238225000Y-95750000D03*
X239775000Y-95750000D03*
%TD*%
D26*
%TO.C,R47*%
X211325000Y-74000000D03*
X209675000Y-74000000D03*
%TD*%
D48*
%TO.C,JP1*%
X243100000Y-115750000D03*
D49*
X244400000Y-115750000D03*
%TD*%
D50*
%TO.C,X1*%
X242750000Y-97700000D03*
X242750000Y-101800000D03*
%TD*%
D21*
%TO.C,R37*%
X247425000Y-79600000D03*
X249075000Y-79600000D03*
%TD*%
D35*
%TO.C,C40*%
X183075000Y-95800000D03*
X180125000Y-95800000D03*
%TD*%
D38*
%TO.C,R44*%
X201000000Y-63365000D03*
X201000000Y-67635000D03*
%TD*%
D32*
%TO.C,U7*%
X191500000Y-94000000D03*
X185500000Y-94000000D03*
%TD*%
D26*
%TO.C,R79*%
X188075000Y-56250000D03*
X186425000Y-56250000D03*
%TD*%
D37*
%TO.C,C42*%
X185925000Y-99200000D03*
X188875000Y-99200000D03*
%TD*%
D31*
%TO.C,C5*%
X227250000Y-91775000D03*
X227250000Y-90225000D03*
%TD*%
D24*
%TO.C,C34*%
X203975000Y-91250000D03*
X205525000Y-91250000D03*
%TD*%
D51*
%TO.C,USB1*%
X256492500Y-105050000D03*
X256492500Y-104400000D03*
X256492500Y-103750000D03*
X256492500Y-103100000D03*
X256492500Y-102450000D03*
D52*
X259592500Y-107200000D03*
D53*
X257142500Y-106900000D03*
X257142500Y-100600000D03*
D52*
X259592500Y-100300000D03*
%TD*%
D24*
%TO.C,C39*%
X193475000Y-104000000D03*
X195025000Y-104000000D03*
%TD*%
D54*
%TO.C,SERVO_CNT1*%
X176812500Y-62750000D03*
X178687500Y-62750000D03*
%TD*%
D55*
%TO.C,H7*%
X200375000Y-79250000D03*
X201143845Y-77393845D03*
X201143845Y-81106155D03*
X203000000Y-76625000D03*
D56*
X203000000Y-79250000D03*
D55*
X203000000Y-81875000D03*
X204856155Y-77393845D03*
X204856155Y-81106155D03*
X205625000Y-79250000D03*
%TD*%
D25*
%TO.C,R24*%
X202000000Y-110075000D03*
X202000000Y-108425000D03*
%TD*%
%TO.C,R73*%
X190500000Y-76325000D03*
X190500000Y-74675000D03*
%TD*%
D33*
%TO.C,D1*%
X245937500Y-91500000D03*
X244062500Y-91500000D03*
%TD*%
D26*
%TO.C,R30*%
X253325000Y-97250000D03*
X251675000Y-97250000D03*
%TD*%
%TO.C,R87*%
X258075000Y-59650000D03*
X256425000Y-59650000D03*
%TD*%
D20*
%TO.C,C32*%
X212750000Y-65475000D03*
X212750000Y-67025000D03*
%TD*%
D57*
%TO.C,U5*%
X253155000Y-90025850D03*
X251885000Y-90025850D03*
X250615000Y-90025850D03*
X249345000Y-90025850D03*
X249345000Y-95474150D03*
X250615000Y-95474150D03*
X251885000Y-95474150D03*
X253155000Y-95474150D03*
%TD*%
D20*
%TO.C,C12*%
X235500000Y-105725000D03*
X235500000Y-107275000D03*
%TD*%
D21*
%TO.C,R28*%
X215925000Y-99750000D03*
X217575000Y-99750000D03*
%TD*%
D38*
%TO.C,R55*%
X220000000Y-63365000D03*
X220000000Y-67635000D03*
%TD*%
D58*
%TO.C,U4*%
X251975000Y-116405000D03*
X251975000Y-115135000D03*
X251975000Y-113865000D03*
X251975000Y-112595000D03*
X247025000Y-112595000D03*
X247025000Y-113865000D03*
X247025000Y-115135000D03*
X247025000Y-116405000D03*
%TD*%
D29*
%TO.C,Q13*%
X251200000Y-61462500D03*
X249300000Y-61462500D03*
X250250000Y-63337500D03*
%TD*%
D35*
%TO.C,C37*%
X201975000Y-90750000D03*
X199025000Y-90750000D03*
%TD*%
D21*
%TO.C,R12*%
X240925000Y-93000000D03*
X242575000Y-93000000D03*
%TD*%
D31*
%TO.C,C58*%
X237000000Y-93525000D03*
X237000000Y-91975000D03*
%TD*%
D44*
%TO.C,R14*%
X252000000Y-85100000D03*
X252000000Y-86750000D03*
%TD*%
D38*
%TO.C,R45*%
X197000000Y-63365000D03*
X197000000Y-67635000D03*
%TD*%
D29*
%TO.C,Q11*%
X258200000Y-61462500D03*
X256300000Y-61462500D03*
X257250000Y-63337500D03*
%TD*%
D22*
%TO.C,C21*%
X217525000Y-101250000D03*
X215975000Y-101250000D03*
%TD*%
D33*
%TO.C,D2*%
X245937500Y-94250000D03*
X244062500Y-94250000D03*
%TD*%
D20*
%TO.C,C61*%
X191250000Y-71725000D03*
X191250000Y-73275000D03*
%TD*%
D26*
%TO.C,R52*%
X219550000Y-87750000D03*
X217900000Y-87750000D03*
%TD*%
D21*
%TO.C,R74*%
X185675000Y-79250000D03*
X187325000Y-79250000D03*
%TD*%
D26*
%TO.C,R60*%
X242325000Y-84000000D03*
X240675000Y-84000000D03*
%TD*%
D22*
%TO.C,C48*%
X200250000Y-86250000D03*
X198700000Y-86250000D03*
%TD*%
D31*
%TO.C,C10*%
X225750000Y-91775000D03*
X225750000Y-90225000D03*
%TD*%
D26*
%TO.C,R89*%
X251075000Y-59650000D03*
X249425000Y-59650000D03*
%TD*%
D23*
%TO.C,H4*%
X266500000Y-75000000D03*
%TD*%
D59*
%TO.C,U9*%
X183525000Y-72345000D03*
X183525000Y-73615000D03*
X183525000Y-74885000D03*
X183525000Y-76155000D03*
X188475000Y-76155000D03*
X188475000Y-74885000D03*
X188475000Y-73615000D03*
X188475000Y-72345000D03*
D60*
X186000000Y-74250000D03*
%TD*%
D21*
%TO.C,R49*%
X218975000Y-71000000D03*
X220625000Y-71000000D03*
%TD*%
%TO.C,R38*%
X200175000Y-71000000D03*
X201825000Y-71000000D03*
%TD*%
D37*
%TO.C,C44*%
X188525000Y-108000000D03*
X191475000Y-108000000D03*
%TD*%
D20*
%TO.C,C11*%
X223000000Y-105475000D03*
X223000000Y-107025000D03*
%TD*%
D26*
%TO.C,R50*%
X223325000Y-84000000D03*
X221675000Y-84000000D03*
%TD*%
D61*
%TO.C,C64*%
X180750000Y-67475000D03*
X180750000Y-64525000D03*
%TD*%
D26*
%TO.C,R67*%
X249075000Y-74500000D03*
X247425000Y-74500000D03*
%TD*%
D62*
%TO.C,R_can_termination1*%
X242837500Y-113500000D03*
X244662500Y-113500000D03*
%TD*%
D63*
%TO.C,U3*%
X236175000Y-103250000D03*
X236175000Y-102750000D03*
X236175000Y-102250000D03*
X236175000Y-101750000D03*
X236175000Y-101250000D03*
X236175000Y-100750000D03*
X236175000Y-100250000D03*
X236175000Y-99750000D03*
X236175000Y-99250000D03*
X236175000Y-98750000D03*
X236175000Y-98250000D03*
X236175000Y-97750000D03*
X236175000Y-97250000D03*
X236175000Y-96750000D03*
X236175000Y-96250000D03*
X236175000Y-95750000D03*
D64*
X234250000Y-93825000D03*
X233750000Y-93825000D03*
X233250000Y-93825000D03*
X232750000Y-93825000D03*
X232250000Y-93825000D03*
X231750000Y-93825000D03*
X231250000Y-93825000D03*
X230750000Y-93825000D03*
X230250000Y-93825000D03*
X229750000Y-93825000D03*
X229250000Y-93825000D03*
X228750000Y-93825000D03*
X228250000Y-93825000D03*
X227750000Y-93825000D03*
X227250000Y-93825000D03*
X226750000Y-93825000D03*
D63*
X224825000Y-95750000D03*
X224825000Y-96250000D03*
X224825000Y-96750000D03*
X224825000Y-97250000D03*
X224825000Y-97750000D03*
X224825000Y-98250000D03*
X224825000Y-98750000D03*
X224825000Y-99250000D03*
X224825000Y-99750000D03*
X224825000Y-100250000D03*
X224825000Y-100750000D03*
X224825000Y-101250000D03*
X224825000Y-101750000D03*
X224825000Y-102250000D03*
X224825000Y-102750000D03*
X224825000Y-103250000D03*
D64*
X226750000Y-105175000D03*
X227250000Y-105175000D03*
X227750000Y-105175000D03*
X228250000Y-105175000D03*
X228750000Y-105175000D03*
X229250000Y-105175000D03*
X229750000Y-105175000D03*
X230250000Y-105175000D03*
X230750000Y-105175000D03*
X231250000Y-105175000D03*
X231750000Y-105175000D03*
X232250000Y-105175000D03*
X232750000Y-105175000D03*
X233250000Y-105175000D03*
X233750000Y-105175000D03*
X234250000Y-105175000D03*
%TD*%
D20*
%TO.C,C15*%
X254000000Y-113825000D03*
X254000000Y-115375000D03*
%TD*%
D21*
%TO.C,R88*%
X250925000Y-71562500D03*
X252575000Y-71562500D03*
%TD*%
D65*
%TO.C,C29*%
X216750000Y-93250000D03*
X216750000Y-96200000D03*
%TD*%
D66*
%TO.C,U2*%
X242400000Y-123600000D03*
X242400000Y-124600000D03*
X242400000Y-125600000D03*
X242400000Y-126600000D03*
X242400000Y-121600000D03*
X242400000Y-122600000D03*
%TD*%
D20*
%TO.C,C18*%
X206500000Y-105225000D03*
X206500000Y-106775000D03*
%TD*%
D21*
%TO.C,R2*%
X219425000Y-93250000D03*
X221075000Y-93250000D03*
%TD*%
D67*
%TO.C,Q10*%
X257350000Y-69750000D03*
X259250000Y-69750000D03*
X258300000Y-67875000D03*
%TD*%
D37*
%TO.C,C46*%
X188525000Y-114500000D03*
X191475000Y-114500000D03*
%TD*%
D68*
%TO.C,C43*%
X188525000Y-105250000D03*
X191475000Y-105250000D03*
%TD*%
D25*
%TO.C,R72*%
X181500000Y-77825000D03*
X181500000Y-76175000D03*
%TD*%
D34*
%TO.C,C54*%
X244000000Y-68050000D03*
X244000000Y-62950000D03*
%TD*%
D26*
%TO.C,R81*%
X186575000Y-60750000D03*
X184925000Y-60750000D03*
%TD*%
D67*
%TO.C,Q12*%
X250350000Y-69750000D03*
X252250000Y-69750000D03*
X251300000Y-67875000D03*
%TD*%
D44*
%TO.C,R15*%
X250500000Y-86600000D03*
X250500000Y-88250000D03*
%TD*%
D55*
%TO.C,H6*%
X211125000Y-57750000D03*
X211893845Y-55893845D03*
X211893845Y-59606155D03*
X213750000Y-55125000D03*
D56*
X213750000Y-57750000D03*
D55*
X213750000Y-60375000D03*
X215606155Y-55893845D03*
X215606155Y-59606155D03*
X216375000Y-57750000D03*
%TD*%
D33*
%TO.C,D3*%
X199687500Y-113250000D03*
X197812500Y-113250000D03*
%TD*%
D44*
%TO.C,R6*%
X242500000Y-106425000D03*
X242500000Y-108075000D03*
%TD*%
%TO.C,R63*%
X236250000Y-74175000D03*
X236250000Y-75825000D03*
%TD*%
D55*
%TO.C,H5*%
X230125000Y-57750000D03*
X230893845Y-55893845D03*
X230893845Y-59606155D03*
X232750000Y-55125000D03*
D56*
X232750000Y-57750000D03*
D55*
X232750000Y-60375000D03*
X234606155Y-55893845D03*
X234606155Y-59606155D03*
X235375000Y-57750000D03*
%TD*%
D31*
%TO.C,C16*%
X240250000Y-66275000D03*
X240250000Y-64725000D03*
%TD*%
D22*
%TO.C,C57*%
X238500000Y-86250000D03*
X236950000Y-86250000D03*
%TD*%
D21*
%TO.C,R23*%
X193425000Y-107750000D03*
X195075000Y-107750000D03*
%TD*%
D20*
%TO.C,C65*%
X185250000Y-83725000D03*
X185250000Y-85275000D03*
%TD*%
D26*
%TO.C,R31*%
X250325000Y-97250000D03*
X248675000Y-97250000D03*
%TD*%
D20*
%TO.C,C6*%
X245500000Y-97225000D03*
X245500000Y-98775000D03*
%TD*%
D55*
%TO.C,H9*%
X238375000Y-79250000D03*
X239143845Y-77393845D03*
X239143845Y-81106155D03*
X241000000Y-76625000D03*
D56*
X241000000Y-79250000D03*
D55*
X241000000Y-81875000D03*
X242856155Y-77393845D03*
X242856155Y-81106155D03*
X243625000Y-79250000D03*
%TD*%
D22*
%TO.C,C25*%
X208275000Y-103750000D03*
X206725000Y-103750000D03*
%TD*%
D25*
%TO.C,R16*%
X255000000Y-91825000D03*
X255000000Y-90175000D03*
%TD*%
D20*
%TO.C,C27*%
X255000000Y-96225000D03*
X255000000Y-97775000D03*
%TD*%
D24*
%TO.C,C8*%
X238225000Y-100000000D03*
X239775000Y-100000000D03*
%TD*%
D23*
%TO.C,H1*%
X173500000Y-75000000D03*
%TD*%
D24*
%TO.C,C4*%
X238225000Y-103250000D03*
X239775000Y-103250000D03*
%TD*%
D21*
%TO.C,R76*%
X185675000Y-77750000D03*
X187325000Y-77750000D03*
%TD*%
D23*
%TO.C,H2*%
X190000000Y-121000000D03*
%TD*%
D67*
%TO.C,Q8*%
X253850000Y-69750000D03*
X255750000Y-69750000D03*
X254800000Y-67875000D03*
%TD*%
D26*
%TO.C,R61*%
X242325000Y-85750000D03*
X240675000Y-85750000D03*
%TD*%
D55*
%TO.C,H8*%
X219375000Y-79250000D03*
X220143845Y-77393845D03*
X220143845Y-81106155D03*
X222000000Y-76625000D03*
D56*
X222000000Y-79250000D03*
D55*
X222000000Y-81875000D03*
X223856155Y-77393845D03*
X223856155Y-81106155D03*
X224625000Y-79250000D03*
%TD*%
D69*
%TO.C,R10*%
X242487500Y-120200000D03*
X244312500Y-120200000D03*
%TD*%
D70*
%TO.C,U6*%
X201005900Y-100888600D03*
X201505900Y-100888600D03*
X202005900Y-100888600D03*
X202505900Y-100888600D03*
X203005900Y-100888600D03*
X203505900Y-100888600D03*
X204005900Y-100888600D03*
X204505900Y-100888600D03*
X205005900Y-100888600D03*
X205505900Y-100888600D03*
X206005900Y-100888600D03*
X206505900Y-100888600D03*
X207005900Y-100888600D03*
X207505900Y-100888600D03*
X208005900Y-100888600D03*
X208505900Y-100888600D03*
X209005900Y-100888600D03*
X209505900Y-100888600D03*
X210005900Y-100888600D03*
X210505900Y-100888600D03*
X211005900Y-100888600D03*
X211505900Y-100888600D03*
X212005900Y-100888600D03*
X212505900Y-100888600D03*
X213005900Y-100888600D03*
X213505900Y-100888600D03*
X214005900Y-100888600D03*
X214505900Y-100888600D03*
X214505900Y-93473600D03*
X214005900Y-93473600D03*
X213505900Y-93473600D03*
X213005900Y-93473600D03*
X212505900Y-93473600D03*
X212005900Y-93473600D03*
X211505900Y-93473600D03*
X211005900Y-93473600D03*
X210505900Y-93473600D03*
X210005900Y-93473600D03*
X209505900Y-93473600D03*
X209005900Y-93473600D03*
X208505900Y-93473600D03*
X208005900Y-93473600D03*
X207505900Y-93473600D03*
X207005900Y-93473600D03*
X206505900Y-93473600D03*
X206005900Y-93473600D03*
X205505900Y-93473600D03*
X205005900Y-93473600D03*
X204505900Y-93473600D03*
X204005900Y-93473600D03*
X203505900Y-93473600D03*
X203005900Y-93473600D03*
X202505900Y-93473600D03*
X202005900Y-93473600D03*
X201505900Y-93473600D03*
X201005900Y-93473600D03*
D71*
X207755900Y-97181100D03*
%TD*%
D26*
%TO.C,R36*%
X247575000Y-81200000D03*
X245925000Y-81200000D03*
%TD*%
D21*
%TO.C,R86*%
X257475000Y-71562500D03*
X259125000Y-71562500D03*
%TD*%
D27*
%TO.C,CAN2*%
X214500000Y-109350000D03*
D28*
X217000000Y-109350000D03*
%TD*%
D26*
%TO.C,R4*%
X221075000Y-95000000D03*
X219425000Y-95000000D03*
%TD*%
D25*
%TO.C,R69*%
X181500000Y-74825000D03*
X181500000Y-73175000D03*
%TD*%
D24*
%TO.C,C35*%
X207225000Y-88250000D03*
X208775000Y-88250000D03*
%TD*%
D26*
%TO.C,R78*%
X188075000Y-59250000D03*
X186425000Y-59250000D03*
%TD*%
D42*
%TO.C,C55*%
X226800000Y-76250000D03*
X228700000Y-76250000D03*
%TD*%
D21*
%TO.C,R84*%
X253975000Y-71562500D03*
X255625000Y-71562500D03*
%TD*%
D22*
%TO.C,C66*%
X188025000Y-57750000D03*
X186475000Y-57750000D03*
%TD*%
D35*
%TO.C,C63*%
X178225000Y-70000000D03*
X175275000Y-70000000D03*
%TD*%
D26*
%TO.C,R57*%
X230075000Y-74000000D03*
X228425000Y-74000000D03*
%TD*%
D21*
%TO.C,R59*%
X236175000Y-72750000D03*
X237825000Y-72750000D03*
%TD*%
%TO.C,R7*%
X253175000Y-104500000D03*
X254825000Y-104500000D03*
%TD*%
%TO.C,R27*%
X215925000Y-98250000D03*
X217575000Y-98250000D03*
%TD*%
D25*
%TO.C,R26*%
X202000000Y-106825000D03*
X202000000Y-105175000D03*
%TD*%
D38*
%TO.C,R64*%
X237500000Y-63365000D03*
X237500000Y-67635000D03*
%TD*%
D25*
%TO.C,R33*%
X209500000Y-79575000D03*
X209500000Y-77925000D03*
%TD*%
D44*
%TO.C,R29*%
X199500000Y-99675000D03*
X199500000Y-101325000D03*
%TD*%
%TO.C,R9*%
X241000000Y-106425000D03*
X241000000Y-108075000D03*
%TD*%
D22*
%TO.C,C67*%
X178775000Y-61000000D03*
X177225000Y-61000000D03*
%TD*%
D20*
%TO.C,C47*%
X199750000Y-74225000D03*
X199750000Y-75775000D03*
%TD*%
D44*
%TO.C,R5*%
X244000000Y-106425000D03*
X244000000Y-108075000D03*
%TD*%
%TO.C,R83*%
X175250000Y-62175000D03*
X175250000Y-63825000D03*
%TD*%
D26*
%TO.C,R56*%
X230075000Y-72500000D03*
X228425000Y-72500000D03*
%TD*%
D44*
%TO.C,R3*%
X246000000Y-106425000D03*
X246000000Y-108075000D03*
%TD*%
D21*
%TO.C,R39*%
X198175000Y-72600000D03*
X199825000Y-72600000D03*
%TD*%
D42*
%TO.C,C49*%
X207800000Y-76250000D03*
X209700000Y-76250000D03*
%TD*%
D35*
%TO.C,C62*%
X178225000Y-66750000D03*
X175275000Y-66750000D03*
%TD*%
D34*
%TO.C,C50*%
X206000000Y-68050000D03*
X206000000Y-62950000D03*
%TD*%
D26*
%TO.C,R41*%
X204075000Y-85500000D03*
X202425000Y-85500000D03*
%TD*%
D44*
%TO.C,R25*%
X247500000Y-91175000D03*
X247500000Y-92825000D03*
%TD*%
D22*
%TO.C,C1*%
X220975000Y-96600000D03*
X219425000Y-96600000D03*
%TD*%
D21*
%TO.C,R13*%
X194425000Y-113250000D03*
X196075000Y-113250000D03*
%TD*%
D20*
%TO.C,C56*%
X237750000Y-74225000D03*
X237750000Y-75775000D03*
%TD*%
D31*
%TO.C,C30*%
X197250000Y-91775000D03*
X197250000Y-90225000D03*
%TD*%
D65*
%TO.C,C60*%
X179000000Y-73275000D03*
X179000000Y-76225000D03*
%TD*%
D25*
%TO.C,R75*%
X181500000Y-71750000D03*
X181500000Y-70100000D03*
%TD*%
D26*
%TO.C,R51*%
X223325000Y-85750000D03*
X221675000Y-85750000D03*
%TD*%
%TO.C,R20*%
X195075000Y-102500000D03*
X193425000Y-102500000D03*
%TD*%
D31*
%TO.C,C24*%
X212750000Y-104275000D03*
X212750000Y-102725000D03*
%TD*%
D72*
%TO.C,Q2*%
X200790000Y-84500000D03*
D73*
X198250000Y-84500000D03*
X195710000Y-84500000D03*
%TD*%
D27*
%TO.C,M1*%
X184250000Y-63400000D03*
D28*
X186750000Y-63400000D03*
X189250000Y-63400000D03*
%TD*%
D74*
%TO.C,J2*%
X195725000Y-120000000D03*
D75*
X198265000Y-120000000D03*
%TD*%
D72*
%TO.C,Q1*%
X201710000Y-73730000D03*
D73*
X204250000Y-73730000D03*
X206790000Y-73730000D03*
%TD*%
D72*
%TO.C,Q5*%
X239710000Y-73750000D03*
D73*
X242250000Y-73750000D03*
X244790000Y-73750000D03*
%TD*%
D27*
%TO.C,RGBLED1*%
X251000000Y-65900000D03*
D28*
X253500000Y-65900000D03*
X256000000Y-65900000D03*
X258500000Y-65900000D03*
%TD*%
D72*
%TO.C,Q3*%
X220710000Y-73730000D03*
D73*
X223250000Y-73730000D03*
X225790000Y-73730000D03*
%TD*%
D74*
%TO.C,J3*%
X251250000Y-109250000D03*
D75*
X251250000Y-106710000D03*
X251250000Y-104170000D03*
X251250000Y-101630000D03*
X251250000Y-99090000D03*
%TD*%
D72*
%TO.C,Q4*%
X219790000Y-84500000D03*
D73*
X217250000Y-84500000D03*
X214710000Y-84500000D03*
%TD*%
D72*
%TO.C,Q6*%
X238790000Y-84500000D03*
D73*
X236250000Y-84500000D03*
X233710000Y-84500000D03*
%TD*%
%LPD*%
M02*
