M48
; DRILL file {KiCad 9.0.3} date 2025-08-05T12:01:24+0900
; FORMAT={-:-/ absolute / inch / decimal}
; #@! TF.CreationDate,2025-08-05T12:01:24+09:00
; #@! TF.GenerationSoftware,Kicad,Pcbnew,9.0.3
; #@! TF.FileFunction,Plated,1,2,PTH
FMAT,2
INCH
; #@! TA.AperFunction,Plated,PTH,ComponentDrill
T1C0.0079
; #@! TA.AperFunction,Plated,PTH,ViaDrill
T2C0.0118
; #@! TA.AperFunction,Plated,PTH,ViaDrill
T3C0.0197
; #@! TA.AperFunction,Plated,PTH,ComponentDrill
T4C0.0197
; #@! TA.AperFunction,Plated,PTH,ComponentDrill
T5C0.0236
; #@! TA.AperFunction,Plated,PTH,ComponentDrill
T6C0.0374
; #@! TA.AperFunction,Plated,PTH,ComponentDrill
T7C0.0394
; #@! TA.AperFunction,Plated,PTH,ComponentDrill
T8C0.0433
; #@! TA.AperFunction,Plated,PTH,ComponentDrill
T9C0.1378
%
G90
G05
T1
X2.315Y-1.6457
X2.315Y-1.6929
X2.315Y-1.7402
X2.3701Y-1.6457
X2.3701Y-1.6929
X2.3701Y-1.7402
T2
X1.7323Y-1.8307
X1.8701Y-1.3681
X1.8701Y-1.4075
X1.8701Y-1.4469
X1.8701Y-1.4862
X1.8701Y-1.5256
X1.8701Y-1.565
X1.9587Y-1.3681
X1.9587Y-1.4075
X1.9587Y-1.4469
X1.9587Y-1.4862
X1.9587Y-1.5256
X1.9587Y-1.565
X1.9587Y-1.6437
X1.9783Y-1.8209
X2.0276Y-1.6043
X2.0374Y-1.7224
X2.0571Y-1.6043
X2.0571Y-2.7854
X2.0571Y-2.9823
X2.0571Y-3.1791
X2.0669Y-2.4016
X2.0669Y-2.4409
X2.0669Y-2.5
X2.0669Y-2.5394
X2.0669Y-2.5787
X2.0669Y-2.628
X2.0669Y-2.6673
X2.0669Y-2.7067
X2.0768Y-1.1221
X2.0768Y-1.7224
X2.0778Y-1.0888
X2.0866Y-1.6043
X2.1161Y-1.6043
X2.1161Y-1.7224
X2.126Y-1.3535
X2.126Y-1.378
X2.1555Y-2.4016
X2.1555Y-2.4409
X2.1555Y-2.5
X2.1555Y-2.5394
X2.1555Y-2.5787
X2.1555Y-2.628
X2.1555Y-2.6673
X2.1555Y-2.7067
X2.1752Y-3.3465
X2.1949Y-1.5638
X2.2047Y-2.8839
X2.2047Y-2.9823
X2.2047Y-3.1201
X2.2047Y-3.1693
X2.2244Y-1.3189
X2.2244Y-1.5874
X2.2835Y-3.1201
X2.3031Y-1.5945
X2.3064Y-3.2743
X2.313Y-2.9823
X2.313Y-3.4843
X2.3435Y-2.0299
X2.3478Y-2.104
X2.3524Y-3.1201
X2.3583Y-2.7539
X2.3632Y-1.8898
X2.3898Y-2.9035
X2.3917Y-2.9429
X2.3917Y-2.9823
X2.3917Y-3.0217
X2.3917Y-3.061
X2.3917Y-3.1102
X2.3917Y-3.1496
X2.3917Y-3.189
X2.3917Y-3.2382
X2.3917Y-3.2776
X2.3917Y-3.3169
X2.4219Y-1.7919
X2.4222Y-1.0728
X2.4508Y-2.4114
X2.4508Y-2.5295
X2.4902Y-1.5748
X2.5394Y-2.1752
X2.5492Y-1.9882
X2.5591Y-1.7028
X2.5591Y-1.7717
X2.5787Y-3.7008
X2.5984Y-2.8051
X2.6181Y-1.5453
X2.628Y-2.5886
X2.628Y-2.6772
X2.6353Y-3.2283
X2.6378Y-2.2374
X2.6772Y-2.5886
X2.6772Y-2.6772
X2.7264Y-2.5886
X2.7264Y-2.6772
X2.7341Y-2.1774
X2.7565Y-2.1994
X2.815Y-2.5886
X2.815Y-2.6476
X2.8248Y-1.565
X2.8567Y-2.6008
X2.874Y-2.5591
X2.9035Y-3.0118
X2.9134Y-2.8839
X2.9232Y-3.1102
X2.9232Y-3.6909
X2.9232Y-3.8878
X2.9331Y-2.313
X2.9331Y-2.3425
X2.9331Y-2.372
X2.9331Y-3.4941
X2.9429Y-2.5591
X2.9429Y-2.6181
X2.9429Y-2.6772
X3.0118Y-2.5689
X3.0118Y-2.6181
X3.0118Y-2.6772
X3.0374Y-2.8419
X3.0395Y-2.9251
X3.0417Y-2.5394
X3.0512Y-3.1299
X3.0846Y-2.8671
X3.0905Y-2.253
X3.1004Y-2.5492
X3.1004Y-2.5787
X3.1004Y-2.6083
X3.1004Y-2.6378
X3.106Y-2.8248
X3.1154Y-2.325
X3.124Y-2.2146
X3.1341Y-2.7883
X3.1398Y-2.5492
X3.1398Y-2.5787
X3.1398Y-2.6083
X3.1398Y-2.6378
X3.1693Y-3.1693
X3.1791Y-2.5492
X3.1791Y-2.5787
X3.1791Y-2.6083
X3.1791Y-2.6378
X3.2137Y-2.8159
X3.2185Y-2.5492
X3.2185Y-2.5787
X3.2185Y-2.6083
X3.2185Y-2.6378
X3.2443Y-2.8088
X3.2579Y-2.5492
X3.2579Y-2.5787
X3.2579Y-2.6083
X3.2579Y-2.6378
X3.2784Y-2.9224
X3.2972Y-2.5492
X3.2972Y-2.5787
X3.2972Y-2.6083
X3.2972Y-2.6378
X3.2991Y-2.8919
X3.3071Y-2.0571
X3.3169Y-2.9626
X3.3209Y-2.8692
X3.3404Y-2.8445
X3.3504Y-1.7461
X3.3504Y-1.7697
X3.3504Y-1.7933
X3.3506Y-2.8051
X3.3526Y-2.1234
X3.365Y-1.4775
X3.3661Y-2.5591
X3.3661Y-2.5984
X3.3661Y-2.6476
X3.3699Y-2.2667
X3.372Y-2.1457
X3.3849Y-2.4005
X3.3858Y-2.687
X3.3957Y-1.4469
X3.4055Y-2.505
X3.4331Y-2.3809
X3.4368Y-2.4997
X3.4449Y-2.5689
X3.4449Y-2.6181
X3.4626Y-2.3809
X3.5039Y-2.4114
X3.5039Y-2.5984
X3.5236Y-3.2008
X3.5335Y-2.4114
X3.5531Y-2.5984
X3.563Y-1.5846
X3.563Y-2.9331
X3.5827Y-3.2579
X3.6024Y-2.5984
X3.622Y-2.6378
X3.627Y-2.9272
X3.6368Y-2.9592
X3.6483Y-2.8799
X3.7047Y-2.7264
X3.7228Y-3.058
X3.7441Y-2.8445
X3.7597Y-2.3177
X3.7697Y-2.4705
X3.8091Y-2.6535
X3.8248Y-2.7402
X3.9141Y-2.618
X3.9173Y-2.4213
X3.9213Y-2.6568
X3.9213Y-2.9133
X3.9232Y-2.7067
X3.9665Y-2.5295
X3.9983Y-2.9681
X4.0187Y-1.9587
X4.0294Y-2.963
X4.065Y-1.7224
X4.065Y-1.7913
X4.065Y-1.8898
X4.0945Y-2.9626
X4.1049Y-2.6077
X4.1142Y-2.3611
X4.1172Y-1.6437
X4.1172Y-1.6732
X4.1172Y-1.7028
X4.1298Y-2.8412
X4.1368Y-3.1466
X4.142Y-2.9648
X4.183Y-2.4114
X4.187Y-2.5468
X4.1901Y-2.3827
X4.1955Y-2.7694
X4.2028Y-2.5787
X4.2029Y-2.3543
X4.2126Y-2.8169
X4.2126Y-2.622
X4.2202Y-2.8455
X4.2424Y-2.953
X4.252Y-3.1842
X4.2632Y-2.6093
X4.2677Y-2.5415
X4.2913Y-2.4537
X4.311Y-1.5945
X4.3209Y-2.4537
X4.3358Y-3.0354
X4.3602Y-2.4537
X4.3612Y-2.5398
X4.3681Y-2.7972
X4.3701Y-2.8288
X4.3748Y-3.1389
X4.3898Y-2.4409
X4.3898Y-3.1103
X4.3996Y-3.061
X4.4242Y-2.7069
X4.4488Y-2.3819
X4.4588Y-2.4118
X4.4685Y-2.6575
X4.4783Y-2.7776
X4.5768Y-3.4449
X4.5965Y-2.0866
X4.5965Y-2.1161
X4.6553Y-3.1909
X4.6654Y-3.1108
X4.6806Y-3.1738
X4.685Y-3.3957
X4.7672Y-2.0635
X4.7765Y-2.8856
X4.7933Y-2.6772
X4.8019Y-2.3947
X4.8169Y-1.9488
X4.8228Y-2.8632
X4.8425Y-1.6437
X4.8602Y-2.1083
X4.8839Y-2.1319
X4.9217Y-2.8238
X4.9411Y-2.9037
X4.9606Y-3.0217
X5.0197Y-2.5492
X5.0669Y-3.251
X5.0761Y-1.634
X5.2057Y-1.6043
X5.2461Y-3.0217
X5.3091Y-1.128
X5.3091Y-1.1614
X5.3091Y-1.1909
T3
X2.0571Y-2.3327
X2.2539Y-1.9587
X2.2539Y-2.1949
X2.687Y-1.624
X2.687Y-1.8209
X2.687Y-2.0177
X2.7067Y-3.4154
X2.7559Y-2.0177
X2.7559Y-3.4154
X2.7657Y-1.624
X2.7756Y-1.8209
X2.8051Y-3.4154
X3.0512Y-1.378
X3.0512Y-1.5157
X3.1299Y-1.378
X3.1299Y-1.5157
X3.1988Y-1.5157
X3.2087Y-1.378
X3.435Y-1.6437
X3.435Y-1.8406
X3.435Y-2.0276
X3.4449Y-2.1752
X3.4843Y-2.1752
X3.4941Y-2.0276
X3.5138Y-1.6437
X3.5138Y-1.8406
X3.7992Y-1.378
X3.7992Y-1.5157
X3.878Y-1.378
X3.878Y-1.5157
X3.9567Y-1.378
X3.9567Y-1.5157
X4.1424Y-1.349
X4.1615Y-1.8504
X4.1634Y-2.0276
X4.1831Y-1.6535
X4.2126Y-2.2235
X4.2421Y-2.0276
X4.2618Y-1.6535
X4.2618Y-1.8504
X4.4783Y-1.4272
X4.5472Y-1.3878
X4.5472Y-1.5157
X4.626Y-1.3878
X4.626Y-1.5157
X4.6752Y-2.9626
X4.6949Y-1.5157
X4.7047Y-1.3878
X4.7539Y-2.2343
X4.813Y-0.9252
X4.813Y-1.1417
X4.813Y-1.3583
X4.8386Y-3.2343
X4.9016Y-1.7028
X4.9016Y-1.8799
X4.9016Y-2.0472
X5.0394Y-0.9252
X5.0591Y-1.7028
X5.0591Y-1.8799
X5.0591Y-2.0472
X5.0591Y-2.2343
X5.2559Y-0.9252
X5.2559Y-1.6831
X5.374Y-1.8012
X5.3839Y-1.1713
X5.3839Y-1.4862
X5.5315Y-1.4862
X5.6102Y-1.8012
T4
X2.9085Y-1.8898
X2.9387Y-1.8167
X2.9387Y-1.9628
X3.0118Y-1.7864
X3.0118Y-1.9931
X3.0849Y-1.8167
X3.0849Y-1.9628
X3.1152Y-1.8898
X3.3317Y-1.0433
X3.362Y-0.9702
X3.362Y-1.1164
X3.435Y-0.94
X3.435Y-1.1467
X3.5081Y-0.9702
X3.5081Y-1.1164
X3.5384Y-1.0433
X3.6565Y-1.8898
X3.6868Y-1.8167
X3.6868Y-1.9628
X3.7598Y-1.7864
X3.7598Y-1.9931
X3.8329Y-1.8167
X3.8329Y-1.9628
X3.8632Y-1.8898
X4.0797Y-1.0433
X4.11Y-0.9702
X4.11Y-1.1164
X4.1831Y-0.94
X4.1831Y-1.1467
X4.2561Y-0.9702
X4.2561Y-1.1164
X4.2864Y-1.0433
X4.4045Y-1.8898
X4.4348Y-1.8167
X4.4348Y-1.9628
X4.5079Y-1.7864
X4.5079Y-1.9931
X4.581Y-1.8167
X4.581Y-1.9628
X4.6112Y-1.8898
T6
X2.2736Y-1.2657
X2.372Y-1.2657
X2.4705Y-1.2657
X3.1201Y-3.0748
X3.2185Y-3.0748
X3.4646Y-3.0748
X3.563Y-3.0748
X3.8091Y-3.0807
X3.9075Y-3.0807
X4.0059Y-3.0807
X4.1043Y-3.0807
X4.2028Y-3.0807
X4.3012Y-3.0807
X4.9016Y-1.3642
X5.0Y-1.3642
X5.0984Y-1.3642
X5.1969Y-1.3642
T7
X2.7254Y-3.4941
X2.8254Y-3.4941
X2.9528Y-1.0827
X3.1496Y-1.0827
X4.4639Y-1.0827
X4.6607Y-1.0827
X4.9016Y-2.6709
X4.9016Y-2.7709
X4.9016Y-2.8709
X4.9016Y-2.9709
X4.9016Y-3.0709
T8
X2.7248Y-2.0965
X2.8248Y-2.0965
X2.9248Y-2.0965
X2.961Y-1.6724
X3.061Y-1.6724
X3.161Y-1.6724
X3.4728Y-2.0965
X3.5728Y-2.0965
X3.6728Y-2.0965
X3.7091Y-1.6724
X3.8091Y-1.6724
X3.9091Y-1.6724
X4.2209Y-2.0965
X4.3209Y-2.0965
X4.4209Y-2.0965
X4.4571Y-1.6732
X4.5571Y-1.6732
X4.6571Y-1.6732
T9
X3.0118Y-1.8898
X3.435Y-1.0433
X3.7598Y-1.8898
X4.1831Y-1.0433
X4.5079Y-1.8898
T5
G00X5.2146Y-2.7431
M15
G01X5.2618Y-2.7431
M16
G05
G00X5.2146Y-2.9656
M15
G01X5.2618Y-2.9656
M16
G05
M30
