%TF.GenerationSoftware,KiCad,Pcbnew,9.0.0*%
%TF.CreationDate,2025-06-23T16:23:01+09:00*%
%TF.ProjectId,pcb_connector_lan(outer),7063625f-636f-46e6-9e65-63746f725f6c,00*%
%TF.SameCoordinates,Original*%
%TF.FileFunction,Legend,Top*%
%TF.FilePolarity,Positive*%
%FSLAX46Y46*%
G04 Gerber Fmt 4.6, Leading zero omitted, Abs format (unit mm)*
G04 Created by KiCad (PCBNEW 9.0.0) date 2025-06-23 16:23:01*
%MOMM*%
%LPD*%
G01*
G04 APERTURE LIST*
%ADD10C,0.125000*%
%ADD11C,0.150000*%
%ADD12C,0.000000*%
%ADD13C,0.120000*%
%ADD14C,7.500000*%
%ADD15R,1.350000X1.350000*%
%ADD16O,1.350000X1.350000*%
%ADD17R,1.700000X1.700000*%
%ADD18O,1.700000X1.700000*%
G04 APERTURE END LIST*
D10*
X50475760Y-57527987D02*
X50142427Y-57051796D01*
X49904332Y-57527987D02*
X49904332Y-56527987D01*
X49904332Y-56527987D02*
X50285284Y-56527987D01*
X50285284Y-56527987D02*
X50380522Y-56575606D01*
X50380522Y-56575606D02*
X50428141Y-56623225D01*
X50428141Y-56623225D02*
X50475760Y-56718463D01*
X50475760Y-56718463D02*
X50475760Y-56861320D01*
X50475760Y-56861320D02*
X50428141Y-56956558D01*
X50428141Y-56956558D02*
X50380522Y-57004177D01*
X50380522Y-57004177D02*
X50285284Y-57051796D01*
X50285284Y-57051796D02*
X49904332Y-57051796D01*
X50904332Y-57004177D02*
X51237665Y-57004177D01*
X51380522Y-57527987D02*
X50904332Y-57527987D01*
X50904332Y-57527987D02*
X50904332Y-56527987D01*
X50904332Y-56527987D02*
X51380522Y-56527987D01*
X51666237Y-56527987D02*
X51999570Y-57527987D01*
X51999570Y-57527987D02*
X52332903Y-56527987D01*
X52856713Y-56527987D02*
X52951951Y-56527987D01*
X52951951Y-56527987D02*
X53047189Y-56575606D01*
X53047189Y-56575606D02*
X53094808Y-56623225D01*
X53094808Y-56623225D02*
X53142427Y-56718463D01*
X53142427Y-56718463D02*
X53190046Y-56908939D01*
X53190046Y-56908939D02*
X53190046Y-57147034D01*
X53190046Y-57147034D02*
X53142427Y-57337510D01*
X53142427Y-57337510D02*
X53094808Y-57432748D01*
X53094808Y-57432748D02*
X53047189Y-57480368D01*
X53047189Y-57480368D02*
X52951951Y-57527987D01*
X52951951Y-57527987D02*
X52856713Y-57527987D01*
X52856713Y-57527987D02*
X52761475Y-57480368D01*
X52761475Y-57480368D02*
X52713856Y-57432748D01*
X52713856Y-57432748D02*
X52666237Y-57337510D01*
X52666237Y-57337510D02*
X52618618Y-57147034D01*
X52618618Y-57147034D02*
X52618618Y-56908939D01*
X52618618Y-56908939D02*
X52666237Y-56718463D01*
X52666237Y-56718463D02*
X52713856Y-56623225D01*
X52713856Y-56623225D02*
X52761475Y-56575606D01*
X52761475Y-56575606D02*
X52856713Y-56527987D01*
X53809094Y-56527987D02*
X53904332Y-56527987D01*
X53904332Y-56527987D02*
X53999570Y-56575606D01*
X53999570Y-56575606D02*
X54047189Y-56623225D01*
X54047189Y-56623225D02*
X54094808Y-56718463D01*
X54094808Y-56718463D02*
X54142427Y-56908939D01*
X54142427Y-56908939D02*
X54142427Y-57147034D01*
X54142427Y-57147034D02*
X54094808Y-57337510D01*
X54094808Y-57337510D02*
X54047189Y-57432748D01*
X54047189Y-57432748D02*
X53999570Y-57480368D01*
X53999570Y-57480368D02*
X53904332Y-57527987D01*
X53904332Y-57527987D02*
X53809094Y-57527987D01*
X53809094Y-57527987D02*
X53713856Y-57480368D01*
X53713856Y-57480368D02*
X53666237Y-57432748D01*
X53666237Y-57432748D02*
X53618618Y-57337510D01*
X53618618Y-57337510D02*
X53570999Y-57147034D01*
X53570999Y-57147034D02*
X53570999Y-56908939D01*
X53570999Y-56908939D02*
X53618618Y-56718463D01*
X53618618Y-56718463D02*
X53666237Y-56623225D01*
X53666237Y-56623225D02*
X53713856Y-56575606D01*
X53713856Y-56575606D02*
X53809094Y-56527987D01*
D11*
X51304076Y-59661952D02*
X50618362Y-59661952D01*
X50961219Y-59661952D02*
X50961219Y-58461952D01*
X50961219Y-58461952D02*
X50846933Y-58633381D01*
X50846933Y-58633381D02*
X50732648Y-58747667D01*
X50732648Y-58747667D02*
X50618362Y-58804810D01*
X52675505Y-58576238D02*
X52732648Y-58519095D01*
X52732648Y-58519095D02*
X52846934Y-58461952D01*
X52846934Y-58461952D02*
X53132648Y-58461952D01*
X53132648Y-58461952D02*
X53246934Y-58519095D01*
X53246934Y-58519095D02*
X53304076Y-58576238D01*
X53304076Y-58576238D02*
X53361219Y-58690524D01*
X53361219Y-58690524D02*
X53361219Y-58804810D01*
X53361219Y-58804810D02*
X53304076Y-58976238D01*
X53304076Y-58976238D02*
X52618362Y-59661952D01*
X52618362Y-59661952D02*
X53361219Y-59661952D01*
X54675505Y-58461952D02*
X55418362Y-58461952D01*
X55418362Y-58461952D02*
X55018362Y-58919095D01*
X55018362Y-58919095D02*
X55189791Y-58919095D01*
X55189791Y-58919095D02*
X55304077Y-58976238D01*
X55304077Y-58976238D02*
X55361219Y-59033381D01*
X55361219Y-59033381D02*
X55418362Y-59147667D01*
X55418362Y-59147667D02*
X55418362Y-59433381D01*
X55418362Y-59433381D02*
X55361219Y-59547667D01*
X55361219Y-59547667D02*
X55304077Y-59604810D01*
X55304077Y-59604810D02*
X55189791Y-59661952D01*
X55189791Y-59661952D02*
X54846934Y-59661952D01*
X54846934Y-59661952D02*
X54732648Y-59604810D01*
X54732648Y-59604810D02*
X54675505Y-59547667D01*
X57361220Y-58861952D02*
X57361220Y-59661952D01*
X57075505Y-58404810D02*
X56789791Y-59261952D01*
X56789791Y-59261952D02*
X57532648Y-59261952D01*
X59475505Y-58461952D02*
X58904077Y-58461952D01*
X58904077Y-58461952D02*
X58846934Y-59033381D01*
X58846934Y-59033381D02*
X58904077Y-58976238D01*
X58904077Y-58976238D02*
X59018363Y-58919095D01*
X59018363Y-58919095D02*
X59304077Y-58919095D01*
X59304077Y-58919095D02*
X59418363Y-58976238D01*
X59418363Y-58976238D02*
X59475505Y-59033381D01*
X59475505Y-59033381D02*
X59532648Y-59147667D01*
X59532648Y-59147667D02*
X59532648Y-59433381D01*
X59532648Y-59433381D02*
X59475505Y-59547667D01*
X59475505Y-59547667D02*
X59418363Y-59604810D01*
X59418363Y-59604810D02*
X59304077Y-59661952D01*
X59304077Y-59661952D02*
X59018363Y-59661952D01*
X59018363Y-59661952D02*
X58904077Y-59604810D01*
X58904077Y-59604810D02*
X58846934Y-59547667D01*
X61475506Y-58461952D02*
X61246934Y-58461952D01*
X61246934Y-58461952D02*
X61132648Y-58519095D01*
X61132648Y-58519095D02*
X61075506Y-58576238D01*
X61075506Y-58576238D02*
X60961220Y-58747667D01*
X60961220Y-58747667D02*
X60904077Y-58976238D01*
X60904077Y-58976238D02*
X60904077Y-59433381D01*
X60904077Y-59433381D02*
X60961220Y-59547667D01*
X60961220Y-59547667D02*
X61018363Y-59604810D01*
X61018363Y-59604810D02*
X61132648Y-59661952D01*
X61132648Y-59661952D02*
X61361220Y-59661952D01*
X61361220Y-59661952D02*
X61475506Y-59604810D01*
X61475506Y-59604810D02*
X61532648Y-59547667D01*
X61532648Y-59547667D02*
X61589791Y-59433381D01*
X61589791Y-59433381D02*
X61589791Y-59147667D01*
X61589791Y-59147667D02*
X61532648Y-59033381D01*
X61532648Y-59033381D02*
X61475506Y-58976238D01*
X61475506Y-58976238D02*
X61361220Y-58919095D01*
X61361220Y-58919095D02*
X61132648Y-58919095D01*
X61132648Y-58919095D02*
X61018363Y-58976238D01*
X61018363Y-58976238D02*
X60961220Y-59033381D01*
X60961220Y-59033381D02*
X60904077Y-59147667D01*
X62904077Y-58461952D02*
X63704077Y-58461952D01*
X63704077Y-58461952D02*
X63189791Y-59661952D01*
X65246934Y-58976238D02*
X65132649Y-58919095D01*
X65132649Y-58919095D02*
X65075506Y-58861952D01*
X65075506Y-58861952D02*
X65018363Y-58747667D01*
X65018363Y-58747667D02*
X65018363Y-58690524D01*
X65018363Y-58690524D02*
X65075506Y-58576238D01*
X65075506Y-58576238D02*
X65132649Y-58519095D01*
X65132649Y-58519095D02*
X65246934Y-58461952D01*
X65246934Y-58461952D02*
X65475506Y-58461952D01*
X65475506Y-58461952D02*
X65589792Y-58519095D01*
X65589792Y-58519095D02*
X65646934Y-58576238D01*
X65646934Y-58576238D02*
X65704077Y-58690524D01*
X65704077Y-58690524D02*
X65704077Y-58747667D01*
X65704077Y-58747667D02*
X65646934Y-58861952D01*
X65646934Y-58861952D02*
X65589792Y-58919095D01*
X65589792Y-58919095D02*
X65475506Y-58976238D01*
X65475506Y-58976238D02*
X65246934Y-58976238D01*
X65246934Y-58976238D02*
X65132649Y-59033381D01*
X65132649Y-59033381D02*
X65075506Y-59090524D01*
X65075506Y-59090524D02*
X65018363Y-59204810D01*
X65018363Y-59204810D02*
X65018363Y-59433381D01*
X65018363Y-59433381D02*
X65075506Y-59547667D01*
X65075506Y-59547667D02*
X65132649Y-59604810D01*
X65132649Y-59604810D02*
X65246934Y-59661952D01*
X65246934Y-59661952D02*
X65475506Y-59661952D01*
X65475506Y-59661952D02*
X65589792Y-59604810D01*
X65589792Y-59604810D02*
X65646934Y-59547667D01*
X65646934Y-59547667D02*
X65704077Y-59433381D01*
X65704077Y-59433381D02*
X65704077Y-59204810D01*
X65704077Y-59204810D02*
X65646934Y-59090524D01*
X65646934Y-59090524D02*
X65589792Y-59033381D01*
X65589792Y-59033381D02*
X65475506Y-58976238D01*
D10*
X46722355Y-72023660D02*
X46722355Y-71023660D01*
X46722355Y-71023660D02*
X47103307Y-71023660D01*
X47103307Y-71023660D02*
X47198545Y-71071279D01*
X47198545Y-71071279D02*
X47246164Y-71118898D01*
X47246164Y-71118898D02*
X47293783Y-71214136D01*
X47293783Y-71214136D02*
X47293783Y-71356993D01*
X47293783Y-71356993D02*
X47246164Y-71452231D01*
X47246164Y-71452231D02*
X47198545Y-71499850D01*
X47198545Y-71499850D02*
X47103307Y-71547469D01*
X47103307Y-71547469D02*
X46722355Y-71547469D01*
X48293783Y-71928421D02*
X48246164Y-71976041D01*
X48246164Y-71976041D02*
X48103307Y-72023660D01*
X48103307Y-72023660D02*
X48008069Y-72023660D01*
X48008069Y-72023660D02*
X47865212Y-71976041D01*
X47865212Y-71976041D02*
X47769974Y-71880802D01*
X47769974Y-71880802D02*
X47722355Y-71785564D01*
X47722355Y-71785564D02*
X47674736Y-71595088D01*
X47674736Y-71595088D02*
X47674736Y-71452231D01*
X47674736Y-71452231D02*
X47722355Y-71261755D01*
X47722355Y-71261755D02*
X47769974Y-71166517D01*
X47769974Y-71166517D02*
X47865212Y-71071279D01*
X47865212Y-71071279D02*
X48008069Y-71023660D01*
X48008069Y-71023660D02*
X48103307Y-71023660D01*
X48103307Y-71023660D02*
X48246164Y-71071279D01*
X48246164Y-71071279D02*
X48293783Y-71118898D01*
X49055688Y-71499850D02*
X49198545Y-71547469D01*
X49198545Y-71547469D02*
X49246164Y-71595088D01*
X49246164Y-71595088D02*
X49293783Y-71690326D01*
X49293783Y-71690326D02*
X49293783Y-71833183D01*
X49293783Y-71833183D02*
X49246164Y-71928421D01*
X49246164Y-71928421D02*
X49198545Y-71976041D01*
X49198545Y-71976041D02*
X49103307Y-72023660D01*
X49103307Y-72023660D02*
X48722355Y-72023660D01*
X48722355Y-72023660D02*
X48722355Y-71023660D01*
X48722355Y-71023660D02*
X49055688Y-71023660D01*
X49055688Y-71023660D02*
X49150926Y-71071279D01*
X49150926Y-71071279D02*
X49198545Y-71118898D01*
X49198545Y-71118898D02*
X49246164Y-71214136D01*
X49246164Y-71214136D02*
X49246164Y-71309374D01*
X49246164Y-71309374D02*
X49198545Y-71404612D01*
X49198545Y-71404612D02*
X49150926Y-71452231D01*
X49150926Y-71452231D02*
X49055688Y-71499850D01*
X49055688Y-71499850D02*
X48722355Y-71499850D01*
X51055688Y-71928421D02*
X51008069Y-71976041D01*
X51008069Y-71976041D02*
X50865212Y-72023660D01*
X50865212Y-72023660D02*
X50769974Y-72023660D01*
X50769974Y-72023660D02*
X50627117Y-71976041D01*
X50627117Y-71976041D02*
X50531879Y-71880802D01*
X50531879Y-71880802D02*
X50484260Y-71785564D01*
X50484260Y-71785564D02*
X50436641Y-71595088D01*
X50436641Y-71595088D02*
X50436641Y-71452231D01*
X50436641Y-71452231D02*
X50484260Y-71261755D01*
X50484260Y-71261755D02*
X50531879Y-71166517D01*
X50531879Y-71166517D02*
X50627117Y-71071279D01*
X50627117Y-71071279D02*
X50769974Y-71023660D01*
X50769974Y-71023660D02*
X50865212Y-71023660D01*
X50865212Y-71023660D02*
X51008069Y-71071279D01*
X51008069Y-71071279D02*
X51055688Y-71118898D01*
X51674736Y-71023660D02*
X51865212Y-71023660D01*
X51865212Y-71023660D02*
X51960450Y-71071279D01*
X51960450Y-71071279D02*
X52055688Y-71166517D01*
X52055688Y-71166517D02*
X52103307Y-71356993D01*
X52103307Y-71356993D02*
X52103307Y-71690326D01*
X52103307Y-71690326D02*
X52055688Y-71880802D01*
X52055688Y-71880802D02*
X51960450Y-71976041D01*
X51960450Y-71976041D02*
X51865212Y-72023660D01*
X51865212Y-72023660D02*
X51674736Y-72023660D01*
X51674736Y-72023660D02*
X51579498Y-71976041D01*
X51579498Y-71976041D02*
X51484260Y-71880802D01*
X51484260Y-71880802D02*
X51436641Y-71690326D01*
X51436641Y-71690326D02*
X51436641Y-71356993D01*
X51436641Y-71356993D02*
X51484260Y-71166517D01*
X51484260Y-71166517D02*
X51579498Y-71071279D01*
X51579498Y-71071279D02*
X51674736Y-71023660D01*
X52531879Y-72023660D02*
X52531879Y-71023660D01*
X52531879Y-71023660D02*
X53103307Y-72023660D01*
X53103307Y-72023660D02*
X53103307Y-71023660D01*
X53579498Y-72023660D02*
X53579498Y-71023660D01*
X53579498Y-71023660D02*
X54150926Y-72023660D01*
X54150926Y-72023660D02*
X54150926Y-71023660D01*
X54627117Y-71499850D02*
X54960450Y-71499850D01*
X55103307Y-72023660D02*
X54627117Y-72023660D01*
X54627117Y-72023660D02*
X54627117Y-71023660D01*
X54627117Y-71023660D02*
X55103307Y-71023660D01*
X56103307Y-71928421D02*
X56055688Y-71976041D01*
X56055688Y-71976041D02*
X55912831Y-72023660D01*
X55912831Y-72023660D02*
X55817593Y-72023660D01*
X55817593Y-72023660D02*
X55674736Y-71976041D01*
X55674736Y-71976041D02*
X55579498Y-71880802D01*
X55579498Y-71880802D02*
X55531879Y-71785564D01*
X55531879Y-71785564D02*
X55484260Y-71595088D01*
X55484260Y-71595088D02*
X55484260Y-71452231D01*
X55484260Y-71452231D02*
X55531879Y-71261755D01*
X55531879Y-71261755D02*
X55579498Y-71166517D01*
X55579498Y-71166517D02*
X55674736Y-71071279D01*
X55674736Y-71071279D02*
X55817593Y-71023660D01*
X55817593Y-71023660D02*
X55912831Y-71023660D01*
X55912831Y-71023660D02*
X56055688Y-71071279D01*
X56055688Y-71071279D02*
X56103307Y-71118898D01*
X56389022Y-71023660D02*
X56960450Y-71023660D01*
X56674736Y-72023660D02*
X56674736Y-71023660D01*
X57484260Y-71023660D02*
X57674736Y-71023660D01*
X57674736Y-71023660D02*
X57769974Y-71071279D01*
X57769974Y-71071279D02*
X57865212Y-71166517D01*
X57865212Y-71166517D02*
X57912831Y-71356993D01*
X57912831Y-71356993D02*
X57912831Y-71690326D01*
X57912831Y-71690326D02*
X57865212Y-71880802D01*
X57865212Y-71880802D02*
X57769974Y-71976041D01*
X57769974Y-71976041D02*
X57674736Y-72023660D01*
X57674736Y-72023660D02*
X57484260Y-72023660D01*
X57484260Y-72023660D02*
X57389022Y-71976041D01*
X57389022Y-71976041D02*
X57293784Y-71880802D01*
X57293784Y-71880802D02*
X57246165Y-71690326D01*
X57246165Y-71690326D02*
X57246165Y-71356993D01*
X57246165Y-71356993D02*
X57293784Y-71166517D01*
X57293784Y-71166517D02*
X57389022Y-71071279D01*
X57389022Y-71071279D02*
X57484260Y-71023660D01*
X58912831Y-72023660D02*
X58579498Y-71547469D01*
X58341403Y-72023660D02*
X58341403Y-71023660D01*
X58341403Y-71023660D02*
X58722355Y-71023660D01*
X58722355Y-71023660D02*
X58817593Y-71071279D01*
X58817593Y-71071279D02*
X58865212Y-71118898D01*
X58865212Y-71118898D02*
X58912831Y-71214136D01*
X58912831Y-71214136D02*
X58912831Y-71356993D01*
X58912831Y-71356993D02*
X58865212Y-71452231D01*
X58865212Y-71452231D02*
X58817593Y-71499850D01*
X58817593Y-71499850D02*
X58722355Y-71547469D01*
X58722355Y-71547469D02*
X58341403Y-71547469D01*
X60579498Y-72023660D02*
X60103308Y-72023660D01*
X60103308Y-72023660D02*
X60103308Y-71023660D01*
X60865213Y-71737945D02*
X61341403Y-71737945D01*
X60769975Y-72023660D02*
X61103308Y-71023660D01*
X61103308Y-71023660D02*
X61436641Y-72023660D01*
X61769975Y-72023660D02*
X61769975Y-71023660D01*
X61769975Y-71023660D02*
X62341403Y-72023660D01*
X62341403Y-72023660D02*
X62341403Y-71023660D01*
X63103308Y-72404612D02*
X63055689Y-72356993D01*
X63055689Y-72356993D02*
X62960451Y-72214136D01*
X62960451Y-72214136D02*
X62912832Y-72118898D01*
X62912832Y-72118898D02*
X62865213Y-71976041D01*
X62865213Y-71976041D02*
X62817594Y-71737945D01*
X62817594Y-71737945D02*
X62817594Y-71547469D01*
X62817594Y-71547469D02*
X62865213Y-71309374D01*
X62865213Y-71309374D02*
X62912832Y-71166517D01*
X62912832Y-71166517D02*
X62960451Y-71071279D01*
X62960451Y-71071279D02*
X63055689Y-70928421D01*
X63055689Y-70928421D02*
X63103308Y-70880802D01*
X63674737Y-71023660D02*
X63865213Y-71023660D01*
X63865213Y-71023660D02*
X63960451Y-71071279D01*
X63960451Y-71071279D02*
X64055689Y-71166517D01*
X64055689Y-71166517D02*
X64103308Y-71356993D01*
X64103308Y-71356993D02*
X64103308Y-71690326D01*
X64103308Y-71690326D02*
X64055689Y-71880802D01*
X64055689Y-71880802D02*
X63960451Y-71976041D01*
X63960451Y-71976041D02*
X63865213Y-72023660D01*
X63865213Y-72023660D02*
X63674737Y-72023660D01*
X63674737Y-72023660D02*
X63579499Y-71976041D01*
X63579499Y-71976041D02*
X63484261Y-71880802D01*
X63484261Y-71880802D02*
X63436642Y-71690326D01*
X63436642Y-71690326D02*
X63436642Y-71356993D01*
X63436642Y-71356993D02*
X63484261Y-71166517D01*
X63484261Y-71166517D02*
X63579499Y-71071279D01*
X63579499Y-71071279D02*
X63674737Y-71023660D01*
X64531880Y-71023660D02*
X64531880Y-71833183D01*
X64531880Y-71833183D02*
X64579499Y-71928421D01*
X64579499Y-71928421D02*
X64627118Y-71976041D01*
X64627118Y-71976041D02*
X64722356Y-72023660D01*
X64722356Y-72023660D02*
X64912832Y-72023660D01*
X64912832Y-72023660D02*
X65008070Y-71976041D01*
X65008070Y-71976041D02*
X65055689Y-71928421D01*
X65055689Y-71928421D02*
X65103308Y-71833183D01*
X65103308Y-71833183D02*
X65103308Y-71023660D01*
X65436642Y-71023660D02*
X66008070Y-71023660D01*
X65722356Y-72023660D02*
X65722356Y-71023660D01*
X66341404Y-71499850D02*
X66674737Y-71499850D01*
X66817594Y-72023660D02*
X66341404Y-72023660D01*
X66341404Y-72023660D02*
X66341404Y-71023660D01*
X66341404Y-71023660D02*
X66817594Y-71023660D01*
X67817594Y-72023660D02*
X67484261Y-71547469D01*
X67246166Y-72023660D02*
X67246166Y-71023660D01*
X67246166Y-71023660D02*
X67627118Y-71023660D01*
X67627118Y-71023660D02*
X67722356Y-71071279D01*
X67722356Y-71071279D02*
X67769975Y-71118898D01*
X67769975Y-71118898D02*
X67817594Y-71214136D01*
X67817594Y-71214136D02*
X67817594Y-71356993D01*
X67817594Y-71356993D02*
X67769975Y-71452231D01*
X67769975Y-71452231D02*
X67722356Y-71499850D01*
X67722356Y-71499850D02*
X67627118Y-71547469D01*
X67627118Y-71547469D02*
X67246166Y-71547469D01*
X68150928Y-72404612D02*
X68198547Y-72356993D01*
X68198547Y-72356993D02*
X68293785Y-72214136D01*
X68293785Y-72214136D02*
X68341404Y-72118898D01*
X68341404Y-72118898D02*
X68389023Y-71976041D01*
X68389023Y-71976041D02*
X68436642Y-71737945D01*
X68436642Y-71737945D02*
X68436642Y-71547469D01*
X68436642Y-71547469D02*
X68389023Y-71309374D01*
X68389023Y-71309374D02*
X68341404Y-71166517D01*
X68341404Y-71166517D02*
X68293785Y-71071279D01*
X68293785Y-71071279D02*
X68198547Y-70928421D01*
X68198547Y-70928421D02*
X68150928Y-70880802D01*
D12*
%TO.C,G\u002A\u002A\u002A*%
G36*
X48003334Y-52060075D02*
G01*
X47993451Y-52087154D01*
X47977185Y-52130464D01*
X47954998Y-52188805D01*
X47927353Y-52260981D01*
X47894711Y-52345793D01*
X47857534Y-52442044D01*
X47816285Y-52548534D01*
X47771425Y-52664068D01*
X47723417Y-52787446D01*
X47672722Y-52917471D01*
X47619804Y-53052944D01*
X47611660Y-53073770D01*
X47558428Y-53210038D01*
X47507351Y-53341094D01*
X47458893Y-53465736D01*
X47413516Y-53582760D01*
X47371681Y-53690962D01*
X47333853Y-53789140D01*
X47300493Y-53876090D01*
X47272065Y-53950609D01*
X47249029Y-54011493D01*
X47231850Y-54057540D01*
X47220990Y-54087546D01*
X47216911Y-54100308D01*
X47216911Y-54100657D01*
X47227180Y-54101494D01*
X47256388Y-54102304D01*
X47303466Y-54103083D01*
X47367343Y-54103826D01*
X47446952Y-54104528D01*
X47541222Y-54105183D01*
X47649084Y-54105786D01*
X47769470Y-54106333D01*
X47901309Y-54106818D01*
X48043533Y-54107237D01*
X48195072Y-54107584D01*
X48354858Y-54107854D01*
X48521820Y-54108042D01*
X48694890Y-54108143D01*
X48800868Y-54108160D01*
X48977008Y-54108209D01*
X49147635Y-54108354D01*
X49311685Y-54108588D01*
X49468091Y-54108907D01*
X49615788Y-54109305D01*
X49753711Y-54109776D01*
X49880793Y-54110316D01*
X49995969Y-54110919D01*
X50098172Y-54111580D01*
X50186339Y-54112293D01*
X50259402Y-54113053D01*
X50316295Y-54113855D01*
X50355954Y-54114693D01*
X50377313Y-54115561D01*
X50380900Y-54116097D01*
X50377363Y-54127974D01*
X50367728Y-54154463D01*
X50353465Y-54191655D01*
X50336040Y-54235638D01*
X50335883Y-54236030D01*
X50318442Y-54280018D01*
X50304148Y-54317209D01*
X50294467Y-54343706D01*
X50290865Y-54355612D01*
X50290865Y-54355643D01*
X50300171Y-54358838D01*
X50325300Y-54361449D01*
X50362070Y-54363151D01*
X50393405Y-54363629D01*
X50495946Y-54363998D01*
X50620995Y-54425885D01*
X50709162Y-54466680D01*
X50787212Y-54495891D01*
X50860382Y-54514761D01*
X50933911Y-54524532D01*
X51013037Y-54526448D01*
X51041160Y-54525573D01*
X51120636Y-54519747D01*
X51181921Y-54509670D01*
X51211227Y-54501261D01*
X51266249Y-54481819D01*
X51340425Y-54294990D01*
X51414602Y-54108160D01*
X52634505Y-54108160D01*
X52816261Y-54108170D01*
X52979045Y-54108212D01*
X53123890Y-54108300D01*
X53251833Y-54108450D01*
X53363907Y-54108675D01*
X53461148Y-54108991D01*
X53544592Y-54109413D01*
X53615271Y-54109956D01*
X53674223Y-54110634D01*
X53722482Y-54111464D01*
X53761082Y-54112459D01*
X53791058Y-54113634D01*
X53813446Y-54115006D01*
X53829281Y-54116587D01*
X53839597Y-54118394D01*
X53845429Y-54120441D01*
X53847813Y-54122744D01*
X53847783Y-54125317D01*
X53847658Y-54125667D01*
X53840908Y-54146514D01*
X53832705Y-54176059D01*
X53830883Y-54183189D01*
X53829220Y-54191384D01*
X53828618Y-54200605D01*
X53829551Y-54212188D01*
X53832496Y-54227464D01*
X53837926Y-54247766D01*
X53846317Y-54274426D01*
X53858143Y-54308779D01*
X53873881Y-54352156D01*
X53894004Y-54405890D01*
X53918988Y-54471314D01*
X53949308Y-54549761D01*
X53985439Y-54642564D01*
X54027855Y-54751055D01*
X54077032Y-54876567D01*
X54087580Y-54903473D01*
X54131153Y-55014597D01*
X54172655Y-55120421D01*
X54211497Y-55219448D01*
X54247094Y-55310184D01*
X54278857Y-55391132D01*
X54306201Y-55460795D01*
X54328537Y-55517679D01*
X54345279Y-55560287D01*
X54355839Y-55587123D01*
X54359581Y-55596574D01*
X54357817Y-55602132D01*
X54345291Y-55605597D01*
X54319399Y-55607202D01*
X54277537Y-55607178D01*
X54247678Y-55606577D01*
X54130495Y-55603749D01*
X53918852Y-55061069D01*
X53880274Y-54962380D01*
X53843782Y-54869473D01*
X53810030Y-54783984D01*
X53779674Y-54707551D01*
X53753368Y-54641812D01*
X53731767Y-54588403D01*
X53715525Y-54548962D01*
X53705297Y-54525125D01*
X53701809Y-54518355D01*
X53697287Y-54527400D01*
X53686188Y-54553449D01*
X53669173Y-54594851D01*
X53646902Y-54649957D01*
X53620036Y-54717118D01*
X53589236Y-54794683D01*
X53555161Y-54881002D01*
X53518472Y-54974427D01*
X53487935Y-55052528D01*
X53449539Y-55150808D01*
X53413196Y-55243618D01*
X53379577Y-55329265D01*
X53349349Y-55406053D01*
X53323183Y-55472288D01*
X53301747Y-55526275D01*
X53285711Y-55566319D01*
X53275744Y-55590726D01*
X53272619Y-55597807D01*
X53264677Y-55600062D01*
X53243349Y-55601980D01*
X53207889Y-55603570D01*
X53157549Y-55604841D01*
X53091582Y-55605801D01*
X53009239Y-55606458D01*
X52909773Y-55606821D01*
X52792437Y-55606899D01*
X52656483Y-55606699D01*
X52524590Y-55606314D01*
X51783404Y-55603749D01*
X51870007Y-55381951D01*
X52104210Y-55381951D01*
X52106152Y-55385433D01*
X52112125Y-55388276D01*
X52123725Y-55390526D01*
X52142545Y-55392231D01*
X52170179Y-55393438D01*
X52208220Y-55394195D01*
X52258263Y-55394549D01*
X52321901Y-55394546D01*
X52400729Y-55394235D01*
X52496340Y-55393663D01*
X52610329Y-55392876D01*
X52613133Y-55392856D01*
X53126456Y-55389209D01*
X53145707Y-55336416D01*
X53156461Y-55307705D01*
X53173898Y-55262148D01*
X53197335Y-55201497D01*
X53226085Y-55127507D01*
X53259465Y-55041934D01*
X53296789Y-54946530D01*
X53337373Y-54843051D01*
X53380531Y-54733251D01*
X53425581Y-54618885D01*
X53441526Y-54578461D01*
X53467876Y-54511596D01*
X53491647Y-54451096D01*
X53511900Y-54399371D01*
X53527692Y-54358834D01*
X53538080Y-54331895D01*
X53542124Y-54320967D01*
X53542145Y-54320860D01*
X53532453Y-54320354D01*
X53504622Y-54319880D01*
X53460524Y-54319448D01*
X53402027Y-54319067D01*
X53331003Y-54318747D01*
X53249319Y-54318498D01*
X53158848Y-54318328D01*
X53061457Y-54318248D01*
X53028907Y-54318243D01*
X52515670Y-54318243D01*
X52312636Y-54838652D01*
X52274741Y-54935891D01*
X52238973Y-55027881D01*
X52206006Y-55112873D01*
X52176516Y-55189118D01*
X52151177Y-55254864D01*
X52130664Y-55308363D01*
X52115653Y-55347865D01*
X52106817Y-55371619D01*
X52104706Y-55377782D01*
X52104210Y-55381951D01*
X51870007Y-55381951D01*
X52027538Y-54978502D01*
X52069161Y-54871858D01*
X52108714Y-54770435D01*
X52145580Y-54675814D01*
X52179148Y-54589576D01*
X52208801Y-54513301D01*
X52233927Y-54448568D01*
X52253911Y-54396958D01*
X52268139Y-54360051D01*
X52275997Y-54339427D01*
X52277334Y-54335749D01*
X52277818Y-54331156D01*
X52274741Y-54327442D01*
X52266221Y-54324515D01*
X52250379Y-54322282D01*
X52225335Y-54320649D01*
X52189209Y-54319525D01*
X52140119Y-54318815D01*
X52076187Y-54318427D01*
X51995532Y-54318268D01*
X51923251Y-54318243D01*
X51824042Y-54318396D01*
X51743275Y-54318891D01*
X51679386Y-54319782D01*
X51630812Y-54321122D01*
X51595989Y-54322965D01*
X51573353Y-54325365D01*
X51561341Y-54328375D01*
X51558463Y-54330747D01*
X51552023Y-54347007D01*
X51539109Y-54379857D01*
X51520496Y-54427316D01*
X51496956Y-54487404D01*
X51469266Y-54558140D01*
X51438197Y-54637544D01*
X51404526Y-54723634D01*
X51369025Y-54814429D01*
X51332468Y-54907950D01*
X51295631Y-55002214D01*
X51259287Y-55095242D01*
X51224209Y-55185052D01*
X51191173Y-55269665D01*
X51160952Y-55347098D01*
X51134320Y-55415371D01*
X51112052Y-55472504D01*
X51094921Y-55516515D01*
X51083702Y-55545425D01*
X51079547Y-55556230D01*
X51059731Y-55608751D01*
X50314086Y-55608751D01*
X50169235Y-55608689D01*
X50043268Y-55608492D01*
X49935061Y-55608140D01*
X49843490Y-55607615D01*
X49767430Y-55606898D01*
X49705758Y-55605968D01*
X49657349Y-55604809D01*
X49621081Y-55603399D01*
X49595828Y-55601722D01*
X49580467Y-55599757D01*
X49573874Y-55597485D01*
X49573507Y-55596246D01*
X49577709Y-55585553D01*
X49588460Y-55558096D01*
X49605030Y-55515745D01*
X49626687Y-55460370D01*
X49652701Y-55393844D01*
X49682339Y-55318037D01*
X49714870Y-55234820D01*
X49743176Y-55162405D01*
X50450928Y-55162405D01*
X50455203Y-55187069D01*
X50470615Y-55196837D01*
X50490569Y-55196547D01*
X50509420Y-55190056D01*
X50517645Y-55172412D01*
X50518991Y-55162381D01*
X50517971Y-55138518D01*
X50506938Y-55127462D01*
X50502905Y-55126175D01*
X50475540Y-55127036D01*
X50456411Y-55142387D01*
X50450928Y-55162405D01*
X49743176Y-55162405D01*
X49749564Y-55146063D01*
X49785689Y-55053639D01*
X49822513Y-54959418D01*
X49858459Y-54867442D01*
X50741910Y-54867442D01*
X50756708Y-54897641D01*
X50767401Y-54907749D01*
X50802740Y-54925892D01*
X50837124Y-54924077D01*
X50861982Y-54909764D01*
X50880236Y-54885668D01*
X50885099Y-54854599D01*
X50878737Y-54818224D01*
X50858233Y-54794870D01*
X50824104Y-54782531D01*
X50798214Y-54781241D01*
X50777024Y-54792334D01*
X50766715Y-54801861D01*
X50745237Y-54834197D01*
X50741910Y-54867442D01*
X49858459Y-54867442D01*
X49859307Y-54865272D01*
X49895337Y-54773070D01*
X49926775Y-54692614D01*
X50340885Y-54692614D01*
X50348646Y-54720374D01*
X50370838Y-54734908D01*
X50395857Y-54736358D01*
X50415197Y-54732661D01*
X50423766Y-54722589D01*
X50425887Y-54699963D01*
X50425918Y-54693390D01*
X50424475Y-54667407D01*
X50417461Y-54655180D01*
X50400853Y-54650521D01*
X50397802Y-54650151D01*
X50365997Y-54653619D01*
X50346097Y-54670859D01*
X50340885Y-54692614D01*
X49926775Y-54692614D01*
X49929874Y-54684684D01*
X49962186Y-54601986D01*
X49991541Y-54526846D01*
X50017209Y-54461135D01*
X50038457Y-54406724D01*
X50054556Y-54365485D01*
X50064773Y-54339288D01*
X50068143Y-54330622D01*
X50065768Y-54327234D01*
X50054679Y-54324546D01*
X50033274Y-54322512D01*
X49999949Y-54321087D01*
X49953100Y-54320227D01*
X49891126Y-54319886D01*
X49812421Y-54320021D01*
X49715385Y-54320585D01*
X49710812Y-54320618D01*
X49348608Y-54323245D01*
X48687635Y-56016411D01*
X48026662Y-57709578D01*
X47990804Y-57707743D01*
X47962810Y-57706079D01*
X47923205Y-57703442D01*
X47880329Y-57700389D01*
X47878316Y-57700240D01*
X47801687Y-57694572D01*
X48205930Y-56659164D01*
X48259542Y-56521780D01*
X48311072Y-56389603D01*
X48360057Y-56263830D01*
X48406034Y-56145653D01*
X48448539Y-56036269D01*
X48487110Y-55936871D01*
X48521283Y-55848654D01*
X48550596Y-55772813D01*
X48574586Y-55710542D01*
X48592788Y-55663036D01*
X48604741Y-55631489D01*
X48609981Y-55617097D01*
X48610188Y-55616329D01*
X48600469Y-55614983D01*
X48572438Y-55613635D01*
X48527790Y-55612312D01*
X48468220Y-55611040D01*
X48395424Y-55609848D01*
X48311097Y-55608761D01*
X48216934Y-55607808D01*
X48114631Y-55607016D01*
X48005883Y-55606411D01*
X47985914Y-55606325D01*
X47361625Y-55603749D01*
X47605826Y-54978502D01*
X47647460Y-54871860D01*
X47687020Y-54770439D01*
X47723893Y-54675820D01*
X47757464Y-54589583D01*
X47787120Y-54513308D01*
X47812247Y-54448575D01*
X47832230Y-54396965D01*
X47846454Y-54360056D01*
X47854307Y-54339429D01*
X47855642Y-54335749D01*
X47855934Y-54332895D01*
X48093854Y-54332895D01*
X48094468Y-54335468D01*
X48100633Y-54347120D01*
X48115976Y-54374411D01*
X48139561Y-54415716D01*
X48170449Y-54469413D01*
X48207702Y-54533877D01*
X48250384Y-54607485D01*
X48297556Y-54688613D01*
X48348281Y-54775638D01*
X48381876Y-54833164D01*
X48446568Y-54943857D01*
X48501902Y-55038521D01*
X48548616Y-55118399D01*
X48587452Y-55184734D01*
X48619149Y-55238770D01*
X48644446Y-55281749D01*
X48664083Y-55314916D01*
X48678801Y-55339513D01*
X48689338Y-55356783D01*
X48696435Y-55367971D01*
X48700831Y-55374318D01*
X48703267Y-55377069D01*
X48704481Y-55377467D01*
X48705213Y-55376755D01*
X48705275Y-55376685D01*
X48709335Y-55367056D01*
X48719967Y-55340537D01*
X48736479Y-55298880D01*
X48758182Y-55243840D01*
X48784386Y-55177171D01*
X48814402Y-55100625D01*
X48847538Y-55015956D01*
X48883107Y-54924919D01*
X48895381Y-54893469D01*
X48932277Y-54798909D01*
X48967492Y-54708674D01*
X49000253Y-54624739D01*
X49029791Y-54549078D01*
X49055333Y-54483667D01*
X49076108Y-54430481D01*
X49091346Y-54391495D01*
X49100275Y-54368684D01*
X49101422Y-54365761D01*
X49120112Y-54318243D01*
X48603985Y-54318243D01*
X48489054Y-54318275D01*
X48392556Y-54318408D01*
X48312918Y-54318694D01*
X48248565Y-54319187D01*
X48197923Y-54319939D01*
X48159418Y-54321005D01*
X48131476Y-54322438D01*
X48112523Y-54324289D01*
X48100984Y-54326614D01*
X48095286Y-54329465D01*
X48093854Y-54332895D01*
X47855934Y-54332895D01*
X47856107Y-54331205D01*
X47853052Y-54327524D01*
X47844618Y-54324617D01*
X47828945Y-54322396D01*
X47804173Y-54320773D01*
X47768445Y-54319659D01*
X47719899Y-54318966D01*
X47656676Y-54318606D01*
X47576918Y-54318490D01*
X47492937Y-54318519D01*
X47124618Y-54318796D01*
X46874474Y-54961272D01*
X46624330Y-55603749D01*
X46511832Y-55606577D01*
X46460006Y-55607027D01*
X46422938Y-55605519D01*
X46402635Y-55602180D01*
X46399333Y-55599448D01*
X46402885Y-55588657D01*
X46413139Y-55560802D01*
X46429496Y-55517447D01*
X46451353Y-55460156D01*
X46478109Y-55390492D01*
X46509163Y-55310020D01*
X46543913Y-55220302D01*
X46581759Y-55122902D01*
X46622099Y-55019385D01*
X46640847Y-54971374D01*
X46682240Y-54865356D01*
X46721533Y-54764563D01*
X46758111Y-54670584D01*
X46791357Y-54585009D01*
X46820657Y-54509427D01*
X46845394Y-54445428D01*
X46864952Y-54394600D01*
X46878715Y-54358534D01*
X46886068Y-54338819D01*
X46887110Y-54335749D01*
X46887288Y-54331616D01*
X46884252Y-54328188D01*
X46876319Y-54325400D01*
X46861804Y-54323185D01*
X46839024Y-54321479D01*
X46806294Y-54320216D01*
X46761930Y-54319329D01*
X46704248Y-54318754D01*
X46631564Y-54318425D01*
X46542193Y-54318277D01*
X46437709Y-54318243D01*
X45983558Y-54318243D01*
X45323604Y-54962995D01*
X44663649Y-55607747D01*
X44508644Y-55608249D01*
X44353639Y-55608751D01*
X44463626Y-55499782D01*
X44500673Y-55463200D01*
X44549619Y-55415060D01*
X44609724Y-55356085D01*
X44680247Y-55286994D01*
X44760448Y-55208511D01*
X44849585Y-55121356D01*
X44946918Y-55026249D01*
X45051707Y-54923913D01*
X45163209Y-54815068D01*
X45280686Y-54700437D01*
X45403395Y-54580739D01*
X45530597Y-54456696D01*
X45661550Y-54329030D01*
X45795514Y-54198461D01*
X45931747Y-54065712D01*
X46069510Y-53931502D01*
X46208061Y-53796554D01*
X46346660Y-53661588D01*
X46484566Y-53527326D01*
X46621038Y-53394489D01*
X46755336Y-53263798D01*
X46886718Y-53135975D01*
X47014444Y-53011740D01*
X47137774Y-52891815D01*
X47255966Y-52776922D01*
X47368279Y-52667780D01*
X47473974Y-52565113D01*
X47572308Y-52469639D01*
X47662542Y-52382082D01*
X47743935Y-52303162D01*
X47815746Y-52233601D01*
X47877234Y-52174119D01*
X47927659Y-52125438D01*
X47966279Y-52088279D01*
X47992354Y-52063364D01*
X48005143Y-52051413D01*
X48006372Y-52050423D01*
X48003334Y-52060075D01*
G37*
D13*
%TO.C,J1*%
X49945720Y-60352799D02*
X51005720Y-60352799D01*
X49945720Y-61412799D02*
X49945720Y-60352799D01*
X52005720Y-60352799D02*
X66065720Y-60352799D01*
X52005720Y-62472799D02*
X52005720Y-60352799D01*
X52005720Y-62472799D02*
X66065720Y-62472799D01*
X66065720Y-62472799D02*
X66065720Y-60352799D01*
%TD*%
%LPC*%
D14*
%TO.C,H3*%
X57715720Y-80284280D03*
%TD*%
%TO.C,H1*%
X57715720Y-52000000D03*
%TD*%
%TO.C,H2*%
X43573580Y-66142140D03*
%TD*%
%TO.C,H4*%
X71857860Y-66142140D03*
%TD*%
D15*
%TO.C,J1*%
X51005720Y-61412799D03*
D16*
X53005720Y-61412799D03*
X55005720Y-61412799D03*
X57005720Y-61412799D03*
X59005720Y-61412799D03*
X61005720Y-61412799D03*
X63005720Y-61412799D03*
X65005720Y-61412799D03*
%TD*%
D17*
%TO.C,J2*%
X62795720Y-64662799D03*
D18*
X62795720Y-67202799D03*
X60255720Y-64662799D03*
X60255720Y-67202799D03*
X57715720Y-64662799D03*
X57715720Y-67202799D03*
X55175720Y-64662799D03*
X55175720Y-67202799D03*
X52635720Y-64662799D03*
X52635720Y-67202799D03*
%TD*%
%LPD*%
M02*
