%TF.GenerationSoftware,KiCad,Pcbnew,9.0.0*%
%TF.CreationDate,2025-06-23T16:23:01+09:00*%
%TF.ProjectId,pcb_connector_lan(outer),7063625f-636f-46e6-9e65-63746f725f6c,00*%
%TF.SameCoordinates,Original*%
%TF.FileFunction,Copper,L1,Top*%
%TF.FilePolarity,Positive*%
%FSLAX46Y46*%
G04 Gerber Fmt 4.6, Leading zero omitted, Abs format (unit mm)*
G04 Created by KiCad (PCBNEW 9.0.0) date 2025-06-23 16:23:01*
%MOMM*%
%LPD*%
G01*
G04 APERTURE LIST*
%TA.AperFunction,ComponentPad*%
%ADD10C,7.500000*%
%TD*%
%TA.AperFunction,ComponentPad*%
%ADD11R,1.350000X1.350000*%
%TD*%
%TA.AperFunction,ComponentPad*%
%ADD12O,1.350000X1.350000*%
%TD*%
%TA.AperFunction,ComponentPad*%
%ADD13R,1.700000X1.700000*%
%TD*%
%TA.AperFunction,ComponentPad*%
%ADD14O,1.700000X1.700000*%
%TD*%
%TA.AperFunction,ViaPad*%
%ADD15C,0.600000*%
%TD*%
%TA.AperFunction,Conductor*%
%ADD16C,0.500000*%
%TD*%
G04 APERTURE END LIST*
D10*
%TO.P,H3,1,1*%
%TO.N,GND*%
X57715720Y-80284280D03*
%TD*%
%TO.P,H1,1,1*%
%TO.N,GND*%
X57715720Y-52000000D03*
%TD*%
%TO.P,H2,1,1*%
%TO.N,GND*%
X43573580Y-66142140D03*
%TD*%
%TO.P,H4,1,1*%
%TO.N,GND*%
X71857860Y-66142140D03*
%TD*%
D11*
%TO.P,J1,1,Pin_1*%
%TO.N,Net-(J1-Pin_1)*%
X51005720Y-61412799D03*
D12*
%TO.P,J1,2,Pin_2*%
%TO.N,Net-(J1-Pin_2)*%
X53005720Y-61412799D03*
%TO.P,J1,3,Pin_3*%
%TO.N,Net-(J1-Pin_3)*%
X55005720Y-61412799D03*
%TO.P,J1,4,Pin_4*%
%TO.N,Net-(J1-Pin_4)*%
X57005720Y-61412799D03*
%TO.P,J1,5,Pin_5*%
%TO.N,Net-(J1-Pin_5)*%
X59005720Y-61412799D03*
%TO.P,J1,6,Pin_6*%
%TO.N,Net-(J1-Pin_6)*%
X61005720Y-61412799D03*
%TO.P,J1,7,Pin_7*%
%TO.N,Net-(J1-Pin_7)*%
X63005720Y-61412799D03*
%TO.P,J1,8,Pin_8*%
%TO.N,Net-(J1-Pin_8)*%
X65005720Y-61412799D03*
%TD*%
D13*
%TO.P,J2,1,Pin_1*%
%TO.N,Net-(J1-Pin_7)*%
X62795720Y-64662799D03*
D14*
%TO.P,J2,2,Pin_2*%
%TO.N,Net-(J1-Pin_8)*%
X62795720Y-67202799D03*
%TO.P,J2,3,Pin_3*%
%TO.N,Net-(J1-Pin_5)*%
X60255720Y-64662799D03*
%TO.P,J2,4,Pin_4*%
%TO.N,Net-(J1-Pin_6)*%
X60255720Y-67202799D03*
%TO.P,J2,5,Pin_5*%
%TO.N,Net-(J1-Pin_3)*%
X57715720Y-64662799D03*
%TO.P,J2,6,Pin_6*%
%TO.N,Net-(J1-Pin_4)*%
X57715720Y-67202799D03*
%TO.P,J2,7,Pin_7*%
%TO.N,Net-(J1-Pin_1)*%
X55175720Y-64662799D03*
%TO.P,J2,8,Pin_8*%
%TO.N,Net-(J1-Pin_2)*%
X55175720Y-67202799D03*
%TO.P,J2,9,Pin_9*%
%TO.N,GND*%
X52635720Y-64662799D03*
%TO.P,J2,10,Pin_10*%
X52635720Y-67202799D03*
%TD*%
D15*
%TO.N,GND*%
X47715720Y-66142140D03*
X67715720Y-66142140D03*
X57715720Y-56142140D03*
X47715720Y-76142140D03*
X47715720Y-56142140D03*
X67715720Y-56142140D03*
X57715720Y-76142140D03*
X67715720Y-76142140D03*
%TD*%
D16*
%TO.N,Net-(J1-Pin_1)*%
X53301720Y-62538799D02*
X52131720Y-62538799D01*
X52131720Y-62538799D02*
X51005720Y-61412799D01*
X55175720Y-64412799D02*
X53301720Y-62538799D01*
%TO.N,Net-(J1-Pin_2)*%
X51096720Y-68503799D02*
X53624720Y-68503799D01*
X50505720Y-59912799D02*
X49879720Y-60538799D01*
X49879720Y-60538799D02*
X49879720Y-67286799D01*
X53624720Y-68503799D02*
X55175720Y-66952799D01*
X53005720Y-61412799D02*
X51505720Y-59912799D01*
X51505720Y-59912799D02*
X50505720Y-59912799D01*
X49879720Y-67286799D02*
X51096720Y-68503799D01*
%TO.N,Net-(J1-Pin_6)*%
X66131720Y-65706691D02*
X63334612Y-68503799D01*
X61556720Y-68503799D02*
X60255720Y-67202799D01*
X63334612Y-68503799D02*
X61556720Y-68503799D01*
X66131720Y-60946394D02*
X66131720Y-65706691D01*
X62131720Y-60286799D02*
X65472125Y-60286799D01*
X61005720Y-61412799D02*
X62131720Y-60286799D01*
X65472125Y-60286799D02*
X66131720Y-60946394D01*
%TO.N,Net-(J1-Pin_3)*%
X55005720Y-61412799D02*
X55005720Y-61702799D01*
X55005720Y-61702799D02*
X57715720Y-64412799D01*
%TO.N,Net-(J1-Pin_7)*%
X63005720Y-61412799D02*
X63005720Y-64202799D01*
X63005720Y-64202799D02*
X62795720Y-64412799D01*
%TO.N,Net-(J1-Pin_8)*%
X65005720Y-64992799D02*
X63045720Y-66952799D01*
X63045720Y-66952799D02*
X62795720Y-66952799D01*
X65005720Y-61412799D02*
X65005720Y-64992799D01*
%TO.N,Net-(J1-Pin_5)*%
X59005720Y-63162799D02*
X60255720Y-64412799D01*
X59005720Y-61412799D02*
X59005720Y-63162799D01*
%TD*%
%TA.AperFunction,Conductor*%
%TO.N,GND*%
G36*
X51135528Y-62607983D02*
G01*
X51156170Y-62624617D01*
X51548768Y-63017214D01*
X51548769Y-63017215D01*
X51632172Y-63100618D01*
X51653305Y-63121751D01*
X51776218Y-63203879D01*
X51776231Y-63203886D01*
X51912802Y-63260455D01*
X51912807Y-63260457D01*
X51922804Y-63262445D01*
X51984715Y-63294827D01*
X52019291Y-63355542D01*
X52015554Y-63425312D01*
X51974690Y-63481985D01*
X51954913Y-63494547D01*
X51928162Y-63508177D01*
X51756260Y-63633071D01*
X51756255Y-63633075D01*
X51605996Y-63783334D01*
X51605992Y-63783339D01*
X51481099Y-63955241D01*
X51384624Y-64144581D01*
X51318962Y-64346669D01*
X51318962Y-64346672D01*
X51308489Y-64412799D01*
X52202708Y-64412799D01*
X52169795Y-64469806D01*
X52135720Y-64596973D01*
X52135720Y-64728625D01*
X52169795Y-64855792D01*
X52202708Y-64912799D01*
X51308489Y-64912799D01*
X51318962Y-64978925D01*
X51318962Y-64978928D01*
X51384624Y-65181016D01*
X51481099Y-65370356D01*
X51605992Y-65542258D01*
X51605996Y-65542263D01*
X51756255Y-65692522D01*
X51756260Y-65692526D01*
X51928164Y-65817421D01*
X51937768Y-65822315D01*
X51988564Y-65870290D01*
X52005358Y-65938111D01*
X51982820Y-66004246D01*
X51937768Y-66043283D01*
X51928164Y-66048176D01*
X51756260Y-66173071D01*
X51756255Y-66173075D01*
X51605996Y-66323334D01*
X51605992Y-66323339D01*
X51481099Y-66495241D01*
X51384624Y-66684581D01*
X51318962Y-66886669D01*
X51318962Y-66886672D01*
X51308489Y-66952799D01*
X52202708Y-66952799D01*
X52169795Y-67009806D01*
X52135720Y-67136973D01*
X52135720Y-67268625D01*
X52169795Y-67395792D01*
X52202708Y-67452799D01*
X51308488Y-67452799D01*
X51302830Y-67459423D01*
X51244323Y-67497615D01*
X51174455Y-67498113D01*
X51120860Y-67466571D01*
X50666539Y-67012250D01*
X50633054Y-66950927D01*
X50630220Y-66924569D01*
X50630220Y-62712298D01*
X50649905Y-62645259D01*
X50702709Y-62599504D01*
X50754220Y-62588298D01*
X51068489Y-62588298D01*
X51135528Y-62607983D01*
G37*
%TD.AperFunction*%
%TA.AperFunction,Conductor*%
G36*
X52885720Y-66769787D02*
G01*
X52828713Y-66736874D01*
X52701546Y-66702799D01*
X52569894Y-66702799D01*
X52442727Y-66736874D01*
X52385720Y-66769787D01*
X52385720Y-65095811D01*
X52442727Y-65128724D01*
X52569894Y-65162799D01*
X52701546Y-65162799D01*
X52828713Y-65128724D01*
X52885720Y-65095811D01*
X52885720Y-66769787D01*
G37*
%TD.AperFunction*%
%TA.AperFunction,Conductor*%
G36*
X58210643Y-45018204D02*
G01*
X58219454Y-45018835D01*
X58707453Y-45071301D01*
X58716214Y-45072560D01*
X59199221Y-45159703D01*
X59207857Y-45161582D01*
X59683423Y-45282964D01*
X59691903Y-45285454D01*
X60157583Y-45440447D01*
X60165877Y-45443540D01*
X60619319Y-45631362D01*
X60627371Y-45635039D01*
X60846816Y-45744885D01*
X61066267Y-45854735D01*
X61074026Y-45858972D01*
X61496135Y-46109420D01*
X61503558Y-46114191D01*
X61554502Y-46149562D01*
X61906716Y-46394109D01*
X61913802Y-46399413D01*
X62111262Y-46558536D01*
X62295970Y-46707384D01*
X62302654Y-46713175D01*
X62663497Y-47049132D01*
X62666682Y-47052206D01*
X76805678Y-61191204D01*
X76808752Y-61194389D01*
X77144683Y-61555205D01*
X77150480Y-61561895D01*
X77458445Y-61944057D01*
X77463749Y-61951143D01*
X77621667Y-62178587D01*
X77741062Y-62350548D01*
X77743660Y-62354289D01*
X77748443Y-62361731D01*
X77983258Y-62757493D01*
X77998884Y-62783828D01*
X78003126Y-62791597D01*
X78222819Y-63230489D01*
X78226496Y-63238540D01*
X78414318Y-63691983D01*
X78417411Y-63700277D01*
X78572402Y-64165951D01*
X78574896Y-64174444D01*
X78696274Y-64649995D01*
X78698156Y-64658645D01*
X78785298Y-65141646D01*
X78786557Y-65150407D01*
X78839023Y-65638405D01*
X78839655Y-65647234D01*
X78857172Y-66137714D01*
X78857172Y-66146566D01*
X78839655Y-66637045D01*
X78839023Y-66645874D01*
X78786557Y-67133872D01*
X78785298Y-67142633D01*
X78698156Y-67625634D01*
X78696274Y-67634284D01*
X78574896Y-68109835D01*
X78572402Y-68118328D01*
X78417411Y-68584002D01*
X78414318Y-68592296D01*
X78226496Y-69045739D01*
X78222819Y-69053790D01*
X78003126Y-69492682D01*
X77998884Y-69500451D01*
X77748446Y-69922543D01*
X77743660Y-69929990D01*
X77463749Y-70333136D01*
X77458445Y-70340222D01*
X77150480Y-70722384D01*
X77144683Y-70729074D01*
X76808726Y-71089917D01*
X76805652Y-71093102D01*
X62666654Y-85232098D01*
X62663469Y-85235172D01*
X62302654Y-85571104D01*
X62295964Y-85576901D01*
X61913802Y-85884866D01*
X61906716Y-85890170D01*
X61503570Y-86170080D01*
X61496123Y-86174866D01*
X61074030Y-86425305D01*
X61066262Y-86429547D01*
X60627371Y-86649240D01*
X60619319Y-86652917D01*
X60165877Y-86840739D01*
X60157583Y-86843832D01*
X59691909Y-86998823D01*
X59683416Y-87001317D01*
X59207864Y-87122695D01*
X59199214Y-87124577D01*
X58716214Y-87211719D01*
X58707453Y-87212978D01*
X58219454Y-87265444D01*
X58210625Y-87266076D01*
X57720146Y-87283593D01*
X57711294Y-87283593D01*
X57220814Y-87266076D01*
X57211985Y-87265444D01*
X56723986Y-87212978D01*
X56715225Y-87211719D01*
X56232225Y-87124577D01*
X56223575Y-87122695D01*
X55748023Y-87001317D01*
X55739530Y-86998823D01*
X55273856Y-86843832D01*
X55265562Y-86840739D01*
X54812120Y-86652917D01*
X54804068Y-86649240D01*
X54365177Y-86429547D01*
X54357409Y-86425305D01*
X53935316Y-86174866D01*
X53927869Y-86170080D01*
X53524723Y-85890170D01*
X53517637Y-85884866D01*
X53135475Y-85576901D01*
X53128785Y-85571104D01*
X52767941Y-85235146D01*
X52764756Y-85232072D01*
X47631401Y-80098717D01*
X53465720Y-80098717D01*
X53465720Y-80469842D01*
X53498065Y-80839547D01*
X53498065Y-80839551D01*
X53562507Y-81205015D01*
X53562511Y-81205032D01*
X53658557Y-81563486D01*
X53785495Y-81912243D01*
X53942327Y-82248572D01*
X53942335Y-82248587D01*
X54127886Y-82569970D01*
X54127895Y-82569985D01*
X54340760Y-82873987D01*
X54537725Y-83108719D01*
X54537726Y-83108720D01*
X56421468Y-81224978D01*
X56495308Y-81326610D01*
X56673390Y-81504692D01*
X56775020Y-81578531D01*
X54891278Y-83462272D01*
X54891279Y-83462273D01*
X55126012Y-83659239D01*
X55430014Y-83872104D01*
X55430029Y-83872113D01*
X55751412Y-84057664D01*
X55751427Y-84057672D01*
X56087756Y-84214504D01*
X56436513Y-84341442D01*
X56794967Y-84437488D01*
X56794984Y-84437492D01*
X57160450Y-84501934D01*
X57530157Y-84534279D01*
X57530160Y-84534280D01*
X57901280Y-84534280D01*
X57901282Y-84534279D01*
X58270987Y-84501934D01*
X58270991Y-84501934D01*
X58636455Y-84437492D01*
X58636472Y-84437488D01*
X58994926Y-84341442D01*
X59343683Y-84214504D01*
X59680012Y-84057672D01*
X59680027Y-84057664D01*
X60001410Y-83872113D01*
X60001425Y-83872104D01*
X60305420Y-83659244D01*
X60540159Y-83462273D01*
X60540160Y-83462272D01*
X58656418Y-81578531D01*
X58758050Y-81504692D01*
X58936132Y-81326610D01*
X59009971Y-81224979D01*
X60893712Y-83108720D01*
X60893713Y-83108719D01*
X61090684Y-82873980D01*
X61303544Y-82569985D01*
X61303553Y-82569970D01*
X61489104Y-82248587D01*
X61489112Y-82248572D01*
X61645944Y-81912243D01*
X61772882Y-81563486D01*
X61868928Y-81205032D01*
X61868932Y-81205015D01*
X61933374Y-80839551D01*
X61933374Y-80839547D01*
X61965719Y-80469842D01*
X61965720Y-80469840D01*
X61965720Y-80098720D01*
X61965719Y-80098717D01*
X61933374Y-79729012D01*
X61933374Y-79729008D01*
X61868932Y-79363544D01*
X61868928Y-79363527D01*
X61772882Y-79005073D01*
X61645944Y-78656316D01*
X61489112Y-78319987D01*
X61489104Y-78319972D01*
X61303553Y-77998589D01*
X61303544Y-77998574D01*
X61090679Y-77694572D01*
X60893713Y-77459839D01*
X60893712Y-77459838D01*
X59009970Y-79343580D01*
X58936132Y-79241950D01*
X58758050Y-79063868D01*
X58656417Y-78990027D01*
X60540160Y-77106286D01*
X60540159Y-77106285D01*
X60305427Y-76909320D01*
X60001425Y-76696455D01*
X60001410Y-76696446D01*
X59680027Y-76510895D01*
X59680012Y-76510887D01*
X59343683Y-76354055D01*
X58994926Y-76227117D01*
X58636472Y-76131071D01*
X58636455Y-76131067D01*
X58270989Y-76066625D01*
X57901282Y-76034280D01*
X57530157Y-76034280D01*
X57160452Y-76066625D01*
X57160448Y-76066625D01*
X56794984Y-76131067D01*
X56794967Y-76131071D01*
X56436513Y-76227117D01*
X56087756Y-76354055D01*
X55751427Y-76510887D01*
X55751412Y-76510895D01*
X55430029Y-76696446D01*
X55430014Y-76696455D01*
X55126012Y-76909320D01*
X54891279Y-77106285D01*
X54891278Y-77106286D01*
X56775021Y-78990028D01*
X56673390Y-79063868D01*
X56495308Y-79241950D01*
X56421468Y-79343581D01*
X54537726Y-77459838D01*
X54537725Y-77459839D01*
X54340760Y-77694572D01*
X54127895Y-77998574D01*
X54127886Y-77998589D01*
X53942335Y-78319972D01*
X53942327Y-78319987D01*
X53785495Y-78656316D01*
X53658557Y-79005073D01*
X53562511Y-79363527D01*
X53562507Y-79363544D01*
X53498065Y-79729008D01*
X53498065Y-79729012D01*
X53465720Y-80098717D01*
X47631401Y-80098717D01*
X38625787Y-71093103D01*
X38622713Y-71089918D01*
X38286756Y-70729074D01*
X38280959Y-70722384D01*
X37972994Y-70340222D01*
X37967690Y-70333136D01*
X37786632Y-70072364D01*
X37687771Y-69929978D01*
X37683001Y-69922555D01*
X37432546Y-69500434D01*
X37428322Y-69492699D01*
X37249762Y-69135982D01*
X37208620Y-69053790D01*
X37204943Y-69045739D01*
X37017121Y-68592296D01*
X37014028Y-68584002D01*
X36984001Y-68493785D01*
X36859035Y-68118322D01*
X36856543Y-68109835D01*
X36855678Y-68106447D01*
X36735163Y-67634277D01*
X36733283Y-67625634D01*
X36702100Y-67452799D01*
X36646141Y-67142633D01*
X36644882Y-67133872D01*
X36592416Y-66645874D01*
X36591785Y-66637063D01*
X36574267Y-66146563D01*
X36574267Y-66137714D01*
X36580736Y-65956577D01*
X39323580Y-65956577D01*
X39323580Y-66327702D01*
X39355925Y-66697407D01*
X39355925Y-66697411D01*
X39420367Y-67062875D01*
X39420371Y-67062892D01*
X39516417Y-67421346D01*
X39643355Y-67770103D01*
X39800187Y-68106432D01*
X39800195Y-68106447D01*
X39985746Y-68427830D01*
X39985755Y-68427845D01*
X40198620Y-68731847D01*
X40395585Y-68966579D01*
X40395586Y-68966580D01*
X42279328Y-67082838D01*
X42353168Y-67184470D01*
X42531250Y-67362552D01*
X42632880Y-67436391D01*
X40749138Y-69320132D01*
X40749139Y-69320133D01*
X40983872Y-69517099D01*
X41287874Y-69729964D01*
X41287889Y-69729973D01*
X41609272Y-69915524D01*
X41609287Y-69915532D01*
X41945616Y-70072364D01*
X42294373Y-70199302D01*
X42652827Y-70295348D01*
X42652844Y-70295352D01*
X43018310Y-70359794D01*
X43388017Y-70392139D01*
X43388020Y-70392140D01*
X43759140Y-70392140D01*
X43759142Y-70392139D01*
X44128847Y-70359794D01*
X44128851Y-70359794D01*
X44494315Y-70295352D01*
X44494332Y-70295348D01*
X44852786Y-70199302D01*
X45201543Y-70072364D01*
X45537872Y-69915532D01*
X45537887Y-69915524D01*
X45859270Y-69729973D01*
X45859285Y-69729964D01*
X46163280Y-69517104D01*
X46398019Y-69320133D01*
X46398020Y-69320132D01*
X44514278Y-67436391D01*
X44615910Y-67362552D01*
X44793992Y-67184470D01*
X44867831Y-67082838D01*
X46751572Y-68966580D01*
X46751573Y-68966579D01*
X46948544Y-68731840D01*
X47161404Y-68427845D01*
X47161413Y-68427830D01*
X47346964Y-68106447D01*
X47346972Y-68106432D01*
X47503804Y-67770103D01*
X47630742Y-67421346D01*
X47646987Y-67360719D01*
X49129219Y-67360719D01*
X49158060Y-67505706D01*
X49158063Y-67505716D01*
X49214633Y-67642289D01*
X49236128Y-67674459D01*
X49296763Y-67765209D01*
X49296767Y-67765214D01*
X50618306Y-69086753D01*
X50647778Y-69106444D01*
X50691990Y-69135985D01*
X50741225Y-69168883D01*
X50741226Y-69168883D01*
X50741227Y-69168884D01*
X50741229Y-69168885D01*
X50877802Y-69225455D01*
X50877807Y-69225457D01*
X50877811Y-69225457D01*
X50877812Y-69225458D01*
X51022799Y-69254299D01*
X51022802Y-69254299D01*
X53698640Y-69254299D01*
X53796182Y-69234895D01*
X53843633Y-69225457D01*
X53980215Y-69168883D01*
X54029449Y-69135985D01*
X54029451Y-69135984D01*
X54053791Y-69119720D01*
X54103136Y-69086751D01*
X54662617Y-68527268D01*
X54723938Y-68493785D01*
X54788613Y-68497019D01*
X54859477Y-68520045D01*
X55069433Y-68553299D01*
X55069434Y-68553299D01*
X55282006Y-68553299D01*
X55282007Y-68553299D01*
X55491963Y-68520045D01*
X55694132Y-68454356D01*
X55883536Y-68357850D01*
X55960537Y-68301906D01*
X56055506Y-68232908D01*
X56055508Y-68232905D01*
X56055512Y-68232903D01*
X56205824Y-68082591D01*
X56205826Y-68082587D01*
X56205829Y-68082585D01*
X56330768Y-67910619D01*
X56330767Y-67910619D01*
X56330771Y-67910615D01*
X56335234Y-67901853D01*
X56383208Y-67851058D01*
X56451028Y-67834262D01*
X56517164Y-67856798D01*
X56556206Y-67901855D01*
X56560671Y-67910619D01*
X56685610Y-68082585D01*
X56835933Y-68232908D01*
X57007899Y-68357847D01*
X57007901Y-68357848D01*
X57007904Y-68357850D01*
X57197308Y-68454356D01*
X57399477Y-68520045D01*
X57609433Y-68553299D01*
X57609434Y-68553299D01*
X57822006Y-68553299D01*
X57822007Y-68553299D01*
X58031963Y-68520045D01*
X58234132Y-68454356D01*
X58423536Y-68357850D01*
X58500537Y-68301906D01*
X58595506Y-68232908D01*
X58595508Y-68232905D01*
X58595512Y-68232903D01*
X58745824Y-68082591D01*
X58745826Y-68082587D01*
X58745829Y-68082585D01*
X58870768Y-67910619D01*
X58870767Y-67910619D01*
X58870771Y-67910615D01*
X58875234Y-67901853D01*
X58923208Y-67851058D01*
X58991028Y-67834262D01*
X59057164Y-67856798D01*
X59096206Y-67901855D01*
X59100671Y-67910619D01*
X59225610Y-68082585D01*
X59375933Y-68232908D01*
X59547899Y-68357847D01*
X59547901Y-68357848D01*
X59547904Y-68357850D01*
X59737308Y-68454356D01*
X59939477Y-68520045D01*
X60149433Y-68553299D01*
X60149434Y-68553299D01*
X60362006Y-68553299D01*
X60362007Y-68553299D01*
X60457448Y-68538182D01*
X60526741Y-68547136D01*
X60564527Y-68572974D01*
X61078306Y-69086753D01*
X61107778Y-69106444D01*
X61151990Y-69135985D01*
X61201225Y-69168883D01*
X61201226Y-69168883D01*
X61201227Y-69168884D01*
X61201229Y-69168885D01*
X61337802Y-69225455D01*
X61337807Y-69225457D01*
X61337811Y-69225457D01*
X61337812Y-69225458D01*
X61482799Y-69254299D01*
X61482802Y-69254299D01*
X63408532Y-69254299D01*
X63506074Y-69234895D01*
X63553525Y-69225457D01*
X63690107Y-69168883D01*
X63690666Y-69168509D01*
X63691528Y-69167934D01*
X63691529Y-69167932D01*
X63739341Y-69135985D01*
X63813028Y-69086751D01*
X66714672Y-66185107D01*
X66763906Y-66111420D01*
X66796804Y-66062186D01*
X66840549Y-65956577D01*
X67607860Y-65956577D01*
X67607860Y-66327702D01*
X67640205Y-66697407D01*
X67640205Y-66697411D01*
X67704647Y-67062875D01*
X67704651Y-67062892D01*
X67800697Y-67421346D01*
X67927635Y-67770103D01*
X68084467Y-68106432D01*
X68084475Y-68106447D01*
X68270026Y-68427830D01*
X68270035Y-68427845D01*
X68482900Y-68731847D01*
X68679865Y-68966579D01*
X68679866Y-68966580D01*
X70563608Y-67082838D01*
X70637448Y-67184470D01*
X70815530Y-67362552D01*
X70917160Y-67436391D01*
X69033418Y-69320132D01*
X69033419Y-69320133D01*
X69268152Y-69517099D01*
X69572154Y-69729964D01*
X69572169Y-69729973D01*
X69893552Y-69915524D01*
X69893567Y-69915532D01*
X70229896Y-70072364D01*
X70578653Y-70199302D01*
X70937107Y-70295348D01*
X70937124Y-70295352D01*
X71302590Y-70359794D01*
X71672297Y-70392139D01*
X71672300Y-70392140D01*
X72043420Y-70392140D01*
X72043422Y-70392139D01*
X72413127Y-70359794D01*
X72413131Y-70359794D01*
X72778595Y-70295352D01*
X72778612Y-70295348D01*
X73137066Y-70199302D01*
X73485823Y-70072364D01*
X73822152Y-69915532D01*
X73822167Y-69915524D01*
X74143550Y-69729973D01*
X74143565Y-69729964D01*
X74447560Y-69517104D01*
X74682299Y-69320133D01*
X74682300Y-69320132D01*
X72798558Y-67436391D01*
X72900190Y-67362552D01*
X73078272Y-67184470D01*
X73152111Y-67082839D01*
X75035852Y-68966580D01*
X75035853Y-68966579D01*
X75232824Y-68731840D01*
X75445684Y-68427845D01*
X75445693Y-68427830D01*
X75631244Y-68106447D01*
X75631252Y-68106432D01*
X75788084Y-67770103D01*
X75915022Y-67421346D01*
X76011068Y-67062892D01*
X76011072Y-67062875D01*
X76075514Y-66697411D01*
X76075514Y-66697407D01*
X76107859Y-66327702D01*
X76107860Y-66327700D01*
X76107860Y-65956580D01*
X76107859Y-65956577D01*
X76075514Y-65586872D01*
X76075514Y-65586868D01*
X76011072Y-65221404D01*
X76011068Y-65221387D01*
X75915022Y-64862933D01*
X75788084Y-64514176D01*
X75631252Y-64177847D01*
X75631244Y-64177832D01*
X75445693Y-63856449D01*
X75445684Y-63856434D01*
X75232819Y-63552432D01*
X75035853Y-63317699D01*
X75035852Y-63317698D01*
X73152110Y-65201440D01*
X73078272Y-65099810D01*
X72900190Y-64921728D01*
X72798557Y-64847887D01*
X74682300Y-62964146D01*
X74682299Y-62964145D01*
X74447567Y-62767180D01*
X74143565Y-62554315D01*
X74143550Y-62554306D01*
X73822167Y-62368755D01*
X73822152Y-62368747D01*
X73485823Y-62211915D01*
X73137066Y-62084977D01*
X72778612Y-61988931D01*
X72778595Y-61988927D01*
X72413129Y-61924485D01*
X72043422Y-61892140D01*
X71672297Y-61892140D01*
X71302592Y-61924485D01*
X71302588Y-61924485D01*
X70937124Y-61988927D01*
X70937107Y-61988931D01*
X70578653Y-62084977D01*
X70229896Y-62211915D01*
X69893567Y-62368747D01*
X69893552Y-62368755D01*
X69572169Y-62554306D01*
X69572154Y-62554315D01*
X69268152Y-62767180D01*
X69033419Y-62964145D01*
X69033418Y-62964146D01*
X70917161Y-64847888D01*
X70815530Y-64921728D01*
X70637448Y-65099810D01*
X70563608Y-65201441D01*
X68679866Y-63317698D01*
X68679865Y-63317699D01*
X68482900Y-63552432D01*
X68270035Y-63856434D01*
X68270026Y-63856449D01*
X68084475Y-64177832D01*
X68084467Y-64177847D01*
X67927635Y-64514176D01*
X67800697Y-64862933D01*
X67704651Y-65221387D01*
X67704647Y-65221404D01*
X67640205Y-65586868D01*
X67640205Y-65586872D01*
X67607860Y-65956577D01*
X66840549Y-65956577D01*
X66853378Y-65925604D01*
X66873924Y-65822315D01*
X66882220Y-65780611D01*
X66882220Y-60872473D01*
X66853379Y-60727486D01*
X66853378Y-60727485D01*
X66853378Y-60727481D01*
X66853376Y-60727476D01*
X66796807Y-60590905D01*
X66796800Y-60590892D01*
X66714672Y-60467979D01*
X66685033Y-60438340D01*
X66610136Y-60363443D01*
X66447673Y-60200980D01*
X65950546Y-59703851D01*
X65950539Y-59703845D01*
X65876854Y-59654611D01*
X65876854Y-59654612D01*
X65827616Y-59621712D01*
X65691042Y-59565142D01*
X65691032Y-59565139D01*
X65546045Y-59536299D01*
X65546043Y-59536299D01*
X62057802Y-59536299D01*
X62057800Y-59536299D01*
X61912812Y-59565139D01*
X61912802Y-59565142D01*
X61776231Y-59621711D01*
X61776218Y-59621718D01*
X61653304Y-59703847D01*
X61653300Y-59703850D01*
X61156170Y-60200980D01*
X61094847Y-60234465D01*
X61068489Y-60237299D01*
X60913206Y-60237299D01*
X60852289Y-60246947D01*
X60730454Y-60266244D01*
X60554487Y-60323418D01*
X60554484Y-60323419D01*
X60389623Y-60407421D01*
X60310541Y-60464878D01*
X60239933Y-60516178D01*
X60239931Y-60516180D01*
X60239930Y-60516180D01*
X60109101Y-60647009D01*
X60106034Y-60651231D01*
X60050701Y-60693893D01*
X59981087Y-60699868D01*
X59919294Y-60667258D01*
X59905406Y-60651231D01*
X59902341Y-60647012D01*
X59771507Y-60516178D01*
X59621816Y-60407421D01*
X59456955Y-60323419D01*
X59456952Y-60323418D01*
X59280985Y-60266244D01*
X59189609Y-60251771D01*
X59098234Y-60237299D01*
X58913206Y-60237299D01*
X58852289Y-60246947D01*
X58730454Y-60266244D01*
X58554487Y-60323418D01*
X58554484Y-60323419D01*
X58389623Y-60407421D01*
X58310541Y-60464878D01*
X58239933Y-60516178D01*
X58239931Y-60516180D01*
X58239930Y-60516180D01*
X58109101Y-60647009D01*
X58106034Y-60651231D01*
X58050701Y-60693893D01*
X57981087Y-60699868D01*
X57919294Y-60667258D01*
X57905406Y-60651231D01*
X57902341Y-60647012D01*
X57771507Y-60516178D01*
X57621816Y-60407421D01*
X57456955Y-60323419D01*
X57456952Y-60323418D01*
X57280985Y-60266244D01*
X57189609Y-60251771D01*
X57098234Y-60237299D01*
X56913206Y-60237299D01*
X56852289Y-60246947D01*
X56730454Y-60266244D01*
X56554487Y-60323418D01*
X56554484Y-60323419D01*
X56389623Y-60407421D01*
X56310541Y-60464878D01*
X56239933Y-60516178D01*
X56239931Y-60516180D01*
X56239930Y-60516180D01*
X56109101Y-60647009D01*
X56106034Y-60651231D01*
X56050701Y-60693893D01*
X55981087Y-60699868D01*
X55919294Y-60667258D01*
X55905406Y-60651231D01*
X55902341Y-60647012D01*
X55771507Y-60516178D01*
X55621816Y-60407421D01*
X55456955Y-60323419D01*
X55456952Y-60323418D01*
X55280985Y-60266244D01*
X55189609Y-60251771D01*
X55098234Y-60237299D01*
X54913206Y-60237299D01*
X54852289Y-60246947D01*
X54730454Y-60266244D01*
X54554487Y-60323418D01*
X54554484Y-60323419D01*
X54389623Y-60407421D01*
X54310541Y-60464878D01*
X54239933Y-60516178D01*
X54239931Y-60516180D01*
X54239930Y-60516180D01*
X54109101Y-60647009D01*
X54106034Y-60651231D01*
X54050701Y-60693893D01*
X53981087Y-60699868D01*
X53919294Y-60667258D01*
X53905406Y-60651231D01*
X53902341Y-60647012D01*
X53771507Y-60516178D01*
X53621816Y-60407421D01*
X53456955Y-60323419D01*
X53456952Y-60323418D01*
X53280985Y-60266244D01*
X53189609Y-60251771D01*
X53098234Y-60237299D01*
X52942950Y-60237299D01*
X52875911Y-60217614D01*
X52855269Y-60200980D01*
X51984141Y-59329851D01*
X51984134Y-59329845D01*
X51910449Y-59280611D01*
X51910449Y-59280612D01*
X51861211Y-59247712D01*
X51724637Y-59191142D01*
X51724627Y-59191139D01*
X51579640Y-59162299D01*
X51579638Y-59162299D01*
X50431802Y-59162299D01*
X50431796Y-59162299D01*
X50402962Y-59168033D01*
X50402963Y-59168034D01*
X50286813Y-59191138D01*
X50286803Y-59191141D01*
X50206801Y-59224278D01*
X50206802Y-59224279D01*
X50150222Y-59247716D01*
X50100989Y-59280612D01*
X50027308Y-59329843D01*
X50027300Y-59329849D01*
X49296769Y-60060380D01*
X49249108Y-60131710D01*
X49249109Y-60131711D01*
X49214634Y-60183307D01*
X49158063Y-60319881D01*
X49158060Y-60319891D01*
X49129220Y-60464878D01*
X49129220Y-60464881D01*
X49129220Y-67360717D01*
X49129220Y-67360719D01*
X49129219Y-67360719D01*
X47646987Y-67360719D01*
X47726788Y-67062892D01*
X47726792Y-67062875D01*
X47791234Y-66697411D01*
X47791234Y-66697407D01*
X47823579Y-66327702D01*
X47823580Y-66327700D01*
X47823580Y-65956580D01*
X47823579Y-65956577D01*
X47791234Y-65586872D01*
X47791234Y-65586868D01*
X47726792Y-65221404D01*
X47726788Y-65221387D01*
X47630742Y-64862933D01*
X47503804Y-64514176D01*
X47346972Y-64177847D01*
X47346964Y-64177832D01*
X47161413Y-63856449D01*
X47161404Y-63856434D01*
X46948539Y-63552432D01*
X46751573Y-63317699D01*
X46751572Y-63317698D01*
X44867830Y-65201440D01*
X44793992Y-65099810D01*
X44615910Y-64921728D01*
X44514277Y-64847887D01*
X46398020Y-62964146D01*
X46398019Y-62964145D01*
X46163287Y-62767180D01*
X45859285Y-62554315D01*
X45859270Y-62554306D01*
X45537887Y-62368755D01*
X45537872Y-62368747D01*
X45201543Y-62211915D01*
X44852786Y-62084977D01*
X44494332Y-61988931D01*
X44494315Y-61988927D01*
X44128849Y-61924485D01*
X43759142Y-61892140D01*
X43388017Y-61892140D01*
X43018312Y-61924485D01*
X43018308Y-61924485D01*
X42652844Y-61988927D01*
X42652827Y-61988931D01*
X42294373Y-62084977D01*
X41945616Y-62211915D01*
X41609287Y-62368747D01*
X41609272Y-62368755D01*
X41287889Y-62554306D01*
X41287874Y-62554315D01*
X40983872Y-62767180D01*
X40749139Y-62964145D01*
X40749138Y-62964146D01*
X42632881Y-64847888D01*
X42531250Y-64921728D01*
X42353168Y-65099810D01*
X42279328Y-65201441D01*
X40395586Y-63317698D01*
X40395585Y-63317699D01*
X40198620Y-63552432D01*
X39985755Y-63856434D01*
X39985746Y-63856449D01*
X39800195Y-64177832D01*
X39800187Y-64177847D01*
X39643355Y-64514176D01*
X39516417Y-64862933D01*
X39420371Y-65221387D01*
X39420367Y-65221404D01*
X39355925Y-65586868D01*
X39355925Y-65586872D01*
X39323580Y-65956577D01*
X36580736Y-65956577D01*
X36580991Y-65949449D01*
X36581775Y-65927491D01*
X36591785Y-65647214D01*
X36592416Y-65638405D01*
X36644882Y-65150407D01*
X36646141Y-65141646D01*
X36733285Y-64658632D01*
X36735165Y-64649995D01*
X36856547Y-64174429D01*
X36859032Y-64165965D01*
X37014032Y-63700265D01*
X37017121Y-63691983D01*
X37041522Y-63633075D01*
X37204945Y-63238534D01*
X37208620Y-63230489D01*
X37263050Y-63121751D01*
X37428328Y-62791568D01*
X37432539Y-62783856D01*
X37683008Y-62361711D01*
X37687762Y-62354314D01*
X37967694Y-61951137D01*
X37972994Y-61944057D01*
X37988766Y-61924485D01*
X38280976Y-61561874D01*
X38286738Y-61555225D01*
X38622713Y-61194360D01*
X38625732Y-61191232D01*
X48002527Y-51814437D01*
X53465720Y-51814437D01*
X53465720Y-52185562D01*
X53498065Y-52555267D01*
X53498065Y-52555271D01*
X53562507Y-52920735D01*
X53562511Y-52920752D01*
X53658557Y-53279206D01*
X53785495Y-53627963D01*
X53942327Y-53964292D01*
X53942335Y-53964307D01*
X54127886Y-54285690D01*
X54127895Y-54285705D01*
X54340760Y-54589707D01*
X54537725Y-54824439D01*
X54537726Y-54824440D01*
X56421468Y-52940698D01*
X56495308Y-53042330D01*
X56673390Y-53220412D01*
X56775020Y-53294251D01*
X54891278Y-55177992D01*
X54891279Y-55177993D01*
X55126012Y-55374959D01*
X55430014Y-55587824D01*
X55430029Y-55587833D01*
X55751412Y-55773384D01*
X55751427Y-55773392D01*
X56087756Y-55930224D01*
X56436513Y-56057162D01*
X56794967Y-56153208D01*
X56794984Y-56153212D01*
X57160450Y-56217654D01*
X57530157Y-56249999D01*
X57530160Y-56250000D01*
X57901280Y-56250000D01*
X57901282Y-56249999D01*
X58270987Y-56217654D01*
X58270991Y-56217654D01*
X58636455Y-56153212D01*
X58636472Y-56153208D01*
X58994926Y-56057162D01*
X59343683Y-55930224D01*
X59680012Y-55773392D01*
X59680027Y-55773384D01*
X60001410Y-55587833D01*
X60001425Y-55587824D01*
X60305420Y-55374964D01*
X60540159Y-55177993D01*
X60540160Y-55177992D01*
X58656418Y-53294251D01*
X58758050Y-53220412D01*
X58936132Y-53042330D01*
X59009971Y-52940699D01*
X60893712Y-54824440D01*
X60893713Y-54824439D01*
X61090684Y-54589700D01*
X61303544Y-54285705D01*
X61303553Y-54285690D01*
X61489104Y-53964307D01*
X61489112Y-53964292D01*
X61645944Y-53627963D01*
X61772882Y-53279206D01*
X61868928Y-52920752D01*
X61868932Y-52920735D01*
X61933374Y-52555271D01*
X61933374Y-52555267D01*
X61965719Y-52185562D01*
X61965720Y-52185560D01*
X61965720Y-51814440D01*
X61965719Y-51814437D01*
X61933374Y-51444732D01*
X61933374Y-51444728D01*
X61868932Y-51079264D01*
X61868928Y-51079247D01*
X61772882Y-50720793D01*
X61645944Y-50372036D01*
X61489112Y-50035707D01*
X61489104Y-50035692D01*
X61303553Y-49714309D01*
X61303544Y-49714294D01*
X61090679Y-49410292D01*
X60893713Y-49175559D01*
X60893712Y-49175558D01*
X59009970Y-51059300D01*
X58936132Y-50957670D01*
X58758050Y-50779588D01*
X58656417Y-50705747D01*
X60540160Y-48822006D01*
X60540159Y-48822005D01*
X60305427Y-48625040D01*
X60001425Y-48412175D01*
X60001410Y-48412166D01*
X59680027Y-48226615D01*
X59680012Y-48226607D01*
X59343683Y-48069775D01*
X58994926Y-47942837D01*
X58636472Y-47846791D01*
X58636455Y-47846787D01*
X58270989Y-47782345D01*
X57901282Y-47750000D01*
X57530157Y-47750000D01*
X57160452Y-47782345D01*
X57160448Y-47782345D01*
X56794984Y-47846787D01*
X56794967Y-47846791D01*
X56436513Y-47942837D01*
X56087756Y-48069775D01*
X55751427Y-48226607D01*
X55751412Y-48226615D01*
X55430029Y-48412166D01*
X55430014Y-48412175D01*
X55126012Y-48625040D01*
X54891279Y-48822005D01*
X54891278Y-48822006D01*
X56775021Y-50705748D01*
X56673390Y-50779588D01*
X56495308Y-50957670D01*
X56421468Y-51059301D01*
X54537726Y-49175558D01*
X54537725Y-49175559D01*
X54340760Y-49410292D01*
X54127895Y-49714294D01*
X54127886Y-49714309D01*
X53942335Y-50035692D01*
X53942327Y-50035707D01*
X53785495Y-50372036D01*
X53658557Y-50720793D01*
X53562511Y-51079247D01*
X53562507Y-51079264D01*
X53498065Y-51444728D01*
X53498065Y-51444732D01*
X53465720Y-51814437D01*
X48002527Y-51814437D01*
X52764812Y-47052152D01*
X52767942Y-47049132D01*
X53128805Y-46713157D01*
X53135454Y-46707395D01*
X53517643Y-46399408D01*
X53524723Y-46394109D01*
X53531484Y-46389415D01*
X53927894Y-46114182D01*
X53935291Y-46109428D01*
X54357425Y-45858965D01*
X54365160Y-45854741D01*
X54804073Y-45635036D01*
X54812115Y-45631364D01*
X55265573Y-45443535D01*
X55273844Y-45440451D01*
X55739544Y-45285451D01*
X55748008Y-45282966D01*
X56223588Y-45161581D01*
X56232212Y-45159704D01*
X56715229Y-45072559D01*
X56723986Y-45071301D01*
X57211985Y-45018835D01*
X57220794Y-45018204D01*
X57711296Y-45000686D01*
X57720144Y-45000686D01*
X58210643Y-45018204D01*
G37*
%TD.AperFunction*%
%TD*%
M02*
