M48
; DRILL file {KiCad 9.0.0} date 2025-06-23T16:23:01+0900
; FORMAT={-:-/ absolute / inch / decimal}
; #@! TF.CreationDate,2025-06-23T16:23:01+09:00
; #@! TF.GenerationSoftware,Kicad,Pcbnew,9.0.0
; #@! TF.FileFunction,Plated,1,2,PTH
FMAT,2
INCH
; #@! TA.AperFunction,Plated,PTH,ViaDrill
T1C0.0118
; #@! TA.AperFunction,Plated,PTH,ComponentDrill
T2C0.0315
; #@! TA.AperFunction,Plated,PTH,ComponentDrill
T3C0.0394
; #@! TA.AperFunction,Plated,PTH,ComponentDrill
T4C0.1260
%
G90
G05
T1
X1.8786Y-2.2103
X1.8786Y-2.604
X1.8786Y-2.9977
X2.2723Y-2.2103
X2.2723Y-2.9977
X2.666Y-2.2103
X2.666Y-2.604
X2.666Y-2.9977
T2
X2.0081Y-2.4178
X2.0868Y-2.4178
X2.1656Y-2.4178
X2.2443Y-2.4178
X2.3231Y-2.4178
X2.4018Y-2.4178
X2.4805Y-2.4178
X2.5593Y-2.4178
T3
X2.0723Y-2.5458
X2.0723Y-2.6458
X2.1723Y-2.5458
X2.1723Y-2.6458
X2.2723Y-2.5458
X2.2723Y-2.6458
X2.3723Y-2.5458
X2.3723Y-2.6458
X2.4723Y-2.5458
X2.4723Y-2.6458
T4
X1.7155Y-2.604
X2.2723Y-2.0472
X2.2723Y-3.1608
X2.829Y-2.604
M30
