%TF.GenerationSoftware,KiCad,Pcbnew,9.0.0*%
%TF.CreationDate,2025-06-18T11:31:42+09:00*%
%TF.ProjectId,headlight_upper_side,68656164-6c69-4676-9874-5f7570706572,00*%
%TF.SameCoordinates,Original*%
%TF.FileFunction,Soldermask,Bot*%
%TF.FilePolarity,Negative*%
%FSLAX46Y46*%
G04 Gerber Fmt 4.6, Leading zero omitted, Abs format (unit mm)*
G04 Created by KiCad (PCBNEW 9.0.0) date 2025-06-18 11:31:42*
%MOMM*%
%LPD*%
G01*
G04 APERTURE LIST*
%ADD10R,1.800000X1.800000*%
%ADD11C,1.800000*%
%ADD12C,3.200000*%
%ADD13C,1.700000*%
%ADD14C,1.600000*%
%ADD15O,1.600000X1.600000*%
%ADD16R,1.700000X1.700000*%
%ADD17O,1.700000X1.700000*%
G04 APERTURE END LIST*
D10*
%TO.C,IR4*%
X94830233Y-59299432D03*
D11*
X94830233Y-61839432D03*
%TD*%
D12*
%TO.C,H3*%
X71749999Y-52499999D03*
%TD*%
D10*
%TO.C,LB1*%
X28749999Y-49224999D03*
D11*
X28749999Y-51764999D03*
%TD*%
D10*
%TO.C,IR1*%
X28669765Y-59299432D03*
D11*
X28669765Y-61839432D03*
%TD*%
D12*
%TO.C,H1*%
X29249999Y-71999999D03*
%TD*%
D10*
%TO.C,LB2*%
X94949999Y-49224999D03*
D11*
X94949999Y-51764999D03*
%TD*%
D10*
%TO.C,IR3*%
X77175566Y-41644765D03*
D11*
X77175566Y-44184765D03*
%TD*%
D12*
%TO.C,HB1*%
X66399999Y-26645517D03*
X56899999Y-26645517D03*
X71149999Y-34872758D03*
X52149999Y-34872758D03*
X66399999Y-43099999D03*
X56899999Y-43099999D03*
D13*
X78249999Y-30807758D03*
X78249999Y-38807758D03*
%TD*%
D10*
%TO.C,IR2*%
X46324432Y-41644765D03*
D11*
X46324432Y-44184765D03*
%TD*%
D12*
%TO.C,H2*%
X51749999Y-52499999D03*
%TD*%
D14*
%TO.C,R6*%
X90249999Y-45119999D03*
D15*
X90249999Y-55279999D03*
%TD*%
D14*
%TO.C,R9*%
X96079999Y-67749999D03*
D15*
X85919999Y-67749999D03*
%TD*%
D14*
%TO.C,R1*%
X33749999Y-39419999D03*
D15*
X33749999Y-49579999D03*
%TD*%
D16*
%TO.C,J2*%
X96160000Y-72137142D03*
D17*
X96160000Y-74677142D03*
X93620000Y-72137142D03*
X93620000Y-74677142D03*
X91080000Y-72137142D03*
X91080000Y-74677142D03*
%TD*%
D14*
%TO.C,R4*%
X40249999Y-39419999D03*
D15*
X40249999Y-49579999D03*
%TD*%
D16*
%TO.C,M1*%
X86249999Y-59224999D03*
D17*
X86249999Y-61764999D03*
%TD*%
D14*
%TO.C,R5*%
X92499999Y-42249999D03*
D15*
X82339999Y-42249999D03*
%TD*%
D14*
%TO.C,R2*%
X86999999Y-45169999D03*
D15*
X86999999Y-55329999D03*
%TD*%
D14*
%TO.C,R3*%
X36999999Y-39419999D03*
D15*
X36999999Y-49579999D03*
%TD*%
M02*
