%TF.GenerationSoftware,KiCad,Pcbnew,9.0.0*%
%TF.CreationDate,2025-06-18T11:31:42+09:00*%
%TF.ProjectId,headlight_upper_side,68656164-6c69-4676-9874-5f7570706572,00*%
%TF.SameCoordinates,Original*%
%TF.FileFunction,Legend,Top*%
%TF.FilePolarity,Positive*%
%FSLAX46Y46*%
G04 Gerber Fmt 4.6, Leading zero omitted, Abs format (unit mm)*
G04 Created by KiCad (PCBNEW 9.0.0) date 2025-06-18 11:31:42*
%MOMM*%
%LPD*%
G01*
G04 APERTURE LIST*
G04 Aperture macros list*
%AMRoundRect*
0 Rectangle with rounded corners*
0 $1 Rounding radius*
0 $2 $3 $4 $5 $6 $7 $8 $9 X,Y pos of 4 corners*
0 Add a 4 corners polygon primitive as box body*
4,1,4,$2,$3,$4,$5,$6,$7,$8,$9,$2,$3,0*
0 Add four circle primitives for the rounded corners*
1,1,$1+$1,$2,$3*
1,1,$1+$1,$4,$5*
1,1,$1+$1,$6,$7*
1,1,$1+$1,$8,$9*
0 Add four rect primitives between the rounded corners*
20,1,$1+$1,$2,$3,$4,$5,0*
20,1,$1+$1,$4,$5,$6,$7,0*
20,1,$1+$1,$6,$7,$8,$9,0*
20,1,$1+$1,$8,$9,$2,$3,0*%
G04 Aperture macros list end*
%ADD10C,0.100000*%
%ADD11C,0.150000*%
%ADD12C,0.187500*%
%ADD13C,0.400000*%
%ADD14C,0.120000*%
%ADD15C,0.000000*%
%ADD16R,1.800000X1.800000*%
%ADD17C,1.800000*%
%ADD18C,3.200000*%
%ADD19RoundRect,0.250000X0.325000X0.450000X-0.325000X0.450000X-0.325000X-0.450000X0.325000X-0.450000X0*%
%ADD20C,1.700000*%
%ADD21C,1.600000*%
%ADD22O,1.600000X1.600000*%
%ADD23R,1.700000X1.700000*%
%ADD24O,1.700000X1.700000*%
G04 APERTURE END LIST*
D10*
X33249999Y-67999999D02*
X25449999Y-67999999D01*
X33249999Y-75799999D02*
X33249999Y-67999999D01*
D11*
X27486778Y-37469818D02*
X27486778Y-36469818D01*
X27486778Y-36946008D02*
X28058206Y-36946008D01*
X28058206Y-37469818D02*
X28058206Y-36469818D01*
X28534397Y-36946008D02*
X28867730Y-36946008D01*
X29010587Y-37469818D02*
X28534397Y-37469818D01*
X28534397Y-37469818D02*
X28534397Y-36469818D01*
X28534397Y-36469818D02*
X29010587Y-36469818D01*
X29391540Y-37184103D02*
X29867730Y-37184103D01*
X29296302Y-37469818D02*
X29629635Y-36469818D01*
X29629635Y-36469818D02*
X29962968Y-37469818D01*
X30296302Y-37469818D02*
X30296302Y-36469818D01*
X30296302Y-36469818D02*
X30534397Y-36469818D01*
X30534397Y-36469818D02*
X30677254Y-36517437D01*
X30677254Y-36517437D02*
X30772492Y-36612675D01*
X30772492Y-36612675D02*
X30820111Y-36707913D01*
X30820111Y-36707913D02*
X30867730Y-36898389D01*
X30867730Y-36898389D02*
X30867730Y-37041246D01*
X30867730Y-37041246D02*
X30820111Y-37231722D01*
X30820111Y-37231722D02*
X30772492Y-37326960D01*
X30772492Y-37326960D02*
X30677254Y-37422199D01*
X30677254Y-37422199D02*
X30534397Y-37469818D01*
X30534397Y-37469818D02*
X30296302Y-37469818D01*
X31772492Y-37469818D02*
X31296302Y-37469818D01*
X31296302Y-37469818D02*
X31296302Y-36469818D01*
X32105826Y-37469818D02*
X32105826Y-36469818D01*
X33105825Y-36517437D02*
X33010587Y-36469818D01*
X33010587Y-36469818D02*
X32867730Y-36469818D01*
X32867730Y-36469818D02*
X32724873Y-36517437D01*
X32724873Y-36517437D02*
X32629635Y-36612675D01*
X32629635Y-36612675D02*
X32582016Y-36707913D01*
X32582016Y-36707913D02*
X32534397Y-36898389D01*
X32534397Y-36898389D02*
X32534397Y-37041246D01*
X32534397Y-37041246D02*
X32582016Y-37231722D01*
X32582016Y-37231722D02*
X32629635Y-37326960D01*
X32629635Y-37326960D02*
X32724873Y-37422199D01*
X32724873Y-37422199D02*
X32867730Y-37469818D01*
X32867730Y-37469818D02*
X32962968Y-37469818D01*
X32962968Y-37469818D02*
X33105825Y-37422199D01*
X33105825Y-37422199D02*
X33153444Y-37374579D01*
X33153444Y-37374579D02*
X33153444Y-37041246D01*
X33153444Y-37041246D02*
X32962968Y-37041246D01*
X33582016Y-37469818D02*
X33582016Y-36469818D01*
X33582016Y-36946008D02*
X34153444Y-36946008D01*
X34153444Y-37469818D02*
X34153444Y-36469818D01*
X34486778Y-36469818D02*
X35058206Y-36469818D01*
X34772492Y-37469818D02*
X34772492Y-36469818D01*
X36153445Y-36469818D02*
X36153445Y-37279341D01*
X36153445Y-37279341D02*
X36201064Y-37374579D01*
X36201064Y-37374579D02*
X36248683Y-37422199D01*
X36248683Y-37422199D02*
X36343921Y-37469818D01*
X36343921Y-37469818D02*
X36534397Y-37469818D01*
X36534397Y-37469818D02*
X36629635Y-37422199D01*
X36629635Y-37422199D02*
X36677254Y-37374579D01*
X36677254Y-37374579D02*
X36724873Y-37279341D01*
X36724873Y-37279341D02*
X36724873Y-36469818D01*
X37201064Y-37469818D02*
X37201064Y-36469818D01*
X37201064Y-36469818D02*
X37582016Y-36469818D01*
X37582016Y-36469818D02*
X37677254Y-36517437D01*
X37677254Y-36517437D02*
X37724873Y-36565056D01*
X37724873Y-36565056D02*
X37772492Y-36660294D01*
X37772492Y-36660294D02*
X37772492Y-36803151D01*
X37772492Y-36803151D02*
X37724873Y-36898389D01*
X37724873Y-36898389D02*
X37677254Y-36946008D01*
X37677254Y-36946008D02*
X37582016Y-36993627D01*
X37582016Y-36993627D02*
X37201064Y-36993627D01*
X38201064Y-37469818D02*
X38201064Y-36469818D01*
X38201064Y-36469818D02*
X38582016Y-36469818D01*
X38582016Y-36469818D02*
X38677254Y-36517437D01*
X38677254Y-36517437D02*
X38724873Y-36565056D01*
X38724873Y-36565056D02*
X38772492Y-36660294D01*
X38772492Y-36660294D02*
X38772492Y-36803151D01*
X38772492Y-36803151D02*
X38724873Y-36898389D01*
X38724873Y-36898389D02*
X38677254Y-36946008D01*
X38677254Y-36946008D02*
X38582016Y-36993627D01*
X38582016Y-36993627D02*
X38201064Y-36993627D01*
X39201064Y-36946008D02*
X39534397Y-36946008D01*
X39677254Y-37469818D02*
X39201064Y-37469818D01*
X39201064Y-37469818D02*
X39201064Y-36469818D01*
X39201064Y-36469818D02*
X39677254Y-36469818D01*
X40677254Y-37469818D02*
X40343921Y-36993627D01*
X40105826Y-37469818D02*
X40105826Y-36469818D01*
X40105826Y-36469818D02*
X40486778Y-36469818D01*
X40486778Y-36469818D02*
X40582016Y-36517437D01*
X40582016Y-36517437D02*
X40629635Y-36565056D01*
X40629635Y-36565056D02*
X40677254Y-36660294D01*
X40677254Y-36660294D02*
X40677254Y-36803151D01*
X40677254Y-36803151D02*
X40629635Y-36898389D01*
X40629635Y-36898389D02*
X40582016Y-36946008D01*
X40582016Y-36946008D02*
X40486778Y-36993627D01*
X40486778Y-36993627D02*
X40105826Y-36993627D01*
X41820112Y-37422199D02*
X41962969Y-37469818D01*
X41962969Y-37469818D02*
X42201064Y-37469818D01*
X42201064Y-37469818D02*
X42296302Y-37422199D01*
X42296302Y-37422199D02*
X42343921Y-37374579D01*
X42343921Y-37374579D02*
X42391540Y-37279341D01*
X42391540Y-37279341D02*
X42391540Y-37184103D01*
X42391540Y-37184103D02*
X42343921Y-37088865D01*
X42343921Y-37088865D02*
X42296302Y-37041246D01*
X42296302Y-37041246D02*
X42201064Y-36993627D01*
X42201064Y-36993627D02*
X42010588Y-36946008D01*
X42010588Y-36946008D02*
X41915350Y-36898389D01*
X41915350Y-36898389D02*
X41867731Y-36850770D01*
X41867731Y-36850770D02*
X41820112Y-36755532D01*
X41820112Y-36755532D02*
X41820112Y-36660294D01*
X41820112Y-36660294D02*
X41867731Y-36565056D01*
X41867731Y-36565056D02*
X41915350Y-36517437D01*
X41915350Y-36517437D02*
X42010588Y-36469818D01*
X42010588Y-36469818D02*
X42248683Y-36469818D01*
X42248683Y-36469818D02*
X42391540Y-36517437D01*
X42820112Y-37469818D02*
X42820112Y-36469818D01*
X43296302Y-37469818D02*
X43296302Y-36469818D01*
X43296302Y-36469818D02*
X43534397Y-36469818D01*
X43534397Y-36469818D02*
X43677254Y-36517437D01*
X43677254Y-36517437D02*
X43772492Y-36612675D01*
X43772492Y-36612675D02*
X43820111Y-36707913D01*
X43820111Y-36707913D02*
X43867730Y-36898389D01*
X43867730Y-36898389D02*
X43867730Y-37041246D01*
X43867730Y-37041246D02*
X43820111Y-37231722D01*
X43820111Y-37231722D02*
X43772492Y-37326960D01*
X43772492Y-37326960D02*
X43677254Y-37422199D01*
X43677254Y-37422199D02*
X43534397Y-37469818D01*
X43534397Y-37469818D02*
X43296302Y-37469818D01*
X44296302Y-36946008D02*
X44629635Y-36946008D01*
X44772492Y-37469818D02*
X44296302Y-37469818D01*
X44296302Y-37469818D02*
X44296302Y-36469818D01*
X44296302Y-36469818D02*
X44772492Y-36469818D01*
X45962969Y-37469818D02*
X45962969Y-36469818D01*
X45962969Y-36469818D02*
X46343921Y-36469818D01*
X46343921Y-36469818D02*
X46439159Y-36517437D01*
X46439159Y-36517437D02*
X46486778Y-36565056D01*
X46486778Y-36565056D02*
X46534397Y-36660294D01*
X46534397Y-36660294D02*
X46534397Y-36803151D01*
X46534397Y-36803151D02*
X46486778Y-36898389D01*
X46486778Y-36898389D02*
X46439159Y-36946008D01*
X46439159Y-36946008D02*
X46343921Y-36993627D01*
X46343921Y-36993627D02*
X45962969Y-36993627D01*
X47534397Y-37374579D02*
X47486778Y-37422199D01*
X47486778Y-37422199D02*
X47343921Y-37469818D01*
X47343921Y-37469818D02*
X47248683Y-37469818D01*
X47248683Y-37469818D02*
X47105826Y-37422199D01*
X47105826Y-37422199D02*
X47010588Y-37326960D01*
X47010588Y-37326960D02*
X46962969Y-37231722D01*
X46962969Y-37231722D02*
X46915350Y-37041246D01*
X46915350Y-37041246D02*
X46915350Y-36898389D01*
X46915350Y-36898389D02*
X46962969Y-36707913D01*
X46962969Y-36707913D02*
X47010588Y-36612675D01*
X47010588Y-36612675D02*
X47105826Y-36517437D01*
X47105826Y-36517437D02*
X47248683Y-36469818D01*
X47248683Y-36469818D02*
X47343921Y-36469818D01*
X47343921Y-36469818D02*
X47486778Y-36517437D01*
X47486778Y-36517437D02*
X47534397Y-36565056D01*
X48296302Y-36946008D02*
X48439159Y-36993627D01*
X48439159Y-36993627D02*
X48486778Y-37041246D01*
X48486778Y-37041246D02*
X48534397Y-37136484D01*
X48534397Y-37136484D02*
X48534397Y-37279341D01*
X48534397Y-37279341D02*
X48486778Y-37374579D01*
X48486778Y-37374579D02*
X48439159Y-37422199D01*
X48439159Y-37422199D02*
X48343921Y-37469818D01*
X48343921Y-37469818D02*
X47962969Y-37469818D01*
X47962969Y-37469818D02*
X47962969Y-36469818D01*
X47962969Y-36469818D02*
X48296302Y-36469818D01*
X48296302Y-36469818D02*
X48391540Y-36517437D01*
X48391540Y-36517437D02*
X48439159Y-36565056D01*
X48439159Y-36565056D02*
X48486778Y-36660294D01*
X48486778Y-36660294D02*
X48486778Y-36755532D01*
X48486778Y-36755532D02*
X48439159Y-36850770D01*
X48439159Y-36850770D02*
X48391540Y-36898389D01*
X48391540Y-36898389D02*
X48296302Y-36946008D01*
X48296302Y-36946008D02*
X47962969Y-36946008D01*
X40158206Y-34869818D02*
X39824873Y-34393627D01*
X39586778Y-34869818D02*
X39586778Y-33869818D01*
X39586778Y-33869818D02*
X39967730Y-33869818D01*
X39967730Y-33869818D02*
X40062968Y-33917437D01*
X40062968Y-33917437D02*
X40110587Y-33965056D01*
X40110587Y-33965056D02*
X40158206Y-34060294D01*
X40158206Y-34060294D02*
X40158206Y-34203151D01*
X40158206Y-34203151D02*
X40110587Y-34298389D01*
X40110587Y-34298389D02*
X40062968Y-34346008D01*
X40062968Y-34346008D02*
X39967730Y-34393627D01*
X39967730Y-34393627D02*
X39586778Y-34393627D01*
X40586778Y-34346008D02*
X40920111Y-34346008D01*
X41062968Y-34869818D02*
X40586778Y-34869818D01*
X40586778Y-34869818D02*
X40586778Y-33869818D01*
X40586778Y-33869818D02*
X41062968Y-33869818D01*
X41348683Y-33869818D02*
X41682016Y-34869818D01*
X41682016Y-34869818D02*
X42015349Y-33869818D01*
X42539159Y-33869818D02*
X42634397Y-33869818D01*
X42634397Y-33869818D02*
X42729635Y-33917437D01*
X42729635Y-33917437D02*
X42777254Y-33965056D01*
X42777254Y-33965056D02*
X42824873Y-34060294D01*
X42824873Y-34060294D02*
X42872492Y-34250770D01*
X42872492Y-34250770D02*
X42872492Y-34488865D01*
X42872492Y-34488865D02*
X42824873Y-34679341D01*
X42824873Y-34679341D02*
X42777254Y-34774579D01*
X42777254Y-34774579D02*
X42729635Y-34822199D01*
X42729635Y-34822199D02*
X42634397Y-34869818D01*
X42634397Y-34869818D02*
X42539159Y-34869818D01*
X42539159Y-34869818D02*
X42443921Y-34822199D01*
X42443921Y-34822199D02*
X42396302Y-34774579D01*
X42396302Y-34774579D02*
X42348683Y-34679341D01*
X42348683Y-34679341D02*
X42301064Y-34488865D01*
X42301064Y-34488865D02*
X42301064Y-34250770D01*
X42301064Y-34250770D02*
X42348683Y-34060294D01*
X42348683Y-34060294D02*
X42396302Y-33965056D01*
X42396302Y-33965056D02*
X42443921Y-33917437D01*
X42443921Y-33917437D02*
X42539159Y-33869818D01*
X43491540Y-33869818D02*
X43586778Y-33869818D01*
X43586778Y-33869818D02*
X43682016Y-33917437D01*
X43682016Y-33917437D02*
X43729635Y-33965056D01*
X43729635Y-33965056D02*
X43777254Y-34060294D01*
X43777254Y-34060294D02*
X43824873Y-34250770D01*
X43824873Y-34250770D02*
X43824873Y-34488865D01*
X43824873Y-34488865D02*
X43777254Y-34679341D01*
X43777254Y-34679341D02*
X43729635Y-34774579D01*
X43729635Y-34774579D02*
X43682016Y-34822199D01*
X43682016Y-34822199D02*
X43586778Y-34869818D01*
X43586778Y-34869818D02*
X43491540Y-34869818D01*
X43491540Y-34869818D02*
X43396302Y-34822199D01*
X43396302Y-34822199D02*
X43348683Y-34774579D01*
X43348683Y-34774579D02*
X43301064Y-34679341D01*
X43301064Y-34679341D02*
X43253445Y-34488865D01*
X43253445Y-34488865D02*
X43253445Y-34250770D01*
X43253445Y-34250770D02*
X43301064Y-34060294D01*
X43301064Y-34060294D02*
X43348683Y-33965056D01*
X43348683Y-33965056D02*
X43396302Y-33917437D01*
X43396302Y-33917437D02*
X43491540Y-33869818D01*
D12*
X84188548Y-65086915D02*
X83426644Y-65086915D01*
X83807596Y-65467868D02*
X83807596Y-64705963D01*
D11*
X93773809Y-65054818D02*
X93773809Y-64054818D01*
X94821427Y-65054818D02*
X94488094Y-64578627D01*
X94249999Y-65054818D02*
X94249999Y-64054818D01*
X94249999Y-64054818D02*
X94630951Y-64054818D01*
X94630951Y-64054818D02*
X94726189Y-64102437D01*
X94726189Y-64102437D02*
X94773808Y-64150056D01*
X94773808Y-64150056D02*
X94821427Y-64245294D01*
X94821427Y-64245294D02*
X94821427Y-64388151D01*
X94821427Y-64388151D02*
X94773808Y-64483389D01*
X94773808Y-64483389D02*
X94726189Y-64531008D01*
X94726189Y-64531008D02*
X94630951Y-64578627D01*
X94630951Y-64578627D02*
X94249999Y-64578627D01*
X95678570Y-64388151D02*
X95678570Y-65054818D01*
X95440475Y-64007199D02*
X95202380Y-64721484D01*
X95202380Y-64721484D02*
X95821427Y-64721484D01*
X28083332Y-55264216D02*
X27607142Y-55264216D01*
X27607142Y-55264216D02*
X27607142Y-54264216D01*
X28749999Y-54740406D02*
X28892856Y-54788025D01*
X28892856Y-54788025D02*
X28940475Y-54835644D01*
X28940475Y-54835644D02*
X28988094Y-54930882D01*
X28988094Y-54930882D02*
X28988094Y-55073739D01*
X28988094Y-55073739D02*
X28940475Y-55168977D01*
X28940475Y-55168977D02*
X28892856Y-55216597D01*
X28892856Y-55216597D02*
X28797618Y-55264216D01*
X28797618Y-55264216D02*
X28416666Y-55264216D01*
X28416666Y-55264216D02*
X28416666Y-54264216D01*
X28416666Y-54264216D02*
X28749999Y-54264216D01*
X28749999Y-54264216D02*
X28845237Y-54311835D01*
X28845237Y-54311835D02*
X28892856Y-54359454D01*
X28892856Y-54359454D02*
X28940475Y-54454692D01*
X28940475Y-54454692D02*
X28940475Y-54549930D01*
X28940475Y-54549930D02*
X28892856Y-54645168D01*
X28892856Y-54645168D02*
X28845237Y-54692787D01*
X28845237Y-54692787D02*
X28749999Y-54740406D01*
X28749999Y-54740406D02*
X28416666Y-54740406D01*
X29940475Y-55264216D02*
X29369047Y-55264216D01*
X29654761Y-55264216D02*
X29654761Y-54264216D01*
X29654761Y-54264216D02*
X29559523Y-54407073D01*
X29559523Y-54407073D02*
X29464285Y-54502311D01*
X29464285Y-54502311D02*
X29369047Y-54549930D01*
X27773809Y-65204818D02*
X27773809Y-64204818D01*
X28821427Y-65204818D02*
X28488094Y-64728627D01*
X28249999Y-65204818D02*
X28249999Y-64204818D01*
X28249999Y-64204818D02*
X28630951Y-64204818D01*
X28630951Y-64204818D02*
X28726189Y-64252437D01*
X28726189Y-64252437D02*
X28773808Y-64300056D01*
X28773808Y-64300056D02*
X28821427Y-64395294D01*
X28821427Y-64395294D02*
X28821427Y-64538151D01*
X28821427Y-64538151D02*
X28773808Y-64633389D01*
X28773808Y-64633389D02*
X28726189Y-64681008D01*
X28726189Y-64681008D02*
X28630951Y-64728627D01*
X28630951Y-64728627D02*
X28249999Y-64728627D01*
X29773808Y-65204818D02*
X29202380Y-65204818D01*
X29488094Y-65204818D02*
X29488094Y-64204818D01*
X29488094Y-64204818D02*
X29392856Y-64347675D01*
X29392856Y-64347675D02*
X29297618Y-64442913D01*
X29297618Y-64442913D02*
X29202380Y-64490532D01*
X94223934Y-55264216D02*
X93747744Y-55264216D01*
X93747744Y-55264216D02*
X93747744Y-54264216D01*
X94890601Y-54740406D02*
X95033458Y-54788025D01*
X95033458Y-54788025D02*
X95081077Y-54835644D01*
X95081077Y-54835644D02*
X95128696Y-54930882D01*
X95128696Y-54930882D02*
X95128696Y-55073739D01*
X95128696Y-55073739D02*
X95081077Y-55168977D01*
X95081077Y-55168977D02*
X95033458Y-55216597D01*
X95033458Y-55216597D02*
X94938220Y-55264216D01*
X94938220Y-55264216D02*
X94557268Y-55264216D01*
X94557268Y-55264216D02*
X94557268Y-54264216D01*
X94557268Y-54264216D02*
X94890601Y-54264216D01*
X94890601Y-54264216D02*
X94985839Y-54311835D01*
X94985839Y-54311835D02*
X95033458Y-54359454D01*
X95033458Y-54359454D02*
X95081077Y-54454692D01*
X95081077Y-54454692D02*
X95081077Y-54549930D01*
X95081077Y-54549930D02*
X95033458Y-54645168D01*
X95033458Y-54645168D02*
X94985839Y-54692787D01*
X94985839Y-54692787D02*
X94890601Y-54740406D01*
X94890601Y-54740406D02*
X94557268Y-54740406D01*
X95509649Y-54359454D02*
X95557268Y-54311835D01*
X95557268Y-54311835D02*
X95652506Y-54264216D01*
X95652506Y-54264216D02*
X95890601Y-54264216D01*
X95890601Y-54264216D02*
X95985839Y-54311835D01*
X95985839Y-54311835D02*
X96033458Y-54359454D01*
X96033458Y-54359454D02*
X96081077Y-54454692D01*
X96081077Y-54454692D02*
X96081077Y-54549930D01*
X96081077Y-54549930D02*
X96033458Y-54692787D01*
X96033458Y-54692787D02*
X95462030Y-55264216D01*
X95462030Y-55264216D02*
X96081077Y-55264216D01*
X88940475Y-65654818D02*
X88940475Y-64654818D01*
X88940475Y-64654818D02*
X89321427Y-64654818D01*
X89321427Y-64654818D02*
X89416665Y-64702437D01*
X89416665Y-64702437D02*
X89464284Y-64750056D01*
X89464284Y-64750056D02*
X89511903Y-64845294D01*
X89511903Y-64845294D02*
X89511903Y-64988151D01*
X89511903Y-64988151D02*
X89464284Y-65083389D01*
X89464284Y-65083389D02*
X89416665Y-65131008D01*
X89416665Y-65131008D02*
X89321427Y-65178627D01*
X89321427Y-65178627D02*
X88940475Y-65178627D01*
X89845237Y-64654818D02*
X90083332Y-65654818D01*
X90083332Y-65654818D02*
X90273808Y-64940532D01*
X90273808Y-64940532D02*
X90464284Y-65654818D01*
X90464284Y-65654818D02*
X90702380Y-64654818D01*
X91654760Y-65654818D02*
X91321427Y-65178627D01*
X91083332Y-65654818D02*
X91083332Y-64654818D01*
X91083332Y-64654818D02*
X91464284Y-64654818D01*
X91464284Y-64654818D02*
X91559522Y-64702437D01*
X91559522Y-64702437D02*
X91607141Y-64750056D01*
X91607141Y-64750056D02*
X91654760Y-64845294D01*
X91654760Y-64845294D02*
X91654760Y-64988151D01*
X91654760Y-64988151D02*
X91607141Y-65083389D01*
X91607141Y-65083389D02*
X91559522Y-65131008D01*
X91559522Y-65131008D02*
X91464284Y-65178627D01*
X91464284Y-65178627D02*
X91083332Y-65178627D01*
X92607141Y-65654818D02*
X92035713Y-65654818D01*
X92321427Y-65654818D02*
X92321427Y-64654818D01*
X92321427Y-64654818D02*
X92226189Y-64797675D01*
X92226189Y-64797675D02*
X92130951Y-64892913D01*
X92130951Y-64892913D02*
X92035713Y-64940532D01*
X78273809Y-47704818D02*
X78273809Y-46704818D01*
X79321427Y-47704818D02*
X78988094Y-47228627D01*
X78749999Y-47704818D02*
X78749999Y-46704818D01*
X78749999Y-46704818D02*
X79130951Y-46704818D01*
X79130951Y-46704818D02*
X79226189Y-46752437D01*
X79226189Y-46752437D02*
X79273808Y-46800056D01*
X79273808Y-46800056D02*
X79321427Y-46895294D01*
X79321427Y-46895294D02*
X79321427Y-47038151D01*
X79321427Y-47038151D02*
X79273808Y-47133389D01*
X79273808Y-47133389D02*
X79226189Y-47181008D01*
X79226189Y-47181008D02*
X79130951Y-47228627D01*
X79130951Y-47228627D02*
X78749999Y-47228627D01*
X79654761Y-46704818D02*
X80273808Y-46704818D01*
X80273808Y-46704818D02*
X79940475Y-47085770D01*
X79940475Y-47085770D02*
X80083332Y-47085770D01*
X80083332Y-47085770D02*
X80178570Y-47133389D01*
X80178570Y-47133389D02*
X80226189Y-47181008D01*
X80226189Y-47181008D02*
X80273808Y-47276246D01*
X80273808Y-47276246D02*
X80273808Y-47514341D01*
X80273808Y-47514341D02*
X80226189Y-47609579D01*
X80226189Y-47609579D02*
X80178570Y-47657199D01*
X80178570Y-47657199D02*
X80083332Y-47704818D01*
X80083332Y-47704818D02*
X79797618Y-47704818D01*
X79797618Y-47704818D02*
X79702380Y-47657199D01*
X79702380Y-47657199D02*
X79654761Y-47609579D01*
D10*
X60488094Y-33707418D02*
X60488094Y-32707418D01*
X60488094Y-33183608D02*
X61059522Y-33183608D01*
X61059522Y-33707418D02*
X61059522Y-32707418D01*
X61869046Y-33183608D02*
X62011903Y-33231227D01*
X62011903Y-33231227D02*
X62059522Y-33278846D01*
X62059522Y-33278846D02*
X62107141Y-33374084D01*
X62107141Y-33374084D02*
X62107141Y-33516941D01*
X62107141Y-33516941D02*
X62059522Y-33612179D01*
X62059522Y-33612179D02*
X62011903Y-33659799D01*
X62011903Y-33659799D02*
X61916665Y-33707418D01*
X61916665Y-33707418D02*
X61535713Y-33707418D01*
X61535713Y-33707418D02*
X61535713Y-32707418D01*
X61535713Y-32707418D02*
X61869046Y-32707418D01*
X61869046Y-32707418D02*
X61964284Y-32755037D01*
X61964284Y-32755037D02*
X62011903Y-32802656D01*
X62011903Y-32802656D02*
X62059522Y-32897894D01*
X62059522Y-32897894D02*
X62059522Y-32993132D01*
X62059522Y-32993132D02*
X62011903Y-33088370D01*
X62011903Y-33088370D02*
X61964284Y-33135989D01*
X61964284Y-33135989D02*
X61869046Y-33183608D01*
X61869046Y-33183608D02*
X61535713Y-33183608D01*
X63059522Y-33707418D02*
X62488094Y-33707418D01*
X62773808Y-33707418D02*
X62773808Y-32707418D01*
X62773808Y-32707418D02*
X62678570Y-32850275D01*
X62678570Y-32850275D02*
X62583332Y-32945513D01*
X62583332Y-32945513D02*
X62488094Y-32993132D01*
D13*
X82010651Y-30835224D02*
X80486842Y-30835224D01*
X81277465Y-38047105D02*
X81277465Y-39570915D01*
X80515560Y-38809010D02*
X82039370Y-38809010D01*
D11*
X44023809Y-47704818D02*
X44023809Y-46704818D01*
X45071427Y-47704818D02*
X44738094Y-47228627D01*
X44499999Y-47704818D02*
X44499999Y-46704818D01*
X44499999Y-46704818D02*
X44880951Y-46704818D01*
X44880951Y-46704818D02*
X44976189Y-46752437D01*
X44976189Y-46752437D02*
X45023808Y-46800056D01*
X45023808Y-46800056D02*
X45071427Y-46895294D01*
X45071427Y-46895294D02*
X45071427Y-47038151D01*
X45071427Y-47038151D02*
X45023808Y-47133389D01*
X45023808Y-47133389D02*
X44976189Y-47181008D01*
X44976189Y-47181008D02*
X44880951Y-47228627D01*
X44880951Y-47228627D02*
X44499999Y-47228627D01*
X45452380Y-46800056D02*
X45499999Y-46752437D01*
X45499999Y-46752437D02*
X45595237Y-46704818D01*
X45595237Y-46704818D02*
X45833332Y-46704818D01*
X45833332Y-46704818D02*
X45928570Y-46752437D01*
X45928570Y-46752437D02*
X45976189Y-46800056D01*
X45976189Y-46800056D02*
X46023808Y-46895294D01*
X46023808Y-46895294D02*
X46023808Y-46990532D01*
X46023808Y-46990532D02*
X45976189Y-47133389D01*
X45976189Y-47133389D02*
X45404761Y-47704818D01*
X45404761Y-47704818D02*
X46023808Y-47704818D01*
D14*
%TO.C,IR4*%
X96375233Y-58009432D02*
X93285233Y-58009432D01*
X94830185Y-63559432D02*
G75*
G02*
X93285403Y-58009432I48J2990000D01*
G01*
X96375063Y-58009432D02*
G75*
G02*
X94830281Y-63559432I-1544830J-2560000D01*
G01*
X97330233Y-60569432D02*
G75*
G02*
X92330233Y-60569432I-2500000J0D01*
G01*
X92330233Y-60569432D02*
G75*
G02*
X97330233Y-60569432I2500000J0D01*
G01*
%TO.C,LB1*%
X30294999Y-47934999D02*
X27204999Y-47934999D01*
X28749951Y-53484999D02*
G75*
G02*
X27205169Y-47934999I48J2990000D01*
G01*
X30294829Y-47934999D02*
G75*
G02*
X28750047Y-53484999I-1544830J-2560000D01*
G01*
X31249999Y-50494999D02*
G75*
G02*
X26249999Y-50494999I-2500000J0D01*
G01*
X26249999Y-50494999D02*
G75*
G02*
X31249999Y-50494999I2500000J0D01*
G01*
%TO.C,IR1*%
X30214765Y-58009432D02*
X27124765Y-58009432D01*
X28669717Y-63559432D02*
G75*
G02*
X27124935Y-58009432I48J2990000D01*
G01*
X30214595Y-58009432D02*
G75*
G02*
X28669813Y-63559432I-1544830J-2560000D01*
G01*
X31169765Y-60569432D02*
G75*
G02*
X26169765Y-60569432I-2500000J0D01*
G01*
X26169765Y-60569432D02*
G75*
G02*
X31169765Y-60569432I2500000J0D01*
G01*
%TO.C,LB2*%
X96494999Y-47934999D02*
X93404999Y-47934999D01*
X94949951Y-53484999D02*
G75*
G02*
X93405169Y-47934999I48J2990000D01*
G01*
X96494829Y-47934999D02*
G75*
G02*
X94950047Y-53484999I-1544830J-2560000D01*
G01*
X97449999Y-50494999D02*
G75*
G02*
X92449999Y-50494999I-2500000J0D01*
G01*
X92449999Y-50494999D02*
G75*
G02*
X97449999Y-50494999I2500000J0D01*
G01*
%TO.C,PWR1*%
X85499999Y-65959999D02*
X88359999Y-65959999D01*
X88359999Y-64039999D02*
X85499999Y-64039999D01*
X88359999Y-65959999D02*
X88359999Y-64039999D01*
D15*
%TO.C,G\u002A\u002A\u002A*%
G36*
X37522885Y-29481630D02*
G01*
X37513002Y-29508709D01*
X37496736Y-29552019D01*
X37474549Y-29610360D01*
X37446904Y-29682536D01*
X37414262Y-29767348D01*
X37377085Y-29863599D01*
X37335836Y-29970089D01*
X37290976Y-30085623D01*
X37242968Y-30209001D01*
X37192273Y-30339026D01*
X37139355Y-30474499D01*
X37131211Y-30495325D01*
X37077979Y-30631593D01*
X37026902Y-30762649D01*
X36978444Y-30887291D01*
X36933067Y-31004315D01*
X36891232Y-31112517D01*
X36853404Y-31210695D01*
X36820044Y-31297645D01*
X36791616Y-31372164D01*
X36768580Y-31433048D01*
X36751401Y-31479095D01*
X36740541Y-31509101D01*
X36736462Y-31521863D01*
X36736462Y-31522212D01*
X36746731Y-31523049D01*
X36775939Y-31523859D01*
X36823017Y-31524638D01*
X36886894Y-31525381D01*
X36966503Y-31526083D01*
X37060773Y-31526738D01*
X37168635Y-31527341D01*
X37289021Y-31527888D01*
X37420860Y-31528373D01*
X37563084Y-31528792D01*
X37714623Y-31529139D01*
X37874409Y-31529409D01*
X38041371Y-31529597D01*
X38214441Y-31529698D01*
X38320419Y-31529715D01*
X38496559Y-31529764D01*
X38667186Y-31529909D01*
X38831236Y-31530143D01*
X38987642Y-31530462D01*
X39135339Y-31530860D01*
X39273262Y-31531331D01*
X39400344Y-31531871D01*
X39515520Y-31532474D01*
X39617723Y-31533135D01*
X39705890Y-31533848D01*
X39778953Y-31534608D01*
X39835846Y-31535410D01*
X39875505Y-31536248D01*
X39896864Y-31537116D01*
X39900451Y-31537652D01*
X39896914Y-31549529D01*
X39887279Y-31576018D01*
X39873016Y-31613210D01*
X39855591Y-31657193D01*
X39855434Y-31657585D01*
X39837993Y-31701573D01*
X39823699Y-31738764D01*
X39814018Y-31765261D01*
X39810416Y-31777167D01*
X39810416Y-31777198D01*
X39819722Y-31780393D01*
X39844851Y-31783004D01*
X39881621Y-31784706D01*
X39912956Y-31785184D01*
X40015497Y-31785553D01*
X40140546Y-31847440D01*
X40228713Y-31888235D01*
X40306763Y-31917446D01*
X40379933Y-31936316D01*
X40453462Y-31946087D01*
X40532588Y-31948003D01*
X40560711Y-31947128D01*
X40640187Y-31941302D01*
X40701472Y-31931225D01*
X40730778Y-31922816D01*
X40785800Y-31903374D01*
X40859976Y-31716545D01*
X40934153Y-31529715D01*
X42154056Y-31529715D01*
X42335812Y-31529725D01*
X42498596Y-31529767D01*
X42643441Y-31529855D01*
X42771384Y-31530005D01*
X42883458Y-31530230D01*
X42980699Y-31530546D01*
X43064143Y-31530968D01*
X43134822Y-31531511D01*
X43193774Y-31532189D01*
X43242033Y-31533019D01*
X43280633Y-31534014D01*
X43310609Y-31535189D01*
X43332997Y-31536561D01*
X43348832Y-31538142D01*
X43359148Y-31539949D01*
X43364980Y-31541996D01*
X43367364Y-31544299D01*
X43367334Y-31546872D01*
X43367209Y-31547222D01*
X43360459Y-31568069D01*
X43352256Y-31597614D01*
X43350434Y-31604744D01*
X43348771Y-31612939D01*
X43348169Y-31622160D01*
X43349102Y-31633743D01*
X43352047Y-31649019D01*
X43357477Y-31669321D01*
X43365868Y-31695981D01*
X43377694Y-31730334D01*
X43393432Y-31773711D01*
X43413555Y-31827445D01*
X43438539Y-31892869D01*
X43468859Y-31971316D01*
X43504990Y-32064119D01*
X43547406Y-32172610D01*
X43596583Y-32298122D01*
X43607131Y-32325028D01*
X43650704Y-32436152D01*
X43692206Y-32541976D01*
X43731048Y-32641003D01*
X43766645Y-32731739D01*
X43798408Y-32812687D01*
X43825752Y-32882350D01*
X43848088Y-32939234D01*
X43864830Y-32981842D01*
X43875390Y-33008678D01*
X43879132Y-33018129D01*
X43877368Y-33023687D01*
X43864842Y-33027152D01*
X43838950Y-33028757D01*
X43797088Y-33028733D01*
X43767229Y-33028132D01*
X43650046Y-33025304D01*
X43438403Y-32482624D01*
X43399825Y-32383935D01*
X43363333Y-32291028D01*
X43329581Y-32205539D01*
X43299225Y-32129106D01*
X43272919Y-32063367D01*
X43251318Y-32009958D01*
X43235076Y-31970517D01*
X43224848Y-31946680D01*
X43221360Y-31939910D01*
X43216838Y-31948955D01*
X43205739Y-31975004D01*
X43188724Y-32016406D01*
X43166453Y-32071512D01*
X43139587Y-32138673D01*
X43108787Y-32216238D01*
X43074712Y-32302557D01*
X43038023Y-32395982D01*
X43007486Y-32474083D01*
X42969090Y-32572363D01*
X42932747Y-32665173D01*
X42899128Y-32750820D01*
X42868900Y-32827608D01*
X42842734Y-32893843D01*
X42821298Y-32947830D01*
X42805262Y-32987874D01*
X42795295Y-33012281D01*
X42792170Y-33019362D01*
X42784228Y-33021617D01*
X42762900Y-33023535D01*
X42727440Y-33025125D01*
X42677100Y-33026396D01*
X42611133Y-33027356D01*
X42528790Y-33028013D01*
X42429324Y-33028376D01*
X42311988Y-33028454D01*
X42176034Y-33028254D01*
X42044141Y-33027869D01*
X41302955Y-33025304D01*
X41389558Y-32803506D01*
X41623761Y-32803506D01*
X41625703Y-32806988D01*
X41631676Y-32809831D01*
X41643276Y-32812081D01*
X41662096Y-32813786D01*
X41689730Y-32814993D01*
X41727771Y-32815750D01*
X41777814Y-32816104D01*
X41841452Y-32816101D01*
X41920280Y-32815790D01*
X42015891Y-32815218D01*
X42129880Y-32814431D01*
X42132684Y-32814411D01*
X42646007Y-32810764D01*
X42665258Y-32757971D01*
X42676012Y-32729260D01*
X42693449Y-32683703D01*
X42716886Y-32623052D01*
X42745636Y-32549062D01*
X42779016Y-32463489D01*
X42816340Y-32368085D01*
X42856924Y-32264606D01*
X42900082Y-32154806D01*
X42945132Y-32040440D01*
X42961077Y-32000016D01*
X42987427Y-31933151D01*
X43011198Y-31872651D01*
X43031451Y-31820926D01*
X43047243Y-31780389D01*
X43057631Y-31753450D01*
X43061675Y-31742522D01*
X43061696Y-31742415D01*
X43052004Y-31741909D01*
X43024173Y-31741435D01*
X42980075Y-31741003D01*
X42921578Y-31740622D01*
X42850554Y-31740302D01*
X42768870Y-31740053D01*
X42678399Y-31739883D01*
X42581008Y-31739803D01*
X42548458Y-31739798D01*
X42035221Y-31739798D01*
X41832187Y-32260207D01*
X41794292Y-32357446D01*
X41758524Y-32449436D01*
X41725557Y-32534428D01*
X41696067Y-32610673D01*
X41670728Y-32676419D01*
X41650215Y-32729918D01*
X41635204Y-32769420D01*
X41626368Y-32793174D01*
X41624257Y-32799337D01*
X41623761Y-32803506D01*
X41389558Y-32803506D01*
X41547089Y-32400057D01*
X41588712Y-32293413D01*
X41628265Y-32191990D01*
X41665131Y-32097369D01*
X41698699Y-32011131D01*
X41728352Y-31934856D01*
X41753478Y-31870123D01*
X41773462Y-31818513D01*
X41787690Y-31781606D01*
X41795548Y-31760982D01*
X41796885Y-31757304D01*
X41797369Y-31752711D01*
X41794292Y-31748997D01*
X41785772Y-31746070D01*
X41769930Y-31743837D01*
X41744886Y-31742204D01*
X41708760Y-31741080D01*
X41659670Y-31740370D01*
X41595738Y-31739982D01*
X41515083Y-31739823D01*
X41442802Y-31739798D01*
X41343593Y-31739951D01*
X41262826Y-31740446D01*
X41198937Y-31741337D01*
X41150363Y-31742677D01*
X41115540Y-31744520D01*
X41092904Y-31746920D01*
X41080892Y-31749930D01*
X41078014Y-31752302D01*
X41071574Y-31768562D01*
X41058660Y-31801412D01*
X41040047Y-31848871D01*
X41016507Y-31908959D01*
X40988817Y-31979695D01*
X40957748Y-32059099D01*
X40924077Y-32145189D01*
X40888576Y-32235984D01*
X40852019Y-32329505D01*
X40815182Y-32423769D01*
X40778838Y-32516797D01*
X40743760Y-32606607D01*
X40710724Y-32691220D01*
X40680503Y-32768653D01*
X40653871Y-32836926D01*
X40631603Y-32894059D01*
X40614472Y-32938070D01*
X40603253Y-32966980D01*
X40599098Y-32977785D01*
X40579282Y-33030306D01*
X39833637Y-33030306D01*
X39688786Y-33030244D01*
X39562819Y-33030047D01*
X39454612Y-33029695D01*
X39363041Y-33029170D01*
X39286981Y-33028453D01*
X39225309Y-33027523D01*
X39176900Y-33026364D01*
X39140632Y-33024954D01*
X39115379Y-33023277D01*
X39100018Y-33021312D01*
X39093425Y-33019040D01*
X39093058Y-33017801D01*
X39097260Y-33007108D01*
X39108011Y-32979651D01*
X39124581Y-32937300D01*
X39146238Y-32881925D01*
X39172252Y-32815399D01*
X39201890Y-32739592D01*
X39234421Y-32656375D01*
X39262727Y-32583960D01*
X39970479Y-32583960D01*
X39974754Y-32608624D01*
X39990166Y-32618392D01*
X40010120Y-32618102D01*
X40028971Y-32611611D01*
X40037196Y-32593967D01*
X40038542Y-32583936D01*
X40037522Y-32560073D01*
X40026489Y-32549017D01*
X40022456Y-32547730D01*
X39995091Y-32548591D01*
X39975962Y-32563942D01*
X39970479Y-32583960D01*
X39262727Y-32583960D01*
X39269115Y-32567618D01*
X39305240Y-32475194D01*
X39342064Y-32380973D01*
X39378010Y-32288997D01*
X40261461Y-32288997D01*
X40276259Y-32319196D01*
X40286952Y-32329304D01*
X40322291Y-32347447D01*
X40356675Y-32345632D01*
X40381533Y-32331319D01*
X40399787Y-32307223D01*
X40404650Y-32276154D01*
X40398288Y-32239779D01*
X40377784Y-32216425D01*
X40343655Y-32204086D01*
X40317765Y-32202796D01*
X40296575Y-32213889D01*
X40286266Y-32223416D01*
X40264788Y-32255752D01*
X40261461Y-32288997D01*
X39378010Y-32288997D01*
X39378858Y-32286827D01*
X39414888Y-32194625D01*
X39446326Y-32114169D01*
X39860436Y-32114169D01*
X39868197Y-32141929D01*
X39890389Y-32156463D01*
X39915408Y-32157913D01*
X39934748Y-32154216D01*
X39943317Y-32144144D01*
X39945438Y-32121518D01*
X39945469Y-32114945D01*
X39944026Y-32088962D01*
X39937012Y-32076735D01*
X39920404Y-32072076D01*
X39917353Y-32071706D01*
X39885548Y-32075174D01*
X39865648Y-32092414D01*
X39860436Y-32114169D01*
X39446326Y-32114169D01*
X39449425Y-32106239D01*
X39481737Y-32023541D01*
X39511092Y-31948401D01*
X39536760Y-31882690D01*
X39558008Y-31828279D01*
X39574107Y-31787040D01*
X39584324Y-31760843D01*
X39587694Y-31752177D01*
X39585319Y-31748789D01*
X39574230Y-31746101D01*
X39552825Y-31744067D01*
X39519500Y-31742642D01*
X39472651Y-31741782D01*
X39410677Y-31741441D01*
X39331972Y-31741576D01*
X39234936Y-31742140D01*
X39230363Y-31742173D01*
X38868159Y-31744800D01*
X38207186Y-33437966D01*
X37546213Y-35131133D01*
X37510355Y-35129298D01*
X37482361Y-35127634D01*
X37442756Y-35124997D01*
X37399880Y-35121944D01*
X37397867Y-35121795D01*
X37321238Y-35116127D01*
X37725481Y-34080719D01*
X37779093Y-33943335D01*
X37830623Y-33811158D01*
X37879608Y-33685385D01*
X37925585Y-33567208D01*
X37968090Y-33457824D01*
X38006661Y-33358426D01*
X38040834Y-33270209D01*
X38070147Y-33194368D01*
X38094137Y-33132097D01*
X38112339Y-33084591D01*
X38124292Y-33053044D01*
X38129532Y-33038652D01*
X38129739Y-33037884D01*
X38120020Y-33036538D01*
X38091989Y-33035190D01*
X38047341Y-33033867D01*
X37987771Y-33032595D01*
X37914975Y-33031403D01*
X37830648Y-33030316D01*
X37736485Y-33029363D01*
X37634182Y-33028571D01*
X37525434Y-33027966D01*
X37505465Y-33027880D01*
X36881176Y-33025304D01*
X37125377Y-32400057D01*
X37167011Y-32293415D01*
X37206571Y-32191994D01*
X37243444Y-32097375D01*
X37277015Y-32011138D01*
X37306671Y-31934863D01*
X37331798Y-31870130D01*
X37351781Y-31818520D01*
X37366005Y-31781611D01*
X37373858Y-31760984D01*
X37375193Y-31757304D01*
X37375485Y-31754450D01*
X37613405Y-31754450D01*
X37614019Y-31757023D01*
X37620184Y-31768675D01*
X37635527Y-31795966D01*
X37659112Y-31837271D01*
X37690000Y-31890968D01*
X37727253Y-31955432D01*
X37769935Y-32029040D01*
X37817107Y-32110168D01*
X37867832Y-32197193D01*
X37901427Y-32254719D01*
X37966119Y-32365412D01*
X38021453Y-32460076D01*
X38068167Y-32539954D01*
X38107003Y-32606289D01*
X38138700Y-32660325D01*
X38163997Y-32703304D01*
X38183634Y-32736471D01*
X38198352Y-32761068D01*
X38208889Y-32778338D01*
X38215986Y-32789526D01*
X38220382Y-32795873D01*
X38222818Y-32798624D01*
X38224032Y-32799022D01*
X38224764Y-32798310D01*
X38224826Y-32798240D01*
X38228886Y-32788611D01*
X38239518Y-32762092D01*
X38256030Y-32720435D01*
X38277733Y-32665395D01*
X38303937Y-32598726D01*
X38333953Y-32522180D01*
X38367089Y-32437511D01*
X38402658Y-32346474D01*
X38414932Y-32315024D01*
X38451828Y-32220464D01*
X38487043Y-32130229D01*
X38519804Y-32046294D01*
X38549342Y-31970633D01*
X38574884Y-31905222D01*
X38595659Y-31852036D01*
X38610897Y-31813050D01*
X38619826Y-31790239D01*
X38620973Y-31787316D01*
X38639663Y-31739798D01*
X38123536Y-31739798D01*
X38008605Y-31739830D01*
X37912107Y-31739963D01*
X37832469Y-31740249D01*
X37768116Y-31740742D01*
X37717474Y-31741494D01*
X37678969Y-31742560D01*
X37651027Y-31743993D01*
X37632074Y-31745844D01*
X37620535Y-31748169D01*
X37614837Y-31751020D01*
X37613405Y-31754450D01*
X37375485Y-31754450D01*
X37375658Y-31752760D01*
X37372603Y-31749079D01*
X37364169Y-31746172D01*
X37348496Y-31743951D01*
X37323724Y-31742328D01*
X37287996Y-31741214D01*
X37239450Y-31740521D01*
X37176227Y-31740161D01*
X37096469Y-31740045D01*
X37012488Y-31740074D01*
X36644169Y-31740351D01*
X36394025Y-32382827D01*
X36143881Y-33025304D01*
X36031383Y-33028132D01*
X35979557Y-33028582D01*
X35942489Y-33027074D01*
X35922186Y-33023735D01*
X35918884Y-33021003D01*
X35922436Y-33010212D01*
X35932690Y-32982357D01*
X35949047Y-32939002D01*
X35970904Y-32881711D01*
X35997660Y-32812047D01*
X36028714Y-32731575D01*
X36063464Y-32641857D01*
X36101310Y-32544457D01*
X36141650Y-32440940D01*
X36160398Y-32392929D01*
X36201791Y-32286911D01*
X36241084Y-32186118D01*
X36277662Y-32092139D01*
X36310908Y-32006564D01*
X36340208Y-31930982D01*
X36364945Y-31866983D01*
X36384503Y-31816155D01*
X36398266Y-31780089D01*
X36405619Y-31760374D01*
X36406661Y-31757304D01*
X36406839Y-31753171D01*
X36403803Y-31749743D01*
X36395870Y-31746955D01*
X36381355Y-31744740D01*
X36358575Y-31743034D01*
X36325845Y-31741771D01*
X36281481Y-31740884D01*
X36223799Y-31740309D01*
X36151115Y-31739980D01*
X36061744Y-31739832D01*
X35957260Y-31739798D01*
X35503109Y-31739798D01*
X34843155Y-32384550D01*
X34183200Y-33029302D01*
X34028195Y-33029804D01*
X33873190Y-33030306D01*
X33983177Y-32921337D01*
X34020224Y-32884755D01*
X34069170Y-32836615D01*
X34129275Y-32777640D01*
X34199798Y-32708549D01*
X34279999Y-32630066D01*
X34369136Y-32542911D01*
X34466469Y-32447804D01*
X34571258Y-32345468D01*
X34682760Y-32236623D01*
X34800237Y-32121992D01*
X34922946Y-32002294D01*
X35050148Y-31878251D01*
X35181101Y-31750585D01*
X35315065Y-31620016D01*
X35451298Y-31487267D01*
X35589061Y-31353057D01*
X35727612Y-31218109D01*
X35866211Y-31083143D01*
X36004117Y-30948881D01*
X36140589Y-30816044D01*
X36274887Y-30685353D01*
X36406269Y-30557530D01*
X36533995Y-30433295D01*
X36657325Y-30313370D01*
X36775517Y-30198477D01*
X36887830Y-30089335D01*
X36993525Y-29986668D01*
X37091859Y-29891194D01*
X37182093Y-29803637D01*
X37263486Y-29724717D01*
X37335297Y-29655156D01*
X37396785Y-29595674D01*
X37447210Y-29546993D01*
X37485830Y-29509834D01*
X37511905Y-29484919D01*
X37524694Y-29472968D01*
X37525923Y-29471978D01*
X37522885Y-29481630D01*
G37*
D14*
%TO.C,IR3*%
X78720566Y-40354765D02*
X75630566Y-40354765D01*
X77175518Y-45904765D02*
G75*
G02*
X75630736Y-40354765I48J2990000D01*
G01*
X78720396Y-40354765D02*
G75*
G02*
X77175614Y-45904765I-1544830J-2560000D01*
G01*
X79675566Y-42914765D02*
G75*
G02*
X74675566Y-42914765I-2500000J0D01*
G01*
X74675566Y-42914765D02*
G75*
G02*
X79675566Y-42914765I2500000J0D01*
G01*
D10*
%TO.C,HB1*%
X50899999Y-33372758D02*
X54899999Y-26372758D01*
X54899999Y-43372758D02*
X50899999Y-36372758D01*
X57649999Y-24872758D02*
X65649999Y-24872758D01*
X65649999Y-44872758D02*
X57649999Y-44872758D01*
X68399999Y-26372758D02*
X72399999Y-33372758D01*
X72399999Y-36372758D02*
X68399999Y-43372758D01*
D14*
%TO.C,IR2*%
X47869432Y-40354765D02*
X44779432Y-40354765D01*
X46324384Y-45904765D02*
G75*
G02*
X44779602Y-40354765I48J2990000D01*
G01*
X47869262Y-40354765D02*
G75*
G02*
X46324480Y-45904765I-1544830J-2560000D01*
G01*
X48824432Y-42914765D02*
G75*
G02*
X43824432Y-42914765I-2500000J0D01*
G01*
X43824432Y-42914765D02*
G75*
G02*
X48824432Y-42914765I2500000J0D01*
G01*
%TD*%
%LPC*%
D16*
%TO.C,IR4*%
X94830233Y-59299432D03*
D17*
X94830233Y-61839432D03*
%TD*%
D18*
%TO.C,H3*%
X71749999Y-52499999D03*
%TD*%
D16*
%TO.C,LB1*%
X28749999Y-49224999D03*
D17*
X28749999Y-51764999D03*
%TD*%
D16*
%TO.C,IR1*%
X28669765Y-59299432D03*
D17*
X28669765Y-61839432D03*
%TD*%
D18*
%TO.C,H1*%
X29249999Y-71999999D03*
%TD*%
D16*
%TO.C,LB2*%
X94949999Y-49224999D03*
D17*
X94949999Y-51764999D03*
%TD*%
D19*
%TO.C,PWR1*%
X87524999Y-64999999D03*
X85474999Y-64999999D03*
%TD*%
D16*
%TO.C,IR3*%
X77175566Y-41644765D03*
D17*
X77175566Y-44184765D03*
%TD*%
D18*
%TO.C,HB1*%
X66399999Y-26645517D03*
X56899999Y-26645517D03*
X71149999Y-34872758D03*
X52149999Y-34872758D03*
X66399999Y-43099999D03*
X56899999Y-43099999D03*
D20*
X78249999Y-30807758D03*
X78249999Y-38807758D03*
%TD*%
D16*
%TO.C,IR2*%
X46324432Y-41644765D03*
D17*
X46324432Y-44184765D03*
%TD*%
D18*
%TO.C,H2*%
X51749999Y-52499999D03*
%TD*%
D21*
%TO.C,R6*%
X90249999Y-45119999D03*
D22*
X90249999Y-55279999D03*
%TD*%
D21*
%TO.C,R9*%
X96079999Y-67749999D03*
D22*
X85919999Y-67749999D03*
%TD*%
D21*
%TO.C,R1*%
X33749999Y-39419999D03*
D22*
X33749999Y-49579999D03*
%TD*%
D23*
%TO.C,J2*%
X96160000Y-72137142D03*
D24*
X96160000Y-74677142D03*
X93620000Y-72137142D03*
X93620000Y-74677142D03*
X91080000Y-72137142D03*
X91080000Y-74677142D03*
%TD*%
D21*
%TO.C,R4*%
X40249999Y-39419999D03*
D22*
X40249999Y-49579999D03*
%TD*%
D23*
%TO.C,M1*%
X86249999Y-59224999D03*
D24*
X86249999Y-61764999D03*
%TD*%
D21*
%TO.C,R5*%
X92499999Y-42249999D03*
D22*
X82339999Y-42249999D03*
%TD*%
D21*
%TO.C,R2*%
X86999999Y-45169999D03*
D22*
X86999999Y-55329999D03*
%TD*%
D21*
%TO.C,R3*%
X36999999Y-39419999D03*
D22*
X36999999Y-49579999D03*
%TD*%
%LPD*%
M02*
