%TF.GenerationSoftware,KiCad,Pcbnew,9.0.0*%
%TF.CreationDate,2025-06-18T11:31:42+09:00*%
%TF.ProjectId,headlight_upper_side,68656164-6c69-4676-9874-5f7570706572,00*%
%TF.SameCoordinates,Original*%
%TF.FileFunction,Legend,Bot*%
%TF.FilePolarity,Positive*%
%FSLAX46Y46*%
G04 Gerber Fmt 4.6, Leading zero omitted, Abs format (unit mm)*
G04 Created by KiCad (PCBNEW 9.0.0) date 2025-06-18 11:31:42*
%MOMM*%
%LPD*%
G01*
G04 APERTURE LIST*
%ADD10C,0.187500*%
%ADD11C,0.150000*%
%ADD12C,0.120000*%
%ADD13R,1.800000X1.800000*%
%ADD14C,1.800000*%
%ADD15C,3.200000*%
%ADD16C,1.700000*%
%ADD17C,1.600000*%
%ADD18O,1.600000X1.600000*%
%ADD19R,1.700000X1.700000*%
%ADD20O,1.700000X1.700000*%
G04 APERTURE END LIST*
D10*
X89769501Y-58985249D02*
X88626644Y-58985249D01*
X89198072Y-59556677D02*
X89198072Y-58413820D01*
D11*
X93204818Y-44833332D02*
X92728627Y-44499999D01*
X93204818Y-44261904D02*
X92204818Y-44261904D01*
X92204818Y-44261904D02*
X92204818Y-44642856D01*
X92204818Y-44642856D02*
X92252437Y-44738094D01*
X92252437Y-44738094D02*
X92300056Y-44785713D01*
X92300056Y-44785713D02*
X92395294Y-44833332D01*
X92395294Y-44833332D02*
X92538151Y-44833332D01*
X92538151Y-44833332D02*
X92633389Y-44785713D01*
X92633389Y-44785713D02*
X92681008Y-44738094D01*
X92681008Y-44738094D02*
X92728627Y-44642856D01*
X92728627Y-44642856D02*
X92728627Y-44261904D01*
X92204818Y-45690475D02*
X92204818Y-45499999D01*
X92204818Y-45499999D02*
X92252437Y-45404761D01*
X92252437Y-45404761D02*
X92300056Y-45357142D01*
X92300056Y-45357142D02*
X92442913Y-45261904D01*
X92442913Y-45261904D02*
X92633389Y-45214285D01*
X92633389Y-45214285D02*
X93014341Y-45214285D01*
X93014341Y-45214285D02*
X93109579Y-45261904D01*
X93109579Y-45261904D02*
X93157199Y-45309523D01*
X93157199Y-45309523D02*
X93204818Y-45404761D01*
X93204818Y-45404761D02*
X93204818Y-45595237D01*
X93204818Y-45595237D02*
X93157199Y-45690475D01*
X93157199Y-45690475D02*
X93109579Y-45738094D01*
X93109579Y-45738094D02*
X93014341Y-45785713D01*
X93014341Y-45785713D02*
X92776246Y-45785713D01*
X92776246Y-45785713D02*
X92681008Y-45738094D01*
X92681008Y-45738094D02*
X92633389Y-45690475D01*
X92633389Y-45690475D02*
X92585770Y-45595237D01*
X92585770Y-45595237D02*
X92585770Y-45404761D01*
X92585770Y-45404761D02*
X92633389Y-45309523D01*
X92633389Y-45309523D02*
X92681008Y-45261904D01*
X92681008Y-45261904D02*
X92776246Y-45214285D01*
X91166665Y-65834818D02*
X91499998Y-65358627D01*
X91738093Y-65834818D02*
X91738093Y-64834818D01*
X91738093Y-64834818D02*
X91357141Y-64834818D01*
X91357141Y-64834818D02*
X91261903Y-64882437D01*
X91261903Y-64882437D02*
X91214284Y-64930056D01*
X91214284Y-64930056D02*
X91166665Y-65025294D01*
X91166665Y-65025294D02*
X91166665Y-65168151D01*
X91166665Y-65168151D02*
X91214284Y-65263389D01*
X91214284Y-65263389D02*
X91261903Y-65311008D01*
X91261903Y-65311008D02*
X91357141Y-65358627D01*
X91357141Y-65358627D02*
X91738093Y-65358627D01*
X90690474Y-65834818D02*
X90499998Y-65834818D01*
X90499998Y-65834818D02*
X90404760Y-65787199D01*
X90404760Y-65787199D02*
X90357141Y-65739579D01*
X90357141Y-65739579D02*
X90261903Y-65596722D01*
X90261903Y-65596722D02*
X90214284Y-65406246D01*
X90214284Y-65406246D02*
X90214284Y-65025294D01*
X90214284Y-65025294D02*
X90261903Y-64930056D01*
X90261903Y-64930056D02*
X90309522Y-64882437D01*
X90309522Y-64882437D02*
X90404760Y-64834818D01*
X90404760Y-64834818D02*
X90595236Y-64834818D01*
X90595236Y-64834818D02*
X90690474Y-64882437D01*
X90690474Y-64882437D02*
X90738093Y-64930056D01*
X90738093Y-64930056D02*
X90785712Y-65025294D01*
X90785712Y-65025294D02*
X90785712Y-65263389D01*
X90785712Y-65263389D02*
X90738093Y-65358627D01*
X90738093Y-65358627D02*
X90690474Y-65406246D01*
X90690474Y-65406246D02*
X90595236Y-65453865D01*
X90595236Y-65453865D02*
X90404760Y-65453865D01*
X90404760Y-65453865D02*
X90309522Y-65406246D01*
X90309522Y-65406246D02*
X90261903Y-65358627D01*
X90261903Y-65358627D02*
X90214284Y-65263389D01*
X34204818Y-36833332D02*
X33728627Y-36499999D01*
X34204818Y-36261904D02*
X33204818Y-36261904D01*
X33204818Y-36261904D02*
X33204818Y-36642856D01*
X33204818Y-36642856D02*
X33252437Y-36738094D01*
X33252437Y-36738094D02*
X33300056Y-36785713D01*
X33300056Y-36785713D02*
X33395294Y-36833332D01*
X33395294Y-36833332D02*
X33538151Y-36833332D01*
X33538151Y-36833332D02*
X33633389Y-36785713D01*
X33633389Y-36785713D02*
X33681008Y-36738094D01*
X33681008Y-36738094D02*
X33728627Y-36642856D01*
X33728627Y-36642856D02*
X33728627Y-36261904D01*
X34204818Y-37785713D02*
X34204818Y-37214285D01*
X34204818Y-37499999D02*
X33204818Y-37499999D01*
X33204818Y-37499999D02*
X33347675Y-37404761D01*
X33347675Y-37404761D02*
X33442913Y-37309523D01*
X33442913Y-37309523D02*
X33490532Y-37214285D01*
X98384819Y-73073808D02*
X99099104Y-73073808D01*
X99099104Y-73073808D02*
X99241961Y-73026189D01*
X99241961Y-73026189D02*
X99337200Y-72930951D01*
X99337200Y-72930951D02*
X99384819Y-72788094D01*
X99384819Y-72788094D02*
X99384819Y-72692856D01*
X98480057Y-73502380D02*
X98432438Y-73549999D01*
X98432438Y-73549999D02*
X98384819Y-73645237D01*
X98384819Y-73645237D02*
X98384819Y-73883332D01*
X98384819Y-73883332D02*
X98432438Y-73978570D01*
X98432438Y-73978570D02*
X98480057Y-74026189D01*
X98480057Y-74026189D02*
X98575295Y-74073808D01*
X98575295Y-74073808D02*
X98670533Y-74073808D01*
X98670533Y-74073808D02*
X98813390Y-74026189D01*
X98813390Y-74026189D02*
X99384819Y-73454761D01*
X99384819Y-73454761D02*
X99384819Y-74073808D01*
X40804818Y-36833332D02*
X40328627Y-36499999D01*
X40804818Y-36261904D02*
X39804818Y-36261904D01*
X39804818Y-36261904D02*
X39804818Y-36642856D01*
X39804818Y-36642856D02*
X39852437Y-36738094D01*
X39852437Y-36738094D02*
X39900056Y-36785713D01*
X39900056Y-36785713D02*
X39995294Y-36833332D01*
X39995294Y-36833332D02*
X40138151Y-36833332D01*
X40138151Y-36833332D02*
X40233389Y-36785713D01*
X40233389Y-36785713D02*
X40281008Y-36738094D01*
X40281008Y-36738094D02*
X40328627Y-36642856D01*
X40328627Y-36642856D02*
X40328627Y-36261904D01*
X40138151Y-37690475D02*
X40804818Y-37690475D01*
X39757199Y-37452380D02*
X40471484Y-37214285D01*
X40471484Y-37214285D02*
X40471484Y-37833332D01*
X84059522Y-61054818D02*
X84059522Y-60054818D01*
X84059522Y-60054818D02*
X83726189Y-60769103D01*
X83726189Y-60769103D02*
X83392856Y-60054818D01*
X83392856Y-60054818D02*
X83392856Y-61054818D01*
X82392856Y-61054818D02*
X82964284Y-61054818D01*
X82678570Y-61054818D02*
X82678570Y-60054818D01*
X82678570Y-60054818D02*
X82773808Y-60197675D01*
X82773808Y-60197675D02*
X82869046Y-60292913D01*
X82869046Y-60292913D02*
X82964284Y-60340532D01*
X87586665Y-40334818D02*
X87919998Y-39858627D01*
X88158093Y-40334818D02*
X88158093Y-39334818D01*
X88158093Y-39334818D02*
X87777141Y-39334818D01*
X87777141Y-39334818D02*
X87681903Y-39382437D01*
X87681903Y-39382437D02*
X87634284Y-39430056D01*
X87634284Y-39430056D02*
X87586665Y-39525294D01*
X87586665Y-39525294D02*
X87586665Y-39668151D01*
X87586665Y-39668151D02*
X87634284Y-39763389D01*
X87634284Y-39763389D02*
X87681903Y-39811008D01*
X87681903Y-39811008D02*
X87777141Y-39858627D01*
X87777141Y-39858627D02*
X88158093Y-39858627D01*
X86681903Y-39334818D02*
X87158093Y-39334818D01*
X87158093Y-39334818D02*
X87205712Y-39811008D01*
X87205712Y-39811008D02*
X87158093Y-39763389D01*
X87158093Y-39763389D02*
X87062855Y-39715770D01*
X87062855Y-39715770D02*
X86824760Y-39715770D01*
X86824760Y-39715770D02*
X86729522Y-39763389D01*
X86729522Y-39763389D02*
X86681903Y-39811008D01*
X86681903Y-39811008D02*
X86634284Y-39906246D01*
X86634284Y-39906246D02*
X86634284Y-40144341D01*
X86634284Y-40144341D02*
X86681903Y-40239579D01*
X86681903Y-40239579D02*
X86729522Y-40287199D01*
X86729522Y-40287199D02*
X86824760Y-40334818D01*
X86824760Y-40334818D02*
X87062855Y-40334818D01*
X87062855Y-40334818D02*
X87158093Y-40287199D01*
X87158093Y-40287199D02*
X87205712Y-40239579D01*
X84904818Y-44933332D02*
X84428627Y-44599999D01*
X84904818Y-44361904D02*
X83904818Y-44361904D01*
X83904818Y-44361904D02*
X83904818Y-44742856D01*
X83904818Y-44742856D02*
X83952437Y-44838094D01*
X83952437Y-44838094D02*
X84000056Y-44885713D01*
X84000056Y-44885713D02*
X84095294Y-44933332D01*
X84095294Y-44933332D02*
X84238151Y-44933332D01*
X84238151Y-44933332D02*
X84333389Y-44885713D01*
X84333389Y-44885713D02*
X84381008Y-44838094D01*
X84381008Y-44838094D02*
X84428627Y-44742856D01*
X84428627Y-44742856D02*
X84428627Y-44361904D01*
X84000056Y-45314285D02*
X83952437Y-45361904D01*
X83952437Y-45361904D02*
X83904818Y-45457142D01*
X83904818Y-45457142D02*
X83904818Y-45695237D01*
X83904818Y-45695237D02*
X83952437Y-45790475D01*
X83952437Y-45790475D02*
X84000056Y-45838094D01*
X84000056Y-45838094D02*
X84095294Y-45885713D01*
X84095294Y-45885713D02*
X84190532Y-45885713D01*
X84190532Y-45885713D02*
X84333389Y-45838094D01*
X84333389Y-45838094D02*
X84904818Y-45266666D01*
X84904818Y-45266666D02*
X84904818Y-45885713D01*
X37604818Y-36833332D02*
X37128627Y-36499999D01*
X37604818Y-36261904D02*
X36604818Y-36261904D01*
X36604818Y-36261904D02*
X36604818Y-36642856D01*
X36604818Y-36642856D02*
X36652437Y-36738094D01*
X36652437Y-36738094D02*
X36700056Y-36785713D01*
X36700056Y-36785713D02*
X36795294Y-36833332D01*
X36795294Y-36833332D02*
X36938151Y-36833332D01*
X36938151Y-36833332D02*
X37033389Y-36785713D01*
X37033389Y-36785713D02*
X37081008Y-36738094D01*
X37081008Y-36738094D02*
X37128627Y-36642856D01*
X37128627Y-36642856D02*
X37128627Y-36261904D01*
X36604818Y-37166666D02*
X36604818Y-37785713D01*
X36604818Y-37785713D02*
X36985770Y-37452380D01*
X36985770Y-37452380D02*
X36985770Y-37595237D01*
X36985770Y-37595237D02*
X37033389Y-37690475D01*
X37033389Y-37690475D02*
X37081008Y-37738094D01*
X37081008Y-37738094D02*
X37176246Y-37785713D01*
X37176246Y-37785713D02*
X37414341Y-37785713D01*
X37414341Y-37785713D02*
X37509579Y-37738094D01*
X37509579Y-37738094D02*
X37557199Y-37690475D01*
X37557199Y-37690475D02*
X37604818Y-37595237D01*
X37604818Y-37595237D02*
X37604818Y-37309523D01*
X37604818Y-37309523D02*
X37557199Y-37214285D01*
X37557199Y-37214285D02*
X37509579Y-37166666D01*
D12*
%TO.C,R6*%
X88879999Y-46929999D02*
X91619999Y-46929999D01*
X88879999Y-53469999D02*
X88879999Y-46929999D01*
X90249999Y-46159999D02*
X90249999Y-46929999D01*
X90249999Y-54239999D02*
X90249999Y-53469999D01*
X91619999Y-46929999D02*
X91619999Y-53469999D01*
X91619999Y-53469999D02*
X88879999Y-53469999D01*
%TO.C,R9*%
X86959999Y-67749999D02*
X87729999Y-67749999D01*
X87729999Y-66379999D02*
X94269999Y-66379999D01*
X87729999Y-69119999D02*
X87729999Y-66379999D01*
X94269999Y-66379999D02*
X94269999Y-69119999D01*
X94269999Y-69119999D02*
X87729999Y-69119999D01*
X95039999Y-67749999D02*
X94269999Y-67749999D01*
%TO.C,R1*%
X32379999Y-41229999D02*
X35119999Y-41229999D01*
X32379999Y-47769999D02*
X32379999Y-41229999D01*
X33749999Y-40459999D02*
X33749999Y-41229999D01*
X33749999Y-48539999D02*
X33749999Y-47769999D01*
X35119999Y-41229999D02*
X35119999Y-47769999D01*
X35119999Y-47769999D02*
X32379999Y-47769999D01*
%TO.C,J2*%
X89750000Y-76007142D02*
X89750000Y-70807142D01*
X94890000Y-70807142D02*
X89750000Y-70807142D01*
X94890000Y-73407142D02*
X94890000Y-70807142D01*
X97490000Y-70807142D02*
X96160000Y-70807142D01*
X97490000Y-72137142D02*
X97490000Y-70807142D01*
X97490000Y-73407142D02*
X94890000Y-73407142D01*
X97490000Y-76007142D02*
X89750000Y-76007142D01*
X97490000Y-76007142D02*
X97490000Y-73407142D01*
%TO.C,R4*%
X38879999Y-41229999D02*
X41619999Y-41229999D01*
X38879999Y-47769999D02*
X38879999Y-41229999D01*
X40249999Y-40459999D02*
X40249999Y-41229999D01*
X40249999Y-48539999D02*
X40249999Y-47769999D01*
X41619999Y-41229999D02*
X41619999Y-47769999D01*
X41619999Y-47769999D02*
X38879999Y-47769999D01*
%TO.C,M1*%
X84919999Y-60494999D02*
X84919999Y-63094999D01*
X87579999Y-57894999D02*
X86249999Y-57894999D01*
X87579999Y-59224999D02*
X87579999Y-57894999D01*
X87579999Y-60494999D02*
X84919999Y-60494999D01*
X87579999Y-60494999D02*
X87579999Y-63094999D01*
X87579999Y-63094999D02*
X84919999Y-63094999D01*
%TO.C,R5*%
X83379999Y-42249999D02*
X84149999Y-42249999D01*
X84149999Y-40879999D02*
X90689999Y-40879999D01*
X84149999Y-43619999D02*
X84149999Y-40879999D01*
X90689999Y-40879999D02*
X90689999Y-43619999D01*
X90689999Y-43619999D02*
X84149999Y-43619999D01*
X91459999Y-42249999D02*
X90689999Y-42249999D01*
%TO.C,R2*%
X85629999Y-46979999D02*
X88369999Y-46979999D01*
X85629999Y-53519999D02*
X85629999Y-46979999D01*
X86999999Y-46209999D02*
X86999999Y-46979999D01*
X86999999Y-54289999D02*
X86999999Y-53519999D01*
X88369999Y-46979999D02*
X88369999Y-53519999D01*
X88369999Y-53519999D02*
X85629999Y-53519999D01*
%TO.C,R3*%
X35629999Y-41229999D02*
X38369999Y-41229999D01*
X35629999Y-47769999D02*
X35629999Y-41229999D01*
X36999999Y-40459999D02*
X36999999Y-41229999D01*
X36999999Y-48539999D02*
X36999999Y-47769999D01*
X38369999Y-41229999D02*
X38369999Y-47769999D01*
X38369999Y-47769999D02*
X35629999Y-47769999D01*
%TD*%
%LPC*%
D13*
%TO.C,IR4*%
X94830233Y-59299432D03*
D14*
X94830233Y-61839432D03*
%TD*%
D15*
%TO.C,H3*%
X71749999Y-52499999D03*
%TD*%
D13*
%TO.C,LB1*%
X28749999Y-49224999D03*
D14*
X28749999Y-51764999D03*
%TD*%
D13*
%TO.C,IR1*%
X28669765Y-59299432D03*
D14*
X28669765Y-61839432D03*
%TD*%
D15*
%TO.C,H1*%
X29249999Y-71999999D03*
%TD*%
D13*
%TO.C,LB2*%
X94949999Y-49224999D03*
D14*
X94949999Y-51764999D03*
%TD*%
D13*
%TO.C,IR3*%
X77175566Y-41644765D03*
D14*
X77175566Y-44184765D03*
%TD*%
D15*
%TO.C,HB1*%
X66399999Y-26645517D03*
X56899999Y-26645517D03*
X71149999Y-34872758D03*
X52149999Y-34872758D03*
X66399999Y-43099999D03*
X56899999Y-43099999D03*
D16*
X78249999Y-30807758D03*
X78249999Y-38807758D03*
%TD*%
D13*
%TO.C,IR2*%
X46324432Y-41644765D03*
D14*
X46324432Y-44184765D03*
%TD*%
D15*
%TO.C,H2*%
X51749999Y-52499999D03*
%TD*%
D17*
%TO.C,R6*%
X90249999Y-45119999D03*
D18*
X90249999Y-55279999D03*
%TD*%
D17*
%TO.C,R9*%
X96079999Y-67749999D03*
D18*
X85919999Y-67749999D03*
%TD*%
D17*
%TO.C,R1*%
X33749999Y-39419999D03*
D18*
X33749999Y-49579999D03*
%TD*%
D19*
%TO.C,J2*%
X96160000Y-72137142D03*
D20*
X96160000Y-74677142D03*
X93620000Y-72137142D03*
X93620000Y-74677142D03*
X91080000Y-72137142D03*
X91080000Y-74677142D03*
%TD*%
D17*
%TO.C,R4*%
X40249999Y-39419999D03*
D18*
X40249999Y-49579999D03*
%TD*%
D19*
%TO.C,M1*%
X86249999Y-59224999D03*
D20*
X86249999Y-61764999D03*
%TD*%
D17*
%TO.C,R5*%
X92499999Y-42249999D03*
D18*
X82339999Y-42249999D03*
%TD*%
D17*
%TO.C,R2*%
X86999999Y-45169999D03*
D18*
X86999999Y-55329999D03*
%TD*%
D17*
%TO.C,R3*%
X36999999Y-39419999D03*
D18*
X36999999Y-49579999D03*
%TD*%
%LPD*%
M02*
