M48
; DRILL file {KiCad 9.0.0} date 2025-06-18T11:31:42+0900
; FORMAT={-:-/ absolute / inch / decimal}
; #@! TF.CreationDate,2025-06-18T11:31:42+09:00
; #@! TF.GenerationSoftware,Kicad,Pcbnew,9.0.0
; #@! TF.FileFunction,Plated,1,2,PTH
FMAT,2
INCH
; #@! TA.AperFunction,Plated,PTH,ViaDrill
T1C0.0118
; #@! TA.AperFunction,Plated,PTH,ComponentDrill
T2C0.0315
; #@! TA.AperFunction,Plated,PTH,ComponentDrill
T3C0.0354
; #@! TA.AperFunction,Plated,PTH,ComponentDrill
T4C0.0394
%
G90
G05
T1
X1.5177Y-2.0315
X1.5492Y-2.0315
X1.5807Y-2.0315
X3.1398Y-1.9685
X3.1496Y-1.8602
X3.1693Y-1.9685
X3.1791Y-1.8602
X3.1988Y-1.9685
X3.2087Y-1.8602
X3.4744Y-1.9685
X3.5039Y-1.9685
X3.5335Y-1.9685
X3.8287Y-2.4607
X3.8287Y-2.4882
X3.8287Y-2.5157
T2
X1.3287Y-1.552
X1.3287Y-1.952
X1.4567Y-1.552
X1.4567Y-1.952
X1.5846Y-1.552
X1.5846Y-1.952
X3.2417Y-1.6634
X3.3827Y-2.6673
X3.4252Y-1.7783
X3.4252Y-2.1783
X3.5531Y-1.7764
X3.5531Y-2.1764
X3.6417Y-1.6634
X3.7827Y-2.6673
T3
X1.1287Y-2.3346
X1.1287Y-2.4346
X1.1319Y-1.938
X1.1319Y-2.038
X1.8238Y-1.6396
X1.8238Y-1.7396
X3.0384Y-1.6396
X3.0384Y-1.7396
X3.7335Y-2.3346
X3.7335Y-2.4346
X3.7382Y-1.938
X3.7382Y-2.038
T4
X3.0807Y-1.2129
X3.0807Y-1.5279
X3.3957Y-2.3317
X3.3957Y-2.4317
X3.5858Y-2.84
X3.5858Y-2.94
X3.6858Y-2.84
X3.6858Y-2.94
X3.7858Y-2.84
X3.7858Y-2.94
M30
