%TF.GenerationSoftware,KiCad,Pcbnew,9.0.0*%
%TF.CreationDate,2025-06-18T11:31:42+09:00*%
%TF.ProjectId,headlight_upper_side,68656164-6c69-4676-9874-5f7570706572,00*%
%TF.SameCoordinates,Original*%
%TF.FileFunction,Profile,NP*%
%FSLAX46Y46*%
G04 Gerber Fmt 4.6, Leading zero omitted, Abs format (unit mm)*
G04 Created by KiCad (PCBNEW 9.0.0) date 2025-06-18 11:31:42*
%MOMM*%
%LPD*%
G01*
G04 APERTURE LIST*
%TA.AperFunction,Profile*%
%ADD10C,0.050000*%
%TD*%
G04 APERTURE END LIST*
D10*
X46750000Y-47000000D02*
X46750000Y-49000000D01*
X80749999Y-61000000D02*
X80749999Y-75999999D01*
X36749999Y-75999999D02*
X36749999Y-60999999D01*
X98249999Y-77599999D02*
X88249999Y-77599999D01*
X36749999Y-75999999D02*
X25249999Y-75999999D01*
X76750000Y-47000000D02*
X61750000Y-47000000D01*
X52250000Y-58999999D02*
X38749999Y-58999999D01*
X25249999Y-75999999D02*
X25249999Y-38499999D01*
X78749999Y-58999999D02*
G75*
G02*
X80750001Y-60999999I1J-2000001D01*
G01*
X80749999Y-75999999D02*
X88249999Y-75999999D01*
X76750000Y-49000000D02*
X76750000Y-47000000D01*
X61750000Y-47000000D02*
X46750000Y-47000000D01*
X52249999Y-58999999D02*
G75*
G02*
X71249999Y-58999999I9500000J-3500001D01*
G01*
X71249999Y-58999999D02*
X78749999Y-58999999D01*
X88249999Y-77599999D02*
X88249999Y-75999999D01*
X36749999Y-60999999D02*
G75*
G02*
X38749999Y-58999999I2000001J-1D01*
G01*
X46750000Y-49000000D02*
X76750000Y-49000000D01*
X98249999Y-75999999D02*
X98249999Y-77599999D01*
X25249999Y-38499999D02*
G75*
G02*
X98249999Y-38499999I36500000J-34099999D01*
G01*
X98249999Y-75999999D02*
X98249999Y-75499999D01*
X98249999Y-75499999D02*
X98249999Y-38499999D01*
M02*
