%TF.GenerationSoftware,KiCad,Pcbnew,9.0.0*%
%TF.CreationDate,2025-06-18T11:31:42+09:00*%
%TF.ProjectId,headlight_upper_side,68656164-6c69-4676-9874-5f7570706572,00*%
%TF.SameCoordinates,Original*%
%TF.FileFunction,Copper,L2,Bot*%
%TF.FilePolarity,Positive*%
%FSLAX46Y46*%
G04 Gerber Fmt 4.6, Leading zero omitted, Abs format (unit mm)*
G04 Created by KiCad (PCBNEW 9.0.0) date 2025-06-18 11:31:42*
%MOMM*%
%LPD*%
G01*
G04 APERTURE LIST*
%TA.AperFunction,ComponentPad*%
%ADD10R,1.800000X1.800000*%
%TD*%
%TA.AperFunction,ComponentPad*%
%ADD11C,1.800000*%
%TD*%
%TA.AperFunction,ComponentPad*%
%ADD12C,1.700000*%
%TD*%
%TA.AperFunction,ComponentPad*%
%ADD13C,1.600000*%
%TD*%
%TA.AperFunction,ComponentPad*%
%ADD14O,1.600000X1.600000*%
%TD*%
%TA.AperFunction,ComponentPad*%
%ADD15R,1.700000X1.700000*%
%TD*%
%TA.AperFunction,ComponentPad*%
%ADD16O,1.700000X1.700000*%
%TD*%
%TA.AperFunction,ViaPad*%
%ADD17C,0.600000*%
%TD*%
%TA.AperFunction,Conductor*%
%ADD18C,1.000000*%
%TD*%
G04 APERTURE END LIST*
D10*
%TO.P,IR4,1,K*%
%TO.N,IR*%
X94830233Y-59299432D03*
D11*
%TO.P,IR4,2,A*%
%TO.N,Net-(IR4-A)*%
X94830233Y-61839432D03*
%TD*%
D10*
%TO.P,LB1,1,K*%
%TO.N,LB*%
X28749999Y-49224999D03*
D11*
%TO.P,LB1,2,A*%
%TO.N,Net-(LB1-A)*%
X28749999Y-51764999D03*
%TD*%
D10*
%TO.P,IR1,1,K*%
%TO.N,IR*%
X28669765Y-59299432D03*
D11*
%TO.P,IR1,2,A*%
%TO.N,Net-(IR1-A)*%
X28669765Y-61839432D03*
%TD*%
D10*
%TO.P,LB2,1,K*%
%TO.N,LB*%
X94949999Y-49224999D03*
D11*
%TO.P,LB2,2,A*%
%TO.N,Net-(LB2-A)*%
X94949999Y-51764999D03*
%TD*%
D10*
%TO.P,IR3,1,K*%
%TO.N,IR*%
X77175566Y-41644765D03*
D11*
%TO.P,IR3,2,A*%
%TO.N,Net-(IR3-A)*%
X77175566Y-44184765D03*
%TD*%
D12*
%TO.P,HB1,1,K*%
%TO.N,HB_K*%
X78249999Y-30807758D03*
%TO.P,HB1,2,A*%
%TO.N,HB_A*%
X78249999Y-38807758D03*
%TD*%
D10*
%TO.P,IR2,1,K*%
%TO.N,IR*%
X46324432Y-41644765D03*
D11*
%TO.P,IR2,2,A*%
%TO.N,Net-(IR2-A)*%
X46324432Y-44184765D03*
%TD*%
D13*
%TO.P,R6,1*%
%TO.N,+5.1V*%
X90249999Y-45119999D03*
D14*
%TO.P,R6,2*%
%TO.N,Net-(IR4-A)*%
X90249999Y-55279999D03*
%TD*%
D13*
%TO.P,R9,1*%
%TO.N,+5.1V*%
X96079999Y-67749999D03*
D14*
%TO.P,R9,2*%
%TO.N,Net-(PWR1-A)*%
X85919999Y-67749999D03*
%TD*%
D13*
%TO.P,R1,1*%
%TO.N,+5.1V*%
X33749999Y-39419999D03*
D14*
%TO.P,R1,2*%
%TO.N,Net-(LB1-A)*%
X33749999Y-49579999D03*
%TD*%
D15*
%TO.P,J2,1,Pin_1*%
%TO.N,+5.1V*%
X96160000Y-72137142D03*
D16*
%TO.P,J2,2,Pin_2*%
%TO.N,LB*%
X96160000Y-74677142D03*
%TO.P,J2,3,Pin_3*%
%TO.N,IR*%
X93620000Y-72137142D03*
%TO.P,J2,4,Pin_4*%
%TO.N,HB_A*%
X93620000Y-74677142D03*
%TO.P,J2,5,Pin_5*%
%TO.N,HB_K*%
X91080000Y-72137142D03*
%TO.P,J2,6,Pin_6*%
%TO.N,GND*%
X91080000Y-74677142D03*
%TD*%
D13*
%TO.P,R4,1*%
%TO.N,+5.1V*%
X40249999Y-39419999D03*
D14*
%TO.P,R4,2*%
%TO.N,Net-(IR2-A)*%
X40249999Y-49579999D03*
%TD*%
D15*
%TO.P,M1,1,+*%
%TO.N,+5.1V*%
X86249999Y-59224999D03*
D16*
%TO.P,M1,2,-*%
%TO.N,GND*%
X86249999Y-61764999D03*
%TD*%
D13*
%TO.P,R5,1*%
%TO.N,+5.1V*%
X92499999Y-42249999D03*
D14*
%TO.P,R5,2*%
%TO.N,Net-(IR3-A)*%
X82339999Y-42249999D03*
%TD*%
D13*
%TO.P,R2,1*%
%TO.N,+5.1V*%
X86999999Y-45169999D03*
D14*
%TO.P,R2,2*%
%TO.N,Net-(LB2-A)*%
X86999999Y-55329999D03*
%TD*%
D13*
%TO.P,R3,1*%
%TO.N,+5.1V*%
X36999999Y-39419999D03*
D14*
%TO.P,R3,2*%
%TO.N,Net-(IR1-A)*%
X36999999Y-49579999D03*
%TD*%
D17*
%TO.N,IR*%
X79999999Y-47249999D03*
X80749999Y-47249999D03*
X81499999Y-47249999D03*
%TO.N,LB*%
X81249999Y-49999999D03*
X88999999Y-49999999D03*
X80499999Y-49999999D03*
X39349999Y-51599999D03*
X38549999Y-51599999D03*
X40149999Y-51599999D03*
X97248999Y-63199999D03*
X88249999Y-49999999D03*
X79749999Y-49999999D03*
X89749999Y-49999999D03*
X97249999Y-63899999D03*
X97248999Y-62500999D03*
%TD*%
D18*
%TO.N,HB_K*%
X86137142Y-72137142D02*
X83749999Y-69749999D01*
X83749999Y-44999999D02*
X85749999Y-42999999D01*
X85749999Y-38249999D02*
X78307758Y-30807758D01*
X78307758Y-30807758D02*
X78249999Y-30807758D01*
X83749999Y-69749999D02*
X83749999Y-44999999D01*
X85749999Y-42999999D02*
X85749999Y-38249999D01*
X91080000Y-72137142D02*
X86137142Y-72137142D01*
%TO.N,HB_A*%
X92069000Y-76228142D02*
X89893770Y-76228142D01*
X84548999Y-42450999D02*
X84548999Y-41298999D01*
X82499999Y-44499999D02*
X84548999Y-42450999D01*
X78299999Y-38799999D02*
X78250000Y-38750000D01*
X87003770Y-73338142D02*
X85838141Y-73338141D01*
X93620000Y-74677142D02*
X92069000Y-76228142D01*
X89893770Y-76228142D02*
X87003770Y-73338142D01*
X82499999Y-70198469D02*
X82499999Y-44499999D01*
X82049999Y-38799999D02*
X78299999Y-38799999D01*
X85639672Y-73338142D02*
X82499999Y-70198469D01*
X85838141Y-73338141D02*
X85639672Y-73338142D01*
X84548999Y-41298999D02*
X82049999Y-38799999D01*
%TO.N,IR*%
X44249999Y-39249999D02*
X44249999Y-39250999D01*
X48719198Y-39249999D02*
X46324432Y-41644765D01*
X48719198Y-39249999D02*
X44249999Y-39249999D01*
X35250999Y-52718198D02*
X28669765Y-59299432D01*
X76499000Y-45999000D02*
X78798000Y-45999000D01*
X44249999Y-39250999D02*
X35250999Y-48249999D01*
X69749999Y-39249999D02*
X76499000Y-45999000D01*
X74780800Y-39249999D02*
X69749999Y-39249999D01*
X69749999Y-39249999D02*
X48719198Y-39249999D01*
X78798000Y-45999000D02*
X80048999Y-47249999D01*
X35250999Y-48249999D02*
X35250999Y-52718198D01*
X80048999Y-47249999D02*
X81298999Y-47249999D01*
X77175566Y-41644765D02*
X74780800Y-39249999D01*
%TO.N,Net-(IR1-A)*%
X28679198Y-61829999D02*
X28669765Y-61839432D01*
X36999999Y-49579999D02*
X36999999Y-54781990D01*
X36999999Y-54781990D02*
X29942557Y-61839432D01*
X29942557Y-61839432D02*
X28669765Y-61839432D01*
%TO.N,Net-(IR2-A)*%
X45645233Y-44184765D02*
X46324432Y-44184765D01*
X40249999Y-49579999D02*
X45645233Y-44184765D01*
%TO.N,Net-(IR3-A)*%
X82339999Y-42249999D02*
X80405233Y-44184765D01*
X80405233Y-44184765D02*
X77175566Y-44184765D01*
%TO.N,Net-(IR4-A)*%
X90249999Y-55279999D02*
X90249999Y-57921198D01*
X90249999Y-57921198D02*
X94168233Y-61839432D01*
X94168233Y-61839432D02*
X94830233Y-61839432D01*
%TO.N,+5.1V*%
X92499999Y-39999999D02*
X81699000Y-29199000D01*
X86999999Y-45169999D02*
X86999999Y-46749999D01*
X92499999Y-42249999D02*
X92499999Y-41249999D01*
X84949999Y-56599999D02*
X84949999Y-48799999D01*
X33749999Y-39419999D02*
X40249999Y-39419999D01*
X87574999Y-59224999D02*
X86249999Y-59224999D01*
X74749999Y-30999999D02*
X48669999Y-30999999D01*
X87799999Y-59449999D02*
X87574999Y-59224999D01*
X92499999Y-41249999D02*
X92499999Y-39999999D01*
X84949999Y-48799999D02*
X90249999Y-43499999D01*
X87799999Y-59469999D02*
X96079999Y-67749999D01*
X76550998Y-29199000D02*
X74749999Y-30999999D01*
X87799999Y-59449999D02*
X84949999Y-56599999D01*
X96160000Y-72137142D02*
X96160000Y-67830000D01*
X87799999Y-59449999D02*
X87799999Y-59469999D01*
X90249999Y-43499999D02*
X92499999Y-41249999D01*
X90249999Y-45119999D02*
X90249999Y-43499999D01*
X96160000Y-67830000D02*
X96079999Y-67749999D01*
X81699000Y-29199000D02*
X76550998Y-29199000D01*
X48669999Y-30999999D02*
X40249999Y-39419999D01*
%TO.N,LB*%
X43299999Y-50199999D02*
X41899999Y-51599999D01*
X97248999Y-63898999D02*
X97248999Y-62500999D01*
X50725183Y-50199999D02*
X43299999Y-50199999D01*
X50776183Y-50148999D02*
X50725183Y-50199999D01*
X97248999Y-51523999D02*
X94949999Y-49224999D01*
X89749999Y-49999999D02*
X87749999Y-49999999D01*
X52774815Y-50199999D02*
X52723815Y-50148999D01*
X72774815Y-50199999D02*
X72723815Y-50148999D01*
X95499999Y-46749999D02*
X97248999Y-48498999D01*
X97248999Y-48498999D02*
X97248999Y-51523999D01*
X97248999Y-62500999D02*
X97248999Y-51523999D01*
X72723815Y-50148999D02*
X70776183Y-50148999D01*
X52723815Y-50148999D02*
X50776183Y-50148999D01*
X41899999Y-51599999D02*
X38549999Y-51599999D01*
X81249999Y-49999999D02*
X80499999Y-49999999D01*
X97249999Y-63899999D02*
X97248999Y-63898999D01*
X79549999Y-50199999D02*
X72774815Y-50199999D01*
X70725183Y-50199999D02*
X52774815Y-50199999D01*
X92999999Y-46749999D02*
X95499999Y-46749999D01*
X89749999Y-49999999D02*
X92999999Y-46749999D01*
X80499999Y-49999999D02*
X79749999Y-49999999D01*
X70776183Y-50148999D02*
X70725183Y-50199999D01*
X79749999Y-49999999D02*
X79549999Y-50199999D01*
%TO.N,Net-(LB1-A)*%
X33749999Y-49579999D02*
X31564999Y-51764999D01*
X31564999Y-51764999D02*
X28749999Y-51764999D01*
%TO.N,Net-(LB2-A)*%
X94949999Y-51764999D02*
X90564999Y-51764999D01*
X90564999Y-51764999D02*
X86999999Y-55329999D01*
%TD*%
%TA.AperFunction,NonConductor*%
G36*
X81651256Y-39820184D02*
G01*
X81671897Y-39836817D01*
X82579128Y-40744049D01*
X82612613Y-40805371D01*
X82607629Y-40875063D01*
X82565757Y-40930996D01*
X82500293Y-40955413D01*
X82472052Y-40954203D01*
X82461752Y-40952571D01*
X82442351Y-40949499D01*
X82237647Y-40949499D01*
X82213328Y-40953350D01*
X82035464Y-40981521D01*
X81840775Y-41044780D01*
X81658385Y-41137714D01*
X81492785Y-41258027D01*
X81348027Y-41402785D01*
X81227714Y-41568385D01*
X81134780Y-41750777D01*
X81071521Y-41945467D01*
X81048072Y-42093514D01*
X81018142Y-42156648D01*
X81013280Y-42161796D01*
X80027132Y-43147946D01*
X79965809Y-43181431D01*
X79939451Y-43184265D01*
X78429027Y-43184265D01*
X78361988Y-43164580D01*
X78316233Y-43111776D01*
X78306289Y-43042618D01*
X78335314Y-42979062D01*
X78354716Y-42960999D01*
X78433109Y-42902313D01*
X78433112Y-42902311D01*
X78519362Y-42787096D01*
X78569657Y-42652248D01*
X78576066Y-42592638D01*
X78576065Y-40696893D01*
X78569657Y-40637282D01*
X78519362Y-40502434D01*
X78519361Y-40502433D01*
X78519359Y-40502429D01*
X78453474Y-40414419D01*
X78433112Y-40387219D01*
X78402142Y-40364035D01*
X78360273Y-40308103D01*
X78355289Y-40238411D01*
X78388774Y-40177088D01*
X78450098Y-40143604D01*
X78457045Y-40142299D01*
X78566242Y-40125004D01*
X78768411Y-40059315D01*
X78957815Y-39962809D01*
X79017808Y-39919222D01*
X79129785Y-39837867D01*
X79129787Y-39837864D01*
X79129791Y-39837862D01*
X79130835Y-39836818D01*
X79131329Y-39836547D01*
X79133487Y-39834705D01*
X79133874Y-39835158D01*
X79192158Y-39803333D01*
X79218516Y-39800499D01*
X81584217Y-39800499D01*
X81651256Y-39820184D01*
G37*
%TD.AperFunction*%
%TA.AperFunction,NonConductor*%
G36*
X74382057Y-40270184D02*
G01*
X74402699Y-40286818D01*
X75738747Y-41622867D01*
X75772232Y-41684190D01*
X75775066Y-41710548D01*
X75775066Y-42592635D01*
X75775067Y-42592641D01*
X75781474Y-42652248D01*
X75831768Y-42787093D01*
X75831772Y-42787100D01*
X75918018Y-42902309D01*
X75918021Y-42902312D01*
X76033230Y-42988558D01*
X76033237Y-42988562D01*
X76113146Y-43018366D01*
X76169080Y-43060237D01*
X76193497Y-43125701D01*
X76178646Y-43193974D01*
X76157495Y-43222228D01*
X76107322Y-43272401D01*
X76107318Y-43272406D01*
X75977753Y-43450739D01*
X75877670Y-43647158D01*
X75862805Y-43692910D01*
X75823367Y-43750585D01*
X75759008Y-43777783D01*
X75690161Y-43765868D01*
X75657193Y-43742272D01*
X74048228Y-42133307D01*
X72377099Y-40462179D01*
X72343615Y-40400857D01*
X72348599Y-40331165D01*
X72390471Y-40275232D01*
X72455935Y-40250815D01*
X72464781Y-40250499D01*
X74315018Y-40250499D01*
X74382057Y-40270184D01*
G37*
%TD.AperFunction*%
%TA.AperFunction,NonConductor*%
G36*
X81300257Y-30219185D02*
G01*
X81320899Y-30235819D01*
X91463180Y-40378100D01*
X91496665Y-40439423D01*
X91499499Y-40465781D01*
X91499499Y-40784216D01*
X91479814Y-40851255D01*
X91463180Y-40871897D01*
X89472857Y-42862220D01*
X88089812Y-44245264D01*
X88028489Y-44278749D01*
X87958797Y-44273765D01*
X87914450Y-44245265D01*
X87913421Y-44244236D01*
X87847218Y-44178033D01*
X87847214Y-44178030D01*
X87847210Y-44178026D01*
X87681612Y-44057714D01*
X87681611Y-44057713D01*
X87681609Y-44057712D01*
X87624652Y-44028690D01*
X87499222Y-43964780D01*
X87304533Y-43901521D01*
X87129994Y-43873877D01*
X87102351Y-43869499D01*
X86897647Y-43869499D01*
X86843350Y-43878099D01*
X86695463Y-43901522D01*
X86695460Y-43901522D01*
X86546657Y-43949872D01*
X86476816Y-43951867D01*
X86416983Y-43915787D01*
X86386155Y-43853086D01*
X86394120Y-43783672D01*
X86420656Y-43744262D01*
X86527138Y-43637781D01*
X86636631Y-43473913D01*
X86693080Y-43337631D01*
X86712050Y-43291835D01*
X86750499Y-43098539D01*
X86750499Y-42901459D01*
X86750499Y-38151458D01*
X86750499Y-38151455D01*
X86736318Y-38080169D01*
X86720272Y-37999499D01*
X86712050Y-37958163D01*
X86662255Y-37837948D01*
X86636631Y-37776085D01*
X86554193Y-37652707D01*
X86527138Y-37612216D01*
X86384685Y-37469763D01*
X86384654Y-37469734D01*
X79625997Y-30711077D01*
X79592512Y-30649754D01*
X79591205Y-30642794D01*
X79567245Y-30491515D01*
X79525102Y-30361815D01*
X79523108Y-30291977D01*
X79559188Y-30232144D01*
X79621889Y-30201316D01*
X79643034Y-30199500D01*
X81233218Y-30199500D01*
X81300257Y-30219185D01*
G37*
%TD.AperFunction*%
%TA.AperFunction,NonConductor*%
G36*
X81418833Y-44688598D02*
G01*
X81474767Y-44730470D01*
X81499183Y-44795935D01*
X81499499Y-44804780D01*
X81499499Y-46125499D01*
X81479814Y-46192538D01*
X81427010Y-46238293D01*
X81375499Y-46249499D01*
X80514782Y-46249499D01*
X80447743Y-46229814D01*
X80427101Y-46213180D01*
X79610866Y-45396946D01*
X79577381Y-45335623D01*
X79582365Y-45265932D01*
X79624237Y-45209998D01*
X79689701Y-45185581D01*
X79698547Y-45185265D01*
X80503775Y-45185265D01*
X80519012Y-45182233D01*
X80600421Y-45166040D01*
X80697069Y-45146816D01*
X80780233Y-45112368D01*
X80879147Y-45071397D01*
X81043015Y-44961904D01*
X81182372Y-44822547D01*
X81182373Y-44822544D01*
X81287820Y-44717096D01*
X81349142Y-44683614D01*
X81418833Y-44688598D01*
G37*
%TD.AperFunction*%
%TA.AperFunction,NonConductor*%
G36*
X85676365Y-44560087D02*
G01*
X85705276Y-44562155D01*
X85710377Y-44565973D01*
X85716654Y-44567060D01*
X85738006Y-44586657D01*
X85761209Y-44604027D01*
X85763435Y-44609996D01*
X85768129Y-44614304D01*
X85775496Y-44642332D01*
X85785626Y-44669491D01*
X85784677Y-44677263D01*
X85785891Y-44681878D01*
X85779873Y-44716655D01*
X85731522Y-44865460D01*
X85731522Y-44865463D01*
X85699499Y-45067647D01*
X85699499Y-45272350D01*
X85731521Y-45474533D01*
X85794780Y-45669222D01*
X85862237Y-45801612D01*
X85887712Y-45851609D01*
X85975818Y-45972876D01*
X85982969Y-45992920D01*
X85994476Y-46010825D01*
X85997930Y-46034849D01*
X85999297Y-46038680D01*
X85999499Y-46045760D01*
X85999499Y-46284217D01*
X85979814Y-46351256D01*
X85963180Y-46371898D01*
X84962180Y-47372898D01*
X84900857Y-47406383D01*
X84831165Y-47401399D01*
X84775232Y-47359527D01*
X84750815Y-47294063D01*
X84750499Y-47285217D01*
X84750499Y-45465780D01*
X84770184Y-45398741D01*
X84786813Y-45378104D01*
X85574262Y-44590655D01*
X85579852Y-44587602D01*
X85583449Y-44582343D01*
X85610150Y-44571058D01*
X85635584Y-44557171D01*
X85641937Y-44557625D01*
X85647807Y-44555145D01*
X85676365Y-44560087D01*
G37*
%TD.AperFunction*%
%TA.AperFunction,NonConductor*%
G36*
X78399257Y-47019185D02*
G01*
X78419898Y-47035818D01*
X79271859Y-47887780D01*
X79271860Y-47887781D01*
X79342242Y-47958163D01*
X79411218Y-48027139D01*
X79575078Y-48136627D01*
X79575091Y-48136634D01*
X79703832Y-48189960D01*
X79738991Y-48204523D01*
X79757163Y-48212050D01*
X79853811Y-48231274D01*
X79902134Y-48240886D01*
X79950457Y-48250499D01*
X81375499Y-48250499D01*
X81442538Y-48270184D01*
X81488293Y-48322988D01*
X81499499Y-48374499D01*
X81499499Y-48878432D01*
X81479814Y-48945471D01*
X81427010Y-48991226D01*
X81357852Y-49001170D01*
X81351317Y-49000051D01*
X81348540Y-48999499D01*
X80598540Y-48999499D01*
X79651458Y-48999499D01*
X79651453Y-48999499D01*
X79619390Y-49005875D01*
X79619391Y-49005876D01*
X79458169Y-49037945D01*
X79458163Y-49037947D01*
X79367124Y-49075657D01*
X79276086Y-49113366D01*
X79276082Y-49113368D01*
X79216098Y-49153448D01*
X79216094Y-49153452D01*
X79178454Y-49178602D01*
X79111777Y-49199479D01*
X79109564Y-49199499D01*
X77374305Y-49199499D01*
X77307266Y-49179814D01*
X77261511Y-49127010D01*
X77253572Y-49074019D01*
X77250500Y-49074019D01*
X77250500Y-47123500D01*
X77270185Y-47056461D01*
X77322989Y-47010706D01*
X77374500Y-46999500D01*
X78332218Y-46999500D01*
X78399257Y-47019185D01*
G37*
%TD.AperFunction*%
%TA.AperFunction,NonConductor*%
G36*
X69351256Y-40270184D02*
G01*
X69371898Y-40286818D01*
X75372898Y-46287819D01*
X75406383Y-46349142D01*
X75401399Y-46418834D01*
X75359527Y-46474767D01*
X75294063Y-46499184D01*
X75285217Y-46499500D01*
X46684108Y-46499500D01*
X46556812Y-46533608D01*
X46442686Y-46599500D01*
X46442683Y-46599502D01*
X46349502Y-46692683D01*
X46349500Y-46692686D01*
X46283608Y-46806812D01*
X46249500Y-46934108D01*
X46249500Y-49074019D01*
X46246339Y-49074019D01*
X46237874Y-49128338D01*
X46191499Y-49180598D01*
X46125695Y-49199499D01*
X43201456Y-49199499D01*
X43141177Y-49211489D01*
X43141159Y-49211493D01*
X43138361Y-49212050D01*
X43008163Y-49237948D01*
X42977863Y-49250499D01*
X42969264Y-49254060D01*
X42969259Y-49254062D01*
X42826087Y-49313365D01*
X42826078Y-49313370D01*
X42662218Y-49422858D01*
X42621770Y-49463307D01*
X42522860Y-49562217D01*
X42522857Y-49562220D01*
X42005856Y-50079222D01*
X41521898Y-50563180D01*
X41494970Y-50577883D01*
X41469152Y-50594476D01*
X41462951Y-50595367D01*
X41460575Y-50596665D01*
X41434217Y-50599499D01*
X41360160Y-50599499D01*
X41293121Y-50579814D01*
X41247366Y-50527010D01*
X41237422Y-50457852D01*
X41259841Y-50402614D01*
X41289315Y-50362045D01*
X41362286Y-50261609D01*
X41455219Y-50079218D01*
X41518476Y-49884533D01*
X41541924Y-49736482D01*
X41571853Y-49673349D01*
X41576698Y-49668218D01*
X45714552Y-45530364D01*
X45775873Y-45496881D01*
X45840548Y-45500116D01*
X45996478Y-45550779D01*
X45996481Y-45550780D01*
X46214210Y-45585265D01*
X46214211Y-45585265D01*
X46434653Y-45585265D01*
X46434654Y-45585265D01*
X46652383Y-45550780D01*
X46862038Y-45482660D01*
X47058454Y-45382580D01*
X47236797Y-45253007D01*
X47392674Y-45097130D01*
X47522247Y-44918787D01*
X47622327Y-44722371D01*
X47690447Y-44512716D01*
X47724932Y-44294987D01*
X47724932Y-44074543D01*
X47690447Y-43856814D01*
X47638230Y-43696103D01*
X47622328Y-43647161D01*
X47622327Y-43647158D01*
X47534055Y-43473918D01*
X47522247Y-43450743D01*
X47483831Y-43397867D01*
X47392679Y-43272406D01*
X47392675Y-43272401D01*
X47342503Y-43222229D01*
X47309018Y-43160906D01*
X47314002Y-43091214D01*
X47355874Y-43035281D01*
X47386852Y-43018366D01*
X47466758Y-42988563D01*
X47466758Y-42988562D01*
X47466763Y-42988561D01*
X47479922Y-42978710D01*
X55049499Y-42978710D01*
X55049499Y-43221287D01*
X55081160Y-43461784D01*
X55143946Y-43696103D01*
X55236772Y-43920204D01*
X55236775Y-43920211D01*
X55358063Y-44130288D01*
X55358065Y-44130291D01*
X55358066Y-44130292D01*
X55505732Y-44322735D01*
X55505738Y-44322742D01*
X55677255Y-44494259D01*
X55677262Y-44494265D01*
X55701308Y-44512716D01*
X55869710Y-44641935D01*
X56079787Y-44763223D01*
X56303899Y-44856053D01*
X56538210Y-44918837D01*
X56718585Y-44942583D01*
X56778710Y-44950499D01*
X56778711Y-44950499D01*
X57021288Y-44950499D01*
X57069387Y-44944166D01*
X57261788Y-44918837D01*
X57496099Y-44856053D01*
X57720211Y-44763223D01*
X57930288Y-44641935D01*
X58122737Y-44494264D01*
X58294264Y-44322737D01*
X58441935Y-44130288D01*
X58563223Y-43920211D01*
X58656053Y-43696099D01*
X58718837Y-43461788D01*
X58750499Y-43221287D01*
X58750499Y-42978711D01*
X58750499Y-42978710D01*
X64549499Y-42978710D01*
X64549499Y-43221287D01*
X64581160Y-43461784D01*
X64643946Y-43696103D01*
X64736772Y-43920204D01*
X64736775Y-43920211D01*
X64858063Y-44130288D01*
X64858065Y-44130291D01*
X64858066Y-44130292D01*
X65005732Y-44322735D01*
X65005738Y-44322742D01*
X65177255Y-44494259D01*
X65177262Y-44494265D01*
X65201308Y-44512716D01*
X65369710Y-44641935D01*
X65579787Y-44763223D01*
X65803899Y-44856053D01*
X66038210Y-44918837D01*
X66218585Y-44942583D01*
X66278710Y-44950499D01*
X66278711Y-44950499D01*
X66521288Y-44950499D01*
X66569387Y-44944166D01*
X66761788Y-44918837D01*
X66996099Y-44856053D01*
X67220211Y-44763223D01*
X67430288Y-44641935D01*
X67622737Y-44494264D01*
X67794264Y-44322737D01*
X67941935Y-44130288D01*
X68063223Y-43920211D01*
X68156053Y-43696099D01*
X68218837Y-43461788D01*
X68250499Y-43221287D01*
X68250499Y-42978711D01*
X68218837Y-42738210D01*
X68156053Y-42503899D01*
X68063223Y-42279787D01*
X67941935Y-42069710D01*
X67794264Y-41877261D01*
X67794259Y-41877255D01*
X67622742Y-41705738D01*
X67622735Y-41705732D01*
X67430292Y-41558066D01*
X67430291Y-41558065D01*
X67430288Y-41558063D01*
X67220211Y-41436775D01*
X67220204Y-41436772D01*
X66996103Y-41343946D01*
X66761784Y-41281160D01*
X66521288Y-41249499D01*
X66521287Y-41249499D01*
X66278711Y-41249499D01*
X66278710Y-41249499D01*
X66038213Y-41281160D01*
X65803894Y-41343946D01*
X65579793Y-41436772D01*
X65579784Y-41436776D01*
X65369705Y-41558066D01*
X65177262Y-41705732D01*
X65177255Y-41705738D01*
X65005738Y-41877255D01*
X65005732Y-41877262D01*
X64858066Y-42069705D01*
X64736776Y-42279784D01*
X64736772Y-42279793D01*
X64643946Y-42503894D01*
X64581160Y-42738213D01*
X64549499Y-42978710D01*
X58750499Y-42978710D01*
X58718837Y-42738210D01*
X58656053Y-42503899D01*
X58563223Y-42279787D01*
X58441935Y-42069710D01*
X58294264Y-41877261D01*
X58294259Y-41877255D01*
X58122742Y-41705738D01*
X58122735Y-41705732D01*
X57930292Y-41558066D01*
X57930291Y-41558065D01*
X57930288Y-41558063D01*
X57720211Y-41436775D01*
X57720204Y-41436772D01*
X57496103Y-41343946D01*
X57261784Y-41281160D01*
X57021288Y-41249499D01*
X57021287Y-41249499D01*
X56778711Y-41249499D01*
X56778710Y-41249499D01*
X56538213Y-41281160D01*
X56303894Y-41343946D01*
X56079793Y-41436772D01*
X56079784Y-41436776D01*
X55869705Y-41558066D01*
X55677262Y-41705732D01*
X55677255Y-41705738D01*
X55505738Y-41877255D01*
X55505732Y-41877262D01*
X55358066Y-42069705D01*
X55236776Y-42279784D01*
X55236772Y-42279793D01*
X55143946Y-42503894D01*
X55081160Y-42738213D01*
X55049499Y-42978710D01*
X47479922Y-42978710D01*
X47581978Y-42902311D01*
X47668228Y-42787096D01*
X47718523Y-42652248D01*
X47724932Y-42592638D01*
X47724931Y-41710545D01*
X47744615Y-41643507D01*
X47761245Y-41622870D01*
X49097300Y-40286818D01*
X49158623Y-40253333D01*
X49184981Y-40250499D01*
X69284217Y-40250499D01*
X69351256Y-40270184D01*
G37*
%TD.AperFunction*%
%TA.AperFunction,NonConductor*%
G36*
X44988551Y-40270184D02*
G01*
X45034306Y-40322988D01*
X45044250Y-40392146D01*
X45020779Y-40448810D01*
X44980636Y-40502434D01*
X44980634Y-40502436D01*
X44930340Y-40637282D01*
X44924837Y-40688476D01*
X44923933Y-40696888D01*
X44923932Y-40696900D01*
X44923932Y-42592635D01*
X44923933Y-42592641D01*
X44930340Y-42652248D01*
X44980634Y-42787093D01*
X44980638Y-42787100D01*
X45066884Y-42902309D01*
X45066887Y-42902312D01*
X45182096Y-42988558D01*
X45182105Y-42988563D01*
X45209383Y-42998736D01*
X45262010Y-43018365D01*
X45317944Y-43060235D01*
X45319167Y-43063515D01*
X45342362Y-43125697D01*
X45342361Y-43125698D01*
X45342362Y-43125699D01*
X45337523Y-43147946D01*
X45327512Y-43193971D01*
X45306362Y-43222226D01*
X45289716Y-43238873D01*
X45249485Y-43265755D01*
X45171322Y-43298131D01*
X45171312Y-43298136D01*
X45007452Y-43407624D01*
X44964338Y-43450739D01*
X44868094Y-43546983D01*
X44868091Y-43546986D01*
X40161796Y-48253280D01*
X40100473Y-48286765D01*
X40093514Y-48288072D01*
X39945467Y-48311521D01*
X39750777Y-48374780D01*
X39568385Y-48467714D01*
X39402785Y-48588027D01*
X39258027Y-48732785D01*
X39137714Y-48898385D01*
X39044780Y-49080775D01*
X38981521Y-49275464D01*
X38949499Y-49477647D01*
X38949499Y-49682350D01*
X38981521Y-49884533D01*
X39044780Y-50079222D01*
X39137711Y-50261608D01*
X39240157Y-50402614D01*
X39263636Y-50468421D01*
X39247810Y-50536475D01*
X39197704Y-50585169D01*
X39139838Y-50599499D01*
X38451456Y-50599499D01*
X38258169Y-50637946D01*
X38258159Y-50637949D01*
X38171951Y-50673658D01*
X38139325Y-50677165D01*
X38106852Y-50681835D01*
X38104764Y-50680881D01*
X38102482Y-50681127D01*
X38073138Y-50666438D01*
X38043296Y-50652810D01*
X38042055Y-50650879D01*
X38040003Y-50649852D01*
X38023262Y-50621636D01*
X38005522Y-50594032D01*
X38005086Y-50591002D01*
X38004351Y-50589763D01*
X38000499Y-50559097D01*
X38000499Y-50455760D01*
X38020184Y-50388721D01*
X38024164Y-50382898D01*
X38112286Y-50261609D01*
X38205219Y-50079218D01*
X38268476Y-49884533D01*
X38300499Y-49682351D01*
X38300499Y-49477647D01*
X38268476Y-49275465D01*
X38205219Y-49080780D01*
X38205217Y-49080777D01*
X38205217Y-49080775D01*
X38159589Y-48991226D01*
X38112286Y-48898389D01*
X38097787Y-48878432D01*
X37991970Y-48732785D01*
X37847212Y-48588027D01*
X37681612Y-48467714D01*
X37681611Y-48467713D01*
X37681609Y-48467712D01*
X37624652Y-48438690D01*
X37499222Y-48374780D01*
X37304533Y-48311521D01*
X37116689Y-48281770D01*
X37102351Y-48279499D01*
X36935780Y-48279499D01*
X36868741Y-48259814D01*
X36822986Y-48207010D01*
X36813042Y-48137852D01*
X36842067Y-48074296D01*
X36848099Y-48067818D01*
X40620931Y-44294987D01*
X44629100Y-40286818D01*
X44656027Y-40272114D01*
X44681846Y-40255522D01*
X44688046Y-40254630D01*
X44690423Y-40253333D01*
X44716781Y-40250499D01*
X44921512Y-40250499D01*
X44988551Y-40270184D01*
G37*
%TD.AperFunction*%
%TA.AperFunction,NonConductor*%
G36*
X93677084Y-47770184D02*
G01*
X93722839Y-47822988D01*
X93732783Y-47892146D01*
X93703758Y-47955702D01*
X93697726Y-47962180D01*
X93692453Y-47967453D01*
X93606205Y-48082663D01*
X93606201Y-48082670D01*
X93555907Y-48217516D01*
X93551360Y-48259814D01*
X93549500Y-48277122D01*
X93549499Y-48277134D01*
X93549499Y-50172869D01*
X93549500Y-50172875D01*
X93555907Y-50232482D01*
X93606201Y-50367327D01*
X93606205Y-50367334D01*
X93692451Y-50482543D01*
X93692454Y-50482546D01*
X93770849Y-50541233D01*
X93812720Y-50597167D01*
X93817704Y-50666858D01*
X93784218Y-50728181D01*
X93722895Y-50761665D01*
X93696538Y-50764499D01*
X90699780Y-50764499D01*
X90632741Y-50744814D01*
X90586986Y-50692010D01*
X90577042Y-50622852D01*
X90606067Y-50559296D01*
X90612099Y-50552818D01*
X91971732Y-49193186D01*
X93378100Y-47786818D01*
X93405027Y-47772114D01*
X93430846Y-47755522D01*
X93437046Y-47754630D01*
X93439423Y-47753333D01*
X93465781Y-47750499D01*
X93610045Y-47750499D01*
X93677084Y-47770184D01*
G37*
%TD.AperFunction*%
%TA.AperFunction,NonConductor*%
G36*
X96210917Y-52653147D02*
G01*
X96245276Y-52713985D01*
X96248499Y-52742074D01*
X96248499Y-57914478D01*
X96228814Y-57981517D01*
X96176010Y-58027272D01*
X96106852Y-58037216D01*
X96050188Y-58013745D01*
X95972564Y-57955636D01*
X95972561Y-57955634D01*
X95837715Y-57905340D01*
X95837716Y-57905340D01*
X95778116Y-57898933D01*
X95778114Y-57898932D01*
X95778106Y-57898932D01*
X95778097Y-57898932D01*
X93882362Y-57898932D01*
X93882356Y-57898933D01*
X93822749Y-57905340D01*
X93687904Y-57955634D01*
X93687897Y-57955638D01*
X93572688Y-58041884D01*
X93572685Y-58041887D01*
X93486439Y-58157096D01*
X93486435Y-58157103D01*
X93436141Y-58291949D01*
X93429734Y-58351548D01*
X93429733Y-58351567D01*
X93429733Y-58875999D01*
X93410048Y-58943038D01*
X93357244Y-58988793D01*
X93305733Y-58999999D01*
X92795082Y-58999999D01*
X92728043Y-58980314D01*
X92707401Y-58963680D01*
X92302701Y-58558980D01*
X91286818Y-57543096D01*
X91253333Y-57481773D01*
X91250499Y-57455415D01*
X91250499Y-56155760D01*
X91270184Y-56088721D01*
X91274164Y-56082898D01*
X91362286Y-55961609D01*
X91455219Y-55779218D01*
X91518476Y-55584533D01*
X91550499Y-55382351D01*
X91550499Y-55177647D01*
X91523077Y-55004516D01*
X91518476Y-54975464D01*
X91455217Y-54780775D01*
X91405627Y-54683450D01*
X91362286Y-54598389D01*
X91335826Y-54561969D01*
X91241970Y-54432785D01*
X91097212Y-54288027D01*
X90931612Y-54167714D01*
X90931611Y-54167713D01*
X90931609Y-54167712D01*
X90874652Y-54138690D01*
X90749222Y-54074780D01*
X90554533Y-54011521D01*
X90379994Y-53983877D01*
X90352351Y-53979499D01*
X90147647Y-53979499D01*
X90070418Y-53991731D01*
X90001124Y-53982775D01*
X89947673Y-53937778D01*
X89927034Y-53871026D01*
X89945760Y-53803713D01*
X89963334Y-53781583D01*
X90943101Y-52801818D01*
X91004424Y-52768333D01*
X91030782Y-52765499D01*
X93918530Y-52765499D01*
X93985569Y-52785184D01*
X94006211Y-52801818D01*
X94037635Y-52833242D01*
X94037640Y-52833246D01*
X94103318Y-52880963D01*
X94215977Y-52962814D01*
X94344374Y-53028236D01*
X94412392Y-53062894D01*
X94412395Y-53062895D01*
X94514589Y-53096099D01*
X94622048Y-53131014D01*
X94839777Y-53165499D01*
X94839778Y-53165499D01*
X95060220Y-53165499D01*
X95060221Y-53165499D01*
X95277950Y-53131014D01*
X95487605Y-53062894D01*
X95684021Y-52962814D01*
X95862364Y-52833241D01*
X96018241Y-52677364D01*
X96024179Y-52669191D01*
X96079508Y-52626524D01*
X96149121Y-52620543D01*
X96210917Y-52653147D01*
G37*
%TD.AperFunction*%
%TA.AperFunction,NonConductor*%
G36*
X88844345Y-54962103D02*
G01*
X88875886Y-54962554D01*
X88878938Y-54964577D01*
X88882591Y-54964839D01*
X88907836Y-54983737D01*
X88934119Y-55001164D01*
X88935592Y-55004516D01*
X88938524Y-55006711D01*
X88949544Y-55036257D01*
X88962234Y-55065127D01*
X88962163Y-55070089D01*
X88962941Y-55072175D01*
X88961730Y-55100418D01*
X88949499Y-55177647D01*
X88949499Y-55177652D01*
X88949499Y-55382350D01*
X88981521Y-55584533D01*
X89044780Y-55779222D01*
X89070255Y-55829218D01*
X89137712Y-55961609D01*
X89225818Y-56082876D01*
X89249297Y-56148680D01*
X89249499Y-56155760D01*
X89249499Y-58019739D01*
X89249499Y-58019741D01*
X89249498Y-58019741D01*
X89287946Y-58213027D01*
X89287949Y-58213037D01*
X89363363Y-58395105D01*
X89363370Y-58395118D01*
X89472858Y-58558978D01*
X89472859Y-58558979D01*
X89472860Y-58558980D01*
X89612217Y-58698337D01*
X89612218Y-58698337D01*
X89619285Y-58705404D01*
X89619284Y-58705404D01*
X89619288Y-58705407D01*
X89702199Y-58788318D01*
X89735684Y-58849641D01*
X89730700Y-58919333D01*
X89688828Y-58975266D01*
X89623364Y-58999683D01*
X89614518Y-58999999D01*
X88796281Y-58999999D01*
X88729242Y-58980314D01*
X88708600Y-58963680D01*
X88626050Y-58881130D01*
X88610629Y-58862340D01*
X88606530Y-58856206D01*
X88577139Y-58812218D01*
X88577137Y-58812215D01*
X88577134Y-58812212D01*
X86568790Y-56803869D01*
X86535305Y-56742546D01*
X86540289Y-56672854D01*
X86582161Y-56616921D01*
X86647625Y-56592504D01*
X86690619Y-56597748D01*
X86690718Y-56597337D01*
X86694305Y-56598198D01*
X86694789Y-56598257D01*
X86695436Y-56598466D01*
X86695465Y-56598476D01*
X86897647Y-56630499D01*
X86897648Y-56630499D01*
X87102350Y-56630499D01*
X87102351Y-56630499D01*
X87304533Y-56598476D01*
X87499218Y-56535219D01*
X87681609Y-56442286D01*
X87774589Y-56374731D01*
X87847212Y-56321970D01*
X87847214Y-56321967D01*
X87847218Y-56321965D01*
X87991965Y-56177218D01*
X87991967Y-56177214D01*
X87991970Y-56177212D01*
X88060509Y-56082874D01*
X88112286Y-56011609D01*
X88205219Y-55829218D01*
X88268476Y-55634533D01*
X88291924Y-55486482D01*
X88321853Y-55423349D01*
X88326698Y-55418218D01*
X88751579Y-54993338D01*
X88779240Y-54978233D01*
X88806023Y-54961557D01*
X88809686Y-54961609D01*
X88812899Y-54959855D01*
X88844345Y-54962103D01*
G37*
%TD.AperFunction*%
%TA.AperFunction,NonConductor*%
G36*
X81354638Y-51000247D02*
G01*
X81420898Y-51006176D01*
X81476076Y-51049038D01*
X81499321Y-51114928D01*
X81499499Y-51121566D01*
X81499499Y-58875999D01*
X81479814Y-58943038D01*
X81427010Y-58988793D01*
X81375499Y-58999999D01*
X80292926Y-58999999D01*
X80225887Y-58980314D01*
X80222486Y-58978049D01*
X80045973Y-58856210D01*
X80045968Y-58856207D01*
X80045967Y-58856207D01*
X79916615Y-58788318D01*
X79778119Y-58715629D01*
X79778114Y-58715627D01*
X79778112Y-58715626D01*
X79699462Y-58685798D01*
X79495270Y-58608357D01*
X79425033Y-58591045D01*
X79201550Y-58535962D01*
X79021370Y-58514084D01*
X78901253Y-58499499D01*
X78901251Y-58499499D01*
X78815891Y-58499499D01*
X71677908Y-58499499D01*
X71610869Y-58479814D01*
X71565114Y-58427010D01*
X71564304Y-58425199D01*
X71551144Y-58395118D01*
X71357442Y-57952352D01*
X71070500Y-57389978D01*
X70750676Y-56845632D01*
X70399097Y-56321234D01*
X70273299Y-56155760D01*
X70017013Y-55818642D01*
X69816025Y-55584533D01*
X69605749Y-55339605D01*
X69605737Y-55339592D01*
X69605721Y-55339574D01*
X69166787Y-54885848D01*
X69166772Y-54885833D01*
X68701655Y-54458947D01*
X68701629Y-54458925D01*
X68211987Y-54060405D01*
X68211984Y-54060403D01*
X68211977Y-54060397D01*
X67699518Y-53691635D01*
X67673449Y-53675133D01*
X67166071Y-53353951D01*
X67166064Y-53353946D01*
X66762739Y-53131013D01*
X66613514Y-53048530D01*
X66043797Y-52776453D01*
X66043786Y-52776448D01*
X65458950Y-52538687D01*
X65458918Y-52538675D01*
X64860994Y-52336056D01*
X64860993Y-52336055D01*
X64860985Y-52336053D01*
X64252061Y-52169282D01*
X64252047Y-52169279D01*
X63634322Y-52038959D01*
X63634302Y-52038955D01*
X63009923Y-51945539D01*
X62381074Y-51889354D01*
X62381042Y-51889352D01*
X61750009Y-51870604D01*
X61749989Y-51870604D01*
X61118955Y-51889352D01*
X61118923Y-51889354D01*
X60490074Y-51945539D01*
X59865695Y-52038955D01*
X59865675Y-52038959D01*
X59247950Y-52169279D01*
X59247945Y-52169280D01*
X59247937Y-52169282D01*
X58639013Y-52336053D01*
X58639008Y-52336054D01*
X58639003Y-52336056D01*
X58041079Y-52538675D01*
X58041047Y-52538687D01*
X57456211Y-52776448D01*
X57456200Y-52776453D01*
X56886483Y-53048530D01*
X56886483Y-53048531D01*
X56333933Y-53353946D01*
X56333926Y-53353951D01*
X55800488Y-53691629D01*
X55288039Y-54060384D01*
X55288010Y-54060405D01*
X54798368Y-54458925D01*
X54798342Y-54458947D01*
X54333225Y-54885833D01*
X54333210Y-54885848D01*
X53894276Y-55339574D01*
X53894251Y-55339602D01*
X53894249Y-55339605D01*
X53825426Y-55419770D01*
X53482984Y-55818642D01*
X53100898Y-56321237D01*
X52749333Y-56845614D01*
X52749314Y-56845645D01*
X52429508Y-57389960D01*
X52429491Y-57389990D01*
X52142554Y-57952356D01*
X52103387Y-58041884D01*
X51948857Y-58395112D01*
X51935694Y-58425199D01*
X51890790Y-58478728D01*
X51824074Y-58499483D01*
X51822090Y-58499499D01*
X38598744Y-58499499D01*
X38448596Y-58517730D01*
X38298447Y-58535962D01*
X38205069Y-58558978D01*
X38004727Y-58608358D01*
X37782133Y-58692777D01*
X37721886Y-58715626D01*
X37721883Y-58715627D01*
X37721879Y-58715629D01*
X37721878Y-58715629D01*
X37454034Y-58856205D01*
X37277514Y-58978049D01*
X37211160Y-58999932D01*
X37207074Y-58999999D01*
X34496271Y-58999999D01*
X34429232Y-58980314D01*
X34383477Y-58927510D01*
X34373533Y-58858352D01*
X34402558Y-58794796D01*
X34408590Y-58788318D01*
X35806948Y-57389960D01*
X37637777Y-55559131D01*
X37637781Y-55559129D01*
X37777138Y-55419772D01*
X37886631Y-55255904D01*
X37962050Y-55073825D01*
X37963342Y-55067333D01*
X38000499Y-54880530D01*
X38000499Y-54683450D01*
X38000499Y-52640901D01*
X38020184Y-52573862D01*
X38072988Y-52528107D01*
X38142146Y-52518163D01*
X38171951Y-52526340D01*
X38258159Y-52562048D01*
X38258164Y-52562050D01*
X38258168Y-52562050D01*
X38258169Y-52562051D01*
X38451455Y-52600499D01*
X38451458Y-52600499D01*
X41998541Y-52600499D01*
X42039691Y-52592313D01*
X42095187Y-52581274D01*
X42191835Y-52562050D01*
X42248252Y-52538681D01*
X42373913Y-52486631D01*
X42537781Y-52377138D01*
X42677138Y-52237781D01*
X42677139Y-52237779D01*
X42684205Y-52230713D01*
X42684207Y-52230709D01*
X43678100Y-51236818D01*
X43739423Y-51203333D01*
X43765781Y-51200499D01*
X50163188Y-51200499D01*
X50230227Y-51220184D01*
X50275982Y-51272988D01*
X50285926Y-51342146D01*
X50261564Y-51399985D01*
X50208066Y-51469705D01*
X50086776Y-51679784D01*
X50086772Y-51679793D01*
X49993946Y-51903894D01*
X49931160Y-52138213D01*
X49899499Y-52378710D01*
X49899499Y-52621287D01*
X49931160Y-52861784D01*
X49993946Y-53096103D01*
X50086772Y-53320204D01*
X50086775Y-53320211D01*
X50208063Y-53530288D01*
X50208065Y-53530291D01*
X50208066Y-53530292D01*
X50355732Y-53722735D01*
X50355738Y-53722742D01*
X50527255Y-53894259D01*
X50527262Y-53894265D01*
X50583970Y-53937778D01*
X50719710Y-54041935D01*
X50929787Y-54163223D01*
X51153899Y-54256053D01*
X51388210Y-54318837D01*
X51534021Y-54338033D01*
X51628710Y-54350499D01*
X51628711Y-54350499D01*
X51871288Y-54350499D01*
X51955768Y-54339377D01*
X52111788Y-54318837D01*
X52346099Y-54256053D01*
X52570211Y-54163223D01*
X52780288Y-54041935D01*
X52972737Y-53894264D01*
X53144264Y-53722737D01*
X53291935Y-53530288D01*
X53413223Y-53320211D01*
X53506053Y-53096099D01*
X53568837Y-52861788D01*
X53600499Y-52621287D01*
X53600499Y-52378711D01*
X53568837Y-52138210D01*
X53506053Y-51903899D01*
X53413223Y-51679787D01*
X53291935Y-51469710D01*
X53266871Y-51437046D01*
X53238434Y-51399985D01*
X53213240Y-51334816D01*
X53227279Y-51266371D01*
X53276093Y-51216381D01*
X53336810Y-51200499D01*
X70163188Y-51200499D01*
X70230227Y-51220184D01*
X70275982Y-51272988D01*
X70285926Y-51342146D01*
X70261564Y-51399985D01*
X70208066Y-51469705D01*
X70086776Y-51679784D01*
X70086772Y-51679793D01*
X69993946Y-51903894D01*
X69931160Y-52138213D01*
X69899499Y-52378710D01*
X69899499Y-52621287D01*
X69931160Y-52861784D01*
X69993946Y-53096103D01*
X70086772Y-53320204D01*
X70086775Y-53320211D01*
X70208063Y-53530288D01*
X70208065Y-53530291D01*
X70208066Y-53530292D01*
X70355732Y-53722735D01*
X70355738Y-53722742D01*
X70527255Y-53894259D01*
X70527262Y-53894265D01*
X70583970Y-53937778D01*
X70719710Y-54041935D01*
X70929787Y-54163223D01*
X71153899Y-54256053D01*
X71388210Y-54318837D01*
X71534021Y-54338033D01*
X71628710Y-54350499D01*
X71628711Y-54350499D01*
X71871288Y-54350499D01*
X71955768Y-54339377D01*
X72111788Y-54318837D01*
X72346099Y-54256053D01*
X72570211Y-54163223D01*
X72780288Y-54041935D01*
X72972737Y-53894264D01*
X73144264Y-53722737D01*
X73291935Y-53530288D01*
X73413223Y-53320211D01*
X73506053Y-53096099D01*
X73568837Y-52861788D01*
X73600499Y-52621287D01*
X73600499Y-52378711D01*
X73568837Y-52138210D01*
X73506053Y-51903899D01*
X73413223Y-51679787D01*
X73291935Y-51469710D01*
X73266871Y-51437046D01*
X73238434Y-51399985D01*
X73213240Y-51334816D01*
X73227279Y-51266371D01*
X73276093Y-51216381D01*
X73336810Y-51200499D01*
X79648541Y-51200499D01*
X79679565Y-51194327D01*
X79745187Y-51181274D01*
X79841835Y-51162050D01*
X79895164Y-51139960D01*
X80023913Y-51086631D01*
X80121543Y-51021397D01*
X80188221Y-51000519D01*
X80190434Y-51000499D01*
X81348541Y-51000499D01*
X81351306Y-50999949D01*
X81352784Y-51000081D01*
X81354605Y-50999902D01*
X81354638Y-51000247D01*
G37*
%TD.AperFunction*%
%TA.AperFunction,NonConductor*%
G36*
X35918833Y-53567797D02*
G01*
X35974766Y-53609669D01*
X35999183Y-53675133D01*
X35999499Y-53683979D01*
X35999499Y-54316207D01*
X35979814Y-54383246D01*
X35963180Y-54403888D01*
X31403388Y-58963680D01*
X31342065Y-58997165D01*
X31315707Y-58999999D01*
X30683479Y-58999999D01*
X30616440Y-58980314D01*
X30570685Y-58927510D01*
X30560741Y-58858352D01*
X30589766Y-58794796D01*
X30595798Y-58788318D01*
X32941833Y-56442283D01*
X35787820Y-53596296D01*
X35849141Y-53562813D01*
X35918833Y-53567797D01*
G37*
%TD.AperFunction*%
%TA.AperFunction,NonConductor*%
G36*
X62438456Y-23154740D02*
G01*
X63807972Y-23192789D01*
X63811312Y-23192927D01*
X65179311Y-23269000D01*
X65182689Y-23269234D01*
X66548007Y-23383267D01*
X66551433Y-23383601D01*
X67913010Y-23535502D01*
X67916326Y-23535918D01*
X69273238Y-23725583D01*
X69276604Y-23726101D01*
X70627689Y-23953372D01*
X70630972Y-23953971D01*
X71859938Y-24195975D01*
X71975275Y-24218687D01*
X71978644Y-24219400D01*
X73314924Y-24521313D01*
X73318272Y-24522117D01*
X74645801Y-24861063D01*
X74649027Y-24861935D01*
X75496542Y-25103584D01*
X75966558Y-25237598D01*
X75969859Y-25238588D01*
X77276436Y-25650693D01*
X77279652Y-25651756D01*
X77780931Y-25825311D01*
X78574312Y-26099999D01*
X78577550Y-26101171D01*
X79419501Y-26419123D01*
X79859263Y-26585194D01*
X79862420Y-26586438D01*
X80302640Y-26766805D01*
X81130127Y-27105844D01*
X81133296Y-27107193D01*
X82386165Y-27661639D01*
X82389290Y-27663074D01*
X82416035Y-27675810D01*
X83626206Y-28252067D01*
X83629294Y-28253591D01*
X84849414Y-28876728D01*
X84852459Y-28878336D01*
X86054776Y-29535102D01*
X86057762Y-29536787D01*
X87241444Y-30226731D01*
X87244351Y-30228480D01*
X88408365Y-30951000D01*
X88411266Y-30952857D01*
X89554743Y-31707412D01*
X89557590Y-31709348D01*
X90679704Y-32495390D01*
X90682498Y-32497405D01*
X91641285Y-33209535D01*
X91782335Y-33314298D01*
X91785061Y-33316383D01*
X92861820Y-34163530D01*
X92864434Y-34165646D01*
X93917282Y-35042397D01*
X93919833Y-35044581D01*
X94947895Y-35950207D01*
X94950437Y-35952510D01*
X95777876Y-36723258D01*
X95952923Y-36886311D01*
X95955399Y-36888682D01*
X96931594Y-37849993D01*
X96933960Y-37852387D01*
X97714924Y-38665384D01*
X97747170Y-38727367D01*
X97749499Y-38751285D01*
X97749499Y-47285216D01*
X97729814Y-47352255D01*
X97677010Y-47398010D01*
X97607852Y-47407954D01*
X97544296Y-47378929D01*
X97537818Y-47372897D01*
X96284208Y-46119288D01*
X96284205Y-46119284D01*
X96284205Y-46119285D01*
X96277138Y-46112218D01*
X96277138Y-46112217D01*
X96137781Y-45972860D01*
X96137780Y-45972859D01*
X96137779Y-45972858D01*
X95973919Y-45863370D01*
X95973906Y-45863363D01*
X95832683Y-45804868D01*
X95832682Y-45804867D01*
X95824815Y-45801609D01*
X95791835Y-45787948D01*
X95695187Y-45768723D01*
X95691597Y-45768009D01*
X95691586Y-45768006D01*
X95598543Y-45749499D01*
X95598540Y-45749499D01*
X92901458Y-45749499D01*
X92901454Y-45749499D01*
X92808411Y-45768006D01*
X92808396Y-45768009D01*
X92804811Y-45768723D01*
X92708163Y-45787948D01*
X92675183Y-45801609D01*
X92667318Y-45804866D01*
X92667313Y-45804868D01*
X92526091Y-45863363D01*
X92526078Y-45863370D01*
X92362218Y-45972858D01*
X92324252Y-46010825D01*
X92222860Y-46112217D01*
X92222857Y-46112220D01*
X89371898Y-48963180D01*
X89310575Y-48996665D01*
X89284217Y-48999499D01*
X87651456Y-48999499D01*
X87458169Y-49037946D01*
X87458159Y-49037949D01*
X87276091Y-49113363D01*
X87276078Y-49113370D01*
X87112217Y-49222859D01*
X87112213Y-49222862D01*
X86972862Y-49362213D01*
X86972859Y-49362217D01*
X86863370Y-49526078D01*
X86863363Y-49526091D01*
X86787949Y-49708159D01*
X86787946Y-49708169D01*
X86749499Y-49901455D01*
X86749499Y-49901458D01*
X86749499Y-50098540D01*
X86749499Y-50098542D01*
X86749498Y-50098542D01*
X86787946Y-50291828D01*
X86787949Y-50291838D01*
X86863363Y-50473906D01*
X86863370Y-50473919D01*
X86972859Y-50637780D01*
X86972862Y-50637784D01*
X87112213Y-50777135D01*
X87112217Y-50777138D01*
X87276078Y-50886627D01*
X87276091Y-50886634D01*
X87430417Y-50950557D01*
X87458164Y-50962050D01*
X87458168Y-50962050D01*
X87458169Y-50962051D01*
X87651455Y-51000499D01*
X89615216Y-51000499D01*
X89682255Y-51020184D01*
X89728010Y-51072988D01*
X89737954Y-51142146D01*
X89708929Y-51205702D01*
X89702897Y-51212180D01*
X86911796Y-54003280D01*
X86850473Y-54036765D01*
X86843514Y-54038072D01*
X86695467Y-54061521D01*
X86500777Y-54124780D01*
X86318385Y-54217714D01*
X86148838Y-54340896D01*
X86147734Y-54339377D01*
X86091277Y-54364680D01*
X86022191Y-54354247D01*
X85969712Y-54308120D01*
X85950499Y-54241820D01*
X85950499Y-49265780D01*
X85970184Y-49198741D01*
X85986813Y-49178104D01*
X87637777Y-47527140D01*
X87637781Y-47527138D01*
X87777138Y-47387781D01*
X87777140Y-47387777D01*
X89140185Y-46024732D01*
X89201508Y-45991247D01*
X89271200Y-45996231D01*
X89315547Y-46024732D01*
X89402785Y-46111970D01*
X89557748Y-46224555D01*
X89568389Y-46232286D01*
X89684606Y-46291502D01*
X89750775Y-46325217D01*
X89750777Y-46325217D01*
X89750780Y-46325219D01*
X89830914Y-46351256D01*
X89945464Y-46388476D01*
X90046556Y-46404487D01*
X90147647Y-46420499D01*
X90147648Y-46420499D01*
X90352350Y-46420499D01*
X90352351Y-46420499D01*
X90554533Y-46388476D01*
X90749218Y-46325219D01*
X90931609Y-46232286D01*
X91024589Y-46164731D01*
X91097212Y-46111970D01*
X91097214Y-46111967D01*
X91097218Y-46111965D01*
X91241965Y-45967218D01*
X91241967Y-45967214D01*
X91241970Y-45967212D01*
X91317414Y-45863370D01*
X91362286Y-45801609D01*
X91455219Y-45619218D01*
X91518476Y-45424533D01*
X91550499Y-45222351D01*
X91550499Y-45017647D01*
X91518476Y-44815465D01*
X91517461Y-44812342D01*
X91471046Y-44669491D01*
X91455219Y-44620780D01*
X91455217Y-44620777D01*
X91455217Y-44620775D01*
X91400158Y-44512717D01*
X91362286Y-44438389D01*
X91278292Y-44322780D01*
X91274181Y-44317121D01*
X91250701Y-44251315D01*
X91250499Y-44244236D01*
X91250499Y-43965780D01*
X91270184Y-43898741D01*
X91286814Y-43878103D01*
X91744247Y-43420669D01*
X91805568Y-43387186D01*
X91875259Y-43392170D01*
X91888221Y-43397867D01*
X92000775Y-43455217D01*
X92000777Y-43455217D01*
X92000780Y-43455219D01*
X92058330Y-43473918D01*
X92195464Y-43518476D01*
X92296556Y-43534487D01*
X92397647Y-43550499D01*
X92397648Y-43550499D01*
X92602350Y-43550499D01*
X92602351Y-43550499D01*
X92804533Y-43518476D01*
X92999218Y-43455219D01*
X93181609Y-43362286D01*
X93278587Y-43291828D01*
X93347212Y-43241970D01*
X93347214Y-43241967D01*
X93347218Y-43241965D01*
X93491965Y-43097218D01*
X93491967Y-43097214D01*
X93491970Y-43097212D01*
X93570907Y-42988563D01*
X93612286Y-42931609D01*
X93705219Y-42749218D01*
X93768476Y-42554533D01*
X93800499Y-42352351D01*
X93800499Y-42147647D01*
X93768476Y-41945465D01*
X93746315Y-41877262D01*
X93739126Y-41855136D01*
X93705219Y-41750780D01*
X93705217Y-41750777D01*
X93705217Y-41750775D01*
X93658549Y-41659185D01*
X93612286Y-41568389D01*
X93599653Y-41551002D01*
X93524181Y-41447121D01*
X93517028Y-41427076D01*
X93505522Y-41409171D01*
X93502067Y-41385144D01*
X93500701Y-41381315D01*
X93500499Y-41374236D01*
X93500499Y-41354673D01*
X93500500Y-41354652D01*
X93500500Y-41146348D01*
X93500499Y-41146322D01*
X93500499Y-39901455D01*
X93500498Y-39901453D01*
X93484332Y-39820184D01*
X93462050Y-39708164D01*
X93453511Y-39687550D01*
X93439960Y-39654833D01*
X93386631Y-39526085D01*
X93386630Y-39526084D01*
X93386627Y-39526078D01*
X93277139Y-39362218D01*
X93232568Y-39317647D01*
X93137781Y-39222860D01*
X93137780Y-39222859D01*
X82483208Y-28568288D01*
X82483206Y-28568285D01*
X82483206Y-28568286D01*
X82476139Y-28561219D01*
X82476139Y-28561218D01*
X82336782Y-28421861D01*
X82336781Y-28421860D01*
X82336780Y-28421859D01*
X82172920Y-28312371D01*
X82172911Y-28312366D01*
X82100315Y-28282296D01*
X82044165Y-28259038D01*
X81990836Y-28236949D01*
X81990832Y-28236948D01*
X81990828Y-28236946D01*
X81894188Y-28217724D01*
X81797544Y-28198500D01*
X81797541Y-28198500D01*
X76452457Y-28198500D01*
X76452453Y-28198500D01*
X76355810Y-28217724D01*
X76259165Y-28236947D01*
X76259159Y-28236949D01*
X76205832Y-28259037D01*
X76205832Y-28259038D01*
X76160313Y-28277892D01*
X76077087Y-28312366D01*
X76077077Y-28312371D01*
X75913217Y-28421859D01*
X75870722Y-28464355D01*
X75773859Y-28561218D01*
X75773856Y-28561221D01*
X74371898Y-29963180D01*
X74310575Y-29996665D01*
X74284217Y-29999499D01*
X48571454Y-29999499D01*
X48474811Y-30018723D01*
X48378166Y-30037946D01*
X48378160Y-30037948D01*
X48324833Y-30060036D01*
X48324833Y-30060037D01*
X48279314Y-30078891D01*
X48196088Y-30113365D01*
X48196078Y-30113370D01*
X48032218Y-30222858D01*
X47965731Y-30289346D01*
X47892860Y-30362217D01*
X47892857Y-30362220D01*
X40161796Y-38093280D01*
X40100473Y-38126765D01*
X40093514Y-38128072D01*
X39945467Y-38151521D01*
X39750777Y-38214780D01*
X39568385Y-38307714D01*
X39447122Y-38395817D01*
X39381316Y-38419297D01*
X39374237Y-38419499D01*
X37875761Y-38419499D01*
X37808722Y-38399814D01*
X37802876Y-38395817D01*
X37681612Y-38307714D01*
X37681611Y-38307713D01*
X37681609Y-38307712D01*
X37605089Y-38268723D01*
X37499222Y-38214780D01*
X37304533Y-38151521D01*
X37116689Y-38121770D01*
X37102351Y-38119499D01*
X36897647Y-38119499D01*
X36883309Y-38121770D01*
X36695464Y-38151521D01*
X36500775Y-38214780D01*
X36318385Y-38307714D01*
X36197122Y-38395817D01*
X36131316Y-38419297D01*
X36124237Y-38419499D01*
X34625761Y-38419499D01*
X34558722Y-38399814D01*
X34552876Y-38395817D01*
X34431612Y-38307714D01*
X34431611Y-38307713D01*
X34431609Y-38307712D01*
X34355089Y-38268723D01*
X34249222Y-38214780D01*
X34054533Y-38151521D01*
X33866689Y-38121770D01*
X33852351Y-38119499D01*
X33647647Y-38119499D01*
X33633309Y-38121770D01*
X33445464Y-38151521D01*
X33250775Y-38214780D01*
X33068385Y-38307714D01*
X32902785Y-38428027D01*
X32758027Y-38572785D01*
X32637714Y-38738385D01*
X32544780Y-38920775D01*
X32481521Y-39115464D01*
X32449499Y-39317647D01*
X32449499Y-39522351D01*
X32450091Y-39526087D01*
X32481521Y-39724533D01*
X32544780Y-39919222D01*
X32608690Y-40044652D01*
X32629034Y-40084578D01*
X32637714Y-40101612D01*
X32758027Y-40267212D01*
X32902785Y-40411970D01*
X33057748Y-40524555D01*
X33068389Y-40532286D01*
X33184606Y-40591502D01*
X33250775Y-40625217D01*
X33250777Y-40625217D01*
X33250780Y-40625219D01*
X33355136Y-40659126D01*
X33445464Y-40688476D01*
X33498607Y-40696893D01*
X33647647Y-40720499D01*
X33647648Y-40720499D01*
X33852350Y-40720499D01*
X33852351Y-40720499D01*
X34054533Y-40688476D01*
X34249218Y-40625219D01*
X34431609Y-40532286D01*
X34552876Y-40444180D01*
X34618682Y-40420701D01*
X34625761Y-40420499D01*
X36124237Y-40420499D01*
X36191276Y-40440184D01*
X36197118Y-40444178D01*
X36318389Y-40532286D01*
X36434606Y-40591502D01*
X36500775Y-40625217D01*
X36500777Y-40625217D01*
X36500780Y-40625219D01*
X36605136Y-40659126D01*
X36695464Y-40688476D01*
X36748607Y-40696893D01*
X36897647Y-40720499D01*
X36897648Y-40720499D01*
X37102350Y-40720499D01*
X37102351Y-40720499D01*
X37304533Y-40688476D01*
X37499218Y-40625219D01*
X37681609Y-40532286D01*
X37802876Y-40444180D01*
X37868682Y-40420701D01*
X37875761Y-40420499D01*
X39374237Y-40420499D01*
X39441276Y-40440184D01*
X39447118Y-40444178D01*
X39568389Y-40532286D01*
X39684606Y-40591502D01*
X39750775Y-40625217D01*
X39750777Y-40625217D01*
X39750780Y-40625219D01*
X39855136Y-40659126D01*
X39945464Y-40688476D01*
X39998607Y-40696893D01*
X40147647Y-40720499D01*
X40147648Y-40720499D01*
X40352350Y-40720499D01*
X40352351Y-40720499D01*
X40554533Y-40688476D01*
X40749218Y-40625219D01*
X40931609Y-40532286D01*
X41059425Y-40439423D01*
X41097212Y-40411970D01*
X41097214Y-40411967D01*
X41097218Y-40411965D01*
X41241965Y-40267218D01*
X41241967Y-40267214D01*
X41241970Y-40267212D01*
X41331775Y-40143604D01*
X41362286Y-40101609D01*
X41455219Y-39919218D01*
X41518476Y-39724533D01*
X41541924Y-39576482D01*
X41571853Y-39513349D01*
X41576698Y-39508218D01*
X46333448Y-34751469D01*
X50299499Y-34751469D01*
X50299499Y-34994046D01*
X50331160Y-35234543D01*
X50393946Y-35468862D01*
X50481359Y-35679895D01*
X50486775Y-35692970D01*
X50608063Y-35903047D01*
X50608065Y-35903050D01*
X50608066Y-35903051D01*
X50755732Y-36095494D01*
X50755738Y-36095501D01*
X50927255Y-36267018D01*
X50927261Y-36267023D01*
X51119710Y-36414694D01*
X51329787Y-36535982D01*
X51553899Y-36628812D01*
X51788210Y-36691596D01*
X51968585Y-36715342D01*
X52028710Y-36723258D01*
X52028711Y-36723258D01*
X52271288Y-36723258D01*
X52319387Y-36716925D01*
X52511788Y-36691596D01*
X52746099Y-36628812D01*
X52970211Y-36535982D01*
X53180288Y-36414694D01*
X53372737Y-36267023D01*
X53544264Y-36095496D01*
X53691935Y-35903047D01*
X53813223Y-35692970D01*
X53906053Y-35468858D01*
X53968837Y-35234547D01*
X54000499Y-34994046D01*
X54000499Y-34751470D01*
X54000499Y-34751469D01*
X69299499Y-34751469D01*
X69299499Y-34994046D01*
X69331160Y-35234543D01*
X69393946Y-35468862D01*
X69481359Y-35679895D01*
X69486775Y-35692970D01*
X69608063Y-35903047D01*
X69608065Y-35903050D01*
X69608066Y-35903051D01*
X69755732Y-36095494D01*
X69755738Y-36095501D01*
X69927255Y-36267018D01*
X69927261Y-36267023D01*
X70119710Y-36414694D01*
X70329787Y-36535982D01*
X70553899Y-36628812D01*
X70788210Y-36691596D01*
X70968585Y-36715342D01*
X71028710Y-36723258D01*
X71028711Y-36723258D01*
X71271288Y-36723258D01*
X71319387Y-36716925D01*
X71511788Y-36691596D01*
X71746099Y-36628812D01*
X71970211Y-36535982D01*
X72180288Y-36414694D01*
X72372737Y-36267023D01*
X72544264Y-36095496D01*
X72691935Y-35903047D01*
X72813223Y-35692970D01*
X72906053Y-35468858D01*
X72968837Y-35234547D01*
X73000499Y-34994046D01*
X73000499Y-34751470D01*
X72968837Y-34510969D01*
X72906053Y-34276658D01*
X72813223Y-34052546D01*
X72691935Y-33842469D01*
X72544264Y-33650020D01*
X72544259Y-33650014D01*
X72372742Y-33478497D01*
X72372735Y-33478491D01*
X72180292Y-33330825D01*
X72180291Y-33330824D01*
X72180288Y-33330822D01*
X71970211Y-33209534D01*
X71970204Y-33209531D01*
X71746103Y-33116705D01*
X71511784Y-33053919D01*
X71271288Y-33022258D01*
X71271287Y-33022258D01*
X71028711Y-33022258D01*
X71028710Y-33022258D01*
X70788213Y-33053919D01*
X70553894Y-33116705D01*
X70329793Y-33209531D01*
X70329784Y-33209535D01*
X70119705Y-33330825D01*
X69927262Y-33478491D01*
X69927255Y-33478497D01*
X69755738Y-33650014D01*
X69755732Y-33650021D01*
X69608066Y-33842464D01*
X69486776Y-34052543D01*
X69486772Y-34052552D01*
X69393946Y-34276653D01*
X69331160Y-34510972D01*
X69299499Y-34751469D01*
X54000499Y-34751469D01*
X53968837Y-34510969D01*
X53906053Y-34276658D01*
X53813223Y-34052546D01*
X53691935Y-33842469D01*
X53544264Y-33650020D01*
X53544259Y-33650014D01*
X53372742Y-33478497D01*
X53372735Y-33478491D01*
X53180292Y-33330825D01*
X53180291Y-33330824D01*
X53180288Y-33330822D01*
X52970211Y-33209534D01*
X52970204Y-33209531D01*
X52746103Y-33116705D01*
X52511784Y-33053919D01*
X52271288Y-33022258D01*
X52271287Y-33022258D01*
X52028711Y-33022258D01*
X52028710Y-33022258D01*
X51788213Y-33053919D01*
X51553894Y-33116705D01*
X51329793Y-33209531D01*
X51329784Y-33209535D01*
X51119705Y-33330825D01*
X50927262Y-33478491D01*
X50927255Y-33478497D01*
X50755738Y-33650014D01*
X50755732Y-33650021D01*
X50608066Y-33842464D01*
X50486776Y-34052543D01*
X50486772Y-34052552D01*
X50393946Y-34276653D01*
X50331160Y-34510972D01*
X50299499Y-34751469D01*
X46333448Y-34751469D01*
X49048100Y-32036818D01*
X49109423Y-32003333D01*
X49135781Y-32000499D01*
X74848541Y-32000499D01*
X74879565Y-31994327D01*
X74945187Y-31981274D01*
X75041835Y-31962050D01*
X75095164Y-31939960D01*
X75223913Y-31886631D01*
X75387781Y-31777138D01*
X75527138Y-31637781D01*
X75527139Y-31637778D01*
X75534205Y-31630713D01*
X75534207Y-31630709D01*
X76711709Y-30453208D01*
X76773028Y-30419726D01*
X76842720Y-30424710D01*
X76898653Y-30466582D01*
X76923070Y-30532046D01*
X76921859Y-30560289D01*
X76899499Y-30701470D01*
X76899499Y-30701471D01*
X76899499Y-30914045D01*
X76932753Y-31124001D01*
X76981691Y-31274617D01*
X76998443Y-31326172D01*
X77094950Y-31515578D01*
X77219889Y-31687544D01*
X77370212Y-31837867D01*
X77542178Y-31962806D01*
X77542180Y-31962807D01*
X77542183Y-31962809D01*
X77731587Y-32059315D01*
X77933756Y-32125004D01*
X78143712Y-32158258D01*
X78191976Y-32158258D01*
X78259015Y-32177943D01*
X78279657Y-32194577D01*
X84713180Y-38628100D01*
X84746665Y-38689423D01*
X84749499Y-38715781D01*
X84749499Y-39785216D01*
X84729814Y-39852255D01*
X84677010Y-39898010D01*
X84607852Y-39907954D01*
X84544296Y-39878929D01*
X84537818Y-39872897D01*
X82834208Y-38169288D01*
X82834205Y-38169284D01*
X82834205Y-38169285D01*
X82827138Y-38162218D01*
X82827138Y-38162217D01*
X82687781Y-38022860D01*
X82687780Y-38022859D01*
X82687779Y-38022858D01*
X82523919Y-37913370D01*
X82523910Y-37913365D01*
X82451314Y-37883295D01*
X82395164Y-37860037D01*
X82341835Y-37837948D01*
X82341831Y-37837947D01*
X82341827Y-37837945D01*
X82245187Y-37818723D01*
X82148543Y-37799499D01*
X82148540Y-37799499D01*
X79200149Y-37799499D01*
X79133110Y-37779814D01*
X79127264Y-37775817D01*
X78957819Y-37652709D01*
X78768413Y-37556202D01*
X78768412Y-37556201D01*
X78768411Y-37556201D01*
X78566242Y-37490512D01*
X78566240Y-37490511D01*
X78566239Y-37490511D01*
X78404956Y-37464966D01*
X78356286Y-37457258D01*
X78143712Y-37457258D01*
X78095041Y-37464966D01*
X77933759Y-37490511D01*
X77731584Y-37556202D01*
X77542178Y-37652709D01*
X77370212Y-37777648D01*
X77219889Y-37927971D01*
X77094950Y-38099937D01*
X76998443Y-38289343D01*
X76998442Y-38289345D01*
X76998442Y-38289346D01*
X76992474Y-38307714D01*
X76932752Y-38491518D01*
X76905215Y-38665383D01*
X76899499Y-38701471D01*
X76899499Y-38914045D01*
X76932753Y-39124001D01*
X76964874Y-39222860D01*
X76998443Y-39326172D01*
X77094950Y-39515578D01*
X77219889Y-39687544D01*
X77370212Y-39837867D01*
X77542178Y-39962806D01*
X77542180Y-39962807D01*
X77542183Y-39962809D01*
X77634369Y-40009780D01*
X77685165Y-40057755D01*
X77701960Y-40125576D01*
X77679423Y-40191710D01*
X77624708Y-40235162D01*
X77578074Y-40244265D01*
X77241349Y-40244265D01*
X77174310Y-40224580D01*
X77153668Y-40207946D01*
X75565009Y-38619288D01*
X75565006Y-38619284D01*
X75565006Y-38619285D01*
X75557939Y-38612218D01*
X75557939Y-38612217D01*
X75418582Y-38472860D01*
X75418581Y-38472859D01*
X75418580Y-38472858D01*
X75254720Y-38363370D01*
X75254707Y-38363363D01*
X75127500Y-38310673D01*
X75127495Y-38310671D01*
X75120350Y-38307712D01*
X75072636Y-38287948D01*
X74975988Y-38268723D01*
X74971624Y-38267855D01*
X74971617Y-38267853D01*
X74879344Y-38249499D01*
X74879341Y-38249499D01*
X69848540Y-38249499D01*
X48817744Y-38249499D01*
X48817739Y-38249498D01*
X48620658Y-38249498D01*
X48620653Y-38249499D01*
X44348540Y-38249499D01*
X44151458Y-38249499D01*
X44151456Y-38249499D01*
X43958169Y-38287946D01*
X43958159Y-38287949D01*
X43776091Y-38363363D01*
X43776078Y-38363370D01*
X43612217Y-38472859D01*
X43612213Y-38472862D01*
X43472857Y-38612218D01*
X43472128Y-38613107D01*
X43463970Y-38622106D01*
X39025842Y-43060235D01*
X34613220Y-47472857D01*
X34613217Y-47472860D01*
X34558939Y-47527138D01*
X34473858Y-47612218D01*
X34364370Y-47776078D01*
X34364363Y-47776091D01*
X34321689Y-47879118D01*
X34321683Y-47879133D01*
X34320826Y-47881203D01*
X34288948Y-47958163D01*
X34287100Y-47967453D01*
X34285159Y-47977207D01*
X34285158Y-47977212D01*
X34250499Y-48151455D01*
X34250499Y-48204523D01*
X34230814Y-48271562D01*
X34178010Y-48317317D01*
X34108852Y-48327261D01*
X34088182Y-48322454D01*
X34054541Y-48311523D01*
X34054534Y-48311522D01*
X33953442Y-48295510D01*
X33852351Y-48279499D01*
X33647647Y-48279499D01*
X33633309Y-48281770D01*
X33445464Y-48311521D01*
X33250775Y-48374780D01*
X33068385Y-48467714D01*
X32902785Y-48588027D01*
X32758027Y-48732785D01*
X32637714Y-48898385D01*
X32544780Y-49080777D01*
X32481521Y-49275467D01*
X32458072Y-49423514D01*
X32428142Y-49486648D01*
X32423280Y-49491796D01*
X31186898Y-50728180D01*
X31125575Y-50761665D01*
X31099217Y-50764499D01*
X30003460Y-50764499D01*
X29936421Y-50744814D01*
X29890666Y-50692010D01*
X29880722Y-50622852D01*
X29909747Y-50559296D01*
X29929149Y-50541233D01*
X29975512Y-50506524D01*
X30007545Y-50482545D01*
X30093795Y-50367330D01*
X30144090Y-50232482D01*
X30150499Y-50172872D01*
X30150498Y-48277127D01*
X30144090Y-48217516D01*
X30142051Y-48212050D01*
X30093796Y-48082670D01*
X30093792Y-48082663D01*
X30007545Y-47967453D01*
X30007543Y-47967451D01*
X29892334Y-47881205D01*
X29892327Y-47881201D01*
X29757481Y-47830907D01*
X29757482Y-47830907D01*
X29697882Y-47824500D01*
X29697880Y-47824499D01*
X29697872Y-47824499D01*
X29697863Y-47824499D01*
X27802128Y-47824499D01*
X27802122Y-47824500D01*
X27742515Y-47830907D01*
X27607670Y-47881201D01*
X27607663Y-47881205D01*
X27492454Y-47967451D01*
X27492453Y-47967453D01*
X27406205Y-48082663D01*
X27406201Y-48082670D01*
X27355907Y-48217516D01*
X27351360Y-48259814D01*
X27349500Y-48277122D01*
X27349499Y-48277134D01*
X27349499Y-50172869D01*
X27349500Y-50172875D01*
X27355907Y-50232482D01*
X27406201Y-50367327D01*
X27406205Y-50367334D01*
X27492451Y-50482543D01*
X27492454Y-50482546D01*
X27607663Y-50568792D01*
X27607670Y-50568796D01*
X27687579Y-50598600D01*
X27743513Y-50640471D01*
X27767930Y-50705935D01*
X27753079Y-50774208D01*
X27731928Y-50802462D01*
X27681755Y-50852635D01*
X27681751Y-50852640D01*
X27552186Y-51030973D01*
X27452103Y-51227392D01*
X27452102Y-51227395D01*
X27383984Y-51437046D01*
X27378811Y-51469710D01*
X27349499Y-51654777D01*
X27349499Y-51875221D01*
X27354040Y-51903894D01*
X27383984Y-52092951D01*
X27452102Y-52302602D01*
X27452103Y-52302605D01*
X27490882Y-52378711D01*
X27545869Y-52486628D01*
X27552186Y-52499024D01*
X27681751Y-52677357D01*
X27681755Y-52677362D01*
X27837635Y-52833242D01*
X27837640Y-52833246D01*
X27903318Y-52880963D01*
X28015977Y-52962814D01*
X28144374Y-53028236D01*
X28212392Y-53062894D01*
X28212395Y-53062895D01*
X28314589Y-53096099D01*
X28422048Y-53131014D01*
X28639777Y-53165499D01*
X28639778Y-53165499D01*
X28860220Y-53165499D01*
X28860221Y-53165499D01*
X29077950Y-53131014D01*
X29287605Y-53062894D01*
X29484021Y-52962814D01*
X29662364Y-52833241D01*
X29693787Y-52801818D01*
X29755110Y-52768333D01*
X29781468Y-52765499D01*
X31663541Y-52765499D01*
X31694565Y-52759327D01*
X31760187Y-52746274D01*
X31856835Y-52727050D01*
X31910164Y-52704960D01*
X32038913Y-52651631D01*
X32202781Y-52542138D01*
X32342138Y-52402781D01*
X32342138Y-52402779D01*
X32352346Y-52392572D01*
X32352348Y-52392569D01*
X33838202Y-50906714D01*
X33855048Y-50897516D01*
X33868925Y-50884252D01*
X33895033Y-50875682D01*
X33899523Y-50873231D01*
X33902263Y-50872667D01*
X33904343Y-50872263D01*
X34054533Y-50848476D01*
X34095415Y-50835192D01*
X34102881Y-50833744D01*
X34130393Y-50836336D01*
X34158020Y-50835547D01*
X34164690Y-50839569D01*
X34172443Y-50840300D01*
X34194188Y-50857357D01*
X34217853Y-50871627D01*
X34221288Y-50878614D01*
X34227418Y-50883422D01*
X34236489Y-50909528D01*
X34248683Y-50934327D01*
X34249857Y-50947999D01*
X34250351Y-50949421D01*
X34250076Y-50950557D01*
X34250499Y-50955474D01*
X34250499Y-52252415D01*
X34230814Y-52319454D01*
X34214180Y-52340096D01*
X28691662Y-57862613D01*
X28630339Y-57896098D01*
X28603981Y-57898932D01*
X27721894Y-57898932D01*
X27721888Y-57898933D01*
X27662281Y-57905340D01*
X27527436Y-57955634D01*
X27527429Y-57955638D01*
X27412220Y-58041884D01*
X27412217Y-58041887D01*
X27325971Y-58157096D01*
X27325967Y-58157103D01*
X27275673Y-58291949D01*
X27269266Y-58351548D01*
X27269265Y-58351567D01*
X27269265Y-58875999D01*
X27249580Y-58943038D01*
X27196776Y-58988793D01*
X27145265Y-58999999D01*
X25874499Y-58999999D01*
X25807460Y-58980314D01*
X25761705Y-58927510D01*
X25750499Y-58875999D01*
X25750499Y-38751285D01*
X25770184Y-38684246D01*
X25785070Y-38665387D01*
X26566073Y-37852350D01*
X26568366Y-37850029D01*
X27544634Y-36888647D01*
X27547026Y-36886356D01*
X28549595Y-35952477D01*
X28552055Y-35950248D01*
X29580200Y-35044550D01*
X29582679Y-35042426D01*
X30635598Y-34165617D01*
X30638142Y-34163558D01*
X31714970Y-33316355D01*
X31717616Y-33314332D01*
X32817531Y-32497381D01*
X32820293Y-32495390D01*
X33942407Y-31709348D01*
X33945254Y-31707412D01*
X34050775Y-31637781D01*
X35088776Y-30952827D01*
X35091585Y-30951029D01*
X36255678Y-30228460D01*
X36258522Y-30226749D01*
X37442265Y-29536769D01*
X37445177Y-29535126D01*
X38647544Y-28878332D01*
X38650583Y-28876728D01*
X39870703Y-28253591D01*
X39873773Y-28252075D01*
X41110734Y-27663061D01*
X41113801Y-27661653D01*
X42366724Y-27107182D01*
X42369845Y-27105854D01*
X43637602Y-26586427D01*
X43640710Y-26585204D01*
X43802176Y-26524228D01*
X55049499Y-26524228D01*
X55049499Y-26766805D01*
X55081160Y-27007302D01*
X55143946Y-27241621D01*
X55236772Y-27465722D01*
X55236775Y-27465729D01*
X55358063Y-27675806D01*
X55358065Y-27675809D01*
X55358066Y-27675810D01*
X55505732Y-27868253D01*
X55505738Y-27868260D01*
X55677255Y-28039777D01*
X55677261Y-28039782D01*
X55869710Y-28187453D01*
X56079787Y-28308741D01*
X56303899Y-28401571D01*
X56538210Y-28464355D01*
X56718585Y-28488101D01*
X56778710Y-28496017D01*
X56778711Y-28496017D01*
X57021288Y-28496017D01*
X57069387Y-28489684D01*
X57261788Y-28464355D01*
X57496099Y-28401571D01*
X57720211Y-28308741D01*
X57930288Y-28187453D01*
X58122737Y-28039782D01*
X58294264Y-27868255D01*
X58441935Y-27675806D01*
X58563223Y-27465729D01*
X58656053Y-27241617D01*
X58718837Y-27007306D01*
X58750499Y-26766805D01*
X58750499Y-26524229D01*
X58750499Y-26524228D01*
X64549499Y-26524228D01*
X64549499Y-26766805D01*
X64581160Y-27007302D01*
X64643946Y-27241621D01*
X64736772Y-27465722D01*
X64736775Y-27465729D01*
X64858063Y-27675806D01*
X64858065Y-27675809D01*
X64858066Y-27675810D01*
X65005732Y-27868253D01*
X65005738Y-27868260D01*
X65177255Y-28039777D01*
X65177261Y-28039782D01*
X65369710Y-28187453D01*
X65579787Y-28308741D01*
X65803899Y-28401571D01*
X66038210Y-28464355D01*
X66218585Y-28488101D01*
X66278710Y-28496017D01*
X66278711Y-28496017D01*
X66521288Y-28496017D01*
X66569387Y-28489684D01*
X66761788Y-28464355D01*
X66996099Y-28401571D01*
X67220211Y-28308741D01*
X67430288Y-28187453D01*
X67622737Y-28039782D01*
X67794264Y-27868255D01*
X67941935Y-27675806D01*
X68063223Y-27465729D01*
X68156053Y-27241617D01*
X68218837Y-27007306D01*
X68250499Y-26766805D01*
X68250499Y-26524229D01*
X68218837Y-26283728D01*
X68156053Y-26049417D01*
X68063223Y-25825305D01*
X67941935Y-25615228D01*
X67794264Y-25422779D01*
X67794259Y-25422773D01*
X67622742Y-25251256D01*
X67622735Y-25251250D01*
X67430292Y-25103584D01*
X67430291Y-25103583D01*
X67430288Y-25103581D01*
X67220211Y-24982293D01*
X67220204Y-24982290D01*
X66996103Y-24889464D01*
X66761784Y-24826678D01*
X66521288Y-24795017D01*
X66521287Y-24795017D01*
X66278711Y-24795017D01*
X66278710Y-24795017D01*
X66038213Y-24826678D01*
X65803894Y-24889464D01*
X65579793Y-24982290D01*
X65579784Y-24982294D01*
X65369705Y-25103584D01*
X65177262Y-25251250D01*
X65177255Y-25251256D01*
X65005738Y-25422773D01*
X65005732Y-25422780D01*
X64858066Y-25615223D01*
X64736776Y-25825302D01*
X64736772Y-25825311D01*
X64643946Y-26049412D01*
X64581160Y-26283731D01*
X64549499Y-26524228D01*
X58750499Y-26524228D01*
X58718837Y-26283728D01*
X58656053Y-26049417D01*
X58563223Y-25825305D01*
X58441935Y-25615228D01*
X58294264Y-25422779D01*
X58294259Y-25422773D01*
X58122742Y-25251256D01*
X58122735Y-25251250D01*
X57930292Y-25103584D01*
X57930291Y-25103583D01*
X57930288Y-25103581D01*
X57720211Y-24982293D01*
X57720204Y-24982290D01*
X57496103Y-24889464D01*
X57261784Y-24826678D01*
X57021288Y-24795017D01*
X57021287Y-24795017D01*
X56778711Y-24795017D01*
X56778710Y-24795017D01*
X56538213Y-24826678D01*
X56303894Y-24889464D01*
X56079793Y-24982290D01*
X56079784Y-24982294D01*
X55869705Y-25103584D01*
X55677262Y-25251250D01*
X55677255Y-25251256D01*
X55505738Y-25422773D01*
X55505732Y-25422780D01*
X55358066Y-25615223D01*
X55236776Y-25825302D01*
X55236772Y-25825311D01*
X55143946Y-26049412D01*
X55081160Y-26283731D01*
X55049499Y-26524228D01*
X43802176Y-26524228D01*
X44922469Y-26101162D01*
X44925662Y-26100007D01*
X46220367Y-25651748D01*
X46223539Y-25650700D01*
X47530158Y-25238582D01*
X47533421Y-25237603D01*
X48850988Y-24861930D01*
X48854178Y-24861067D01*
X50181741Y-24522113D01*
X50185056Y-24521316D01*
X51521361Y-24219398D01*
X51524713Y-24218688D01*
X52869037Y-23953969D01*
X52872295Y-23953374D01*
X54223404Y-23726099D01*
X54226748Y-23725585D01*
X55583680Y-23535916D01*
X55586978Y-23535503D01*
X56948571Y-23383601D01*
X56951982Y-23383267D01*
X58317313Y-23269234D01*
X58320681Y-23269000D01*
X59688688Y-23192927D01*
X59692022Y-23192789D01*
X61061541Y-23154740D01*
X61064985Y-23154693D01*
X62435013Y-23154693D01*
X62438456Y-23154740D01*
G37*
%TD.AperFunction*%
M02*
