%TF.GenerationSoftware,KiCad,Pcbnew,9.0.0*%
%TF.CreationDate,2025-05-22T12:59:40+09:00*%
%TF.ProjectId,control_unit,636f6e74-726f-46c5-9f75-6e69742e6b69,R1*%
%TF.SameCoordinates,Original*%
%TF.FileFunction,Legend,Top*%
%TF.FilePolarity,Positive*%
%FSLAX46Y46*%
G04 Gerber Fmt 4.6, Leading zero omitted, Abs format (unit mm)*
G04 Created by KiCad (PCBNEW 9.0.0) date 2025-05-22 12:59:40*
%MOMM*%
%LPD*%
G01*
G04 APERTURE LIST*
G04 Aperture macros list*
%AMRoundRect*
0 Rectangle with rounded corners*
0 $1 Rounding radius*
0 $2 $3 $4 $5 $6 $7 $8 $9 X,Y pos of 4 corners*
0 Add a 4 corners polygon primitive as box body*
4,1,4,$2,$3,$4,$5,$6,$7,$8,$9,$2,$3,0*
0 Add four circle primitives for the rounded corners*
1,1,$1+$1,$2,$3*
1,1,$1+$1,$4,$5*
1,1,$1+$1,$6,$7*
1,1,$1+$1,$8,$9*
0 Add four rect primitives between the rounded corners*
20,1,$1+$1,$2,$3,$4,$5,0*
20,1,$1+$1,$4,$5,$6,$7,0*
20,1,$1+$1,$6,$7,$8,$9,0*
20,1,$1+$1,$8,$9,$2,$3,0*%
%AMFreePoly0*
4,1,13,0.900000,0.500000,2.600000,0.500000,2.600000,-0.500000,0.900000,-0.500000,0.400000,-1.000000,-0.400000,-1.000000,-0.900000,-0.500000,-2.600000,-0.500000,-2.600000,0.500000,-0.900000,0.500000,-0.400000,1.000000,0.400000,1.000000,0.900000,0.500000,0.900000,0.500000,$1*%
%AMFreePoly1*
4,1,23,0.500000,-0.750000,0.000000,-0.750000,0.000000,-0.745722,-0.065263,-0.745722,-0.191342,-0.711940,-0.304381,-0.646677,-0.396677,-0.554381,-0.461940,-0.441342,-0.495722,-0.315263,-0.495722,-0.250000,-0.500000,-0.250000,-0.500000,0.250000,-0.495722,0.250000,-0.495722,0.315263,-0.461940,0.441342,-0.396677,0.554381,-0.304381,0.646677,-0.191342,0.711940,-0.065263,0.745722,0.000000,0.745722,
0.000000,0.750000,0.500000,0.750000,0.500000,-0.750000,0.500000,-0.750000,$1*%
%AMFreePoly2*
4,1,23,0.000000,0.745722,0.065263,0.745722,0.191342,0.711940,0.304381,0.646677,0.396677,0.554381,0.461940,0.441342,0.495722,0.315263,0.495722,0.250000,0.500000,0.250000,0.500000,-0.250000,0.495722,-0.250000,0.495722,-0.315263,0.461940,-0.441342,0.396677,-0.554381,0.304381,-0.646677,0.191342,-0.711940,0.065263,-0.745722,0.000000,-0.745722,0.000000,-0.750000,-0.500000,-0.750000,
-0.500000,0.750000,0.000000,0.750000,0.000000,0.745722,0.000000,0.745722,$1*%
G04 Aperture macros list end*
%ADD10C,0.100000*%
%ADD11C,0.500000*%
%ADD12C,0.150000*%
%ADD13C,0.062500*%
%ADD14C,0.050000*%
%ADD15C,0.120000*%
%ADD16C,0.254000*%
%ADD17C,0.152000*%
%ADD18C,0.000000*%
%ADD19C,0.152500*%
%ADD20C,0.152400*%
%ADD21RoundRect,0.200000X0.275000X-0.200000X0.275000X0.200000X-0.275000X0.200000X-0.275000X-0.200000X0*%
%ADD22R,4.500000X4.500000*%
%ADD23RoundRect,0.200000X-0.200000X-0.275000X0.200000X-0.275000X0.200000X0.275000X-0.200000X0.275000X0*%
%ADD24C,1.400000*%
%ADD25RoundRect,0.225000X-0.225000X-0.250000X0.225000X-0.250000X0.225000X0.250000X-0.225000X0.250000X0*%
%ADD26R,1.800000X1.800000*%
%ADD27C,1.800000*%
%ADD28R,1.700000X1.700000*%
%ADD29O,1.700000X1.700000*%
%ADD30RoundRect,0.200000X-0.275000X0.200000X-0.275000X-0.200000X0.275000X-0.200000X0.275000X0.200000X0*%
%ADD31RoundRect,0.243750X-0.456250X0.243750X-0.456250X-0.243750X0.456250X-0.243750X0.456250X0.243750X0*%
%ADD32RoundRect,0.237500X-0.237500X0.250000X-0.237500X-0.250000X0.237500X-0.250000X0.237500X0.250000X0*%
%ADD33C,3.200000*%
%ADD34RoundRect,0.250000X-1.100000X0.325000X-1.100000X-0.325000X1.100000X-0.325000X1.100000X0.325000X0*%
%ADD35C,1.524000*%
%ADD36RoundRect,0.225000X0.250000X-0.225000X0.250000X0.225000X-0.250000X0.225000X-0.250000X-0.225000X0*%
%ADD37RoundRect,0.150000X0.150000X-0.875000X0.150000X0.875000X-0.150000X0.875000X-0.150000X-0.875000X0*%
%ADD38RoundRect,0.250000X0.850000X0.350000X-0.850000X0.350000X-0.850000X-0.350000X0.850000X-0.350000X0*%
%ADD39RoundRect,0.249997X2.950003X2.650003X-2.950003X2.650003X-2.950003X-2.650003X2.950003X-2.650003X0*%
%ADD40R,1.200000X1.400000*%
%ADD41RoundRect,0.243750X0.456250X-0.243750X0.456250X0.243750X-0.456250X0.243750X-0.456250X-0.243750X0*%
%ADD42RoundRect,0.175000X0.575000X0.175000X-0.575000X0.175000X-0.575000X-0.175000X0.575000X-0.175000X0*%
%ADD43FreePoly0,180.000000*%
%ADD44R,3.500000X3.500000*%
%ADD45RoundRect,0.750000X-0.750000X-1.000000X0.750000X-1.000000X0.750000X1.000000X-0.750000X1.000000X0*%
%ADD46RoundRect,0.875000X-0.875000X-0.875000X0.875000X-0.875000X0.875000X0.875000X-0.875000X0.875000X0*%
%ADD47RoundRect,0.225000X0.225000X0.250000X-0.225000X0.250000X-0.225000X-0.250000X0.225000X-0.250000X0*%
%ADD48FreePoly1,0.000000*%
%ADD49FreePoly2,0.000000*%
%ADD50RoundRect,0.237500X0.237500X-0.250000X0.237500X0.250000X-0.237500X0.250000X-0.237500X-0.250000X0*%
%ADD51RoundRect,0.250000X1.100000X-0.325000X1.100000X0.325000X-1.100000X0.325000X-1.100000X-0.325000X0*%
%ADD52RoundRect,0.200000X0.200000X0.275000X-0.200000X0.275000X-0.200000X-0.275000X0.200000X-0.275000X0*%
%ADD53RoundRect,0.250000X-0.325000X-1.100000X0.325000X-1.100000X0.325000X1.100000X-0.325000X1.100000X0*%
%ADD54RoundRect,0.250000X-0.312500X-0.625000X0.312500X-0.625000X0.312500X0.625000X-0.312500X0.625000X0*%
%ADD55R,0.280000X0.850000*%
%ADD56R,0.850000X0.280000*%
%ADD57R,1.700000X2.700000*%
%ADD58RoundRect,0.237500X-0.250000X-0.237500X0.250000X-0.237500X0.250000X0.237500X-0.250000X0.237500X0*%
%ADD59RoundRect,0.237500X-0.300000X-0.237500X0.300000X-0.237500X0.300000X0.237500X-0.300000X0.237500X0*%
%ADD60RoundRect,0.225000X-0.250000X0.225000X-0.250000X-0.225000X0.250000X-0.225000X0.250000X0.225000X0*%
%ADD61RoundRect,0.249999X-0.512501X-1.075001X0.512501X-1.075001X0.512501X1.075001X-0.512501X1.075001X0*%
%ADD62R,1.100000X0.250000*%
%ADD63RoundRect,0.250000X-0.350000X0.850000X-0.350000X-0.850000X0.350000X-0.850000X0.350000X0.850000X0*%
%ADD64RoundRect,0.249997X-2.650003X2.950003X-2.650003X-2.950003X2.650003X-2.950003X2.650003X2.950003X0*%
%ADD65RoundRect,0.150000X0.587500X0.150000X-0.587500X0.150000X-0.587500X-0.150000X0.587500X-0.150000X0*%
%ADD66RoundRect,0.150000X-0.587500X-0.150000X0.587500X-0.150000X0.587500X0.150000X-0.587500X0.150000X0*%
%ADD67R,2.062500X1.539000*%
%ADD68RoundRect,0.243750X-0.243750X-0.456250X0.243750X-0.456250X0.243750X0.456250X-0.243750X0.456250X0*%
%ADD69RoundRect,0.250000X-1.000000X-0.650000X1.000000X-0.650000X1.000000X0.650000X-1.000000X0.650000X0*%
%ADD70R,1.981200X0.558800*%
%ADD71C,1.250000*%
%ADD72RoundRect,0.250000X-0.725000X0.600000X-0.725000X-0.600000X0.725000X-0.600000X0.725000X0.600000X0*%
%ADD73O,1.950000X1.700000*%
%ADD74RoundRect,0.250001X-1.099999X1.099999X-1.099999X-1.099999X1.099999X-1.099999X1.099999X1.099999X0*%
%ADD75C,2.700000*%
G04 APERTURE END LIST*
D10*
X142525995Y-146599005D02*
X140025995Y-144099005D01*
X162525995Y-146599005D02*
X152025995Y-136099005D01*
X135525995Y-55599005D02*
X132525995Y-52599005D01*
X89025995Y-59099005D02*
X93025995Y-63099005D01*
X112525995Y-146599005D02*
X110025995Y-144099005D01*
X180525995Y-60599005D02*
X179025995Y-59099005D01*
X115025995Y-139099005D02*
X112025995Y-136099005D01*
X174750000Y-138750000D02*
X172025995Y-136099005D01*
X81525995Y-136099005D02*
X180525995Y-136099005D01*
X83025995Y-63099005D02*
X81500000Y-61750000D01*
X135025995Y-139099005D02*
X132025995Y-136099005D01*
X174025995Y-54099005D02*
X172525995Y-52599005D01*
X180025995Y-144099005D02*
X178525995Y-142599005D01*
X163025995Y-63099005D02*
X152525995Y-52599005D01*
X105525995Y-55599005D02*
X102525995Y-52599005D01*
X145525995Y-55599005D02*
X142525995Y-52599005D01*
X143025995Y-63099005D02*
X140525995Y-60599005D01*
X132275995Y-146599005D02*
X129775995Y-144099005D01*
X172525995Y-146599005D02*
X162025995Y-136099005D01*
X102525995Y-146599005D02*
X92025995Y-136099005D01*
X133025995Y-63099005D02*
X130525995Y-60599005D01*
X103025995Y-63099005D02*
X92525995Y-52599005D01*
X105025995Y-139099005D02*
X102025995Y-136099005D01*
X152525995Y-146599005D02*
X150025995Y-144099005D01*
X85025995Y-139099005D02*
X82025995Y-136099005D01*
X122525995Y-146599005D02*
X120025995Y-144099005D01*
X173025995Y-63099005D02*
X162525995Y-52599005D01*
X123025995Y-63099005D02*
X120275995Y-60349005D01*
X125525995Y-55599005D02*
X122525995Y-52599005D01*
X89025995Y-143099005D02*
X92525995Y-146599005D01*
X113025995Y-63099005D02*
X110525995Y-60599005D01*
X171025995Y-136099005D02*
X171025995Y-63099005D01*
X81500000Y-63099005D02*
X180525995Y-63099005D01*
X145025995Y-139099005D02*
X142025995Y-136099005D01*
X115525995Y-55599005D02*
X112525995Y-52599005D01*
X84025995Y-54099005D02*
X83525995Y-53599005D01*
X153025995Y-63099005D02*
X150525995Y-60599005D01*
X125025995Y-139099005D02*
X122025995Y-136099005D01*
X81282260Y-73685709D02*
X81758450Y-73685709D01*
X81187022Y-73971424D02*
X81520355Y-72971424D01*
X81520355Y-72971424D02*
X81853688Y-73971424D01*
X82187022Y-73971424D02*
X82187022Y-72971424D01*
X82663212Y-73971424D02*
X82663212Y-72971424D01*
X82663212Y-72971424D02*
X83234640Y-73971424D01*
X83234640Y-73971424D02*
X83234640Y-72971424D01*
X83615593Y-72971424D02*
X84234640Y-72971424D01*
X84234640Y-72971424D02*
X83901307Y-73352376D01*
X83901307Y-73352376D02*
X84044164Y-73352376D01*
X84044164Y-73352376D02*
X84139402Y-73399995D01*
X84139402Y-73399995D02*
X84187021Y-73447614D01*
X84187021Y-73447614D02*
X84234640Y-73542852D01*
X84234640Y-73542852D02*
X84234640Y-73780947D01*
X84234640Y-73780947D02*
X84187021Y-73876185D01*
X84187021Y-73876185D02*
X84139402Y-73923805D01*
X84139402Y-73923805D02*
X84044164Y-73971424D01*
X84044164Y-73971424D02*
X83758450Y-73971424D01*
X83758450Y-73971424D02*
X83663212Y-73923805D01*
X83663212Y-73923805D02*
X83615593Y-73876185D01*
X89782260Y-90423805D02*
X89925117Y-90471424D01*
X89925117Y-90471424D02*
X90163212Y-90471424D01*
X90163212Y-90471424D02*
X90258450Y-90423805D01*
X90258450Y-90423805D02*
X90306069Y-90376185D01*
X90306069Y-90376185D02*
X90353688Y-90280947D01*
X90353688Y-90280947D02*
X90353688Y-90185709D01*
X90353688Y-90185709D02*
X90306069Y-90090471D01*
X90306069Y-90090471D02*
X90258450Y-90042852D01*
X90258450Y-90042852D02*
X90163212Y-89995233D01*
X90163212Y-89995233D02*
X89972736Y-89947614D01*
X89972736Y-89947614D02*
X89877498Y-89899995D01*
X89877498Y-89899995D02*
X89829879Y-89852376D01*
X89829879Y-89852376D02*
X89782260Y-89757138D01*
X89782260Y-89757138D02*
X89782260Y-89661900D01*
X89782260Y-89661900D02*
X89829879Y-89566662D01*
X89829879Y-89566662D02*
X89877498Y-89519043D01*
X89877498Y-89519043D02*
X89972736Y-89471424D01*
X89972736Y-89471424D02*
X90210831Y-89471424D01*
X90210831Y-89471424D02*
X90353688Y-89519043D01*
X90782260Y-89947614D02*
X91115593Y-89947614D01*
X91258450Y-90471424D02*
X90782260Y-90471424D01*
X90782260Y-90471424D02*
X90782260Y-89471424D01*
X90782260Y-89471424D02*
X91258450Y-89471424D01*
X92258450Y-90471424D02*
X91925117Y-89995233D01*
X91687022Y-90471424D02*
X91687022Y-89471424D01*
X91687022Y-89471424D02*
X92067974Y-89471424D01*
X92067974Y-89471424D02*
X92163212Y-89519043D01*
X92163212Y-89519043D02*
X92210831Y-89566662D01*
X92210831Y-89566662D02*
X92258450Y-89661900D01*
X92258450Y-89661900D02*
X92258450Y-89804757D01*
X92258450Y-89804757D02*
X92210831Y-89899995D01*
X92210831Y-89899995D02*
X92163212Y-89947614D01*
X92163212Y-89947614D02*
X92067974Y-89995233D01*
X92067974Y-89995233D02*
X91687022Y-89995233D01*
X92544165Y-89471424D02*
X92877498Y-90471424D01*
X92877498Y-90471424D02*
X93210831Y-89471424D01*
X93734641Y-89471424D02*
X93925117Y-89471424D01*
X93925117Y-89471424D02*
X94020355Y-89519043D01*
X94020355Y-89519043D02*
X94115593Y-89614281D01*
X94115593Y-89614281D02*
X94163212Y-89804757D01*
X94163212Y-89804757D02*
X94163212Y-90138090D01*
X94163212Y-90138090D02*
X94115593Y-90328566D01*
X94115593Y-90328566D02*
X94020355Y-90423805D01*
X94020355Y-90423805D02*
X93925117Y-90471424D01*
X93925117Y-90471424D02*
X93734641Y-90471424D01*
X93734641Y-90471424D02*
X93639403Y-90423805D01*
X93639403Y-90423805D02*
X93544165Y-90328566D01*
X93544165Y-90328566D02*
X93496546Y-90138090D01*
X93496546Y-90138090D02*
X93496546Y-89804757D01*
X93496546Y-89804757D02*
X93544165Y-89614281D01*
X93544165Y-89614281D02*
X93639403Y-89519043D01*
X93639403Y-89519043D02*
X93734641Y-89471424D01*
X95115593Y-90471424D02*
X94544165Y-90471424D01*
X94829879Y-90471424D02*
X94829879Y-89471424D01*
X94829879Y-89471424D02*
X94734641Y-89614281D01*
X94734641Y-89614281D02*
X94639403Y-89709519D01*
X94639403Y-89709519D02*
X94544165Y-89757138D01*
X81282260Y-68685709D02*
X81758450Y-68685709D01*
X81187022Y-68971424D02*
X81520355Y-67971424D01*
X81520355Y-67971424D02*
X81853688Y-68971424D01*
X82187022Y-68971424D02*
X82187022Y-67971424D01*
X82663212Y-68971424D02*
X82663212Y-67971424D01*
X82663212Y-67971424D02*
X83234640Y-68971424D01*
X83234640Y-68971424D02*
X83234640Y-67971424D01*
X84234640Y-68971424D02*
X83663212Y-68971424D01*
X83948926Y-68971424D02*
X83948926Y-67971424D01*
X83948926Y-67971424D02*
X83853688Y-68114281D01*
X83853688Y-68114281D02*
X83758450Y-68209519D01*
X83758450Y-68209519D02*
X83663212Y-68257138D01*
X89782260Y-85173805D02*
X89925117Y-85221424D01*
X89925117Y-85221424D02*
X90163212Y-85221424D01*
X90163212Y-85221424D02*
X90258450Y-85173805D01*
X90258450Y-85173805D02*
X90306069Y-85126185D01*
X90306069Y-85126185D02*
X90353688Y-85030947D01*
X90353688Y-85030947D02*
X90353688Y-84935709D01*
X90353688Y-84935709D02*
X90306069Y-84840471D01*
X90306069Y-84840471D02*
X90258450Y-84792852D01*
X90258450Y-84792852D02*
X90163212Y-84745233D01*
X90163212Y-84745233D02*
X89972736Y-84697614D01*
X89972736Y-84697614D02*
X89877498Y-84649995D01*
X89877498Y-84649995D02*
X89829879Y-84602376D01*
X89829879Y-84602376D02*
X89782260Y-84507138D01*
X89782260Y-84507138D02*
X89782260Y-84411900D01*
X89782260Y-84411900D02*
X89829879Y-84316662D01*
X89829879Y-84316662D02*
X89877498Y-84269043D01*
X89877498Y-84269043D02*
X89972736Y-84221424D01*
X89972736Y-84221424D02*
X90210831Y-84221424D01*
X90210831Y-84221424D02*
X90353688Y-84269043D01*
X90782260Y-84697614D02*
X91115593Y-84697614D01*
X91258450Y-85221424D02*
X90782260Y-85221424D01*
X90782260Y-85221424D02*
X90782260Y-84221424D01*
X90782260Y-84221424D02*
X91258450Y-84221424D01*
X92258450Y-85221424D02*
X91925117Y-84745233D01*
X91687022Y-85221424D02*
X91687022Y-84221424D01*
X91687022Y-84221424D02*
X92067974Y-84221424D01*
X92067974Y-84221424D02*
X92163212Y-84269043D01*
X92163212Y-84269043D02*
X92210831Y-84316662D01*
X92210831Y-84316662D02*
X92258450Y-84411900D01*
X92258450Y-84411900D02*
X92258450Y-84554757D01*
X92258450Y-84554757D02*
X92210831Y-84649995D01*
X92210831Y-84649995D02*
X92163212Y-84697614D01*
X92163212Y-84697614D02*
X92067974Y-84745233D01*
X92067974Y-84745233D02*
X91687022Y-84745233D01*
X92544165Y-84221424D02*
X92877498Y-85221424D01*
X92877498Y-85221424D02*
X93210831Y-84221424D01*
X93734641Y-84221424D02*
X93925117Y-84221424D01*
X93925117Y-84221424D02*
X94020355Y-84269043D01*
X94020355Y-84269043D02*
X94115593Y-84364281D01*
X94115593Y-84364281D02*
X94163212Y-84554757D01*
X94163212Y-84554757D02*
X94163212Y-84888090D01*
X94163212Y-84888090D02*
X94115593Y-85078566D01*
X94115593Y-85078566D02*
X94020355Y-85173805D01*
X94020355Y-85173805D02*
X93925117Y-85221424D01*
X93925117Y-85221424D02*
X93734641Y-85221424D01*
X93734641Y-85221424D02*
X93639403Y-85173805D01*
X93639403Y-85173805D02*
X93544165Y-85078566D01*
X93544165Y-85078566D02*
X93496546Y-84888090D01*
X93496546Y-84888090D02*
X93496546Y-84554757D01*
X93496546Y-84554757D02*
X93544165Y-84364281D01*
X93544165Y-84364281D02*
X93639403Y-84269043D01*
X93639403Y-84269043D02*
X93734641Y-84221424D01*
X94496546Y-84221424D02*
X95115593Y-84221424D01*
X95115593Y-84221424D02*
X94782260Y-84602376D01*
X94782260Y-84602376D02*
X94925117Y-84602376D01*
X94925117Y-84602376D02*
X95020355Y-84649995D01*
X95020355Y-84649995D02*
X95067974Y-84697614D01*
X95067974Y-84697614D02*
X95115593Y-84792852D01*
X95115593Y-84792852D02*
X95115593Y-85030947D01*
X95115593Y-85030947D02*
X95067974Y-85126185D01*
X95067974Y-85126185D02*
X95020355Y-85173805D01*
X95020355Y-85173805D02*
X94925117Y-85221424D01*
X94925117Y-85221424D02*
X94639403Y-85221424D01*
X94639403Y-85221424D02*
X94544165Y-85173805D01*
X94544165Y-85173805D02*
X94496546Y-85126185D01*
D11*
X107307322Y-60083481D02*
X107307322Y-56083481D01*
X107307322Y-57988243D02*
X109593037Y-57988243D01*
X109593037Y-60083481D02*
X109593037Y-56083481D01*
X111497798Y-57988243D02*
X112831132Y-57988243D01*
X113402560Y-60083481D02*
X111497798Y-60083481D01*
X111497798Y-60083481D02*
X111497798Y-56083481D01*
X111497798Y-56083481D02*
X113402560Y-56083481D01*
X114926370Y-58940624D02*
X116831132Y-58940624D01*
X114545418Y-60083481D02*
X115878751Y-56083481D01*
X115878751Y-56083481D02*
X117212085Y-60083481D01*
X117973989Y-56083481D02*
X120259703Y-56083481D01*
X119116846Y-60083481D02*
X119116846Y-56083481D01*
X124450179Y-59893005D02*
X125021608Y-60083481D01*
X125021608Y-60083481D02*
X125973989Y-60083481D01*
X125973989Y-60083481D02*
X126354941Y-59893005D01*
X126354941Y-59893005D02*
X126545417Y-59702528D01*
X126545417Y-59702528D02*
X126735894Y-59321576D01*
X126735894Y-59321576D02*
X126735894Y-58940624D01*
X126735894Y-58940624D02*
X126545417Y-58559671D01*
X126545417Y-58559671D02*
X126354941Y-58369195D01*
X126354941Y-58369195D02*
X125973989Y-58178719D01*
X125973989Y-58178719D02*
X125212084Y-57988243D01*
X125212084Y-57988243D02*
X124831132Y-57797766D01*
X124831132Y-57797766D02*
X124640655Y-57607290D01*
X124640655Y-57607290D02*
X124450179Y-57226338D01*
X124450179Y-57226338D02*
X124450179Y-56845385D01*
X124450179Y-56845385D02*
X124640655Y-56464433D01*
X124640655Y-56464433D02*
X124831132Y-56273957D01*
X124831132Y-56273957D02*
X125212084Y-56083481D01*
X125212084Y-56083481D02*
X126164465Y-56083481D01*
X126164465Y-56083481D02*
X126735894Y-56273957D01*
X128450179Y-60083481D02*
X128450179Y-56083481D01*
X130354941Y-60083481D02*
X130354941Y-56083481D01*
X130354941Y-56083481D02*
X132640656Y-60083481D01*
X132640656Y-60083481D02*
X132640656Y-56083481D01*
X134545417Y-60083481D02*
X134545417Y-56083481D01*
X136831132Y-60083481D02*
X135116846Y-57797766D01*
X136831132Y-56083481D02*
X134545417Y-58369195D01*
X141402560Y-58940624D02*
X143307322Y-58940624D01*
X141021608Y-60083481D02*
X142354941Y-56083481D01*
X142354941Y-56083481D02*
X143688275Y-60083481D01*
X147307322Y-60083481D02*
X145973988Y-58178719D01*
X145021607Y-60083481D02*
X145021607Y-56083481D01*
X145021607Y-56083481D02*
X146545417Y-56083481D01*
X146545417Y-56083481D02*
X146926369Y-56273957D01*
X146926369Y-56273957D02*
X147116846Y-56464433D01*
X147116846Y-56464433D02*
X147307322Y-56845385D01*
X147307322Y-56845385D02*
X147307322Y-57416814D01*
X147307322Y-57416814D02*
X147116846Y-57797766D01*
X147116846Y-57797766D02*
X146926369Y-57988243D01*
X146926369Y-57988243D02*
X146545417Y-58178719D01*
X146545417Y-58178719D02*
X145021607Y-58178719D01*
X149021607Y-57988243D02*
X150354941Y-57988243D01*
X150926369Y-60083481D02*
X149021607Y-60083481D01*
X149021607Y-60083481D02*
X149021607Y-56083481D01*
X149021607Y-56083481D02*
X150926369Y-56083481D01*
X152450179Y-58940624D02*
X154354941Y-58940624D01*
X152069227Y-60083481D02*
X153402560Y-56083481D01*
X153402560Y-56083481D02*
X154735894Y-60083481D01*
D10*
X81282260Y-71185709D02*
X81758450Y-71185709D01*
X81187022Y-71471424D02*
X81520355Y-70471424D01*
X81520355Y-70471424D02*
X81853688Y-71471424D01*
X82187022Y-71471424D02*
X82187022Y-70471424D01*
X82663212Y-71471424D02*
X82663212Y-70471424D01*
X82663212Y-70471424D02*
X83234640Y-71471424D01*
X83234640Y-71471424D02*
X83234640Y-70471424D01*
X83663212Y-70566662D02*
X83710831Y-70519043D01*
X83710831Y-70519043D02*
X83806069Y-70471424D01*
X83806069Y-70471424D02*
X84044164Y-70471424D01*
X84044164Y-70471424D02*
X84139402Y-70519043D01*
X84139402Y-70519043D02*
X84187021Y-70566662D01*
X84187021Y-70566662D02*
X84234640Y-70661900D01*
X84234640Y-70661900D02*
X84234640Y-70757138D01*
X84234640Y-70757138D02*
X84187021Y-70899995D01*
X84187021Y-70899995D02*
X83615593Y-71471424D01*
X83615593Y-71471424D02*
X84234640Y-71471424D01*
X81282260Y-76185709D02*
X81758450Y-76185709D01*
X81187022Y-76471424D02*
X81520355Y-75471424D01*
X81520355Y-75471424D02*
X81853688Y-76471424D01*
X82187022Y-76471424D02*
X82187022Y-75471424D01*
X82663212Y-76471424D02*
X82663212Y-75471424D01*
X82663212Y-75471424D02*
X83234640Y-76471424D01*
X83234640Y-76471424D02*
X83234640Y-75471424D01*
X84139402Y-75804757D02*
X84139402Y-76471424D01*
X83901307Y-75423805D02*
X83663212Y-76138090D01*
X83663212Y-76138090D02*
X84282259Y-76138090D01*
X170148414Y-68973692D02*
X169672223Y-69307025D01*
X170148414Y-69545120D02*
X169148414Y-69545120D01*
X169148414Y-69545120D02*
X169148414Y-69164168D01*
X169148414Y-69164168D02*
X169196033Y-69068930D01*
X169196033Y-69068930D02*
X169243652Y-69021311D01*
X169243652Y-69021311D02*
X169338890Y-68973692D01*
X169338890Y-68973692D02*
X169481747Y-68973692D01*
X169481747Y-68973692D02*
X169576985Y-69021311D01*
X169576985Y-69021311D02*
X169624604Y-69068930D01*
X169624604Y-69068930D02*
X169672223Y-69164168D01*
X169672223Y-69164168D02*
X169672223Y-69545120D01*
X169624604Y-68545120D02*
X169624604Y-68211787D01*
X170148414Y-68068930D02*
X170148414Y-68545120D01*
X170148414Y-68545120D02*
X169148414Y-68545120D01*
X169148414Y-68545120D02*
X169148414Y-68068930D01*
X169148414Y-67783215D02*
X170148414Y-67449882D01*
X170148414Y-67449882D02*
X169148414Y-67116549D01*
X169148414Y-66592739D02*
X169148414Y-66497501D01*
X169148414Y-66497501D02*
X169196033Y-66402263D01*
X169196033Y-66402263D02*
X169243652Y-66354644D01*
X169243652Y-66354644D02*
X169338890Y-66307025D01*
X169338890Y-66307025D02*
X169529366Y-66259406D01*
X169529366Y-66259406D02*
X169767461Y-66259406D01*
X169767461Y-66259406D02*
X169957937Y-66307025D01*
X169957937Y-66307025D02*
X170053175Y-66354644D01*
X170053175Y-66354644D02*
X170100795Y-66402263D01*
X170100795Y-66402263D02*
X170148414Y-66497501D01*
X170148414Y-66497501D02*
X170148414Y-66592739D01*
X170148414Y-66592739D02*
X170100795Y-66687977D01*
X170100795Y-66687977D02*
X170053175Y-66735596D01*
X170053175Y-66735596D02*
X169957937Y-66783215D01*
X169957937Y-66783215D02*
X169767461Y-66830834D01*
X169767461Y-66830834D02*
X169529366Y-66830834D01*
X169529366Y-66830834D02*
X169338890Y-66783215D01*
X169338890Y-66783215D02*
X169243652Y-66735596D01*
X169243652Y-66735596D02*
X169196033Y-66687977D01*
X169196033Y-66687977D02*
X169148414Y-66592739D01*
X169148414Y-65640358D02*
X169148414Y-65545120D01*
X169148414Y-65545120D02*
X169196033Y-65449882D01*
X169196033Y-65449882D02*
X169243652Y-65402263D01*
X169243652Y-65402263D02*
X169338890Y-65354644D01*
X169338890Y-65354644D02*
X169529366Y-65307025D01*
X169529366Y-65307025D02*
X169767461Y-65307025D01*
X169767461Y-65307025D02*
X169957937Y-65354644D01*
X169957937Y-65354644D02*
X170053175Y-65402263D01*
X170053175Y-65402263D02*
X170100795Y-65449882D01*
X170100795Y-65449882D02*
X170148414Y-65545120D01*
X170148414Y-65545120D02*
X170148414Y-65640358D01*
X170148414Y-65640358D02*
X170100795Y-65735596D01*
X170100795Y-65735596D02*
X170053175Y-65783215D01*
X170053175Y-65783215D02*
X169957937Y-65830834D01*
X169957937Y-65830834D02*
X169767461Y-65878453D01*
X169767461Y-65878453D02*
X169529366Y-65878453D01*
X169529366Y-65878453D02*
X169338890Y-65830834D01*
X169338890Y-65830834D02*
X169243652Y-65783215D01*
X169243652Y-65783215D02*
X169196033Y-65735596D01*
X169196033Y-65735596D02*
X169148414Y-65640358D01*
X89782260Y-82673805D02*
X89925117Y-82721424D01*
X89925117Y-82721424D02*
X90163212Y-82721424D01*
X90163212Y-82721424D02*
X90258450Y-82673805D01*
X90258450Y-82673805D02*
X90306069Y-82626185D01*
X90306069Y-82626185D02*
X90353688Y-82530947D01*
X90353688Y-82530947D02*
X90353688Y-82435709D01*
X90353688Y-82435709D02*
X90306069Y-82340471D01*
X90306069Y-82340471D02*
X90258450Y-82292852D01*
X90258450Y-82292852D02*
X90163212Y-82245233D01*
X90163212Y-82245233D02*
X89972736Y-82197614D01*
X89972736Y-82197614D02*
X89877498Y-82149995D01*
X89877498Y-82149995D02*
X89829879Y-82102376D01*
X89829879Y-82102376D02*
X89782260Y-82007138D01*
X89782260Y-82007138D02*
X89782260Y-81911900D01*
X89782260Y-81911900D02*
X89829879Y-81816662D01*
X89829879Y-81816662D02*
X89877498Y-81769043D01*
X89877498Y-81769043D02*
X89972736Y-81721424D01*
X89972736Y-81721424D02*
X90210831Y-81721424D01*
X90210831Y-81721424D02*
X90353688Y-81769043D01*
X90782260Y-82197614D02*
X91115593Y-82197614D01*
X91258450Y-82721424D02*
X90782260Y-82721424D01*
X90782260Y-82721424D02*
X90782260Y-81721424D01*
X90782260Y-81721424D02*
X91258450Y-81721424D01*
X92258450Y-82721424D02*
X91925117Y-82245233D01*
X91687022Y-82721424D02*
X91687022Y-81721424D01*
X91687022Y-81721424D02*
X92067974Y-81721424D01*
X92067974Y-81721424D02*
X92163212Y-81769043D01*
X92163212Y-81769043D02*
X92210831Y-81816662D01*
X92210831Y-81816662D02*
X92258450Y-81911900D01*
X92258450Y-81911900D02*
X92258450Y-82054757D01*
X92258450Y-82054757D02*
X92210831Y-82149995D01*
X92210831Y-82149995D02*
X92163212Y-82197614D01*
X92163212Y-82197614D02*
X92067974Y-82245233D01*
X92067974Y-82245233D02*
X91687022Y-82245233D01*
X92544165Y-81721424D02*
X92877498Y-82721424D01*
X92877498Y-82721424D02*
X93210831Y-81721424D01*
X93734641Y-81721424D02*
X93925117Y-81721424D01*
X93925117Y-81721424D02*
X94020355Y-81769043D01*
X94020355Y-81769043D02*
X94115593Y-81864281D01*
X94115593Y-81864281D02*
X94163212Y-82054757D01*
X94163212Y-82054757D02*
X94163212Y-82388090D01*
X94163212Y-82388090D02*
X94115593Y-82578566D01*
X94115593Y-82578566D02*
X94020355Y-82673805D01*
X94020355Y-82673805D02*
X93925117Y-82721424D01*
X93925117Y-82721424D02*
X93734641Y-82721424D01*
X93734641Y-82721424D02*
X93639403Y-82673805D01*
X93639403Y-82673805D02*
X93544165Y-82578566D01*
X93544165Y-82578566D02*
X93496546Y-82388090D01*
X93496546Y-82388090D02*
X93496546Y-82054757D01*
X93496546Y-82054757D02*
X93544165Y-81864281D01*
X93544165Y-81864281D02*
X93639403Y-81769043D01*
X93639403Y-81769043D02*
X93734641Y-81721424D01*
X95020355Y-82054757D02*
X95020355Y-82721424D01*
X94782260Y-81673805D02*
X94544165Y-82388090D01*
X94544165Y-82388090D02*
X95163212Y-82388090D01*
D11*
X107307322Y-143583481D02*
X107307322Y-139583481D01*
X107307322Y-141488243D02*
X109593037Y-141488243D01*
X109593037Y-143583481D02*
X109593037Y-139583481D01*
X111497798Y-141488243D02*
X112831132Y-141488243D01*
X113402560Y-143583481D02*
X111497798Y-143583481D01*
X111497798Y-143583481D02*
X111497798Y-139583481D01*
X111497798Y-139583481D02*
X113402560Y-139583481D01*
X114926370Y-142440624D02*
X116831132Y-142440624D01*
X114545418Y-143583481D02*
X115878751Y-139583481D01*
X115878751Y-139583481D02*
X117212085Y-143583481D01*
X117973989Y-139583481D02*
X120259703Y-139583481D01*
X119116846Y-143583481D02*
X119116846Y-139583481D01*
X124450179Y-143393005D02*
X125021608Y-143583481D01*
X125021608Y-143583481D02*
X125973989Y-143583481D01*
X125973989Y-143583481D02*
X126354941Y-143393005D01*
X126354941Y-143393005D02*
X126545417Y-143202528D01*
X126545417Y-143202528D02*
X126735894Y-142821576D01*
X126735894Y-142821576D02*
X126735894Y-142440624D01*
X126735894Y-142440624D02*
X126545417Y-142059671D01*
X126545417Y-142059671D02*
X126354941Y-141869195D01*
X126354941Y-141869195D02*
X125973989Y-141678719D01*
X125973989Y-141678719D02*
X125212084Y-141488243D01*
X125212084Y-141488243D02*
X124831132Y-141297766D01*
X124831132Y-141297766D02*
X124640655Y-141107290D01*
X124640655Y-141107290D02*
X124450179Y-140726338D01*
X124450179Y-140726338D02*
X124450179Y-140345385D01*
X124450179Y-140345385D02*
X124640655Y-139964433D01*
X124640655Y-139964433D02*
X124831132Y-139773957D01*
X124831132Y-139773957D02*
X125212084Y-139583481D01*
X125212084Y-139583481D02*
X126164465Y-139583481D01*
X126164465Y-139583481D02*
X126735894Y-139773957D01*
X128450179Y-143583481D02*
X128450179Y-139583481D01*
X130354941Y-143583481D02*
X130354941Y-139583481D01*
X130354941Y-139583481D02*
X132640656Y-143583481D01*
X132640656Y-143583481D02*
X132640656Y-139583481D01*
X134545417Y-143583481D02*
X134545417Y-139583481D01*
X136831132Y-143583481D02*
X135116846Y-141297766D01*
X136831132Y-139583481D02*
X134545417Y-141869195D01*
X141402560Y-142440624D02*
X143307322Y-142440624D01*
X141021608Y-143583481D02*
X142354941Y-139583481D01*
X142354941Y-139583481D02*
X143688275Y-143583481D01*
X147307322Y-143583481D02*
X145973988Y-141678719D01*
X145021607Y-143583481D02*
X145021607Y-139583481D01*
X145021607Y-139583481D02*
X146545417Y-139583481D01*
X146545417Y-139583481D02*
X146926369Y-139773957D01*
X146926369Y-139773957D02*
X147116846Y-139964433D01*
X147116846Y-139964433D02*
X147307322Y-140345385D01*
X147307322Y-140345385D02*
X147307322Y-140916814D01*
X147307322Y-140916814D02*
X147116846Y-141297766D01*
X147116846Y-141297766D02*
X146926369Y-141488243D01*
X146926369Y-141488243D02*
X146545417Y-141678719D01*
X146545417Y-141678719D02*
X145021607Y-141678719D01*
X149021607Y-141488243D02*
X150354941Y-141488243D01*
X150926369Y-143583481D02*
X149021607Y-143583481D01*
X149021607Y-143583481D02*
X149021607Y-139583481D01*
X149021607Y-139583481D02*
X150926369Y-139583481D01*
X152450179Y-142440624D02*
X154354941Y-142440624D01*
X152069227Y-143583481D02*
X153402560Y-139583481D01*
X153402560Y-139583481D02*
X154735894Y-143583481D01*
D10*
X89782260Y-87673805D02*
X89925117Y-87721424D01*
X89925117Y-87721424D02*
X90163212Y-87721424D01*
X90163212Y-87721424D02*
X90258450Y-87673805D01*
X90258450Y-87673805D02*
X90306069Y-87626185D01*
X90306069Y-87626185D02*
X90353688Y-87530947D01*
X90353688Y-87530947D02*
X90353688Y-87435709D01*
X90353688Y-87435709D02*
X90306069Y-87340471D01*
X90306069Y-87340471D02*
X90258450Y-87292852D01*
X90258450Y-87292852D02*
X90163212Y-87245233D01*
X90163212Y-87245233D02*
X89972736Y-87197614D01*
X89972736Y-87197614D02*
X89877498Y-87149995D01*
X89877498Y-87149995D02*
X89829879Y-87102376D01*
X89829879Y-87102376D02*
X89782260Y-87007138D01*
X89782260Y-87007138D02*
X89782260Y-86911900D01*
X89782260Y-86911900D02*
X89829879Y-86816662D01*
X89829879Y-86816662D02*
X89877498Y-86769043D01*
X89877498Y-86769043D02*
X89972736Y-86721424D01*
X89972736Y-86721424D02*
X90210831Y-86721424D01*
X90210831Y-86721424D02*
X90353688Y-86769043D01*
X90782260Y-87197614D02*
X91115593Y-87197614D01*
X91258450Y-87721424D02*
X90782260Y-87721424D01*
X90782260Y-87721424D02*
X90782260Y-86721424D01*
X90782260Y-86721424D02*
X91258450Y-86721424D01*
X92258450Y-87721424D02*
X91925117Y-87245233D01*
X91687022Y-87721424D02*
X91687022Y-86721424D01*
X91687022Y-86721424D02*
X92067974Y-86721424D01*
X92067974Y-86721424D02*
X92163212Y-86769043D01*
X92163212Y-86769043D02*
X92210831Y-86816662D01*
X92210831Y-86816662D02*
X92258450Y-86911900D01*
X92258450Y-86911900D02*
X92258450Y-87054757D01*
X92258450Y-87054757D02*
X92210831Y-87149995D01*
X92210831Y-87149995D02*
X92163212Y-87197614D01*
X92163212Y-87197614D02*
X92067974Y-87245233D01*
X92067974Y-87245233D02*
X91687022Y-87245233D01*
X92544165Y-86721424D02*
X92877498Y-87721424D01*
X92877498Y-87721424D02*
X93210831Y-86721424D01*
X93734641Y-86721424D02*
X93925117Y-86721424D01*
X93925117Y-86721424D02*
X94020355Y-86769043D01*
X94020355Y-86769043D02*
X94115593Y-86864281D01*
X94115593Y-86864281D02*
X94163212Y-87054757D01*
X94163212Y-87054757D02*
X94163212Y-87388090D01*
X94163212Y-87388090D02*
X94115593Y-87578566D01*
X94115593Y-87578566D02*
X94020355Y-87673805D01*
X94020355Y-87673805D02*
X93925117Y-87721424D01*
X93925117Y-87721424D02*
X93734641Y-87721424D01*
X93734641Y-87721424D02*
X93639403Y-87673805D01*
X93639403Y-87673805D02*
X93544165Y-87578566D01*
X93544165Y-87578566D02*
X93496546Y-87388090D01*
X93496546Y-87388090D02*
X93496546Y-87054757D01*
X93496546Y-87054757D02*
X93544165Y-86864281D01*
X93544165Y-86864281D02*
X93639403Y-86769043D01*
X93639403Y-86769043D02*
X93734641Y-86721424D01*
X94544165Y-86816662D02*
X94591784Y-86769043D01*
X94591784Y-86769043D02*
X94687022Y-86721424D01*
X94687022Y-86721424D02*
X94925117Y-86721424D01*
X94925117Y-86721424D02*
X95020355Y-86769043D01*
X95020355Y-86769043D02*
X95067974Y-86816662D01*
X95067974Y-86816662D02*
X95115593Y-86911900D01*
X95115593Y-86911900D02*
X95115593Y-87007138D01*
X95115593Y-87007138D02*
X95067974Y-87149995D01*
X95067974Y-87149995D02*
X94496546Y-87721424D01*
X94496546Y-87721424D02*
X95115593Y-87721424D01*
D12*
X114954819Y-106526000D02*
X114478628Y-106859333D01*
X114954819Y-107097428D02*
X113954819Y-107097428D01*
X113954819Y-107097428D02*
X113954819Y-106716476D01*
X113954819Y-106716476D02*
X114002438Y-106621238D01*
X114002438Y-106621238D02*
X114050057Y-106573619D01*
X114050057Y-106573619D02*
X114145295Y-106526000D01*
X114145295Y-106526000D02*
X114288152Y-106526000D01*
X114288152Y-106526000D02*
X114383390Y-106573619D01*
X114383390Y-106573619D02*
X114431009Y-106621238D01*
X114431009Y-106621238D02*
X114478628Y-106716476D01*
X114478628Y-106716476D02*
X114478628Y-107097428D01*
X114288152Y-105668857D02*
X114954819Y-105668857D01*
X114288152Y-106097428D02*
X114811961Y-106097428D01*
X114811961Y-106097428D02*
X114907200Y-106049809D01*
X114907200Y-106049809D02*
X114954819Y-105954571D01*
X114954819Y-105954571D02*
X114954819Y-105811714D01*
X114954819Y-105811714D02*
X114907200Y-105716476D01*
X114907200Y-105716476D02*
X114859580Y-105668857D01*
X114288152Y-105287904D02*
X114954819Y-105049809D01*
X114954819Y-105049809D02*
X114288152Y-104811714D01*
X114050057Y-104478380D02*
X114002438Y-104430761D01*
X114002438Y-104430761D02*
X113954819Y-104335523D01*
X113954819Y-104335523D02*
X113954819Y-104097428D01*
X113954819Y-104097428D02*
X114002438Y-104002190D01*
X114002438Y-104002190D02*
X114050057Y-103954571D01*
X114050057Y-103954571D02*
X114145295Y-103906952D01*
X114145295Y-103906952D02*
X114240533Y-103906952D01*
X114240533Y-103906952D02*
X114383390Y-103954571D01*
X114383390Y-103954571D02*
X114954819Y-104525999D01*
X114954819Y-104525999D02*
X114954819Y-103906952D01*
X164704819Y-106715671D02*
X164704819Y-107191861D01*
X164704819Y-107191861D02*
X163704819Y-107191861D01*
X163704819Y-106477575D02*
X163704819Y-105858528D01*
X163704819Y-105858528D02*
X164085771Y-106191861D01*
X164085771Y-106191861D02*
X164085771Y-106049004D01*
X164085771Y-106049004D02*
X164133390Y-105953766D01*
X164133390Y-105953766D02*
X164181009Y-105906147D01*
X164181009Y-105906147D02*
X164276247Y-105858528D01*
X164276247Y-105858528D02*
X164514342Y-105858528D01*
X164514342Y-105858528D02*
X164609580Y-105906147D01*
X164609580Y-105906147D02*
X164657200Y-105953766D01*
X164657200Y-105953766D02*
X164704819Y-106049004D01*
X164704819Y-106049004D02*
X164704819Y-106334718D01*
X164704819Y-106334718D02*
X164657200Y-106429956D01*
X164657200Y-106429956D02*
X164609580Y-106477575D01*
X117361066Y-117553824D02*
X117027733Y-117077633D01*
X116789638Y-117553824D02*
X116789638Y-116553824D01*
X116789638Y-116553824D02*
X117170590Y-116553824D01*
X117170590Y-116553824D02*
X117265828Y-116601443D01*
X117265828Y-116601443D02*
X117313447Y-116649062D01*
X117313447Y-116649062D02*
X117361066Y-116744300D01*
X117361066Y-116744300D02*
X117361066Y-116887157D01*
X117361066Y-116887157D02*
X117313447Y-116982395D01*
X117313447Y-116982395D02*
X117265828Y-117030014D01*
X117265828Y-117030014D02*
X117170590Y-117077633D01*
X117170590Y-117077633D02*
X116789638Y-117077633D01*
X117789638Y-117553824D02*
X117789638Y-116887157D01*
X117789638Y-116553824D02*
X117742019Y-116601443D01*
X117742019Y-116601443D02*
X117789638Y-116649062D01*
X117789638Y-116649062D02*
X117837257Y-116601443D01*
X117837257Y-116601443D02*
X117789638Y-116553824D01*
X117789638Y-116553824D02*
X117789638Y-116649062D01*
X118408685Y-117553824D02*
X118313447Y-117506205D01*
X118313447Y-117506205D02*
X118265828Y-117410966D01*
X118265828Y-117410966D02*
X118265828Y-116553824D01*
X118789638Y-117553824D02*
X118789638Y-116887157D01*
X118789638Y-116553824D02*
X118742019Y-116601443D01*
X118742019Y-116601443D02*
X118789638Y-116649062D01*
X118789638Y-116649062D02*
X118837257Y-116601443D01*
X118837257Y-116601443D02*
X118789638Y-116553824D01*
X118789638Y-116553824D02*
X118789638Y-116649062D01*
X119265828Y-117553824D02*
X119265828Y-116887157D01*
X119265828Y-116982395D02*
X119313447Y-116934776D01*
X119313447Y-116934776D02*
X119408685Y-116887157D01*
X119408685Y-116887157D02*
X119551542Y-116887157D01*
X119551542Y-116887157D02*
X119646780Y-116934776D01*
X119646780Y-116934776D02*
X119694399Y-117030014D01*
X119694399Y-117030014D02*
X119694399Y-117553824D01*
X119694399Y-117030014D02*
X119742018Y-116934776D01*
X119742018Y-116934776D02*
X119837256Y-116887157D01*
X119837256Y-116887157D02*
X119980113Y-116887157D01*
X119980113Y-116887157D02*
X120075352Y-116934776D01*
X120075352Y-116934776D02*
X120122971Y-117030014D01*
X120122971Y-117030014D02*
X120122971Y-117553824D01*
X121122970Y-117553824D02*
X120551542Y-117553824D01*
X120837256Y-117553824D02*
X120837256Y-116553824D01*
X120837256Y-116553824D02*
X120742018Y-116696681D01*
X120742018Y-116696681D02*
X120646780Y-116791919D01*
X120646780Y-116791919D02*
X120551542Y-116839538D01*
X82488095Y-133204819D02*
X83059523Y-133204819D01*
X82773809Y-134204819D02*
X82773809Y-133204819D01*
X83392857Y-134204819D02*
X83392857Y-133204819D01*
X83392857Y-133204819D02*
X83773809Y-133204819D01*
X83773809Y-133204819D02*
X83869047Y-133252438D01*
X83869047Y-133252438D02*
X83916666Y-133300057D01*
X83916666Y-133300057D02*
X83964285Y-133395295D01*
X83964285Y-133395295D02*
X83964285Y-133538152D01*
X83964285Y-133538152D02*
X83916666Y-133633390D01*
X83916666Y-133633390D02*
X83869047Y-133681009D01*
X83869047Y-133681009D02*
X83773809Y-133728628D01*
X83773809Y-133728628D02*
X83392857Y-133728628D01*
X84345238Y-133300057D02*
X84392857Y-133252438D01*
X84392857Y-133252438D02*
X84488095Y-133204819D01*
X84488095Y-133204819D02*
X84726190Y-133204819D01*
X84726190Y-133204819D02*
X84821428Y-133252438D01*
X84821428Y-133252438D02*
X84869047Y-133300057D01*
X84869047Y-133300057D02*
X84916666Y-133395295D01*
X84916666Y-133395295D02*
X84916666Y-133490533D01*
X84916666Y-133490533D02*
X84869047Y-133633390D01*
X84869047Y-133633390D02*
X84297619Y-134204819D01*
X84297619Y-134204819D02*
X84916666Y-134204819D01*
X97834328Y-75028585D02*
X97786709Y-75076205D01*
X97786709Y-75076205D02*
X97643852Y-75123824D01*
X97643852Y-75123824D02*
X97548614Y-75123824D01*
X97548614Y-75123824D02*
X97405757Y-75076205D01*
X97405757Y-75076205D02*
X97310519Y-74980966D01*
X97310519Y-74980966D02*
X97262900Y-74885728D01*
X97262900Y-74885728D02*
X97215281Y-74695252D01*
X97215281Y-74695252D02*
X97215281Y-74552395D01*
X97215281Y-74552395D02*
X97262900Y-74361919D01*
X97262900Y-74361919D02*
X97310519Y-74266681D01*
X97310519Y-74266681D02*
X97405757Y-74171443D01*
X97405757Y-74171443D02*
X97548614Y-74123824D01*
X97548614Y-74123824D02*
X97643852Y-74123824D01*
X97643852Y-74123824D02*
X97786709Y-74171443D01*
X97786709Y-74171443D02*
X97834328Y-74219062D01*
X98786709Y-75123824D02*
X98215281Y-75123824D01*
X98500995Y-75123824D02*
X98500995Y-74123824D01*
X98500995Y-74123824D02*
X98405757Y-74266681D01*
X98405757Y-74266681D02*
X98310519Y-74361919D01*
X98310519Y-74361919D02*
X98215281Y-74409538D01*
X149318861Y-92704819D02*
X149318861Y-93419104D01*
X149318861Y-93419104D02*
X149271242Y-93561961D01*
X149271242Y-93561961D02*
X149176004Y-93657200D01*
X149176004Y-93657200D02*
X149033147Y-93704819D01*
X149033147Y-93704819D02*
X148937909Y-93704819D01*
X149795052Y-93704819D02*
X149795052Y-92704819D01*
X149795052Y-92704819D02*
X150176004Y-92704819D01*
X150176004Y-92704819D02*
X150271242Y-92752438D01*
X150271242Y-92752438D02*
X150318861Y-92800057D01*
X150318861Y-92800057D02*
X150366480Y-92895295D01*
X150366480Y-92895295D02*
X150366480Y-93038152D01*
X150366480Y-93038152D02*
X150318861Y-93133390D01*
X150318861Y-93133390D02*
X150271242Y-93181009D01*
X150271242Y-93181009D02*
X150176004Y-93228628D01*
X150176004Y-93228628D02*
X149795052Y-93228628D01*
X151318861Y-93704819D02*
X150747433Y-93704819D01*
X151033147Y-93704819D02*
X151033147Y-92704819D01*
X151033147Y-92704819D02*
X150937909Y-92847676D01*
X150937909Y-92847676D02*
X150842671Y-92942914D01*
X150842671Y-92942914D02*
X150747433Y-92990533D01*
X158357142Y-82954819D02*
X158023809Y-82478628D01*
X157785714Y-82954819D02*
X157785714Y-81954819D01*
X157785714Y-81954819D02*
X158166666Y-81954819D01*
X158166666Y-81954819D02*
X158261904Y-82002438D01*
X158261904Y-82002438D02*
X158309523Y-82050057D01*
X158309523Y-82050057D02*
X158357142Y-82145295D01*
X158357142Y-82145295D02*
X158357142Y-82288152D01*
X158357142Y-82288152D02*
X158309523Y-82383390D01*
X158309523Y-82383390D02*
X158261904Y-82431009D01*
X158261904Y-82431009D02*
X158166666Y-82478628D01*
X158166666Y-82478628D02*
X157785714Y-82478628D01*
X159309523Y-82954819D02*
X158738095Y-82954819D01*
X159023809Y-82954819D02*
X159023809Y-81954819D01*
X159023809Y-81954819D02*
X158928571Y-82097676D01*
X158928571Y-82097676D02*
X158833333Y-82192914D01*
X158833333Y-82192914D02*
X158738095Y-82240533D01*
X160261904Y-82954819D02*
X159690476Y-82954819D01*
X159976190Y-82954819D02*
X159976190Y-81954819D01*
X159976190Y-81954819D02*
X159880952Y-82097676D01*
X159880952Y-82097676D02*
X159785714Y-82192914D01*
X159785714Y-82192914D02*
X159690476Y-82240533D01*
D10*
X148568575Y-98610910D02*
X147759052Y-98610910D01*
X147759052Y-98610910D02*
X147663814Y-98658529D01*
X147663814Y-98658529D02*
X147616195Y-98706148D01*
X147616195Y-98706148D02*
X147568575Y-98801386D01*
X147568575Y-98801386D02*
X147568575Y-98991862D01*
X147568575Y-98991862D02*
X147616195Y-99087100D01*
X147616195Y-99087100D02*
X147663814Y-99134719D01*
X147663814Y-99134719D02*
X147759052Y-99182338D01*
X147759052Y-99182338D02*
X148568575Y-99182338D01*
X147568575Y-100182338D02*
X147568575Y-99610910D01*
X147568575Y-99896624D02*
X148568575Y-99896624D01*
X148568575Y-99896624D02*
X148425718Y-99801386D01*
X148425718Y-99801386D02*
X148330480Y-99706148D01*
X148330480Y-99706148D02*
X148282861Y-99610910D01*
X148568575Y-101087100D02*
X148568575Y-100610910D01*
X148568575Y-100610910D02*
X148092385Y-100563291D01*
X148092385Y-100563291D02*
X148140004Y-100610910D01*
X148140004Y-100610910D02*
X148187623Y-100706148D01*
X148187623Y-100706148D02*
X148187623Y-100944243D01*
X148187623Y-100944243D02*
X148140004Y-101039481D01*
X148140004Y-101039481D02*
X148092385Y-101087100D01*
X148092385Y-101087100D02*
X147997147Y-101134719D01*
X147997147Y-101134719D02*
X147759052Y-101134719D01*
X147759052Y-101134719D02*
X147663814Y-101087100D01*
X147663814Y-101087100D02*
X147616195Y-101039481D01*
X147616195Y-101039481D02*
X147568575Y-100944243D01*
X147568575Y-100944243D02*
X147568575Y-100706148D01*
X147568575Y-100706148D02*
X147616195Y-100610910D01*
X147616195Y-100610910D02*
X147663814Y-100563291D01*
X158679099Y-97779079D02*
X158679099Y-98312413D01*
X158679099Y-98312413D02*
X157879099Y-97779079D01*
X157879099Y-97779079D02*
X157879099Y-98312413D01*
D13*
X146840435Y-101009170D02*
X147340435Y-101009170D01*
X146840435Y-101247265D02*
X147340435Y-101247265D01*
X147340435Y-101247265D02*
X146840435Y-101532979D01*
X146840435Y-101532979D02*
X147340435Y-101532979D01*
X147340435Y-101699647D02*
X147340435Y-101985361D01*
X146840435Y-101842504D02*
X147340435Y-101842504D01*
D14*
X146846595Y-96958089D02*
X146827547Y-97015232D01*
X146827547Y-97015232D02*
X146827547Y-97110470D01*
X146827547Y-97110470D02*
X146846595Y-97148565D01*
X146846595Y-97148565D02*
X146865642Y-97167613D01*
X146865642Y-97167613D02*
X146903737Y-97186660D01*
X146903737Y-97186660D02*
X146941833Y-97186660D01*
X146941833Y-97186660D02*
X146979928Y-97167613D01*
X146979928Y-97167613D02*
X146998975Y-97148565D01*
X146998975Y-97148565D02*
X147018023Y-97110470D01*
X147018023Y-97110470D02*
X147037071Y-97034279D01*
X147037071Y-97034279D02*
X147056118Y-96996184D01*
X147056118Y-96996184D02*
X147075166Y-96977137D01*
X147075166Y-96977137D02*
X147113261Y-96958089D01*
X147113261Y-96958089D02*
X147151356Y-96958089D01*
X147151356Y-96958089D02*
X147189452Y-96977137D01*
X147189452Y-96977137D02*
X147208499Y-96996184D01*
X147208499Y-96996184D02*
X147227547Y-97034279D01*
X147227547Y-97034279D02*
X147227547Y-97129518D01*
X147227547Y-97129518D02*
X147208499Y-97186660D01*
X146827547Y-97358089D02*
X147227547Y-97358089D01*
X147227547Y-97358089D02*
X147227547Y-97453327D01*
X147227547Y-97453327D02*
X147208499Y-97510470D01*
X147208499Y-97510470D02*
X147170404Y-97548565D01*
X147170404Y-97548565D02*
X147132309Y-97567612D01*
X147132309Y-97567612D02*
X147056118Y-97586660D01*
X147056118Y-97586660D02*
X146998975Y-97586660D01*
X146998975Y-97586660D02*
X146922785Y-97567612D01*
X146922785Y-97567612D02*
X146884690Y-97548565D01*
X146884690Y-97548565D02*
X146846595Y-97510470D01*
X146846595Y-97510470D02*
X146827547Y-97453327D01*
X146827547Y-97453327D02*
X146827547Y-97358089D01*
X146941833Y-97739041D02*
X146941833Y-97929517D01*
X146827547Y-97700946D02*
X147227547Y-97834279D01*
X147227547Y-97834279D02*
X146827547Y-97967612D01*
X147246595Y-98386660D02*
X146732309Y-98043803D01*
X147227547Y-98462851D02*
X147227547Y-98691422D01*
X146827547Y-98577136D02*
X147227547Y-98577136D01*
D13*
X145090435Y-100544884D02*
X145328530Y-100378218D01*
X145090435Y-100259170D02*
X145590435Y-100259170D01*
X145590435Y-100259170D02*
X145590435Y-100449646D01*
X145590435Y-100449646D02*
X145566625Y-100497265D01*
X145566625Y-100497265D02*
X145542816Y-100521075D01*
X145542816Y-100521075D02*
X145495197Y-100544884D01*
X145495197Y-100544884D02*
X145423768Y-100544884D01*
X145423768Y-100544884D02*
X145376149Y-100521075D01*
X145376149Y-100521075D02*
X145352340Y-100497265D01*
X145352340Y-100497265D02*
X145328530Y-100449646D01*
X145328530Y-100449646D02*
X145328530Y-100259170D01*
X145352340Y-100759170D02*
X145352340Y-100925837D01*
X145090435Y-100997265D02*
X145090435Y-100759170D01*
X145090435Y-100759170D02*
X145590435Y-100759170D01*
X145590435Y-100759170D02*
X145590435Y-100997265D01*
X145114245Y-101187742D02*
X145090435Y-101259170D01*
X145090435Y-101259170D02*
X145090435Y-101378218D01*
X145090435Y-101378218D02*
X145114245Y-101425837D01*
X145114245Y-101425837D02*
X145138054Y-101449646D01*
X145138054Y-101449646D02*
X145185673Y-101473456D01*
X145185673Y-101473456D02*
X145233292Y-101473456D01*
X145233292Y-101473456D02*
X145280911Y-101449646D01*
X145280911Y-101449646D02*
X145304721Y-101425837D01*
X145304721Y-101425837D02*
X145328530Y-101378218D01*
X145328530Y-101378218D02*
X145352340Y-101282980D01*
X145352340Y-101282980D02*
X145376149Y-101235361D01*
X145376149Y-101235361D02*
X145399959Y-101211551D01*
X145399959Y-101211551D02*
X145447578Y-101187742D01*
X145447578Y-101187742D02*
X145495197Y-101187742D01*
X145495197Y-101187742D02*
X145542816Y-101211551D01*
X145542816Y-101211551D02*
X145566625Y-101235361D01*
X145566625Y-101235361D02*
X145590435Y-101282980D01*
X145590435Y-101282980D02*
X145590435Y-101402027D01*
X145590435Y-101402027D02*
X145566625Y-101473456D01*
X145352340Y-101687741D02*
X145352340Y-101854408D01*
X145090435Y-101925836D02*
X145090435Y-101687741D01*
X145090435Y-101687741D02*
X145590435Y-101687741D01*
X145590435Y-101687741D02*
X145590435Y-101925836D01*
X145590435Y-102068694D02*
X145590435Y-102354408D01*
X145090435Y-102211551D02*
X145590435Y-102211551D01*
D10*
X163179099Y-96779079D02*
X162379099Y-97312413D01*
X163179099Y-97312413D02*
X162379099Y-96779079D01*
D13*
X152340435Y-100437742D02*
X151840435Y-100604408D01*
X151840435Y-100604408D02*
X152340435Y-100771075D01*
X152340435Y-101032979D02*
X152340435Y-101128217D01*
X152340435Y-101128217D02*
X152316625Y-101175836D01*
X152316625Y-101175836D02*
X152269006Y-101223455D01*
X152269006Y-101223455D02*
X152173768Y-101247265D01*
X152173768Y-101247265D02*
X152007102Y-101247265D01*
X152007102Y-101247265D02*
X151911864Y-101223455D01*
X151911864Y-101223455D02*
X151864245Y-101175836D01*
X151864245Y-101175836D02*
X151840435Y-101128217D01*
X151840435Y-101128217D02*
X151840435Y-101032979D01*
X151840435Y-101032979D02*
X151864245Y-100985360D01*
X151864245Y-100985360D02*
X151911864Y-100937741D01*
X151911864Y-100937741D02*
X152007102Y-100913932D01*
X152007102Y-100913932D02*
X152173768Y-100913932D01*
X152173768Y-100913932D02*
X152269006Y-100937741D01*
X152269006Y-100937741D02*
X152316625Y-100985360D01*
X152316625Y-100985360D02*
X152340435Y-101032979D01*
X152340435Y-101461551D02*
X151935673Y-101461551D01*
X151935673Y-101461551D02*
X151888054Y-101485361D01*
X151888054Y-101485361D02*
X151864245Y-101509170D01*
X151864245Y-101509170D02*
X151840435Y-101556789D01*
X151840435Y-101556789D02*
X151840435Y-101652027D01*
X151840435Y-101652027D02*
X151864245Y-101699646D01*
X151864245Y-101699646D02*
X151888054Y-101723456D01*
X151888054Y-101723456D02*
X151935673Y-101747265D01*
X151935673Y-101747265D02*
X152340435Y-101747265D01*
X152340435Y-101913933D02*
X152340435Y-102199647D01*
X151840435Y-102056790D02*
X152340435Y-102056790D01*
D10*
X159260052Y-94007651D02*
X158879099Y-94007651D01*
X159679099Y-93740984D02*
X159260052Y-94007651D01*
X159260052Y-94007651D02*
X159679099Y-94274317D01*
D13*
X149816625Y-97271075D02*
X149840435Y-97223456D01*
X149840435Y-97223456D02*
X149840435Y-97152027D01*
X149840435Y-97152027D02*
X149816625Y-97080599D01*
X149816625Y-97080599D02*
X149769006Y-97032980D01*
X149769006Y-97032980D02*
X149721387Y-97009170D01*
X149721387Y-97009170D02*
X149626149Y-96985361D01*
X149626149Y-96985361D02*
X149554721Y-96985361D01*
X149554721Y-96985361D02*
X149459483Y-97009170D01*
X149459483Y-97009170D02*
X149411864Y-97032980D01*
X149411864Y-97032980D02*
X149364245Y-97080599D01*
X149364245Y-97080599D02*
X149340435Y-97152027D01*
X149340435Y-97152027D02*
X149340435Y-97199646D01*
X149340435Y-97199646D02*
X149364245Y-97271075D01*
X149364245Y-97271075D02*
X149388054Y-97294884D01*
X149388054Y-97294884D02*
X149554721Y-97294884D01*
X149554721Y-97294884D02*
X149554721Y-97199646D01*
X149340435Y-97509170D02*
X149840435Y-97509170D01*
X149840435Y-97509170D02*
X149340435Y-97794884D01*
X149340435Y-97794884D02*
X149840435Y-97794884D01*
X149340435Y-98032980D02*
X149840435Y-98032980D01*
X149840435Y-98032980D02*
X149840435Y-98152028D01*
X149840435Y-98152028D02*
X149816625Y-98223456D01*
X149816625Y-98223456D02*
X149769006Y-98271075D01*
X149769006Y-98271075D02*
X149721387Y-98294885D01*
X149721387Y-98294885D02*
X149626149Y-98318694D01*
X149626149Y-98318694D02*
X149554721Y-98318694D01*
X149554721Y-98318694D02*
X149459483Y-98294885D01*
X149459483Y-98294885D02*
X149411864Y-98271075D01*
X149411864Y-98271075D02*
X149364245Y-98223456D01*
X149364245Y-98223456D02*
X149340435Y-98152028D01*
X149340435Y-98152028D02*
X149340435Y-98032980D01*
D14*
X145096595Y-96958089D02*
X145077547Y-97015232D01*
X145077547Y-97015232D02*
X145077547Y-97110470D01*
X145077547Y-97110470D02*
X145096595Y-97148565D01*
X145096595Y-97148565D02*
X145115642Y-97167613D01*
X145115642Y-97167613D02*
X145153737Y-97186660D01*
X145153737Y-97186660D02*
X145191833Y-97186660D01*
X145191833Y-97186660D02*
X145229928Y-97167613D01*
X145229928Y-97167613D02*
X145248975Y-97148565D01*
X145248975Y-97148565D02*
X145268023Y-97110470D01*
X145268023Y-97110470D02*
X145287071Y-97034279D01*
X145287071Y-97034279D02*
X145306118Y-96996184D01*
X145306118Y-96996184D02*
X145325166Y-96977137D01*
X145325166Y-96977137D02*
X145363261Y-96958089D01*
X145363261Y-96958089D02*
X145401356Y-96958089D01*
X145401356Y-96958089D02*
X145439452Y-96977137D01*
X145439452Y-96977137D02*
X145458499Y-96996184D01*
X145458499Y-96996184D02*
X145477547Y-97034279D01*
X145477547Y-97034279D02*
X145477547Y-97129518D01*
X145477547Y-97129518D02*
X145458499Y-97186660D01*
X145115642Y-97586660D02*
X145096595Y-97567612D01*
X145096595Y-97567612D02*
X145077547Y-97510470D01*
X145077547Y-97510470D02*
X145077547Y-97472374D01*
X145077547Y-97472374D02*
X145096595Y-97415231D01*
X145096595Y-97415231D02*
X145134690Y-97377136D01*
X145134690Y-97377136D02*
X145172785Y-97358089D01*
X145172785Y-97358089D02*
X145248975Y-97339041D01*
X145248975Y-97339041D02*
X145306118Y-97339041D01*
X145306118Y-97339041D02*
X145382309Y-97358089D01*
X145382309Y-97358089D02*
X145420404Y-97377136D01*
X145420404Y-97377136D02*
X145458499Y-97415231D01*
X145458499Y-97415231D02*
X145477547Y-97472374D01*
X145477547Y-97472374D02*
X145477547Y-97510470D01*
X145477547Y-97510470D02*
X145458499Y-97567612D01*
X145458499Y-97567612D02*
X145439452Y-97586660D01*
X145077547Y-97948565D02*
X145077547Y-97758089D01*
X145077547Y-97758089D02*
X145477547Y-97758089D01*
X145496595Y-98367613D02*
X144982309Y-98024756D01*
X145077547Y-98729518D02*
X145268023Y-98596185D01*
X145077547Y-98500947D02*
X145477547Y-98500947D01*
X145477547Y-98500947D02*
X145477547Y-98653328D01*
X145477547Y-98653328D02*
X145458499Y-98691423D01*
X145458499Y-98691423D02*
X145439452Y-98710470D01*
X145439452Y-98710470D02*
X145401356Y-98729518D01*
X145401356Y-98729518D02*
X145344214Y-98729518D01*
X145344214Y-98729518D02*
X145306118Y-98710470D01*
X145306118Y-98710470D02*
X145287071Y-98691423D01*
X145287071Y-98691423D02*
X145268023Y-98653328D01*
X145268023Y-98653328D02*
X145268023Y-98500947D01*
D13*
X149816625Y-101021075D02*
X149840435Y-100973456D01*
X149840435Y-100973456D02*
X149840435Y-100902027D01*
X149840435Y-100902027D02*
X149816625Y-100830599D01*
X149816625Y-100830599D02*
X149769006Y-100782980D01*
X149769006Y-100782980D02*
X149721387Y-100759170D01*
X149721387Y-100759170D02*
X149626149Y-100735361D01*
X149626149Y-100735361D02*
X149554721Y-100735361D01*
X149554721Y-100735361D02*
X149459483Y-100759170D01*
X149459483Y-100759170D02*
X149411864Y-100782980D01*
X149411864Y-100782980D02*
X149364245Y-100830599D01*
X149364245Y-100830599D02*
X149340435Y-100902027D01*
X149340435Y-100902027D02*
X149340435Y-100949646D01*
X149340435Y-100949646D02*
X149364245Y-101021075D01*
X149364245Y-101021075D02*
X149388054Y-101044884D01*
X149388054Y-101044884D02*
X149554721Y-101044884D01*
X149554721Y-101044884D02*
X149554721Y-100949646D01*
X149340435Y-101259170D02*
X149840435Y-101259170D01*
X149840435Y-101259170D02*
X149340435Y-101544884D01*
X149340435Y-101544884D02*
X149840435Y-101544884D01*
X149340435Y-101782980D02*
X149840435Y-101782980D01*
X149840435Y-101782980D02*
X149840435Y-101902028D01*
X149840435Y-101902028D02*
X149816625Y-101973456D01*
X149816625Y-101973456D02*
X149769006Y-102021075D01*
X149769006Y-102021075D02*
X149721387Y-102044885D01*
X149721387Y-102044885D02*
X149626149Y-102068694D01*
X149626149Y-102068694D02*
X149554721Y-102068694D01*
X149554721Y-102068694D02*
X149459483Y-102044885D01*
X149459483Y-102044885D02*
X149411864Y-102021075D01*
X149411864Y-102021075D02*
X149364245Y-101973456D01*
X149364245Y-101973456D02*
X149340435Y-101902028D01*
X149340435Y-101902028D02*
X149340435Y-101782980D01*
X152340435Y-97187742D02*
X151840435Y-97354408D01*
X151840435Y-97354408D02*
X152340435Y-97521075D01*
X151840435Y-97687741D02*
X152340435Y-97687741D01*
X151840435Y-97925836D02*
X152340435Y-97925836D01*
X152340435Y-97925836D02*
X151840435Y-98211550D01*
X151840435Y-98211550D02*
X152340435Y-98211550D01*
D12*
X157416666Y-120204819D02*
X157416666Y-120919104D01*
X157416666Y-120919104D02*
X157369047Y-121061961D01*
X157369047Y-121061961D02*
X157273809Y-121157200D01*
X157273809Y-121157200D02*
X157130952Y-121204819D01*
X157130952Y-121204819D02*
X157035714Y-121204819D01*
X157797619Y-120204819D02*
X158464285Y-120204819D01*
X158464285Y-120204819D02*
X158035714Y-121204819D01*
X161230814Y-135265671D02*
X160754623Y-135599004D01*
X161230814Y-135837099D02*
X160230814Y-135837099D01*
X160230814Y-135837099D02*
X160230814Y-135456147D01*
X160230814Y-135456147D02*
X160278433Y-135360909D01*
X160278433Y-135360909D02*
X160326052Y-135313290D01*
X160326052Y-135313290D02*
X160421290Y-135265671D01*
X160421290Y-135265671D02*
X160564147Y-135265671D01*
X160564147Y-135265671D02*
X160659385Y-135313290D01*
X160659385Y-135313290D02*
X160707004Y-135360909D01*
X160707004Y-135360909D02*
X160754623Y-135456147D01*
X160754623Y-135456147D02*
X160754623Y-135837099D01*
X160230814Y-134360909D02*
X160230814Y-134837099D01*
X160230814Y-134837099D02*
X160707004Y-134884718D01*
X160707004Y-134884718D02*
X160659385Y-134837099D01*
X160659385Y-134837099D02*
X160611766Y-134741861D01*
X160611766Y-134741861D02*
X160611766Y-134503766D01*
X160611766Y-134503766D02*
X160659385Y-134408528D01*
X160659385Y-134408528D02*
X160707004Y-134360909D01*
X160707004Y-134360909D02*
X160802242Y-134313290D01*
X160802242Y-134313290D02*
X161040337Y-134313290D01*
X161040337Y-134313290D02*
X161135575Y-134360909D01*
X161135575Y-134360909D02*
X161183195Y-134408528D01*
X161183195Y-134408528D02*
X161230814Y-134503766D01*
X161230814Y-134503766D02*
X161230814Y-134741861D01*
X161230814Y-134741861D02*
X161183195Y-134837099D01*
X161183195Y-134837099D02*
X161135575Y-134884718D01*
X99716471Y-103448824D02*
X99716471Y-102448824D01*
X99716471Y-102448824D02*
X100049804Y-103163109D01*
X100049804Y-103163109D02*
X100383137Y-102448824D01*
X100383137Y-102448824D02*
X100383137Y-103448824D01*
X100811709Y-102544062D02*
X100859328Y-102496443D01*
X100859328Y-102496443D02*
X100954566Y-102448824D01*
X100954566Y-102448824D02*
X101192661Y-102448824D01*
X101192661Y-102448824D02*
X101287899Y-102496443D01*
X101287899Y-102496443D02*
X101335518Y-102544062D01*
X101335518Y-102544062D02*
X101383137Y-102639300D01*
X101383137Y-102639300D02*
X101383137Y-102734538D01*
X101383137Y-102734538D02*
X101335518Y-102877395D01*
X101335518Y-102877395D02*
X100764090Y-103448824D01*
X100764090Y-103448824D02*
X101383137Y-103448824D01*
X104980814Y-108913519D02*
X104504623Y-109246852D01*
X104980814Y-109484947D02*
X103980814Y-109484947D01*
X103980814Y-109484947D02*
X103980814Y-109103995D01*
X103980814Y-109103995D02*
X104028433Y-109008757D01*
X104028433Y-109008757D02*
X104076052Y-108961138D01*
X104076052Y-108961138D02*
X104171290Y-108913519D01*
X104171290Y-108913519D02*
X104314147Y-108913519D01*
X104314147Y-108913519D02*
X104409385Y-108961138D01*
X104409385Y-108961138D02*
X104457004Y-109008757D01*
X104457004Y-109008757D02*
X104504623Y-109103995D01*
X104504623Y-109103995D02*
X104504623Y-109484947D01*
X104933195Y-108056376D02*
X104980814Y-108151614D01*
X104980814Y-108151614D02*
X104980814Y-108342090D01*
X104980814Y-108342090D02*
X104933195Y-108437328D01*
X104933195Y-108437328D02*
X104885575Y-108484947D01*
X104885575Y-108484947D02*
X104790337Y-108532566D01*
X104790337Y-108532566D02*
X104504623Y-108532566D01*
X104504623Y-108532566D02*
X104409385Y-108484947D01*
X104409385Y-108484947D02*
X104361766Y-108437328D01*
X104361766Y-108437328D02*
X104314147Y-108342090D01*
X104314147Y-108342090D02*
X104314147Y-108151614D01*
X104314147Y-108151614D02*
X104361766Y-108056376D01*
X104980814Y-107103995D02*
X104980814Y-107675423D01*
X104980814Y-107389709D02*
X103980814Y-107389709D01*
X103980814Y-107389709D02*
X104123671Y-107484947D01*
X104123671Y-107484947D02*
X104218909Y-107580185D01*
X104218909Y-107580185D02*
X104266528Y-107675423D01*
X85264090Y-53353824D02*
X85264090Y-52353824D01*
X85264090Y-52830014D02*
X85835518Y-52830014D01*
X85835518Y-53353824D02*
X85835518Y-52353824D01*
X86835518Y-53353824D02*
X86264090Y-53353824D01*
X86549804Y-53353824D02*
X86549804Y-52353824D01*
X86549804Y-52353824D02*
X86454566Y-52496681D01*
X86454566Y-52496681D02*
X86359328Y-52591919D01*
X86359328Y-52591919D02*
X86264090Y-52639538D01*
D10*
X154738095Y-120207419D02*
X154738095Y-121016942D01*
X154738095Y-121016942D02*
X154785714Y-121112180D01*
X154785714Y-121112180D02*
X154833333Y-121159800D01*
X154833333Y-121159800D02*
X154928571Y-121207419D01*
X154928571Y-121207419D02*
X155119047Y-121207419D01*
X155119047Y-121207419D02*
X155214285Y-121159800D01*
X155214285Y-121159800D02*
X155261904Y-121112180D01*
X155261904Y-121112180D02*
X155309523Y-121016942D01*
X155309523Y-121016942D02*
X155309523Y-120207419D01*
X155738095Y-120302657D02*
X155785714Y-120255038D01*
X155785714Y-120255038D02*
X155880952Y-120207419D01*
X155880952Y-120207419D02*
X156119047Y-120207419D01*
X156119047Y-120207419D02*
X156214285Y-120255038D01*
X156214285Y-120255038D02*
X156261904Y-120302657D01*
X156261904Y-120302657D02*
X156309523Y-120397895D01*
X156309523Y-120397895D02*
X156309523Y-120493133D01*
X156309523Y-120493133D02*
X156261904Y-120635990D01*
X156261904Y-120635990D02*
X155690476Y-121207419D01*
X155690476Y-121207419D02*
X156309523Y-121207419D01*
D12*
X110730814Y-117003767D02*
X110254623Y-117337100D01*
X110730814Y-117575195D02*
X109730814Y-117575195D01*
X109730814Y-117575195D02*
X109730814Y-117194243D01*
X109730814Y-117194243D02*
X109778433Y-117099005D01*
X109778433Y-117099005D02*
X109826052Y-117051386D01*
X109826052Y-117051386D02*
X109921290Y-117003767D01*
X109921290Y-117003767D02*
X110064147Y-117003767D01*
X110064147Y-117003767D02*
X110159385Y-117051386D01*
X110159385Y-117051386D02*
X110207004Y-117099005D01*
X110207004Y-117099005D02*
X110254623Y-117194243D01*
X110254623Y-117194243D02*
X110254623Y-117575195D01*
X110064147Y-116718052D02*
X110064147Y-116337100D01*
X110730814Y-116575195D02*
X109873671Y-116575195D01*
X109873671Y-116575195D02*
X109778433Y-116527576D01*
X109778433Y-116527576D02*
X109730814Y-116432338D01*
X109730814Y-116432338D02*
X109730814Y-116337100D01*
X110730814Y-116003766D02*
X109730814Y-116003766D01*
X110111766Y-116003766D02*
X110064147Y-115908528D01*
X110064147Y-115908528D02*
X110064147Y-115718052D01*
X110064147Y-115718052D02*
X110111766Y-115622814D01*
X110111766Y-115622814D02*
X110159385Y-115575195D01*
X110159385Y-115575195D02*
X110254623Y-115527576D01*
X110254623Y-115527576D02*
X110540337Y-115527576D01*
X110540337Y-115527576D02*
X110635575Y-115575195D01*
X110635575Y-115575195D02*
X110683195Y-115622814D01*
X110683195Y-115622814D02*
X110730814Y-115718052D01*
X110730814Y-115718052D02*
X110730814Y-115908528D01*
X110730814Y-115908528D02*
X110683195Y-116003766D01*
X110730814Y-114575195D02*
X110730814Y-115146623D01*
X110730814Y-114860909D02*
X109730814Y-114860909D01*
X109730814Y-114860909D02*
X109873671Y-114956147D01*
X109873671Y-114956147D02*
X109968909Y-115051385D01*
X109968909Y-115051385D02*
X110016528Y-115146623D01*
X156730814Y-135265671D02*
X156254623Y-135599004D01*
X156730814Y-135837099D02*
X155730814Y-135837099D01*
X155730814Y-135837099D02*
X155730814Y-135456147D01*
X155730814Y-135456147D02*
X155778433Y-135360909D01*
X155778433Y-135360909D02*
X155826052Y-135313290D01*
X155826052Y-135313290D02*
X155921290Y-135265671D01*
X155921290Y-135265671D02*
X156064147Y-135265671D01*
X156064147Y-135265671D02*
X156159385Y-135313290D01*
X156159385Y-135313290D02*
X156207004Y-135360909D01*
X156207004Y-135360909D02*
X156254623Y-135456147D01*
X156254623Y-135456147D02*
X156254623Y-135837099D01*
X156064147Y-134408528D02*
X156730814Y-134408528D01*
X155683195Y-134646623D02*
X156397480Y-134884718D01*
X156397480Y-134884718D02*
X156397480Y-134265671D01*
X136800814Y-81337099D02*
X137610337Y-81337099D01*
X137610337Y-81337099D02*
X137705575Y-81289480D01*
X137705575Y-81289480D02*
X137753195Y-81241861D01*
X137753195Y-81241861D02*
X137800814Y-81146623D01*
X137800814Y-81146623D02*
X137800814Y-80956147D01*
X137800814Y-80956147D02*
X137753195Y-80860909D01*
X137753195Y-80860909D02*
X137705575Y-80813290D01*
X137705575Y-80813290D02*
X137610337Y-80765671D01*
X137610337Y-80765671D02*
X136800814Y-80765671D01*
X137800814Y-79765671D02*
X137800814Y-80337099D01*
X137800814Y-80051385D02*
X136800814Y-80051385D01*
X136800814Y-80051385D02*
X136943671Y-80146623D01*
X136943671Y-80146623D02*
X137038909Y-80241861D01*
X137038909Y-80241861D02*
X137086528Y-80337099D01*
X137134147Y-78908528D02*
X137800814Y-78908528D01*
X136753195Y-79146623D02*
X137467480Y-79384718D01*
X137467480Y-79384718D02*
X137467480Y-78765671D01*
X104180756Y-128149062D02*
X104085518Y-128101443D01*
X104085518Y-128101443D02*
X103990280Y-128006205D01*
X103990280Y-128006205D02*
X103847423Y-127863347D01*
X103847423Y-127863347D02*
X103752185Y-127815728D01*
X103752185Y-127815728D02*
X103656947Y-127815728D01*
X103704566Y-128053824D02*
X103609328Y-128006205D01*
X103609328Y-128006205D02*
X103514090Y-127910966D01*
X103514090Y-127910966D02*
X103466471Y-127720490D01*
X103466471Y-127720490D02*
X103466471Y-127387157D01*
X103466471Y-127387157D02*
X103514090Y-127196681D01*
X103514090Y-127196681D02*
X103609328Y-127101443D01*
X103609328Y-127101443D02*
X103704566Y-127053824D01*
X103704566Y-127053824D02*
X103895042Y-127053824D01*
X103895042Y-127053824D02*
X103990280Y-127101443D01*
X103990280Y-127101443D02*
X104085518Y-127196681D01*
X104085518Y-127196681D02*
X104133137Y-127387157D01*
X104133137Y-127387157D02*
X104133137Y-127720490D01*
X104133137Y-127720490D02*
X104085518Y-127910966D01*
X104085518Y-127910966D02*
X103990280Y-128006205D01*
X103990280Y-128006205D02*
X103895042Y-128053824D01*
X103895042Y-128053824D02*
X103704566Y-128053824D01*
X105085518Y-128053824D02*
X104514090Y-128053824D01*
X104799804Y-128053824D02*
X104799804Y-127053824D01*
X104799804Y-127053824D02*
X104704566Y-127196681D01*
X104704566Y-127196681D02*
X104609328Y-127291919D01*
X104609328Y-127291919D02*
X104514090Y-127339538D01*
X158633137Y-67553824D02*
X158299804Y-67077633D01*
X158061709Y-67553824D02*
X158061709Y-66553824D01*
X158061709Y-66553824D02*
X158442661Y-66553824D01*
X158442661Y-66553824D02*
X158537899Y-66601443D01*
X158537899Y-66601443D02*
X158585518Y-66649062D01*
X158585518Y-66649062D02*
X158633137Y-66744300D01*
X158633137Y-66744300D02*
X158633137Y-66887157D01*
X158633137Y-66887157D02*
X158585518Y-66982395D01*
X158585518Y-66982395D02*
X158537899Y-67030014D01*
X158537899Y-67030014D02*
X158442661Y-67077633D01*
X158442661Y-67077633D02*
X158061709Y-67077633D01*
X159585518Y-67553824D02*
X159014090Y-67553824D01*
X159299804Y-67553824D02*
X159299804Y-66553824D01*
X159299804Y-66553824D02*
X159204566Y-66696681D01*
X159204566Y-66696681D02*
X159109328Y-66791919D01*
X159109328Y-66791919D02*
X159014090Y-66839538D01*
X160156947Y-66982395D02*
X160061709Y-66934776D01*
X160061709Y-66934776D02*
X160014090Y-66887157D01*
X160014090Y-66887157D02*
X159966471Y-66791919D01*
X159966471Y-66791919D02*
X159966471Y-66744300D01*
X159966471Y-66744300D02*
X160014090Y-66649062D01*
X160014090Y-66649062D02*
X160061709Y-66601443D01*
X160061709Y-66601443D02*
X160156947Y-66553824D01*
X160156947Y-66553824D02*
X160347423Y-66553824D01*
X160347423Y-66553824D02*
X160442661Y-66601443D01*
X160442661Y-66601443D02*
X160490280Y-66649062D01*
X160490280Y-66649062D02*
X160537899Y-66744300D01*
X160537899Y-66744300D02*
X160537899Y-66791919D01*
X160537899Y-66791919D02*
X160490280Y-66887157D01*
X160490280Y-66887157D02*
X160442661Y-66934776D01*
X160442661Y-66934776D02*
X160347423Y-66982395D01*
X160347423Y-66982395D02*
X160156947Y-66982395D01*
X160156947Y-66982395D02*
X160061709Y-67030014D01*
X160061709Y-67030014D02*
X160014090Y-67077633D01*
X160014090Y-67077633D02*
X159966471Y-67172871D01*
X159966471Y-67172871D02*
X159966471Y-67363347D01*
X159966471Y-67363347D02*
X160014090Y-67458585D01*
X160014090Y-67458585D02*
X160061709Y-67506205D01*
X160061709Y-67506205D02*
X160156947Y-67553824D01*
X160156947Y-67553824D02*
X160347423Y-67553824D01*
X160347423Y-67553824D02*
X160442661Y-67506205D01*
X160442661Y-67506205D02*
X160490280Y-67458585D01*
X160490280Y-67458585D02*
X160537899Y-67363347D01*
X160537899Y-67363347D02*
X160537899Y-67172871D01*
X160537899Y-67172871D02*
X160490280Y-67077633D01*
X160490280Y-67077633D02*
X160442661Y-67030014D01*
X160442661Y-67030014D02*
X160347423Y-66982395D01*
X175264090Y-53353824D02*
X175264090Y-52353824D01*
X175264090Y-52830014D02*
X175835518Y-52830014D01*
X175835518Y-53353824D02*
X175835518Y-52353824D01*
X176740280Y-52687157D02*
X176740280Y-53353824D01*
X176502185Y-52306205D02*
X176264090Y-53020490D01*
X176264090Y-53020490D02*
X176883137Y-53020490D01*
X154454819Y-80559523D02*
X155454819Y-79892857D01*
X154454819Y-79892857D02*
X155454819Y-80559523D01*
X155454819Y-78988095D02*
X155454819Y-79559523D01*
X155454819Y-79273809D02*
X154454819Y-79273809D01*
X154454819Y-79273809D02*
X154597676Y-79369047D01*
X154597676Y-79369047D02*
X154692914Y-79464285D01*
X154692914Y-79464285D02*
X154740533Y-79559523D01*
X159738095Y-118454819D02*
X159738095Y-119264342D01*
X159738095Y-119264342D02*
X159785714Y-119359580D01*
X159785714Y-119359580D02*
X159833333Y-119407200D01*
X159833333Y-119407200D02*
X159928571Y-119454819D01*
X159928571Y-119454819D02*
X160119047Y-119454819D01*
X160119047Y-119454819D02*
X160214285Y-119407200D01*
X160214285Y-119407200D02*
X160261904Y-119359580D01*
X160261904Y-119359580D02*
X160309523Y-119264342D01*
X160309523Y-119264342D02*
X160309523Y-118454819D01*
X161309523Y-119454819D02*
X160738095Y-119454819D01*
X161023809Y-119454819D02*
X161023809Y-118454819D01*
X161023809Y-118454819D02*
X160928571Y-118597676D01*
X160928571Y-118597676D02*
X160833333Y-118692914D01*
X160833333Y-118692914D02*
X160738095Y-118740533D01*
X86466666Y-112346324D02*
X86466666Y-113060609D01*
X86466666Y-113060609D02*
X86419047Y-113203466D01*
X86419047Y-113203466D02*
X86323809Y-113298705D01*
X86323809Y-113298705D02*
X86180952Y-113346324D01*
X86180952Y-113346324D02*
X86085714Y-113346324D01*
X86990476Y-113346324D02*
X87180952Y-113346324D01*
X87180952Y-113346324D02*
X87276190Y-113298705D01*
X87276190Y-113298705D02*
X87323809Y-113251085D01*
X87323809Y-113251085D02*
X87419047Y-113108228D01*
X87419047Y-113108228D02*
X87466666Y-112917752D01*
X87466666Y-112917752D02*
X87466666Y-112536800D01*
X87466666Y-112536800D02*
X87419047Y-112441562D01*
X87419047Y-112441562D02*
X87371428Y-112393943D01*
X87371428Y-112393943D02*
X87276190Y-112346324D01*
X87276190Y-112346324D02*
X87085714Y-112346324D01*
X87085714Y-112346324D02*
X86990476Y-112393943D01*
X86990476Y-112393943D02*
X86942857Y-112441562D01*
X86942857Y-112441562D02*
X86895238Y-112536800D01*
X86895238Y-112536800D02*
X86895238Y-112774895D01*
X86895238Y-112774895D02*
X86942857Y-112870133D01*
X86942857Y-112870133D02*
X86990476Y-112917752D01*
X86990476Y-112917752D02*
X87085714Y-112965371D01*
X87085714Y-112965371D02*
X87276190Y-112965371D01*
X87276190Y-112965371D02*
X87371428Y-112917752D01*
X87371428Y-112917752D02*
X87419047Y-112870133D01*
X87419047Y-112870133D02*
X87466666Y-112774895D01*
X133942661Y-99303824D02*
X133942661Y-100018109D01*
X133942661Y-100018109D02*
X133895042Y-100160966D01*
X133895042Y-100160966D02*
X133799804Y-100256205D01*
X133799804Y-100256205D02*
X133656947Y-100303824D01*
X133656947Y-100303824D02*
X133561709Y-100303824D01*
X134418852Y-100303824D02*
X134418852Y-99303824D01*
X134418852Y-99303824D02*
X134799804Y-99303824D01*
X134799804Y-99303824D02*
X134895042Y-99351443D01*
X134895042Y-99351443D02*
X134942661Y-99399062D01*
X134942661Y-99399062D02*
X134990280Y-99494300D01*
X134990280Y-99494300D02*
X134990280Y-99637157D01*
X134990280Y-99637157D02*
X134942661Y-99732395D01*
X134942661Y-99732395D02*
X134895042Y-99780014D01*
X134895042Y-99780014D02*
X134799804Y-99827633D01*
X134799804Y-99827633D02*
X134418852Y-99827633D01*
X135371233Y-99399062D02*
X135418852Y-99351443D01*
X135418852Y-99351443D02*
X135514090Y-99303824D01*
X135514090Y-99303824D02*
X135752185Y-99303824D01*
X135752185Y-99303824D02*
X135847423Y-99351443D01*
X135847423Y-99351443D02*
X135895042Y-99399062D01*
X135895042Y-99399062D02*
X135942661Y-99494300D01*
X135942661Y-99494300D02*
X135942661Y-99589538D01*
X135942661Y-99589538D02*
X135895042Y-99732395D01*
X135895042Y-99732395D02*
X135323614Y-100303824D01*
X135323614Y-100303824D02*
X135942661Y-100303824D01*
X108480814Y-117003767D02*
X108004623Y-117337100D01*
X108480814Y-117575195D02*
X107480814Y-117575195D01*
X107480814Y-117575195D02*
X107480814Y-117194243D01*
X107480814Y-117194243D02*
X107528433Y-117099005D01*
X107528433Y-117099005D02*
X107576052Y-117051386D01*
X107576052Y-117051386D02*
X107671290Y-117003767D01*
X107671290Y-117003767D02*
X107814147Y-117003767D01*
X107814147Y-117003767D02*
X107909385Y-117051386D01*
X107909385Y-117051386D02*
X107957004Y-117099005D01*
X107957004Y-117099005D02*
X108004623Y-117194243D01*
X108004623Y-117194243D02*
X108004623Y-117575195D01*
X107814147Y-116718052D02*
X107814147Y-116337100D01*
X108480814Y-116575195D02*
X107623671Y-116575195D01*
X107623671Y-116575195D02*
X107528433Y-116527576D01*
X107528433Y-116527576D02*
X107480814Y-116432338D01*
X107480814Y-116432338D02*
X107480814Y-116337100D01*
X108480814Y-116003766D02*
X107480814Y-116003766D01*
X107861766Y-116003766D02*
X107814147Y-115908528D01*
X107814147Y-115908528D02*
X107814147Y-115718052D01*
X107814147Y-115718052D02*
X107861766Y-115622814D01*
X107861766Y-115622814D02*
X107909385Y-115575195D01*
X107909385Y-115575195D02*
X108004623Y-115527576D01*
X108004623Y-115527576D02*
X108290337Y-115527576D01*
X108290337Y-115527576D02*
X108385575Y-115575195D01*
X108385575Y-115575195D02*
X108433195Y-115622814D01*
X108433195Y-115622814D02*
X108480814Y-115718052D01*
X108480814Y-115718052D02*
X108480814Y-115908528D01*
X108480814Y-115908528D02*
X108433195Y-116003766D01*
X107576052Y-115146623D02*
X107528433Y-115099004D01*
X107528433Y-115099004D02*
X107480814Y-115003766D01*
X107480814Y-115003766D02*
X107480814Y-114765671D01*
X107480814Y-114765671D02*
X107528433Y-114670433D01*
X107528433Y-114670433D02*
X107576052Y-114622814D01*
X107576052Y-114622814D02*
X107671290Y-114575195D01*
X107671290Y-114575195D02*
X107766528Y-114575195D01*
X107766528Y-114575195D02*
X107909385Y-114622814D01*
X107909385Y-114622814D02*
X108480814Y-115194242D01*
X108480814Y-115194242D02*
X108480814Y-114575195D01*
X133942661Y-97553824D02*
X133942661Y-98268109D01*
X133942661Y-98268109D02*
X133895042Y-98410966D01*
X133895042Y-98410966D02*
X133799804Y-98506205D01*
X133799804Y-98506205D02*
X133656947Y-98553824D01*
X133656947Y-98553824D02*
X133561709Y-98553824D01*
X134418852Y-98553824D02*
X134418852Y-97553824D01*
X134418852Y-97553824D02*
X134799804Y-97553824D01*
X134799804Y-97553824D02*
X134895042Y-97601443D01*
X134895042Y-97601443D02*
X134942661Y-97649062D01*
X134942661Y-97649062D02*
X134990280Y-97744300D01*
X134990280Y-97744300D02*
X134990280Y-97887157D01*
X134990280Y-97887157D02*
X134942661Y-97982395D01*
X134942661Y-97982395D02*
X134895042Y-98030014D01*
X134895042Y-98030014D02*
X134799804Y-98077633D01*
X134799804Y-98077633D02*
X134418852Y-98077633D01*
X135323614Y-97553824D02*
X135942661Y-97553824D01*
X135942661Y-97553824D02*
X135609328Y-97934776D01*
X135609328Y-97934776D02*
X135752185Y-97934776D01*
X135752185Y-97934776D02*
X135847423Y-97982395D01*
X135847423Y-97982395D02*
X135895042Y-98030014D01*
X135895042Y-98030014D02*
X135942661Y-98125252D01*
X135942661Y-98125252D02*
X135942661Y-98363347D01*
X135942661Y-98363347D02*
X135895042Y-98458585D01*
X135895042Y-98458585D02*
X135847423Y-98506205D01*
X135847423Y-98506205D02*
X135752185Y-98553824D01*
X135752185Y-98553824D02*
X135466471Y-98553824D01*
X135466471Y-98553824D02*
X135371233Y-98506205D01*
X135371233Y-98506205D02*
X135323614Y-98458585D01*
X148609327Y-120053824D02*
X148609327Y-120768109D01*
X148609327Y-120768109D02*
X148561708Y-120910966D01*
X148561708Y-120910966D02*
X148466470Y-121006205D01*
X148466470Y-121006205D02*
X148323613Y-121053824D01*
X148323613Y-121053824D02*
X148228375Y-121053824D01*
X149561708Y-120053824D02*
X149085518Y-120053824D01*
X149085518Y-120053824D02*
X149037899Y-120530014D01*
X149037899Y-120530014D02*
X149085518Y-120482395D01*
X149085518Y-120482395D02*
X149180756Y-120434776D01*
X149180756Y-120434776D02*
X149418851Y-120434776D01*
X149418851Y-120434776D02*
X149514089Y-120482395D01*
X149514089Y-120482395D02*
X149561708Y-120530014D01*
X149561708Y-120530014D02*
X149609327Y-120625252D01*
X149609327Y-120625252D02*
X149609327Y-120863347D01*
X149609327Y-120863347D02*
X149561708Y-120958585D01*
X149561708Y-120958585D02*
X149514089Y-121006205D01*
X149514089Y-121006205D02*
X149418851Y-121053824D01*
X149418851Y-121053824D02*
X149180756Y-121053824D01*
X149180756Y-121053824D02*
X149085518Y-121006205D01*
X149085518Y-121006205D02*
X149037899Y-120958585D01*
X151833333Y-75859580D02*
X151785714Y-75907200D01*
X151785714Y-75907200D02*
X151642857Y-75954819D01*
X151642857Y-75954819D02*
X151547619Y-75954819D01*
X151547619Y-75954819D02*
X151404762Y-75907200D01*
X151404762Y-75907200D02*
X151309524Y-75811961D01*
X151309524Y-75811961D02*
X151261905Y-75716723D01*
X151261905Y-75716723D02*
X151214286Y-75526247D01*
X151214286Y-75526247D02*
X151214286Y-75383390D01*
X151214286Y-75383390D02*
X151261905Y-75192914D01*
X151261905Y-75192914D02*
X151309524Y-75097676D01*
X151309524Y-75097676D02*
X151404762Y-75002438D01*
X151404762Y-75002438D02*
X151547619Y-74954819D01*
X151547619Y-74954819D02*
X151642857Y-74954819D01*
X151642857Y-74954819D02*
X151785714Y-75002438D01*
X151785714Y-75002438D02*
X151833333Y-75050057D01*
X152214286Y-75050057D02*
X152261905Y-75002438D01*
X152261905Y-75002438D02*
X152357143Y-74954819D01*
X152357143Y-74954819D02*
X152595238Y-74954819D01*
X152595238Y-74954819D02*
X152690476Y-75002438D01*
X152690476Y-75002438D02*
X152738095Y-75050057D01*
X152738095Y-75050057D02*
X152785714Y-75145295D01*
X152785714Y-75145295D02*
X152785714Y-75240533D01*
X152785714Y-75240533D02*
X152738095Y-75383390D01*
X152738095Y-75383390D02*
X152166667Y-75954819D01*
X152166667Y-75954819D02*
X152785714Y-75954819D01*
X120883137Y-65053824D02*
X120549804Y-64577633D01*
X120311709Y-65053824D02*
X120311709Y-64053824D01*
X120311709Y-64053824D02*
X120692661Y-64053824D01*
X120692661Y-64053824D02*
X120787899Y-64101443D01*
X120787899Y-64101443D02*
X120835518Y-64149062D01*
X120835518Y-64149062D02*
X120883137Y-64244300D01*
X120883137Y-64244300D02*
X120883137Y-64387157D01*
X120883137Y-64387157D02*
X120835518Y-64482395D01*
X120835518Y-64482395D02*
X120787899Y-64530014D01*
X120787899Y-64530014D02*
X120692661Y-64577633D01*
X120692661Y-64577633D02*
X120311709Y-64577633D01*
X121835518Y-65053824D02*
X121264090Y-65053824D01*
X121549804Y-65053824D02*
X121549804Y-64053824D01*
X121549804Y-64053824D02*
X121454566Y-64196681D01*
X121454566Y-64196681D02*
X121359328Y-64291919D01*
X121359328Y-64291919D02*
X121264090Y-64339538D01*
X122692661Y-64387157D02*
X122692661Y-65053824D01*
X122454566Y-64006205D02*
X122216471Y-64720490D01*
X122216471Y-64720490D02*
X122835518Y-64720490D01*
X148102194Y-87368824D02*
X147768861Y-86892633D01*
X147530766Y-87368824D02*
X147530766Y-86368824D01*
X147530766Y-86368824D02*
X147911718Y-86368824D01*
X147911718Y-86368824D02*
X148006956Y-86416443D01*
X148006956Y-86416443D02*
X148054575Y-86464062D01*
X148054575Y-86464062D02*
X148102194Y-86559300D01*
X148102194Y-86559300D02*
X148102194Y-86702157D01*
X148102194Y-86702157D02*
X148054575Y-86797395D01*
X148054575Y-86797395D02*
X148006956Y-86845014D01*
X148006956Y-86845014D02*
X147911718Y-86892633D01*
X147911718Y-86892633D02*
X147530766Y-86892633D01*
X148292671Y-87464062D02*
X149054575Y-87464062D01*
X149864099Y-87273585D02*
X149816480Y-87321205D01*
X149816480Y-87321205D02*
X149673623Y-87368824D01*
X149673623Y-87368824D02*
X149578385Y-87368824D01*
X149578385Y-87368824D02*
X149435528Y-87321205D01*
X149435528Y-87321205D02*
X149340290Y-87225966D01*
X149340290Y-87225966D02*
X149292671Y-87130728D01*
X149292671Y-87130728D02*
X149245052Y-86940252D01*
X149245052Y-86940252D02*
X149245052Y-86797395D01*
X149245052Y-86797395D02*
X149292671Y-86606919D01*
X149292671Y-86606919D02*
X149340290Y-86511681D01*
X149340290Y-86511681D02*
X149435528Y-86416443D01*
X149435528Y-86416443D02*
X149578385Y-86368824D01*
X149578385Y-86368824D02*
X149673623Y-86368824D01*
X149673623Y-86368824D02*
X149816480Y-86416443D01*
X149816480Y-86416443D02*
X149864099Y-86464062D01*
X150245052Y-87083109D02*
X150721242Y-87083109D01*
X150149814Y-87368824D02*
X150483147Y-86368824D01*
X150483147Y-86368824D02*
X150816480Y-87368824D01*
X151149814Y-87368824D02*
X151149814Y-86368824D01*
X151149814Y-86368824D02*
X151721242Y-87368824D01*
X151721242Y-87368824D02*
X151721242Y-86368824D01*
X152721242Y-87368824D02*
X152149814Y-87368824D01*
X152435528Y-87368824D02*
X152435528Y-86368824D01*
X152435528Y-86368824D02*
X152340290Y-86511681D01*
X152340290Y-86511681D02*
X152245052Y-86606919D01*
X152245052Y-86606919D02*
X152149814Y-86654538D01*
X100180756Y-114053824D02*
X99847423Y-113577633D01*
X99609328Y-114053824D02*
X99609328Y-113053824D01*
X99609328Y-113053824D02*
X99990280Y-113053824D01*
X99990280Y-113053824D02*
X100085518Y-113101443D01*
X100085518Y-113101443D02*
X100133137Y-113149062D01*
X100133137Y-113149062D02*
X100180756Y-113244300D01*
X100180756Y-113244300D02*
X100180756Y-113387157D01*
X100180756Y-113387157D02*
X100133137Y-113482395D01*
X100133137Y-113482395D02*
X100085518Y-113530014D01*
X100085518Y-113530014D02*
X99990280Y-113577633D01*
X99990280Y-113577633D02*
X99609328Y-113577633D01*
X101037899Y-114006205D02*
X100942661Y-114053824D01*
X100942661Y-114053824D02*
X100752185Y-114053824D01*
X100752185Y-114053824D02*
X100656947Y-114006205D01*
X100656947Y-114006205D02*
X100609328Y-113958585D01*
X100609328Y-113958585D02*
X100561709Y-113863347D01*
X100561709Y-113863347D02*
X100561709Y-113577633D01*
X100561709Y-113577633D02*
X100609328Y-113482395D01*
X100609328Y-113482395D02*
X100656947Y-113434776D01*
X100656947Y-113434776D02*
X100752185Y-113387157D01*
X100752185Y-113387157D02*
X100942661Y-113387157D01*
X100942661Y-113387157D02*
X101037899Y-113434776D01*
X101418852Y-113149062D02*
X101466471Y-113101443D01*
X101466471Y-113101443D02*
X101561709Y-113053824D01*
X101561709Y-113053824D02*
X101799804Y-113053824D01*
X101799804Y-113053824D02*
X101895042Y-113101443D01*
X101895042Y-113101443D02*
X101942661Y-113149062D01*
X101942661Y-113149062D02*
X101990280Y-113244300D01*
X101990280Y-113244300D02*
X101990280Y-113339538D01*
X101990280Y-113339538D02*
X101942661Y-113482395D01*
X101942661Y-113482395D02*
X101371233Y-114053824D01*
X101371233Y-114053824D02*
X101990280Y-114053824D01*
X112154761Y-109859580D02*
X112107142Y-109907200D01*
X112107142Y-109907200D02*
X111964285Y-109954819D01*
X111964285Y-109954819D02*
X111869047Y-109954819D01*
X111869047Y-109954819D02*
X111726190Y-109907200D01*
X111726190Y-109907200D02*
X111630952Y-109811961D01*
X111630952Y-109811961D02*
X111583333Y-109716723D01*
X111583333Y-109716723D02*
X111535714Y-109526247D01*
X111535714Y-109526247D02*
X111535714Y-109383390D01*
X111535714Y-109383390D02*
X111583333Y-109192914D01*
X111583333Y-109192914D02*
X111630952Y-109097676D01*
X111630952Y-109097676D02*
X111726190Y-109002438D01*
X111726190Y-109002438D02*
X111869047Y-108954819D01*
X111869047Y-108954819D02*
X111964285Y-108954819D01*
X111964285Y-108954819D02*
X112107142Y-109002438D01*
X112107142Y-109002438D02*
X112154761Y-109050057D01*
X113011904Y-109907200D02*
X112916666Y-109954819D01*
X112916666Y-109954819D02*
X112726190Y-109954819D01*
X112726190Y-109954819D02*
X112630952Y-109907200D01*
X112630952Y-109907200D02*
X112583333Y-109859580D01*
X112583333Y-109859580D02*
X112535714Y-109764342D01*
X112535714Y-109764342D02*
X112535714Y-109478628D01*
X112535714Y-109478628D02*
X112583333Y-109383390D01*
X112583333Y-109383390D02*
X112630952Y-109335771D01*
X112630952Y-109335771D02*
X112726190Y-109288152D01*
X112726190Y-109288152D02*
X112916666Y-109288152D01*
X112916666Y-109288152D02*
X113011904Y-109335771D01*
X113392857Y-109050057D02*
X113440476Y-109002438D01*
X113440476Y-109002438D02*
X113535714Y-108954819D01*
X113535714Y-108954819D02*
X113773809Y-108954819D01*
X113773809Y-108954819D02*
X113869047Y-109002438D01*
X113869047Y-109002438D02*
X113916666Y-109050057D01*
X113916666Y-109050057D02*
X113964285Y-109145295D01*
X113964285Y-109145295D02*
X113964285Y-109240533D01*
X113964285Y-109240533D02*
X113916666Y-109383390D01*
X113916666Y-109383390D02*
X113345238Y-109954819D01*
X113345238Y-109954819D02*
X113964285Y-109954819D01*
X159916666Y-120454819D02*
X159916666Y-121169104D01*
X159916666Y-121169104D02*
X159869047Y-121311961D01*
X159869047Y-121311961D02*
X159773809Y-121407200D01*
X159773809Y-121407200D02*
X159630952Y-121454819D01*
X159630952Y-121454819D02*
X159535714Y-121454819D01*
X160535714Y-120883390D02*
X160440476Y-120835771D01*
X160440476Y-120835771D02*
X160392857Y-120788152D01*
X160392857Y-120788152D02*
X160345238Y-120692914D01*
X160345238Y-120692914D02*
X160345238Y-120645295D01*
X160345238Y-120645295D02*
X160392857Y-120550057D01*
X160392857Y-120550057D02*
X160440476Y-120502438D01*
X160440476Y-120502438D02*
X160535714Y-120454819D01*
X160535714Y-120454819D02*
X160726190Y-120454819D01*
X160726190Y-120454819D02*
X160821428Y-120502438D01*
X160821428Y-120502438D02*
X160869047Y-120550057D01*
X160869047Y-120550057D02*
X160916666Y-120645295D01*
X160916666Y-120645295D02*
X160916666Y-120692914D01*
X160916666Y-120692914D02*
X160869047Y-120788152D01*
X160869047Y-120788152D02*
X160821428Y-120835771D01*
X160821428Y-120835771D02*
X160726190Y-120883390D01*
X160726190Y-120883390D02*
X160535714Y-120883390D01*
X160535714Y-120883390D02*
X160440476Y-120931009D01*
X160440476Y-120931009D02*
X160392857Y-120978628D01*
X160392857Y-120978628D02*
X160345238Y-121073866D01*
X160345238Y-121073866D02*
X160345238Y-121264342D01*
X160345238Y-121264342D02*
X160392857Y-121359580D01*
X160392857Y-121359580D02*
X160440476Y-121407200D01*
X160440476Y-121407200D02*
X160535714Y-121454819D01*
X160535714Y-121454819D02*
X160726190Y-121454819D01*
X160726190Y-121454819D02*
X160821428Y-121407200D01*
X160821428Y-121407200D02*
X160869047Y-121359580D01*
X160869047Y-121359580D02*
X160916666Y-121264342D01*
X160916666Y-121264342D02*
X160916666Y-121073866D01*
X160916666Y-121073866D02*
X160869047Y-120978628D01*
X160869047Y-120978628D02*
X160821428Y-120931009D01*
X160821428Y-120931009D02*
X160726190Y-120883390D01*
X136385575Y-89900671D02*
X136433195Y-89948290D01*
X136433195Y-89948290D02*
X136480814Y-90091147D01*
X136480814Y-90091147D02*
X136480814Y-90186385D01*
X136480814Y-90186385D02*
X136433195Y-90329242D01*
X136433195Y-90329242D02*
X136337956Y-90424480D01*
X136337956Y-90424480D02*
X136242718Y-90472099D01*
X136242718Y-90472099D02*
X136052242Y-90519718D01*
X136052242Y-90519718D02*
X135909385Y-90519718D01*
X135909385Y-90519718D02*
X135718909Y-90472099D01*
X135718909Y-90472099D02*
X135623671Y-90424480D01*
X135623671Y-90424480D02*
X135528433Y-90329242D01*
X135528433Y-90329242D02*
X135480814Y-90186385D01*
X135480814Y-90186385D02*
X135480814Y-90091147D01*
X135480814Y-90091147D02*
X135528433Y-89948290D01*
X135528433Y-89948290D02*
X135576052Y-89900671D01*
X135480814Y-88995909D02*
X135480814Y-89472099D01*
X135480814Y-89472099D02*
X135957004Y-89519718D01*
X135957004Y-89519718D02*
X135909385Y-89472099D01*
X135909385Y-89472099D02*
X135861766Y-89376861D01*
X135861766Y-89376861D02*
X135861766Y-89138766D01*
X135861766Y-89138766D02*
X135909385Y-89043528D01*
X135909385Y-89043528D02*
X135957004Y-88995909D01*
X135957004Y-88995909D02*
X136052242Y-88948290D01*
X136052242Y-88948290D02*
X136290337Y-88948290D01*
X136290337Y-88948290D02*
X136385575Y-88995909D01*
X136385575Y-88995909D02*
X136433195Y-89043528D01*
X136433195Y-89043528D02*
X136480814Y-89138766D01*
X136480814Y-89138766D02*
X136480814Y-89376861D01*
X136480814Y-89376861D02*
X136433195Y-89472099D01*
X136433195Y-89472099D02*
X136385575Y-89519718D01*
X175264090Y-120853824D02*
X175264090Y-119853824D01*
X175264090Y-120330014D02*
X175835518Y-120330014D01*
X175835518Y-120853824D02*
X175835518Y-119853824D01*
X176740280Y-119853824D02*
X176549804Y-119853824D01*
X176549804Y-119853824D02*
X176454566Y-119901443D01*
X176454566Y-119901443D02*
X176406947Y-119949062D01*
X176406947Y-119949062D02*
X176311709Y-120091919D01*
X176311709Y-120091919D02*
X176264090Y-120282395D01*
X176264090Y-120282395D02*
X176264090Y-120663347D01*
X176264090Y-120663347D02*
X176311709Y-120758585D01*
X176311709Y-120758585D02*
X176359328Y-120806205D01*
X176359328Y-120806205D02*
X176454566Y-120853824D01*
X176454566Y-120853824D02*
X176645042Y-120853824D01*
X176645042Y-120853824D02*
X176740280Y-120806205D01*
X176740280Y-120806205D02*
X176787899Y-120758585D01*
X176787899Y-120758585D02*
X176835518Y-120663347D01*
X176835518Y-120663347D02*
X176835518Y-120425252D01*
X176835518Y-120425252D02*
X176787899Y-120330014D01*
X176787899Y-120330014D02*
X176740280Y-120282395D01*
X176740280Y-120282395D02*
X176645042Y-120234776D01*
X176645042Y-120234776D02*
X176454566Y-120234776D01*
X176454566Y-120234776D02*
X176359328Y-120282395D01*
X176359328Y-120282395D02*
X176311709Y-120330014D01*
X176311709Y-120330014D02*
X176264090Y-120425252D01*
X171916666Y-128954819D02*
X171916666Y-129669104D01*
X171916666Y-129669104D02*
X171869047Y-129811961D01*
X171869047Y-129811961D02*
X171773809Y-129907200D01*
X171773809Y-129907200D02*
X171630952Y-129954819D01*
X171630952Y-129954819D02*
X171535714Y-129954819D01*
X172916666Y-129954819D02*
X172345238Y-129954819D01*
X172630952Y-129954819D02*
X172630952Y-128954819D01*
X172630952Y-128954819D02*
X172535714Y-129097676D01*
X172535714Y-129097676D02*
X172440476Y-129192914D01*
X172440476Y-129192914D02*
X172345238Y-129240533D01*
X94109328Y-129553824D02*
X93775995Y-129077633D01*
X93537900Y-129553824D02*
X93537900Y-128553824D01*
X93537900Y-128553824D02*
X93918852Y-128553824D01*
X93918852Y-128553824D02*
X94014090Y-128601443D01*
X94014090Y-128601443D02*
X94061709Y-128649062D01*
X94061709Y-128649062D02*
X94109328Y-128744300D01*
X94109328Y-128744300D02*
X94109328Y-128887157D01*
X94109328Y-128887157D02*
X94061709Y-128982395D01*
X94061709Y-128982395D02*
X94014090Y-129030014D01*
X94014090Y-129030014D02*
X93918852Y-129077633D01*
X93918852Y-129077633D02*
X93537900Y-129077633D01*
X95061709Y-129553824D02*
X94490281Y-129553824D01*
X94775995Y-129553824D02*
X94775995Y-128553824D01*
X94775995Y-128553824D02*
X94680757Y-128696681D01*
X94680757Y-128696681D02*
X94585519Y-128791919D01*
X94585519Y-128791919D02*
X94490281Y-128839538D01*
X137359328Y-93609580D02*
X137311709Y-93657200D01*
X137311709Y-93657200D02*
X137168852Y-93704819D01*
X137168852Y-93704819D02*
X137073614Y-93704819D01*
X137073614Y-93704819D02*
X136930757Y-93657200D01*
X136930757Y-93657200D02*
X136835519Y-93561961D01*
X136835519Y-93561961D02*
X136787900Y-93466723D01*
X136787900Y-93466723D02*
X136740281Y-93276247D01*
X136740281Y-93276247D02*
X136740281Y-93133390D01*
X136740281Y-93133390D02*
X136787900Y-92942914D01*
X136787900Y-92942914D02*
X136835519Y-92847676D01*
X136835519Y-92847676D02*
X136930757Y-92752438D01*
X136930757Y-92752438D02*
X137073614Y-92704819D01*
X137073614Y-92704819D02*
X137168852Y-92704819D01*
X137168852Y-92704819D02*
X137311709Y-92752438D01*
X137311709Y-92752438D02*
X137359328Y-92800057D01*
X138216471Y-93038152D02*
X138216471Y-93704819D01*
X137978376Y-92657200D02*
X137740281Y-93371485D01*
X137740281Y-93371485D02*
X138359328Y-93371485D01*
X119464814Y-106349005D02*
X118988623Y-106682338D01*
X119464814Y-106920433D02*
X118464814Y-106920433D01*
X118464814Y-106920433D02*
X118464814Y-106539481D01*
X118464814Y-106539481D02*
X118512433Y-106444243D01*
X118512433Y-106444243D02*
X118560052Y-106396624D01*
X118560052Y-106396624D02*
X118655290Y-106349005D01*
X118655290Y-106349005D02*
X118798147Y-106349005D01*
X118798147Y-106349005D02*
X118893385Y-106396624D01*
X118893385Y-106396624D02*
X118941004Y-106444243D01*
X118941004Y-106444243D02*
X118988623Y-106539481D01*
X118988623Y-106539481D02*
X118988623Y-106920433D01*
X118798147Y-105491862D02*
X119464814Y-105491862D01*
X118798147Y-105920433D02*
X119321956Y-105920433D01*
X119321956Y-105920433D02*
X119417195Y-105872814D01*
X119417195Y-105872814D02*
X119464814Y-105777576D01*
X119464814Y-105777576D02*
X119464814Y-105634719D01*
X119464814Y-105634719D02*
X119417195Y-105539481D01*
X119417195Y-105539481D02*
X119369575Y-105491862D01*
X118798147Y-105110909D02*
X119464814Y-104872814D01*
X119464814Y-104872814D02*
X118798147Y-104634719D01*
X119464814Y-103729957D02*
X119464814Y-104301385D01*
X119464814Y-104015671D02*
X118464814Y-104015671D01*
X118464814Y-104015671D02*
X118607671Y-104110909D01*
X118607671Y-104110909D02*
X118702909Y-104206147D01*
X118702909Y-104206147D02*
X118750528Y-104301385D01*
X90656947Y-94628585D02*
X90609328Y-94676205D01*
X90609328Y-94676205D02*
X90466471Y-94723824D01*
X90466471Y-94723824D02*
X90371233Y-94723824D01*
X90371233Y-94723824D02*
X90228376Y-94676205D01*
X90228376Y-94676205D02*
X90133138Y-94580966D01*
X90133138Y-94580966D02*
X90085519Y-94485728D01*
X90085519Y-94485728D02*
X90037900Y-94295252D01*
X90037900Y-94295252D02*
X90037900Y-94152395D01*
X90037900Y-94152395D02*
X90085519Y-93961919D01*
X90085519Y-93961919D02*
X90133138Y-93866681D01*
X90133138Y-93866681D02*
X90228376Y-93771443D01*
X90228376Y-93771443D02*
X90371233Y-93723824D01*
X90371233Y-93723824D02*
X90466471Y-93723824D01*
X90466471Y-93723824D02*
X90609328Y-93771443D01*
X90609328Y-93771443D02*
X90656947Y-93819062D01*
X91037900Y-94438109D02*
X91514090Y-94438109D01*
X90942662Y-94723824D02*
X91275995Y-93723824D01*
X91275995Y-93723824D02*
X91609328Y-94723824D01*
X91942662Y-94723824D02*
X91942662Y-93723824D01*
X91942662Y-93723824D02*
X92514090Y-94723824D01*
X92514090Y-94723824D02*
X92514090Y-93723824D01*
X92942662Y-93819062D02*
X92990281Y-93771443D01*
X92990281Y-93771443D02*
X93085519Y-93723824D01*
X93085519Y-93723824D02*
X93323614Y-93723824D01*
X93323614Y-93723824D02*
X93418852Y-93771443D01*
X93418852Y-93771443D02*
X93466471Y-93819062D01*
X93466471Y-93819062D02*
X93514090Y-93914300D01*
X93514090Y-93914300D02*
X93514090Y-94009538D01*
X93514090Y-94009538D02*
X93466471Y-94152395D01*
X93466471Y-94152395D02*
X92895043Y-94723824D01*
X92895043Y-94723824D02*
X93514090Y-94723824D01*
X158633137Y-74053824D02*
X158299804Y-73577633D01*
X158061709Y-74053824D02*
X158061709Y-73053824D01*
X158061709Y-73053824D02*
X158442661Y-73053824D01*
X158442661Y-73053824D02*
X158537899Y-73101443D01*
X158537899Y-73101443D02*
X158585518Y-73149062D01*
X158585518Y-73149062D02*
X158633137Y-73244300D01*
X158633137Y-73244300D02*
X158633137Y-73387157D01*
X158633137Y-73387157D02*
X158585518Y-73482395D01*
X158585518Y-73482395D02*
X158537899Y-73530014D01*
X158537899Y-73530014D02*
X158442661Y-73577633D01*
X158442661Y-73577633D02*
X158061709Y-73577633D01*
X159014090Y-73149062D02*
X159061709Y-73101443D01*
X159061709Y-73101443D02*
X159156947Y-73053824D01*
X159156947Y-73053824D02*
X159395042Y-73053824D01*
X159395042Y-73053824D02*
X159490280Y-73101443D01*
X159490280Y-73101443D02*
X159537899Y-73149062D01*
X159537899Y-73149062D02*
X159585518Y-73244300D01*
X159585518Y-73244300D02*
X159585518Y-73339538D01*
X159585518Y-73339538D02*
X159537899Y-73482395D01*
X159537899Y-73482395D02*
X158966471Y-74053824D01*
X158966471Y-74053824D02*
X159585518Y-74053824D01*
X160537899Y-74053824D02*
X159966471Y-74053824D01*
X160252185Y-74053824D02*
X160252185Y-73053824D01*
X160252185Y-73053824D02*
X160156947Y-73196681D01*
X160156947Y-73196681D02*
X160061709Y-73291919D01*
X160061709Y-73291919D02*
X159966471Y-73339538D01*
X88859328Y-73553824D02*
X88525995Y-73077633D01*
X88287900Y-73553824D02*
X88287900Y-72553824D01*
X88287900Y-72553824D02*
X88668852Y-72553824D01*
X88668852Y-72553824D02*
X88764090Y-72601443D01*
X88764090Y-72601443D02*
X88811709Y-72649062D01*
X88811709Y-72649062D02*
X88859328Y-72744300D01*
X88859328Y-72744300D02*
X88859328Y-72887157D01*
X88859328Y-72887157D02*
X88811709Y-72982395D01*
X88811709Y-72982395D02*
X88764090Y-73030014D01*
X88764090Y-73030014D02*
X88668852Y-73077633D01*
X88668852Y-73077633D02*
X88287900Y-73077633D01*
X89716471Y-72553824D02*
X89525995Y-72553824D01*
X89525995Y-72553824D02*
X89430757Y-72601443D01*
X89430757Y-72601443D02*
X89383138Y-72649062D01*
X89383138Y-72649062D02*
X89287900Y-72791919D01*
X89287900Y-72791919D02*
X89240281Y-72982395D01*
X89240281Y-72982395D02*
X89240281Y-73363347D01*
X89240281Y-73363347D02*
X89287900Y-73458585D01*
X89287900Y-73458585D02*
X89335519Y-73506205D01*
X89335519Y-73506205D02*
X89430757Y-73553824D01*
X89430757Y-73553824D02*
X89621233Y-73553824D01*
X89621233Y-73553824D02*
X89716471Y-73506205D01*
X89716471Y-73506205D02*
X89764090Y-73458585D01*
X89764090Y-73458585D02*
X89811709Y-73363347D01*
X89811709Y-73363347D02*
X89811709Y-73125252D01*
X89811709Y-73125252D02*
X89764090Y-73030014D01*
X89764090Y-73030014D02*
X89716471Y-72982395D01*
X89716471Y-72982395D02*
X89621233Y-72934776D01*
X89621233Y-72934776D02*
X89430757Y-72934776D01*
X89430757Y-72934776D02*
X89335519Y-72982395D01*
X89335519Y-72982395D02*
X89287900Y-73030014D01*
X89287900Y-73030014D02*
X89240281Y-73125252D01*
X128928571Y-104954819D02*
X128595238Y-104478628D01*
X128357143Y-104954819D02*
X128357143Y-103954819D01*
X128357143Y-103954819D02*
X128738095Y-103954819D01*
X128738095Y-103954819D02*
X128833333Y-104002438D01*
X128833333Y-104002438D02*
X128880952Y-104050057D01*
X128880952Y-104050057D02*
X128928571Y-104145295D01*
X128928571Y-104145295D02*
X128928571Y-104288152D01*
X128928571Y-104288152D02*
X128880952Y-104383390D01*
X128880952Y-104383390D02*
X128833333Y-104431009D01*
X128833333Y-104431009D02*
X128738095Y-104478628D01*
X128738095Y-104478628D02*
X128357143Y-104478628D01*
X129357143Y-104288152D02*
X129357143Y-105288152D01*
X129357143Y-104335771D02*
X129452381Y-104288152D01*
X129452381Y-104288152D02*
X129642857Y-104288152D01*
X129642857Y-104288152D02*
X129738095Y-104335771D01*
X129738095Y-104335771D02*
X129785714Y-104383390D01*
X129785714Y-104383390D02*
X129833333Y-104478628D01*
X129833333Y-104478628D02*
X129833333Y-104764342D01*
X129833333Y-104764342D02*
X129785714Y-104859580D01*
X129785714Y-104859580D02*
X129738095Y-104907200D01*
X129738095Y-104907200D02*
X129642857Y-104954819D01*
X129642857Y-104954819D02*
X129452381Y-104954819D01*
X129452381Y-104954819D02*
X129357143Y-104907200D01*
X130690476Y-104288152D02*
X130690476Y-105097676D01*
X130690476Y-105097676D02*
X130642857Y-105192914D01*
X130642857Y-105192914D02*
X130595238Y-105240533D01*
X130595238Y-105240533D02*
X130500000Y-105288152D01*
X130500000Y-105288152D02*
X130357143Y-105288152D01*
X130357143Y-105288152D02*
X130261905Y-105240533D01*
X130690476Y-104907200D02*
X130595238Y-104954819D01*
X130595238Y-104954819D02*
X130404762Y-104954819D01*
X130404762Y-104954819D02*
X130309524Y-104907200D01*
X130309524Y-104907200D02*
X130261905Y-104859580D01*
X130261905Y-104859580D02*
X130214286Y-104764342D01*
X130214286Y-104764342D02*
X130214286Y-104478628D01*
X130214286Y-104478628D02*
X130261905Y-104383390D01*
X130261905Y-104383390D02*
X130309524Y-104335771D01*
X130309524Y-104335771D02*
X130404762Y-104288152D01*
X130404762Y-104288152D02*
X130595238Y-104288152D01*
X130595238Y-104288152D02*
X130690476Y-104335771D01*
X131690476Y-104954819D02*
X131119048Y-104954819D01*
X131404762Y-104954819D02*
X131404762Y-103954819D01*
X131404762Y-103954819D02*
X131309524Y-104097676D01*
X131309524Y-104097676D02*
X131214286Y-104192914D01*
X131214286Y-104192914D02*
X131119048Y-104240533D01*
X154357142Y-92204819D02*
X154023809Y-91728628D01*
X153785714Y-92204819D02*
X153785714Y-91204819D01*
X153785714Y-91204819D02*
X154166666Y-91204819D01*
X154166666Y-91204819D02*
X154261904Y-91252438D01*
X154261904Y-91252438D02*
X154309523Y-91300057D01*
X154309523Y-91300057D02*
X154357142Y-91395295D01*
X154357142Y-91395295D02*
X154357142Y-91538152D01*
X154357142Y-91538152D02*
X154309523Y-91633390D01*
X154309523Y-91633390D02*
X154261904Y-91681009D01*
X154261904Y-91681009D02*
X154166666Y-91728628D01*
X154166666Y-91728628D02*
X153785714Y-91728628D01*
X155309523Y-92204819D02*
X154738095Y-92204819D01*
X155023809Y-92204819D02*
X155023809Y-91204819D01*
X155023809Y-91204819D02*
X154928571Y-91347676D01*
X154928571Y-91347676D02*
X154833333Y-91442914D01*
X154833333Y-91442914D02*
X154738095Y-91490533D01*
X155690476Y-91300057D02*
X155738095Y-91252438D01*
X155738095Y-91252438D02*
X155833333Y-91204819D01*
X155833333Y-91204819D02*
X156071428Y-91204819D01*
X156071428Y-91204819D02*
X156166666Y-91252438D01*
X156166666Y-91252438D02*
X156214285Y-91300057D01*
X156214285Y-91300057D02*
X156261904Y-91395295D01*
X156261904Y-91395295D02*
X156261904Y-91490533D01*
X156261904Y-91490533D02*
X156214285Y-91633390D01*
X156214285Y-91633390D02*
X155642857Y-92204819D01*
X155642857Y-92204819D02*
X156261904Y-92204819D01*
X153166666Y-120204819D02*
X153166666Y-120919104D01*
X153166666Y-120919104D02*
X153119047Y-121061961D01*
X153119047Y-121061961D02*
X153023809Y-121157200D01*
X153023809Y-121157200D02*
X152880952Y-121204819D01*
X152880952Y-121204819D02*
X152785714Y-121204819D01*
X154071428Y-120204819D02*
X153880952Y-120204819D01*
X153880952Y-120204819D02*
X153785714Y-120252438D01*
X153785714Y-120252438D02*
X153738095Y-120300057D01*
X153738095Y-120300057D02*
X153642857Y-120442914D01*
X153642857Y-120442914D02*
X153595238Y-120633390D01*
X153595238Y-120633390D02*
X153595238Y-121014342D01*
X153595238Y-121014342D02*
X153642857Y-121109580D01*
X153642857Y-121109580D02*
X153690476Y-121157200D01*
X153690476Y-121157200D02*
X153785714Y-121204819D01*
X153785714Y-121204819D02*
X153976190Y-121204819D01*
X153976190Y-121204819D02*
X154071428Y-121157200D01*
X154071428Y-121157200D02*
X154119047Y-121109580D01*
X154119047Y-121109580D02*
X154166666Y-121014342D01*
X154166666Y-121014342D02*
X154166666Y-120776247D01*
X154166666Y-120776247D02*
X154119047Y-120681009D01*
X154119047Y-120681009D02*
X154071428Y-120633390D01*
X154071428Y-120633390D02*
X153976190Y-120585771D01*
X153976190Y-120585771D02*
X153785714Y-120585771D01*
X153785714Y-120585771D02*
X153690476Y-120633390D01*
X153690476Y-120633390D02*
X153642857Y-120681009D01*
X153642857Y-120681009D02*
X153595238Y-120776247D01*
X170480814Y-89991862D02*
X170004623Y-90325195D01*
X170480814Y-90563290D02*
X169480814Y-90563290D01*
X169480814Y-90563290D02*
X169480814Y-90182338D01*
X169480814Y-90182338D02*
X169528433Y-90087100D01*
X169528433Y-90087100D02*
X169576052Y-90039481D01*
X169576052Y-90039481D02*
X169671290Y-89991862D01*
X169671290Y-89991862D02*
X169814147Y-89991862D01*
X169814147Y-89991862D02*
X169909385Y-90039481D01*
X169909385Y-90039481D02*
X169957004Y-90087100D01*
X169957004Y-90087100D02*
X170004623Y-90182338D01*
X170004623Y-90182338D02*
X170004623Y-90563290D01*
X169576052Y-89610909D02*
X169528433Y-89563290D01*
X169528433Y-89563290D02*
X169480814Y-89468052D01*
X169480814Y-89468052D02*
X169480814Y-89229957D01*
X169480814Y-89229957D02*
X169528433Y-89134719D01*
X169528433Y-89134719D02*
X169576052Y-89087100D01*
X169576052Y-89087100D02*
X169671290Y-89039481D01*
X169671290Y-89039481D02*
X169766528Y-89039481D01*
X169766528Y-89039481D02*
X169909385Y-89087100D01*
X169909385Y-89087100D02*
X170480814Y-89658528D01*
X170480814Y-89658528D02*
X170480814Y-89039481D01*
X169480814Y-88420433D02*
X169480814Y-88325195D01*
X169480814Y-88325195D02*
X169528433Y-88229957D01*
X169528433Y-88229957D02*
X169576052Y-88182338D01*
X169576052Y-88182338D02*
X169671290Y-88134719D01*
X169671290Y-88134719D02*
X169861766Y-88087100D01*
X169861766Y-88087100D02*
X170099861Y-88087100D01*
X170099861Y-88087100D02*
X170290337Y-88134719D01*
X170290337Y-88134719D02*
X170385575Y-88182338D01*
X170385575Y-88182338D02*
X170433195Y-88229957D01*
X170433195Y-88229957D02*
X170480814Y-88325195D01*
X170480814Y-88325195D02*
X170480814Y-88420433D01*
X170480814Y-88420433D02*
X170433195Y-88515671D01*
X170433195Y-88515671D02*
X170385575Y-88563290D01*
X170385575Y-88563290D02*
X170290337Y-88610909D01*
X170290337Y-88610909D02*
X170099861Y-88658528D01*
X170099861Y-88658528D02*
X169861766Y-88658528D01*
X169861766Y-88658528D02*
X169671290Y-88610909D01*
X169671290Y-88610909D02*
X169576052Y-88563290D01*
X169576052Y-88563290D02*
X169528433Y-88515671D01*
X169528433Y-88515671D02*
X169480814Y-88420433D01*
X141109328Y-100053824D02*
X140775995Y-99577633D01*
X140537900Y-100053824D02*
X140537900Y-99053824D01*
X140537900Y-99053824D02*
X140918852Y-99053824D01*
X140918852Y-99053824D02*
X141014090Y-99101443D01*
X141014090Y-99101443D02*
X141061709Y-99149062D01*
X141061709Y-99149062D02*
X141109328Y-99244300D01*
X141109328Y-99244300D02*
X141109328Y-99387157D01*
X141109328Y-99387157D02*
X141061709Y-99482395D01*
X141061709Y-99482395D02*
X141014090Y-99530014D01*
X141014090Y-99530014D02*
X140918852Y-99577633D01*
X140918852Y-99577633D02*
X140537900Y-99577633D01*
X141585519Y-100053824D02*
X141775995Y-100053824D01*
X141775995Y-100053824D02*
X141871233Y-100006205D01*
X141871233Y-100006205D02*
X141918852Y-99958585D01*
X141918852Y-99958585D02*
X142014090Y-99815728D01*
X142014090Y-99815728D02*
X142061709Y-99625252D01*
X142061709Y-99625252D02*
X142061709Y-99244300D01*
X142061709Y-99244300D02*
X142014090Y-99149062D01*
X142014090Y-99149062D02*
X141966471Y-99101443D01*
X141966471Y-99101443D02*
X141871233Y-99053824D01*
X141871233Y-99053824D02*
X141680757Y-99053824D01*
X141680757Y-99053824D02*
X141585519Y-99101443D01*
X141585519Y-99101443D02*
X141537900Y-99149062D01*
X141537900Y-99149062D02*
X141490281Y-99244300D01*
X141490281Y-99244300D02*
X141490281Y-99482395D01*
X141490281Y-99482395D02*
X141537900Y-99577633D01*
X141537900Y-99577633D02*
X141585519Y-99625252D01*
X141585519Y-99625252D02*
X141680757Y-99672871D01*
X141680757Y-99672871D02*
X141871233Y-99672871D01*
X141871233Y-99672871D02*
X141966471Y-99625252D01*
X141966471Y-99625252D02*
X142014090Y-99577633D01*
X142014090Y-99577633D02*
X142061709Y-99482395D01*
X93764090Y-72553824D02*
X93764090Y-73363347D01*
X93764090Y-73363347D02*
X93811709Y-73458585D01*
X93811709Y-73458585D02*
X93859328Y-73506205D01*
X93859328Y-73506205D02*
X93954566Y-73553824D01*
X93954566Y-73553824D02*
X94145042Y-73553824D01*
X94145042Y-73553824D02*
X94240280Y-73506205D01*
X94240280Y-73506205D02*
X94287899Y-73458585D01*
X94287899Y-73458585D02*
X94335518Y-73363347D01*
X94335518Y-73363347D02*
X94335518Y-72553824D01*
X95240280Y-72887157D02*
X95240280Y-73553824D01*
X95002185Y-72506205D02*
X94764090Y-73220490D01*
X94764090Y-73220490D02*
X95383137Y-73220490D01*
X123164090Y-107553824D02*
X123735518Y-107553824D01*
X123449804Y-108553824D02*
X123449804Y-107553824D01*
X124068852Y-108553824D02*
X124068852Y-107553824D01*
X124068852Y-107553824D02*
X124449804Y-107553824D01*
X124449804Y-107553824D02*
X124545042Y-107601443D01*
X124545042Y-107601443D02*
X124592661Y-107649062D01*
X124592661Y-107649062D02*
X124640280Y-107744300D01*
X124640280Y-107744300D02*
X124640280Y-107887157D01*
X124640280Y-107887157D02*
X124592661Y-107982395D01*
X124592661Y-107982395D02*
X124545042Y-108030014D01*
X124545042Y-108030014D02*
X124449804Y-108077633D01*
X124449804Y-108077633D02*
X124068852Y-108077633D01*
X125592661Y-108553824D02*
X125021233Y-108553824D01*
X125306947Y-108553824D02*
X125306947Y-107553824D01*
X125306947Y-107553824D02*
X125211709Y-107696681D01*
X125211709Y-107696681D02*
X125116471Y-107791919D01*
X125116471Y-107791919D02*
X125021233Y-107839538D01*
X132630814Y-116318052D02*
X132630814Y-116794242D01*
X132630814Y-116794242D02*
X131630814Y-116794242D01*
X132107004Y-115984718D02*
X132107004Y-115651385D01*
X132630814Y-115508528D02*
X132630814Y-115984718D01*
X132630814Y-115984718D02*
X131630814Y-115984718D01*
X131630814Y-115984718D02*
X131630814Y-115508528D01*
X132630814Y-115079956D02*
X131630814Y-115079956D01*
X131630814Y-115079956D02*
X131630814Y-114841861D01*
X131630814Y-114841861D02*
X131678433Y-114699004D01*
X131678433Y-114699004D02*
X131773671Y-114603766D01*
X131773671Y-114603766D02*
X131868909Y-114556147D01*
X131868909Y-114556147D02*
X132059385Y-114508528D01*
X132059385Y-114508528D02*
X132202242Y-114508528D01*
X132202242Y-114508528D02*
X132392718Y-114556147D01*
X132392718Y-114556147D02*
X132487956Y-114603766D01*
X132487956Y-114603766D02*
X132583195Y-114699004D01*
X132583195Y-114699004D02*
X132630814Y-114841861D01*
X132630814Y-114841861D02*
X132630814Y-115079956D01*
X131726052Y-114127575D02*
X131678433Y-114079956D01*
X131678433Y-114079956D02*
X131630814Y-113984718D01*
X131630814Y-113984718D02*
X131630814Y-113746623D01*
X131630814Y-113746623D02*
X131678433Y-113651385D01*
X131678433Y-113651385D02*
X131726052Y-113603766D01*
X131726052Y-113603766D02*
X131821290Y-113556147D01*
X131821290Y-113556147D02*
X131916528Y-113556147D01*
X131916528Y-113556147D02*
X132059385Y-113603766D01*
X132059385Y-113603766D02*
X132630814Y-114175194D01*
X132630814Y-114175194D02*
X132630814Y-113556147D01*
X175264090Y-138353824D02*
X175264090Y-137353824D01*
X175264090Y-137830014D02*
X175835518Y-137830014D01*
X175835518Y-138353824D02*
X175835518Y-137353824D01*
X176216471Y-137353824D02*
X176835518Y-137353824D01*
X176835518Y-137353824D02*
X176502185Y-137734776D01*
X176502185Y-137734776D02*
X176645042Y-137734776D01*
X176645042Y-137734776D02*
X176740280Y-137782395D01*
X176740280Y-137782395D02*
X176787899Y-137830014D01*
X176787899Y-137830014D02*
X176835518Y-137925252D01*
X176835518Y-137925252D02*
X176835518Y-138163347D01*
X176835518Y-138163347D02*
X176787899Y-138258585D01*
X176787899Y-138258585D02*
X176740280Y-138306205D01*
X176740280Y-138306205D02*
X176645042Y-138353824D01*
X176645042Y-138353824D02*
X176359328Y-138353824D01*
X176359328Y-138353824D02*
X176264090Y-138306205D01*
X176264090Y-138306205D02*
X176216471Y-138258585D01*
X120680756Y-132649062D02*
X120585518Y-132601443D01*
X120585518Y-132601443D02*
X120490280Y-132506205D01*
X120490280Y-132506205D02*
X120347423Y-132363347D01*
X120347423Y-132363347D02*
X120252185Y-132315728D01*
X120252185Y-132315728D02*
X120156947Y-132315728D01*
X120204566Y-132553824D02*
X120109328Y-132506205D01*
X120109328Y-132506205D02*
X120014090Y-132410966D01*
X120014090Y-132410966D02*
X119966471Y-132220490D01*
X119966471Y-132220490D02*
X119966471Y-131887157D01*
X119966471Y-131887157D02*
X120014090Y-131696681D01*
X120014090Y-131696681D02*
X120109328Y-131601443D01*
X120109328Y-131601443D02*
X120204566Y-131553824D01*
X120204566Y-131553824D02*
X120395042Y-131553824D01*
X120395042Y-131553824D02*
X120490280Y-131601443D01*
X120490280Y-131601443D02*
X120585518Y-131696681D01*
X120585518Y-131696681D02*
X120633137Y-131887157D01*
X120633137Y-131887157D02*
X120633137Y-132220490D01*
X120633137Y-132220490D02*
X120585518Y-132410966D01*
X120585518Y-132410966D02*
X120490280Y-132506205D01*
X120490280Y-132506205D02*
X120395042Y-132553824D01*
X120395042Y-132553824D02*
X120204566Y-132553824D01*
X121014090Y-131649062D02*
X121061709Y-131601443D01*
X121061709Y-131601443D02*
X121156947Y-131553824D01*
X121156947Y-131553824D02*
X121395042Y-131553824D01*
X121395042Y-131553824D02*
X121490280Y-131601443D01*
X121490280Y-131601443D02*
X121537899Y-131649062D01*
X121537899Y-131649062D02*
X121585518Y-131744300D01*
X121585518Y-131744300D02*
X121585518Y-131839538D01*
X121585518Y-131839538D02*
X121537899Y-131982395D01*
X121537899Y-131982395D02*
X120966471Y-132553824D01*
X120966471Y-132553824D02*
X121585518Y-132553824D01*
X164680756Y-92149062D02*
X164585518Y-92101443D01*
X164585518Y-92101443D02*
X164490280Y-92006205D01*
X164490280Y-92006205D02*
X164347423Y-91863347D01*
X164347423Y-91863347D02*
X164252185Y-91815728D01*
X164252185Y-91815728D02*
X164156947Y-91815728D01*
X164204566Y-92053824D02*
X164109328Y-92006205D01*
X164109328Y-92006205D02*
X164014090Y-91910966D01*
X164014090Y-91910966D02*
X163966471Y-91720490D01*
X163966471Y-91720490D02*
X163966471Y-91387157D01*
X163966471Y-91387157D02*
X164014090Y-91196681D01*
X164014090Y-91196681D02*
X164109328Y-91101443D01*
X164109328Y-91101443D02*
X164204566Y-91053824D01*
X164204566Y-91053824D02*
X164395042Y-91053824D01*
X164395042Y-91053824D02*
X164490280Y-91101443D01*
X164490280Y-91101443D02*
X164585518Y-91196681D01*
X164585518Y-91196681D02*
X164633137Y-91387157D01*
X164633137Y-91387157D02*
X164633137Y-91720490D01*
X164633137Y-91720490D02*
X164585518Y-91910966D01*
X164585518Y-91910966D02*
X164490280Y-92006205D01*
X164490280Y-92006205D02*
X164395042Y-92053824D01*
X164395042Y-92053824D02*
X164204566Y-92053824D01*
X165490280Y-91387157D02*
X165490280Y-92053824D01*
X165252185Y-91006205D02*
X165014090Y-91720490D01*
X165014090Y-91720490D02*
X165633137Y-91720490D01*
X152480814Y-135265671D02*
X152004623Y-135599004D01*
X152480814Y-135837099D02*
X151480814Y-135837099D01*
X151480814Y-135837099D02*
X151480814Y-135456147D01*
X151480814Y-135456147D02*
X151528433Y-135360909D01*
X151528433Y-135360909D02*
X151576052Y-135313290D01*
X151576052Y-135313290D02*
X151671290Y-135265671D01*
X151671290Y-135265671D02*
X151814147Y-135265671D01*
X151814147Y-135265671D02*
X151909385Y-135313290D01*
X151909385Y-135313290D02*
X151957004Y-135360909D01*
X151957004Y-135360909D02*
X152004623Y-135456147D01*
X152004623Y-135456147D02*
X152004623Y-135837099D01*
X151480814Y-134932337D02*
X151480814Y-134313290D01*
X151480814Y-134313290D02*
X151861766Y-134646623D01*
X151861766Y-134646623D02*
X151861766Y-134503766D01*
X151861766Y-134503766D02*
X151909385Y-134408528D01*
X151909385Y-134408528D02*
X151957004Y-134360909D01*
X151957004Y-134360909D02*
X152052242Y-134313290D01*
X152052242Y-134313290D02*
X152290337Y-134313290D01*
X152290337Y-134313290D02*
X152385575Y-134360909D01*
X152385575Y-134360909D02*
X152433195Y-134408528D01*
X152433195Y-134408528D02*
X152480814Y-134503766D01*
X152480814Y-134503766D02*
X152480814Y-134789480D01*
X152480814Y-134789480D02*
X152433195Y-134884718D01*
X152433195Y-134884718D02*
X152385575Y-134932337D01*
X159180756Y-77149062D02*
X159085518Y-77101443D01*
X159085518Y-77101443D02*
X158990280Y-77006205D01*
X158990280Y-77006205D02*
X158847423Y-76863347D01*
X158847423Y-76863347D02*
X158752185Y-76815728D01*
X158752185Y-76815728D02*
X158656947Y-76815728D01*
X158704566Y-77053824D02*
X158609328Y-77006205D01*
X158609328Y-77006205D02*
X158514090Y-76910966D01*
X158514090Y-76910966D02*
X158466471Y-76720490D01*
X158466471Y-76720490D02*
X158466471Y-76387157D01*
X158466471Y-76387157D02*
X158514090Y-76196681D01*
X158514090Y-76196681D02*
X158609328Y-76101443D01*
X158609328Y-76101443D02*
X158704566Y-76053824D01*
X158704566Y-76053824D02*
X158895042Y-76053824D01*
X158895042Y-76053824D02*
X158990280Y-76101443D01*
X158990280Y-76101443D02*
X159085518Y-76196681D01*
X159085518Y-76196681D02*
X159133137Y-76387157D01*
X159133137Y-76387157D02*
X159133137Y-76720490D01*
X159133137Y-76720490D02*
X159085518Y-76910966D01*
X159085518Y-76910966D02*
X158990280Y-77006205D01*
X158990280Y-77006205D02*
X158895042Y-77053824D01*
X158895042Y-77053824D02*
X158704566Y-77053824D01*
X159704566Y-76482395D02*
X159609328Y-76434776D01*
X159609328Y-76434776D02*
X159561709Y-76387157D01*
X159561709Y-76387157D02*
X159514090Y-76291919D01*
X159514090Y-76291919D02*
X159514090Y-76244300D01*
X159514090Y-76244300D02*
X159561709Y-76149062D01*
X159561709Y-76149062D02*
X159609328Y-76101443D01*
X159609328Y-76101443D02*
X159704566Y-76053824D01*
X159704566Y-76053824D02*
X159895042Y-76053824D01*
X159895042Y-76053824D02*
X159990280Y-76101443D01*
X159990280Y-76101443D02*
X160037899Y-76149062D01*
X160037899Y-76149062D02*
X160085518Y-76244300D01*
X160085518Y-76244300D02*
X160085518Y-76291919D01*
X160085518Y-76291919D02*
X160037899Y-76387157D01*
X160037899Y-76387157D02*
X159990280Y-76434776D01*
X159990280Y-76434776D02*
X159895042Y-76482395D01*
X159895042Y-76482395D02*
X159704566Y-76482395D01*
X159704566Y-76482395D02*
X159609328Y-76530014D01*
X159609328Y-76530014D02*
X159561709Y-76577633D01*
X159561709Y-76577633D02*
X159514090Y-76672871D01*
X159514090Y-76672871D02*
X159514090Y-76863347D01*
X159514090Y-76863347D02*
X159561709Y-76958585D01*
X159561709Y-76958585D02*
X159609328Y-77006205D01*
X159609328Y-77006205D02*
X159704566Y-77053824D01*
X159704566Y-77053824D02*
X159895042Y-77053824D01*
X159895042Y-77053824D02*
X159990280Y-77006205D01*
X159990280Y-77006205D02*
X160037899Y-76958585D01*
X160037899Y-76958585D02*
X160085518Y-76863347D01*
X160085518Y-76863347D02*
X160085518Y-76672871D01*
X160085518Y-76672871D02*
X160037899Y-76577633D01*
X160037899Y-76577633D02*
X159990280Y-76530014D01*
X159990280Y-76530014D02*
X159895042Y-76482395D01*
X154833333Y-83359580D02*
X154785714Y-83407200D01*
X154785714Y-83407200D02*
X154642857Y-83454819D01*
X154642857Y-83454819D02*
X154547619Y-83454819D01*
X154547619Y-83454819D02*
X154404762Y-83407200D01*
X154404762Y-83407200D02*
X154309524Y-83311961D01*
X154309524Y-83311961D02*
X154261905Y-83216723D01*
X154261905Y-83216723D02*
X154214286Y-83026247D01*
X154214286Y-83026247D02*
X154214286Y-82883390D01*
X154214286Y-82883390D02*
X154261905Y-82692914D01*
X154261905Y-82692914D02*
X154309524Y-82597676D01*
X154309524Y-82597676D02*
X154404762Y-82502438D01*
X154404762Y-82502438D02*
X154547619Y-82454819D01*
X154547619Y-82454819D02*
X154642857Y-82454819D01*
X154642857Y-82454819D02*
X154785714Y-82502438D01*
X154785714Y-82502438D02*
X154833333Y-82550057D01*
X155166667Y-82454819D02*
X155785714Y-82454819D01*
X155785714Y-82454819D02*
X155452381Y-82835771D01*
X155452381Y-82835771D02*
X155595238Y-82835771D01*
X155595238Y-82835771D02*
X155690476Y-82883390D01*
X155690476Y-82883390D02*
X155738095Y-82931009D01*
X155738095Y-82931009D02*
X155785714Y-83026247D01*
X155785714Y-83026247D02*
X155785714Y-83264342D01*
X155785714Y-83264342D02*
X155738095Y-83359580D01*
X155738095Y-83359580D02*
X155690476Y-83407200D01*
X155690476Y-83407200D02*
X155595238Y-83454819D01*
X155595238Y-83454819D02*
X155309524Y-83454819D01*
X155309524Y-83454819D02*
X155214286Y-83407200D01*
X155214286Y-83407200D02*
X155166667Y-83359580D01*
X86037900Y-132186324D02*
X86037900Y-131186324D01*
X86037900Y-131186324D02*
X86275995Y-131186324D01*
X86275995Y-131186324D02*
X86418852Y-131233943D01*
X86418852Y-131233943D02*
X86514090Y-131329181D01*
X86514090Y-131329181D02*
X86561709Y-131424419D01*
X86561709Y-131424419D02*
X86609328Y-131614895D01*
X86609328Y-131614895D02*
X86609328Y-131757752D01*
X86609328Y-131757752D02*
X86561709Y-131948228D01*
X86561709Y-131948228D02*
X86514090Y-132043466D01*
X86514090Y-132043466D02*
X86418852Y-132138705D01*
X86418852Y-132138705D02*
X86275995Y-132186324D01*
X86275995Y-132186324D02*
X86037900Y-132186324D01*
X86990281Y-131281562D02*
X87037900Y-131233943D01*
X87037900Y-131233943D02*
X87133138Y-131186324D01*
X87133138Y-131186324D02*
X87371233Y-131186324D01*
X87371233Y-131186324D02*
X87466471Y-131233943D01*
X87466471Y-131233943D02*
X87514090Y-131281562D01*
X87514090Y-131281562D02*
X87561709Y-131376800D01*
X87561709Y-131376800D02*
X87561709Y-131472038D01*
X87561709Y-131472038D02*
X87514090Y-131614895D01*
X87514090Y-131614895D02*
X86942662Y-132186324D01*
X86942662Y-132186324D02*
X87561709Y-132186324D01*
X154230814Y-107241862D02*
X153754623Y-107575195D01*
X154230814Y-107813290D02*
X153230814Y-107813290D01*
X153230814Y-107813290D02*
X153230814Y-107432338D01*
X153230814Y-107432338D02*
X153278433Y-107337100D01*
X153278433Y-107337100D02*
X153326052Y-107289481D01*
X153326052Y-107289481D02*
X153421290Y-107241862D01*
X153421290Y-107241862D02*
X153564147Y-107241862D01*
X153564147Y-107241862D02*
X153659385Y-107289481D01*
X153659385Y-107289481D02*
X153707004Y-107337100D01*
X153707004Y-107337100D02*
X153754623Y-107432338D01*
X153754623Y-107432338D02*
X153754623Y-107813290D01*
X154230814Y-106289481D02*
X154230814Y-106860909D01*
X154230814Y-106575195D02*
X153230814Y-106575195D01*
X153230814Y-106575195D02*
X153373671Y-106670433D01*
X153373671Y-106670433D02*
X153468909Y-106765671D01*
X153468909Y-106765671D02*
X153516528Y-106860909D01*
X153230814Y-105384719D02*
X153230814Y-105860909D01*
X153230814Y-105860909D02*
X153707004Y-105908528D01*
X153707004Y-105908528D02*
X153659385Y-105860909D01*
X153659385Y-105860909D02*
X153611766Y-105765671D01*
X153611766Y-105765671D02*
X153611766Y-105527576D01*
X153611766Y-105527576D02*
X153659385Y-105432338D01*
X153659385Y-105432338D02*
X153707004Y-105384719D01*
X153707004Y-105384719D02*
X153802242Y-105337100D01*
X153802242Y-105337100D02*
X154040337Y-105337100D01*
X154040337Y-105337100D02*
X154135575Y-105384719D01*
X154135575Y-105384719D02*
X154183195Y-105432338D01*
X154183195Y-105432338D02*
X154230814Y-105527576D01*
X154230814Y-105527576D02*
X154230814Y-105765671D01*
X154230814Y-105765671D02*
X154183195Y-105860909D01*
X154183195Y-105860909D02*
X154135575Y-105908528D01*
X132730814Y-120479120D02*
X132254623Y-120812453D01*
X132730814Y-121050548D02*
X131730814Y-121050548D01*
X131730814Y-121050548D02*
X131730814Y-120669596D01*
X131730814Y-120669596D02*
X131778433Y-120574358D01*
X131778433Y-120574358D02*
X131826052Y-120526739D01*
X131826052Y-120526739D02*
X131921290Y-120479120D01*
X131921290Y-120479120D02*
X132064147Y-120479120D01*
X132064147Y-120479120D02*
X132159385Y-120526739D01*
X132159385Y-120526739D02*
X132207004Y-120574358D01*
X132207004Y-120574358D02*
X132254623Y-120669596D01*
X132254623Y-120669596D02*
X132254623Y-121050548D01*
X132730814Y-119526739D02*
X132730814Y-120098167D01*
X132730814Y-119812453D02*
X131730814Y-119812453D01*
X131730814Y-119812453D02*
X131873671Y-119907691D01*
X131873671Y-119907691D02*
X131968909Y-120002929D01*
X131968909Y-120002929D02*
X132016528Y-120098167D01*
X131730814Y-118669596D02*
X131730814Y-118860072D01*
X131730814Y-118860072D02*
X131778433Y-118955310D01*
X131778433Y-118955310D02*
X131826052Y-119002929D01*
X131826052Y-119002929D02*
X131968909Y-119098167D01*
X131968909Y-119098167D02*
X132159385Y-119145786D01*
X132159385Y-119145786D02*
X132540337Y-119145786D01*
X132540337Y-119145786D02*
X132635575Y-119098167D01*
X132635575Y-119098167D02*
X132683195Y-119050548D01*
X132683195Y-119050548D02*
X132730814Y-118955310D01*
X132730814Y-118955310D02*
X132730814Y-118764834D01*
X132730814Y-118764834D02*
X132683195Y-118669596D01*
X132683195Y-118669596D02*
X132635575Y-118621977D01*
X132635575Y-118621977D02*
X132540337Y-118574358D01*
X132540337Y-118574358D02*
X132302242Y-118574358D01*
X132302242Y-118574358D02*
X132207004Y-118621977D01*
X132207004Y-118621977D02*
X132159385Y-118669596D01*
X132159385Y-118669596D02*
X132111766Y-118764834D01*
X132111766Y-118764834D02*
X132111766Y-118955310D01*
X132111766Y-118955310D02*
X132159385Y-119050548D01*
X132159385Y-119050548D02*
X132207004Y-119098167D01*
X132207004Y-119098167D02*
X132302242Y-119145786D01*
X141621232Y-73553824D02*
X141287899Y-73077633D01*
X141049804Y-73553824D02*
X141049804Y-72553824D01*
X141049804Y-72553824D02*
X141430756Y-72553824D01*
X141430756Y-72553824D02*
X141525994Y-72601443D01*
X141525994Y-72601443D02*
X141573613Y-72649062D01*
X141573613Y-72649062D02*
X141621232Y-72744300D01*
X141621232Y-72744300D02*
X141621232Y-72887157D01*
X141621232Y-72887157D02*
X141573613Y-72982395D01*
X141573613Y-72982395D02*
X141525994Y-73030014D01*
X141525994Y-73030014D02*
X141430756Y-73077633D01*
X141430756Y-73077633D02*
X141049804Y-73077633D01*
X141811709Y-73649062D02*
X142573613Y-73649062D01*
X142811709Y-73553824D02*
X142811709Y-72887157D01*
X142811709Y-73077633D02*
X142859328Y-72982395D01*
X142859328Y-72982395D02*
X142906947Y-72934776D01*
X142906947Y-72934776D02*
X143002185Y-72887157D01*
X143002185Y-72887157D02*
X143097423Y-72887157D01*
X143811709Y-73506205D02*
X143716471Y-73553824D01*
X143716471Y-73553824D02*
X143525995Y-73553824D01*
X143525995Y-73553824D02*
X143430757Y-73506205D01*
X143430757Y-73506205D02*
X143383138Y-73410966D01*
X143383138Y-73410966D02*
X143383138Y-73030014D01*
X143383138Y-73030014D02*
X143430757Y-72934776D01*
X143430757Y-72934776D02*
X143525995Y-72887157D01*
X143525995Y-72887157D02*
X143716471Y-72887157D01*
X143716471Y-72887157D02*
X143811709Y-72934776D01*
X143811709Y-72934776D02*
X143859328Y-73030014D01*
X143859328Y-73030014D02*
X143859328Y-73125252D01*
X143859328Y-73125252D02*
X143383138Y-73220490D01*
X144240281Y-73506205D02*
X144335519Y-73553824D01*
X144335519Y-73553824D02*
X144525995Y-73553824D01*
X144525995Y-73553824D02*
X144621233Y-73506205D01*
X144621233Y-73506205D02*
X144668852Y-73410966D01*
X144668852Y-73410966D02*
X144668852Y-73363347D01*
X144668852Y-73363347D02*
X144621233Y-73268109D01*
X144621233Y-73268109D02*
X144525995Y-73220490D01*
X144525995Y-73220490D02*
X144383138Y-73220490D01*
X144383138Y-73220490D02*
X144287900Y-73172871D01*
X144287900Y-73172871D02*
X144240281Y-73077633D01*
X144240281Y-73077633D02*
X144240281Y-73030014D01*
X144240281Y-73030014D02*
X144287900Y-72934776D01*
X144287900Y-72934776D02*
X144383138Y-72887157D01*
X144383138Y-72887157D02*
X144525995Y-72887157D01*
X144525995Y-72887157D02*
X144621233Y-72934776D01*
X145478376Y-73506205D02*
X145383138Y-73553824D01*
X145383138Y-73553824D02*
X145192662Y-73553824D01*
X145192662Y-73553824D02*
X145097424Y-73506205D01*
X145097424Y-73506205D02*
X145049805Y-73410966D01*
X145049805Y-73410966D02*
X145049805Y-73030014D01*
X145049805Y-73030014D02*
X145097424Y-72934776D01*
X145097424Y-72934776D02*
X145192662Y-72887157D01*
X145192662Y-72887157D02*
X145383138Y-72887157D01*
X145383138Y-72887157D02*
X145478376Y-72934776D01*
X145478376Y-72934776D02*
X145525995Y-73030014D01*
X145525995Y-73030014D02*
X145525995Y-73125252D01*
X145525995Y-73125252D02*
X145049805Y-73220490D01*
X145811710Y-72887157D02*
X146192662Y-72887157D01*
X145954567Y-72553824D02*
X145954567Y-73410966D01*
X145954567Y-73410966D02*
X146002186Y-73506205D01*
X146002186Y-73506205D02*
X146097424Y-73553824D01*
X146097424Y-73553824D02*
X146192662Y-73553824D01*
X147049805Y-73553824D02*
X146478377Y-73553824D01*
X146764091Y-73553824D02*
X146764091Y-72553824D01*
X146764091Y-72553824D02*
X146668853Y-72696681D01*
X146668853Y-72696681D02*
X146573615Y-72791919D01*
X146573615Y-72791919D02*
X146478377Y-72839538D01*
X175264090Y-70853824D02*
X175264090Y-69853824D01*
X175264090Y-70330014D02*
X175835518Y-70330014D01*
X175835518Y-70853824D02*
X175835518Y-69853824D01*
X176787899Y-69853824D02*
X176311709Y-69853824D01*
X176311709Y-69853824D02*
X176264090Y-70330014D01*
X176264090Y-70330014D02*
X176311709Y-70282395D01*
X176311709Y-70282395D02*
X176406947Y-70234776D01*
X176406947Y-70234776D02*
X176645042Y-70234776D01*
X176645042Y-70234776D02*
X176740280Y-70282395D01*
X176740280Y-70282395D02*
X176787899Y-70330014D01*
X176787899Y-70330014D02*
X176835518Y-70425252D01*
X176835518Y-70425252D02*
X176835518Y-70663347D01*
X176835518Y-70663347D02*
X176787899Y-70758585D01*
X176787899Y-70758585D02*
X176740280Y-70806205D01*
X176740280Y-70806205D02*
X176645042Y-70853824D01*
X176645042Y-70853824D02*
X176406947Y-70853824D01*
X176406947Y-70853824D02*
X176311709Y-70806205D01*
X176311709Y-70806205D02*
X176264090Y-70758585D01*
X161133137Y-94053824D02*
X160799804Y-93577633D01*
X160561709Y-94053824D02*
X160561709Y-93053824D01*
X160561709Y-93053824D02*
X160942661Y-93053824D01*
X160942661Y-93053824D02*
X161037899Y-93101443D01*
X161037899Y-93101443D02*
X161085518Y-93149062D01*
X161085518Y-93149062D02*
X161133137Y-93244300D01*
X161133137Y-93244300D02*
X161133137Y-93387157D01*
X161133137Y-93387157D02*
X161085518Y-93482395D01*
X161085518Y-93482395D02*
X161037899Y-93530014D01*
X161037899Y-93530014D02*
X160942661Y-93577633D01*
X160942661Y-93577633D02*
X160561709Y-93577633D01*
X162085518Y-94053824D02*
X161514090Y-94053824D01*
X161799804Y-94053824D02*
X161799804Y-93053824D01*
X161799804Y-93053824D02*
X161704566Y-93196681D01*
X161704566Y-93196681D02*
X161609328Y-93291919D01*
X161609328Y-93291919D02*
X161514090Y-93339538D01*
X162418852Y-93053824D02*
X163085518Y-93053824D01*
X163085518Y-93053824D02*
X162656947Y-94053824D01*
X112154761Y-108109580D02*
X112107142Y-108157200D01*
X112107142Y-108157200D02*
X111964285Y-108204819D01*
X111964285Y-108204819D02*
X111869047Y-108204819D01*
X111869047Y-108204819D02*
X111726190Y-108157200D01*
X111726190Y-108157200D02*
X111630952Y-108061961D01*
X111630952Y-108061961D02*
X111583333Y-107966723D01*
X111583333Y-107966723D02*
X111535714Y-107776247D01*
X111535714Y-107776247D02*
X111535714Y-107633390D01*
X111535714Y-107633390D02*
X111583333Y-107442914D01*
X111583333Y-107442914D02*
X111630952Y-107347676D01*
X111630952Y-107347676D02*
X111726190Y-107252438D01*
X111726190Y-107252438D02*
X111869047Y-107204819D01*
X111869047Y-107204819D02*
X111964285Y-107204819D01*
X111964285Y-107204819D02*
X112107142Y-107252438D01*
X112107142Y-107252438D02*
X112154761Y-107300057D01*
X113011904Y-108157200D02*
X112916666Y-108204819D01*
X112916666Y-108204819D02*
X112726190Y-108204819D01*
X112726190Y-108204819D02*
X112630952Y-108157200D01*
X112630952Y-108157200D02*
X112583333Y-108109580D01*
X112583333Y-108109580D02*
X112535714Y-108014342D01*
X112535714Y-108014342D02*
X112535714Y-107728628D01*
X112535714Y-107728628D02*
X112583333Y-107633390D01*
X112583333Y-107633390D02*
X112630952Y-107585771D01*
X112630952Y-107585771D02*
X112726190Y-107538152D01*
X112726190Y-107538152D02*
X112916666Y-107538152D01*
X112916666Y-107538152D02*
X113011904Y-107585771D01*
X113964285Y-108204819D02*
X113392857Y-108204819D01*
X113678571Y-108204819D02*
X113678571Y-107204819D01*
X113678571Y-107204819D02*
X113583333Y-107347676D01*
X113583333Y-107347676D02*
X113488095Y-107442914D01*
X113488095Y-107442914D02*
X113392857Y-107490533D01*
X109156947Y-65053824D02*
X108680757Y-65053824D01*
X108680757Y-65053824D02*
X108680757Y-64053824D01*
X109490281Y-64530014D02*
X109823614Y-64530014D01*
X109966471Y-65053824D02*
X109490281Y-65053824D01*
X109490281Y-65053824D02*
X109490281Y-64053824D01*
X109490281Y-64053824D02*
X109966471Y-64053824D01*
X110395043Y-65053824D02*
X110395043Y-64053824D01*
X110395043Y-64053824D02*
X110633138Y-64053824D01*
X110633138Y-64053824D02*
X110775995Y-64101443D01*
X110775995Y-64101443D02*
X110871233Y-64196681D01*
X110871233Y-64196681D02*
X110918852Y-64291919D01*
X110918852Y-64291919D02*
X110966471Y-64482395D01*
X110966471Y-64482395D02*
X110966471Y-64625252D01*
X110966471Y-64625252D02*
X110918852Y-64815728D01*
X110918852Y-64815728D02*
X110871233Y-64910966D01*
X110871233Y-64910966D02*
X110775995Y-65006205D01*
X110775995Y-65006205D02*
X110633138Y-65053824D01*
X110633138Y-65053824D02*
X110395043Y-65053824D01*
X111918852Y-65053824D02*
X111347424Y-65053824D01*
X111633138Y-65053824D02*
X111633138Y-64053824D01*
X111633138Y-64053824D02*
X111537900Y-64196681D01*
X111537900Y-64196681D02*
X111442662Y-64291919D01*
X111442662Y-64291919D02*
X111347424Y-64339538D01*
X170480814Y-85741862D02*
X170004623Y-86075195D01*
X170480814Y-86313290D02*
X169480814Y-86313290D01*
X169480814Y-86313290D02*
X169480814Y-85932338D01*
X169480814Y-85932338D02*
X169528433Y-85837100D01*
X169528433Y-85837100D02*
X169576052Y-85789481D01*
X169576052Y-85789481D02*
X169671290Y-85741862D01*
X169671290Y-85741862D02*
X169814147Y-85741862D01*
X169814147Y-85741862D02*
X169909385Y-85789481D01*
X169909385Y-85789481D02*
X169957004Y-85837100D01*
X169957004Y-85837100D02*
X170004623Y-85932338D01*
X170004623Y-85932338D02*
X170004623Y-86313290D01*
X170480814Y-84789481D02*
X170480814Y-85360909D01*
X170480814Y-85075195D02*
X169480814Y-85075195D01*
X169480814Y-85075195D02*
X169623671Y-85170433D01*
X169623671Y-85170433D02*
X169718909Y-85265671D01*
X169718909Y-85265671D02*
X169766528Y-85360909D01*
X170480814Y-84313290D02*
X170480814Y-84122814D01*
X170480814Y-84122814D02*
X170433195Y-84027576D01*
X170433195Y-84027576D02*
X170385575Y-83979957D01*
X170385575Y-83979957D02*
X170242718Y-83884719D01*
X170242718Y-83884719D02*
X170052242Y-83837100D01*
X170052242Y-83837100D02*
X169671290Y-83837100D01*
X169671290Y-83837100D02*
X169576052Y-83884719D01*
X169576052Y-83884719D02*
X169528433Y-83932338D01*
X169528433Y-83932338D02*
X169480814Y-84027576D01*
X169480814Y-84027576D02*
X169480814Y-84218052D01*
X169480814Y-84218052D02*
X169528433Y-84313290D01*
X169528433Y-84313290D02*
X169576052Y-84360909D01*
X169576052Y-84360909D02*
X169671290Y-84408528D01*
X169671290Y-84408528D02*
X169909385Y-84408528D01*
X169909385Y-84408528D02*
X170004623Y-84360909D01*
X170004623Y-84360909D02*
X170052242Y-84313290D01*
X170052242Y-84313290D02*
X170099861Y-84218052D01*
X170099861Y-84218052D02*
X170099861Y-84027576D01*
X170099861Y-84027576D02*
X170052242Y-83932338D01*
X170052242Y-83932338D02*
X170004623Y-83884719D01*
X170004623Y-83884719D02*
X169909385Y-83837100D01*
X166680756Y-83149062D02*
X166585518Y-83101443D01*
X166585518Y-83101443D02*
X166490280Y-83006205D01*
X166490280Y-83006205D02*
X166347423Y-82863347D01*
X166347423Y-82863347D02*
X166252185Y-82815728D01*
X166252185Y-82815728D02*
X166156947Y-82815728D01*
X166204566Y-83053824D02*
X166109328Y-83006205D01*
X166109328Y-83006205D02*
X166014090Y-82910966D01*
X166014090Y-82910966D02*
X165966471Y-82720490D01*
X165966471Y-82720490D02*
X165966471Y-82387157D01*
X165966471Y-82387157D02*
X166014090Y-82196681D01*
X166014090Y-82196681D02*
X166109328Y-82101443D01*
X166109328Y-82101443D02*
X166204566Y-82053824D01*
X166204566Y-82053824D02*
X166395042Y-82053824D01*
X166395042Y-82053824D02*
X166490280Y-82101443D01*
X166490280Y-82101443D02*
X166585518Y-82196681D01*
X166585518Y-82196681D02*
X166633137Y-82387157D01*
X166633137Y-82387157D02*
X166633137Y-82720490D01*
X166633137Y-82720490D02*
X166585518Y-82910966D01*
X166585518Y-82910966D02*
X166490280Y-83006205D01*
X166490280Y-83006205D02*
X166395042Y-83053824D01*
X166395042Y-83053824D02*
X166204566Y-83053824D01*
X166966471Y-82053824D02*
X167585518Y-82053824D01*
X167585518Y-82053824D02*
X167252185Y-82434776D01*
X167252185Y-82434776D02*
X167395042Y-82434776D01*
X167395042Y-82434776D02*
X167490280Y-82482395D01*
X167490280Y-82482395D02*
X167537899Y-82530014D01*
X167537899Y-82530014D02*
X167585518Y-82625252D01*
X167585518Y-82625252D02*
X167585518Y-82863347D01*
X167585518Y-82863347D02*
X167537899Y-82958585D01*
X167537899Y-82958585D02*
X167490280Y-83006205D01*
X167490280Y-83006205D02*
X167395042Y-83053824D01*
X167395042Y-83053824D02*
X167109328Y-83053824D01*
X167109328Y-83053824D02*
X167014090Y-83006205D01*
X167014090Y-83006205D02*
X166966471Y-82958585D01*
X172480814Y-125741862D02*
X172004623Y-126075195D01*
X172480814Y-126313290D02*
X171480814Y-126313290D01*
X171480814Y-126313290D02*
X171480814Y-125932338D01*
X171480814Y-125932338D02*
X171528433Y-125837100D01*
X171528433Y-125837100D02*
X171576052Y-125789481D01*
X171576052Y-125789481D02*
X171671290Y-125741862D01*
X171671290Y-125741862D02*
X171814147Y-125741862D01*
X171814147Y-125741862D02*
X171909385Y-125789481D01*
X171909385Y-125789481D02*
X171957004Y-125837100D01*
X171957004Y-125837100D02*
X172004623Y-125932338D01*
X172004623Y-125932338D02*
X172004623Y-126313290D01*
X172480814Y-124789481D02*
X172480814Y-125360909D01*
X172480814Y-125075195D02*
X171480814Y-125075195D01*
X171480814Y-125075195D02*
X171623671Y-125170433D01*
X171623671Y-125170433D02*
X171718909Y-125265671D01*
X171718909Y-125265671D02*
X171766528Y-125360909D01*
X171480814Y-124170433D02*
X171480814Y-124075195D01*
X171480814Y-124075195D02*
X171528433Y-123979957D01*
X171528433Y-123979957D02*
X171576052Y-123932338D01*
X171576052Y-123932338D02*
X171671290Y-123884719D01*
X171671290Y-123884719D02*
X171861766Y-123837100D01*
X171861766Y-123837100D02*
X172099861Y-123837100D01*
X172099861Y-123837100D02*
X172290337Y-123884719D01*
X172290337Y-123884719D02*
X172385575Y-123932338D01*
X172385575Y-123932338D02*
X172433195Y-123979957D01*
X172433195Y-123979957D02*
X172480814Y-124075195D01*
X172480814Y-124075195D02*
X172480814Y-124170433D01*
X172480814Y-124170433D02*
X172433195Y-124265671D01*
X172433195Y-124265671D02*
X172385575Y-124313290D01*
X172385575Y-124313290D02*
X172290337Y-124360909D01*
X172290337Y-124360909D02*
X172099861Y-124408528D01*
X172099861Y-124408528D02*
X171861766Y-124408528D01*
X171861766Y-124408528D02*
X171671290Y-124360909D01*
X171671290Y-124360909D02*
X171576052Y-124313290D01*
X171576052Y-124313290D02*
X171528433Y-124265671D01*
X171528433Y-124265671D02*
X171480814Y-124170433D01*
X92859328Y-80733824D02*
X92525995Y-80257633D01*
X92287900Y-80733824D02*
X92287900Y-79733824D01*
X92287900Y-79733824D02*
X92668852Y-79733824D01*
X92668852Y-79733824D02*
X92764090Y-79781443D01*
X92764090Y-79781443D02*
X92811709Y-79829062D01*
X92811709Y-79829062D02*
X92859328Y-79924300D01*
X92859328Y-79924300D02*
X92859328Y-80067157D01*
X92859328Y-80067157D02*
X92811709Y-80162395D01*
X92811709Y-80162395D02*
X92764090Y-80210014D01*
X92764090Y-80210014D02*
X92668852Y-80257633D01*
X92668852Y-80257633D02*
X92287900Y-80257633D01*
X93192662Y-79733824D02*
X93859328Y-79733824D01*
X93859328Y-79733824D02*
X93430757Y-80733824D01*
X148230814Y-135265671D02*
X147754623Y-135599004D01*
X148230814Y-135837099D02*
X147230814Y-135837099D01*
X147230814Y-135837099D02*
X147230814Y-135456147D01*
X147230814Y-135456147D02*
X147278433Y-135360909D01*
X147278433Y-135360909D02*
X147326052Y-135313290D01*
X147326052Y-135313290D02*
X147421290Y-135265671D01*
X147421290Y-135265671D02*
X147564147Y-135265671D01*
X147564147Y-135265671D02*
X147659385Y-135313290D01*
X147659385Y-135313290D02*
X147707004Y-135360909D01*
X147707004Y-135360909D02*
X147754623Y-135456147D01*
X147754623Y-135456147D02*
X147754623Y-135837099D01*
X147326052Y-134884718D02*
X147278433Y-134837099D01*
X147278433Y-134837099D02*
X147230814Y-134741861D01*
X147230814Y-134741861D02*
X147230814Y-134503766D01*
X147230814Y-134503766D02*
X147278433Y-134408528D01*
X147278433Y-134408528D02*
X147326052Y-134360909D01*
X147326052Y-134360909D02*
X147421290Y-134313290D01*
X147421290Y-134313290D02*
X147516528Y-134313290D01*
X147516528Y-134313290D02*
X147659385Y-134360909D01*
X147659385Y-134360909D02*
X148230814Y-134932337D01*
X148230814Y-134932337D02*
X148230814Y-134313290D01*
X126216471Y-108683824D02*
X126216471Y-107683824D01*
X126216471Y-107683824D02*
X126549804Y-108398109D01*
X126549804Y-108398109D02*
X126883137Y-107683824D01*
X126883137Y-107683824D02*
X126883137Y-108683824D01*
X127883137Y-108683824D02*
X127311709Y-108683824D01*
X127597423Y-108683824D02*
X127597423Y-107683824D01*
X127597423Y-107683824D02*
X127502185Y-107826681D01*
X127502185Y-107826681D02*
X127406947Y-107921919D01*
X127406947Y-107921919D02*
X127311709Y-107969538D01*
X161511905Y-117704819D02*
X161511905Y-116704819D01*
X161511905Y-116704819D02*
X161750000Y-116704819D01*
X161750000Y-116704819D02*
X161892857Y-116752438D01*
X161892857Y-116752438D02*
X161988095Y-116847676D01*
X161988095Y-116847676D02*
X162035714Y-116942914D01*
X162035714Y-116942914D02*
X162083333Y-117133390D01*
X162083333Y-117133390D02*
X162083333Y-117276247D01*
X162083333Y-117276247D02*
X162035714Y-117466723D01*
X162035714Y-117466723D02*
X161988095Y-117561961D01*
X161988095Y-117561961D02*
X161892857Y-117657200D01*
X161892857Y-117657200D02*
X161750000Y-117704819D01*
X161750000Y-117704819D02*
X161511905Y-117704819D01*
X162654762Y-117133390D02*
X162559524Y-117085771D01*
X162559524Y-117085771D02*
X162511905Y-117038152D01*
X162511905Y-117038152D02*
X162464286Y-116942914D01*
X162464286Y-116942914D02*
X162464286Y-116895295D01*
X162464286Y-116895295D02*
X162511905Y-116800057D01*
X162511905Y-116800057D02*
X162559524Y-116752438D01*
X162559524Y-116752438D02*
X162654762Y-116704819D01*
X162654762Y-116704819D02*
X162845238Y-116704819D01*
X162845238Y-116704819D02*
X162940476Y-116752438D01*
X162940476Y-116752438D02*
X162988095Y-116800057D01*
X162988095Y-116800057D02*
X163035714Y-116895295D01*
X163035714Y-116895295D02*
X163035714Y-116942914D01*
X163035714Y-116942914D02*
X162988095Y-117038152D01*
X162988095Y-117038152D02*
X162940476Y-117085771D01*
X162940476Y-117085771D02*
X162845238Y-117133390D01*
X162845238Y-117133390D02*
X162654762Y-117133390D01*
X162654762Y-117133390D02*
X162559524Y-117181009D01*
X162559524Y-117181009D02*
X162511905Y-117228628D01*
X162511905Y-117228628D02*
X162464286Y-117323866D01*
X162464286Y-117323866D02*
X162464286Y-117514342D01*
X162464286Y-117514342D02*
X162511905Y-117609580D01*
X162511905Y-117609580D02*
X162559524Y-117657200D01*
X162559524Y-117657200D02*
X162654762Y-117704819D01*
X162654762Y-117704819D02*
X162845238Y-117704819D01*
X162845238Y-117704819D02*
X162940476Y-117657200D01*
X162940476Y-117657200D02*
X162988095Y-117609580D01*
X162988095Y-117609580D02*
X163035714Y-117514342D01*
X163035714Y-117514342D02*
X163035714Y-117323866D01*
X163035714Y-117323866D02*
X162988095Y-117228628D01*
X162988095Y-117228628D02*
X162940476Y-117181009D01*
X162940476Y-117181009D02*
X162845238Y-117133390D01*
X100180756Y-112208585D02*
X100133137Y-112256205D01*
X100133137Y-112256205D02*
X99990280Y-112303824D01*
X99990280Y-112303824D02*
X99895042Y-112303824D01*
X99895042Y-112303824D02*
X99752185Y-112256205D01*
X99752185Y-112256205D02*
X99656947Y-112160966D01*
X99656947Y-112160966D02*
X99609328Y-112065728D01*
X99609328Y-112065728D02*
X99561709Y-111875252D01*
X99561709Y-111875252D02*
X99561709Y-111732395D01*
X99561709Y-111732395D02*
X99609328Y-111541919D01*
X99609328Y-111541919D02*
X99656947Y-111446681D01*
X99656947Y-111446681D02*
X99752185Y-111351443D01*
X99752185Y-111351443D02*
X99895042Y-111303824D01*
X99895042Y-111303824D02*
X99990280Y-111303824D01*
X99990280Y-111303824D02*
X100133137Y-111351443D01*
X100133137Y-111351443D02*
X100180756Y-111399062D01*
X101037899Y-112256205D02*
X100942661Y-112303824D01*
X100942661Y-112303824D02*
X100752185Y-112303824D01*
X100752185Y-112303824D02*
X100656947Y-112256205D01*
X100656947Y-112256205D02*
X100609328Y-112208585D01*
X100609328Y-112208585D02*
X100561709Y-112113347D01*
X100561709Y-112113347D02*
X100561709Y-111827633D01*
X100561709Y-111827633D02*
X100609328Y-111732395D01*
X100609328Y-111732395D02*
X100656947Y-111684776D01*
X100656947Y-111684776D02*
X100752185Y-111637157D01*
X100752185Y-111637157D02*
X100942661Y-111637157D01*
X100942661Y-111637157D02*
X101037899Y-111684776D01*
X101371233Y-111303824D02*
X101990280Y-111303824D01*
X101990280Y-111303824D02*
X101656947Y-111684776D01*
X101656947Y-111684776D02*
X101799804Y-111684776D01*
X101799804Y-111684776D02*
X101895042Y-111732395D01*
X101895042Y-111732395D02*
X101942661Y-111780014D01*
X101942661Y-111780014D02*
X101990280Y-111875252D01*
X101990280Y-111875252D02*
X101990280Y-112113347D01*
X101990280Y-112113347D02*
X101942661Y-112208585D01*
X101942661Y-112208585D02*
X101895042Y-112256205D01*
X101895042Y-112256205D02*
X101799804Y-112303824D01*
X101799804Y-112303824D02*
X101514090Y-112303824D01*
X101514090Y-112303824D02*
X101418852Y-112256205D01*
X101418852Y-112256205D02*
X101371233Y-112208585D01*
X159180756Y-70899062D02*
X159085518Y-70851443D01*
X159085518Y-70851443D02*
X158990280Y-70756205D01*
X158990280Y-70756205D02*
X158847423Y-70613347D01*
X158847423Y-70613347D02*
X158752185Y-70565728D01*
X158752185Y-70565728D02*
X158656947Y-70565728D01*
X158704566Y-70803824D02*
X158609328Y-70756205D01*
X158609328Y-70756205D02*
X158514090Y-70660966D01*
X158514090Y-70660966D02*
X158466471Y-70470490D01*
X158466471Y-70470490D02*
X158466471Y-70137157D01*
X158466471Y-70137157D02*
X158514090Y-69946681D01*
X158514090Y-69946681D02*
X158609328Y-69851443D01*
X158609328Y-69851443D02*
X158704566Y-69803824D01*
X158704566Y-69803824D02*
X158895042Y-69803824D01*
X158895042Y-69803824D02*
X158990280Y-69851443D01*
X158990280Y-69851443D02*
X159085518Y-69946681D01*
X159085518Y-69946681D02*
X159133137Y-70137157D01*
X159133137Y-70137157D02*
X159133137Y-70470490D01*
X159133137Y-70470490D02*
X159085518Y-70660966D01*
X159085518Y-70660966D02*
X158990280Y-70756205D01*
X158990280Y-70756205D02*
X158895042Y-70803824D01*
X158895042Y-70803824D02*
X158704566Y-70803824D01*
X159466471Y-69803824D02*
X160133137Y-69803824D01*
X160133137Y-69803824D02*
X159704566Y-70803824D01*
X141109328Y-102733824D02*
X140775995Y-102257633D01*
X140537900Y-102733824D02*
X140537900Y-101733824D01*
X140537900Y-101733824D02*
X140918852Y-101733824D01*
X140918852Y-101733824D02*
X141014090Y-101781443D01*
X141014090Y-101781443D02*
X141061709Y-101829062D01*
X141061709Y-101829062D02*
X141109328Y-101924300D01*
X141109328Y-101924300D02*
X141109328Y-102067157D01*
X141109328Y-102067157D02*
X141061709Y-102162395D01*
X141061709Y-102162395D02*
X141014090Y-102210014D01*
X141014090Y-102210014D02*
X140918852Y-102257633D01*
X140918852Y-102257633D02*
X140537900Y-102257633D01*
X141680757Y-102162395D02*
X141585519Y-102114776D01*
X141585519Y-102114776D02*
X141537900Y-102067157D01*
X141537900Y-102067157D02*
X141490281Y-101971919D01*
X141490281Y-101971919D02*
X141490281Y-101924300D01*
X141490281Y-101924300D02*
X141537900Y-101829062D01*
X141537900Y-101829062D02*
X141585519Y-101781443D01*
X141585519Y-101781443D02*
X141680757Y-101733824D01*
X141680757Y-101733824D02*
X141871233Y-101733824D01*
X141871233Y-101733824D02*
X141966471Y-101781443D01*
X141966471Y-101781443D02*
X142014090Y-101829062D01*
X142014090Y-101829062D02*
X142061709Y-101924300D01*
X142061709Y-101924300D02*
X142061709Y-101971919D01*
X142061709Y-101971919D02*
X142014090Y-102067157D01*
X142014090Y-102067157D02*
X141966471Y-102114776D01*
X141966471Y-102114776D02*
X141871233Y-102162395D01*
X141871233Y-102162395D02*
X141680757Y-102162395D01*
X141680757Y-102162395D02*
X141585519Y-102210014D01*
X141585519Y-102210014D02*
X141537900Y-102257633D01*
X141537900Y-102257633D02*
X141490281Y-102352871D01*
X141490281Y-102352871D02*
X141490281Y-102543347D01*
X141490281Y-102543347D02*
X141537900Y-102638585D01*
X141537900Y-102638585D02*
X141585519Y-102686205D01*
X141585519Y-102686205D02*
X141680757Y-102733824D01*
X141680757Y-102733824D02*
X141871233Y-102733824D01*
X141871233Y-102733824D02*
X141966471Y-102686205D01*
X141966471Y-102686205D02*
X142014090Y-102638585D01*
X142014090Y-102638585D02*
X142061709Y-102543347D01*
X142061709Y-102543347D02*
X142061709Y-102352871D01*
X142061709Y-102352871D02*
X142014090Y-102257633D01*
X142014090Y-102257633D02*
X141966471Y-102210014D01*
X141966471Y-102210014D02*
X141871233Y-102162395D01*
X85264090Y-138353824D02*
X85264090Y-137353824D01*
X85264090Y-137830014D02*
X85835518Y-137830014D01*
X85835518Y-138353824D02*
X85835518Y-137353824D01*
X86264090Y-137449062D02*
X86311709Y-137401443D01*
X86311709Y-137401443D02*
X86406947Y-137353824D01*
X86406947Y-137353824D02*
X86645042Y-137353824D01*
X86645042Y-137353824D02*
X86740280Y-137401443D01*
X86740280Y-137401443D02*
X86787899Y-137449062D01*
X86787899Y-137449062D02*
X86835518Y-137544300D01*
X86835518Y-137544300D02*
X86835518Y-137639538D01*
X86835518Y-137639538D02*
X86787899Y-137782395D01*
X86787899Y-137782395D02*
X86216471Y-138353824D01*
X86216471Y-138353824D02*
X86835518Y-138353824D01*
X142514090Y-92803824D02*
X142514090Y-93613347D01*
X142514090Y-93613347D02*
X142561709Y-93708585D01*
X142561709Y-93708585D02*
X142609328Y-93756205D01*
X142609328Y-93756205D02*
X142704566Y-93803824D01*
X142704566Y-93803824D02*
X142895042Y-93803824D01*
X142895042Y-93803824D02*
X142990280Y-93756205D01*
X142990280Y-93756205D02*
X143037899Y-93708585D01*
X143037899Y-93708585D02*
X143085518Y-93613347D01*
X143085518Y-93613347D02*
X143085518Y-92803824D01*
X143466471Y-92803824D02*
X144085518Y-92803824D01*
X144085518Y-92803824D02*
X143752185Y-93184776D01*
X143752185Y-93184776D02*
X143895042Y-93184776D01*
X143895042Y-93184776D02*
X143990280Y-93232395D01*
X143990280Y-93232395D02*
X144037899Y-93280014D01*
X144037899Y-93280014D02*
X144085518Y-93375252D01*
X144085518Y-93375252D02*
X144085518Y-93613347D01*
X144085518Y-93613347D02*
X144037899Y-93708585D01*
X144037899Y-93708585D02*
X143990280Y-93756205D01*
X143990280Y-93756205D02*
X143895042Y-93803824D01*
X143895042Y-93803824D02*
X143609328Y-93803824D01*
X143609328Y-93803824D02*
X143514090Y-93756205D01*
X143514090Y-93756205D02*
X143466471Y-93708585D01*
X132859328Y-129553824D02*
X132383138Y-129553824D01*
X132383138Y-129553824D02*
X132383138Y-128553824D01*
X133145043Y-128649062D02*
X133192662Y-128601443D01*
X133192662Y-128601443D02*
X133287900Y-128553824D01*
X133287900Y-128553824D02*
X133525995Y-128553824D01*
X133525995Y-128553824D02*
X133621233Y-128601443D01*
X133621233Y-128601443D02*
X133668852Y-128649062D01*
X133668852Y-128649062D02*
X133716471Y-128744300D01*
X133716471Y-128744300D02*
X133716471Y-128839538D01*
X133716471Y-128839538D02*
X133668852Y-128982395D01*
X133668852Y-128982395D02*
X133097424Y-129553824D01*
X133097424Y-129553824D02*
X133716471Y-129553824D01*
X163613137Y-81333824D02*
X163279804Y-80857633D01*
X163041709Y-81333824D02*
X163041709Y-80333824D01*
X163041709Y-80333824D02*
X163422661Y-80333824D01*
X163422661Y-80333824D02*
X163517899Y-80381443D01*
X163517899Y-80381443D02*
X163565518Y-80429062D01*
X163565518Y-80429062D02*
X163613137Y-80524300D01*
X163613137Y-80524300D02*
X163613137Y-80667157D01*
X163613137Y-80667157D02*
X163565518Y-80762395D01*
X163565518Y-80762395D02*
X163517899Y-80810014D01*
X163517899Y-80810014D02*
X163422661Y-80857633D01*
X163422661Y-80857633D02*
X163041709Y-80857633D01*
X164565518Y-81333824D02*
X163994090Y-81333824D01*
X164279804Y-81333824D02*
X164279804Y-80333824D01*
X164279804Y-80333824D02*
X164184566Y-80476681D01*
X164184566Y-80476681D02*
X164089328Y-80571919D01*
X164089328Y-80571919D02*
X163994090Y-80619538D01*
X164898852Y-80333824D02*
X165517899Y-80333824D01*
X165517899Y-80333824D02*
X165184566Y-80714776D01*
X165184566Y-80714776D02*
X165327423Y-80714776D01*
X165327423Y-80714776D02*
X165422661Y-80762395D01*
X165422661Y-80762395D02*
X165470280Y-80810014D01*
X165470280Y-80810014D02*
X165517899Y-80905252D01*
X165517899Y-80905252D02*
X165517899Y-81143347D01*
X165517899Y-81143347D02*
X165470280Y-81238585D01*
X165470280Y-81238585D02*
X165422661Y-81286205D01*
X165422661Y-81286205D02*
X165327423Y-81333824D01*
X165327423Y-81333824D02*
X165041709Y-81333824D01*
X165041709Y-81333824D02*
X164946471Y-81286205D01*
X164946471Y-81286205D02*
X164898852Y-81238585D01*
X111514090Y-117053824D02*
X112085518Y-117053824D01*
X111799804Y-118053824D02*
X111799804Y-117053824D01*
X112418852Y-118053824D02*
X112418852Y-117053824D01*
X112418852Y-117053824D02*
X112799804Y-117053824D01*
X112799804Y-117053824D02*
X112895042Y-117101443D01*
X112895042Y-117101443D02*
X112942661Y-117149062D01*
X112942661Y-117149062D02*
X112990280Y-117244300D01*
X112990280Y-117244300D02*
X112990280Y-117387157D01*
X112990280Y-117387157D02*
X112942661Y-117482395D01*
X112942661Y-117482395D02*
X112895042Y-117530014D01*
X112895042Y-117530014D02*
X112799804Y-117577633D01*
X112799804Y-117577633D02*
X112418852Y-117577633D01*
X113847423Y-117387157D02*
X113847423Y-118053824D01*
X113609328Y-117006205D02*
X113371233Y-117720490D01*
X113371233Y-117720490D02*
X113990280Y-117720490D01*
D15*
%TO.C,Ruv2*%
X115307495Y-105586263D02*
X115307495Y-105111747D01*
X116352495Y-105586263D02*
X116352495Y-105111747D01*
D16*
%TO.C,L3*%
X157624500Y-113548005D02*
X157624500Y-99548005D01*
X161769000Y-99549005D02*
X157624500Y-99549005D01*
X161769000Y-113549005D02*
X157624500Y-113549005D01*
X170623000Y-99549005D02*
X166731000Y-99549005D01*
X170623000Y-99549005D02*
X170623000Y-113549005D01*
X170623000Y-113549005D02*
X166731000Y-113549005D01*
D15*
%TO.C,Rilim1*%
X118695237Y-114775505D02*
X119169753Y-114775505D01*
X118695237Y-115820505D02*
X119169753Y-115820505D01*
%TO.C,TP2*%
X85575995Y-132899005D02*
X85575995Y-134799005D01*
X85575995Y-134799005D02*
X87425995Y-134799005D01*
X87425995Y-132899005D02*
X85575995Y-132899005D01*
X87425995Y-132949005D02*
X87425995Y-132899005D01*
X87425995Y-134799005D02*
X87425995Y-132949005D01*
%TO.C,C1*%
X97860415Y-75589005D02*
X98141575Y-75589005D01*
X97860415Y-76609005D02*
X98141575Y-76609005D01*
D12*
%TO.C,JP1*%
X147822195Y-90834005D02*
X148322195Y-90334005D01*
X147822195Y-91634005D02*
X147822195Y-90834005D01*
X148322195Y-90334005D02*
X151922195Y-90334005D01*
X148322195Y-92134005D02*
X147822195Y-91634005D01*
X151922195Y-90334005D02*
X152422195Y-90834005D01*
X151922195Y-92134005D02*
X148322195Y-92134005D01*
X152422195Y-90834005D02*
X152422195Y-91634005D01*
X152422195Y-91634005D02*
X151922195Y-92134005D01*
D16*
%TO.C,R11*%
X155275995Y-83809005D02*
X157652995Y-83809005D01*
X155275995Y-86186005D02*
X155275995Y-83809005D01*
X155275995Y-90809005D02*
X155275995Y-88432005D01*
X157652995Y-90809005D02*
X155275995Y-90809005D01*
X159898995Y-90809005D02*
X162185995Y-90809005D01*
X162115995Y-83809005D02*
X159898995Y-83809005D01*
X162185995Y-83879005D02*
X162115995Y-83809005D01*
X162185995Y-90809005D02*
X162185995Y-83879005D01*
D10*
%TO.C,U15*%
X139275995Y-94099005D02*
X139275995Y-105099005D01*
X139275995Y-105099005D02*
X157275995Y-105099005D01*
X157275995Y-94099005D02*
X139275995Y-94099005D01*
X157275995Y-105099005D02*
X157275995Y-94099005D01*
X159275995Y-94599005D02*
X158775995Y-95099005D01*
X159275995Y-97099005D02*
X159275995Y-94599005D01*
X159275995Y-97099005D02*
X161775995Y-97099005D01*
X159775995Y-95099005D02*
X159275995Y-94599005D01*
X161775995Y-97099005D02*
X161275995Y-96599005D01*
X161775995Y-97099005D02*
X161275995Y-97599005D01*
X159835012Y-97099005D02*
G75*
G02*
X158716978Y-97099005I-559017J0D01*
G01*
X158716978Y-97099005D02*
G75*
G02*
X159835012Y-97099005I559017J0D01*
G01*
D11*
X159275996Y-97099005D02*
X159275996Y-97099005D01*
X159275996Y-97099005D01*
X159275996Y-97099005D01*
X159275996Y-97099005D01*
X159275996Y-97099005D01*
X159275996Y-97099006D01*
X159275996Y-97099006D01*
X159275996Y-97099006D01*
X159275996Y-97099006D01*
X159275996Y-97099006D01*
X159275996Y-97099006D01*
X159275996Y-97099006D01*
X159275995Y-97099006D01*
X159275995Y-97099006D01*
X159275995Y-97099006D01*
X159275995Y-97099006D01*
X159275995Y-97099006D01*
X159275995Y-97099006D01*
X159275995Y-97099006D01*
X159275995Y-97099006D01*
X159275995Y-97099006D01*
X159275995Y-97099006D01*
X159275995Y-97099006D01*
X159275995Y-97099006D01*
X159275994Y-97099006D01*
X159275994Y-97099006D01*
X159275994Y-97099006D01*
X159275994Y-97099006D01*
X159275994Y-97099006D01*
X159275994Y-97099006D01*
X159275994Y-97099005D01*
X159275994Y-97099005D01*
X159275994Y-97099005D01*
X159275994Y-97099005D01*
X159275994Y-97099005D01*
X159275994Y-97099005D01*
X159275994Y-97099005D02*
X159275994Y-97099005D01*
X159275994Y-97099005D01*
X159275994Y-97099005D01*
X159275994Y-97099005D01*
X159275994Y-97099005D01*
X159275994Y-97099005D01*
X159275994Y-97099004D01*
X159275994Y-97099004D01*
X159275994Y-97099004D01*
X159275994Y-97099004D01*
X159275994Y-97099004D01*
X159275995Y-97099004D01*
X159275995Y-97099004D01*
X159275995Y-97099004D01*
X159275995Y-97099004D01*
X159275995Y-97099004D01*
X159275995Y-97099004D01*
X159275995Y-97099004D01*
X159275995Y-97099004D01*
X159275995Y-97099004D01*
X159275995Y-97099004D01*
X159275995Y-97099004D01*
X159275995Y-97099004D01*
X159275996Y-97099004D01*
X159275996Y-97099004D01*
X159275996Y-97099004D01*
X159275996Y-97099004D01*
X159275996Y-97099004D01*
X159275996Y-97099004D01*
X159275996Y-97099005D01*
X159275996Y-97099005D01*
X159275996Y-97099005D01*
X159275996Y-97099005D01*
X159275996Y-97099005D01*
X159275996Y-97099005D01*
X159275996Y-97099005D01*
D15*
%TO.C,J7*%
X156445995Y-122744005D02*
X157775995Y-122744005D01*
X156445995Y-124074005D02*
X156445995Y-122744005D01*
X156445995Y-125344005D02*
X156445995Y-130484005D01*
X156445995Y-125344005D02*
X159105995Y-125344005D01*
X156445995Y-130484005D02*
X159105995Y-130484005D01*
X159105995Y-125344005D02*
X159105995Y-130484005D01*
%TO.C,R5*%
X160253495Y-132611747D02*
X160253495Y-133086263D01*
X161298495Y-132611747D02*
X161298495Y-133086263D01*
%TO.C,LED_BNO1*%
X148290000Y-106065000D02*
X148290000Y-108750000D01*
X150210000Y-106065000D02*
X148290000Y-106065000D01*
X150210000Y-108750000D02*
X150210000Y-106065000D01*
%TO.C,M2*%
X99195995Y-103994005D02*
X100525995Y-103994005D01*
X99195995Y-105324005D02*
X99195995Y-103994005D01*
X99195995Y-106594005D02*
X99195995Y-109194005D01*
X99195995Y-106594005D02*
X101855995Y-106594005D01*
X99195995Y-109194005D02*
X101855995Y-109194005D01*
X101855995Y-106594005D02*
X101855995Y-109194005D01*
%TO.C,Rt1*%
X112753495Y-105111747D02*
X112753495Y-105586263D01*
X113798495Y-105111747D02*
X113798495Y-105586263D01*
%TO.C,Rc1*%
X105557495Y-108318281D02*
X105557495Y-108827729D01*
X106602495Y-108318281D02*
X106602495Y-108827729D01*
%TO.C,Cin9*%
X100665995Y-132887753D02*
X100665995Y-134310257D01*
X103385995Y-132887753D02*
X103385995Y-134310257D01*
D10*
%TO.C,U2*%
X97625995Y-66059005D02*
X148425995Y-66059005D01*
X97625995Y-68599005D02*
X97625995Y-66059005D01*
X97625995Y-71139005D02*
X97625995Y-68599005D01*
X148425995Y-66059005D02*
X148425995Y-71139005D01*
X148425995Y-71139005D02*
X97625995Y-71139005D01*
D15*
%TO.C,Rfb1*%
X107557495Y-112405781D02*
X107557495Y-112915229D01*
X108602495Y-112405781D02*
X108602495Y-112915229D01*
%TO.C,Cout1*%
X140515995Y-133739585D02*
X140515995Y-133458425D01*
X141535995Y-133739585D02*
X141535995Y-133458425D01*
%TO.C,R4*%
X155903495Y-132461747D02*
X155903495Y-132936263D01*
X156948495Y-132461747D02*
X156948495Y-132936263D01*
%TO.C,U14*%
X138180995Y-76239005D02*
X138425995Y-76239005D01*
X138180995Y-80099005D02*
X138180995Y-76239005D01*
X138180995Y-80099005D02*
X138180995Y-83959005D01*
X138180995Y-83959005D02*
X138425995Y-83959005D01*
X149950995Y-76239005D02*
X149705995Y-76239005D01*
X149950995Y-80099005D02*
X149950995Y-76239005D01*
X149950995Y-80099005D02*
X149950995Y-83959005D01*
X149950995Y-83959005D02*
X149705995Y-83959005D01*
X138425995Y-84811505D02*
X137955995Y-85151505D01*
X137955995Y-84471505D01*
X138425995Y-84811505D01*
G36*
X138425995Y-84811505D02*
G01*
X137955995Y-85151505D01*
X137955995Y-84471505D01*
X138425995Y-84811505D01*
G37*
%TO.C,Q1*%
X107625995Y-124179005D02*
X114045995Y-124179005D01*
X107625995Y-131079005D02*
X114045995Y-131079005D01*
X114045995Y-124179005D02*
X114045995Y-124449005D01*
X114045995Y-131079005D02*
X114045995Y-130809005D01*
X116115995Y-131239005D02*
X115435995Y-131239005D01*
X115775995Y-130769005D01*
X116115995Y-131239005D01*
G36*
X116115995Y-131239005D02*
G01*
X115435995Y-131239005D01*
X115775995Y-130769005D01*
X116115995Y-131239005D01*
G37*
%TO.C,R18*%
X162101237Y-66876505D02*
X162575753Y-66876505D01*
X162101237Y-67921505D02*
X162575753Y-67921505D01*
D17*
%TO.C,X1*%
X150469495Y-77928505D02*
X150469495Y-82028505D01*
X150469495Y-82028505D02*
X153869495Y-82028505D01*
X153587995Y-82285005D02*
X154095995Y-82285005D01*
X153869495Y-77928505D02*
X150469495Y-77928505D01*
X153869495Y-82028505D02*
X153869495Y-77928505D01*
X154095995Y-82285005D02*
X154095995Y-81777005D01*
D15*
%TO.C,LED_ESC_2*%
X153315995Y-132849005D02*
X153315995Y-135534005D01*
X153315995Y-135534005D02*
X155235995Y-135534005D01*
X155235995Y-135534005D02*
X155235995Y-132849005D01*
%TO.C,U1*%
X166175995Y-118989005D02*
X168675995Y-118989005D01*
X168675995Y-123709005D02*
X166175995Y-123709005D01*
X169435995Y-123889005D02*
X168955995Y-123889005D01*
X169195995Y-123559005D01*
X169435995Y-123889005D01*
G36*
X169435995Y-123889005D02*
G01*
X168955995Y-123889005D01*
X169195995Y-123559005D01*
X169435995Y-123889005D01*
G37*
%TO.C,J9*%
X81450000Y-102541505D02*
X96150000Y-102541505D01*
X81450000Y-111741505D02*
X81450000Y-102541505D01*
X90250000Y-111741505D02*
X81450000Y-111741505D01*
X95300000Y-102341505D02*
X96350000Y-102341505D01*
X96150000Y-102541505D02*
X96150000Y-105141505D01*
X96150000Y-109041505D02*
X96150000Y-111741505D01*
X96150000Y-111741505D02*
X94250000Y-111741505D01*
X96350000Y-103391505D02*
X96350000Y-102341505D01*
%TO.C,Cbst1*%
X120573075Y-108763005D02*
X120291915Y-108763005D01*
X120573075Y-109783005D02*
X120291915Y-109783005D01*
%TO.C,JP2*%
X137300995Y-101399005D02*
X137300995Y-100799005D01*
X138000995Y-100099005D02*
X139400995Y-100099005D01*
X139400995Y-102099005D02*
X138000995Y-102099005D01*
X140100995Y-100799005D02*
X140100995Y-101399005D01*
X137300995Y-100799005D02*
G75*
G02*
X138000995Y-100099005I699999J1D01*
G01*
X138000995Y-102099005D02*
G75*
G02*
X137300995Y-101399005I-1J699999D01*
G01*
X139400995Y-100099005D02*
G75*
G02*
X140100995Y-100799005I0J-700000D01*
G01*
X140100995Y-101399005D02*
G75*
G02*
X139400995Y-102099005I-700000J0D01*
G01*
%TO.C,Rfb2*%
X109807495Y-112915229D02*
X109807495Y-112405781D01*
X110852495Y-112915229D02*
X110852495Y-112405781D01*
%TO.C,Cout7*%
X141165995Y-119810257D02*
X141165995Y-118387753D01*
X143885995Y-119810257D02*
X143885995Y-118387753D01*
%TO.C,JP3*%
X137300995Y-98649005D02*
X137300995Y-98049005D01*
X138000995Y-97349005D02*
X139400995Y-97349005D01*
X139400995Y-99349005D02*
X138000995Y-99349005D01*
X140100995Y-98049005D02*
X140100995Y-98649005D01*
X137300995Y-98049005D02*
G75*
G02*
X138000995Y-97349005I699999J1D01*
G01*
X138000995Y-99349005D02*
G75*
G02*
X137300995Y-98649005I-1J699999D01*
G01*
X139400995Y-97349005D02*
G75*
G02*
X140100995Y-98049005I0J-700000D01*
G01*
X140100995Y-98649005D02*
G75*
G02*
X139400995Y-99349005I-700000J0D01*
G01*
%TO.C,J5*%
X147945995Y-122729005D02*
X149275995Y-122729005D01*
X147945995Y-124059005D02*
X147945995Y-122729005D01*
X147945995Y-125329005D02*
X147945995Y-130469005D01*
X147945995Y-125329005D02*
X150605995Y-125329005D01*
X147945995Y-130469005D02*
X150605995Y-130469005D01*
X150605995Y-125329005D02*
X150605995Y-130469005D01*
%TO.C,Cin11*%
X107665995Y-132887753D02*
X107665995Y-134310257D01*
X110385995Y-132887753D02*
X110385995Y-134310257D01*
%TO.C,C2*%
X152166575Y-76589005D02*
X151885415Y-76589005D01*
X152166575Y-77609005D02*
X151885415Y-77609005D01*
%TO.C,R14*%
X118513253Y-64076505D02*
X118038737Y-64076505D01*
X118513253Y-65121505D02*
X118038737Y-65121505D01*
%TO.C,Cout3*%
X143314743Y-128739005D02*
X144737247Y-128739005D01*
X143314743Y-131459005D02*
X144737247Y-131459005D01*
%TO.C,R_CAN1*%
X149375131Y-87824005D02*
X150829259Y-87824005D01*
X149375131Y-89644005D02*
X150829259Y-89644005D01*
D16*
%TO.C,U5*%
X114406495Y-114309005D02*
X114406495Y-114145505D01*
X115061495Y-109610005D02*
X114406495Y-109610005D01*
X115061495Y-114309005D02*
X114406495Y-114309005D01*
X116561495Y-114309005D02*
X115803495Y-114309005D01*
X116563495Y-109610005D02*
X115803495Y-109610005D01*
X117962495Y-109610005D02*
X117305495Y-109610005D01*
X117962495Y-109610005D02*
X117962495Y-109902005D01*
X117962495Y-114145505D02*
X117962495Y-114309005D01*
X117962495Y-114309005D02*
X117303495Y-114309005D01*
X114787495Y-109102005D02*
G75*
G02*
X114533495Y-109102005I-127000J0D01*
G01*
X114533495Y-109102005D02*
G75*
G02*
X114787495Y-109102005I127000J0D01*
G01*
D15*
%TO.C,Rc2*%
X104575271Y-113076505D02*
X105084719Y-113076505D01*
X104575271Y-114121505D02*
X105084719Y-114121505D01*
%TO.C,Cc2*%
X109183728Y-109063005D02*
X109476262Y-109063005D01*
X109183728Y-110083005D02*
X109476262Y-110083005D01*
%TO.C,J8*%
X160945995Y-122729005D02*
X162275995Y-122729005D01*
X160945995Y-124059005D02*
X160945995Y-122729005D01*
X160945995Y-125329005D02*
X160945995Y-130469005D01*
X160945995Y-125329005D02*
X163605995Y-125329005D01*
X160945995Y-130469005D02*
X163605995Y-130469005D01*
X163605995Y-125329005D02*
X163605995Y-130469005D01*
%TO.C,C5*%
X137092195Y-89593425D02*
X137092195Y-89874585D01*
X138112195Y-89593425D02*
X138112195Y-89874585D01*
%TO.C,J1*%
X165170995Y-127494005D02*
X166500995Y-127494005D01*
X165170995Y-128824005D02*
X165170995Y-127494005D01*
X165170995Y-130094005D02*
X165170995Y-135234005D01*
X165170995Y-130094005D02*
X167770995Y-130094005D01*
X165170995Y-135234005D02*
X170370995Y-135234005D01*
X167770995Y-127494005D02*
X170370995Y-127494005D01*
X167770995Y-130094005D02*
X167770995Y-127494005D01*
X170370995Y-127494005D02*
X170370995Y-135234005D01*
%TO.C,Cin6*%
X111665995Y-122310257D02*
X111665995Y-120887753D01*
X114385995Y-122310257D02*
X114385995Y-120887753D01*
%TO.C,Cout6*%
X137665995Y-119810257D02*
X137665995Y-118387753D01*
X140385995Y-119810257D02*
X140385995Y-118387753D01*
%TO.C,R1*%
X90915995Y-127264005D02*
X90915995Y-130434005D01*
X90915995Y-130434005D02*
X96775995Y-130434005D01*
X96775995Y-127264005D02*
X90915995Y-127264005D01*
%TO.C,C4*%
X139925415Y-92740000D02*
X140206575Y-92740000D01*
X139925415Y-93760000D02*
X140206575Y-93760000D01*
%TO.C,Ruv1*%
X117057495Y-105111747D02*
X117057495Y-105586263D01*
X118102495Y-105111747D02*
X118102495Y-105586263D01*
%TO.C,CAN2*%
X90445995Y-95269005D02*
X91775995Y-95269005D01*
X90445995Y-96599005D02*
X90445995Y-95269005D01*
X90445995Y-97869005D02*
X90445995Y-100469005D01*
X90445995Y-97869005D02*
X93105995Y-97869005D01*
X90445995Y-100469005D02*
X93105995Y-100469005D01*
X93105995Y-97869005D02*
X93105995Y-100469005D01*
%TO.C,R21*%
X162101237Y-72926505D02*
X162575753Y-72926505D01*
X162101237Y-73971505D02*
X162575753Y-73971505D01*
%TO.C,R6*%
X91538737Y-72576505D02*
X92013253Y-72576505D01*
X91538737Y-73621505D02*
X92013253Y-73621505D01*
%TO.C,Rpg1*%
X129788737Y-105776505D02*
X130263253Y-105776505D01*
X129788737Y-106821505D02*
X130263253Y-106821505D01*
%TO.C,R12*%
X157768737Y-91286505D02*
X158243253Y-91286505D01*
X157768737Y-92331505D02*
X158243253Y-92331505D01*
%TO.C,J6*%
X152195995Y-122729005D02*
X153525995Y-122729005D01*
X152195995Y-124059005D02*
X152195995Y-122729005D01*
X152195995Y-125329005D02*
X152195995Y-130469005D01*
X152195995Y-125329005D02*
X154855995Y-125329005D01*
X152195995Y-130469005D02*
X154855995Y-130469005D01*
X154855995Y-125329005D02*
X154855995Y-130469005D01*
%TO.C,R20*%
X167778495Y-89336263D02*
X167778495Y-88861747D01*
X168823495Y-89336263D02*
X168823495Y-88861747D01*
%TO.C,Cin1*%
X93665995Y-124810257D02*
X93665995Y-123387753D01*
X96385995Y-124810257D02*
X96385995Y-123387753D01*
%TO.C,R9*%
X143438253Y-97826505D02*
X142963737Y-97826505D01*
X143438253Y-98871505D02*
X142963737Y-98871505D01*
D12*
%TO.C,U4*%
X91400995Y-74224005D02*
X91400995Y-74449005D01*
X91400995Y-74224005D02*
X94650995Y-74224005D01*
X91400995Y-77474005D02*
X91400995Y-77249005D01*
X91400995Y-77474005D02*
X94650995Y-77474005D01*
X94650995Y-74224005D02*
X94650995Y-74449005D01*
X94650995Y-77474005D02*
X94650995Y-77249005D01*
D15*
X90925995Y-74449005D02*
X90685995Y-74119005D01*
X91165995Y-74119005D01*
X90925995Y-74449005D01*
G36*
X90925995Y-74449005D02*
G01*
X90685995Y-74119005D01*
X91165995Y-74119005D01*
X90925995Y-74449005D01*
G37*
%TO.C,Cin5*%
X108165995Y-122310257D02*
X108165995Y-120887753D01*
X110885995Y-122310257D02*
X110885995Y-120887753D01*
%TO.C,Cin3*%
X101165995Y-122310257D02*
X101165995Y-120887753D01*
X103885995Y-122310257D02*
X103885995Y-120887753D01*
%TO.C,TP1*%
X123475995Y-105349005D02*
X123475995Y-107249005D01*
X123475995Y-107249005D02*
X125325995Y-107249005D01*
X125325995Y-105349005D02*
X123475995Y-105349005D01*
X125325995Y-105399005D02*
X125325995Y-105349005D01*
X125325995Y-107249005D02*
X125325995Y-105399005D01*
%TO.C,LED_ESC_1*%
X149065995Y-132849005D02*
X149065995Y-135534005D01*
X149065995Y-135534005D02*
X150985995Y-135534005D01*
X150985995Y-135534005D02*
X150985995Y-132849005D01*
%TO.C,Cout4*%
X143314743Y-125239005D02*
X144737247Y-125239005D01*
X143314743Y-127959005D02*
X144737247Y-127959005D01*
%TO.C,Cin2*%
X97165995Y-124810257D02*
X97165995Y-123387753D01*
X99885995Y-124810257D02*
X99885995Y-123387753D01*
%TO.C,LED2*%
X129565995Y-113514005D02*
X129565995Y-116199005D01*
X131485995Y-113514005D02*
X129565995Y-113514005D01*
X131485995Y-116199005D02*
X131485995Y-113514005D01*
%TO.C,Q2*%
X117355995Y-122829005D02*
X117625995Y-122829005D01*
X117355995Y-129249005D02*
X117355995Y-122829005D01*
X124255995Y-122829005D02*
X123985995Y-122829005D01*
X124255995Y-129249005D02*
X124255995Y-122829005D01*
X124415995Y-121439005D02*
X123945995Y-121099005D01*
X124415995Y-120759005D01*
X124415995Y-121439005D01*
G36*
X124415995Y-121439005D02*
G01*
X123945995Y-121099005D01*
X124415995Y-120759005D01*
X124415995Y-121439005D01*
G37*
D18*
%TO.C,G\u002A\u002A\u002A*%
G36*
X168299683Y-64721636D02*
G01*
X168303148Y-64734162D01*
X168304753Y-64760054D01*
X168304729Y-64801916D01*
X168304128Y-64831775D01*
X168301300Y-64948958D01*
X167758620Y-65160601D01*
X167659931Y-65199179D01*
X167567024Y-65235671D01*
X167481535Y-65269423D01*
X167405102Y-65299779D01*
X167339363Y-65326085D01*
X167285954Y-65347686D01*
X167246513Y-65363928D01*
X167222676Y-65374156D01*
X167215906Y-65377644D01*
X167224951Y-65382166D01*
X167251000Y-65393265D01*
X167292402Y-65410280D01*
X167347508Y-65432551D01*
X167414669Y-65459417D01*
X167492234Y-65490217D01*
X167578553Y-65524292D01*
X167671978Y-65560981D01*
X167750079Y-65591518D01*
X167848359Y-65629914D01*
X167941169Y-65666257D01*
X168026816Y-65699876D01*
X168103604Y-65730104D01*
X168169839Y-65756270D01*
X168223826Y-65777706D01*
X168263870Y-65793742D01*
X168288277Y-65803709D01*
X168295358Y-65806834D01*
X168297613Y-65814776D01*
X168299531Y-65836104D01*
X168301121Y-65871564D01*
X168302392Y-65921904D01*
X168303352Y-65987871D01*
X168304009Y-66070214D01*
X168304372Y-66169680D01*
X168304450Y-66287016D01*
X168304250Y-66422970D01*
X168303865Y-66554863D01*
X168301300Y-67296049D01*
X168079502Y-67209446D01*
X167676053Y-67051915D01*
X167569409Y-67010292D01*
X167467986Y-66970739D01*
X167373365Y-66933873D01*
X167287127Y-66900305D01*
X167210852Y-66870652D01*
X167146119Y-66845526D01*
X167094509Y-66825542D01*
X167057602Y-66811314D01*
X167036978Y-66803456D01*
X167033300Y-66802119D01*
X167028707Y-66801635D01*
X167024993Y-66804712D01*
X167022066Y-66813232D01*
X167019833Y-66829074D01*
X167018200Y-66854118D01*
X167017076Y-66890244D01*
X167016366Y-66939334D01*
X167015978Y-67003266D01*
X167015819Y-67083921D01*
X167015794Y-67156202D01*
X167015947Y-67255411D01*
X167016442Y-67336178D01*
X167017333Y-67400067D01*
X167018673Y-67448641D01*
X167020516Y-67483464D01*
X167022916Y-67506100D01*
X167025926Y-67518112D01*
X167028298Y-67520990D01*
X167044558Y-67527430D01*
X167077408Y-67540344D01*
X167124867Y-67558957D01*
X167184955Y-67582497D01*
X167255691Y-67610187D01*
X167335095Y-67641256D01*
X167421185Y-67674927D01*
X167511980Y-67710428D01*
X167605501Y-67746985D01*
X167699765Y-67783822D01*
X167792793Y-67820166D01*
X167882603Y-67855244D01*
X167967216Y-67888280D01*
X168044649Y-67918501D01*
X168112922Y-67945133D01*
X168170055Y-67967401D01*
X168214066Y-67984532D01*
X168242976Y-67995751D01*
X168253781Y-67999906D01*
X168306302Y-68019722D01*
X168306302Y-68765367D01*
X168306240Y-68910218D01*
X168306043Y-69036185D01*
X168305691Y-69144392D01*
X168305166Y-69235963D01*
X168304449Y-69312023D01*
X168303519Y-69373695D01*
X168302360Y-69422104D01*
X168300950Y-69458372D01*
X168299273Y-69483625D01*
X168297308Y-69498986D01*
X168295036Y-69505579D01*
X168293797Y-69505946D01*
X168283104Y-69501744D01*
X168255647Y-69490993D01*
X168213296Y-69474423D01*
X168157921Y-69452766D01*
X168091395Y-69426752D01*
X168015588Y-69397114D01*
X167932371Y-69364583D01*
X167859956Y-69336277D01*
X167843614Y-69329889D01*
X167751190Y-69293764D01*
X167656969Y-69256940D01*
X167564993Y-69220994D01*
X167562823Y-69220146D01*
X167470621Y-69184116D01*
X167390165Y-69152678D01*
X167382235Y-69149579D01*
X167299537Y-69117267D01*
X167224397Y-69087912D01*
X167158686Y-69062244D01*
X167104275Y-69040996D01*
X167063036Y-69024897D01*
X167036839Y-69014680D01*
X167028173Y-69011310D01*
X167024785Y-69013685D01*
X167022097Y-69024774D01*
X167020063Y-69046179D01*
X167018638Y-69079504D01*
X167017778Y-69126353D01*
X167017437Y-69188327D01*
X167017572Y-69267032D01*
X167018136Y-69364068D01*
X167018169Y-69368641D01*
X167020796Y-69730845D01*
X168713962Y-70391818D01*
X170407129Y-71052791D01*
X170405294Y-71088649D01*
X170403630Y-71116643D01*
X170400993Y-71156248D01*
X170397940Y-71199124D01*
X170397791Y-71201137D01*
X170392123Y-71277766D01*
X169356715Y-70873523D01*
X169219331Y-70819911D01*
X169087154Y-70768381D01*
X168961381Y-70719396D01*
X168843204Y-70673419D01*
X168733820Y-70630914D01*
X168634422Y-70592343D01*
X168546205Y-70558170D01*
X168470364Y-70528857D01*
X168408093Y-70504867D01*
X168360587Y-70486665D01*
X168329040Y-70474712D01*
X168314648Y-70469472D01*
X168313880Y-70469265D01*
X168312534Y-70478984D01*
X168311186Y-70507015D01*
X168309863Y-70551663D01*
X168308591Y-70611233D01*
X168307399Y-70684029D01*
X168306312Y-70768356D01*
X168305359Y-70862519D01*
X168304567Y-70964822D01*
X168303962Y-71073570D01*
X168303876Y-71093539D01*
X168301300Y-71717828D01*
X167676053Y-71473627D01*
X167569411Y-71431993D01*
X167467990Y-71392433D01*
X167373371Y-71355560D01*
X167287134Y-71321989D01*
X167210859Y-71292333D01*
X167146126Y-71267206D01*
X167094516Y-71247223D01*
X167057607Y-71232999D01*
X167036980Y-71225146D01*
X167033300Y-71223811D01*
X167030446Y-71223519D01*
X167028756Y-71223346D01*
X167025075Y-71226401D01*
X167022168Y-71234835D01*
X167019947Y-71250508D01*
X167018324Y-71275280D01*
X167017210Y-71311008D01*
X167016517Y-71359554D01*
X167016157Y-71422777D01*
X167016041Y-71502535D01*
X167016070Y-71586516D01*
X167016347Y-71954835D01*
X167658823Y-72204979D01*
X168301300Y-72455123D01*
X168304128Y-72567621D01*
X168304578Y-72619447D01*
X168303070Y-72656515D01*
X168299731Y-72676818D01*
X168296999Y-72680120D01*
X168286208Y-72676568D01*
X168258353Y-72666314D01*
X168214998Y-72649957D01*
X168157707Y-72628100D01*
X168088043Y-72601344D01*
X168007571Y-72570290D01*
X167917853Y-72535540D01*
X167820453Y-72497694D01*
X167716936Y-72457354D01*
X167668925Y-72438606D01*
X167562907Y-72397213D01*
X167462114Y-72357920D01*
X167368135Y-72321342D01*
X167282560Y-72288096D01*
X167206978Y-72258796D01*
X167142979Y-72234059D01*
X167092151Y-72214501D01*
X167056085Y-72200738D01*
X167036370Y-72193385D01*
X167033300Y-72192343D01*
X167029167Y-72192165D01*
X167025739Y-72195201D01*
X167022951Y-72203134D01*
X167020736Y-72217649D01*
X167019030Y-72240429D01*
X167017767Y-72273159D01*
X167016880Y-72317523D01*
X167016305Y-72375205D01*
X167015976Y-72447889D01*
X167015828Y-72537260D01*
X167015794Y-72641744D01*
X167015794Y-73095895D01*
X167660546Y-73755849D01*
X168305298Y-74415804D01*
X168305800Y-74570809D01*
X168306302Y-74725814D01*
X168197333Y-74615827D01*
X168160751Y-74578780D01*
X168112611Y-74529834D01*
X168053636Y-74469729D01*
X167984545Y-74399206D01*
X167906062Y-74319005D01*
X167818907Y-74229868D01*
X167723800Y-74132535D01*
X167621464Y-74027746D01*
X167512619Y-73916244D01*
X167397988Y-73798767D01*
X167278290Y-73676058D01*
X167154247Y-73548856D01*
X167026581Y-73417903D01*
X166896012Y-73283939D01*
X166763263Y-73147706D01*
X166629053Y-73009943D01*
X166494105Y-72871392D01*
X166359139Y-72732793D01*
X166224877Y-72594887D01*
X166092040Y-72458415D01*
X165961349Y-72324117D01*
X165833526Y-72192735D01*
X165709291Y-72065009D01*
X165589366Y-71941679D01*
X165474473Y-71823487D01*
X165365331Y-71711174D01*
X165262664Y-71605479D01*
X165167190Y-71507145D01*
X165079633Y-71416911D01*
X165000713Y-71335518D01*
X164931152Y-71263707D01*
X164871670Y-71202219D01*
X164822989Y-71151794D01*
X164785830Y-71113174D01*
X164760915Y-71087099D01*
X164748964Y-71074310D01*
X164747974Y-71073081D01*
X164757626Y-71076119D01*
X164784705Y-71086002D01*
X164828015Y-71102268D01*
X164886356Y-71124455D01*
X164958532Y-71152100D01*
X165043344Y-71184742D01*
X165139595Y-71221919D01*
X165246085Y-71263168D01*
X165361619Y-71308028D01*
X165484997Y-71356036D01*
X165615022Y-71406731D01*
X165750495Y-71459649D01*
X165771321Y-71467793D01*
X165907589Y-71521025D01*
X166038645Y-71572102D01*
X166163287Y-71620560D01*
X166280311Y-71665937D01*
X166388513Y-71707772D01*
X166486691Y-71745600D01*
X166573641Y-71778960D01*
X166648160Y-71807388D01*
X166709044Y-71830424D01*
X166755091Y-71847603D01*
X166785097Y-71858463D01*
X166797859Y-71862542D01*
X166798208Y-71862542D01*
X166799045Y-71852273D01*
X166799855Y-71823065D01*
X166800634Y-71775987D01*
X166801377Y-71712110D01*
X166802079Y-71632501D01*
X166802734Y-71538231D01*
X166803337Y-71430369D01*
X166803884Y-71309983D01*
X166804369Y-71178144D01*
X166804788Y-71035920D01*
X166805135Y-70884381D01*
X166805405Y-70724595D01*
X166805593Y-70557633D01*
X166805641Y-70475468D01*
X167015794Y-70475468D01*
X167015826Y-70590399D01*
X167015959Y-70686897D01*
X167016245Y-70766535D01*
X167016738Y-70830888D01*
X167017490Y-70881530D01*
X167018556Y-70920035D01*
X167019989Y-70947977D01*
X167021840Y-70966930D01*
X167024165Y-70978469D01*
X167027016Y-70984167D01*
X167030446Y-70985599D01*
X167033019Y-70984985D01*
X167044671Y-70978820D01*
X167071962Y-70963477D01*
X167113267Y-70939892D01*
X167166964Y-70909004D01*
X167231428Y-70871751D01*
X167305036Y-70829069D01*
X167386164Y-70781897D01*
X167473189Y-70731172D01*
X167530715Y-70697577D01*
X167641408Y-70632885D01*
X167736072Y-70577551D01*
X167815950Y-70530837D01*
X167882285Y-70492001D01*
X167936321Y-70460304D01*
X167979300Y-70435007D01*
X168012467Y-70415370D01*
X168037064Y-70400652D01*
X168054334Y-70390115D01*
X168065522Y-70383018D01*
X168071869Y-70378622D01*
X168074620Y-70376186D01*
X168075018Y-70374972D01*
X168074306Y-70374240D01*
X168074236Y-70374178D01*
X168064607Y-70370118D01*
X168038088Y-70359486D01*
X167996431Y-70342974D01*
X167941391Y-70321271D01*
X167874722Y-70295067D01*
X167798176Y-70265051D01*
X167713507Y-70231915D01*
X167622470Y-70196346D01*
X167591020Y-70184072D01*
X167496460Y-70147176D01*
X167406225Y-70111961D01*
X167322290Y-70079200D01*
X167246629Y-70049662D01*
X167181218Y-70024120D01*
X167128032Y-70003345D01*
X167089046Y-69988107D01*
X167066235Y-69979178D01*
X167063312Y-69978031D01*
X167015794Y-69959341D01*
X167015794Y-70475468D01*
X166805641Y-70475468D01*
X166805694Y-70384563D01*
X166805711Y-70278585D01*
X166805760Y-70102445D01*
X166805905Y-69931818D01*
X166806139Y-69767768D01*
X166806458Y-69611362D01*
X166806856Y-69463665D01*
X166807327Y-69325742D01*
X166807867Y-69198660D01*
X166808470Y-69083484D01*
X166809131Y-68981281D01*
X166809844Y-68893114D01*
X166810604Y-68820051D01*
X166811406Y-68763158D01*
X166812244Y-68723499D01*
X166813112Y-68702140D01*
X166813648Y-68698553D01*
X166825525Y-68702090D01*
X166852014Y-68711725D01*
X166889206Y-68725988D01*
X166933189Y-68743413D01*
X166933581Y-68743570D01*
X166977569Y-68761011D01*
X167014760Y-68775305D01*
X167041257Y-68784986D01*
X167053163Y-68788588D01*
X167053194Y-68788588D01*
X167056389Y-68779282D01*
X167059000Y-68754153D01*
X167060702Y-68717383D01*
X167061180Y-68686048D01*
X167061196Y-68681651D01*
X167347702Y-68681651D01*
X167351170Y-68713456D01*
X167368410Y-68733356D01*
X167390165Y-68738568D01*
X167417925Y-68730807D01*
X167432459Y-68708615D01*
X167433909Y-68683596D01*
X167430212Y-68664256D01*
X167420140Y-68655687D01*
X167397514Y-68653566D01*
X167390941Y-68653535D01*
X167364958Y-68654978D01*
X167352731Y-68661992D01*
X167348072Y-68678600D01*
X167347702Y-68681651D01*
X167061196Y-68681651D01*
X167061549Y-68583507D01*
X167064993Y-68576548D01*
X167823726Y-68576548D01*
X167824587Y-68603913D01*
X167839938Y-68623042D01*
X167859956Y-68628525D01*
X167884620Y-68624250D01*
X167894388Y-68608838D01*
X167894098Y-68588884D01*
X167887607Y-68570033D01*
X167869963Y-68561808D01*
X167859932Y-68560462D01*
X167836069Y-68561482D01*
X167825013Y-68572515D01*
X167823726Y-68576548D01*
X167064993Y-68576548D01*
X167123436Y-68458458D01*
X167164231Y-68370291D01*
X167193442Y-68292241D01*
X167196279Y-68281239D01*
X167478792Y-68281239D01*
X167489885Y-68302429D01*
X167499412Y-68312738D01*
X167531748Y-68334216D01*
X167564993Y-68337543D01*
X167595192Y-68322745D01*
X167605300Y-68312052D01*
X167623443Y-68276713D01*
X167621628Y-68242329D01*
X167607315Y-68217471D01*
X167583219Y-68199217D01*
X167552150Y-68194354D01*
X167515775Y-68200716D01*
X167492421Y-68221220D01*
X167480082Y-68255349D01*
X167478792Y-68281239D01*
X167196279Y-68281239D01*
X167212312Y-68219071D01*
X167222083Y-68145542D01*
X167223999Y-68066416D01*
X167223124Y-68038293D01*
X167217298Y-67958817D01*
X167207221Y-67897532D01*
X167198812Y-67868226D01*
X167179370Y-67813204D01*
X166992541Y-67739028D01*
X166805711Y-67664851D01*
X166805711Y-66444948D01*
X166805721Y-66263192D01*
X166805763Y-66100408D01*
X166805793Y-66050546D01*
X167015794Y-66050546D01*
X167015794Y-66563783D01*
X167536203Y-66766817D01*
X167633442Y-66804712D01*
X167725432Y-66840480D01*
X167810424Y-66873447D01*
X167886669Y-66902937D01*
X167952415Y-66928276D01*
X168005914Y-66948789D01*
X168045416Y-66963800D01*
X168069170Y-66972636D01*
X168075333Y-66974747D01*
X168079502Y-66975243D01*
X168082984Y-66973301D01*
X168085827Y-66967328D01*
X168088077Y-66955728D01*
X168089782Y-66936908D01*
X168090989Y-66909274D01*
X168091746Y-66871233D01*
X168092100Y-66821190D01*
X168092097Y-66757552D01*
X168091786Y-66678724D01*
X168091214Y-66583113D01*
X168090427Y-66469124D01*
X168090407Y-66466320D01*
X168086760Y-65952997D01*
X168033967Y-65933746D01*
X168005256Y-65922992D01*
X167959699Y-65905555D01*
X167899048Y-65882118D01*
X167825058Y-65853368D01*
X167739485Y-65819988D01*
X167644081Y-65782664D01*
X167540602Y-65742080D01*
X167430802Y-65698922D01*
X167316436Y-65653872D01*
X167276012Y-65637927D01*
X167209147Y-65611577D01*
X167148647Y-65587806D01*
X167096922Y-65567553D01*
X167056385Y-65551761D01*
X167029446Y-65541373D01*
X167018518Y-65537329D01*
X167018411Y-65537308D01*
X167017905Y-65547000D01*
X167017431Y-65574831D01*
X167016999Y-65618929D01*
X167016618Y-65677426D01*
X167016298Y-65748450D01*
X167016049Y-65830134D01*
X167015879Y-65920605D01*
X167015799Y-66017996D01*
X167015794Y-66050546D01*
X166805793Y-66050546D01*
X166805851Y-65955563D01*
X166806001Y-65827620D01*
X166806226Y-65715546D01*
X166806542Y-65618305D01*
X166806964Y-65534861D01*
X166807507Y-65464182D01*
X166808185Y-65405230D01*
X166809015Y-65356971D01*
X166810010Y-65318371D01*
X166811185Y-65288395D01*
X166812557Y-65266007D01*
X166814138Y-65250172D01*
X166815945Y-65239856D01*
X166817992Y-65234024D01*
X166820295Y-65231640D01*
X166822868Y-65231670D01*
X166823218Y-65231795D01*
X166844065Y-65238545D01*
X166873610Y-65246748D01*
X166880740Y-65248570D01*
X166888935Y-65250233D01*
X166898156Y-65250835D01*
X166909739Y-65249902D01*
X166925015Y-65246957D01*
X166945317Y-65241527D01*
X166971977Y-65233136D01*
X167006330Y-65221310D01*
X167049707Y-65205572D01*
X167103441Y-65185449D01*
X167168865Y-65160465D01*
X167247312Y-65130145D01*
X167340115Y-65094014D01*
X167448606Y-65051598D01*
X167574118Y-65002421D01*
X167601024Y-64991873D01*
X167712148Y-64948300D01*
X167817972Y-64906798D01*
X167916999Y-64867956D01*
X168007735Y-64832359D01*
X168088683Y-64800596D01*
X168158346Y-64773252D01*
X168215230Y-64750916D01*
X168257838Y-64734174D01*
X168284674Y-64723614D01*
X168294125Y-64719872D01*
X168299683Y-64721636D01*
G37*
D15*
%TO.C,Q4*%
X164693495Y-83499005D02*
X164043495Y-83499005D01*
X164693495Y-83499005D02*
X165343495Y-83499005D01*
X164693495Y-86619005D02*
X164043495Y-86619005D01*
X164693495Y-86619005D02*
X165343495Y-86619005D01*
X166095995Y-86899005D02*
X165615995Y-86899005D01*
X165855995Y-86569005D01*
X166095995Y-86899005D01*
G36*
X166095995Y-86899005D02*
G01*
X165615995Y-86899005D01*
X165855995Y-86569005D01*
X166095995Y-86899005D01*
G37*
%TO.C,Css1*%
X110765995Y-105208425D02*
X110765995Y-105489585D01*
X111785995Y-105208425D02*
X111785995Y-105489585D01*
%TO.C,R3*%
X151503495Y-132361747D02*
X151503495Y-132836263D01*
X152548495Y-132361747D02*
X152548495Y-132836263D01*
%TO.C,Q8*%
X162525995Y-74539005D02*
X161875995Y-74539005D01*
X162525995Y-74539005D02*
X163175995Y-74539005D01*
X162525995Y-77659005D02*
X161875995Y-77659005D01*
X162525995Y-77659005D02*
X163175995Y-77659005D01*
X161363495Y-74589005D02*
X161123495Y-74259005D01*
X161603495Y-74259005D01*
X161363495Y-74589005D01*
G36*
X161363495Y-74589005D02*
G01*
X161123495Y-74259005D01*
X161603495Y-74259005D01*
X161363495Y-74589005D01*
G37*
%TO.C,C3*%
X151925415Y-83089005D02*
X152206575Y-83089005D01*
X151925415Y-84109005D02*
X152206575Y-84109005D01*
D19*
%TO.C,D2*%
X84129995Y-128243005D02*
X84129995Y-128626505D01*
X84129995Y-130955005D02*
X84129995Y-130571505D01*
X88045495Y-130955005D02*
X88045495Y-128243005D01*
X89421995Y-128243005D02*
X84129995Y-128243005D01*
X89421995Y-130955005D02*
X84129995Y-130955005D01*
D18*
G36*
X89802995Y-128677005D02*
G01*
X89345995Y-128677005D01*
X89345995Y-128166505D01*
X89802995Y-128166505D01*
X89802995Y-128677005D01*
G37*
G36*
X89802995Y-131031505D02*
G01*
X89345995Y-131031505D01*
X89345995Y-130521005D01*
X89802995Y-130521005D01*
X89802995Y-131031505D01*
G37*
D15*
%TO.C,Cout5*%
X143314743Y-121739005D02*
X144737247Y-121739005D01*
X143314743Y-124459005D02*
X144737247Y-124459005D01*
%TO.C,Cvin1*%
X120819995Y-105988585D02*
X120819995Y-105707425D01*
X121839995Y-105988585D02*
X121839995Y-105707425D01*
%TO.C,R15*%
X151503495Y-106536747D02*
X151503495Y-107011263D01*
X152548495Y-106536747D02*
X152548495Y-107011263D01*
%TO.C,R16*%
X130003495Y-119836263D02*
X130003495Y-119361747D01*
X131048495Y-119836263D02*
X131048495Y-119361747D01*
%TO.C,Cout2*%
X142515995Y-133739585D02*
X142515995Y-133458425D01*
X143535995Y-133739585D02*
X143535995Y-133458425D01*
%TO.C,R_reset1*%
X139303253Y-72826505D02*
X138828737Y-72826505D01*
X139303253Y-73871505D02*
X138828737Y-73871505D01*
%TO.C,R17*%
X161268737Y-91286505D02*
X161743253Y-91286505D01*
X161268737Y-92331505D02*
X161743253Y-92331505D01*
%TO.C,Cc1*%
X109183728Y-107063005D02*
X109476262Y-107063005D01*
X109183728Y-108083005D02*
X109476262Y-108083005D01*
%TO.C,LED1*%
X112340995Y-63639005D02*
X112340995Y-65559005D01*
X112340995Y-65559005D02*
X115025995Y-65559005D01*
X115025995Y-63639005D02*
X112340995Y-63639005D01*
%TO.C,R19*%
X167753495Y-85586263D02*
X167753495Y-85111747D01*
X168798495Y-85586263D02*
X168798495Y-85111747D01*
%TO.C,Cin12*%
X111165995Y-132887753D02*
X111165995Y-134310257D01*
X113885995Y-132887753D02*
X113885995Y-134310257D01*
%TO.C,LED_ESC_4*%
X162065995Y-132849005D02*
X162065995Y-135534005D01*
X162065995Y-135534005D02*
X163985995Y-135534005D01*
X163985995Y-135534005D02*
X163985995Y-132849005D01*
%TO.C,Cin10*%
X104165995Y-132887753D02*
X104165995Y-134310257D01*
X106885995Y-132887753D02*
X106885995Y-134310257D01*
%TO.C,Cin8*%
X97165995Y-132887753D02*
X97165995Y-134310257D01*
X99885995Y-132887753D02*
X99885995Y-134310257D01*
%TO.C,Q3*%
X164693495Y-87549005D02*
X164043495Y-87549005D01*
X164693495Y-87549005D02*
X165343495Y-87549005D01*
X164693495Y-90669005D02*
X164043495Y-90669005D01*
X164693495Y-90669005D02*
X165343495Y-90669005D01*
X163530995Y-87599005D02*
X163290995Y-87269005D01*
X163770995Y-87269005D01*
X163530995Y-87599005D01*
G36*
X163530995Y-87599005D02*
G01*
X163290995Y-87269005D01*
X163770995Y-87269005D01*
X163530995Y-87599005D01*
G37*
%TO.C,R10*%
X167048931Y-124439005D02*
X168503059Y-124439005D01*
X167048931Y-126259005D02*
X168503059Y-126259005D01*
%TO.C,R7*%
X93263253Y-78326505D02*
X92788737Y-78326505D01*
X93263253Y-79371505D02*
X92788737Y-79371505D01*
%TO.C,R2*%
X147253495Y-132361747D02*
X147253495Y-132836263D01*
X148298495Y-132361747D02*
X148298495Y-132836263D01*
%TO.C,M1*%
X125695995Y-109229005D02*
X127025995Y-109229005D01*
X125695995Y-110559005D02*
X125695995Y-109229005D01*
X125695995Y-111829005D02*
X125695995Y-116969005D01*
X125695995Y-111829005D02*
X128355995Y-111829005D01*
X125695995Y-116969005D02*
X128355995Y-116969005D01*
X128355995Y-111829005D02*
X128355995Y-116969005D01*
%TO.C,D8*%
X163515995Y-115449005D02*
X163515995Y-118749005D01*
X163515995Y-115449005D02*
X169025995Y-115449005D01*
X163515995Y-118749005D02*
X169025995Y-118749005D01*
%TO.C,Cc3*%
X104683728Y-111313005D02*
X104976262Y-111313005D01*
X104683728Y-112333005D02*
X104976262Y-112333005D01*
%TO.C,Cvcc1*%
X120422495Y-112663585D02*
X120422495Y-112382425D01*
X121442495Y-112663585D02*
X121442495Y-112382425D01*
%TO.C,Q7*%
X162588495Y-68589005D02*
X161938495Y-68589005D01*
X162588495Y-68589005D02*
X163238495Y-68589005D01*
X162588495Y-71709005D02*
X161938495Y-71709005D01*
X162588495Y-71709005D02*
X163238495Y-71709005D01*
X161425995Y-68639005D02*
X161185995Y-68309005D01*
X161665995Y-68309005D01*
X161425995Y-68639005D01*
G36*
X161425995Y-68639005D02*
G01*
X161185995Y-68309005D01*
X161665995Y-68309005D01*
X161425995Y-68639005D01*
G37*
%TO.C,R8*%
X143438253Y-100326505D02*
X142963737Y-100326505D01*
X143438253Y-101371505D02*
X142963737Y-101371505D01*
D20*
%TO.C,U3*%
X140519395Y-92312105D02*
X144684995Y-92312105D01*
X144684995Y-87155905D02*
X140519395Y-87155905D01*
D16*
%TO.C,L2*%
X125975995Y-122476005D02*
X125975995Y-126368005D01*
X125975995Y-122476005D02*
X139975995Y-122476005D01*
X125975995Y-131330005D02*
X125975995Y-135474505D01*
X139974995Y-135474505D02*
X125974995Y-135474505D01*
X139975995Y-122476005D02*
X139975995Y-126368005D01*
X139975995Y-131330005D02*
X139975995Y-135474505D01*
D15*
%TO.C,Cin4*%
X104665995Y-122310257D02*
X104665995Y-120887753D01*
X107385995Y-122310257D02*
X107385995Y-120887753D01*
%TO.C,R13*%
X164018737Y-81786505D02*
X164493253Y-81786505D01*
X164018737Y-82831505D02*
X164493253Y-82831505D01*
%TO.C,LED_ESC_3*%
X157665995Y-133036505D02*
X157665995Y-135721505D01*
X157665995Y-135721505D02*
X159585995Y-135721505D01*
X159585995Y-135721505D02*
X159585995Y-133036505D01*
%TO.C,TP4*%
X111575995Y-114399005D02*
X111575995Y-116299005D01*
X111575995Y-116299005D02*
X113425995Y-116299005D01*
X113425995Y-114399005D02*
X111575995Y-114399005D01*
X113425995Y-114449005D02*
X113425995Y-114399005D01*
X113425995Y-116299005D02*
X113425995Y-114449005D01*
%TO.C,Cin7*%
X93665995Y-132912753D02*
X93665995Y-134335257D01*
X96385995Y-132912753D02*
X96385995Y-134335257D01*
%TD*%
%LPC*%
%TO.C,JP2*%
G36*
X138550995Y-100349005D02*
G01*
X138850995Y-100349005D01*
X138850995Y-101849005D01*
X138550995Y-101849005D01*
X138550995Y-100349005D01*
G37*
%TO.C,JP3*%
G36*
X138550995Y-97599005D02*
G01*
X138850995Y-97599005D01*
X138850995Y-99099005D01*
X138550995Y-99099005D01*
X138550995Y-97599005D01*
G37*
%TD*%
D21*
%TO.C,Ruv2*%
X115829995Y-106174005D03*
X115829995Y-104524005D03*
%TD*%
D22*
%TO.C,L3*%
X164250000Y-100349005D03*
X164250000Y-112849005D03*
%TD*%
D23*
%TO.C,Rilim1*%
X118107495Y-115298005D03*
X119757495Y-115298005D03*
%TD*%
D24*
%TO.C,TP2*%
X86525995Y-133849005D03*
%TD*%
D25*
%TO.C,C1*%
X97225995Y-76099005D03*
X98775995Y-76099005D03*
%TD*%
D24*
%TO.C,JP1*%
X148852195Y-91234005D03*
X151392195Y-91234005D03*
%TD*%
D26*
%TO.C,R11*%
X158775995Y-89849005D03*
X156235995Y-87309005D03*
X158775995Y-84769005D03*
%TD*%
D27*
%TO.C,U15*%
X152085995Y-95789005D03*
X149545995Y-95789005D03*
X147005995Y-95789005D03*
X144465995Y-95789005D03*
X144465995Y-103409005D03*
X147005995Y-103409005D03*
X149545995Y-103409005D03*
X152085995Y-103409005D03*
%TD*%
D28*
%TO.C,J7*%
X157775995Y-124074005D03*
D29*
X157775995Y-126614005D03*
X157775995Y-129154005D03*
%TD*%
D30*
%TO.C,R5*%
X160775995Y-132024005D03*
X160775995Y-133674005D03*
%TD*%
D31*
%TO.C,LED_BNO1*%
X149250000Y-106812500D03*
X149250000Y-108687500D03*
%TD*%
D28*
%TO.C,M2*%
X100525995Y-105324005D03*
D29*
X100525995Y-107864005D03*
%TD*%
D30*
%TO.C,Rt1*%
X113275995Y-104524005D03*
X113275995Y-106174005D03*
%TD*%
D32*
%TO.C,Rc1*%
X106079995Y-107660505D03*
X106079995Y-109485505D03*
%TD*%
D33*
%TO.C,H1*%
X86025995Y-57099005D03*
%TD*%
D34*
%TO.C,Cin9*%
X102025995Y-132124005D03*
X102025995Y-135074005D03*
%TD*%
D33*
%TO.C,U2*%
X94025995Y-68599005D03*
X94075995Y-117599005D03*
X105525995Y-76349005D03*
X105525995Y-100349005D03*
X129525995Y-76349005D03*
X129525995Y-100349005D03*
X152025995Y-68599005D03*
X152025995Y-117599005D03*
D35*
X98895995Y-69869005D03*
X98895995Y-67329005D03*
X101435995Y-69869005D03*
X101435995Y-67329005D03*
X103975995Y-69869005D03*
X103975995Y-67329005D03*
X106515995Y-69869005D03*
X106515995Y-67329005D03*
X109055995Y-69869005D03*
X109055995Y-67329005D03*
X111595995Y-69869005D03*
X111595995Y-67329005D03*
X114135995Y-69869005D03*
X114135995Y-67329005D03*
X116675995Y-69869005D03*
X116675995Y-67329005D03*
X119215995Y-69869005D03*
X119215995Y-67329005D03*
X121755995Y-69869005D03*
X121755995Y-67329005D03*
X124295995Y-69869005D03*
X124295995Y-67329005D03*
X126835995Y-69869005D03*
X126835995Y-67329005D03*
X129375995Y-69869005D03*
X129375995Y-67329005D03*
X131915995Y-69869005D03*
X131915995Y-67329005D03*
X134455995Y-69869005D03*
X134455995Y-67329005D03*
X136995995Y-69869005D03*
X136995995Y-67329005D03*
X139535995Y-69869005D03*
X139535995Y-67329005D03*
X142075995Y-69869005D03*
X142075995Y-67329005D03*
X144615995Y-69869005D03*
X144615995Y-67329005D03*
X147155995Y-69869005D03*
X147155995Y-67329005D03*
%TD*%
D32*
%TO.C,Rfb1*%
X108079995Y-111748005D03*
X108079995Y-113573005D03*
%TD*%
D36*
%TO.C,Cout1*%
X141025995Y-134374005D03*
X141025995Y-132824005D03*
%TD*%
D30*
%TO.C,R4*%
X156425995Y-131874005D03*
X156425995Y-133524005D03*
%TD*%
D37*
%TO.C,U14*%
X138985995Y-84749005D03*
X140255995Y-84749005D03*
X141525995Y-84749005D03*
X142795995Y-84749005D03*
X144065995Y-84749005D03*
X145335995Y-84749005D03*
X146605995Y-84749005D03*
X147875995Y-84749005D03*
X149145995Y-84749005D03*
X149145995Y-75449005D03*
X147875995Y-75449005D03*
X146605995Y-75449005D03*
X145335995Y-75449005D03*
X144065995Y-75449005D03*
X142795995Y-75449005D03*
X141525995Y-75449005D03*
X140255995Y-75449005D03*
X138985995Y-75449005D03*
%TD*%
D38*
%TO.C,Q1*%
X115775995Y-129909005D03*
D39*
X109475995Y-127629005D03*
D38*
X115775995Y-125349005D03*
%TD*%
D23*
%TO.C,R18*%
X161513495Y-67399005D03*
X163163495Y-67399005D03*
%TD*%
D33*
%TO.C,H4*%
X176025995Y-57099005D03*
%TD*%
D40*
%TO.C,X1*%
X153065995Y-81099005D03*
X153065995Y-78899005D03*
X151315995Y-78899005D03*
X151315995Y-81099005D03*
%TD*%
D41*
%TO.C,LED_ESC_2*%
X154275995Y-134786505D03*
X154275995Y-132911505D03*
%TD*%
D42*
%TO.C,U1*%
X169275995Y-122849005D03*
D43*
X167425995Y-121349005D03*
D42*
X169275995Y-119849005D03*
X165575995Y-119849005D03*
X165575995Y-122849005D03*
%TD*%
D44*
%TO.C,J9*%
X95250000Y-107141505D03*
D45*
X89250000Y-107141505D03*
D46*
X92250000Y-111841505D03*
%TD*%
D47*
%TO.C,Cbst1*%
X121207495Y-109273005D03*
X119657495Y-109273005D03*
%TD*%
D48*
%TO.C,JP2*%
X138050995Y-101099005D03*
D49*
X139350995Y-101099005D03*
%TD*%
D50*
%TO.C,Rfb2*%
X110329995Y-113573005D03*
X110329995Y-111748005D03*
%TD*%
D51*
%TO.C,Cout7*%
X142525995Y-120574005D03*
X142525995Y-117624005D03*
%TD*%
D48*
%TO.C,JP3*%
X138050995Y-98349005D03*
D49*
X139350995Y-98349005D03*
%TD*%
D28*
%TO.C,J5*%
X149275995Y-124059005D03*
D29*
X149275995Y-126599005D03*
X149275995Y-129139005D03*
%TD*%
D34*
%TO.C,Cin11*%
X109025995Y-132124005D03*
X109025995Y-135074005D03*
%TD*%
D47*
%TO.C,C2*%
X152800995Y-77099005D03*
X151250995Y-77099005D03*
%TD*%
D52*
%TO.C,R14*%
X119100995Y-64599005D03*
X117450995Y-64599005D03*
%TD*%
D53*
%TO.C,Cout3*%
X142550995Y-130099005D03*
X145500995Y-130099005D03*
%TD*%
D54*
%TO.C,R_CAN1*%
X148639695Y-88734005D03*
X151564695Y-88734005D03*
%TD*%
D55*
%TO.C,U5*%
X115432495Y-109773005D03*
D56*
X114434495Y-110274505D03*
X114434495Y-110774505D03*
X114434495Y-111274505D03*
X114434495Y-111774505D03*
X114434495Y-112274505D03*
X114434495Y-112774505D03*
X114434495Y-113274505D03*
X114434495Y-113774505D03*
D55*
X115432495Y-114273005D03*
X116932495Y-114273005D03*
D56*
X117934495Y-113774505D03*
X117934495Y-113274505D03*
X117932495Y-112773005D03*
X117932495Y-112273005D03*
X117932495Y-111773005D03*
X117932495Y-111273005D03*
X117932495Y-110773005D03*
X117932495Y-110273005D03*
D55*
X116934495Y-109773005D03*
D57*
X116182495Y-112023005D03*
%TD*%
D58*
%TO.C,Rc2*%
X103917495Y-113599005D03*
X105742495Y-113599005D03*
%TD*%
D59*
%TO.C,Cc2*%
X108467495Y-109573005D03*
X110192495Y-109573005D03*
%TD*%
D28*
%TO.C,J8*%
X162275995Y-124059005D03*
D29*
X162275995Y-126599005D03*
X162275995Y-129139005D03*
%TD*%
D60*
%TO.C,C5*%
X137602195Y-88959005D03*
X137602195Y-90509005D03*
%TD*%
D33*
%TO.C,H6*%
X176025995Y-124599005D03*
%TD*%
D28*
%TO.C,J1*%
X166500995Y-128824005D03*
D29*
X169040995Y-128824005D03*
X166500995Y-131364005D03*
X169040995Y-131364005D03*
X166500995Y-133904005D03*
X169040995Y-133904005D03*
%TD*%
D51*
%TO.C,Cin6*%
X113025995Y-123074005D03*
X113025995Y-120124005D03*
%TD*%
%TO.C,Cout6*%
X139025995Y-120574005D03*
X139025995Y-117624005D03*
%TD*%
D61*
%TO.C,R1*%
X91938495Y-128849005D03*
X96613495Y-128849005D03*
%TD*%
D25*
%TO.C,C4*%
X139290995Y-93250000D03*
X140840995Y-93250000D03*
%TD*%
D30*
%TO.C,Ruv1*%
X117579995Y-104524005D03*
X117579995Y-106174005D03*
%TD*%
D28*
%TO.C,CAN2*%
X91775995Y-96599005D03*
D29*
X91775995Y-99139005D03*
%TD*%
D23*
%TO.C,R21*%
X161513495Y-73449005D03*
X163163495Y-73449005D03*
%TD*%
%TO.C,R6*%
X90950995Y-73099005D03*
X92600995Y-73099005D03*
%TD*%
%TO.C,Rpg1*%
X129200995Y-106299005D03*
X130850995Y-106299005D03*
%TD*%
%TO.C,R12*%
X157180995Y-91809005D03*
X158830995Y-91809005D03*
%TD*%
D28*
%TO.C,J6*%
X153525995Y-124059005D03*
D29*
X153525995Y-126599005D03*
X153525995Y-129139005D03*
%TD*%
D21*
%TO.C,R20*%
X168300995Y-89924005D03*
X168300995Y-88274005D03*
%TD*%
D51*
%TO.C,Cin1*%
X95025995Y-125574005D03*
X95025995Y-122624005D03*
%TD*%
D52*
%TO.C,R9*%
X144025995Y-98349005D03*
X142375995Y-98349005D03*
%TD*%
D62*
%TO.C,U4*%
X90875995Y-74849005D03*
X90875995Y-75349005D03*
X90875995Y-75849005D03*
X90875995Y-76349005D03*
X90875995Y-76849005D03*
X95175995Y-76849005D03*
X95175995Y-76349005D03*
X95175995Y-75849005D03*
X95175995Y-75349005D03*
X95175995Y-74849005D03*
%TD*%
D51*
%TO.C,Cin5*%
X109525995Y-123074005D03*
X109525995Y-120124005D03*
%TD*%
%TO.C,Cin3*%
X102525995Y-123074005D03*
X102525995Y-120124005D03*
%TD*%
D24*
%TO.C,TP1*%
X124425995Y-106299005D03*
%TD*%
D41*
%TO.C,LED_ESC_1*%
X150025995Y-134786505D03*
X150025995Y-132911505D03*
%TD*%
D53*
%TO.C,Cout4*%
X142550995Y-126599005D03*
X145500995Y-126599005D03*
%TD*%
D51*
%TO.C,Cin2*%
X98525995Y-125574005D03*
X98525995Y-122624005D03*
%TD*%
D31*
%TO.C,LED2*%
X130525995Y-114261505D03*
X130525995Y-116136505D03*
%TD*%
D33*
%TO.C,H3*%
X176025995Y-142099005D03*
%TD*%
D63*
%TO.C,Q2*%
X123085995Y-121099005D03*
D64*
X120805995Y-127399005D03*
D63*
X118525995Y-121099005D03*
%TD*%
D65*
%TO.C,Q4*%
X165630995Y-86009005D03*
X165630995Y-84109005D03*
X163755995Y-85059005D03*
%TD*%
D60*
%TO.C,Css1*%
X111275995Y-104574005D03*
X111275995Y-106124005D03*
%TD*%
D30*
%TO.C,R3*%
X152025995Y-131774005D03*
X152025995Y-133424005D03*
%TD*%
D66*
%TO.C,Q8*%
X161588495Y-75149005D03*
X161588495Y-77049005D03*
X163463495Y-76099005D03*
%TD*%
D25*
%TO.C,C3*%
X151290995Y-83599005D03*
X152840995Y-83599005D03*
%TD*%
D67*
%TO.C,D2*%
X84272495Y-129599005D03*
X89279495Y-129599005D03*
%TD*%
D53*
%TO.C,Cout5*%
X142550995Y-123099005D03*
X145500995Y-123099005D03*
%TD*%
D36*
%TO.C,Cvin1*%
X121329995Y-106623005D03*
X121329995Y-105073005D03*
%TD*%
D30*
%TO.C,R15*%
X152025995Y-105949005D03*
X152025995Y-107599005D03*
%TD*%
D21*
%TO.C,R16*%
X130525995Y-120424005D03*
X130525995Y-118774005D03*
%TD*%
D36*
%TO.C,Cout2*%
X143025995Y-134374005D03*
X143025995Y-132824005D03*
%TD*%
D52*
%TO.C,R_reset1*%
X139890995Y-73349005D03*
X138240995Y-73349005D03*
%TD*%
D33*
%TO.C,H5*%
X176025995Y-74599005D03*
%TD*%
D23*
%TO.C,R17*%
X160680995Y-91809005D03*
X162330995Y-91809005D03*
%TD*%
D59*
%TO.C,Cc1*%
X108467495Y-107573005D03*
X110192495Y-107573005D03*
%TD*%
D68*
%TO.C,LED1*%
X113088495Y-64599005D03*
X114963495Y-64599005D03*
%TD*%
D21*
%TO.C,R19*%
X168275995Y-86174005D03*
X168275995Y-84524005D03*
%TD*%
D34*
%TO.C,Cin12*%
X112525995Y-132124005D03*
X112525995Y-135074005D03*
%TD*%
D41*
%TO.C,LED_ESC_4*%
X163025995Y-134786505D03*
X163025995Y-132911505D03*
%TD*%
D34*
%TO.C,Cin10*%
X105525995Y-132124005D03*
X105525995Y-135074005D03*
%TD*%
%TO.C,Cin8*%
X98525995Y-132124005D03*
X98525995Y-135074005D03*
%TD*%
D66*
%TO.C,Q3*%
X163755995Y-88159005D03*
X163755995Y-90059005D03*
X165630995Y-89109005D03*
%TD*%
D54*
%TO.C,R10*%
X166313495Y-125349005D03*
X169238495Y-125349005D03*
%TD*%
D52*
%TO.C,R7*%
X93850995Y-78849005D03*
X92200995Y-78849005D03*
%TD*%
D30*
%TO.C,R2*%
X147775995Y-131774005D03*
X147775995Y-133424005D03*
%TD*%
D28*
%TO.C,M1*%
X127025995Y-110559005D03*
D29*
X127025995Y-113099005D03*
X127025995Y-115639005D03*
%TD*%
D69*
%TO.C,D8*%
X165025995Y-117099005D03*
X169025995Y-117099005D03*
%TD*%
D59*
%TO.C,Cc3*%
X103967495Y-111823005D03*
X105692495Y-111823005D03*
%TD*%
D36*
%TO.C,Cvcc1*%
X120932495Y-113298005D03*
X120932495Y-111748005D03*
%TD*%
D66*
%TO.C,Q7*%
X161650995Y-69199005D03*
X161650995Y-71099005D03*
X163525995Y-70149005D03*
%TD*%
D52*
%TO.C,R8*%
X144025995Y-100849005D03*
X142375995Y-100849005D03*
%TD*%
D33*
%TO.C,H2*%
X86025995Y-142099005D03*
%TD*%
D70*
%TO.C,U3*%
X140138395Y-87829005D03*
X140138395Y-89099005D03*
X140138395Y-90369005D03*
X140138395Y-91639005D03*
X145065995Y-91639005D03*
X145065995Y-90369005D03*
X145065995Y-89099005D03*
X145065995Y-87829005D03*
%TD*%
D22*
%TO.C,L2*%
X126775995Y-128849005D03*
X139275995Y-128849005D03*
%TD*%
D51*
%TO.C,Cin4*%
X106025995Y-123074005D03*
X106025995Y-120124005D03*
%TD*%
D23*
%TO.C,R13*%
X163430995Y-82309005D03*
X165080995Y-82309005D03*
%TD*%
D41*
%TO.C,LED_ESC_3*%
X158625995Y-134974005D03*
X158625995Y-133099005D03*
%TD*%
D24*
%TO.C,TP4*%
X112525995Y-115349005D03*
%TD*%
D34*
%TO.C,Cin7*%
X95025995Y-132149005D03*
X95025995Y-135099005D03*
%TD*%
D71*
%TO.C,J4*%
X87125995Y-80749005D03*
D72*
X85525995Y-82349005D03*
D73*
X85525995Y-84849005D03*
X85525995Y-87349005D03*
X85525995Y-89849005D03*
%TD*%
D71*
%TO.C,CAN1*%
X87125995Y-94999005D03*
D72*
X85525995Y-96599005D03*
D73*
X85525995Y-99099005D03*
%TD*%
D74*
%TO.C,J2*%
X85525995Y-121639005D03*
D75*
X85525995Y-125599005D03*
%TD*%
D71*
%TO.C,Analog_IN1*%
X87125995Y-66999005D03*
D72*
X85525995Y-68599005D03*
D73*
X85525995Y-71099005D03*
X85525995Y-73599005D03*
X85525995Y-76099005D03*
%TD*%
%LPD*%
M02*
