%TF.GenerationSoftware,KiCad,Pcbnew,9.0.0*%
%TF.CreationDate,2025-05-22T12:59:40+09:00*%
%TF.ProjectId,control_unit,636f6e74-726f-46c5-9f75-6e69742e6b69,R1*%
%TF.SameCoordinates,Original*%
%TF.FileFunction,Legend,Bot*%
%TF.FilePolarity,Positive*%
%FSLAX46Y46*%
G04 Gerber Fmt 4.6, Leading zero omitted, Abs format (unit mm)*
G04 Created by KiCad (PCBNEW 9.0.0) date 2025-05-22 12:59:40*
%MOMM*%
%LPD*%
G01*
G04 APERTURE LIST*
G04 Aperture macros list*
%AMRoundRect*
0 Rectangle with rounded corners*
0 $1 Rounding radius*
0 $2 $3 $4 $5 $6 $7 $8 $9 X,Y pos of 4 corners*
0 Add a 4 corners polygon primitive as box body*
4,1,4,$2,$3,$4,$5,$6,$7,$8,$9,$2,$3,0*
0 Add four circle primitives for the rounded corners*
1,1,$1+$1,$2,$3*
1,1,$1+$1,$4,$5*
1,1,$1+$1,$6,$7*
1,1,$1+$1,$8,$9*
0 Add four rect primitives between the rounded corners*
20,1,$1+$1,$2,$3,$4,$5,0*
20,1,$1+$1,$4,$5,$6,$7,0*
20,1,$1+$1,$6,$7,$8,$9,0*
20,1,$1+$1,$8,$9,$2,$3,0*%
G04 Aperture macros list end*
%ADD10C,0.100000*%
%ADD11C,0.150000*%
%ADD12C,0.120000*%
%ADD13C,1.400000*%
%ADD14R,1.800000X1.800000*%
%ADD15C,1.800000*%
%ADD16R,1.700000X1.700000*%
%ADD17O,1.700000X1.700000*%
%ADD18C,3.200000*%
%ADD19C,1.524000*%
%ADD20R,3.500000X3.500000*%
%ADD21RoundRect,0.750000X-0.750000X-1.000000X0.750000X-1.000000X0.750000X1.000000X-0.750000X1.000000X0*%
%ADD22RoundRect,0.875000X-0.875000X-0.875000X0.875000X-0.875000X0.875000X0.875000X-0.875000X0.875000X0*%
%ADD23C,1.250000*%
%ADD24RoundRect,0.250000X-0.725000X0.600000X-0.725000X-0.600000X0.725000X-0.600000X0.725000X0.600000X0*%
%ADD25O,1.950000X1.700000*%
%ADD26RoundRect,0.250001X-1.099999X1.099999X-1.099999X-1.099999X1.099999X-1.099999X1.099999X1.099999X0*%
%ADD27C,2.700000*%
G04 APERTURE END LIST*
D10*
X92019729Y-76435709D02*
X91543539Y-76435709D01*
X92114967Y-76721424D02*
X91781634Y-75721424D01*
X91781634Y-75721424D02*
X91448301Y-76721424D01*
X91114967Y-76721424D02*
X91114967Y-75721424D01*
X90638777Y-76721424D02*
X90638777Y-75721424D01*
X90638777Y-75721424D02*
X90067349Y-76721424D01*
X90067349Y-76721424D02*
X90067349Y-75721424D01*
X89162587Y-76054757D02*
X89162587Y-76721424D01*
X89400682Y-75673805D02*
X89638777Y-76388090D01*
X89638777Y-76388090D02*
X89019730Y-76388090D01*
X92019729Y-73685709D02*
X91543539Y-73685709D01*
X92114967Y-73971424D02*
X91781634Y-72971424D01*
X91781634Y-72971424D02*
X91448301Y-73971424D01*
X91114967Y-73971424D02*
X91114967Y-72971424D01*
X90638777Y-73971424D02*
X90638777Y-72971424D01*
X90638777Y-72971424D02*
X90067349Y-73971424D01*
X90067349Y-73971424D02*
X90067349Y-72971424D01*
X89686396Y-72971424D02*
X89067349Y-72971424D01*
X89067349Y-72971424D02*
X89400682Y-73352376D01*
X89400682Y-73352376D02*
X89257825Y-73352376D01*
X89257825Y-73352376D02*
X89162587Y-73399995D01*
X89162587Y-73399995D02*
X89114968Y-73447614D01*
X89114968Y-73447614D02*
X89067349Y-73542852D01*
X89067349Y-73542852D02*
X89067349Y-73780947D01*
X89067349Y-73780947D02*
X89114968Y-73876185D01*
X89114968Y-73876185D02*
X89162587Y-73923805D01*
X89162587Y-73923805D02*
X89257825Y-73971424D01*
X89257825Y-73971424D02*
X89543539Y-73971424D01*
X89543539Y-73971424D02*
X89638777Y-73923805D01*
X89638777Y-73923805D02*
X89686396Y-73876185D01*
X92019729Y-68685709D02*
X91543539Y-68685709D01*
X92114967Y-68971424D02*
X91781634Y-67971424D01*
X91781634Y-67971424D02*
X91448301Y-68971424D01*
X91114967Y-68971424D02*
X91114967Y-67971424D01*
X90638777Y-68971424D02*
X90638777Y-67971424D01*
X90638777Y-67971424D02*
X90067349Y-68971424D01*
X90067349Y-68971424D02*
X90067349Y-67971424D01*
X89067349Y-68971424D02*
X89638777Y-68971424D01*
X89353063Y-68971424D02*
X89353063Y-67971424D01*
X89353063Y-67971424D02*
X89448301Y-68114281D01*
X89448301Y-68114281D02*
X89543539Y-68209519D01*
X89543539Y-68209519D02*
X89638777Y-68257138D01*
X95019729Y-90423805D02*
X94876872Y-90471424D01*
X94876872Y-90471424D02*
X94638777Y-90471424D01*
X94638777Y-90471424D02*
X94543539Y-90423805D01*
X94543539Y-90423805D02*
X94495920Y-90376185D01*
X94495920Y-90376185D02*
X94448301Y-90280947D01*
X94448301Y-90280947D02*
X94448301Y-90185709D01*
X94448301Y-90185709D02*
X94495920Y-90090471D01*
X94495920Y-90090471D02*
X94543539Y-90042852D01*
X94543539Y-90042852D02*
X94638777Y-89995233D01*
X94638777Y-89995233D02*
X94829253Y-89947614D01*
X94829253Y-89947614D02*
X94924491Y-89899995D01*
X94924491Y-89899995D02*
X94972110Y-89852376D01*
X94972110Y-89852376D02*
X95019729Y-89757138D01*
X95019729Y-89757138D02*
X95019729Y-89661900D01*
X95019729Y-89661900D02*
X94972110Y-89566662D01*
X94972110Y-89566662D02*
X94924491Y-89519043D01*
X94924491Y-89519043D02*
X94829253Y-89471424D01*
X94829253Y-89471424D02*
X94591158Y-89471424D01*
X94591158Y-89471424D02*
X94448301Y-89519043D01*
X94019729Y-89947614D02*
X93686396Y-89947614D01*
X93543539Y-90471424D02*
X94019729Y-90471424D01*
X94019729Y-90471424D02*
X94019729Y-89471424D01*
X94019729Y-89471424D02*
X93543539Y-89471424D01*
X92543539Y-90471424D02*
X92876872Y-89995233D01*
X93114967Y-90471424D02*
X93114967Y-89471424D01*
X93114967Y-89471424D02*
X92734015Y-89471424D01*
X92734015Y-89471424D02*
X92638777Y-89519043D01*
X92638777Y-89519043D02*
X92591158Y-89566662D01*
X92591158Y-89566662D02*
X92543539Y-89661900D01*
X92543539Y-89661900D02*
X92543539Y-89804757D01*
X92543539Y-89804757D02*
X92591158Y-89899995D01*
X92591158Y-89899995D02*
X92638777Y-89947614D01*
X92638777Y-89947614D02*
X92734015Y-89995233D01*
X92734015Y-89995233D02*
X93114967Y-89995233D01*
X92257824Y-89471424D02*
X91924491Y-90471424D01*
X91924491Y-90471424D02*
X91591158Y-89471424D01*
X91067348Y-89471424D02*
X90876872Y-89471424D01*
X90876872Y-89471424D02*
X90781634Y-89519043D01*
X90781634Y-89519043D02*
X90686396Y-89614281D01*
X90686396Y-89614281D02*
X90638777Y-89804757D01*
X90638777Y-89804757D02*
X90638777Y-90138090D01*
X90638777Y-90138090D02*
X90686396Y-90328566D01*
X90686396Y-90328566D02*
X90781634Y-90423805D01*
X90781634Y-90423805D02*
X90876872Y-90471424D01*
X90876872Y-90471424D02*
X91067348Y-90471424D01*
X91067348Y-90471424D02*
X91162586Y-90423805D01*
X91162586Y-90423805D02*
X91257824Y-90328566D01*
X91257824Y-90328566D02*
X91305443Y-90138090D01*
X91305443Y-90138090D02*
X91305443Y-89804757D01*
X91305443Y-89804757D02*
X91257824Y-89614281D01*
X91257824Y-89614281D02*
X91162586Y-89519043D01*
X91162586Y-89519043D02*
X91067348Y-89471424D01*
X89686396Y-90471424D02*
X90257824Y-90471424D01*
X89972110Y-90471424D02*
X89972110Y-89471424D01*
X89972110Y-89471424D02*
X90067348Y-89614281D01*
X90067348Y-89614281D02*
X90162586Y-89709519D01*
X90162586Y-89709519D02*
X90257824Y-89757138D01*
X95019729Y-84923805D02*
X94876872Y-84971424D01*
X94876872Y-84971424D02*
X94638777Y-84971424D01*
X94638777Y-84971424D02*
X94543539Y-84923805D01*
X94543539Y-84923805D02*
X94495920Y-84876185D01*
X94495920Y-84876185D02*
X94448301Y-84780947D01*
X94448301Y-84780947D02*
X94448301Y-84685709D01*
X94448301Y-84685709D02*
X94495920Y-84590471D01*
X94495920Y-84590471D02*
X94543539Y-84542852D01*
X94543539Y-84542852D02*
X94638777Y-84495233D01*
X94638777Y-84495233D02*
X94829253Y-84447614D01*
X94829253Y-84447614D02*
X94924491Y-84399995D01*
X94924491Y-84399995D02*
X94972110Y-84352376D01*
X94972110Y-84352376D02*
X95019729Y-84257138D01*
X95019729Y-84257138D02*
X95019729Y-84161900D01*
X95019729Y-84161900D02*
X94972110Y-84066662D01*
X94972110Y-84066662D02*
X94924491Y-84019043D01*
X94924491Y-84019043D02*
X94829253Y-83971424D01*
X94829253Y-83971424D02*
X94591158Y-83971424D01*
X94591158Y-83971424D02*
X94448301Y-84019043D01*
X94019729Y-84447614D02*
X93686396Y-84447614D01*
X93543539Y-84971424D02*
X94019729Y-84971424D01*
X94019729Y-84971424D02*
X94019729Y-83971424D01*
X94019729Y-83971424D02*
X93543539Y-83971424D01*
X92543539Y-84971424D02*
X92876872Y-84495233D01*
X93114967Y-84971424D02*
X93114967Y-83971424D01*
X93114967Y-83971424D02*
X92734015Y-83971424D01*
X92734015Y-83971424D02*
X92638777Y-84019043D01*
X92638777Y-84019043D02*
X92591158Y-84066662D01*
X92591158Y-84066662D02*
X92543539Y-84161900D01*
X92543539Y-84161900D02*
X92543539Y-84304757D01*
X92543539Y-84304757D02*
X92591158Y-84399995D01*
X92591158Y-84399995D02*
X92638777Y-84447614D01*
X92638777Y-84447614D02*
X92734015Y-84495233D01*
X92734015Y-84495233D02*
X93114967Y-84495233D01*
X92257824Y-83971424D02*
X91924491Y-84971424D01*
X91924491Y-84971424D02*
X91591158Y-83971424D01*
X91067348Y-83971424D02*
X90876872Y-83971424D01*
X90876872Y-83971424D02*
X90781634Y-84019043D01*
X90781634Y-84019043D02*
X90686396Y-84114281D01*
X90686396Y-84114281D02*
X90638777Y-84304757D01*
X90638777Y-84304757D02*
X90638777Y-84638090D01*
X90638777Y-84638090D02*
X90686396Y-84828566D01*
X90686396Y-84828566D02*
X90781634Y-84923805D01*
X90781634Y-84923805D02*
X90876872Y-84971424D01*
X90876872Y-84971424D02*
X91067348Y-84971424D01*
X91067348Y-84971424D02*
X91162586Y-84923805D01*
X91162586Y-84923805D02*
X91257824Y-84828566D01*
X91257824Y-84828566D02*
X91305443Y-84638090D01*
X91305443Y-84638090D02*
X91305443Y-84304757D01*
X91305443Y-84304757D02*
X91257824Y-84114281D01*
X91257824Y-84114281D02*
X91162586Y-84019043D01*
X91162586Y-84019043D02*
X91067348Y-83971424D01*
X90305443Y-83971424D02*
X89686396Y-83971424D01*
X89686396Y-83971424D02*
X90019729Y-84352376D01*
X90019729Y-84352376D02*
X89876872Y-84352376D01*
X89876872Y-84352376D02*
X89781634Y-84399995D01*
X89781634Y-84399995D02*
X89734015Y-84447614D01*
X89734015Y-84447614D02*
X89686396Y-84542852D01*
X89686396Y-84542852D02*
X89686396Y-84780947D01*
X89686396Y-84780947D02*
X89734015Y-84876185D01*
X89734015Y-84876185D02*
X89781634Y-84923805D01*
X89781634Y-84923805D02*
X89876872Y-84971424D01*
X89876872Y-84971424D02*
X90162586Y-84971424D01*
X90162586Y-84971424D02*
X90257824Y-84923805D01*
X90257824Y-84923805D02*
X90305443Y-84876185D01*
X92019729Y-71185709D02*
X91543539Y-71185709D01*
X92114967Y-71471424D02*
X91781634Y-70471424D01*
X91781634Y-70471424D02*
X91448301Y-71471424D01*
X91114967Y-71471424D02*
X91114967Y-70471424D01*
X90638777Y-71471424D02*
X90638777Y-70471424D01*
X90638777Y-70471424D02*
X90067349Y-71471424D01*
X90067349Y-71471424D02*
X90067349Y-70471424D01*
X89638777Y-70566662D02*
X89591158Y-70519043D01*
X89591158Y-70519043D02*
X89495920Y-70471424D01*
X89495920Y-70471424D02*
X89257825Y-70471424D01*
X89257825Y-70471424D02*
X89162587Y-70519043D01*
X89162587Y-70519043D02*
X89114968Y-70566662D01*
X89114968Y-70566662D02*
X89067349Y-70661900D01*
X89067349Y-70661900D02*
X89067349Y-70757138D01*
X89067349Y-70757138D02*
X89114968Y-70899995D01*
X89114968Y-70899995D02*
X89686396Y-71471424D01*
X89686396Y-71471424D02*
X89067349Y-71471424D01*
X95019729Y-87673805D02*
X94876872Y-87721424D01*
X94876872Y-87721424D02*
X94638777Y-87721424D01*
X94638777Y-87721424D02*
X94543539Y-87673805D01*
X94543539Y-87673805D02*
X94495920Y-87626185D01*
X94495920Y-87626185D02*
X94448301Y-87530947D01*
X94448301Y-87530947D02*
X94448301Y-87435709D01*
X94448301Y-87435709D02*
X94495920Y-87340471D01*
X94495920Y-87340471D02*
X94543539Y-87292852D01*
X94543539Y-87292852D02*
X94638777Y-87245233D01*
X94638777Y-87245233D02*
X94829253Y-87197614D01*
X94829253Y-87197614D02*
X94924491Y-87149995D01*
X94924491Y-87149995D02*
X94972110Y-87102376D01*
X94972110Y-87102376D02*
X95019729Y-87007138D01*
X95019729Y-87007138D02*
X95019729Y-86911900D01*
X95019729Y-86911900D02*
X94972110Y-86816662D01*
X94972110Y-86816662D02*
X94924491Y-86769043D01*
X94924491Y-86769043D02*
X94829253Y-86721424D01*
X94829253Y-86721424D02*
X94591158Y-86721424D01*
X94591158Y-86721424D02*
X94448301Y-86769043D01*
X94019729Y-87197614D02*
X93686396Y-87197614D01*
X93543539Y-87721424D02*
X94019729Y-87721424D01*
X94019729Y-87721424D02*
X94019729Y-86721424D01*
X94019729Y-86721424D02*
X93543539Y-86721424D01*
X92543539Y-87721424D02*
X92876872Y-87245233D01*
X93114967Y-87721424D02*
X93114967Y-86721424D01*
X93114967Y-86721424D02*
X92734015Y-86721424D01*
X92734015Y-86721424D02*
X92638777Y-86769043D01*
X92638777Y-86769043D02*
X92591158Y-86816662D01*
X92591158Y-86816662D02*
X92543539Y-86911900D01*
X92543539Y-86911900D02*
X92543539Y-87054757D01*
X92543539Y-87054757D02*
X92591158Y-87149995D01*
X92591158Y-87149995D02*
X92638777Y-87197614D01*
X92638777Y-87197614D02*
X92734015Y-87245233D01*
X92734015Y-87245233D02*
X93114967Y-87245233D01*
X92257824Y-86721424D02*
X91924491Y-87721424D01*
X91924491Y-87721424D02*
X91591158Y-86721424D01*
X91067348Y-86721424D02*
X90876872Y-86721424D01*
X90876872Y-86721424D02*
X90781634Y-86769043D01*
X90781634Y-86769043D02*
X90686396Y-86864281D01*
X90686396Y-86864281D02*
X90638777Y-87054757D01*
X90638777Y-87054757D02*
X90638777Y-87388090D01*
X90638777Y-87388090D02*
X90686396Y-87578566D01*
X90686396Y-87578566D02*
X90781634Y-87673805D01*
X90781634Y-87673805D02*
X90876872Y-87721424D01*
X90876872Y-87721424D02*
X91067348Y-87721424D01*
X91067348Y-87721424D02*
X91162586Y-87673805D01*
X91162586Y-87673805D02*
X91257824Y-87578566D01*
X91257824Y-87578566D02*
X91305443Y-87388090D01*
X91305443Y-87388090D02*
X91305443Y-87054757D01*
X91305443Y-87054757D02*
X91257824Y-86864281D01*
X91257824Y-86864281D02*
X91162586Y-86769043D01*
X91162586Y-86769043D02*
X91067348Y-86721424D01*
X90257824Y-86816662D02*
X90210205Y-86769043D01*
X90210205Y-86769043D02*
X90114967Y-86721424D01*
X90114967Y-86721424D02*
X89876872Y-86721424D01*
X89876872Y-86721424D02*
X89781634Y-86769043D01*
X89781634Y-86769043D02*
X89734015Y-86816662D01*
X89734015Y-86816662D02*
X89686396Y-86911900D01*
X89686396Y-86911900D02*
X89686396Y-87007138D01*
X89686396Y-87007138D02*
X89734015Y-87149995D01*
X89734015Y-87149995D02*
X90305443Y-87721424D01*
X90305443Y-87721424D02*
X89686396Y-87721424D01*
X95019729Y-82673805D02*
X94876872Y-82721424D01*
X94876872Y-82721424D02*
X94638777Y-82721424D01*
X94638777Y-82721424D02*
X94543539Y-82673805D01*
X94543539Y-82673805D02*
X94495920Y-82626185D01*
X94495920Y-82626185D02*
X94448301Y-82530947D01*
X94448301Y-82530947D02*
X94448301Y-82435709D01*
X94448301Y-82435709D02*
X94495920Y-82340471D01*
X94495920Y-82340471D02*
X94543539Y-82292852D01*
X94543539Y-82292852D02*
X94638777Y-82245233D01*
X94638777Y-82245233D02*
X94829253Y-82197614D01*
X94829253Y-82197614D02*
X94924491Y-82149995D01*
X94924491Y-82149995D02*
X94972110Y-82102376D01*
X94972110Y-82102376D02*
X95019729Y-82007138D01*
X95019729Y-82007138D02*
X95019729Y-81911900D01*
X95019729Y-81911900D02*
X94972110Y-81816662D01*
X94972110Y-81816662D02*
X94924491Y-81769043D01*
X94924491Y-81769043D02*
X94829253Y-81721424D01*
X94829253Y-81721424D02*
X94591158Y-81721424D01*
X94591158Y-81721424D02*
X94448301Y-81769043D01*
X94019729Y-82197614D02*
X93686396Y-82197614D01*
X93543539Y-82721424D02*
X94019729Y-82721424D01*
X94019729Y-82721424D02*
X94019729Y-81721424D01*
X94019729Y-81721424D02*
X93543539Y-81721424D01*
X92543539Y-82721424D02*
X92876872Y-82245233D01*
X93114967Y-82721424D02*
X93114967Y-81721424D01*
X93114967Y-81721424D02*
X92734015Y-81721424D01*
X92734015Y-81721424D02*
X92638777Y-81769043D01*
X92638777Y-81769043D02*
X92591158Y-81816662D01*
X92591158Y-81816662D02*
X92543539Y-81911900D01*
X92543539Y-81911900D02*
X92543539Y-82054757D01*
X92543539Y-82054757D02*
X92591158Y-82149995D01*
X92591158Y-82149995D02*
X92638777Y-82197614D01*
X92638777Y-82197614D02*
X92734015Y-82245233D01*
X92734015Y-82245233D02*
X93114967Y-82245233D01*
X92257824Y-81721424D02*
X91924491Y-82721424D01*
X91924491Y-82721424D02*
X91591158Y-81721424D01*
X91067348Y-81721424D02*
X90876872Y-81721424D01*
X90876872Y-81721424D02*
X90781634Y-81769043D01*
X90781634Y-81769043D02*
X90686396Y-81864281D01*
X90686396Y-81864281D02*
X90638777Y-82054757D01*
X90638777Y-82054757D02*
X90638777Y-82388090D01*
X90638777Y-82388090D02*
X90686396Y-82578566D01*
X90686396Y-82578566D02*
X90781634Y-82673805D01*
X90781634Y-82673805D02*
X90876872Y-82721424D01*
X90876872Y-82721424D02*
X91067348Y-82721424D01*
X91067348Y-82721424D02*
X91162586Y-82673805D01*
X91162586Y-82673805D02*
X91257824Y-82578566D01*
X91257824Y-82578566D02*
X91305443Y-82388090D01*
X91305443Y-82388090D02*
X91305443Y-82054757D01*
X91305443Y-82054757D02*
X91257824Y-81864281D01*
X91257824Y-81864281D02*
X91162586Y-81769043D01*
X91162586Y-81769043D02*
X91067348Y-81721424D01*
X89781634Y-82054757D02*
X89781634Y-82721424D01*
X90019729Y-81673805D02*
X90257824Y-82388090D01*
X90257824Y-82388090D02*
X89638777Y-82388090D01*
D11*
X89480814Y-85515671D02*
X90195099Y-85515671D01*
X90195099Y-85515671D02*
X90337956Y-85468052D01*
X90337956Y-85468052D02*
X90433195Y-85372814D01*
X90433195Y-85372814D02*
X90480814Y-85229957D01*
X90480814Y-85229957D02*
X90480814Y-85134719D01*
X89814147Y-86420433D02*
X90480814Y-86420433D01*
X89433195Y-86182338D02*
X90147480Y-85944243D01*
X90147480Y-85944243D02*
X90147480Y-86563290D01*
X90385575Y-96729957D02*
X90433195Y-96682338D01*
X90433195Y-96682338D02*
X90480814Y-96539481D01*
X90480814Y-96539481D02*
X90480814Y-96444243D01*
X90480814Y-96444243D02*
X90433195Y-96301386D01*
X90433195Y-96301386D02*
X90337956Y-96206148D01*
X90337956Y-96206148D02*
X90242718Y-96158529D01*
X90242718Y-96158529D02*
X90052242Y-96110910D01*
X90052242Y-96110910D02*
X89909385Y-96110910D01*
X89909385Y-96110910D02*
X89718909Y-96158529D01*
X89718909Y-96158529D02*
X89623671Y-96206148D01*
X89623671Y-96206148D02*
X89528433Y-96301386D01*
X89528433Y-96301386D02*
X89480814Y-96444243D01*
X89480814Y-96444243D02*
X89480814Y-96539481D01*
X89480814Y-96539481D02*
X89528433Y-96682338D01*
X89528433Y-96682338D02*
X89576052Y-96729957D01*
X90195099Y-97110910D02*
X90195099Y-97587100D01*
X90480814Y-97015672D02*
X89480814Y-97349005D01*
X89480814Y-97349005D02*
X90480814Y-97682338D01*
X90480814Y-98015672D02*
X89480814Y-98015672D01*
X89480814Y-98015672D02*
X90480814Y-98587100D01*
X90480814Y-98587100D02*
X89480814Y-98587100D01*
X90480814Y-99587100D02*
X90480814Y-99015672D01*
X90480814Y-99301386D02*
X89480814Y-99301386D01*
X89480814Y-99301386D02*
X89623671Y-99206148D01*
X89623671Y-99206148D02*
X89718909Y-99110910D01*
X89718909Y-99110910D02*
X89766528Y-99015672D01*
X88480814Y-123285671D02*
X89195099Y-123285671D01*
X89195099Y-123285671D02*
X89337956Y-123238052D01*
X89337956Y-123238052D02*
X89433195Y-123142814D01*
X89433195Y-123142814D02*
X89480814Y-122999957D01*
X89480814Y-122999957D02*
X89480814Y-122904719D01*
X88576052Y-123714243D02*
X88528433Y-123761862D01*
X88528433Y-123761862D02*
X88480814Y-123857100D01*
X88480814Y-123857100D02*
X88480814Y-124095195D01*
X88480814Y-124095195D02*
X88528433Y-124190433D01*
X88528433Y-124190433D02*
X88576052Y-124238052D01*
X88576052Y-124238052D02*
X88671290Y-124285671D01*
X88671290Y-124285671D02*
X88766528Y-124285671D01*
X88766528Y-124285671D02*
X88909385Y-124238052D01*
X88909385Y-124238052D02*
X89480814Y-123666624D01*
X89480814Y-123666624D02*
X89480814Y-124285671D01*
D12*
%TO.C,J4*%
X81915995Y-79439005D02*
X83165995Y-79439005D01*
X81915995Y-80689005D02*
X81915995Y-79439005D01*
X82215995Y-79739005D02*
X88835995Y-79739005D01*
X82215995Y-83399005D02*
X82215995Y-79739005D01*
X82215995Y-88799005D02*
X83215995Y-88799005D01*
X82215995Y-92459005D02*
X82215995Y-88799005D01*
X82615995Y-85299005D02*
X83215995Y-85299005D01*
X82615995Y-86899005D02*
X82615995Y-85299005D01*
X83215995Y-83399005D02*
X82215995Y-83399005D01*
X83215995Y-85299005D02*
X83215995Y-83399005D01*
X83215995Y-86899005D02*
X82615995Y-86899005D01*
X83215995Y-88799005D02*
X83215995Y-86899005D01*
X83825995Y-80749005D02*
X83825995Y-91449005D01*
X83825995Y-91449005D02*
X88125995Y-91449005D01*
X85525995Y-79739005D02*
X85525995Y-80749005D01*
X85525995Y-92459005D02*
X85525995Y-91449005D01*
X86125995Y-80749005D02*
X83825995Y-80749005D01*
X88125995Y-91449005D02*
X88125995Y-80749005D01*
X88835995Y-79739005D02*
X88835995Y-92459005D01*
X88835995Y-92459005D02*
X82215995Y-92459005D01*
%TO.C,CAN1*%
X81915995Y-93689005D02*
X83165995Y-93689005D01*
X81915995Y-94939005D02*
X81915995Y-93689005D01*
X82215995Y-93989005D02*
X88835995Y-93989005D01*
X82215995Y-96249005D02*
X82215995Y-93989005D01*
X82215995Y-99449005D02*
X83215995Y-99449005D01*
X82215995Y-101709005D02*
X82215995Y-99449005D01*
X82615995Y-97449005D02*
X83215995Y-97449005D01*
X82615995Y-98249005D02*
X82615995Y-97449005D01*
X83215995Y-96249005D02*
X82215995Y-96249005D01*
X83215995Y-97449005D02*
X83215995Y-96249005D01*
X83215995Y-98249005D02*
X82615995Y-98249005D01*
X83215995Y-99449005D02*
X83215995Y-98249005D01*
X83825995Y-94999005D02*
X83825995Y-100699005D01*
X83825995Y-100699005D02*
X88125995Y-100699005D01*
X85525995Y-93989005D02*
X85525995Y-94999005D01*
X85525995Y-101709005D02*
X85525995Y-100699005D01*
X86125995Y-94999005D02*
X83825995Y-94999005D01*
X88125995Y-100699005D02*
X88125995Y-94999005D01*
X88835995Y-93989005D02*
X88835995Y-101709005D01*
X88835995Y-101709005D02*
X82215995Y-101709005D01*
%TO.C,J2*%
X81715995Y-120779005D02*
X81715995Y-126459005D01*
X81715995Y-126459005D02*
X83415995Y-126459005D01*
X83415995Y-119579005D02*
X83415995Y-120779005D01*
X83415995Y-120779005D02*
X81715995Y-120779005D01*
X83415995Y-126459005D02*
X83415995Y-127659005D01*
X83415995Y-127659005D02*
X90435995Y-127659005D01*
X85225995Y-118779005D02*
X85525995Y-119379005D01*
X85525995Y-119379005D02*
X85825995Y-118779005D01*
X85825995Y-118779005D02*
X85225995Y-118779005D01*
X90435995Y-119579005D02*
X83415995Y-119579005D01*
X90435995Y-127659005D02*
X90435995Y-119579005D01*
%TO.C,Analog_IN1*%
X81915995Y-65689005D02*
X83165995Y-65689005D01*
X81915995Y-66939005D02*
X81915995Y-65689005D01*
X82215995Y-65989005D02*
X88835995Y-65989005D01*
X82215995Y-69649005D02*
X82215995Y-65989005D01*
X82215995Y-75049005D02*
X83215995Y-75049005D01*
X82215995Y-78709005D02*
X82215995Y-75049005D01*
X82615995Y-71549005D02*
X83215995Y-71549005D01*
X82615995Y-73149005D02*
X82615995Y-71549005D01*
X83215995Y-69649005D02*
X82215995Y-69649005D01*
X83215995Y-71549005D02*
X83215995Y-69649005D01*
X83215995Y-73149005D02*
X82615995Y-73149005D01*
X83215995Y-75049005D02*
X83215995Y-73149005D01*
X83825995Y-66999005D02*
X83825995Y-77699005D01*
X83825995Y-77699005D02*
X88125995Y-77699005D01*
X85525995Y-65989005D02*
X85525995Y-66999005D01*
X85525995Y-78709005D02*
X85525995Y-77699005D01*
X86125995Y-66999005D02*
X83825995Y-66999005D01*
X88125995Y-77699005D02*
X88125995Y-66999005D01*
X88835995Y-65989005D02*
X88835995Y-78709005D01*
X88835995Y-78709005D02*
X82215995Y-78709005D01*
%TD*%
%LPC*%
D13*
%TO.C,TP2*%
X86525995Y-133849005D03*
%TD*%
%TO.C,JP1*%
X148852195Y-91234005D03*
X151392195Y-91234005D03*
%TD*%
D14*
%TO.C,R11*%
X158775995Y-89849005D03*
X156235995Y-87309005D03*
X158775995Y-84769005D03*
%TD*%
D15*
%TO.C,U15*%
X152085995Y-95789005D03*
X149545995Y-95789005D03*
X147005995Y-95789005D03*
X144465995Y-95789005D03*
X144465995Y-103409005D03*
X147005995Y-103409005D03*
X149545995Y-103409005D03*
X152085995Y-103409005D03*
%TD*%
D16*
%TO.C,J7*%
X157775995Y-124074005D03*
D17*
X157775995Y-126614005D03*
X157775995Y-129154005D03*
%TD*%
D16*
%TO.C,M2*%
X100525995Y-105324005D03*
D17*
X100525995Y-107864005D03*
%TD*%
D18*
%TO.C,H1*%
X86025995Y-57099005D03*
%TD*%
%TO.C,U2*%
X94025995Y-68599005D03*
X94075995Y-117599005D03*
X105525995Y-76349005D03*
X105525995Y-100349005D03*
X129525995Y-76349005D03*
X129525995Y-100349005D03*
X152025995Y-68599005D03*
X152025995Y-117599005D03*
D19*
X98895995Y-69869005D03*
X98895995Y-67329005D03*
X101435995Y-69869005D03*
X101435995Y-67329005D03*
X103975995Y-69869005D03*
X103975995Y-67329005D03*
X106515995Y-69869005D03*
X106515995Y-67329005D03*
X109055995Y-69869005D03*
X109055995Y-67329005D03*
X111595995Y-69869005D03*
X111595995Y-67329005D03*
X114135995Y-69869005D03*
X114135995Y-67329005D03*
X116675995Y-69869005D03*
X116675995Y-67329005D03*
X119215995Y-69869005D03*
X119215995Y-67329005D03*
X121755995Y-69869005D03*
X121755995Y-67329005D03*
X124295995Y-69869005D03*
X124295995Y-67329005D03*
X126835995Y-69869005D03*
X126835995Y-67329005D03*
X129375995Y-69869005D03*
X129375995Y-67329005D03*
X131915995Y-69869005D03*
X131915995Y-67329005D03*
X134455995Y-69869005D03*
X134455995Y-67329005D03*
X136995995Y-69869005D03*
X136995995Y-67329005D03*
X139535995Y-69869005D03*
X139535995Y-67329005D03*
X142075995Y-69869005D03*
X142075995Y-67329005D03*
X144615995Y-69869005D03*
X144615995Y-67329005D03*
X147155995Y-69869005D03*
X147155995Y-67329005D03*
%TD*%
D18*
%TO.C,H4*%
X176025995Y-57099005D03*
%TD*%
D20*
%TO.C,J9*%
X95250000Y-107141505D03*
D21*
X89250000Y-107141505D03*
D22*
X92250000Y-111841505D03*
%TD*%
D16*
%TO.C,J5*%
X149275995Y-124059005D03*
D17*
X149275995Y-126599005D03*
X149275995Y-129139005D03*
%TD*%
D16*
%TO.C,J8*%
X162275995Y-124059005D03*
D17*
X162275995Y-126599005D03*
X162275995Y-129139005D03*
%TD*%
D18*
%TO.C,H6*%
X176025995Y-124599005D03*
%TD*%
D16*
%TO.C,J1*%
X166500995Y-128824005D03*
D17*
X169040995Y-128824005D03*
X166500995Y-131364005D03*
X169040995Y-131364005D03*
X166500995Y-133904005D03*
X169040995Y-133904005D03*
%TD*%
D16*
%TO.C,CAN2*%
X91775995Y-96599005D03*
D17*
X91775995Y-99139005D03*
%TD*%
D16*
%TO.C,J6*%
X153525995Y-124059005D03*
D17*
X153525995Y-126599005D03*
X153525995Y-129139005D03*
%TD*%
D13*
%TO.C,TP1*%
X124425995Y-106299005D03*
%TD*%
D18*
%TO.C,H3*%
X176025995Y-142099005D03*
%TD*%
%TO.C,H5*%
X176025995Y-74599005D03*
%TD*%
D16*
%TO.C,M1*%
X127025995Y-110559005D03*
D17*
X127025995Y-113099005D03*
X127025995Y-115639005D03*
%TD*%
D18*
%TO.C,H2*%
X86025995Y-142099005D03*
%TD*%
D13*
%TO.C,TP4*%
X112525995Y-115349005D03*
%TD*%
D23*
%TO.C,J4*%
X87125995Y-80749005D03*
D24*
X85525995Y-82349005D03*
D25*
X85525995Y-84849005D03*
X85525995Y-87349005D03*
X85525995Y-89849005D03*
%TD*%
D23*
%TO.C,CAN1*%
X87125995Y-94999005D03*
D24*
X85525995Y-96599005D03*
D25*
X85525995Y-99099005D03*
%TD*%
D26*
%TO.C,J2*%
X85525995Y-121639005D03*
D27*
X85525995Y-125599005D03*
%TD*%
D23*
%TO.C,Analog_IN1*%
X87125995Y-66999005D03*
D24*
X85525995Y-68599005D03*
D25*
X85525995Y-71099005D03*
X85525995Y-73599005D03*
X85525995Y-76099005D03*
%TD*%
%LPD*%
M02*
