M48
; DRILL file {KiCad 9.0.0} date 2025-05-22T12:59:40+0900
; FORMAT={-:-/ absolute / inch / decimal}
; #@! TF.CreationDate,2025-05-22T12:59:40+09:00
; #@! TF.GenerationSoftware,Kicad,Pcbnew,9.0.0
; #@! TF.FileFunction,Plated,1,2,PTH
FMAT,2
INCH
; #@! TA.AperFunction,Plated,PTH,ViaDrill
T1C0.0118
; #@! TA.AperFunction,Plated,PTH,ComponentDrill
T2C0.0276
; #@! TA.AperFunction,Plated,PTH,ComponentDrill
T3C0.0300
; #@! TA.AperFunction,Plated,PTH,ComponentDrill
T4C0.0315
; #@! TA.AperFunction,Plated,PTH,ComponentDrill
T5C0.0374
; #@! TA.AperFunction,Plated,PTH,ComponentDrill
T6C0.0394
; #@! TA.AperFunction,Plated,PTH,ComponentDrill
T7C0.0472
; #@! TA.AperFunction,Plated,PTH,ComponentDrill
T8C0.0669
%
G90
G05
T1
X3.2294Y-2.248
X3.2294Y-2.4448
X3.2294Y-2.8385
X3.2294Y-3.6259
X3.2294Y-4.4133
X3.2294Y-5.2007
X3.2294Y-5.5944
X3.3869Y-2.0905
X3.3869Y-2.4448
X3.3869Y-5.3976
X3.3869Y-5.7519
X3.4853Y-3.2913
X3.4853Y-3.3897
X3.4853Y-3.4783
X3.4951Y-3.8523
X3.7018Y-4.7874
X3.7018Y-4.8661
X3.7018Y-5.2795
X3.7018Y-5.3582
X3.7313Y-3.8523
X3.7412Y-4.7874
X3.7412Y-4.8661
X3.7412Y-5.2795
X3.7412Y-5.3582
X3.7806Y-4.7874
X3.7806Y-4.8661
X3.7806Y-5.2795
X3.7806Y-5.3582
X3.8061Y-2.8996
X3.8061Y-2.9545
X3.8396Y-4.7874
X3.8396Y-4.8661
X3.8396Y-5.2795
X3.8396Y-5.3582
X3.879Y-2.9074
X3.879Y-4.7874
X3.879Y-4.8661
X3.879Y-5.2795
X3.879Y-5.3582
X3.9089Y-2.8684
X3.9183Y-4.7874
X3.9183Y-4.8661
X3.9183Y-5.2795
X3.9183Y-5.3582
X3.9774Y-2.0905
X3.9774Y-2.4448
X3.9774Y-3.2322
X3.9774Y-3.6259
X3.9774Y-5.2795
X3.9774Y-5.3582
X3.9774Y-5.3976
X3.9774Y-5.7519
X3.9971Y-4.6889
X3.9971Y-4.7677
X4.0168Y-5.2795
X4.0168Y-5.3582
X4.0365Y-4.6889
X4.0365Y-4.7677
X4.0561Y-5.2795
X4.0561Y-5.3582
X4.0758Y-4.6889
X4.0758Y-4.7677
X4.0857Y-4.1673
X4.0857Y-4.3346
X4.1152Y-5.2795
X4.1152Y-5.3582
X4.1349Y-4.6889
X4.1349Y-4.7677
X4.1546Y-5.2795
X4.1546Y-5.3582
X4.1731Y-4.0913
X4.1743Y-4.6889
X4.1743Y-4.7677
X4.1801Y-4.122
X4.1939Y-5.2795
X4.1939Y-5.3582
X4.2136Y-4.6889
X4.2136Y-4.7677
X4.253Y-5.2795
X4.253Y-5.3582
X4.2727Y-4.6889
X4.2727Y-4.7677
X4.2924Y-5.2795
X4.2924Y-5.3582
X4.3022Y-4.4921
X4.312Y-4.6889
X4.312Y-4.7677
X4.3317Y-5.2795
X4.3317Y-5.3582
X4.3514Y-4.6889
X4.3514Y-4.7677
X4.3711Y-2.8878
X4.3711Y-4.0196
X4.3908Y-5.2795
X4.3908Y-5.3582
X4.4006Y-4.4527
X4.4105Y-4.6889
X4.4105Y-4.7677
X4.4302Y-2.8976
X4.4302Y-5.2795
X4.4302Y-5.3582
X4.4498Y-4.6889
X4.4498Y-4.7677
X4.4597Y-4.4527
X4.4695Y-4.807
X4.4695Y-5.2795
X4.4695Y-5.3582
X4.4892Y-4.6889
X4.5207Y-4.5045
X4.5778Y-4.5216
X4.5798Y-4.5708
X4.5876Y-4.2559
X4.6073Y-4.748
X4.6073Y-4.8464
X4.6353Y-5.163
X4.6488Y-4.2548
X4.6615Y-4.1328
X4.6725Y-4.3217
X4.6821Y-4.5078
X4.7021Y-4.3611
X4.7156Y-4.8464
X4.7215Y-4.6692
X4.7412Y-4.5747
X4.7648Y-2.0905
X4.7648Y-2.4448
X4.7648Y-5.3976
X4.7648Y-5.7519
X4.7829Y-4.2637
X4.8632Y-4.3248
X4.8632Y-4.4429
X4.9124Y-4.7677
X4.9617Y-4.0196
X5.0404Y-2.6515
X5.1388Y-4.3444
X5.1506Y-4.1378
X5.1782Y-3.2519
X5.1821Y-4.185
X5.188Y-3.6358
X5.2176Y-3.2519
X5.2274Y-2.9074
X5.2372Y-2.6968
X5.2668Y-3.2716
X5.2668Y-3.5964
X5.2865Y-2.9665
X5.3062Y-2.832
X5.3554Y-3.1063
X5.3947Y-3.1535
X5.3947Y-3.4389
X5.3977Y-3.9271
X5.4174Y-3.5944
X5.4183Y-3.7441
X5.4341Y-4.5905
X5.4341Y-4.6693
X5.4735Y-4.5905
X5.4735Y-4.6693
X5.475Y-3.0354
X5.503Y-4.3444
X5.5128Y-4.5905
X5.5128Y-4.6693
X5.5424Y-4.8267
X5.5424Y-4.8661
X5.5424Y-4.9055
X5.5424Y-4.935
X5.5522Y-2.0905
X5.5522Y-2.4448
X5.5522Y-5.3385
X5.5522Y-5.3976
X5.5522Y-5.7519
X5.5719Y-4.5905
X5.5719Y-4.6693
X5.596Y-3.4065
X5.6024Y-3.9271
X5.6113Y-4.5905
X5.6113Y-4.6693
X5.6309Y-5.3385
X5.6506Y-4.5905
X5.6703Y-3.4094
X5.69Y-4.807
X5.69Y-4.8464
X5.69Y-4.8858
X5.69Y-4.9448
X5.69Y-4.9842
X5.69Y-5.0236
X5.69Y-5.0826
X5.69Y-5.122
X5.69Y-5.1614
X5.7018Y-4.3897
X5.7491Y-3.4094
X5.7687Y-4.807
X5.7687Y-4.8464
X5.7687Y-4.8858
X5.7687Y-4.9448
X5.7687Y-4.9842
X5.7687Y-5.0236
X5.7687Y-5.0826
X5.7687Y-5.122
X5.7687Y-5.1614
X5.7971Y-3.5779
X5.7983Y-3.4586
X5.7983Y-3.5078
X5.877Y-3.0649
X5.877Y-3.2322
X5.9046Y-2.8405
X5.938Y-2.8858
X5.9459Y-4.0196
X5.9617Y-2.8622
X5.9853Y-4.4724
X6.1034Y-2.8385
X6.1034Y-2.8878
X6.1034Y-2.9193
X6.1624Y-3.5275
X6.3101Y-2.7027
X6.3125Y-2.9074
X6.3396Y-2.0905
X6.3396Y-2.4448
X6.3396Y-2.8385
X6.3396Y-3.2322
X6.3396Y-4.4133
X6.3396Y-5.3976
X6.3396Y-5.7519
X6.3983Y-3.5067
X6.4173Y-4.7785
X6.4567Y-4.8179
X6.4676Y-3.6259
X6.4676Y-3.813
X6.4676Y-4.748
X6.4971Y-4.8858
X6.4971Y-4.9252
X6.4971Y-4.9645
X6.5079Y-4.8474
X6.566Y-4.7185
X6.5758Y-3.5177
X6.5758Y-4.8563
X6.6054Y-4.7086
X6.6054Y-4.935
X6.6201Y-3.1387
X6.6546Y-4.8759
X6.7136Y-4.7086
X6.7136Y-4.7578
X6.7156Y-4.6102
X6.7333Y-2.8385
X6.7333Y-3.6259
X6.753Y-4.4133
X6.8022Y-3.872
X6.8022Y-4.2067
X6.8022Y-4.4626
X6.8367Y-4.7431
X6.8416Y-4.5807
X6.8672Y-4.7547
X6.9302Y-2.0905
X6.9302Y-2.4448
X6.9302Y-4.4133
X6.9302Y-5.2007
X6.9302Y-5.3976
X6.9302Y-5.7519
X7.0876Y-2.248
X7.0876Y-2.8385
X7.0876Y-3.6259
X7.0876Y-4.4133
X7.0876Y-5.2007
X7.0876Y-5.5944
T2
X3.4065Y-5.2696
X4.4302Y-4.5413
X4.8987Y-4.185
T3
X3.8935Y-2.6507
X3.8935Y-2.7507
X3.9935Y-2.6507
X3.9935Y-2.7507
X4.0935Y-2.6507
X4.0935Y-2.7507
X4.1935Y-2.6507
X4.1935Y-2.7507
X4.2935Y-2.6507
X4.2935Y-2.7507
X4.3935Y-2.6507
X4.3935Y-2.7507
X4.4935Y-2.6507
X4.4935Y-2.7507
X4.5935Y-2.6507
X4.5935Y-2.7507
X4.6935Y-2.6507
X4.6935Y-2.7507
X4.7935Y-2.6507
X4.7935Y-2.7507
X4.8935Y-2.6507
X4.8935Y-2.7507
X4.9935Y-2.6507
X4.9935Y-2.7507
X5.0935Y-2.6507
X5.0935Y-2.7507
X5.1935Y-2.6507
X5.1935Y-2.7507
X5.2935Y-2.6507
X5.2935Y-2.7507
X5.3935Y-2.6507
X5.3935Y-2.7507
X5.4935Y-2.6507
X5.4935Y-2.7507
X5.5935Y-2.6507
X5.5935Y-2.7507
X5.6935Y-2.6507
X5.6935Y-2.7507
X5.7935Y-2.6507
X5.7935Y-2.7507
T4
X5.8603Y-3.5919
X5.9603Y-3.5919
T5
X3.3672Y-2.7007
X3.3672Y-2.7992
X3.3672Y-2.8976
X3.3672Y-2.996
X3.3672Y-3.2421
X3.3672Y-3.3405
X3.3672Y-3.4389
X3.3672Y-3.5374
X3.3672Y-3.8031
X3.3672Y-3.9015
T6
X3.6132Y-3.8031
X3.6132Y-3.9031
X3.9577Y-4.1466
X3.9577Y-4.2466
X5.001Y-4.3527
X5.001Y-4.4527
X5.001Y-4.5527
X5.6876Y-3.7712
X5.6876Y-4.0712
X5.7876Y-3.7712
X5.7876Y-4.0712
X5.877Y-4.8842
X5.877Y-4.9842
X5.877Y-5.0842
X5.8876Y-3.7712
X5.8876Y-4.0712
X5.9876Y-3.7712
X5.9876Y-4.0712
X6.0443Y-4.8842
X6.0443Y-4.9842
X6.0443Y-5.0842
X6.2117Y-4.8848
X6.2117Y-4.9848
X6.2117Y-5.0848
X6.3888Y-4.8842
X6.3888Y-4.9842
X6.3888Y-5.0842
X6.5552Y-5.0718
X6.5552Y-5.1718
X6.5552Y-5.2718
X6.6552Y-5.0718
X6.6552Y-5.1718
X6.6552Y-5.2718
T7
X6.151Y-3.4374
X6.251Y-3.3374
X6.251Y-3.5374
T8
X3.3672Y-4.7889
X3.3672Y-4.9448
T6
G00X3.5138Y-4.1788
M15
G01X3.5138Y-4.2575
M16
G05
G00X3.5925Y-4.4032
M15
G01X3.6713Y-4.4032
M16
G05
G00X3.75Y-4.1788
M15
G01X3.75Y-4.2575
M16
G05
M30
