M48
; DRILL file {KiCad 9.0.4} date 2025-09-15T15:41:38+0900
; FORMAT={-:-/ absolute / inch / decimal}
; #@! TF.CreationDate,2025-09-15T15:41:38+09:00
; #@! TF.GenerationSoftware,Kicad,Pcbnew,9.0.4
; #@! TF.FileFunction,Plated,1,2,PTH
FMAT,2
INCH
; #@! TA.AperFunction,Plated,PTH,ViaDrill
T1C0.0118
; #@! TA.AperFunction,Plated,PTH,ViaDrill
T2C0.0197
; #@! TA.AperFunction,Plated,PTH,ComponentDrill
T3C0.0315
; #@! TA.AperFunction,Plated,PTH,ComponentDrill
T4C0.0374
; #@! TA.AperFunction,Plated,PTH,ComponentDrill
T5C0.0394
; #@! TA.AperFunction,Plated,PTH,ComponentDrill
T6C0.0472
; #@! TA.AperFunction,Plated,PTH,ComponentDrill
T7C0.0669
%
G90
G05
T1
X3.2294Y-2.248
X3.2294Y-2.4448
X3.2294Y-2.8385
X3.2294Y-3.6259
X3.2294Y-4.4133
X3.2294Y-5.2007
X3.2294Y-5.5944
X3.3869Y-2.0905
X3.3869Y-2.4448
X3.3869Y-5.3976
X3.3869Y-5.7519
X3.4853Y-3.2913
X3.4853Y-3.3897
X3.4853Y-3.4783
X3.4951Y-3.8523
X3.7018Y-4.7874
X3.7018Y-4.8661
X3.7018Y-5.2795
X3.7018Y-5.3582
X3.7412Y-4.7874
X3.7412Y-4.8661
X3.7412Y-5.2795
X3.7412Y-5.3582
X3.7806Y-4.7874
X3.7806Y-4.8661
X3.7806Y-5.2795
X3.7806Y-5.3582
X3.8061Y-2.8996
X3.8061Y-2.9545
X3.8396Y-4.7874
X3.8396Y-4.8661
X3.8396Y-5.2795
X3.8396Y-5.3582
X3.879Y-2.9074
X3.879Y-4.7874
X3.879Y-4.8661
X3.879Y-5.2795
X3.879Y-5.3582
X3.9089Y-2.8684
X3.9183Y-4.7874
X3.9183Y-4.8661
X3.9183Y-5.2795
X3.9183Y-5.3582
X3.9774Y-2.0905
X3.9774Y-2.4448
X3.9774Y-3.2322
X3.9774Y-3.6259
X3.9774Y-5.2795
X3.9774Y-5.3582
X3.9774Y-5.3976
X3.9774Y-5.7519
X3.9971Y-4.6889
X3.9971Y-4.7677
X4.0168Y-5.2795
X4.0168Y-5.3582
X4.0365Y-4.6889
X4.0365Y-4.7677
X4.0561Y-5.2795
X4.0561Y-5.3582
X4.0758Y-4.6889
X4.0758Y-4.7677
X4.0857Y-4.1673
X4.0857Y-4.3346
X4.1152Y-5.2795
X4.1152Y-5.3582
X4.1349Y-4.6889
X4.1349Y-4.7677
X4.1546Y-5.2795
X4.1546Y-5.3582
X4.1731Y-4.0913
X4.1743Y-4.6889
X4.1743Y-4.7677
X4.1801Y-4.122
X4.1939Y-5.2795
X4.1939Y-5.3582
X4.2136Y-4.6889
X4.2136Y-4.7677
X4.253Y-5.2795
X4.253Y-5.3582
X4.2727Y-4.6889
X4.2727Y-4.7677
X4.2924Y-5.2795
X4.2924Y-5.3582
X4.3022Y-4.4921
X4.312Y-4.6889
X4.312Y-4.7677
X4.3317Y-5.2795
X4.3317Y-5.3582
X4.3514Y-4.6889
X4.3514Y-4.7677
X4.3711Y-2.8878
X4.3711Y-4.0196
X4.3908Y-5.2795
X4.3908Y-5.3582
X4.4006Y-4.4527
X4.4105Y-4.6889
X4.4105Y-4.7677
X4.4302Y-2.8976
X4.4302Y-5.2795
X4.4302Y-5.3582
X4.4498Y-4.6889
X4.4498Y-4.7677
X4.4597Y-4.4527
X4.4695Y-4.807
X4.4695Y-5.2795
X4.4695Y-5.3582
X4.4892Y-4.6889
X4.5207Y-4.5045
X4.5778Y-4.5216
X4.5798Y-4.5708
X4.5876Y-4.2559
X4.6073Y-4.748
X4.6073Y-4.8464
X4.618Y-5.1457
X4.6488Y-4.2548
X4.6615Y-4.1328
X4.6725Y-4.3217
X4.6821Y-4.5078
X4.7021Y-4.3611
X4.7156Y-4.8464
X4.7215Y-4.6692
X4.7215Y-4.6988
X4.7412Y-4.5747
X4.7648Y-2.0905
X4.7648Y-2.4448
X4.7648Y-5.3976
X4.7648Y-5.7519
X4.8632Y-4.3248
X4.8632Y-4.4429
X4.9617Y-4.0196
X5.0404Y-2.6515
X5.0787Y-4.7047
X5.1063Y-4.7047
X5.1388Y-4.3444
X5.1506Y-4.1378
X5.1782Y-3.2519
X5.188Y-3.6358
X5.2274Y-2.9074
X5.2372Y-2.6968
X5.2451Y-3.248
X5.2766Y-3.2716
X5.2845Y-3.5964
X5.2865Y-2.9665
X5.3062Y-2.832
X5.3554Y-3.1063
X5.3947Y-3.1535
X5.3947Y-3.4389
X5.4143Y-3.7382
X5.4174Y-3.5944
X5.4341Y-4.5905
X5.4341Y-4.6693
X5.4735Y-4.5905
X5.4735Y-4.6693
X5.475Y-3.0354
X5.503Y-4.3444
X5.5128Y-4.5905
X5.5128Y-4.6693
X5.5522Y-2.0905
X5.5522Y-2.4448
X5.5522Y-5.3385
X5.5522Y-5.3976
X5.5522Y-5.7519
X5.5719Y-4.5905
X5.5719Y-4.6693
X5.596Y-3.4065
X5.6024Y-3.9271
X5.6113Y-4.5905
X5.6113Y-4.6693
X5.6309Y-5.3385
X5.6506Y-4.5905
X5.6703Y-3.4094
X5.69Y-4.807
X5.69Y-4.8464
X5.69Y-4.8858
X5.69Y-4.9448
X5.69Y-4.9842
X5.69Y-5.0236
X5.69Y-5.0826
X5.69Y-5.122
X5.69Y-5.1614
X5.7491Y-3.4094
X5.7687Y-4.807
X5.7687Y-4.8464
X5.7687Y-4.8858
X5.7687Y-4.9448
X5.7687Y-4.9842
X5.7687Y-5.0236
X5.7687Y-5.0826
X5.7687Y-5.122
X5.7687Y-5.1614
X5.7971Y-3.5779
X5.7983Y-3.4586
X5.7983Y-3.5078
X5.8346Y-4.3465
X5.877Y-3.0649
X5.877Y-3.2322
X5.9251Y-2.8571
X5.9252Y-2.8256
X5.938Y-2.8858
X5.9459Y-4.0196
X6.0098Y-3.6693
X6.0827Y-5.3346
X6.0935Y-2.8287
X6.1034Y-2.9193
X6.1073Y-2.8582
X6.1895Y-4.1944
X6.248Y-4.2894
X6.2609Y-2.9271
X6.283Y-2.7007
X6.2953Y-4.0787
X6.2992Y-4.2913
X6.3002Y-3.124
X6.3396Y-2.0905
X6.3396Y-2.4448
X6.3396Y-5.3976
X6.3396Y-5.7519
X6.6535Y-4.5709
X6.6575Y-4.0787
X6.7333Y-2.8385
X6.7333Y-4.4133
X6.7648Y-4.4133
X6.8219Y-3.6358
X6.9302Y-2.0905
X6.9302Y-2.4448
X6.9302Y-5.3976
X6.9302Y-5.7519
X7.0876Y-2.248
X7.0876Y-2.8385
X7.0876Y-3.6259
X7.0876Y-5.5944
T2
X3.9577Y-4.126
X3.9725Y-4.1614
X3.9977Y-4.1863
X4.0266Y-4.2165
X4.9223Y-4.7677
X4.9617Y-4.7677
X5.001Y-4.7677
X5.5424Y-4.8169
X5.5424Y-4.8563
X5.5424Y-4.8956
X5.5424Y-4.935
X5.7077Y-4.3956
X6.005Y-4.4724
X6.1231Y-4.4724
X6.4242Y-4.4911
X6.4272Y-4.5669
T3
X5.8603Y-3.5919
X5.9603Y-3.5919
T4
X3.3672Y-2.7007
X3.3672Y-2.7992
X3.3672Y-2.8976
X3.3672Y-2.996
X3.3672Y-3.2421
X3.3672Y-3.3405
X3.3672Y-3.4389
X3.3672Y-3.5374
X3.3672Y-3.8031
X3.3672Y-3.9015
X6.5551Y-4.7539
X6.5551Y-4.8524
X6.5551Y-4.9508
X6.5551Y-5.0492
X6.5551Y-5.1476
X6.5551Y-5.2461
T5
X3.4065Y-5.2696
X3.7244Y-3.8031
X3.7244Y-3.9031
X3.8935Y-2.6507
X3.8935Y-2.7507
X3.937Y-4.3199
X3.937Y-4.4199
X3.9567Y-4.5768
X3.9935Y-2.6507
X3.9935Y-2.7507
X4.0935Y-2.6507
X4.0935Y-2.7507
X4.1935Y-2.6507
X4.1935Y-2.7507
X4.2935Y-2.6507
X4.2935Y-2.7507
X4.3935Y-2.6507
X4.3935Y-2.7507
X4.4935Y-2.6507
X4.4935Y-2.7507
X4.5935Y-2.6507
X4.5935Y-2.7507
X4.6935Y-2.6507
X4.6935Y-2.7507
X4.7935Y-2.6507
X4.7935Y-2.7507
X4.8935Y-2.6507
X4.8935Y-2.7507
X4.9813Y-4.3527
X4.9813Y-4.4527
X4.9813Y-4.5527
X4.9935Y-2.6507
X4.9935Y-2.7507
X5.0935Y-2.6507
X5.0935Y-2.7507
X5.1935Y-2.6507
X5.1935Y-2.7507
X5.2935Y-2.6507
X5.2935Y-2.7507
X5.3935Y-2.6507
X5.3935Y-2.7507
X5.4935Y-2.6507
X5.4935Y-2.7507
X5.5935Y-2.6507
X5.5935Y-2.7507
X5.685Y-3.7748
X5.685Y-4.0748
X5.6935Y-2.6507
X5.6935Y-2.7507
X5.785Y-3.7748
X5.785Y-4.0748
X5.7935Y-2.6507
X5.7935Y-2.7507
X5.876Y-4.8803
X5.876Y-4.9803
X5.876Y-5.0803
X5.885Y-3.7748
X5.885Y-4.0748
X5.985Y-3.7748
X5.985Y-4.0748
X6.0236Y-4.8803
X6.0236Y-4.9803
X6.0236Y-5.0803
X6.1713Y-4.8803
X6.1713Y-4.9803
X6.1713Y-5.0803
X6.3189Y-4.8803
X6.3189Y-4.9803
X6.3189Y-5.0803
T6
X6.1626Y-3.4193
X6.2626Y-3.3193
X6.2626Y-3.5193
T7
X3.3672Y-4.7889
X3.3672Y-4.9448
T5
G00X3.5138Y-4.1788
M15
G01X3.5138Y-4.2575
M16
G05
G00X3.5925Y-4.4032
M15
G01X3.6713Y-4.4032
M16
G05
G00X3.75Y-4.1788
M15
G01X3.75Y-4.2575
M16
G05
M30
