%TF.GenerationSoftware,KiCad,Pcbnew,9.0.4*%
%TF.CreationDate,2025-09-15T15:41:38+09:00*%
%TF.ProjectId,control_unit,636f6e74-726f-46c5-9f75-6e69742e6b69,01*%
%TF.SameCoordinates,Original*%
%TF.FileFunction,Soldermask,Bot*%
%TF.FilePolarity,Negative*%
%FSLAX46Y46*%
G04 Gerber Fmt 4.6, Leading zero omitted, Abs format (unit mm)*
G04 Created by KiCad (PCBNEW 9.0.4) date 2025-09-15 15:41:38*
%MOMM*%
%LPD*%
G01*
G04 APERTURE LIST*
G04 Aperture macros list*
%AMRoundRect*
0 Rectangle with rounded corners*
0 $1 Rounding radius*
0 $2 $3 $4 $5 $6 $7 $8 $9 X,Y pos of 4 corners*
0 Add a 4 corners polygon primitive as box body*
4,1,4,$2,$3,$4,$5,$6,$7,$8,$9,$2,$3,0*
0 Add four circle primitives for the rounded corners*
1,1,$1+$1,$2,$3*
1,1,$1+$1,$4,$5*
1,1,$1+$1,$6,$7*
1,1,$1+$1,$8,$9*
0 Add four rect primitives between the rounded corners*
20,1,$1+$1,$2,$3,$4,$5,0*
20,1,$1+$1,$4,$5,$6,$7,0*
20,1,$1+$1,$6,$7,$8,$9,0*
20,1,$1+$1,$8,$9,$2,$3,0*%
G04 Aperture macros list end*
%ADD10C,1.800000*%
%ADD11C,2.000000*%
%ADD12C,1.400000*%
%ADD13R,1.800000X1.800000*%
%ADD14C,3.200000*%
%ADD15C,2.700000*%
%ADD16C,1.524000*%
%ADD17R,3.500000X3.500000*%
%ADD18RoundRect,0.750000X-0.750000X-1.000000X0.750000X-1.000000X0.750000X1.000000X-0.750000X1.000000X0*%
%ADD19RoundRect,0.875000X-0.875000X-0.875000X0.875000X-0.875000X0.875000X0.875000X-0.875000X0.875000X0*%
%ADD20R,1.700000X1.700000*%
%ADD21C,1.700000*%
%ADD22C,1.250000*%
%ADD23RoundRect,0.250000X-0.725000X0.600000X-0.725000X-0.600000X0.725000X-0.600000X0.725000X0.600000X0*%
%ADD24O,1.950000X1.700000*%
%ADD25RoundRect,0.250001X-1.099999X1.099999X-1.099999X-1.099999X1.099999X-1.099999X1.099999X1.099999X0*%
G04 APERTURE END LIST*
D10*
%TO.C,U7*%
X152020000Y-95880000D03*
X149480000Y-95880000D03*
X146940000Y-95880000D03*
X144400000Y-95880000D03*
X144400000Y-103500000D03*
X146940000Y-103500000D03*
X149480000Y-103500000D03*
X152020000Y-103500000D03*
%TD*%
D11*
%TO.C,TP1*%
X86525995Y-133849005D03*
%TD*%
D12*
%TO.C,JP3*%
X148852195Y-91234005D03*
X151392195Y-91234005D03*
%TD*%
D13*
%TO.C,R13*%
X159070995Y-89389005D03*
X156530995Y-86849005D03*
X159070995Y-84309005D03*
%TD*%
D14*
%TO.C,H1*%
X86025995Y-57099005D03*
%TD*%
D15*
%TO.C,U3*%
X94025995Y-117599005D03*
X94075995Y-68649005D03*
D14*
X105525995Y-76349005D03*
X105525995Y-100349005D03*
X129525995Y-76349005D03*
X129525995Y-100349005D03*
D15*
X152025995Y-68599005D03*
X152025995Y-117599005D03*
D16*
X98895995Y-69869005D03*
X98895995Y-67329005D03*
X101435995Y-69869005D03*
X101435995Y-67329005D03*
X103975995Y-69869005D03*
X103975995Y-67329005D03*
X106515995Y-69869005D03*
X106515995Y-67329005D03*
X109055995Y-69869005D03*
X109055995Y-67329005D03*
X111595995Y-69869005D03*
X111595995Y-67329005D03*
X114135995Y-69869005D03*
X114135995Y-67329005D03*
X116675995Y-69869005D03*
X116675995Y-67329005D03*
X119215995Y-69869005D03*
X119215995Y-67329005D03*
X121755995Y-69869005D03*
X121755995Y-67329005D03*
X124295995Y-69869005D03*
X124295995Y-67329005D03*
X126835995Y-69869005D03*
X126835995Y-67329005D03*
X129375995Y-69869005D03*
X129375995Y-67329005D03*
X131915995Y-69869005D03*
X131915995Y-67329005D03*
X134455995Y-69869005D03*
X134455995Y-67329005D03*
X136995995Y-69869005D03*
X136995995Y-67329005D03*
X139535995Y-69869005D03*
X139535995Y-67329005D03*
X142075995Y-69869005D03*
X142075995Y-67329005D03*
X144615995Y-69869005D03*
X144615995Y-67329005D03*
X147155995Y-69869005D03*
X147155995Y-67329005D03*
%TD*%
D14*
%TO.C,H6*%
X176025995Y-57099005D03*
%TD*%
D17*
%TO.C,J1*%
X95250000Y-107141505D03*
D18*
X89250000Y-107141505D03*
D19*
X92250000Y-111841505D03*
%TD*%
D14*
%TO.C,H4*%
X176025995Y-124599005D03*
%TD*%
D20*
%TO.C,ESC3*%
X156750000Y-123960000D03*
D21*
X156750000Y-126500000D03*
X156750000Y-129040000D03*
%TD*%
D20*
%TO.C,J6*%
X94600000Y-96599005D03*
D21*
X94600000Y-99139005D03*
%TD*%
D20*
%TO.C,ESC4*%
X160500000Y-123960000D03*
D21*
X160500000Y-126500000D03*
X160500000Y-129040000D03*
%TD*%
D14*
%TO.C,H5*%
X176025995Y-142099005D03*
%TD*%
D20*
%TO.C,ESC2*%
X153000000Y-123960000D03*
D21*
X153000000Y-126500000D03*
X153000000Y-129040000D03*
%TD*%
D20*
%TO.C,SERVO_TEST1*%
X126525995Y-110559005D03*
D21*
X126525995Y-113099005D03*
X126525995Y-115639005D03*
%TD*%
D22*
%TO.C,LED_PCB1*%
X164900000Y-119150000D03*
D23*
X166500000Y-120750000D03*
D24*
X166500000Y-123250000D03*
X166500000Y-125750000D03*
X166500000Y-128250000D03*
X166500000Y-130750000D03*
X166500000Y-133250000D03*
%TD*%
D14*
%TO.C,H2*%
X176025995Y-74599005D03*
%TD*%
D20*
%TO.C,ESC1*%
X149250000Y-123960000D03*
D21*
X149250000Y-126500000D03*
X149250000Y-129040000D03*
%TD*%
D20*
%TO.C,Fan1*%
X100000000Y-109725000D03*
D21*
X100000000Y-112265000D03*
%TD*%
D14*
%TO.C,H3*%
X86025995Y-142099005D03*
%TD*%
D11*
%TO.C,TP2*%
X100500000Y-116250000D03*
%TD*%
D22*
%TO.C,J3*%
X87125995Y-80749005D03*
D23*
X85525995Y-82349005D03*
D24*
X85525995Y-84849005D03*
X85525995Y-87349005D03*
X85525995Y-89849005D03*
%TD*%
D22*
%TO.C,J5*%
X87125995Y-94999005D03*
D23*
X85525995Y-96599005D03*
D24*
X85525995Y-99099005D03*
%TD*%
D25*
%TO.C,J2*%
X85525995Y-121639005D03*
D15*
X85525995Y-125599005D03*
%TD*%
D22*
%TO.C,J4*%
X87125995Y-66999005D03*
D23*
X85525995Y-68599005D03*
D24*
X85525995Y-71099005D03*
X85525995Y-73599005D03*
X85525995Y-76099005D03*
%TD*%
M02*
