%TF.GenerationSoftware,KiCad,Pcbnew,9.0.0*%
%TF.CreationDate,2025-05-22T12:59:40+09:00*%
%TF.ProjectId,control_unit,636f6e74-726f-46c5-9f75-6e69742e6b69,R1*%
%TF.SameCoordinates,Original*%
%TF.FileFunction,Soldermask,Top*%
%TF.FilePolarity,Negative*%
%FSLAX46Y46*%
G04 Gerber Fmt 4.6, Leading zero omitted, Abs format (unit mm)*
G04 Created by KiCad (PCBNEW 9.0.0) date 2025-05-22 12:59:40*
%MOMM*%
%LPD*%
G01*
G04 APERTURE LIST*
G04 Aperture macros list*
%AMRoundRect*
0 Rectangle with rounded corners*
0 $1 Rounding radius*
0 $2 $3 $4 $5 $6 $7 $8 $9 X,Y pos of 4 corners*
0 Add a 4 corners polygon primitive as box body*
4,1,4,$2,$3,$4,$5,$6,$7,$8,$9,$2,$3,0*
0 Add four circle primitives for the rounded corners*
1,1,$1+$1,$2,$3*
1,1,$1+$1,$4,$5*
1,1,$1+$1,$6,$7*
1,1,$1+$1,$8,$9*
0 Add four rect primitives between the rounded corners*
20,1,$1+$1,$2,$3,$4,$5,0*
20,1,$1+$1,$4,$5,$6,$7,0*
20,1,$1+$1,$6,$7,$8,$9,0*
20,1,$1+$1,$8,$9,$2,$3,0*%
%AMFreePoly0*
4,1,13,0.900000,0.500000,2.600000,0.500000,2.600000,-0.500000,0.900000,-0.500000,0.400000,-1.000000,-0.400000,-1.000000,-0.900000,-0.500000,-2.600000,-0.500000,-2.600000,0.500000,-0.900000,0.500000,-0.400000,1.000000,0.400000,1.000000,0.900000,0.500000,0.900000,0.500000,$1*%
%AMFreePoly1*
4,1,23,0.500000,-0.750000,0.000000,-0.750000,0.000000,-0.745722,-0.065263,-0.745722,-0.191342,-0.711940,-0.304381,-0.646677,-0.396677,-0.554381,-0.461940,-0.441342,-0.495722,-0.315263,-0.495722,-0.250000,-0.500000,-0.250000,-0.500000,0.250000,-0.495722,0.250000,-0.495722,0.315263,-0.461940,0.441342,-0.396677,0.554381,-0.304381,0.646677,-0.191342,0.711940,-0.065263,0.745722,0.000000,0.745722,
0.000000,0.750000,0.500000,0.750000,0.500000,-0.750000,0.500000,-0.750000,$1*%
%AMFreePoly2*
4,1,23,0.000000,0.745722,0.065263,0.745722,0.191342,0.711940,0.304381,0.646677,0.396677,0.554381,0.461940,0.441342,0.495722,0.315263,0.495722,0.250000,0.500000,0.250000,0.500000,-0.250000,0.495722,-0.250000,0.495722,-0.315263,0.461940,-0.441342,0.396677,-0.554381,0.304381,-0.646677,0.191342,-0.711940,0.065263,-0.745722,0.000000,-0.745722,0.000000,-0.750000,-0.500000,-0.750000,
-0.500000,0.750000,0.000000,0.750000,0.000000,0.745722,0.000000,0.745722,$1*%
G04 Aperture macros list end*
%ADD10RoundRect,0.200000X0.275000X-0.200000X0.275000X0.200000X-0.275000X0.200000X-0.275000X-0.200000X0*%
%ADD11R,4.500000X4.500000*%
%ADD12RoundRect,0.200000X-0.200000X-0.275000X0.200000X-0.275000X0.200000X0.275000X-0.200000X0.275000X0*%
%ADD13C,1.400000*%
%ADD14RoundRect,0.225000X-0.225000X-0.250000X0.225000X-0.250000X0.225000X0.250000X-0.225000X0.250000X0*%
%ADD15R,1.800000X1.800000*%
%ADD16C,1.800000*%
%ADD17R,1.700000X1.700000*%
%ADD18O,1.700000X1.700000*%
%ADD19RoundRect,0.200000X-0.275000X0.200000X-0.275000X-0.200000X0.275000X-0.200000X0.275000X0.200000X0*%
%ADD20RoundRect,0.243750X-0.456250X0.243750X-0.456250X-0.243750X0.456250X-0.243750X0.456250X0.243750X0*%
%ADD21RoundRect,0.237500X-0.237500X0.250000X-0.237500X-0.250000X0.237500X-0.250000X0.237500X0.250000X0*%
%ADD22RoundRect,0.250000X-1.100000X0.325000X-1.100000X-0.325000X1.100000X-0.325000X1.100000X0.325000X0*%
%ADD23C,1.524000*%
%ADD24RoundRect,0.225000X0.250000X-0.225000X0.250000X0.225000X-0.250000X0.225000X-0.250000X-0.225000X0*%
%ADD25RoundRect,0.150000X0.150000X-0.875000X0.150000X0.875000X-0.150000X0.875000X-0.150000X-0.875000X0*%
%ADD26RoundRect,0.250000X0.850000X0.350000X-0.850000X0.350000X-0.850000X-0.350000X0.850000X-0.350000X0*%
%ADD27RoundRect,0.249997X2.950003X2.650003X-2.950003X2.650003X-2.950003X-2.650003X2.950003X-2.650003X0*%
%ADD28R,1.200000X1.400000*%
%ADD29RoundRect,0.243750X0.456250X-0.243750X0.456250X0.243750X-0.456250X0.243750X-0.456250X-0.243750X0*%
%ADD30RoundRect,0.175000X0.575000X0.175000X-0.575000X0.175000X-0.575000X-0.175000X0.575000X-0.175000X0*%
%ADD31FreePoly0,180.000000*%
%ADD32R,3.500000X3.500000*%
%ADD33RoundRect,0.750000X-0.750000X-1.000000X0.750000X-1.000000X0.750000X1.000000X-0.750000X1.000000X0*%
%ADD34RoundRect,0.875000X-0.875000X-0.875000X0.875000X-0.875000X0.875000X0.875000X-0.875000X0.875000X0*%
%ADD35RoundRect,0.225000X0.225000X0.250000X-0.225000X0.250000X-0.225000X-0.250000X0.225000X-0.250000X0*%
%ADD36FreePoly1,0.000000*%
%ADD37FreePoly2,0.000000*%
%ADD38RoundRect,0.237500X0.237500X-0.250000X0.237500X0.250000X-0.237500X0.250000X-0.237500X-0.250000X0*%
%ADD39RoundRect,0.250000X1.100000X-0.325000X1.100000X0.325000X-1.100000X0.325000X-1.100000X-0.325000X0*%
%ADD40RoundRect,0.200000X0.200000X0.275000X-0.200000X0.275000X-0.200000X-0.275000X0.200000X-0.275000X0*%
%ADD41RoundRect,0.250000X-0.325000X-1.100000X0.325000X-1.100000X0.325000X1.100000X-0.325000X1.100000X0*%
%ADD42RoundRect,0.250000X-0.312500X-0.625000X0.312500X-0.625000X0.312500X0.625000X-0.312500X0.625000X0*%
%ADD43R,0.280000X0.850000*%
%ADD44R,0.850000X0.280000*%
%ADD45R,1.700000X2.700000*%
%ADD46RoundRect,0.237500X-0.250000X-0.237500X0.250000X-0.237500X0.250000X0.237500X-0.250000X0.237500X0*%
%ADD47RoundRect,0.237500X-0.300000X-0.237500X0.300000X-0.237500X0.300000X0.237500X-0.300000X0.237500X0*%
%ADD48RoundRect,0.225000X-0.250000X0.225000X-0.250000X-0.225000X0.250000X-0.225000X0.250000X0.225000X0*%
%ADD49RoundRect,0.249999X-0.512501X-1.075001X0.512501X-1.075001X0.512501X1.075001X-0.512501X1.075001X0*%
%ADD50R,1.100000X0.250000*%
%ADD51RoundRect,0.250000X-0.350000X0.850000X-0.350000X-0.850000X0.350000X-0.850000X0.350000X0.850000X0*%
%ADD52RoundRect,0.249997X-2.650003X2.950003X-2.650003X-2.950003X2.650003X-2.950003X2.650003X2.950003X0*%
%ADD53RoundRect,0.150000X0.587500X0.150000X-0.587500X0.150000X-0.587500X-0.150000X0.587500X-0.150000X0*%
%ADD54RoundRect,0.150000X-0.587500X-0.150000X0.587500X-0.150000X0.587500X0.150000X-0.587500X0.150000X0*%
%ADD55R,2.062500X1.539000*%
%ADD56RoundRect,0.243750X-0.243750X-0.456250X0.243750X-0.456250X0.243750X0.456250X-0.243750X0.456250X0*%
%ADD57RoundRect,0.250000X-1.000000X-0.650000X1.000000X-0.650000X1.000000X0.650000X-1.000000X0.650000X0*%
%ADD58R,1.981200X0.558800*%
%ADD59RoundRect,0.250000X-0.725000X0.600000X-0.725000X-0.600000X0.725000X-0.600000X0.725000X0.600000X0*%
%ADD60O,1.950000X1.700000*%
%ADD61RoundRect,0.250001X-1.099999X1.099999X-1.099999X-1.099999X1.099999X-1.099999X1.099999X1.099999X0*%
%ADD62C,2.700000*%
G04 APERTURE END LIST*
%TO.C,JP2*%
G36*
X138550995Y-100349005D02*
G01*
X138850995Y-100349005D01*
X138850995Y-101849005D01*
X138550995Y-101849005D01*
X138550995Y-100349005D01*
G37*
%TO.C,JP3*%
G36*
X138550995Y-97599005D02*
G01*
X138850995Y-97599005D01*
X138850995Y-99099005D01*
X138550995Y-99099005D01*
X138550995Y-97599005D01*
G37*
%TD*%
D10*
%TO.C,Ruv2*%
X115829995Y-106174005D03*
X115829995Y-104524005D03*
%TD*%
D11*
%TO.C,L3*%
X164250000Y-100349005D03*
X164250000Y-112849005D03*
%TD*%
D12*
%TO.C,Rilim1*%
X118107495Y-115298005D03*
X119757495Y-115298005D03*
%TD*%
D13*
%TO.C,TP2*%
X86525995Y-133849005D03*
%TD*%
D14*
%TO.C,C1*%
X97225995Y-76099005D03*
X98775995Y-76099005D03*
%TD*%
D13*
%TO.C,JP1*%
X148852195Y-91234005D03*
X151392195Y-91234005D03*
%TD*%
D15*
%TO.C,R11*%
X158775995Y-89849005D03*
X156235995Y-87309005D03*
X158775995Y-84769005D03*
%TD*%
D16*
%TO.C,U15*%
X152085995Y-95789005D03*
X149545995Y-95789005D03*
X147005995Y-95789005D03*
X144465995Y-95789005D03*
X144465995Y-103409005D03*
X147005995Y-103409005D03*
X149545995Y-103409005D03*
X152085995Y-103409005D03*
%TD*%
D17*
%TO.C,J7*%
X157775995Y-124074005D03*
D18*
X157775995Y-126614005D03*
X157775995Y-129154005D03*
%TD*%
D19*
%TO.C,R5*%
X160775995Y-132024005D03*
X160775995Y-133674005D03*
%TD*%
D20*
%TO.C,LED_BNO1*%
X149250000Y-106812500D03*
X149250000Y-108687500D03*
%TD*%
D17*
%TO.C,M2*%
X100525995Y-105324005D03*
D18*
X100525995Y-107864005D03*
%TD*%
D19*
%TO.C,Rt1*%
X113275995Y-104524005D03*
X113275995Y-106174005D03*
%TD*%
D21*
%TO.C,Rc1*%
X106079995Y-107660505D03*
X106079995Y-109485505D03*
%TD*%
D22*
%TO.C,Cin9*%
X102025995Y-132124005D03*
X102025995Y-135074005D03*
%TD*%
D23*
%TO.C,U2*%
X98895995Y-69869005D03*
X98895995Y-67329005D03*
X101435995Y-69869005D03*
X101435995Y-67329005D03*
X103975995Y-69869005D03*
X103975995Y-67329005D03*
X106515995Y-69869005D03*
X106515995Y-67329005D03*
X109055995Y-69869005D03*
X109055995Y-67329005D03*
X111595995Y-69869005D03*
X111595995Y-67329005D03*
X114135995Y-69869005D03*
X114135995Y-67329005D03*
X116675995Y-69869005D03*
X116675995Y-67329005D03*
X119215995Y-69869005D03*
X119215995Y-67329005D03*
X121755995Y-69869005D03*
X121755995Y-67329005D03*
X124295995Y-69869005D03*
X124295995Y-67329005D03*
X126835995Y-69869005D03*
X126835995Y-67329005D03*
X129375995Y-69869005D03*
X129375995Y-67329005D03*
X131915995Y-69869005D03*
X131915995Y-67329005D03*
X134455995Y-69869005D03*
X134455995Y-67329005D03*
X136995995Y-69869005D03*
X136995995Y-67329005D03*
X139535995Y-69869005D03*
X139535995Y-67329005D03*
X142075995Y-69869005D03*
X142075995Y-67329005D03*
X144615995Y-69869005D03*
X144615995Y-67329005D03*
X147155995Y-69869005D03*
X147155995Y-67329005D03*
%TD*%
D21*
%TO.C,Rfb1*%
X108079995Y-111748005D03*
X108079995Y-113573005D03*
%TD*%
D24*
%TO.C,Cout1*%
X141025995Y-134374005D03*
X141025995Y-132824005D03*
%TD*%
D19*
%TO.C,R4*%
X156425995Y-131874005D03*
X156425995Y-133524005D03*
%TD*%
D25*
%TO.C,U14*%
X138985995Y-84749005D03*
X140255995Y-84749005D03*
X141525995Y-84749005D03*
X142795995Y-84749005D03*
X144065995Y-84749005D03*
X145335995Y-84749005D03*
X146605995Y-84749005D03*
X147875995Y-84749005D03*
X149145995Y-84749005D03*
X149145995Y-75449005D03*
X147875995Y-75449005D03*
X146605995Y-75449005D03*
X145335995Y-75449005D03*
X144065995Y-75449005D03*
X142795995Y-75449005D03*
X141525995Y-75449005D03*
X140255995Y-75449005D03*
X138985995Y-75449005D03*
%TD*%
D26*
%TO.C,Q1*%
X115775995Y-129909005D03*
D27*
X109475995Y-127629005D03*
D26*
X115775995Y-125349005D03*
%TD*%
D12*
%TO.C,R18*%
X161513495Y-67399005D03*
X163163495Y-67399005D03*
%TD*%
D28*
%TO.C,X1*%
X153065995Y-81099005D03*
X153065995Y-78899005D03*
X151315995Y-78899005D03*
X151315995Y-81099005D03*
%TD*%
D29*
%TO.C,LED_ESC_2*%
X154275995Y-134786505D03*
X154275995Y-132911505D03*
%TD*%
D30*
%TO.C,U1*%
X169275995Y-122849005D03*
D31*
X167425995Y-121349005D03*
D30*
X169275995Y-119849005D03*
X165575995Y-119849005D03*
X165575995Y-122849005D03*
%TD*%
D32*
%TO.C,J9*%
X95250000Y-107141505D03*
D33*
X89250000Y-107141505D03*
D34*
X92250000Y-111841505D03*
%TD*%
D35*
%TO.C,Cbst1*%
X121207495Y-109273005D03*
X119657495Y-109273005D03*
%TD*%
D36*
%TO.C,JP2*%
X138050995Y-101099005D03*
D37*
X139350995Y-101099005D03*
%TD*%
D38*
%TO.C,Rfb2*%
X110329995Y-113573005D03*
X110329995Y-111748005D03*
%TD*%
D39*
%TO.C,Cout7*%
X142525995Y-120574005D03*
X142525995Y-117624005D03*
%TD*%
D36*
%TO.C,JP3*%
X138050995Y-98349005D03*
D37*
X139350995Y-98349005D03*
%TD*%
D17*
%TO.C,J5*%
X149275995Y-124059005D03*
D18*
X149275995Y-126599005D03*
X149275995Y-129139005D03*
%TD*%
D22*
%TO.C,Cin11*%
X109025995Y-132124005D03*
X109025995Y-135074005D03*
%TD*%
D35*
%TO.C,C2*%
X152800995Y-77099005D03*
X151250995Y-77099005D03*
%TD*%
D40*
%TO.C,R14*%
X119100995Y-64599005D03*
X117450995Y-64599005D03*
%TD*%
D41*
%TO.C,Cout3*%
X142550995Y-130099005D03*
X145500995Y-130099005D03*
%TD*%
D42*
%TO.C,R_CAN1*%
X148639695Y-88734005D03*
X151564695Y-88734005D03*
%TD*%
D43*
%TO.C,U5*%
X115432495Y-109773005D03*
D44*
X114434495Y-110274505D03*
X114434495Y-110774505D03*
X114434495Y-111274505D03*
X114434495Y-111774505D03*
X114434495Y-112274505D03*
X114434495Y-112774505D03*
X114434495Y-113274505D03*
X114434495Y-113774505D03*
D43*
X115432495Y-114273005D03*
X116932495Y-114273005D03*
D44*
X117934495Y-113774505D03*
X117934495Y-113274505D03*
X117932495Y-112773005D03*
X117932495Y-112273005D03*
X117932495Y-111773005D03*
X117932495Y-111273005D03*
X117932495Y-110773005D03*
X117932495Y-110273005D03*
D43*
X116934495Y-109773005D03*
D45*
X116182495Y-112023005D03*
%TD*%
D46*
%TO.C,Rc2*%
X103917495Y-113599005D03*
X105742495Y-113599005D03*
%TD*%
D47*
%TO.C,Cc2*%
X108467495Y-109573005D03*
X110192495Y-109573005D03*
%TD*%
D17*
%TO.C,J8*%
X162275995Y-124059005D03*
D18*
X162275995Y-126599005D03*
X162275995Y-129139005D03*
%TD*%
D48*
%TO.C,C5*%
X137602195Y-88959005D03*
X137602195Y-90509005D03*
%TD*%
D17*
%TO.C,J1*%
X166500995Y-128824005D03*
D18*
X169040995Y-128824005D03*
X166500995Y-131364005D03*
X169040995Y-131364005D03*
X166500995Y-133904005D03*
X169040995Y-133904005D03*
%TD*%
D39*
%TO.C,Cin6*%
X113025995Y-123074005D03*
X113025995Y-120124005D03*
%TD*%
%TO.C,Cout6*%
X139025995Y-120574005D03*
X139025995Y-117624005D03*
%TD*%
D49*
%TO.C,R1*%
X91938495Y-128849005D03*
X96613495Y-128849005D03*
%TD*%
D14*
%TO.C,C4*%
X139290995Y-93250000D03*
X140840995Y-93250000D03*
%TD*%
D19*
%TO.C,Ruv1*%
X117579995Y-104524005D03*
X117579995Y-106174005D03*
%TD*%
D17*
%TO.C,CAN2*%
X91775995Y-96599005D03*
D18*
X91775995Y-99139005D03*
%TD*%
D12*
%TO.C,R21*%
X161513495Y-73449005D03*
X163163495Y-73449005D03*
%TD*%
%TO.C,R6*%
X90950995Y-73099005D03*
X92600995Y-73099005D03*
%TD*%
%TO.C,Rpg1*%
X129200995Y-106299005D03*
X130850995Y-106299005D03*
%TD*%
%TO.C,R12*%
X157180995Y-91809005D03*
X158830995Y-91809005D03*
%TD*%
D17*
%TO.C,J6*%
X153525995Y-124059005D03*
D18*
X153525995Y-126599005D03*
X153525995Y-129139005D03*
%TD*%
D10*
%TO.C,R20*%
X168300995Y-89924005D03*
X168300995Y-88274005D03*
%TD*%
D39*
%TO.C,Cin1*%
X95025995Y-125574005D03*
X95025995Y-122624005D03*
%TD*%
D40*
%TO.C,R9*%
X144025995Y-98349005D03*
X142375995Y-98349005D03*
%TD*%
D50*
%TO.C,U4*%
X90875995Y-74849005D03*
X90875995Y-75349005D03*
X90875995Y-75849005D03*
X90875995Y-76349005D03*
X90875995Y-76849005D03*
X95175995Y-76849005D03*
X95175995Y-76349005D03*
X95175995Y-75849005D03*
X95175995Y-75349005D03*
X95175995Y-74849005D03*
%TD*%
D39*
%TO.C,Cin5*%
X109525995Y-123074005D03*
X109525995Y-120124005D03*
%TD*%
%TO.C,Cin3*%
X102525995Y-123074005D03*
X102525995Y-120124005D03*
%TD*%
D13*
%TO.C,TP1*%
X124425995Y-106299005D03*
%TD*%
D29*
%TO.C,LED_ESC_1*%
X150025995Y-134786505D03*
X150025995Y-132911505D03*
%TD*%
D41*
%TO.C,Cout4*%
X142550995Y-126599005D03*
X145500995Y-126599005D03*
%TD*%
D39*
%TO.C,Cin2*%
X98525995Y-125574005D03*
X98525995Y-122624005D03*
%TD*%
D20*
%TO.C,LED2*%
X130525995Y-114261505D03*
X130525995Y-116136505D03*
%TD*%
D51*
%TO.C,Q2*%
X123085995Y-121099005D03*
D52*
X120805995Y-127399005D03*
D51*
X118525995Y-121099005D03*
%TD*%
D53*
%TO.C,Q4*%
X165630995Y-86009005D03*
X165630995Y-84109005D03*
X163755995Y-85059005D03*
%TD*%
D48*
%TO.C,Css1*%
X111275995Y-104574005D03*
X111275995Y-106124005D03*
%TD*%
D19*
%TO.C,R3*%
X152025995Y-131774005D03*
X152025995Y-133424005D03*
%TD*%
D54*
%TO.C,Q8*%
X161588495Y-75149005D03*
X161588495Y-77049005D03*
X163463495Y-76099005D03*
%TD*%
D14*
%TO.C,C3*%
X151290995Y-83599005D03*
X152840995Y-83599005D03*
%TD*%
D55*
%TO.C,D2*%
X84272495Y-129599005D03*
X89279495Y-129599005D03*
%TD*%
D41*
%TO.C,Cout5*%
X142550995Y-123099005D03*
X145500995Y-123099005D03*
%TD*%
D24*
%TO.C,Cvin1*%
X121329995Y-106623005D03*
X121329995Y-105073005D03*
%TD*%
D19*
%TO.C,R15*%
X152025995Y-105949005D03*
X152025995Y-107599005D03*
%TD*%
D10*
%TO.C,R16*%
X130525995Y-120424005D03*
X130525995Y-118774005D03*
%TD*%
D24*
%TO.C,Cout2*%
X143025995Y-134374005D03*
X143025995Y-132824005D03*
%TD*%
D40*
%TO.C,R_reset1*%
X139890995Y-73349005D03*
X138240995Y-73349005D03*
%TD*%
D12*
%TO.C,R17*%
X160680995Y-91809005D03*
X162330995Y-91809005D03*
%TD*%
D47*
%TO.C,Cc1*%
X108467495Y-107573005D03*
X110192495Y-107573005D03*
%TD*%
D56*
%TO.C,LED1*%
X113088495Y-64599005D03*
X114963495Y-64599005D03*
%TD*%
D10*
%TO.C,R19*%
X168275995Y-86174005D03*
X168275995Y-84524005D03*
%TD*%
D22*
%TO.C,Cin12*%
X112525995Y-132124005D03*
X112525995Y-135074005D03*
%TD*%
D29*
%TO.C,LED_ESC_4*%
X163025995Y-134786505D03*
X163025995Y-132911505D03*
%TD*%
D22*
%TO.C,Cin10*%
X105525995Y-132124005D03*
X105525995Y-135074005D03*
%TD*%
%TO.C,Cin8*%
X98525995Y-132124005D03*
X98525995Y-135074005D03*
%TD*%
D54*
%TO.C,Q3*%
X163755995Y-88159005D03*
X163755995Y-90059005D03*
X165630995Y-89109005D03*
%TD*%
D42*
%TO.C,R10*%
X166313495Y-125349005D03*
X169238495Y-125349005D03*
%TD*%
D40*
%TO.C,R7*%
X93850995Y-78849005D03*
X92200995Y-78849005D03*
%TD*%
D19*
%TO.C,R2*%
X147775995Y-131774005D03*
X147775995Y-133424005D03*
%TD*%
D17*
%TO.C,M1*%
X127025995Y-110559005D03*
D18*
X127025995Y-113099005D03*
X127025995Y-115639005D03*
%TD*%
D57*
%TO.C,D8*%
X165025995Y-117099005D03*
X169025995Y-117099005D03*
%TD*%
D47*
%TO.C,Cc3*%
X103967495Y-111823005D03*
X105692495Y-111823005D03*
%TD*%
D24*
%TO.C,Cvcc1*%
X120932495Y-113298005D03*
X120932495Y-111748005D03*
%TD*%
D54*
%TO.C,Q7*%
X161650995Y-69199005D03*
X161650995Y-71099005D03*
X163525995Y-70149005D03*
%TD*%
D40*
%TO.C,R8*%
X144025995Y-100849005D03*
X142375995Y-100849005D03*
%TD*%
D58*
%TO.C,U3*%
X140138395Y-87829005D03*
X140138395Y-89099005D03*
X140138395Y-90369005D03*
X140138395Y-91639005D03*
X145065995Y-91639005D03*
X145065995Y-90369005D03*
X145065995Y-89099005D03*
X145065995Y-87829005D03*
%TD*%
D11*
%TO.C,L2*%
X126775995Y-128849005D03*
X139275995Y-128849005D03*
%TD*%
D39*
%TO.C,Cin4*%
X106025995Y-123074005D03*
X106025995Y-120124005D03*
%TD*%
D12*
%TO.C,R13*%
X163430995Y-82309005D03*
X165080995Y-82309005D03*
%TD*%
D29*
%TO.C,LED_ESC_3*%
X158625995Y-134974005D03*
X158625995Y-133099005D03*
%TD*%
D13*
%TO.C,TP4*%
X112525995Y-115349005D03*
%TD*%
D22*
%TO.C,Cin7*%
X95025995Y-132149005D03*
X95025995Y-135099005D03*
%TD*%
D59*
%TO.C,J4*%
X85525995Y-82349005D03*
D60*
X85525995Y-84849005D03*
X85525995Y-87349005D03*
X85525995Y-89849005D03*
%TD*%
D59*
%TO.C,CAN1*%
X85525995Y-96599005D03*
D60*
X85525995Y-99099005D03*
%TD*%
D61*
%TO.C,J2*%
X85525995Y-121639005D03*
D62*
X85525995Y-125599005D03*
%TD*%
D59*
%TO.C,Analog_IN1*%
X85525995Y-68599005D03*
D60*
X85525995Y-71099005D03*
X85525995Y-73599005D03*
X85525995Y-76099005D03*
%TD*%
M02*
