M48
; DRILL file {KiCad 9.0.3} date 2025-08-09T18:03:13+0900
; FORMAT={-:-/ absolute / inch / decimal}
; #@! TF.CreationDate,2025-08-09T18:03:13+09:00
; #@! TF.GenerationSoftware,Kicad,Pcbnew,9.0.3
; #@! TF.FileFunction,Plated,1,2,PTH
FMAT,2
INCH
; #@! TA.AperFunction,Plated,PTH,ComponentDrill
T1C0.0236
; #@! TA.AperFunction,Plated,PTH,ComponentDrill
T2C0.0669
; #@! TA.AperFunction,Plated,PTH,ComponentDrill
T3C0.1063
; #@! TA.AperFunction,Plated,PTH,ComponentDrill
T4C0.1260
%
G90
G05
T2
X4.7646Y-5.4518
X4.9205Y-5.4518
T3
X3.9134Y-4.9469
X4.1969Y-4.9469
X4.622Y-4.9469
X4.9055Y-4.9469
X5.3307Y-4.9469
X5.6142Y-4.9469
X6.0394Y-4.9469
X6.3228Y-4.9469
T4
X4.498Y-5.3642
X5.6004Y-5.3642
T1
G00X3.7894Y-4.7323
M15
G01X3.7894Y-4.689
M16
G05
G00X4.3209Y-4.7323
M15
G01X4.3209Y-4.689
M16
G05
G00X4.498Y-4.7323
M15
G01X4.498Y-4.689
M16
G05
G00X5.0295Y-4.7323
M15
G01X5.0295Y-4.689
M16
G05
G00X5.2067Y-4.7323
M15
G01X5.2067Y-4.689
M16
G05
G00X5.7382Y-4.7323
M15
G01X5.7382Y-4.689
M16
G05
G00X5.9154Y-4.7323
M15
G01X5.9154Y-4.689
M16
G05
G00X6.4469Y-4.7323
M15
G01X6.4469Y-4.689
M16
G05
M30
