%TF.GenerationSoftware,KiCad,Pcbnew,9.0.3*%
%TF.CreationDate,2025-08-09T18:03:13+09:00*%
%TF.ProjectId,power_circuit_2,706f7765-725f-4636-9972-637569745f32,rev?*%
%TF.SameCoordinates,Original*%
%TF.FileFunction,Copper,L2,Bot*%
%TF.FilePolarity,Positive*%
%FSLAX46Y46*%
G04 Gerber Fmt 4.6, Leading zero omitted, Abs format (unit mm)*
G04 Created by KiCad (PCBNEW 9.0.3) date 2025-08-09 18:03:13*
%MOMM*%
%LPD*%
G01*
G04 APERTURE LIST*
G04 Aperture macros list*
%AMRoundRect*
0 Rectangle with rounded corners*
0 $1 Rounding radius*
0 $2 $3 $4 $5 $6 $7 $8 $9 X,Y pos of 4 corners*
0 Add a 4 corners polygon primitive as box body*
4,1,4,$2,$3,$4,$5,$6,$7,$8,$9,$2,$3,0*
0 Add four circle primitives for the rounded corners*
1,1,$1+$1,$2,$3*
1,1,$1+$1,$4,$5*
1,1,$1+$1,$6,$7*
1,1,$1+$1,$8,$9*
0 Add four rect primitives between the rounded corners*
20,1,$1+$1,$2,$3,$4,$5,0*
20,1,$1+$1,$4,$5,$6,$7,0*
20,1,$1+$1,$6,$7,$8,$9,0*
20,1,$1+$1,$8,$9,$2,$3,0*%
G04 Aperture macros list end*
%TA.AperFunction,ComponentPad*%
%ADD10C,5.600000*%
%TD*%
%TA.AperFunction,ComponentPad*%
%ADD11RoundRect,0.250001X-1.099999X-1.099999X1.099999X-1.099999X1.099999X1.099999X-1.099999X1.099999X0*%
%TD*%
%TA.AperFunction,ComponentPad*%
%ADD12C,2.700000*%
%TD*%
%TA.AperFunction,ComponentPad*%
%ADD13R,0.900000X2.000000*%
%TD*%
%TA.AperFunction,ComponentPad*%
%ADD14RoundRect,1.025000X1.025000X1.025000X-1.025000X1.025000X-1.025000X-1.025000X1.025000X-1.025000X0*%
%TD*%
%TA.AperFunction,ComponentPad*%
%ADD15C,4.100000*%
%TD*%
G04 APERTURE END LIST*
D10*
%TO.P,+1,1,1*%
%TO.N,+24V*%
X114250000Y-136250000D03*
%TD*%
%TO.P,-1,1,1*%
%TO.N,GND*%
X142250000Y-136250000D03*
%TD*%
D11*
%TO.P,J5,1,Pin_1*%
%TO.N,+24V*%
X121020000Y-138475000D03*
D12*
%TO.P,J5,2,Pin_2*%
%TO.N,GND*%
X124980000Y-138475000D03*
%TD*%
D13*
%TO.P,J4,*%
%TO.N,*%
X163750000Y-119650000D03*
X150250000Y-119650000D03*
D14*
%TO.P,J4,1,Pin_1*%
%TO.N,GND*%
X153400000Y-125650000D03*
D15*
%TO.P,J4,2,Pin_2*%
%TO.N,+24V*%
X160600000Y-125650000D03*
%TD*%
D13*
%TO.P,J3,*%
%TO.N,*%
X145750000Y-119650000D03*
X132250000Y-119650000D03*
D14*
%TO.P,J3,1,Pin_1*%
%TO.N,GND*%
X135400000Y-125650000D03*
D15*
%TO.P,J3,2,Pin_2*%
%TO.N,+24V*%
X142600000Y-125650000D03*
%TD*%
D13*
%TO.P,J1,*%
%TO.N,*%
X109750000Y-119650000D03*
X96250000Y-119650000D03*
D14*
%TO.P,J1,1,Pin_1*%
%TO.N,GND*%
X99400000Y-125650000D03*
D15*
%TO.P,J1,2,Pin_2*%
%TO.N,+24V*%
X106600000Y-125650000D03*
%TD*%
D13*
%TO.P,J2,*%
%TO.N,*%
X127750000Y-119650000D03*
X114250000Y-119650000D03*
D14*
%TO.P,J2,1,Pin_1*%
%TO.N,GND*%
X117400000Y-125650000D03*
D15*
%TO.P,J2,2,Pin_2*%
%TO.N,+24V*%
X124600000Y-125650000D03*
%TD*%
%TA.AperFunction,Conductor*%
%TO.N,GND*%
G36*
X96442539Y-112520185D02*
G01*
X96488294Y-112572989D01*
X96499500Y-112624500D01*
X96499500Y-118025500D01*
X96479815Y-118092539D01*
X96427011Y-118138294D01*
X96375500Y-118149500D01*
X95752129Y-118149500D01*
X95752123Y-118149501D01*
X95692516Y-118155908D01*
X95557671Y-118206202D01*
X95557664Y-118206206D01*
X95442455Y-118292452D01*
X95442452Y-118292455D01*
X95356206Y-118407664D01*
X95356202Y-118407671D01*
X95305908Y-118542517D01*
X95299501Y-118602116D01*
X95299501Y-118602123D01*
X95299500Y-118602135D01*
X95299500Y-120697870D01*
X95299501Y-120697876D01*
X95305908Y-120757483D01*
X95356202Y-120892328D01*
X95356206Y-120892335D01*
X95442452Y-121007544D01*
X95442455Y-121007547D01*
X95557664Y-121093793D01*
X95557671Y-121093797D01*
X95692517Y-121144091D01*
X95692516Y-121144091D01*
X95699444Y-121144835D01*
X95752127Y-121150500D01*
X96747872Y-121150499D01*
X96807483Y-121144091D01*
X96942331Y-121093796D01*
X97057546Y-121007546D01*
X97143796Y-120892331D01*
X97194091Y-120757483D01*
X97200500Y-120697873D01*
X97200499Y-118624499D01*
X97220184Y-118557461D01*
X97272987Y-118511706D01*
X97324499Y-118500500D01*
X108675500Y-118500500D01*
X108742539Y-118520185D01*
X108788294Y-118572989D01*
X108799500Y-118624500D01*
X108799500Y-120697870D01*
X108799501Y-120697876D01*
X108805908Y-120757483D01*
X108856202Y-120892328D01*
X108856206Y-120892335D01*
X108942452Y-121007544D01*
X108942455Y-121007547D01*
X109057664Y-121093793D01*
X109057671Y-121093797D01*
X109192517Y-121144091D01*
X109192516Y-121144091D01*
X109199444Y-121144835D01*
X109252127Y-121150500D01*
X110247872Y-121150499D01*
X110307483Y-121144091D01*
X110442331Y-121093796D01*
X110557546Y-121007546D01*
X110643796Y-120892331D01*
X110694091Y-120757483D01*
X110700500Y-120697873D01*
X110700499Y-118624499D01*
X110720184Y-118557461D01*
X110772987Y-118511706D01*
X110824499Y-118500500D01*
X113175500Y-118500500D01*
X113242539Y-118520185D01*
X113288294Y-118572989D01*
X113299500Y-118624500D01*
X113299500Y-120697870D01*
X113299501Y-120697876D01*
X113305908Y-120757483D01*
X113356202Y-120892328D01*
X113356206Y-120892335D01*
X113442452Y-121007544D01*
X113442455Y-121007547D01*
X113557664Y-121093793D01*
X113557671Y-121093797D01*
X113692517Y-121144091D01*
X113692516Y-121144091D01*
X113699444Y-121144835D01*
X113752127Y-121150500D01*
X114747872Y-121150499D01*
X114807483Y-121144091D01*
X114942331Y-121093796D01*
X115057546Y-121007546D01*
X115143796Y-120892331D01*
X115194091Y-120757483D01*
X115200500Y-120697873D01*
X115200499Y-118624499D01*
X115220184Y-118557461D01*
X115272987Y-118511706D01*
X115324499Y-118500500D01*
X126675500Y-118500500D01*
X126742539Y-118520185D01*
X126788294Y-118572989D01*
X126799500Y-118624500D01*
X126799500Y-120697870D01*
X126799501Y-120697876D01*
X126805908Y-120757483D01*
X126856202Y-120892328D01*
X126856206Y-120892335D01*
X126942452Y-121007544D01*
X126942455Y-121007547D01*
X127057664Y-121093793D01*
X127057671Y-121093797D01*
X127192517Y-121144091D01*
X127192516Y-121144091D01*
X127199444Y-121144835D01*
X127252127Y-121150500D01*
X128247872Y-121150499D01*
X128307483Y-121144091D01*
X128442331Y-121093796D01*
X128557546Y-121007546D01*
X128643796Y-120892331D01*
X128694091Y-120757483D01*
X128700500Y-120697873D01*
X128700499Y-118624499D01*
X128720184Y-118557461D01*
X128772987Y-118511706D01*
X128824499Y-118500500D01*
X129934108Y-118500500D01*
X131175500Y-118500500D01*
X131242539Y-118520185D01*
X131288294Y-118572989D01*
X131299500Y-118624500D01*
X131299500Y-120697870D01*
X131299501Y-120697876D01*
X131305908Y-120757483D01*
X131356202Y-120892328D01*
X131356206Y-120892335D01*
X131442452Y-121007544D01*
X131442455Y-121007547D01*
X131557664Y-121093793D01*
X131557671Y-121093797D01*
X131692517Y-121144091D01*
X131692516Y-121144091D01*
X131699444Y-121144835D01*
X131752127Y-121150500D01*
X132747872Y-121150499D01*
X132807483Y-121144091D01*
X132942331Y-121093796D01*
X133057546Y-121007546D01*
X133143796Y-120892331D01*
X133194091Y-120757483D01*
X133200500Y-120697873D01*
X133200499Y-118624499D01*
X133220184Y-118557461D01*
X133272987Y-118511706D01*
X133324499Y-118500500D01*
X144675500Y-118500500D01*
X144742539Y-118520185D01*
X144788294Y-118572989D01*
X144799500Y-118624500D01*
X144799500Y-120697870D01*
X144799501Y-120697876D01*
X144805908Y-120757483D01*
X144856202Y-120892328D01*
X144856206Y-120892335D01*
X144942452Y-121007544D01*
X144942455Y-121007547D01*
X145057664Y-121093793D01*
X145057671Y-121093797D01*
X145192517Y-121144091D01*
X145192516Y-121144091D01*
X145199444Y-121144835D01*
X145252127Y-121150500D01*
X146247872Y-121150499D01*
X146307483Y-121144091D01*
X146442331Y-121093796D01*
X146557546Y-121007546D01*
X146643796Y-120892331D01*
X146694091Y-120757483D01*
X146700500Y-120697873D01*
X146700499Y-118624499D01*
X146720184Y-118557461D01*
X146772987Y-118511706D01*
X146824499Y-118500500D01*
X149175500Y-118500500D01*
X149242539Y-118520185D01*
X149288294Y-118572989D01*
X149299500Y-118624500D01*
X149299500Y-120697870D01*
X149299501Y-120697876D01*
X149305908Y-120757483D01*
X149356202Y-120892328D01*
X149356206Y-120892335D01*
X149442452Y-121007544D01*
X149442455Y-121007547D01*
X149557664Y-121093793D01*
X149557671Y-121093797D01*
X149692517Y-121144091D01*
X149692516Y-121144091D01*
X149699444Y-121144835D01*
X149752127Y-121150500D01*
X150747872Y-121150499D01*
X150807483Y-121144091D01*
X150942331Y-121093796D01*
X151057546Y-121007546D01*
X151143796Y-120892331D01*
X151194091Y-120757483D01*
X151200500Y-120697873D01*
X151200499Y-118624499D01*
X151220184Y-118557461D01*
X151272987Y-118511706D01*
X151324499Y-118500500D01*
X162675500Y-118500500D01*
X162742539Y-118520185D01*
X162788294Y-118572989D01*
X162799500Y-118624500D01*
X162799500Y-120697870D01*
X162799501Y-120697876D01*
X162805908Y-120757483D01*
X162856202Y-120892328D01*
X162856206Y-120892335D01*
X162942452Y-121007544D01*
X162942455Y-121007547D01*
X163057664Y-121093793D01*
X163057671Y-121093797D01*
X163192517Y-121144091D01*
X163192516Y-121144091D01*
X163199444Y-121144835D01*
X163252127Y-121150500D01*
X164247872Y-121150499D01*
X164307483Y-121144091D01*
X164442331Y-121093796D01*
X164557546Y-121007546D01*
X164643796Y-120892331D01*
X164694091Y-120757483D01*
X164700500Y-120697873D01*
X164700499Y-118602128D01*
X164694091Y-118542517D01*
X164682599Y-118511706D01*
X164643797Y-118407671D01*
X164643793Y-118407664D01*
X164557547Y-118292455D01*
X164557544Y-118292452D01*
X164442335Y-118206206D01*
X164442328Y-118206202D01*
X164307482Y-118155908D01*
X164307483Y-118155908D01*
X164247883Y-118149501D01*
X164247881Y-118149500D01*
X164247873Y-118149500D01*
X164247865Y-118149500D01*
X163624500Y-118149500D01*
X163557461Y-118129815D01*
X163511706Y-118077011D01*
X163500500Y-118025500D01*
X163500500Y-112624500D01*
X163520185Y-112557461D01*
X163572989Y-112511706D01*
X163624500Y-112500500D01*
X179853489Y-112500500D01*
X179920528Y-112520185D01*
X179966283Y-112572989D01*
X179976156Y-112606365D01*
X180031741Y-112982348D01*
X180032039Y-112984495D01*
X180149828Y-113890393D01*
X180150089Y-113892544D01*
X180174694Y-114111663D01*
X180162613Y-114180480D01*
X180115244Y-114231842D01*
X180051468Y-114249500D01*
X167184108Y-114249500D01*
X167056812Y-114283608D01*
X166942686Y-114349500D01*
X166942683Y-114349502D01*
X166849502Y-114442683D01*
X166849500Y-114442686D01*
X166783608Y-114556812D01*
X166756252Y-114658908D01*
X166749500Y-114684108D01*
X166749500Y-125315892D01*
X166766554Y-125379539D01*
X166783608Y-125443187D01*
X166816554Y-125500250D01*
X166849500Y-125557314D01*
X166942686Y-125650500D01*
X167056814Y-125716392D01*
X167184108Y-125750500D01*
X167315892Y-125750500D01*
X171874765Y-125750500D01*
X171941804Y-125770185D01*
X171987559Y-125822989D01*
X171998764Y-125874645D01*
X171985988Y-136734868D01*
X171972690Y-148038779D01*
X171952926Y-148105795D01*
X171951041Y-148108635D01*
X171303123Y-149055962D01*
X171301236Y-149058644D01*
X170520332Y-150138010D01*
X170518375Y-150140641D01*
X169709206Y-151198972D01*
X169707180Y-151201551D01*
X168870283Y-152238145D01*
X168868189Y-152240669D01*
X168004215Y-153254723D01*
X168002056Y-153257191D01*
X167111533Y-154248081D01*
X167109309Y-154250491D01*
X166192899Y-155217481D01*
X166190612Y-155219831D01*
X165248953Y-156162250D01*
X165246604Y-156164539D01*
X164280370Y-157081709D01*
X164277962Y-157083935D01*
X163287789Y-157975255D01*
X163285323Y-157977416D01*
X162271965Y-158842208D01*
X162269443Y-158844304D01*
X161233523Y-159682036D01*
X161230946Y-159684064D01*
X160173249Y-160494099D01*
X160170619Y-160496058D01*
X159091884Y-161277830D01*
X159089204Y-161279719D01*
X157990200Y-162032674D01*
X157987470Y-162034492D01*
X156868888Y-162758155D01*
X156866111Y-162759900D01*
X155728780Y-163453733D01*
X155725958Y-163455403D01*
X154570738Y-164118882D01*
X154567873Y-164120478D01*
X153395457Y-164753206D01*
X153392551Y-164754725D01*
X152203845Y-165356214D01*
X152200900Y-165357656D01*
X150996659Y-165927522D01*
X150993676Y-165928885D01*
X149887822Y-166416832D01*
X149837765Y-166427385D01*
X148616770Y-166427385D01*
X148549731Y-166407700D01*
X148503976Y-166354896D01*
X148492770Y-166303300D01*
X148497297Y-159683064D01*
X148500454Y-155066059D01*
X148500500Y-155065892D01*
X148500500Y-155000245D01*
X148500545Y-154934450D01*
X148500543Y-154934444D01*
X148500500Y-154934108D01*
X148483513Y-154870712D01*
X148483519Y-154870710D01*
X148483490Y-154870628D01*
X148466525Y-154807135D01*
X148466394Y-154806817D01*
X148433500Y-154749843D01*
X148433457Y-154749769D01*
X148416541Y-154720424D01*
X148400710Y-154692960D01*
X148400709Y-154692959D01*
X148400708Y-154692957D01*
X148400680Y-154692920D01*
X148400662Y-154692897D01*
X148400498Y-154692683D01*
X148354150Y-154646336D01*
X148354149Y-154646335D01*
X148307588Y-154599710D01*
X148307436Y-154599622D01*
X148307314Y-154599500D01*
X148250749Y-154566842D01*
X148250675Y-154566799D01*
X148193505Y-154533739D01*
X148193201Y-154533612D01*
X148188968Y-154532478D01*
X148129946Y-154516663D01*
X148125798Y-154515548D01*
X148066232Y-154499544D01*
X148065900Y-154499500D01*
X148065892Y-154499500D01*
X148000342Y-154499500D01*
X147926775Y-154499449D01*
X147926001Y-154499500D01*
X111934108Y-154499500D01*
X111806812Y-154533608D01*
X111692686Y-154599500D01*
X111692683Y-154599502D01*
X111599502Y-154692683D01*
X111599500Y-154692686D01*
X111533608Y-154806812D01*
X111499500Y-154934108D01*
X111499500Y-166322552D01*
X111479815Y-166389591D01*
X111427011Y-166435346D01*
X111375500Y-166446552D01*
X110154225Y-166446552D01*
X110104115Y-166435976D01*
X110084669Y-166427385D01*
X109101606Y-165993069D01*
X108954711Y-165928171D01*
X108951624Y-165926756D01*
X107705162Y-165334768D01*
X107702115Y-165333270D01*
X106472253Y-164707340D01*
X106469249Y-164705758D01*
X105257073Y-164046437D01*
X105254112Y-164044774D01*
X104060392Y-163352483D01*
X104057479Y-163350740D01*
X102883185Y-162626041D01*
X102880320Y-162624218D01*
X101726244Y-161867597D01*
X101723431Y-161865697D01*
X100590601Y-161077832D01*
X100587840Y-161075856D01*
X99476933Y-160257216D01*
X99474227Y-160255164D01*
X98386165Y-159406428D01*
X98383517Y-159404303D01*
X97319127Y-158526116D01*
X97316538Y-158523920D01*
X96687449Y-157975255D01*
X96276545Y-157616881D01*
X96274027Y-157614623D01*
X95259312Y-156679498D01*
X95256847Y-156677164D01*
X94268059Y-155714556D01*
X94265659Y-155712154D01*
X93303652Y-154722890D01*
X93301318Y-154720424D01*
X92366703Y-153705134D01*
X92364438Y-153702604D01*
X91458017Y-152662159D01*
X91455822Y-152659569D01*
X90578205Y-151594671D01*
X90576082Y-151592022D01*
X90271845Y-151201551D01*
X89727934Y-150503473D01*
X89725898Y-150500784D01*
X89700590Y-150466401D01*
X88907887Y-149389444D01*
X88905914Y-149386684D01*
X88225809Y-148407643D01*
X88203728Y-148341354D01*
X88203648Y-148336647D01*
X88203695Y-148313669D01*
X88228507Y-136087860D01*
X110949500Y-136087860D01*
X110949500Y-136412139D01*
X110981284Y-136734857D01*
X110981287Y-136734874D01*
X111044545Y-137052902D01*
X111044548Y-137052913D01*
X111138686Y-137363247D01*
X111262786Y-137662849D01*
X111262788Y-137662854D01*
X111415646Y-137948830D01*
X111415657Y-137948848D01*
X111595811Y-138218467D01*
X111595821Y-138218481D01*
X111801546Y-138469158D01*
X112030841Y-138698453D01*
X112030846Y-138698457D01*
X112030847Y-138698458D01*
X112281524Y-138904183D01*
X112551158Y-139084347D01*
X112551167Y-139084352D01*
X112551169Y-139084353D01*
X112837145Y-139237211D01*
X112837147Y-139237211D01*
X112837153Y-139237215D01*
X113136754Y-139361314D01*
X113447077Y-139455449D01*
X113447083Y-139455450D01*
X113447086Y-139455451D01*
X113447097Y-139455454D01*
X113646528Y-139495122D01*
X113765132Y-139518714D01*
X114087857Y-139550500D01*
X114087860Y-139550500D01*
X114412140Y-139550500D01*
X114412143Y-139550500D01*
X114734868Y-139518714D01*
X114892295Y-139487399D01*
X115052902Y-139455454D01*
X115052913Y-139455451D01*
X115052913Y-139455450D01*
X115052923Y-139455449D01*
X115363246Y-139361314D01*
X115662847Y-139237215D01*
X115948842Y-139084347D01*
X116218476Y-138904183D01*
X116469153Y-138698458D01*
X116698458Y-138469153D01*
X116904183Y-138218476D01*
X117084347Y-137948842D01*
X117237215Y-137662847D01*
X117361314Y-137363246D01*
X117372921Y-137324984D01*
X119169500Y-137324984D01*
X119169500Y-139625015D01*
X119180000Y-139727795D01*
X119180001Y-139727796D01*
X119235186Y-139894335D01*
X119235187Y-139894337D01*
X119327286Y-140043651D01*
X119327289Y-140043655D01*
X119451344Y-140167710D01*
X119451348Y-140167713D01*
X119600662Y-140259812D01*
X119600664Y-140259813D01*
X119600666Y-140259814D01*
X119767203Y-140314999D01*
X119869992Y-140325500D01*
X119869997Y-140325500D01*
X122170003Y-140325500D01*
X122170008Y-140325500D01*
X122272797Y-140314999D01*
X122439334Y-140259814D01*
X122588655Y-140167711D01*
X122712711Y-140043655D01*
X122804814Y-139894334D01*
X122859999Y-139727797D01*
X122870500Y-139625008D01*
X122870500Y-137324992D01*
X122859999Y-137222203D01*
X122804814Y-137055666D01*
X122803122Y-137052923D01*
X122712713Y-136906348D01*
X122712710Y-136906344D01*
X122588655Y-136782289D01*
X122588651Y-136782286D01*
X122439337Y-136690187D01*
X122439335Y-136690186D01*
X122356065Y-136662593D01*
X122272797Y-136635001D01*
X122272795Y-136635000D01*
X122170015Y-136624500D01*
X122170008Y-136624500D01*
X119869992Y-136624500D01*
X119869984Y-136624500D01*
X119767204Y-136635000D01*
X119767203Y-136635001D01*
X119600664Y-136690186D01*
X119600662Y-136690187D01*
X119451348Y-136782286D01*
X119451344Y-136782289D01*
X119327289Y-136906344D01*
X119327286Y-136906348D01*
X119235187Y-137055662D01*
X119235186Y-137055664D01*
X119180001Y-137222203D01*
X119180000Y-137222204D01*
X119169500Y-137324984D01*
X117372921Y-137324984D01*
X117455449Y-137052923D01*
X117455451Y-137052913D01*
X117455454Y-137052902D01*
X117509281Y-136782289D01*
X117518714Y-136734868D01*
X117550500Y-136412143D01*
X117550500Y-136087857D01*
X117518714Y-135765132D01*
X117495122Y-135646528D01*
X117455454Y-135447097D01*
X117455451Y-135447086D01*
X117455450Y-135447083D01*
X117455449Y-135447077D01*
X117361314Y-135136754D01*
X117237215Y-134837153D01*
X117084347Y-134551158D01*
X116904183Y-134281524D01*
X116698458Y-134030847D01*
X116698457Y-134030846D01*
X116698453Y-134030841D01*
X116469158Y-133801546D01*
X116218481Y-133595821D01*
X116218480Y-133595820D01*
X116218476Y-133595817D01*
X115948842Y-133415653D01*
X115948837Y-133415650D01*
X115948830Y-133415646D01*
X115662854Y-133262788D01*
X115662849Y-133262786D01*
X115363247Y-133138686D01*
X115052913Y-133044548D01*
X115052902Y-133044545D01*
X114734874Y-132981287D01*
X114734857Y-132981284D01*
X114490812Y-132957248D01*
X114412143Y-132949500D01*
X114087857Y-132949500D01*
X114015099Y-132956666D01*
X113765142Y-132981284D01*
X113765125Y-132981287D01*
X113447097Y-133044545D01*
X113447086Y-133044548D01*
X113136752Y-133138686D01*
X112837150Y-133262786D01*
X112837145Y-133262788D01*
X112551169Y-133415646D01*
X112551151Y-133415657D01*
X112281532Y-133595811D01*
X112281518Y-133595821D01*
X112030841Y-133801546D01*
X111801546Y-134030841D01*
X111595821Y-134281518D01*
X111595811Y-134281532D01*
X111415657Y-134551151D01*
X111415646Y-134551169D01*
X111262788Y-134837145D01*
X111262786Y-134837150D01*
X111138686Y-135136752D01*
X111044548Y-135447086D01*
X111044545Y-135447097D01*
X110981287Y-135765125D01*
X110981284Y-135765142D01*
X110949500Y-136087860D01*
X88228507Y-136087860D01*
X88249235Y-125874248D01*
X88269056Y-125807249D01*
X88321953Y-125761601D01*
X88373235Y-125750500D01*
X92815890Y-125750500D01*
X92815892Y-125750500D01*
X92943186Y-125716392D01*
X93057314Y-125650500D01*
X93150500Y-125557314D01*
X93179686Y-125506762D01*
X104049500Y-125506762D01*
X104049500Y-125793237D01*
X104081572Y-126077891D01*
X104145317Y-126357181D01*
X104145321Y-126357193D01*
X104239929Y-126627565D01*
X104239935Y-126627579D01*
X104364223Y-126885666D01*
X104364225Y-126885669D01*
X104516634Y-127128227D01*
X104695243Y-127352195D01*
X104897805Y-127554757D01*
X105121773Y-127733366D01*
X105364331Y-127885775D01*
X105622428Y-128010068D01*
X105622434Y-128010070D01*
X105892806Y-128104678D01*
X105892818Y-128104682D01*
X106172102Y-128168426D01*
X106172105Y-128168426D01*
X106172108Y-128168427D01*
X106172107Y-128168427D01*
X106314434Y-128184463D01*
X106456763Y-128200499D01*
X106456764Y-128200500D01*
X106456767Y-128200500D01*
X106743236Y-128200500D01*
X106743236Y-128200499D01*
X106948815Y-128177336D01*
X107027891Y-128168427D01*
X107027892Y-128168426D01*
X107027898Y-128168426D01*
X107307182Y-128104682D01*
X107577572Y-128010068D01*
X107835669Y-127885775D01*
X108078227Y-127733366D01*
X108302195Y-127554757D01*
X108504757Y-127352195D01*
X108683366Y-127128227D01*
X108835775Y-126885669D01*
X108960068Y-126627572D01*
X109054682Y-126357182D01*
X109118426Y-126077898D01*
X109150500Y-125793233D01*
X109150500Y-125506767D01*
X109150499Y-125506762D01*
X122049500Y-125506762D01*
X122049500Y-125793237D01*
X122081572Y-126077891D01*
X122145317Y-126357181D01*
X122145321Y-126357193D01*
X122239929Y-126627565D01*
X122239935Y-126627579D01*
X122364223Y-126885666D01*
X122364225Y-126885669D01*
X122516634Y-127128227D01*
X122695243Y-127352195D01*
X122897805Y-127554757D01*
X123121773Y-127733366D01*
X123364331Y-127885775D01*
X123622428Y-128010068D01*
X123622434Y-128010070D01*
X123892806Y-128104678D01*
X123892818Y-128104682D01*
X124172102Y-128168426D01*
X124172105Y-128168426D01*
X124172108Y-128168427D01*
X124172107Y-128168427D01*
X124314434Y-128184463D01*
X124456763Y-128200499D01*
X124456764Y-128200500D01*
X124456767Y-128200500D01*
X124743236Y-128200500D01*
X124743236Y-128200499D01*
X124948815Y-128177336D01*
X125027891Y-128168427D01*
X125027892Y-128168426D01*
X125027898Y-128168426D01*
X125307182Y-128104682D01*
X125577572Y-128010068D01*
X125835669Y-127885775D01*
X126078227Y-127733366D01*
X126302195Y-127554757D01*
X126504757Y-127352195D01*
X126683366Y-127128227D01*
X126835775Y-126885669D01*
X126960068Y-126627572D01*
X127054682Y-126357182D01*
X127118426Y-126077898D01*
X127150500Y-125793233D01*
X127150500Y-125506767D01*
X127150499Y-125506762D01*
X140049500Y-125506762D01*
X140049500Y-125793237D01*
X140081572Y-126077891D01*
X140145317Y-126357181D01*
X140145321Y-126357193D01*
X140239929Y-126627565D01*
X140239935Y-126627579D01*
X140364223Y-126885666D01*
X140364225Y-126885669D01*
X140516634Y-127128227D01*
X140695243Y-127352195D01*
X140897805Y-127554757D01*
X141121773Y-127733366D01*
X141364331Y-127885775D01*
X141622428Y-128010068D01*
X141622434Y-128010070D01*
X141892806Y-128104678D01*
X141892818Y-128104682D01*
X142172102Y-128168426D01*
X142172105Y-128168426D01*
X142172108Y-128168427D01*
X142172107Y-128168427D01*
X142314434Y-128184463D01*
X142456763Y-128200499D01*
X142456764Y-128200500D01*
X142456767Y-128200500D01*
X142743236Y-128200500D01*
X142743236Y-128200499D01*
X142948815Y-128177336D01*
X143027891Y-128168427D01*
X143027892Y-128168426D01*
X143027898Y-128168426D01*
X143307182Y-128104682D01*
X143577572Y-128010068D01*
X143835669Y-127885775D01*
X144078227Y-127733366D01*
X144302195Y-127554757D01*
X144504757Y-127352195D01*
X144683366Y-127128227D01*
X144835775Y-126885669D01*
X144960068Y-126627572D01*
X145054682Y-126357182D01*
X145118426Y-126077898D01*
X145150500Y-125793233D01*
X145150500Y-125506767D01*
X145150499Y-125506762D01*
X158049500Y-125506762D01*
X158049500Y-125793237D01*
X158081572Y-126077891D01*
X158145317Y-126357181D01*
X158145321Y-126357193D01*
X158239929Y-126627565D01*
X158239935Y-126627579D01*
X158364223Y-126885666D01*
X158364225Y-126885669D01*
X158516634Y-127128227D01*
X158695243Y-127352195D01*
X158897805Y-127554757D01*
X159121773Y-127733366D01*
X159364331Y-127885775D01*
X159622428Y-128010068D01*
X159622434Y-128010070D01*
X159892806Y-128104678D01*
X159892818Y-128104682D01*
X160172102Y-128168426D01*
X160172105Y-128168426D01*
X160172108Y-128168427D01*
X160172107Y-128168427D01*
X160314434Y-128184463D01*
X160456763Y-128200499D01*
X160456764Y-128200500D01*
X160456767Y-128200500D01*
X160743236Y-128200500D01*
X160743236Y-128200499D01*
X160948815Y-128177336D01*
X161027891Y-128168427D01*
X161027892Y-128168426D01*
X161027898Y-128168426D01*
X161307182Y-128104682D01*
X161577572Y-128010068D01*
X161835669Y-127885775D01*
X162078227Y-127733366D01*
X162302195Y-127554757D01*
X162504757Y-127352195D01*
X162683366Y-127128227D01*
X162835775Y-126885669D01*
X162960068Y-126627572D01*
X163054682Y-126357182D01*
X163118426Y-126077898D01*
X163150500Y-125793233D01*
X163150500Y-125506767D01*
X163128994Y-125315892D01*
X163118427Y-125222108D01*
X163109888Y-125184697D01*
X163054682Y-124942818D01*
X163022028Y-124849500D01*
X162960070Y-124672434D01*
X162960068Y-124672428D01*
X162835775Y-124414331D01*
X162683366Y-124171773D01*
X162504757Y-123947805D01*
X162302195Y-123745243D01*
X162078227Y-123566634D01*
X161835669Y-123414225D01*
X161835666Y-123414223D01*
X161577579Y-123289935D01*
X161577565Y-123289929D01*
X161307193Y-123195321D01*
X161307181Y-123195317D01*
X161027891Y-123131572D01*
X161027892Y-123131572D01*
X160743237Y-123099500D01*
X160743233Y-123099500D01*
X160456767Y-123099500D01*
X160456762Y-123099500D01*
X160172108Y-123131572D01*
X159892818Y-123195317D01*
X159892806Y-123195321D01*
X159622434Y-123289929D01*
X159622420Y-123289935D01*
X159364333Y-123414223D01*
X159121774Y-123566633D01*
X158897805Y-123745242D01*
X158695242Y-123947805D01*
X158516633Y-124171774D01*
X158364223Y-124414333D01*
X158239935Y-124672420D01*
X158239929Y-124672434D01*
X158145321Y-124942806D01*
X158145317Y-124942818D01*
X158081572Y-125222108D01*
X158049500Y-125506762D01*
X145150499Y-125506762D01*
X145128994Y-125315892D01*
X145118427Y-125222108D01*
X145109888Y-125184697D01*
X145054682Y-124942818D01*
X145022028Y-124849500D01*
X144960070Y-124672434D01*
X144960068Y-124672428D01*
X144835775Y-124414331D01*
X144683366Y-124171773D01*
X144504757Y-123947805D01*
X144302195Y-123745243D01*
X144078227Y-123566634D01*
X143835669Y-123414225D01*
X143835666Y-123414223D01*
X143577579Y-123289935D01*
X143577565Y-123289929D01*
X143307193Y-123195321D01*
X143307181Y-123195317D01*
X143027891Y-123131572D01*
X143027892Y-123131572D01*
X142743237Y-123099500D01*
X142743233Y-123099500D01*
X142456767Y-123099500D01*
X142456762Y-123099500D01*
X142172108Y-123131572D01*
X141892818Y-123195317D01*
X141892806Y-123195321D01*
X141622434Y-123289929D01*
X141622420Y-123289935D01*
X141364333Y-123414223D01*
X141121774Y-123566633D01*
X140897805Y-123745242D01*
X140695242Y-123947805D01*
X140516633Y-124171774D01*
X140364223Y-124414333D01*
X140239935Y-124672420D01*
X140239929Y-124672434D01*
X140145321Y-124942806D01*
X140145317Y-124942818D01*
X140081572Y-125222108D01*
X140049500Y-125506762D01*
X127150499Y-125506762D01*
X127128994Y-125315892D01*
X127118427Y-125222108D01*
X127109888Y-125184697D01*
X127054682Y-124942818D01*
X127022028Y-124849500D01*
X126960070Y-124672434D01*
X126960068Y-124672428D01*
X126835775Y-124414331D01*
X126683366Y-124171773D01*
X126504757Y-123947805D01*
X126302195Y-123745243D01*
X126078227Y-123566634D01*
X125835669Y-123414225D01*
X125835666Y-123414223D01*
X125577579Y-123289935D01*
X125577565Y-123289929D01*
X125307193Y-123195321D01*
X125307181Y-123195317D01*
X125027891Y-123131572D01*
X125027892Y-123131572D01*
X124743237Y-123099500D01*
X124743233Y-123099500D01*
X124456767Y-123099500D01*
X124456762Y-123099500D01*
X124172108Y-123131572D01*
X123892818Y-123195317D01*
X123892806Y-123195321D01*
X123622434Y-123289929D01*
X123622420Y-123289935D01*
X123364333Y-123414223D01*
X123121774Y-123566633D01*
X122897805Y-123745242D01*
X122695242Y-123947805D01*
X122516633Y-124171774D01*
X122364223Y-124414333D01*
X122239935Y-124672420D01*
X122239929Y-124672434D01*
X122145321Y-124942806D01*
X122145317Y-124942818D01*
X122081572Y-125222108D01*
X122049500Y-125506762D01*
X109150499Y-125506762D01*
X109128994Y-125315892D01*
X109118427Y-125222108D01*
X109109888Y-125184697D01*
X109054682Y-124942818D01*
X109022028Y-124849500D01*
X108960070Y-124672434D01*
X108960068Y-124672428D01*
X108835775Y-124414331D01*
X108683366Y-124171773D01*
X108504757Y-123947805D01*
X108302195Y-123745243D01*
X108078227Y-123566634D01*
X107835669Y-123414225D01*
X107835666Y-123414223D01*
X107577579Y-123289935D01*
X107577565Y-123289929D01*
X107307193Y-123195321D01*
X107307181Y-123195317D01*
X107027891Y-123131572D01*
X107027892Y-123131572D01*
X106743237Y-123099500D01*
X106743233Y-123099500D01*
X106456767Y-123099500D01*
X106456762Y-123099500D01*
X106172108Y-123131572D01*
X105892818Y-123195317D01*
X105892806Y-123195321D01*
X105622434Y-123289929D01*
X105622420Y-123289935D01*
X105364333Y-123414223D01*
X105121774Y-123566633D01*
X104897805Y-123745242D01*
X104695242Y-123947805D01*
X104516633Y-124171774D01*
X104364223Y-124414333D01*
X104239935Y-124672420D01*
X104239929Y-124672434D01*
X104145321Y-124942806D01*
X104145317Y-124942818D01*
X104081572Y-125222108D01*
X104049500Y-125506762D01*
X93179686Y-125506762D01*
X93216392Y-125443186D01*
X93250500Y-125315892D01*
X93250500Y-114672665D01*
X93216392Y-114545371D01*
X93150500Y-114431243D01*
X93057314Y-114338057D01*
X92963006Y-114283608D01*
X92943187Y-114272165D01*
X92858598Y-114249500D01*
X92815892Y-114238057D01*
X92684108Y-114238057D01*
X92684107Y-114238057D01*
X80089027Y-114238064D01*
X80073682Y-114233558D01*
X80057696Y-114234041D01*
X80040845Y-114223916D01*
X80021988Y-114218379D01*
X80011515Y-114206293D01*
X79997806Y-114198056D01*
X79989104Y-114180430D01*
X79976233Y-114165576D01*
X79973596Y-114149016D01*
X79966877Y-114135405D01*
X79965813Y-114100127D01*
X79990103Y-113885389D01*
X79990355Y-113883331D01*
X80108943Y-112981411D01*
X80109250Y-112979234D01*
X80165159Y-112606365D01*
X80165196Y-112606111D01*
X80194604Y-112542733D01*
X80253608Y-112505314D01*
X80287825Y-112500500D01*
X96375500Y-112500500D01*
X96442539Y-112520185D01*
G37*
%TD.AperFunction*%
%TD*%
M02*
