%TF.GenerationSoftware,KiCad,Pcbnew,9.0.3*%
%TF.CreationDate,2025-08-09T18:03:13+09:00*%
%TF.ProjectId,power_circuit_2,706f7765-725f-4636-9972-637569745f32,rev?*%
%TF.SameCoordinates,Original*%
%TF.FileFunction,Profile,NP*%
%FSLAX46Y46*%
G04 Gerber Fmt 4.6, Leading zero omitted, Abs format (unit mm)*
G04 Created by KiCad (PCBNEW 9.0.3) date 2025-08-09 18:03:13*
%MOMM*%
%LPD*%
G01*
G04 APERTURE LIST*
%TA.AperFunction,Profile*%
%ADD10C,0.050000*%
%TD*%
G04 APERTURE END LIST*
D10*
X172472961Y-148232026D02*
G75*
G02*
X149969311Y-166927885I-42472963J28232026D01*
G01*
X87702752Y-148531869D02*
X87750000Y-125250000D01*
X110022533Y-166947052D02*
G75*
G02*
X87702752Y-148531872I19977467J46947052D01*
G01*
X172472963Y-148232026D02*
X172500000Y-125250000D01*
X92750000Y-125250000D02*
X87750000Y-125250000D01*
X79389925Y-114738557D02*
G75*
G02*
X79750002Y-112000000I50611275J-5261643D01*
G01*
X163000000Y-112000000D02*
X180392431Y-112000000D01*
X92750000Y-114738557D02*
X92750000Y-125250000D01*
X167250000Y-125250000D02*
X172500000Y-125250000D01*
X112000000Y-155000000D02*
X112000000Y-166947052D01*
X148000000Y-155000000D02*
X112000000Y-155000000D01*
X167250000Y-114750000D02*
X167250000Y-125250000D01*
X180749999Y-114750000D02*
X167250000Y-114750000D01*
X97000000Y-112000000D02*
X79750000Y-112000000D01*
X110022533Y-166947052D02*
X112000000Y-166947052D01*
X79389925Y-114738566D02*
X92750000Y-114738557D01*
X147991842Y-166927885D02*
X148000000Y-155000000D01*
X149969311Y-166927885D02*
X147991842Y-166927885D01*
X180392432Y-112000000D02*
G75*
G02*
X180750000Y-114750000I-52255132J-8192700D01*
G01*
X130000000Y-118000000D02*
X163000000Y-118000000D01*
X163000000Y-112000000D02*
X163000000Y-118000000D01*
X130000000Y-118000000D02*
X97000000Y-118000000D01*
X97000000Y-118000000D02*
X97000000Y-112000000D01*
M02*
