  0
SECTION
  2
HEADER
  9
$ANGBASE
  50
0.0
  9
$ANGDIR
  70
1
  9
$MEASUREMENT
  70
0
  0
ENDSEC
  0
SECTION
  2
TABLES
  0
TABLE
  2
LTYPE
  70
4
  0
LTYPE
  5
40F
  2
CONTINUOUS
  70
0
  3
Solid line
  72
65
  73
0
  40
0.0
  0
LTYPE
  5
410
  2
DASHDOT
 70
0
  3
Dash Dot ____ _ ____ _
 72
65
 73
4
 40
2.0
 49
1.25
 49
-0.25
 49
0.25
 49
-0.25
  0
LTYPE
  5
411
  2
DASHED
 70
0
  3
Dashed __ __ __ __ __
 72
65
 73
2
 40
0.75
 49
0.5
 49
-0.25
  0
LTYPE
  5
43B
  2
DOTTED
 70
0
  3
Dotted .  .  .  .
 72
65
 73
2
 40
0.2
 49
0.0
 49
-0.2
  0
ENDTAB
  0
TABLE
  2
STYLE
  70
4
  0
STYLE
  2
KICAD
  70
0
  40
0
  41
1
  42
1
  50
0
  71
0
  3
isocp.shx
  0
STYLE
  2
KICADB
  70
0
  40
0
  41
1
  42
1
  50
0
  71
0
  3
isocp.shx
  0
STYLE
  2
KICADI
  70
0
  40
0
  41
1
  42
1
  50
15
  71
0
  3
isocp.shx
  0
STYLE
  2
KICADBI
  70
0
  40
0
  41
1
  42
1
  50
15
  71
0
  3
isocp.shx
  0
ENDTAB
  0
TABLE
  2
LAYER
  70
1
  0
LAYER
  2
BLACK
  70
0
  62
7
  6
CONTINUOUS
  0
ENDTAB
  0
ENDSEC
  0
SECTION
  2
ENTITIES
0
LINE
8
BLACK
6
CONTINUOUS
10
4.173981653543307
20
-3.6989687401574805
11
4.1750470078740154
21
-3.7000340944881889
0
LINE
8
BLACK
6
CONTINUOUS
10
4.1750470078740154
20
-3.7000340944881889
11
4.1751968503937009
21
-3.7007874015748032
0
LINE
8
BLACK
6
CONTINUOUS
10
4.1751968503937009
20
-3.7007874015748032
11
4.1751968503937009
21
-4.1732283464566926
0
LINE
8
BLACK
6
CONTINUOUS
10
4.1751968503937009
20
-4.1732283464566926
11
4.1750470078740154
21
-4.173981653543307
0
LINE
8
BLACK
6
CONTINUOUS
10
4.1750470078740154
20
-4.173981653543307
11
4.173981653543307
21
-4.1750470078740154
0
LINE
8
BLACK
6
CONTINUOUS
10
4.173981653543307
20
-4.1750470078740154
11
4.1732283464566926
21
-4.1751968503937009
0
LINE
8
BLACK
6
CONTINUOUS
10
4.1732283464566926
20
-4.1751968503937009
11
3.4645669291338583
21
-4.1751968503937009
0
LINE
8
BLACK
6
CONTINUOUS
10
3.4645669291338583
20
-4.1751968503937009
11
3.463813622047244
21
-4.1750470078740154
0
LINE
8
BLACK
6
CONTINUOUS
10
3.463813622047244
20
-4.1750470078740154
11
3.4627482677165355
21
-4.173981653543307
0
LINE
8
BLACK
6
CONTINUOUS
10
3.4627482677165355
20
-4.173981653543307
11
3.4625984251968505
21
-4.1732283464566926
0
LINE
8
BLACK
6
CONTINUOUS
10
3.4625984251968505
20
-4.1732283464566926
11
3.4625984251968505
21
-3.7007874015748032
0
LINE
8
BLACK
6
CONTINUOUS
10
3.4625984251968505
20
-3.7007874015748032
11
3.4627482677165355
21
-3.7000340944881889
0
LINE
8
BLACK
6
CONTINUOUS
10
3.4627482677165355
20
-3.7000340944881889
11
3.463813622047244
21
-3.6989687401574805
0
LINE
8
BLACK
6
CONTINUOUS
10
3.463813622047244
20
-3.6989687401574805
11
3.4645669291338583
21
-3.6988188976377954
0
LINE
8
BLACK
6
CONTINUOUS
10
3.4645669291338583
20
-3.6988188976377954
11
4.1732283464566926
21
-3.6988188976377954
0
LINE
8
BLACK
6
CONTINUOUS
10
4.1732283464566926
20
-3.6988188976377954
11
4.173981653543307
21
-3.6989687401574805
0
LINE
8
BLACK
6
CONTINUOUS
10
3.4665354330708662
20
-3.7027559055118111
11
3.4665354330708662
21
-4.1712598425196852
0
LINE
8
BLACK
6
CONTINUOUS
10
3.4665354330708662
20
-4.1712598425196852
11
4.1712598425196852
21
-4.1712598425196852
0
LINE
8
BLACK
6
CONTINUOUS
10
4.1712598425196852
20
-4.1712598425196852
11
4.1712598425196852
21
-3.7027559055118111
0
LINE
8
BLACK
6
CONTINUOUS
10
4.1712598425196852
20
-3.7027559055118111
11
3.4665354330708662
21
-3.7027559055118111
0
LINE
8
BLACK
6
CONTINUOUS
10
4.2527218110236218
20
-3.6202285826771652
11
4.2537871653543302
21
-3.6212939370078741
0
LINE
8
BLACK
6
CONTINUOUS
10
4.2537871653543302
20
-3.6212939370078741
11
4.2539370078740157
21
-3.622047244094488
0
LINE
8
BLACK
6
CONTINUOUS
10
4.2539370078740157
20
-3.622047244094488
11
4.2539370078740157
21
-4.2519685039370074
0
LINE
8
BLACK
6
CONTINUOUS
10
4.2539370078740157
20
-4.2519685039370074
11
4.2537871653543302
21
-4.2527218110236218
0
LINE
8
BLACK
6
CONTINUOUS
10
4.2537871653543302
20
-4.2527218110236218
11
4.2527218110236218
21
-4.2537871653543302
0
LINE
8
BLACK
6
CONTINUOUS
10
4.2527218110236218
20
-4.2537871653543302
11
4.2519685039370074
21
-4.2539370078740157
0
LINE
8
BLACK
6
CONTINUOUS
10
4.2519685039370074
20
-4.2539370078740157
11
3.3858267716535431
21
-4.2539370078740157
0
LINE
8
BLACK
6
CONTINUOUS
10
3.3858267716535431
20
-4.2539370078740157
11
3.3850734645669291
21
-4.2537871653543302
0
LINE
8
BLACK
6
CONTINUOUS
10
3.3850734645669291
20
-4.2537871653543302
11
3.3840081102362203
21
-4.2527218110236218
0
LINE
8
BLACK
6
CONTINUOUS
10
3.3840081102362203
20
-4.2527218110236218
11
3.3838582677165352
21
-4.2519685039370074
0
LINE
8
BLACK
6
CONTINUOUS
10
3.3838582677165352
20
-4.2519685039370074
11
3.3838582677165352
21
-3.622047244094488
0
LINE
8
BLACK
6
CONTINUOUS
10
3.3838582677165352
20
-3.622047244094488
11
3.3840081102362203
21
-3.6212939370078741
0
LINE
8
BLACK
6
CONTINUOUS
10
3.3840081102362203
20
-3.6212939370078741
11
3.3850734645669291
21
-3.6202285826771652
0
LINE
8
BLACK
6
CONTINUOUS
10
3.3850734645669291
20
-3.6202285826771652
11
3.3858267716535431
21
-3.6200787401574801
0
LINE
8
BLACK
6
CONTINUOUS
10
3.3858267716535431
20
-3.6200787401574801
11
4.2519685039370074
21
-3.6200787401574801
0
LINE
8
BLACK
6
CONTINUOUS
10
4.2519685039370074
20
-3.6200787401574801
11
4.2527218110236218
21
-3.6202285826771652
0
LINE
8
BLACK
6
CONTINUOUS
10
3.3877952755905509
20
-3.6240157480314958
11
3.3877952755905509
21
-4.25
0
LINE
8
BLACK
6
CONTINUOUS
10
3.3877952755905509
20
-4.25
11
4.25
21
-4.25
0
LINE
8
BLACK
6
CONTINUOUS
10
4.25
20
-4.25
11
4.25
21
-3.6240157480314958
0
LINE
8
BLACK
6
CONTINUOUS
10
4.25
20
-3.6240157480314958
11
3.3877952755905509
21
-3.6240157480314958
  0
ENDSEC
  0
EOF
