0
SECTION
2
HEADER
9
$INSUNITS
70
4
9
$ACADVER
1
AC1014
9
$HANDSEED
5
FFFF
0
ENDSEC
0
SECTION
2
TABLES
0
TABLE
2
VPORT
5
8
100
AcDbSymbolTable
0
ENDTAB
0
TABLE
2
LTYPE
5
5
100
AcDbSymbolTable
0
LTYPE
5
14
100
AcDbSymbolTableRecord
100
AcDbLinetypeTableRecord
2
BYBLOCK
70
0
0
LTYPE
5
15
100
AcDbSymbolTableRecord
100
AcDbLinetypeTableRecord
2
BYLAYER
70
0
0
LTYPE
5
16
100
AcDbSymbolTableRecord
100
AcDbLinetypeTableRecord
2
DASHED
70
0
3
Dashed __ __ __ __ __ __ __ __ __ __ __ __ __ _
72
65
73
2
40
0.75
49
0.5
74
0
49
-0.25
74
0
0
ENDTAB
0
TABLE
2
LAYER
5
2
100
AcDbSymbolTable
70
2
0
LAYER
5
50
100
AcDbSymbolTableRecord
100
AcDbLayerTableRecord
2
0
70
0
62
7
6
CONTINUOUS
0
ENDTAB
0
TABLE
2
STYLE
5
3
100
AcDbSymbolTable
70
1
0
STYLE
5
11
100
AcDbSymbolTableRecord
100
AcDbTextStyleTableRecord
2
STANDARD
70
0
0
ENDTAB
0
TABLE
2
VIEW
5
6
100
AcDbSymbolTable
70
0
0
ENDTAB
0
TABLE
2
UCS
5
7
100
AcDbSymbolTable
70
0
0
ENDTAB
0
TABLE
2
APPID
5
9
100
AcDbSymbolTable
70
2
0
APPID
5
12
100
AcDbSymbolTableRecord
100
AcDbRegAppTableRecord
2
ACAD
70
0
0
ENDTAB
0
TABLE
2
DIMSTYLE
5
A
100
AcDbSymbolTable
70
1
0
ENDTAB
0
TABLE
2
BLOCK_RECORD
5
1
100
AcDbSymbolTable
70
1
0
BLOCK_RECORD
5
1F
100
AcDbSymbolTableRecord
100
AcDbBlockTableRecord
2
*MODEL_SPACE
0
BLOCK_RECORD
5
1B
100
AcDbSymbolTableRecord
100
AcDbBlockTableRecord
2
*PAPER_SPACE
0
ENDTAB
0
ENDSEC
0
SECTION
2
BLOCKS
0
BLOCK
5
20
100
AcDbEntity
100
AcDbBlockBegin
2
*MODEL_SPACE
0
ENDBLK
5
21
100
AcDbEntity
100
AcDbBlockEnd
0
BLOCK
5
1C
100
AcDbEntity
100
AcDbBlockBegin
2
*PAPER_SPACE
0
ENDBLK
5
1D
100
AcDbEntity
100
AcDbBlockEnd
0
ENDSEC
0
SECTION
2
ENTITIES
0
LWPOLYLINE
5
100
100
AcDbEntity
8
0
100
AcDbPolyline
90
4
70
1
43
0.0
10
-37.300000000000004
20
-5.2000000745058061
10
-47.699999999999996
20
-5.2000000745058061
10
-47.699999999999996
20
5.2000000745058061
10
-37.300000000000004
20
5.2000000745058061
0
LWPOLYLINE
5
101
100
AcDbEntity
8
0
100
AcDbPolyline
90
4
70
1
43
0.0
10
37.300000000000004
20
-5.2000000745058061
10
37.300000000000004
20
5.2000000745058061
10
47.699999999999996
20
5.2000000745058061
10
47.699999999999996
20
-5.2000000745058061
0
CIRCLE
5
102
100
AcDbEntity
8
0
100
AcDbCircle
10
0
20
45
30
0
40
1.5000000000000004
210
0
220
0
230
1
0
LWPOLYLINE
5
103
100
AcDbEntity
8
0
100
AcDbPolyline
90
2
70
1
43
0.0
10
37.500000000000028
20
-22.792810130426645
42
10.146995822755443
10
37.500000000000021
20
-22.207189869573337
0
LWPOLYLINE
5
104
100
AcDbEntity
8
0
100
AcDbPolyline
90
2
70
1
43
0.0
10
-37.500000000000028
20
-22.207189869573245
42
10.146995822751496
10
-37.500000000000028
20
-22.792810130426773
0
LWPOLYLINE
5
105
100
AcDbEntity
8
0
100
AcDbPolyline
90
2
70
1
43
0.0
10
20.00000000000005
20
-46.914816422959611
42
4.8957408211479754
10
-19.999999999999996
20
-46.914816422959611
0
ARC
5
106
100
AcDbEntity
8
0
100
AcDbCircle
10
23.912743199997159
20
39.000002241225559
30
0
40
2.9999977587752746
210
-0
220
0
230
1
100
AcDbArc
50
-4.2799528968783063e-05
51
90.000042804287276
0
LINE
5
107
100
AcDbEntity
8
0
100
AcDbLine
10
23.912740958771593
20
41.999999999999957
30
0
11
-26.087259041228489
21
42
31
0
0
LINE
5
108
100
AcDbEntity
8
0
100
AcDbLine
10
26.912740958771522
20
-40.000000000000064
30
0
11
26.912740958771593
21
38.999999999999972
31
0
0
ARC
5
109
100
AcDbEntity
8
0
100
AcDbCircle
10
-26.087261282454083
20
39.000002241225609
30
0
40
2.9999977587752569
210
0
220
-0
230
1
100
AcDbArc
50
89.999957195711985
51
180.00004279952898
0
LWPOLYLINE
5
110
100
AcDbEntity
8
0
100
AcDbPolyline
90
8
70
1
43
0.0
10
-29.087259041228609
20
-40.000000000000007
42
0.41421400000000469
10
-26.08725904122856
20
-43.000000000000014
10
23.912740958771522
20
-43.00000000000005
42
0.41421399999999992
10
26.912740958771522
20
-40.000000000000057
10
26.912740958771593
20
38.999999999999972
42
0.41421400000000513
10
23.912740958771593
20
41.999999999999993
10
-26.087259041228489
20
42
42
0.4142140000000073
10
-29.087259041228506
20
39.000000000000028
0
LWPOLYLINE
5
111
100
AcDbEntity
8
0
100
AcDbPolyline
90
4
70
1
43
0.0
10
-25.117259041228547
20
-33.830000000000013
10
-23.517259041228542
20
-33.830000000000013
10
-23.517259041228545
20
-35.430000000000014
10
-25.11725904122855
20
-35.430000000000007
0
CIRCLE
5
112
100
AcDbEntity
8
0
100
AcDbCircle
10
23.412740958771579
20
18.499999999999961
30
0
40
3.0000000000000044
210
0
220
-0
230
1
0
CIRCLE
5
113
100
AcDbEntity
8
0
100
AcDbCircle
10
-25.587259041228499
20
18.500000000000007
30
0
40
3.0000000000000044
210
0
220
-0
230
1
0
CIRCLE
5
114
100
AcDbEntity
8
0
100
AcDbCircle
10
23.412740958771529
20
-39.500000000000057
30
0
40
3.0000000000000044
210
0
220
-0
230
1
0
CIRCLE
5
115
100
AcDbEntity
8
0
100
AcDbCircle
10
-25.587259041228553
20
-39.500000000000014
30
0
40
3.0000000000000044
210
0
220
-0
230
1
0
LWPOLYLINE
5
116
100
AcDbEntity
8
0
100
AcDbPolyline
90
109
70
1
43
0.0
10
11.630640958771522
20
-16.316900000000043
10
11.644540958771524
20
-16.33630000000004
10
11.659640958771522
20
-16.357100000000038
10
11.675440958771524
20
-16.378900000000041
10
11.691640958771522
20
-16.401100000000039
10
11.723940958771522
20
-16.44470000000004
10
11.807540958771522
20
-16.560300000000044
10
11.716440958771521
20
-16.65340000000004
10
11.659040958771524
20
-16.718200000000039
10
11.609840958771525
20
-16.786900000000038
10
11.568840958771522
20
-16.859000000000041
10
11.536440958771523
20
-16.93420000000004
10
11.512640958771524
20
-17.01190000000004
10
11.497540958771522
20
-17.091800000000038
10
11.491440958771522
20
-17.17350000000004
10
11.50644095877152
20
-17.340300000000042
10
11.55094095877152
20
-17.487700000000039
10
11.620640958771522
20
-17.619000000000042
10
11.71224095877152
20
-17.732300000000038
10
11.82204095877152
20
-17.825500000000041
10
11.946740958771523
20
-17.896800000000042
10
12.08274095877152
20
-17.944100000000041
10
12.226640958771522
20
-17.965400000000038
10
12.52424095877152
20
-17.922300000000039
10
12.634440958771521
20
-17.873700000000042
10
12.734340958771522
20
-17.80910000000004
10
12.822440958771521
20
-17.730500000000042
10
12.897640958771524
20
-17.640200000000039
10
12.958640958771523
20
-17.540000000000042
10
13.004240958771522
20
-17.432200000000044
10
13.033040958771522
20
-17.318800000000039
10
13.035340958771524
20
-17.083500000000043
10
13.024340958771525
20
-17.025000000000041
10
13.010640958771525
20
-16.970300000000044
10
12.993840958771525
20
-16.918800000000044
10
12.973440958771524
20
-16.869900000000044
10
12.949340958771526
20
-16.823000000000043
10
12.921140958771524
20
-16.777400000000039
10
12.888340958771526
20
-16.732600000000044
10
12.808140958771526
20
-16.64270000000004
10
12.714940958771523
20
-16.549600000000044
10
12.832840958771524
20
-16.38050000000004
10
12.854140958771525
20
-16.350100000000044
10
12.874340958771526
20
-16.32130000000004
10
12.893040958771525
20
-16.294700000000041
10
12.909940958771525
20
-16.270600000000041
10
12.924640958771525
20
-16.249700000000043
10
12.936840958771525
20
-16.232400000000041
10
12.946240958771524
20
-16.219200000000043
10
12.954940958771523
20
-16.207200000000039
10
12.960240958771525
20
-16.207900000000038
10
12.971340958771524
20
-16.21440000000004
10
12.987240958771526
20
-16.226100000000038
10
13.007040958771526
20
-16.24200000000004
10
13.029840958771526
20
-16.261400000000037
10
13.054740958771525
20
-16.283500000000043
10
13.080840958771526
20
-16.307500000000044
10
13.132840958771526
20
-16.35800000000004
10
13.208540958771524
20
-16.443600000000043
10
13.275540958771526
20
-16.536700000000039
10
13.333440958771526
20
-16.636400000000041
10
13.381740958771523
20
-16.741300000000038
10
13.419940958771523
20
-16.850400000000043
10
13.447840958771524
20
-16.962500000000041
10
13.464940958771525
20
-17.076400000000042
10
13.464940958771525
20
-17.305000000000042
10
13.433740958771523
20
-17.482100000000038
10
13.378440958771522
20
-17.649300000000039
10
13.300740958771522
20
-17.804600000000043
10
13.202540958771522
20
-17.94610000000004
10
13.085640958771522
20
-18.071800000000042
10
12.951640958771522
20
-18.179900000000039
10
12.802340958771524
20
-18.268400000000042
10
12.465340958771522
20
-18.37920000000004
10
12.42884095877152
20
-18.384000000000039
10
12.386440958771521
20
-18.387700000000038
10
12.339740958771522
20
-18.390200000000043
10
12.290540958771521
20
-18.39150000000004
10
12.240740958771521
20
-18.391600000000039
10
12.192040958771519
20
-18.390400000000042
10
12.146140958771522
20
-18.388000000000044
10
12.069940958771522
20
-18.37920000000004
10
11.90164095877152
20
-18.336700000000043
10
11.744040958771523
20
-18.272900000000043
10
11.598840958771522
20
-18.189600000000041
10
11.467440958771522
20
-18.088200000000043
10
11.351540958771523
20
-17.970400000000044
10
11.25264095877152
20
-17.837700000000041
10
11.172340958771521
20
-17.691900000000039
10
11.07364095877152
20
-17.367000000000044
10
11.068940958771519
20
-17.324700000000043
10
11.066440958771519
20
-17.275300000000044
10
11.065940958771519
20
-17.220900000000043
10
11.067340958771519
20
-17.163500000000038
10
11.070640958771518
20
-17.105100000000043
10
11.075540958771521
20
-17.047700000000038
10
11.081940958771522
20
-16.99330000000004
10
11.099340958771524
20
-16.901600000000041
10
11.123140958771522
20
-16.820900000000041
10
11.151740958771523
20
-16.742900000000041
10
11.185040958771522
20
-16.667800000000042
10
11.223040958771522
20
-16.595600000000044
10
11.265440958771524
20
-16.526500000000041
10
11.312440958771521
20
-16.460600000000039
10
11.363840958771522
20
-16.398000000000042
10
11.479640958771524
20
-16.283100000000044
10
11.557840958771521
20
-16.21470000000004
10
11.598540958771524
20
-16.27240000000004
10
11.607240958771524
20
-16.284400000000044
0
LWPOLYLINE
5
117
100
AcDbEntity
8
0
100
AcDbPolyline
90
215
70
1
43
0.0
10
11.929640958771522
20
-19.273700000000041
10
11.661840958771521
20
-19.213000000000044
10
11.40744095877152
20
-19.118700000000043
10
11.169040958771522
20
-18.993200000000044
10
10.94934095877152
20
-18.839000000000041
10
10.750840958771519
20
-18.658400000000039
10
10.576340958771517
20
-18.454000000000043
10
10.428440958771517
20
-18.228000000000044
10
10.222940958771517
20
-17.721200000000042
10
10.214640958771518
20
-17.687700000000039
10
10.20644095877152
20
-17.65060000000004
10
10.198340958771517
20
-17.610500000000041
10
10.190540958771518
20
-17.568100000000044
10
10.183040958771517
20
-17.524100000000043
10
10.176040958771519
20
-17.479100000000042
10
10.169540958771517
20
-17.434000000000044
10
10.158640958771517
20
-17.34560000000004
10
10.156540958771519
20
-17.312500000000043
10
10.155840958771517
20
-17.267200000000038
10
10.156540958771519
20
-17.213000000000044
10
10.158340958771518
20
-17.153000000000041
10
10.161040958771521
20
-17.090500000000041
10
10.164640958771521
20
-17.028500000000044
10
10.16894095877152
20
-16.970300000000044
10
10.178940958771523
20
-16.878000000000043
10
10.206240958771522
20
-16.732600000000044
10
10.24364095877152
20
-16.589800000000039
10
10.290840958771522
20
-16.450200000000041
10
10.347540958771519
20
-16.314400000000042
10
10.413440958771519
20
-16.183000000000042
10
10.488140958771519
20
-16.056500000000042
10
10.57154095877152
20
-15.935700000000041
10
10.762840958771523
20
-15.712800000000042
10
10.804340958771521
20
-15.672000000000041
10
10.845240958771523
20
-15.633300000000041
10
10.884440958771521
20
-15.597800000000039
10
10.92114095877152
20
-15.566200000000041
10
10.954240958771519
20
-15.539300000000043
10
10.982740958771522
20
-15.51800000000004
10
11.00564095877152
20
-15.503000000000039
10
11.030740958771521
20
-15.49560000000004
10
11.034440958771521
20
-15.500000000000043
10
11.04154095877152
20
-15.509200000000041
10
11.051840958771519
20
-15.52260000000004
10
11.064940958771521
20
-15.539900000000042
10
11.080340958771522
20
-15.560500000000044
10
11.097840958771524
20
-15.583900000000042
10
11.116840958771522
20
-15.60950000000004
10
11.158240958771524
20
-15.66580000000004
10
11.276040958771523
20
-15.826300000000039
10
11.231040958771523
20
-15.862600000000043
10
11.221140958771523
20
-15.871200000000041
10
11.208040958771521
20
-15.882900000000042
10
11.192140958771525
20
-15.897400000000044
10
11.174140958771524
20
-15.914200000000044
10
11.154340958771522
20
-15.932900000000041
10
11.133240958771522
20
-15.95310000000004
10
11.111340958771523
20
-15.974200000000041
10
11.067140958771525
20
-16.017800000000044
10
10.98974095877152
20
-16.100900000000038
10
10.918740958771521
20
-16.188100000000038
10
10.854340958771523
20
-16.279600000000038
10
10.796440958771523
20
-16.375300000000038
10
10.74514095877152
20
-16.47530000000004
10
10.700340958771521
20
-16.579500000000039
10
10.662140958771522
20
-16.687900000000042
10
10.605440958771519
20
-16.917600000000039
10
10.597240958771522
20
-16.971400000000042
10
10.59134095877152
20
-17.032700000000037
10
10.587740958771521
20
-17.099600000000041
10
10.586240958771523
20
-17.169800000000038
10
10.587040958771517
20
-17.241200000000042
10
10.589840958771518
20
-17.311700000000041
10
10.594740958771517
20
-17.379200000000044
10
10.610740958771519
20
-17.496500000000044
10
10.636740958771519
20
-17.60930000000004
10
10.668940958771518
20
-17.718200000000039
10
10.707340958771518
20
-17.823100000000043
10
10.75204095877152
20
-17.924200000000038
10
10.803140958771518
20
-18.021500000000042
10
10.860540958771519
20
-18.115000000000041
10
10.924440958771518
20
-18.204900000000038
10
11.071440958771518
20
-18.373900000000042
10
11.162540958771519
20
-18.459100000000038
10
11.25904095877152
20
-18.537000000000038
10
11.360740958771521
20
-18.607300000000038
10
11.46704095877152
20
-18.670000000000044
10
11.57764095877152
20
-18.724700000000038
10
11.692140958771521
20
-18.771400000000042
10
11.81014095877152
20
-18.809700000000042
10
12.054940958771521
20
-18.86070000000004
10
12.105140958771521
20
-18.865700000000043
10
12.164040958771521
20
-18.86860000000004
10
12.228940958771521
20
-18.869400000000041
10
12.29764095877152
20
-18.868400000000044
10
12.36734095877152
20
-18.865700000000043
10
12.435640958771522
20
-18.861300000000043
10
12.499940958771521
20
-18.855300000000042
10
12.606740958771521
20
-18.839300000000044
10
12.678040958771522
20
-18.822500000000044
10
12.74834095877152
20
-18.802800000000044
10
12.817640958771523
20
-18.780200000000043
10
12.885940958771522
20
-18.754700000000039
10
12.953240958771524
20
-18.726300000000041
10
13.019340958771524
20
-18.695100000000039
10
13.084340958771524
20
-18.661100000000044
10
13.211040958771523
20
-18.584700000000041
10
13.259240958771523
20
-18.550200000000039
10
13.311440958771524
20
-18.508500000000044
10
13.365940958771523
20
-18.461200000000044
10
13.421140958771522
20
-18.40980000000004
10
13.475540958771521
20
-18.356000000000044
10
13.527540958771525
20
-18.301200000000044
10
13.575340958771523
20
-18.247000000000039
10
13.652440958771521
20
-18.147000000000038
10
13.734240958771524
20
-18.014800000000044
10
13.803140958771522
20
-17.87770000000004
10
13.858940958771521
20
-17.736300000000043
10
13.901640958771521
20
-17.591400000000039
10
13.931040958771524
20
-17.443800000000039
10
13.946940958771524
20
-17.294200000000043
10
13.949240958771522
20
-17.143200000000043
10
13.912740958771526
20
-16.840600000000041
10
13.902140958771525
20
-16.793200000000041
10
13.890840958771523
20
-16.748300000000039
10
13.878640958771523
20
-16.705100000000041
10
13.865040958771523
20
-16.662700000000044
10
13.849940958771525
20
-16.620400000000043
10
13.833040958771525
20
-16.57740000000004
10
13.813940958771525
20
-16.532900000000041
10
13.768140958771525
20
-16.436100000000042
10
13.731140958771526
20
-16.36550000000004
10
13.690940958771524
20
-16.297100000000043
10
13.647640958771525
20
-16.230900000000041
10
13.601140958771525
20
-16.167000000000044
10
13.551640958771525
20
-16.105400000000039
10
13.499040958771523
20
-16.046100000000042
10
13.443440958771525
20
-15.989300000000043
10
13.323540958771524
20
-15.883000000000038
10
13.309140958771525
20
-15.87100000000004
10
13.295640958771525
20
-15.859300000000044
10
13.283140958771524
20
-15.848300000000037
10
13.271940958771523
20
-15.83800000000004
10
13.262240958771525
20
-15.828700000000042
10
13.254240958771526
20
-15.820700000000038
10
13.248240958771525
20
-15.814100000000039
10
13.243140958771525
20
-15.805900000000044
10
13.250840958771526
20
-15.789900000000042
10
13.271440958771525
20
-15.75650000000004
10
13.301440958771524
20
-15.710900000000038
10
13.337240958771526
20
-15.65820000000004
10
13.375240958771526
20
-15.603600000000043
10
13.412040958771525
20
-15.552200000000038
10
13.443940958771526
20
-15.509000000000039
10
13.478840958771524
20
-15.46780000000004
10
13.481740958771526
20
-15.468700000000037
10
13.486740958771525
20
-15.471400000000042
10
13.493540958771526
20
-15.475600000000043
10
13.501940958771526
20
-15.48130000000004
10
13.511740958771526
20
-15.48810000000004
10
13.522740958771525
20
-15.496000000000038
10
13.534640958771524
20
-15.504900000000038
10
13.560240958771526
20
-15.524500000000039
10
13.664740958771526
20
-15.612900000000041
10
13.761840958771526
20
-15.704700000000038
10
13.851740958771526
20
-15.800100000000041
10
13.934540958771526
20
-15.899500000000039
10
14.010440958771524
20
-16.003100000000039
10
14.079540958771526
20
-16.11100000000004
10
14.142140958771526
20
-16.223400000000044
10
14.248140958771526
20
-16.46290000000004
10
14.322140958771525
20
-16.705700000000043
10
14.365440958771526
20
-16.953400000000038
10
14.378340958771524
20
-17.203400000000038
10
14.361540958771524
20
-17.452600000000039
10
14.315440958771521
20
-17.698300000000042
10
14.240740958771523
20
-17.937600000000042
10
14.137840958771521
20
-18.167800000000042
10
13.849540958771522
20
-18.588900000000042
10
13.737640958771522
20
-18.705800000000039
10
13.614340958771523
20
-18.814700000000038
10
13.481340958771524
20
-18.914800000000042
10
13.340340958771524
20
-19.005100000000041
10
13.193040958771522
20
-19.084800000000044
10
13.041040958771521
20
-19.152900000000042
10
12.885940958771522
20
-19.208600000000043
10
12.573540958771524
20
-19.279100000000042
10
12.477140958771519
20
-19.291900000000041
10
12.477140958771519
20
-20.143600000000038
10
13.245340958771518
20
-20.145800000000044
10
14.012440958771521
20
-20.149000000000044
10
14.15594095877152
20
-20.36080000000004
10
14.299540958771519
20
-20.571600000000039
10
10.195040958771514
20
-20.571600000000036
10
10.195040958771514
20
-19.678200000000039
10
10.195140958771516
20
-19.518200000000043
10
10.195340958771517
20
-19.367400000000043
10
10.19574095877152
20
-19.228300000000043
10
10.196240958771519
20
-19.103500000000043
10
10.196840958771517
20
-18.995600000000042
10
10.197640958771519
20
-18.907200000000039
10
10.198440958771517
20
-18.84090000000004
10
10.200440958771519
20
-18.78470000000004
10
10.20484095877152
20
-18.787300000000041
10
10.21554095877152
20
-18.794600000000038
10
10.231940958771517
20
-18.80620000000004
10
10.253340958771517
20
-18.821700000000039
10
10.279240958771517
20
-18.840600000000038
10
10.308940958771519
20
-18.862400000000044
10
10.341740958771517
20
-18.886700000000044
10
10.414640958771518
20
-18.941000000000038
10
10.623640958771517
20
-19.09720000000004
10
10.623640958771517
20
-20.143600000000038
10
12.048540958771518
20
-20.143600000000038
10
12.048540958771518
20
-19.291900000000041
0
LWPOLYLINE
5
118
100
AcDbEntity
8
0
100
AcDbPolyline
90
4
70
1
43
0.0
10
15.762940958771537
20
-4.8705000000000398
10
15.762940958771537
20
-4.0502000000000393
10
17.867540958771542
20
-4.0502000000000411
10
17.867540958771542
20
-4.8705000000000398
0
LWPOLYLINE
5
119
100
AcDbEntity
8
0
100
AcDbPolyline
90
36
70
1
43
0.0
10
17.870740958771542
20
-6.0041000000000411
10
17.078040958771538
20
-6.0061000000000444
10
16.285840958771537
20
-6.0074000000000352
10
16.285840958771541
20
-6.7631000000000441
10
17.078040958771542
20
-6.7644000000000446
10
17.870740958771538
20
-6.7663000000000437
10
17.872740958771537
20
-7.1617000000000441
10
17.874040958771538
20
-7.5576000000000398
10
17.081840958771537
20
-7.558900000000043
10
16.289140958771537
20
-7.5608000000000422
10
16.287140958771534
20
-7.9400000000000404
10
16.285840958771537
20
-8.3198000000000416
10
17.874040958771538
20
-8.3198000000000434
10
17.872740958771537
20
-8.7184000000000417
10
17.870740958771535
20
-9.1176000000000457
10
16.816540958771537
20
-9.119500000000043
10
15.762940958771534
20
-9.1208000000000435
10
15.762940958771537
20
-7.4174000000000406
10
15.763040958771535
20
-7.0603000000000371
10
15.763340958771536
20
-6.7436000000000407
10
15.763740958771537
20
-6.4677000000000406
10
15.764340958771538
20
-6.2325000000000408
10
15.765140958771536
20
-6.0382000000000424
10
15.766040958771537
20
-5.8849000000000418
10
15.767040958771537
20
-5.7726000000000388
10
15.769440958771536
20
-5.6715000000000426
10
15.785440958771538
20
-5.6014000000000408
10
15.810240958771537
20
-5.5350000000000366
10
15.843240958771537
20
-5.4729000000000427
10
15.883940958771536
20
-5.415700000000041
10
15.931740958771536
20
-5.3640000000000398
10
15.986040958771536
20
-5.3184000000000387
10
16.046340958771538
20
-5.279600000000042
10
16.182540958771536
20
-5.2245000000000408
10
16.23744095877154
20
-5.2096000000000409
10
17.870740958771542
20
-5.2096000000000418
0
LWPOLYLINE
5
120
100
AcDbEntity
8
0
100
AcDbPolyline
90
93
70
1
43
0.0
10
16.106940958771531
20
-12.557100000000041
10
16.076440958771531
20
-12.55690000000004
10
16.04484095877153
20
-12.556600000000042
10
16.01284095877153
20
-12.556100000000043
10
15.981240958771529
20
-12.555600000000041
10
15.950840958771531
20
-12.555000000000041
10
15.92224095877153
20
-12.55430000000004
10
15.873940958771531
20
-12.552600000000043
10
15.76294095877153
20
-12.548800000000039
10
15.762940958771532
20
-11.253000000000043
10
15.763040958771533
20
-10.97960000000004
10
15.763340958771533
20
-10.73760000000004
10
15.763740958771532
20
-10.527000000000042
10
15.76444095877153
20
-10.347500000000039
10
15.765240958771532
20
-10.19920000000004
10
15.766240958771533
20
-10.08200000000004
10
15.767340958771532
20
-9.9956000000000422
10
15.770040958771531
20
-9.9153000000000446
10
15.777240958771532
20
-9.8785000000000434
10
15.787040958771533
20
-9.8424000000000369
10
15.799540958771532
20
-9.8070000000000412
10
15.81464095877153
20
-9.7723000000000404
10
15.83224095877153
20
-9.7386000000000372
10
15.852440958771535
20
-9.7058000000000444
10
15.875040958771535
20
-9.6741000000000454
10
15.927540958771534
20
-9.6143000000000391
10
15.957640958771535
20
-9.5859000000000449
10
15.989040958771534
20
-9.5602000000000409
10
16.021540958771535
20
-9.5372000000000412
10
16.055240958771535
20
-9.5170000000000421
10
16.090040958771535
20
-9.4994000000000423
10
16.126040958771537
20
-9.484600000000043
10
16.163140958771539
20
-9.4725000000000392
10
16.240640958771536
20
-9.456700000000037
10
16.258940958771536
20
-9.455300000000042
10
16.289140958771537
20
-9.4540000000000433
10
16.331240958771534
20
-9.4530000000000456
10
16.385740958771539
20
-9.4522000000000403
10
16.452740958771535
20
-9.45160000000004
10
16.532440958771538
20
-9.4513000000000424
10
16.625240958771535
20
-9.4511000000000358
10
16.850740958771539
20
-9.4515000000000438
10
17.015540958771538
20
-9.4521000000000441
10
17.144540958771536
20
-9.4527000000000427
10
17.242540958771539
20
-9.4534000000000429
10
17.314540958771534
20
-9.4544000000000405
10
17.365440958771536
20
-9.4558000000000462
10
17.400240958771537
20
-9.4578000000000415
10
17.423940958771539
20
-9.460400000000039
10
17.457640958771535
20
-9.4683000000000384
10
17.489140958771536
20
-9.4779000000000391
10
17.518640958771535
20
-9.4884000000000412
10
17.546340958771538
20
-9.5000000000000426
10
17.572640958771537
20
-9.5130000000000372
10
17.597940958771538
20
-9.5274000000000392
10
17.622540958771538
20
-9.5436000000000387
10
17.646840958771538
20
-9.5617000000000409
10
17.695840958771537
20
-9.6046000000000387
10
17.719840958771538
20
-9.6291000000000437
10
17.742340958771535
20
-9.6547000000000374
10
17.763140958771537
20
-9.6814000000000355
10
17.782440958771538
20
-9.7091000000000385
10
17.800040958771536
20
-9.7377000000000358
10
17.815940958771538
20
-9.7672000000000416
10
17.830040958771537
20
-9.7975000000000421
10
17.852740958771534
20
-9.8604000000000411
10
17.856040958771537
20
-9.8757000000000428
10
17.858640958771538
20
-9.9034000000000368
10
17.860640958771537
20
-9.952700000000041
10
17.862240958771537
20
-10.032900000000037
10
17.863440958771534
20
-10.153400000000037
10
17.864340958771535
20
-10.32340000000004
10
17.865040958771537
20
-10.552300000000043
10
17.866240958771535
20
-11.223900000000043
10
17.867540958771535
20
-12.548800000000039
10
17.604840958771536
20
-12.552600000000043
10
17.552040958771535
20
-12.553500000000039
10
17.490940958771535
20
-12.55430000000004
10
17.423340958771533
20
-12.555000000000041
10
17.351040958771534
20
-12.555600000000041
10
17.275740958771536
20
-12.556100000000043
10
17.199440958771532
20
-12.556600000000042
10
17.123740958771531
20
-12.55690000000004
10
16.981840958771532
20
-12.557200000000041
10
16.621540958771533
20
-12.557200000000041
10
16.622840958771533
20
-12.158000000000042
10
16.624840958771536
20
-11.759400000000042
10
16.984440958771533
20
-11.757500000000043
10
17.344640958771535
20
-11.756200000000039
10
17.344640958771539
20
-10.251200000000038
10
16.285840958771537
20
-10.251200000000038
10
16.285840958771534
20
-12.557200000000041
10
16.135440958771532
20
-12.557200000000041
0
LWPOLYLINE
5
121
100
AcDbEntity
8
0
100
AcDbPolyline
90
12
70
1
43
0.0
10
17.867540958771535
20
-12.899500000000042
10
17.867540958771535
20
-13.739200000000039
10
17.112240958771533
20
-13.739200000000045
10
17.112240958771533
20
-15.173200000000048
10
17.867540958771531
20
-15.173200000000048
10
17.867540958771531
20
-16.000000000000046
10
15.762940958771527
20
-16.000000000000043
10
15.762940958771527
20
-15.173200000000048
10
16.621540958771529
20
-15.173200000000048
10
16.621540958771533
20
-13.739200000000045
10
15.762940958771532
20
-13.739200000000045
10
15.76294095877153
20
-12.899500000000046
0
LWPOLYLINE
5
122
100
AcDbEntity
8
0
100
AcDbPolyline
90
295
70
1
43
0.0
10
8.5585409587715162
20
-19.24340000000004
10
8.5049409587715132
20
-19.192300000000039
10
8.4675409587715151
20
-19.15670000000004
10
8.4483409587715137
20
-19.13820000000004
10
8.3971409587715158
20
-19.087900000000037
10
7.5228409587715142
20
-19.169800000000038
10
7.2158409587715155
20
-19.198300000000039
10
7.076240958771514
20
-19.211300000000037
10
6.9495409587715145
20
-19.223300000000037
10
6.8383409587715116
20
-19.233800000000034
10
6.7452409587715145
20
-19.242600000000039
10
6.6729409587715161
20
-19.24950000000004
10
6.6240409587715154
20
-19.25430000000004
10
6.6012409587715171
20
-19.256600000000038
10
6.5549409587715113
20
-19.262500000000035
10
6.5549409587715113
20
-19.58490000000004
10
6.3147409587715142
20
-19.58490000000004
10
6.209940958771516
20
-19.584400000000034
10
6.1702409587715135
20
-19.583800000000036
10
6.1380409587715157
20
-19.582900000000034
10
6.1128409587715149
20
-19.581600000000037
10
6.0939409587715154
20
-19.580100000000037
10
6.080840958771514
20
-19.578100000000038
10
6.0729409587715155
20
-19.575800000000037
10
6.0695409587715154
20
-19.573100000000036
10
6.0369409587715106
20
-19.599600000000038
10
5.9992409587715168
20
-19.634200000000035
10
5.949340958771514
20
-19.68120000000004
10
5.8886409587715116
20
-19.739100000000036
10
5.8185409587715142
20
-19.806700000000035
10
5.7404409587715133
20
-19.882500000000039
10
5.6559409587715148
20
-19.965100000000039
10
5.5664409587715147
20
-20.053300000000039
10
5.3890409587715116
20
-20.227400000000038
10
5.3076409587715156
20
-20.307300000000037
10
5.2330409587715154
20
-20.380300000000034
10
5.1668409587715125
20
-20.444900000000036
10
5.1107409587715091
20
-20.49960000000004
10
5.06614095877151
20
-20.542800000000039
10
5.0347409587715086
20
-20.573000000000036
10
5.0180409587715102
20
-20.588700000000038
10
4.9707409587715112
20
-20.631100000000036
10
4.8969409587715118
20
-20.628100000000039
10
4.8220409587715096
20
-20.625100000000035
10
5.4472409587715118
20
-20.010900000000035
10
6.0725409587715138
20
-19.396600000000035
10
6.0725409587715129
20
-19.306800000000038
10
5.9809409587715168
20
-19.31370000000004
10
5.9141409587715144
20
-19.318700000000035
10
5.8929409587715131
20
-19.321600000000036
10
5.8781409587715139
20
-19.32590000000004
10
5.8687409587715145
20
-19.332300000000036
10
5.8635409587715159
20
-19.341700000000035
10
5.8612409587715142
20
-19.354900000000036
10
5.8607409587715154
20
-19.372600000000038
10
5.860840958771516
20
-19.395600000000037
10
5.8600409587715108
20
-19.428600000000035
10
5.8588409587715162
20
-19.441700000000036
10
5.8570409587715133
20
-19.453100000000035
10
5.8543409587715134
20
-19.463400000000036
10
5.8506409587715114
20
-19.473100000000034
10
5.8458409587715154
20
-19.48270000000004
10
5.8397409587715154
20
-19.492900000000034
10
5.8322409587715152
20
-19.504000000000037
10
5.777840958771514
20
-19.556500000000039
10
5.7454409587715149
20
-19.57270000000004
10
5.7110409587715161
20
-19.58210000000004
10
5.6755409587715144
20
-19.584700000000037
10
5.6400409587715128
20
-19.58030000000004
10
5.6057409587715146
20
-19.568900000000035
10
5.5736409587715174
20
-19.550400000000039
10
5.5447409587715146
20
-19.524700000000035
10
5.5094409587715143
20
-19.471200000000035
10
5.4991409587715134
20
-19.442200000000035
10
5.4939409587715149
20
-19.412400000000041
10
5.4937409587715136
20
-19.382500000000036
10
5.4984409587715133
20
-19.352900000000037
10
5.5082409587715153
20
-19.324300000000036
10
5.5229409587715139
20
-19.297200000000036
10
5.5427409587715148
20
-19.272300000000037
10
5.5634409587715128
20
-19.250600000000038
10
5.5171409587715114
20
-19.19940000000004
10
5.4639409587715138
20
-19.125900000000037
10
5.4393409587715125
20
-19.081300000000034
10
5.4162409587715121
20
-19.031700000000036
10
5.394840958771514
20
-18.977600000000034
10
5.3751409587715138
20
-18.919100000000036
10
5.3574409587715133
20
-18.856500000000036
10
5.3417409587715126
20
-18.790100000000038
10
5.3281409587715167
20
-18.720200000000034
10
5.3114409587715139
20
-18.618600000000036
10
5.2454409587715123
20
-18.618600000000036
10
5.2454409587715087
20
-17.918500000000037
10
5.2690409587715115
20
-17.918500000000037
10
5.2809409587715139
20
-17.91740000000004
10
5.285240958771511
20
-17.915600000000037
10
5.2886409587715155
20
-17.912900000000036
10
5.2914409587715117
20
-17.908800000000035
10
5.2935409587715165
20
-17.903300000000041
10
5.2954409587715157
20
-17.896200000000036
10
5.2970409587715128
20
-17.887200000000036
10
5.2986409587715144
20
-17.87610000000004
10
5.3015409587715157
20
-17.854300000000034
10
5.303540958771511
20
-17.839100000000037
10
5.3059409587715134
20
-17.821600000000039
10
5.3085409587715171
20
-17.802300000000034
10
5.3113409587715132
20
-17.781700000000036
10
5.3143409587715107
20
-17.76020000000004
10
5.3172409587715119
20
-17.738300000000034
10
5.3202409587715138
20
-17.716400000000036
10
5.327040958771514
20
-17.661900000000035
10
5.3295409587715126
20
-17.633700000000037
10
5.331640958771513
20
-17.60480000000004
10
5.333140958771514
20
-17.575100000000035
10
5.3342409587715167
20
-17.544700000000034
10
5.3349409587715124
20
-17.51340000000004
10
5.3351409587715137
20
-17.481300000000036
10
5.3350409587715131
20
-17.448200000000039
10
5.3320409587715156
20
-17.297300000000035
10
5.4276409587715158
20
-17.297300000000035
10
5.4600409587715149
20
-17.238200000000035
10
5.4949409587715126
20
-17.184200000000036
10
5.5156409587715149
20
-17.157500000000034
10
5.5378409587715138
20
-17.131600000000034
10
5.5610409587715148
20
-17.107300000000034
10
5.5847409587715147
20
-17.08490000000004
10
5.6084409587715145
20
-17.065000000000037
10
5.6317409587715161
20
-17.048200000000037
10
5.6540409587715112
20
-17.035100000000035
10
5.7082409587715155
20
-17.006500000000035
10
5.7082409587715155
20
-16.863500000000037
10
5.8460409587715123
20
-16.863500000000037
10
5.8460409587715123
20
-16.947300000000034
10
5.8466409587715162
20
-16.979400000000034
10
5.8473409587715119
20
-16.992700000000035
10
5.8483409587715141
20
-17.00420000000004
10
5.8495409587715175
20
-17.013700000000039
10
5.851040958771514
20
-17.021200000000039
10
5.8527409587715162
20
-17.026700000000041
10
5.854740958771516
20
-17.030000000000037
10
5.856840958771512
20
-17.031100000000038
10
5.8713409587715137
20
-17.032100000000035
10
5.8856409587715142
20
-17.033200000000036
10
5.9040409587715148
20
-17.03480000000004
10
5.9259409587715162
20
-17.036700000000039
10
5.950840958771515
20
-17.038900000000041
10
5.9781409587715162
20
-17.041300000000035
10
6.0074409587715127
20
-17.044000000000036
10
6.0380409587715134
20
-17.046900000000036
10
6.0993409587715108
20
-17.051800000000036
10
6.1277409587715148
20
-17.053900000000034
10
6.1541409587715146
20
-17.055700000000037
10
6.1777409587715137
20
-17.057200000000037
10
6.1980409587715135
20
-17.058300000000038
10
6.214540958771515
20
-17.058900000000037
10
6.226740958771515
20
-17.059100000000036
10
6.2339409587715133
20
-17.058700000000041
10
6.2268409587715157
20
-17.039600000000036
10
6.2029409587715145
20
-17.012500000000035
10
6.1614409587715135
20
-16.969800000000035
10
6.0993409587715108
20
-16.908400000000036
10
6.0136409587715134
20
-16.825200000000034
10
5.9012409587715142
20
-16.717300000000037
10
5.7590409587715152
20
-16.581500000000034
10
5.5841409587715107
20
-16.414900000000038
10
5.3472409587715131
20
-16.189700000000038
10
5.2393409587715123
20
-16.087100000000035
10
5.1411409587715085
20
-15.993900000000036
10
5.0548409587715071
20
-15.912000000000038
10
4.9824409587715168
20
-15.843300000000035
10
4.9260409587715159
20
-15.789900000000037
10
4.8876409587715175
20
-15.753600000000034
10
4.8693409587715175
20
-15.736500000000039
10
4.8279409587715127
20
-15.699000000000037
10
4.9126409587715125
20
-15.702000000000037
10
4.9973409587715123
20
-15.704900000000034
10
5.7219409587715164
20
-16.393200000000036
10
6.4466409587715123
20
-17.081400000000034
10
7.3544409587715167
20
-17.160300000000035
10
8.2622409587715158
20
-17.238200000000035
10
8.2859409587715156
20
-17.215500000000038
10
8.3393409587715173
20
-17.163800000000037
10
8.3962409587715143
20
-17.108200000000036
10
8.4702409587715195
20
-17.035700000000034
10
8.5594409587715177
20
-16.948200000000035
10
8.6616409587715175
20
-16.847800000000035
10
8.7747409587715168
20
-16.736800000000038
10
8.8967409587715203
20
-16.617000000000036
10
9.025340958771519
20
-16.490800000000036
10
9.274240958771518
20
-16.246700000000036
10
9.3858409587715173
20
-16.137500000000035
10
9.486140958771518
20
-16.039500000000039
10
9.5730409587715197
20
-15.954700000000038
10
9.6444409587715203
20
-15.885400000000036
10
9.698340958771519
20
-15.833400000000037
10
9.732540958771521
20
-15.800800000000041
10
9.7450409587715203
20
-15.789700000000039
10
9.7491409587715232
20
-15.79250000000004
10
9.7524409587715226
20
-15.795600000000043
10
9.7566409587715235
20
-15.79990000000004
10
9.7614409587715212
20
-15.804900000000043
10
9.7668409587715193
20
-15.810800000000039
10
9.7727409587715197
20
-15.817200000000042
10
9.7789409587715213
20
-15.824000000000042
10
9.7854409587715185
20
-15.83110000000004
10
9.8208409587715213
20
-15.872600000000041
10
9.1228409587715191
20
-16.556800000000038
10
8.8807409587715185
20
-16.795600000000036
10
8.7727409587715179
20
-16.902800000000035
10
8.6760409587715195
20
-16.999100000000034
10
8.5927409587715182
20
-17.082600000000035
10
8.5246409587715171
20
-17.151200000000038
10
8.473940958771518
20
-17.203000000000035
10
8.4426409587715163
20
-17.23600000000004
10
8.4326409587715148
20
-17.248000000000037
10
8.4556409587715144
20
-17.252200000000034
10
8.4806409587715166
20
-17.255200000000034
10
8.513340958771515
20
-17.258800000000036
10
8.5528409587715171
20
-17.262800000000034
10
8.5982409587715161
20
-17.267200000000035
10
8.6485409587715179
20
-17.271800000000038
10
8.7029409587715136
20
-17.276700000000037
10
8.7604409587715164
20
-17.28160000000004
10
9.0804409587715167
20
-17.307200000000037
10
9.1070409587715151
20
-17.336800000000036
10
9.1225409587715163
20
-17.352400000000038
10
9.1300409587715166
20
-17.357600000000041
10
9.1388409587715138
20
-17.361300000000035
10
9.1500409587715161
20
-17.363800000000037
10
9.1644409587715163
20
-17.365300000000037
10
9.1832409587715151
20
-17.366000000000035
10
9.2074409587715156
20
-17.366300000000034
10
9.2380409587715135
20
-17.366400000000034
10
9.3413409587715162
20
-17.366400000000034
10
9.3413409587715162
20
-17.632600000000039
10
9.1247409587715147
20
-17.632600000000039
10
9.1247409587715147
20
-18.617600000000035
10
9.1671409587715154
20
-18.647200000000037
10
9.2051409587715156
20
-18.67650000000004
10
9.2223409587715146
20
-18.692700000000034
10
9.2384409587715162
20
-18.70990000000004
10
9.2535409587715183
20
-18.728300000000036
10
9.2677409587715172
20
-18.748000000000037
10
9.2811409587715161
20
-18.769100000000037
10
9.2938409587715149
20
-18.791600000000038
10
9.3059409587715169
20
-18.815800000000035
10
9.3213409587715148
20
-18.849800000000037
10
9.3265409587715133
20
-18.864300000000039
10
9.3304409587715149
20
-18.878600000000034
10
9.3331409587715175
20
-18.893600000000035
10
9.3349409587715151
20
-18.910600000000034
10
9.3359409587715181
20
-18.930500000000038
10
9.3363409587715154
20
-18.954400000000039
10
9.3364409587715169
20
-18.983400000000039
10
9.3359409587715181
20
-19.036700000000035
10
9.3348409587715171
20
-19.056700000000038
10
9.333040958771516
20
-19.073600000000038
10
9.3302409587715154
20
-19.088600000000039
10
9.326240958771514
20
-19.102800000000038
10
9.320840958771516
20
-19.117200000000039
10
9.3138409587715145
20
-19.132900000000035
10
9.3049409587715139
20
-19.151000000000039
10
9.2671409587715132
20
-19.214500000000037
10
9.2446409587715177
20
-19.24330000000004
10
9.2201409587715162
20
-19.270000000000035
10
9.1936409587715158
20
-19.294300000000035
10
9.1653409587715178
20
-19.316100000000034
10
9.1354409587715164
20
-19.335300000000039
10
9.1041409587715183
20
-19.351600000000037
10
9.0716409587715159
20
-19.365000000000038
10
9.0531409587715146
20
-19.370400000000036
10
9.0413409587715154
20
-19.37300000000004
10
9.0283409587715173
20
-19.375600000000034
10
9.0145409587715175
20
-19.378100000000039
10
9.0001409587715138
20
-19.380400000000041
10
8.9856409587715174
20
-19.38240000000004
10
8.9712409587715154
20
-19.384200000000039
10
8.9574409587715138
20
-19.385700000000039
10
8.8825409587715161
20
-19.392600000000041
10
9.3089409587715171
20
-19.796900000000036
10
9.459540958771516
20
-19.940100000000037
10
9.5286409587715166
20
-20.005800000000036
10
9.5918409587715132
20
-20.066000000000038
10
9.6950409587715143
20
-20.164400000000036
10
9.7323409587715162
20
-20.200200000000041
10
9.758340958771516
20
-20.225400000000043
10
9.7716409587715152
20
-20.238600000000044
10
9.8080409587715156
20
-20.275100000000037
10
9.7687409587715184
20
-20.315500000000043
10
9.7283409587715148
20
-20.355000000000043
10
9.113940958771515
20
-19.771300000000043
10
8.897040958771516
20
-19.56530000000004
10
8.797640958771515
20
-19.470800000000036
10
8.7068409587715152
20
-19.384500000000035
10
8.6264409587715143
20
-19.308100000000039
0
CIRCLE
5
123
100
AcDbEntity
8
0
100
AcDbCircle
10
-24.317259041228546
20
-32.090000000000018
30
0
40
0.80000000000000115
210
0
220
-0
230
1
0
CIRCLE
5
124
100
AcDbEntity
8
0
100
AcDbCircle
10
-24.317259041228535
20
-27.010000000000005
30
0
40
0.80000000000000115
210
0
220
-0
230
1
0
CIRCLE
5
125
100
AcDbEntity
8
0
100
AcDbCircle
10
-24.317259041228535
20
-21.93000000000001
30
0
40
0.80000000000000115
210
0
220
-0
230
1
0
CIRCLE
5
126
100
AcDbEntity
8
0
100
AcDbCircle
10
-24.317259041228528
20
-16.850000000000009
30
0
40
0.80000000000000115
210
0
220
-0
230
1
0
CIRCLE
5
127
100
AcDbEntity
8
0
100
AcDbCircle
10
-24.317259041228528
20
-11.770000000000005
30
0
40
0.80000000000000115
210
0
220
-0
230
1
0
CIRCLE
5
128
100
AcDbEntity
8
0
100
AcDbCircle
10
-24.317259041228517
20
-6.6900000000000048
30
0
40
0.80000000000000115
210
0
220
-0
230
1
0
CIRCLE
5
129
100
AcDbEntity
8
0
100
AcDbCircle
10
-24.317259041228517
20
-1.6100000000000048
30
0
40
0.80000000000000115
210
0
220
-0
230
1
0
CIRCLE
5
130
100
AcDbEntity
8
0
100
AcDbCircle
10
-24.31725904122851
20
3.4699999999999953
30
0
40
0.80000000000000115
210
0
220
-0
230
1
0
CIRCLE
5
131
100
AcDbEntity
8
0
100
AcDbCircle
10
-24.31725904122851
20
8.5499999999999954
30
0
40
0.80000000000000115
210
0
220
-0
230
1
0
CIRCLE
5
132
100
AcDbEntity
8
0
100
AcDbCircle
10
-24.3172590412285
20
13.629999999999995
30
0
40
0.80000000000000115
210
0
220
-0
230
1
0
CIRCLE
5
133
100
AcDbEntity
8
0
100
AcDbCircle
10
-26.857259041228513
20
11.09
30
0
40
0.80000000000000115
210
0
220
-0
230
1
0
CIRCLE
5
134
100
AcDbEntity
8
0
100
AcDbCircle
10
-26.857259041228513
20
6.0099999999999909
30
0
40
0.80000000000000115
210
0
220
-0
230
1
0
CIRCLE
5
135
100
AcDbEntity
8
0
100
AcDbCircle
10
-26.857259041228524
20
0.92999999999999083
30
0
40
0.80000000000000115
210
0
220
-0
230
1
0
CIRCLE
5
136
100
AcDbEntity
8
0
100
AcDbCircle
10
-26.857259041228524
20
-4.1500000000000004
30
0
40
0.80000000000000115
210
0
220
-0
230
1
0
CIRCLE
5
137
100
AcDbEntity
8
0
100
AcDbCircle
10
-26.857259041228531
20
-9.2299999999999969
30
0
40
0.80000000000000115
210
0
220
-0
230
1
0
CIRCLE
5
138
100
AcDbEntity
8
0
100
AcDbCircle
10
-26.857259041228531
20
-14.310000000000006
30
0
40
0.80000000000000115
210
0
220
-0
230
1
0
CIRCLE
5
139
100
AcDbEntity
8
0
100
AcDbCircle
10
-26.857259041228541
20
-19.390000000000004
30
0
40
0.80000000000000115
210
0
220
-0
230
1
0
CIRCLE
5
140
100
AcDbEntity
8
0
100
AcDbCircle
10
-26.857259041228541
20
-24.470000000000006
30
0
40
0.80000000000000115
210
0
220
-0
230
1
0
CIRCLE
5
141
100
AcDbEntity
8
0
100
AcDbCircle
10
-26.857259041228549
20
-29.550000000000011
30
0
40
0.80000000000000115
210
0
220
-0
230
1
0
CIRCLE
5
142
100
AcDbEntity
8
0
100
AcDbCircle
10
-26.857259041228549
20
-34.63000000000001
30
0
40
0.80000000000000115
210
0
220
-0
230
1
0
CIRCLE
5
143
100
AcDbEntity
8
0
100
AcDbCircle
10
-26.857259041228549
20
-32.090000000000011
30
0
40
0.80000000000000115
210
0
220
-0
230
1
0
CIRCLE
5
144
100
AcDbEntity
8
0
100
AcDbCircle
10
-26.857259041228541
20
-27.010000000000005
30
0
40
0.80000000000000115
210
0
220
-0
230
1
0
CIRCLE
5
145
100
AcDbEntity
8
0
100
AcDbCircle
10
-26.857259041228541
20
-21.930000000000007
30
0
40
0.80000000000000115
210
0
220
-0
230
1
0
CIRCLE
5
146
100
AcDbEntity
8
0
100
AcDbCircle
10
-26.857259041228531
20
-16.850000000000005
30
0
40
0.80000000000000115
210
0
220
-0
230
1
0
CIRCLE
5
147
100
AcDbEntity
8
0
100
AcDbCircle
10
-26.857259041228531
20
-11.77
30
0
40
0.80000000000000115
210
0
220
-0
230
1
0
CIRCLE
5
148
100
AcDbEntity
8
0
100
AcDbCircle
10
-26.857259041228524
20
-6.6900000000000004
30
0
40
0.80000000000000115
210
0
220
-0
230
1
0
CIRCLE
5
149
100
AcDbEntity
8
0
100
AcDbCircle
10
-26.857259041228524
20
-1.6100000000000048
30
0
40
0.80000000000000115
210
0
220
-0
230
1
0
CIRCLE
5
150
100
AcDbEntity
8
0
100
AcDbCircle
10
-26.857259041228513
20
3.4699999999999953
30
0
40
0.80000000000000115
210
0
220
-0
230
1
0
CIRCLE
5
151
100
AcDbEntity
8
0
100
AcDbCircle
10
-26.857259041228513
20
8.5499999999999954
30
0
40
0.80000000000000115
210
0
220
-0
230
1
0
CIRCLE
5
152
100
AcDbEntity
8
0
100
AcDbCircle
10
-26.857259041228506
20
13.629999999999995
30
0
40
0.80000000000000115
210
0
220
-0
230
1
0
CIRCLE
5
153
100
AcDbEntity
8
0
100
AcDbCircle
10
-24.31725904122851
20
11.09
30
0
40
0.80000000000000115
210
0
220
-0
230
1
0
CIRCLE
5
154
100
AcDbEntity
8
0
100
AcDbCircle
10
-24.31725904122851
20
6.0099999999999909
30
0
40
0.80000000000000115
210
0
220
-0
230
1
0
CIRCLE
5
155
100
AcDbEntity
8
0
100
AcDbCircle
10
-24.317259041228517
20
0.92999999999999083
30
0
40
0.80000000000000115
210
0
220
-0
230
1
0
CIRCLE
5
156
100
AcDbEntity
8
0
100
AcDbCircle
10
-24.317259041228517
20
-4.1500000000000048
30
0
40
0.80000000000000115
210
0
220
-0
230
1
0
CIRCLE
5
157
100
AcDbEntity
8
0
100
AcDbCircle
10
-24.317259041228528
20
-9.2300000000000004
30
0
40
0.80000000000000115
210
0
220
-0
230
1
0
CIRCLE
5
158
100
AcDbEntity
8
0
100
AcDbCircle
10
-24.317259041228528
20
-14.310000000000009
30
0
40
0.80000000000000115
210
0
220
-0
230
1
0
CIRCLE
5
159
100
AcDbEntity
8
0
100
AcDbCircle
10
-24.317259041228535
20
-19.390000000000008
30
0
40
0.80000000000000115
210
0
220
-0
230
1
0
CIRCLE
5
160
100
AcDbEntity
8
0
100
AcDbCircle
10
-24.317259041228535
20
-24.47000000000001
30
0
40
0.80000000000000115
210
0
220
-0
230
1
0
CIRCLE
5
161
100
AcDbEntity
8
0
100
AcDbCircle
10
-24.317259041228546
20
-29.550000000000011
30
0
40
0.80000000000000115
210
0
220
-0
230
1
0
LWPOLYLINE
5
162
100
AcDbEntity
8
0
100
AcDbPolyline
90
718
70
1
43
0.0
10
-7.4293590412285138
20
-29.191200000000027
10
-7.4277590412285122
20
-29.143200000000029
10
-7.4266590412285094
20
-29.104600000000023
10
-7.4231590412285176
20
-29.069600000000023
10
-7.4169590412285169
20
-29.037300000000023
10
-7.4079590412285157
20
-29.007300000000029
10
-7.3956590412285106
20
-28.978900000000031
10
-7.3799590412285188
20
-28.951400000000028
10
-7.3605590412285116
20
-28.924200000000027
10
-7.3095590412285105
20
-28.868100000000027
10
-7.2917590412285183
20
-28.850300000000026
10
-7.2772590412285121
20
-28.834600000000027
10
-7.2658590412285173
20
-28.820500000000028
10
-7.2571590412285136
20
-28.807200000000023
10
-7.2507590412285117
20
-28.793900000000029
10
-7.2464590412285101
20
-28.780100000000026
10
-7.2438590412285109
20
-28.764900000000022
10
-7.2420590412285168
20
-28.728000000000023
10
-7.2416590412285142
20
-28.708800000000025
10
-7.2399590412285164
20
-28.691400000000023
10
-7.2368590412285139
20
-28.675000000000026
10
-7.2319590412285129
20
-28.659000000000027
10
-7.2250590412285121
20
-28.642800000000026
10
-7.215859041228514
20
-28.62570000000003
10
-7.2039590412285159
20
-28.607100000000028
10
-7.1712590412285149
20
-28.562600000000028
10
-7.1223590412285143
20
-28.505600000000022
10
-7.0659590412285178
20
-28.449600000000025
10
-7.002859041228513
20
-28.395000000000028
10
-6.9334590412285158
20
-28.342100000000027
10
-6.8583590412285123
20
-28.291300000000025
10
-6.7781590412285109
20
-28.243100000000027
10
-6.6935590412285118
20
-28.197700000000022
10
-6.513059041228515
20
-28.117100000000029
10
-6.3965590412285156
20
-28.071500000000029
10
-6.5028590412285103
20
-28.032700000000027
10
-6.5758590412285134
20
-28.004800000000024
10
-6.64515904122851
20
-27.975200000000022
10
-6.7112590412285167
20
-27.943600000000025
10
-6.774259041228512
20
-27.909900000000025
10
-6.8346590412285124
20
-27.873900000000024
10
-6.8925590412285143
20
-27.835400000000021
10
-6.9483590412285157
20
-27.794300000000018
10
-7.0547590412285155
20
-27.703600000000023
10
-7.0976590412285123
20
-27.662700000000022
10
-7.1342590412285123
20
-27.625200000000021
10
-7.1648590412285085
20
-27.59060000000002
10
-7.1898590412285168
20
-27.558500000000024
10
-7.2095590412285171
20
-27.528400000000023
10
-7.2242590412285157
20
-27.499800000000025
10
-7.2343590412285153
20
-27.472200000000022
10
-7.2420590412285168
20
-27.41840000000002
10
-7.2425590412285112
20
-27.399500000000021
10
-7.243959041228516
20
-27.38300000000002
10
-7.2468590412285128
20
-27.368300000000019
10
-7.2513590412285112
20
-27.354700000000022
10
-7.2578590412285138
20
-27.341600000000021
10
-7.266559041228513
20
-27.328300000000027
10
-7.2779590412285122
20
-27.314400000000024
10
-7.3095590412285105
20
-27.281600000000022
10
-7.3372590412285144
20
-27.253100000000025
10
-7.3605590412285116
20
-27.225500000000022
10
-7.3799590412285188
20
-27.198300000000025
10
-7.3956590412285106
20
-27.170700000000025
10
-7.4079590412285157
20
-27.142100000000021
10
-7.4169590412285169
20
-27.111900000000023
10
-7.4231590412285176
20
-27.079400000000025
10
-7.4277590412285122
20
-27.004900000000021
10
-7.4281590412285103
20
-26.980100000000022
10
-7.4293590412285138
20
-26.957300000000025
10
-7.4315590412285104
20
-26.936100000000025
10
-7.4347590412285092
20
-26.916100000000025
10
-7.4391590412285158
20
-26.896800000000024
10
-7.4447590412285169
20
-26.877900000000025
10
-7.4516590412285177
20
-26.858900000000023
10
-7.4699590412285133
20
-26.81920000000002
10
-7.4811590412285156
20
-26.797400000000025
10
-7.4901590412285168
20
-26.777400000000021
10
-7.4972590412285101
20
-26.75830000000002
10
-7.5025590412285137
20
-26.739300000000021
10
-7.5061590412285151
20
-26.719500000000021
10
-7.5084590412285124
20
-26.697800000000026
10
-7.50945904122851
20
-26.673500000000026
10
-7.5087590412285143
20
-26.613300000000024
10
-7.5085590412285175
20
-26.582300000000025
10
-7.5090590412285119
20
-26.554200000000026
10
-7.5104590412285166
20
-26.528300000000023
10
-7.5129590412285108
20
-26.50380000000002
10
-7.5166590412285128
20
-26.480300000000021
10
-7.52165904122851
20
-26.457100000000018
10
-7.5280590412285164
20
-26.43340000000002
10
-7.5458590412285087
20
-26.382100000000023
10
-7.5846590412285142
20
-26.275800000000022
10
-7.547559041228511
20
-26.186300000000028
10
-7.5379590412285102
20
-26.161500000000025
10
-7.5303590412285137
20
-26.140300000000025
10
-7.5248590412285177
20
-26.122000000000021
10
-7.5212590412285119
20
-26.105400000000021
10
-7.5195590412285096
20
-26.089800000000022
10
-7.5196590412285147
20
-26.074100000000023
10
-7.52165904122851
20
-26.057400000000026
10
-7.5306590412285113
20
-26.017600000000023
10
-7.5381590412285115
20
-25.981400000000022
10
-7.5425590412285137
20
-25.944200000000023
10
-7.5440590412285147
20
-25.906700000000026
10
-7.5425590412285137
20
-25.869700000000027
10
-7.5383590412285084
20
-25.833800000000021
10
-7.5314590412285165
20
-25.799900000000026
10
-7.5218590412285158
20
-25.768700000000024
10
-7.4952590412285103
20
-25.717200000000023
10
-7.4869590412285136
20
-25.705100000000026
10
-7.4801590412285046
20
-25.693700000000025
10
-7.4747590412285136
20
-25.682600000000026
10
-7.470659041228509
20
-25.671700000000026
10
-7.4678590412285084
20
-25.660900000000026
10
-7.4662590412285068
20
-25.649900000000024
10
-7.4658590412285086
20
-25.638600000000025
10
-7.468259041228511
20
-25.614200000000025
10
-7.4708590412285103
20
-25.589500000000026
10
-7.4708590412285103
20
-25.56300000000002
10
-7.4684590412285079
20
-25.535600000000017
10
-7.4639590412285095
20
-25.508000000000024
10
-7.4573590412285107
20
-25.481000000000023
10
-7.4488590412285127
20
-25.455400000000026
10
-7.4387590412285087
20
-25.432000000000023
10
-7.4142590412285081
20
-25.394800000000025
10
-7.4063590412285096
20
-25.384700000000024
10
-7.3994590412285044
20
-25.373200000000026
10
-7.3935590412285102
20
-25.359900000000025
10
-7.3884590412285123
20
-25.344400000000029
10
-7.3840590412285056
20
-25.326400000000024
10
-7.3803590412285125
20
-25.30540000000002
10
-7.3771590412285137
20
-25.28110000000002
10
-7.372059041228507
20
-25.221000000000025
10
-7.3685590412285107
20
-25.176500000000026
10
-7.3634590412285128
20
-25.136200000000024
10
-7.356559041228512
20
-25.09950000000002
10
-7.3477590412285076
20
-25.065900000000028
10
-7.3367590412285066
20
-25.034900000000025
10
-7.3234590412285039
20
-25.006100000000025
10
-7.3075590412285107
20
-24.978900000000024
10
-7.2674590412285101
20
-24.927300000000024
10
-7.258859041228507
20
-24.91720000000003
10
-7.2513590412285067
20
-24.906100000000023
10
-7.2446590412285117
20
-24.893800000000024
10
-7.2388590412285092
20
-24.880200000000023
10
-7.2337590412285113
20
-24.865300000000026
10
-7.2294590412285098
20
-24.848900000000029
10
-7.2257590412285078
20
-24.831100000000028
10
-7.2201590412285066
20
-24.790600000000026
10
-7.21525904122851
20
-24.752400000000023
10
-7.2084590412285099
20
-24.717600000000026
10
-7.19965904122851
20
-24.685900000000025
10
-7.1888590412285058
20
-24.657400000000024
10
-7.1758590412285095
20
-24.63180000000002
10
-7.1607590412285127
20
-24.609000000000027
10
-7.1434590412285059
20
-24.588800000000024
10
-7.1020590412285101
20
-24.556000000000026
10
-7.0802590412285094
20
-24.54480000000002
10
-7.0559590412285056
20
-24.535800000000023
10
-7.0295590412285103
20
-24.529200000000024
10
-7.0016590412285096
20
-24.525000000000023
10
-6.9726590412285061
20
-24.523100000000024
10
-6.9432590412285089
20
-24.523800000000023
10
-6.9138590412285073
20
-24.526900000000026
10
-6.8572590412285139
20
-24.540800000000026
10
-6.8429590412285046
20
-24.545200000000026
10
-6.8298590412285121
20
-24.548100000000023
10
-6.817559041228507
20
-24.549500000000023
10
-6.805359041228507
20
-24.549400000000023
10
-6.7926590412285082
20
-24.547500000000024
10
-6.7789590412285072
20
-24.544000000000025
10
-6.7635590412285085
20
-24.538600000000024
10
-6.7256590412285044
20
-24.52230000000003
10
-6.6948590412285069
20
-24.509000000000029
10
-6.6642590412285063
20
-24.499700000000026
10
-6.6337590412285108
20
-24.494200000000021
10
-6.6034590412285077
20
-24.492700000000024
10
-6.5732590412285052
20
-24.495100000000022
10
-6.5430590412285117
20
-24.501400000000029
10
-6.5128590412285137
20
-24.511700000000026
10
-6.4522590412285119
20
-24.544200000000025
10
-6.4368590412285132
20
-24.55390000000002
10
-6.4230590412285071
20
-24.561700000000023
10
-6.410459041228509
20
-24.567700000000023
10
-6.3990590412285053
20
-24.571900000000024
10
-6.3883590412285063
20
-24.574400000000026
10
-6.3781590412285105
20
-24.575300000000023
10
-6.3681590412285116
20
-24.574800000000021
10
-6.3476590412285061
20
-24.569500000000026
10
-6.325059041228509
20
-24.563500000000026
10
-6.3003590412285071
20
-24.560900000000025
10
-6.2737590412285105
20
-24.561800000000027
10
-6.2456590412285085
20
-24.566000000000024
10
-6.2164590412285081
20
-24.573400000000024
10
-6.1863590412285108
20
-24.584000000000028
10
-6.1557590412285101
20
-24.597700000000028
10
-6.0944590412285082
20
-24.633700000000026
10
-6.0749590412285048
20
-24.646700000000031
10
-6.0566590412285093
20
-24.657900000000026
10
-6.0393590412285114
20
-24.667300000000026
10
-6.0229590412285061
20
-24.675000000000029
10
-6.007059041228513
20
-24.681000000000029
10
-5.9914590412285129
20
-24.685500000000026
10
-5.9759590412285091
20
-24.688700000000029
10
-5.9442590412285101
20
-24.691000000000024
10
-5.9144590412285059
20
-24.692000000000029
10
-5.8868590412285071
20
-24.695100000000025
10
-5.8607590412285093
20
-24.700400000000023
10
-5.8359590412285067
20
-24.708100000000034
10
-5.8118590412285132
20
-24.718500000000027
10
-5.7881590412285044
20
-24.731800000000028
10
-5.7643590412285128
20
-24.748100000000029
10
-5.7147590412285076
20
-24.790600000000026
10
-5.6983590412285112
20
-24.80580000000003
10
-5.6828590412285074
20
-24.819000000000024
10
-5.6678590412285068
20
-24.83010000000003
10
-5.6531590412285082
20
-24.839500000000029
10
-5.6383590412285089
20
-24.847200000000029
10
-5.6232590412285122
20
-24.853500000000032
10
-5.6074590412285108
20
-24.858400000000028
10
-5.5729590412285113
20
-24.864900000000027
10
-5.5452590412285074
20
-24.870100000000029
10
-5.5174590412285074
20
-24.879100000000026
10
-5.4895590412285067
20
-24.891600000000032
10
-5.4617590412285066
20
-24.90780000000003
10
-5.4340590412285117
20
-24.927500000000023
10
-5.4065590412285092
20
-24.95060000000003
10
-5.3794590412285093
20
-24.977200000000028
10
-5.3265590412285091
20
-25.04040000000003
10
-5.3148590412285124
20
-25.055200000000024
10
-5.3022590412285142
20
-25.069300000000023
10
-5.2887590412285101
20
-25.082600000000028
10
-5.2742590412285084
20
-25.095200000000023
10
-5.258759041228509
20
-25.107000000000028
10
-5.2423590412285082
20
-25.118000000000027
10
-5.2247590412285128
20
-25.128300000000028
10
-5.1864590412285105
20
-25.146700000000028
10
-5.1547590412285116
20
-25.161800000000024
10
-5.1256590412285119
20
-25.178800000000024
10
-5.0992590412285077
20
-25.198100000000029
10
-5.0753590412285066
20
-25.219800000000024
10
-5.0538590412285078
20
-25.244000000000032
10
-5.0345590412285057
20
-25.270900000000029
10
-5.0174590412285092
20
-25.300600000000028
10
-4.9890590412285096
20
-25.369500000000023
10
-4.9818590412285113
20
-25.388300000000029
10
-4.9746590412285085
20
-25.404500000000027
10
-4.9671590412285083
20
-25.418400000000027
10
-4.9589590412285078
20
-25.43040000000002
10
-4.9496590412285091
20
-25.440800000000024
10
-4.9388590412285094
20
-25.450000000000031
10
-4.9263590412285074
20
-25.458400000000026
10
-4.8945590412285123
20
-25.474100000000028
10
-4.8697590412285097
20
-25.48720000000003
10
-4.8461590412285105
20
-25.503800000000027
10
-4.8238590412285065
20
-25.523700000000026
10
-4.8030590412285123
20
-25.546600000000026
10
-4.7839590412285071
20
-25.572400000000023
10
-4.7666590412285093
20
-25.600600000000028
10
-4.7513590412285112
20
-25.631300000000028
10
-4.7274590412285056
20
-25.698600000000027
10
-4.7240590412285055
20
-25.711800000000025
10
-4.7207590412285061
20
-25.724100000000028
10
-4.7175590412285029
20
-25.73540000000002
10
-4.7145590412285054
20
-25.745500000000025
10
-4.7117590412285049
20
-25.754200000000029
10
-4.7091590412285056
20
-25.761400000000027
10
-4.7069590412285045
20
-25.766700000000029
10
-4.703859041228502
20
-25.771200000000029
10
-4.7011590412285109
20
-25.768900000000023
10
-4.6957590412285022
20
-25.762400000000024
10
-4.6877590412285031
20
-25.752100000000024
10
-4.6775590412285029
20
-25.738300000000027
10
-4.6654590412285035
20
-25.721500000000027
10
-4.6518590412285032
20
-25.701900000000023
10
-4.6368590412285071
20
-25.680100000000028
10
-4.6042590412285023
20
-25.631100000000032
10
-4.5408590412285044
20
-25.540900000000025
10
-4.476259041228503
20
-25.45810000000003
10
-4.4100590412285046
20
-25.382200000000029
10
-4.3415590412285043
20
-25.312700000000024
10
-4.2703590412285042
20
-25.24930000000003
10
-4.1959590412285053
20
-25.191400000000034
10
-4.117659041228503
20
-25.138700000000028
10
-3.9477590412285042
20
-25.047100000000025
10
-3.8780590412285054
20
-25.017000000000028
10
-3.804559041228508
20
-24.989800000000024
10
-3.7280590412285042
20
-24.965700000000027
10
-3.6492590412285075
20
-24.944800000000033
10
-3.5691590412285024
20
-24.927200000000028
10
-3.4884590412285021
20
-24.913100000000028
10
-3.4079590412285032
20
-24.902700000000031
10
-3.2507590412285037
20
-24.893600000000028
10
-3.2076590412285055
20
-24.891800000000028
10
-3.167959041228503
20
-24.88640000000003
10
-3.1311590412285062
20
-24.876900000000035
10
-3.0966590412285022
20
-24.863200000000028
10
-3.0638590412285049
20
-24.844700000000032
10
-3.032159041228506
20
-24.821300000000029
10
-3.0011590412285072
20
-24.792600000000032
10
-2.938459041228505
20
-24.718000000000025
10
-2.8800590412285043
20
-24.647500000000026
10
-2.809659041228505
20
-24.577300000000033
10
-2.7290590412285054
20
-24.508800000000029
10
-2.6404590412285067
20
-24.44310000000003
10
-2.5457590412285036
20
-24.381600000000031
10
-2.4469590412285043
20
-24.325400000000027
10
-2.3459590412285043
20
-24.275800000000029
10
-2.145259041228504
20
-24.201600000000028
10
-1.9857590412285029
20
-24.165700000000033
10
-1.8270590412285024
20
-24.146600000000028
10
-1.6697590412285022
20
-24.144400000000029
10
-1.5140590412285035
20
-24.159000000000027
10
-1.3606590412285022
20
-24.190200000000029
10
-1.2099590412284964
20
-24.238000000000035
10
-1.0622590412285013
20
-24.302300000000031
10
-0.77825904122849709
20
-24.480100000000032
10
-0.75665904122849792
20
-24.49610000000003
10
-0.73555904122849736
20
-24.510500000000029
10
-0.7147590412285032
20
-24.523300000000031
10
-0.69415904122850147
20
-24.534600000000033
10
-0.67325904122849778
20
-24.544600000000031
10
-0.65215904122850166
20
-24.553300000000032
10
-0.63035904122850095
20
-24.560900000000032
10
-0.58415904122850015
20
-24.572900000000036
10
-0.56245904122850021
20
-24.577500000000036
10
-0.53525904122849965
20
-24.584300000000034
10
-0.50325904122849874
20
-24.593000000000032
10
-0.46755904122850017
20
-24.603300000000033
10
-0.42885904122849977
20
-24.61500000000003
10
-0.38825904122850025
20
-24.627700000000029
10
-0.34655904122849795
20
-24.641100000000034
10
-0.26345904122849978
20
-24.669100000000036
10
-0.22215904122850014
20
-24.683300000000031
10
-0.17855904122849869
20
-24.697600000000037
10
-0.13375904122850274
20
-24.711700000000036
10
-0.088959041228497904
20
-24.725300000000033
10
-0.045159041228499619
20
-24.738000000000035
10
-0.0033590412285011261
20
-24.749700000000033
10
0.035340958771499273
20
-24.760100000000037
10
0.099340958771496693
20
-24.775400000000033
10
0.21524095877149665
20
-24.803800000000031
10
0.324740958771499
20
-24.837400000000031
10
0.42874095877149643
20
-24.876700000000028
10
0.52764095877150041
20
-24.921900000000036
10
0.62234095877149909
20
-24.973600000000037
10
0.71344095877150071
20
-25.032000000000032
10
0.80154095877150056
20
-25.097500000000036
10
0.97184095877150167
20
-25.251400000000032
10
1.0190409587714999
20
-25.300400000000032
10
1.0629409587715033
20
-25.349000000000036
10
1.1039409587714966
20
-25.397400000000033
10
1.1422409587715032
20
-25.446300000000036
10
1.1782409587714993
20
-25.495900000000034
10
1.2122409587715
20
-25.546900000000036
10
1.2447409587714997
20
-25.599600000000034
10
1.3060409587715016
20
-25.712100000000035
10
1.3219409587714992
20
-25.742200000000036
10
1.3411409587715006
20
-25.77660000000003
10
1.3629409587714925
20
-25.814500000000034
10
1.3869409587714943
20
-25.854700000000037
10
1.4123409587714963
20
-25.896300000000032
10
1.4386409587714954
20
-25.93820000000003
10
1.4653409587714972
20
-25.979600000000037
10
1.5170409587714939
20
-26.056400000000032
10
1.562840958771492
20
-26.124700000000036
10
1.6088409587714958
20
-26.197200000000038
10
1.6542409587714957
20
-26.272500000000036
10
1.6982409587714953
20
-26.349300000000039
10
1.7401409587714944
20
-26.426200000000037
10
1.7791409587714924
20
-26.501800000000031
10
1.8145409587714978
20
-26.574900000000031
10
1.8714409587714975
20
-26.707800000000034
10
1.8802409587714974
20
-26.728700000000032
10
1.8908409587714958
20
-26.750400000000031
10
1.9029409587714952
20
-26.772800000000032
10
1.9164409587714948
20
-26.795400000000033
10
1.9308409587715003
20
-26.818100000000037
10
1.9461409587714984
20
-26.840300000000031
10
1.9620409587715004
20
-26.862000000000034
10
1.9946409587715008
20
-26.901900000000033
10
2.0998409587715017
20
-27.025400000000033
10
2.1907409587714977
20
-27.148100000000035
10
2.2679409587715016
20
-27.271200000000036
10
2.3318409587714983
20
-27.395800000000033
10
2.3829409587715
20
-27.523100000000031
10
2.4216409587715004
20
-27.654400000000035
10
2.448540958771499
20
-27.790700000000037
10
2.4688409587714983
20
-28.083300000000037
10
2.4673409587715023
20
-28.172100000000032
10
2.4627409587714988
20
-28.254800000000039
10
2.454640958771499
20
-28.332700000000031
10
2.4429409587715023
20
-28.407100000000032
10
2.4271409587714965
20
-28.479300000000034
10
2.4071409587714987
20
-28.550600000000035
10
2.3825409587714974
20
-28.622300000000035
10
2.3186409587715002
20
-28.771900000000031
10
2.2915409587714963
20
-28.827800000000032
10
2.2646409587715022
20
-28.879300000000036
10
2.2372409587715003
20
-28.92770000000003
10
2.2085409587714988
20
-28.974200000000032
10
2.1775409587715
20
-29.020100000000035
10
2.1435409587714993
20
-29.066700000000033
10
2.1056409587714997
20
-29.115100000000034
10
2.0148409587714995
20
-29.222500000000032
10
1.9939409587715007
20
-29.247500000000034
10
1.9738409587714978
20
-29.272700000000036
10
1.9548409587715021
20
-29.298100000000034
10
1.937040958771501
20
-29.323400000000031
10
1.9205409587714994
20
-29.348500000000037
10
1.9056409587714995
20
-29.373000000000033
10
1.8923409587714968
20
-29.396900000000031
10
1.8714409587714975
20
-29.441900000000032
10
1.8386409587714958
20
-29.521400000000032
10
1.8032409587714948
20
-29.600400000000032
10
1.7647409587714957
20
-29.679400000000037
10
1.7230409587714979
20
-29.759100000000032
10
1.6775409587714973
20
-29.839800000000032
10
1.6281409587714932
20
-29.922200000000032
10
1.5744409587714967
20
-30.006700000000031
10
1.452840958771495
20
-30.184500000000032
10
1.432840958771493
20
-30.212300000000031
10
1.4135409587714953
20
-30.240100000000034
10
1.395340958771496
20
-30.267300000000034
10
1.3784409587714919
20
-30.29340000000003
10
1.3632409587714989
20
-30.317700000000034
10
1.3501409587714974
20
-30.339600000000033
10
1.3393409587714977
20
-30.358600000000031
10
1.3263409587714925
20
-30.385300000000033
10
1.3043409587714949
20
-30.440100000000033
10
1.2750409587714984
20
-30.499100000000038
10
1.2391409587714939
20
-30.561200000000031
10
1.1972409587714947
20
-30.625500000000034
10
1.1503409587714939
20
-30.690800000000031
10
1.0990409587714953
20
-30.756200000000035
10
1.0440409587714903
20
-30.820600000000034
10
0.92634095877149192
20
-30.942200000000032
10
0.85124095877149297
20
-31.009000000000032
10
0.77354095877149021
20
-31.07090000000003
10
0.69354095877149013
20
-31.127600000000029
10
0.61154095877149028
20
-31.179100000000034
10
0.52764095877149131
20
-31.225100000000033
10
0.4423409587714876
20
-31.265400000000028
10
0.3558409587714938
20
-31.299900000000029
10
0.18034095877149409
20
-31.350700000000028
10
0.15384095877148948
20
-31.357100000000031
10
0.12014095877149072
20
-31.365900000000032
10
0.080340958771491985
20
-31.376800000000035
10
0.035640958771492245
20
-31.38950000000003
10
-0.012859041228510185
20
-31.403700000000029
10
-0.063959041228511898
20
-31.419000000000032
10
-0.11645904122850945
20
-31.43520000000003
10
-0.22135904122850841
20
-31.46880000000003
10
-0.27295904122850884
20
-31.485200000000031
10
-0.32475904122851068
20
-31.501500000000032
10
-0.37565904122850663
20
-31.517200000000038
10
-0.42455904122850724
20
-31.532200000000032
10
-0.47035904122850974
20
-31.546000000000028
10
-0.51195904122851144
20
-31.558200000000028
10
-0.54835904122850565
20
-31.568500000000029
10
-0.60105904122850895
20
-31.581900000000029
10
-0.62525904122850751
20
-31.588500000000028
10
-0.64855904122850916
20
-31.596000000000032
10
-0.67135904122850754
20
-31.604800000000033
10
-0.6940590412285097
20
-31.614900000000034
10
-0.71695904122850873
20
-31.626500000000028
10
-0.74055904122851235
20
-31.640000000000033
10
-0.7651590412285092
20
-31.655500000000032
10
-0.81875904122850962
20
-31.693300000000029
10
-0.90935904122850808
20
-31.75710000000003
10
-1.0023590412285091
20
-31.813500000000026
10
-1.0976590412285117
20
-31.862500000000033
10
-1.1952590412285116
20
-31.904000000000032
10
-1.2950590412285081
20
-31.938000000000031
10
-1.3971590412285064
20
-31.964500000000029
10
-1.5014590412285103
20
-31.983500000000031
10
-1.7165590412285161
20
-31.998700000000028
10
-1.8283590412285113
20
-31.995300000000032
10
-1.9365590412285139
20
-31.985000000000028
10
-2.0418590412285109
20
-31.967700000000029
10
-2.1447590412285145
20
-31.943100000000033
10
-2.2457590412285144
20
-31.911200000000033
10
-2.3454590412285103
20
-31.871700000000033
10
-2.4442590412285137
20
-31.824600000000029
10
-2.6414590412285133
20
-31.70680000000003
10
-2.6805590412285119
20
-31.678400000000032
10
-2.7234590412285131
20
-31.643800000000031
10
-2.7684590412285148
20
-31.604900000000029
10
-2.8136590412285134
20
-31.56340000000003
10
-2.8572590412285148
20
-31.521000000000029
10
-2.897659041228513
20
-31.479500000000034
10
-2.9328590412285127
20
-31.440600000000032
10
-2.980659041228515
20
-31.377700000000033
10
-2.9968590412285145
20
-31.355300000000028
10
-3.0168590412285123
20
-31.334400000000031
10
-3.040159041228514
20
-31.315400000000029
10
-3.0663590412285124
20
-31.298500000000029
10
-3.0946590412285158
20
-31.284000000000027
10
-3.1248590412285138
20
-31.27230000000003
10
-3.1561590412285145
20
-31.263500000000029
10
-3.2203590412285132
20
-31.256200000000032
10
-3.2704590412285128
20
-31.254900000000028
10
-3.3263590412285149
20
-31.251200000000029
10
-3.386559041228514
20
-31.245300000000032
10
-3.4493590412285169
20
-31.237500000000029
10
-3.5132590412285136
20
-31.22800000000003
10
-3.5767590412285122
20
-31.216900000000031
10
-3.6381590412285103
20
-31.204500000000031
10
-3.7485590412285141
20
-31.176800000000032
10
-3.8660590412285156
20
-31.137600000000031
10
-3.9779590412285115
20
-31.089500000000022
10
-4.0845590412285127
20
-31.032300000000028
10
-4.1860590412285159
20
-30.965600000000023
10
-4.2828590412285106
20
-30.889400000000027
10
-4.3751590412285157
20
-30.803300000000029
10
-4.4632590412285156
20
-30.707100000000025
10
-4.6278590412285148
20
-30.483200000000025
10
-4.7054590412285124
20
-30.360000000000028
10
-4.7257590412285078
20
-30.441000000000031
10
-4.7364590412285112
20
-30.478000000000026
10
-4.7492590412285063
20
-30.512400000000028
10
-4.7641590412285106
20
-30.544100000000025
10
-4.781159041228511
20
-30.573000000000029
10
-4.7999590412285142
20
-30.599000000000029
10
-4.8206590412285122
20
-30.622000000000028
10
-4.8430590412285124
20
-30.642000000000028
10
-4.89285904122851
20
-30.672200000000029
10
-4.9096590412285135
20
-30.680100000000028
10
-4.9241590412285152
20
-30.688000000000027
10
-4.9366590412285127
20
-30.696300000000033
10
-4.9473590412285162
20
-30.705100000000023
10
-4.9565590412285188
20
-30.714700000000029
10
-4.9643590412285166
20
-30.725200000000026
10
-4.9710590412285205
20
-30.737000000000023
10
-4.9822590412285184
20
-30.765000000000029
10
-4.9861590412285173
20
-30.776900000000026
10
-4.990859041228517
20
-30.789800000000028
10
-4.9962590412285168
20
-30.803500000000028
10
-5.0021590412285155
20
-30.817500000000027
10
-5.0084590412285168
20
-30.83150000000003
10
-5.0150590412285201
20
-30.845300000000027
10
-5.0216590412285189
20
-30.858400000000024
10
-5.0345590412285146
20
-30.881500000000027
10
-5.0488590412285195
20
-30.900900000000028
10
-5.0683590412285184
20
-30.921400000000023
10
-5.0916590412285156
20
-30.942100000000025
10
-5.1175590412285166
20
-30.962100000000028
10
-5.1446590412285209
20
-30.980500000000028
10
-5.1716590412285202
20
-30.996400000000026
10
-5.1971590412285229
20
-31.008800000000029
10
-5.2388590412285208
20
-31.019900000000025
10
-5.2438590412285135
20
-31.020800000000026
10
-5.2500590412285142
20
-31.023400000000024
10
-5.256959041228515
20
-31.027600000000028
10
-5.2644590412285153
20
-31.033100000000026
10
-5.2723590412285182
20
-31.039800000000032
10
-5.2803590412285173
20
-31.047600000000024
10
-5.2882590412285202
20
-31.056300000000029
10
-5.3029590412285144
20
-31.07560000000003
10
-5.3344590412285164
20
-31.118500000000033
10
-5.3669590412285162
20
-31.157100000000032
10
-5.4002590412285212
20
-31.191100000000027
10
-5.4340590412285206
20
-31.220500000000023
10
-5.4680590412285168
20
-31.245000000000026
10
-5.5020590412285175
20
-31.264300000000031
10
-5.5358590412285169
20
-31.278400000000026
10
-5.6016590412285217
20
-31.289900000000024
10
-5.6124590412285169
20
-31.290600000000026
10
-5.6233590412285173
20
-31.292700000000025
10
-5.6344590412285145
20
-31.296200000000027
10
-5.6457590412285219
20
-31.301200000000023
10
-5.6572590412285173
20
-31.307700000000025
10
-5.6690590412285191
20
-31.315700000000028
10
-5.681159041228514
20
-31.325200000000027
10
-5.7062590412285186
20
-31.349000000000032
10
-5.7305590412285223
20
-31.372300000000024
10
-5.7551590412285192
20
-31.392800000000026
10
-5.780059041228518
20
-31.410400000000031
10
-5.8055590412285163
20
-31.425300000000028
10
-5.8317590412285192
20
-31.437400000000029
10
-5.8586590412285178
20
-31.446700000000028
10
-5.8866590412285147
20
-31.45340000000003
10
-5.9459590412285168
20
-31.458700000000025
10
-5.9629590412285216
20
-31.459200000000031
10
-5.979359041228518
20
-31.461000000000034
10
-5.99525904122852
20
-31.463900000000031
10
-6.0109590412285163
20
-31.468100000000025
10
-6.0265590412285208
20
-31.47360000000003
10
-6.0423590412285177
20
-31.480400000000024
10
-6.0584590412285211
20
-31.488600000000027
10
-6.0927590412285149
20
-31.509300000000025
10
-6.1235590412285168
20
-31.528700000000029
10
-6.1537590412285148
20
-31.545400000000026
10
-6.1832590412285127
20
-31.559200000000025
10
-6.2120590412285193
20
-31.570100000000028
10
-6.2398590412285193
20
-31.578100000000031
10
-6.2666590412285172
20
-31.58320000000003
10
-6.2922590412285162
20
-31.585200000000029
10
-6.339159041228517
20
-31.580200000000026
10
-6.3523590412285147
20
-31.577000000000023
10
-6.365059041228518
20
-31.575400000000027
10
-6.3777590412285212
20
-31.575400000000027
10
-6.3909590412285189
20
-31.577200000000026
10
-6.405059041228518
20
-31.580700000000025
10
-6.4204590412285167
20
-31.586100000000027
10
-6.4376590412285184
20
-31.593400000000024
10
-6.47925904122852
20
-31.613900000000026
10
-6.5130590412285194
20
-31.630600000000022
10
-6.5429590412285199
20
-31.643300000000025
10
-6.5700590412285154
20
-31.652300000000025
10
-6.5950590412285193
20
-31.657300000000028
10
-6.6189590412285204
20
-31.658600000000025
10
-6.6427590412285209
20
-31.656100000000027
10
-6.6673590412285177
20
-31.649700000000024
10
-6.7222590412285177
20
-31.625800000000023
10
-6.7405590412285177
20
-31.616700000000026
10
-6.756659041228521
20
-31.609600000000025
10
-6.7710590412285176
20
-31.604500000000026
10
-6.7845590412285173
20
-31.601200000000027
10
-6.7979590412285207
20
-31.599700000000027
10
-6.8119590412285147
20
-31.599800000000027
10
-6.8271590412285166
20
-31.601400000000023
10
-6.8640590412285185
20
-31.608900000000027
10
-6.9324590412285181
20
-31.621800000000029
10
-6.9935590412285187
20
-31.624600000000026
10
-7.0475590412285127
20
-31.617300000000025
10
-7.0942590412285167
20
-31.599700000000027
10
-7.1337590412285179
20
-31.572000000000028
10
-7.1660590412285208
20
-31.534100000000027
10
-7.1912590412285171
20
-31.486000000000026
10
-7.2201590412285155
20
-31.359100000000026
10
-7.2231590412285174
20
-31.336700000000025
10
-7.2267590412285143
20
-31.316400000000026
10
-7.2309590412285196
20
-31.298100000000026
10
-7.2358590412285206
20
-31.281300000000027
10
-7.2417590412285149
20
-31.265900000000023
10
-7.2487590412285163
20
-31.251300000000025
10
-7.2569590412285168
20
-31.237500000000026
10
-7.2775590412285185
20
-31.210600000000028
10
-7.2965590412285186
20
-31.185300000000026
10
-7.3139590412285171
20
-31.156000000000024
10
-7.3296590412285223
20
-31.123100000000026
10
-7.3433590412285232
20
-31.087400000000024
10
-7.3550590412285199
20
-31.049300000000027
10
-7.3644590412285194
20
-31.009400000000028
10
-7.3713590412285201
20
-30.968400000000024
10
-7.3771590412285226
20
-30.88490000000003
10
-7.3774590412285157
20
-30.861700000000027
10
-7.3784590412285223
20
-30.841700000000024
10
-7.3801590412285201
20
-30.824400000000026
10
-7.3827590412285149
20
-30.809400000000025
10
-7.3860590412285188
20
-30.796600000000023
10
-7.3903590412285203
20
-30.785600000000024
10
-7.3955590412285188
20
-30.776000000000025
10
-7.4091590412285191
20
-30.760000000000023
10
-7.4218590412285179
20
-30.744900000000023
10
-7.4336590412285197
20
-30.724100000000021
10
-7.4443590412285188
20
-30.69880000000002
10
-7.4535590412285213
20
-30.670500000000025
10
-7.4609590412285121
20
-30.640300000000025
10
-7.4663590412285163
20
-30.609600000000022
10
-7.4692590412285131
20
-30.579600000000021
10
-7.4665590412285132
20
-30.527100000000026
10
-7.4653590412285187
20
-30.516900000000028
10
-7.4652590412285136
20
-30.506700000000023
10
-7.4662590412285113
20
-30.49640000000003
10
-7.4683590412285161
20
-30.486000000000026
10
-7.4717590412285162
20
-30.475300000000026
10
-7.4764590412285159
20
-30.464300000000026
10
-7.4824590412285152
20
-30.453000000000024
10
-7.4986590412285148
20
-30.429200000000026
10
-7.5104590412285166
20
-30.409800000000025
10
-7.5200590412285129
20
-30.387200000000028
10
-7.5274590412285125
20
-30.360600000000023
10
-7.5328590412285124
20
-30.329200000000025
10
-7.5360590412285111
20
-30.292300000000022
10
-7.5372590412285145
20
-30.24920000000003
10
-7.5364590412285093
20
-30.199000000000026
10
-7.528959041228509
20
-30.074800000000025
10
-7.528359041228514
20
-30.063200000000027
10
-7.5286590412285159
20
-30.050100000000022
10
-7.5298590412285105
20
-30.036000000000023
10
-7.5317590412285096
20
-30.021000000000022
10
-7.534459041228514
20
-30.005700000000026
10
-7.5377590412285134
20
-29.990400000000022
10
-7.5416590412285123
20
-29.975400000000025
10
-7.5509590412285155
20
-29.948200000000025
10
-7.5597590412285109
20
-29.924000000000021
10
-7.5658590412285154
20
-29.900600000000026
10
-7.5691590412285148
20
-29.877300000000023
10
-7.5697590412285143
20
-29.853500000000025
10
-7.5673590412285119
20
-29.828600000000023
10
-7.561959041228512
20
-29.801900000000021
10
-7.5535590412285103
20
-29.772900000000028
10
-7.5273590412285163
20
-29.705200000000026
10
-7.5196590412285147
20
-29.686600000000027
10
-7.5133590412285134
20
-29.668900000000026
10
-7.5084590412285124
20
-29.651400000000031
10
-7.5049590412285161
20
-29.633600000000023
10
-7.502759041228515
20
-29.61490000000002
10
-7.5016590412285122
20
-29.594700000000024
10
-7.5018590412285135
20
-29.572400000000023
10
-7.5053590412285143
20
-29.519500000000022
10
-7.5077590412285122
20
-29.489500000000028
10
-7.5089590412285157
20
-29.463900000000027
10
-7.5089590412285157
20
-29.441900000000025
10
-7.5075590412285109
20
-29.422300000000021
10
-7.5044590412285128
20
-29.404300000000024
10
-7.4994590412285111
20
-29.386800000000029
10
-7.4925590412285104
20
-29.368700000000025
10
-7.4716590412285111
20
-29.327100000000023
10
-7.461259041228514
20
-29.307000000000031
10
-7.4524590412285141
20
-29.287900000000025
10
-7.4452590412285113
20
-29.269300000000026
10
-7.4394590412285178
20
-29.250800000000019
10
-7.4349590412285149
20
-29.232000000000021
10
-7.4316590412285155
20
-29.212200000000024
0
LWPOLYLINE
5
163
100
AcDbEntity
8
0
100
AcDbPolyline
90
78
70
1
43
0.0
10
6.6814409587715273
20
-6.0666000000000331
10
6.5155409587715241
20
-5.9203000000000294
10
6.3671409587715289
20
-5.75770000000003
10
6.237540958771528
20
-5.5804000000000276
10
6.1278409587715288
20
-5.3900000000000325
10
6.0393409587715263
20
-5.1882000000000339
10
5.9307409587715298
20
-4.7568000000000321
10
5.9255409587715269
20
-4.712200000000033
10
5.9212409587715298
20
-4.6623000000000347
10
5.9178409587715253
20
-4.6091000000000282
10
5.9154409587715273
20
-4.5548000000000322
10
5.9139409587715264
20
-4.5014000000000287
10
5.9136409587715288
20
-4.4510000000000316
10
5.9144409587715252
20
-4.4057000000000368
10
5.9194409587715269
20
-4.3386000000000324
10
5.9273409587715298
20
-4.2971000000000315
10
6.5251409587715301
20
-4.2971000000000323
10
6.5217409587715292
20
-4.4634000000000329
10
6.5216409587715241
20
-4.5447000000000326
10
6.5251409587715292
20
-4.6222000000000296
10
6.5325409587715288
20
-4.6964000000000272
10
6.5438409587715274
20
-4.7683000000000364
10
6.5593409587715268
20
-4.8385000000000344
10
6.5790409587715271
20
-4.9077000000000304
10
6.6032409587715257
20
-4.9768000000000301
10
6.6655409587715297
20
-5.1175000000000326
10
6.7629409587715283
20
-5.2832000000000345
10
6.8778409587715261
20
-5.4311000000000309
10
7.0087409587715266
20
-5.5603000000000291
10
7.1540409587715237
20
-5.6699000000000321
10
7.3120409587715258
20
-5.758900000000029
10
7.4811409587715261
20
-5.8265000000000366
10
7.6596409587715257
20
-5.8716000000000346
10
8.0385409587715273
20
-5.8908000000000316
10
8.2146409587715254
20
-5.8652000000000326
10
8.3847409587715287
20
-5.8162000000000358
10
8.5470409587715288
20
-5.74550000000003
10
8.6993409587715256
20
-5.6547000000000303
10
8.839740958771527
20
-5.5454000000000336
10
8.9660409587715293
20
-5.4191000000000322
10
9.076440958771526
20
-5.2775000000000372
10
9.2408409587715248
20
-4.9546000000000312
10
9.2586409587715259
20
-4.9033000000000326
10
9.2733409587715308
20
-4.8562000000000349
10
9.2851409587715281
20
-4.8115000000000352
10
9.2944409587715278
20
-4.7675000000000312
10
9.3013409587715294
20
-4.7225000000000295
10
9.3062409587715305
20
-4.6747000000000316
10
9.3094409587715283
20
-4.6223000000000347
10
9.3116409587715303
20
-4.4971000000000361
10
9.3116409587715303
20
-4.2971000000000315
10
9.9127409587715292
20
-4.2971000000000323
10
9.9127409587715309
20
-4.5072000000000356
10
9.9125409587715314
20
-4.5464000000000349
10
9.911940958771531
20
-4.5856000000000341
10
9.9110409587715331
20
-4.6239000000000363
10
9.9098409587715324
20
-4.6606000000000369
10
9.9083409587715305
20
-4.6948000000000389
10
9.906540958771533
20
-4.7259000000000384
10
9.9046409587715338
20
-4.7529000000000332
10
9.9003409587715314
20
-4.7916000000000381
10
9.860440958771532
20
-4.9821000000000382
10
9.8026409587715317
20
-5.1670000000000371
10
9.7277409587715304
20
-5.3450000000000353
10
9.6366409587715296
20
-5.5149000000000337
10
9.5300409587715311
20
-5.675300000000032
10
9.4090409587715307
20
-5.8252000000000326
10
9.2741409587715253
20
-5.9632000000000307
10
8.9666409587715243
20
-6.1988000000000287
10
8.7693409587715276
20
-6.3065000000000326
10
8.5637409587715254
20
-6.3904000000000316
10
8.3517409587715274
20
-6.4504000000000339
10
8.1355409587715286
20
-6.4865000000000306
10
7.9171409587715269
20
-6.4985000000000337
10
7.6984409587715259
20
-6.4863000000000337
10
7.4815409587715243
20
-6.4497000000000337
10
7.0610409587715246
20
-6.3033000000000339
10
6.8637409587715243
20
-6.1948000000000336
0
LWPOLYLINE
5
164
100
AcDbEntity
8
0
100
AcDbPolyline
90
98
70
1
43
0.0
10
6.5217409587715336
20
-1.0578000000000287
10
6.5209409587715328
20
-1.0966000000000342
10
6.5206409587715308
20
-1.1321000000000314
10
6.5210409587715334
20
-1.1649000000000331
10
6.5219409587715305
20
-1.1952000000000318
10
6.5235409587715276
20
-1.2235000000000351
10
6.5258409587715249
20
-1.250200000000028
10
6.5286409587715255
20
-1.2756000000000256
10
6.5363409587715271
20
-1.3242000000000331
10
6.5682409587715274
20
-1.4605000000000334
10
6.6118409587715288
20
-1.5911000000000275
10
6.66694095877153
20
-1.715400000000038
10
6.7331409587715285
20
-1.8331000000000319
10
6.8101409587715267
20
-1.943600000000032
10
6.8974409587715257
20
-2.0465000000000355
10
6.9948409587715288
20
-2.1412000000000297
10
7.2183409587715275
20
-2.3043000000000284
10
7.2528409587715288
20
-2.3234000000000332
10
7.2927409587715282
20
-2.3435000000000272
10
7.3363409587715296
20
-2.3639000000000365
10
7.3818409587715301
20
-2.383700000000033
10
7.4273409587715307
20
-2.4023000000000305
10
7.4711409587715272
20
-2.4189000000000327
10
7.5112409587715279
20
-2.4328000000000305
10
7.5734409587715268
20
-2.4493000000000364
10
7.6206409587715251
20
-2.4572000000000305
10
7.620640958771526
20
-1.2961000000000309
10
8.2161409587715308
20
-1.2961000000000316
10
8.2161409587715326
20
-1.8749000000000304
10
8.2157409587715335
20
-2.0706000000000291
10
8.2156409587715338
20
-2.2182000000000368
10
8.2172409587715318
20
-2.3240000000000283
10
8.2218409587715335
20
-2.3941000000000301
10
8.2310409587715299
20
-2.4347000000000296
10
8.2460409587715304
20
-2.452100000000037
10
8.268440958771528
20
-2.4524000000000257
10
8.3408409587715298
20
-2.4268000000000356
10
8.4766409587715312
20
-2.3742000000000374
10
8.6057409587715323
20
-2.3083000000000364
10
8.7269409587715323
20
-2.2299000000000291
10
8.8396409587715308
20
-2.140100000000027
10
8.9426409587715323
20
-2.0397000000000354
10
9.0352409587715314
20
-1.9294000000000366
10
9.1163409587715343
20
-1.8103000000000335
10
9.2408409587715301
20
-1.5490000000000315
10
9.2586409587715313
20
-1.4977000000000373
10
9.2733409587715343
20
-1.4506000000000352
10
9.2851409587715317
20
-1.405900000000031
10
9.2944409587715313
20
-1.361900000000027
10
9.3013409587715312
20
-1.3169000000000253
10
9.3062409587715322
20
-1.2691000000000319
10
9.3094409587715319
20
-1.2168000000000312
10
9.3116409587715321
20
-1.0916000000000281
10
9.3116409587715321
20
-0.89150000000003615
10
9.9127409587715327
20
-0.89150000000003671
10
9.9127409587715327
20
-1.1017000000000365
10
9.9125409587715332
20
-1.1409000000000358
10
9.9119409587715328
20
-1.1800000000000299
10
9.9110409587715349
20
-1.2184000000000328
10
9.9098409587715341
20
-1.2550000000000328
10
9.9083409587715323
20
-1.289300000000031
10
9.9065409587715347
20
-1.3203000000000387
10
9.9046409587715356
20
-1.347300000000029
10
9.9003409587715332
20
-1.3860000000000383
10
9.8604409587715338
20
-1.5766000000000346
10
9.8026409587715353
20
-1.7614000000000374
10
9.7277409587715358
20
-1.9394000000000311
10
9.6366409587715331
20
-2.1093000000000295
10
9.5300409587715347
20
-2.2698000000000285
10
9.4090409587715342
20
-2.4196000000000328
10
9.2741409587715289
20
-2.5577000000000272
10
8.9666409587715261
20
-2.793200000000029
10
8.7693409587715294
20
-2.9009000000000285
10
8.563740958771529
20
-2.9848000000000319
10
8.3517409587715292
20
-3.0449000000000304
10
8.1355409587715304
20
-3.0809000000000308
10
7.9171409587715296
20
-3.092900000000034
10
7.6984409587715286
20
-3.080700000000034
10
7.4815409587715269
20
-3.0442000000000302
10
7.0610409587715273
20
-2.8977000000000337
10
6.863740958771527
20
-2.7892000000000294
10
6.6814409587715273
20
-2.6610000000000333
10
6.5155409587715241
20
-2.5148000000000348
10
6.3671409587715289
20
-2.3522000000000349
10
6.237540958771528
20
-2.1748000000000278
10
6.1278409587715288
20
-1.9844000000000328
10
6.0393409587715263
20
-1.7826000000000342
10
5.9307409587715298
20
-1.3512000000000324
10
5.9255409587715269
20
-1.3066000000000333
10
5.9212409587715298
20
-1.2567000000000306
10
5.9178409587715253
20
-1.2036000000000335
10
5.9154409587715273
20
-1.1493000000000286
10
5.9139409587715308
20
-1.0959000000000341
10
5.9136409587715333
20
-1.0455000000000325
10
5.9144409587715296
20
-1.0002000000000333
10
5.9194409587715313
20
-0.93310000000003335
10
5.9273409587715342
20
-0.89150000000003615
10
6.5251409587715345
20
-0.89150000000003671
0
LWPOLYLINE
5
165
100
AcDbEntity
8
0
100
AcDbPolyline
90
2442
70
1
43
0.0
10
1.7290409587715505
20
36.760799999999989
10
1.7310409587715547
20
36.771499999999989
10
1.7327409587715525
20
36.782999999999994
10
1.7343409587715541
20
36.794999999999987
10
1.7355409587715531
20
36.807099999999991
10
1.7364409587715501
20
36.819099999999992
10
1.7372409587715554
20
36.841399999999986
10
1.7369409587715534
20
36.879299999999986
10
1.7367409587715565
20
36.911899999999989
10
1.7369409587715534
20
36.940399999999983
10
1.7373409587715516
20
36.965899999999998
10
1.7380409587715517
20
36.989499999999992
10
1.7390409587715538
20
37.012399999999992
10
1.7404409587715541
20
37.035699999999991
10
1.744340958771553
20
37.087899999999991
10
1.7459409587715546
20
37.105599999999974
10
1.7481409587715513
20
37.124799999999979
10
1.7506409587715543
20
37.144799999999982
10
1.7535409587715556
20
37.165299999999988
10
1.7566409587715537
20
37.185699999999983
10
1.7600409587715538
20
37.205499999999972
10
1.7636409587715507
20
37.224299999999971
10
1.771140958771551
20
37.256899999999987
10
1.7775409587715529
20
37.284099999999967
10
1.7836409587715529
20
37.316099999999977
10
1.789440958771551
20
37.352699999999984
10
1.7949409587715559
20
37.39379999999997
10
1.8000409587715538
20
37.439299999999989
10
1.8049409587715504
20
37.489199999999983
10
1.8094409587715532
20
37.543299999999974
10
1.8176409587715536
20
37.663899999999977
10
1.818740958771552
20
37.682699999999976
10
1.8203409587715536
20
37.699699999999993
10
1.8222409587715527
20
37.714899999999986
10
1.8245409587715544
20
37.728199999999973
10
1.8272409587715543
20
37.739499999999992
10
1.8303409587715525
20
37.748999999999967
10
1.8337409587715525
20
37.756399999999971
10
1.8415409587715503
20
37.765199999999979
10
1.8452409587715524
20
37.768299999999968
10
1.8486409587715524
20
37.772799999999975
10
1.851740958771555
20
37.778499999999973
10
1.8545409587715556
20
37.785299999999978
10
1.8570409587715497
20
37.792899999999975
10
1.8591409587715546
20
37.801199999999966
10
1.8607409587715518
20
37.810099999999984
10
1.8627409587715515
20
37.82859999999998
10
1.8633409587715555
20
37.83899999999997
10
1.8644409587715538
20
37.850099999999983
10
1.8658409587715541
20
37.861699999999985
10
1.8675409587715519
20
37.873599999999982
10
1.8695409587715561
20
37.885399999999976
10
1.8717409587715528
20
37.896899999999988
10
1.8742409587715558
20
37.907899999999977
10
1.8796409587715512
20
37.927199999999971
10
1.8840409587715534
20
37.941999999999965
10
1.886840958771554
20
37.955499999999986
10
1.8881409587715536
20
37.96759999999999
10
1.888040958771553
20
37.977999999999966
10
1.8863409587715552
20
37.986799999999974
10
1.8832409587715526
20
37.993899999999968
10
1.8787409587715542
20
37.998999999999974
10
1.8655409587715521
20
38.003199999999993
10
1.8528409587715533
20
38.00569999999999
10
1.8337409587715525
20
38.012299999999968
10
1.8101409587715533
20
38.022199999999984
10
1.7837409587715536
20
38.03449999999998
10
1.7563409587715517
20
38.048299999999969
10
1.7297409587715551
20
38.062699999999978
10
1.7056409587715526
20
38.076799999999977
10
1.6724409587715527
20
38.100399999999972
10
1.666840958771556
20
38.105899999999977
10
1.6613409587715511
20
38.110999999999976
10
1.6560409587715563
20
38.115599999999986
10
1.6511409587715509
20
38.119699999999966
10
1.6466409587715525
20
38.123199999999983
10
1.6428409587715542
20
38.12609999999998
10
1.6396409587715555
20
38.128199999999985
10
1.6358409587715528
20
38.129999999999967
10
1.6337409587715523
20
38.126799999999989
10
1.6311409587715531
20
38.117099999999979
10
1.6281409587715512
20
38.100399999999972
10
1.6245409587715542
20
38.076299999999975
10
1.620440958771554
20
38.044399999999982
10
1.6157409587715543
20
38.004199999999969
10
1.6104409587715551
20
37.95529999999998
10
1.5977409587715519
20
37.829999999999977
10
1.5955409587715552
20
37.807499999999976
10
1.5928409587715509
20
37.785299999999978
10
1.5897409587715527
20
37.763899999999992
10
1.586240958771552
20
37.743599999999979
10
1.5824409587715538
20
37.724999999999973
10
1.5785409587715549
20
37.708399999999983
10
1.5745409587715509
20
37.694299999999984
10
1.5667409587715531
20
37.675099999999979
10
1.5629409587715548
20
37.668899999999965
10
1.5589409587715553
20
37.661699999999968
10
1.5549409587715513
20
37.653599999999976
10
1.5510409587715523
20
37.644999999999982
10
1.5472409587715541
20
37.636099999999985
10
1.5437409587715534
20
37.627099999999984
10
1.5406409587715553
20
37.618299999999977
10
1.5357409587715543
20
37.601899999999979
10
1.5333409587715519
20
37.593099999999993
10
1.5300409587715524
20
37.582799999999992
10
1.5259409587715522
20
37.571299999999965
10
1.5212409587715525
20
37.558999999999969
10
1.5159409587715533
20
37.546099999999981
10
1.5102409587715515
20
37.532899999999984
10
1.5043409587715528
20
37.519799999999975
10
1.4920409587715522
20
37.49489999999998
10
1.4863409587715504
20
37.482199999999978
10
1.4805409587715523
20
37.468799999999973
10
1.474840958771555
20
37.454999999999984
10
1.4693409587715545
20
37.441199999999967
10
1.4641409587715559
20
37.42759999999997
10
1.4594409587715562
20
37.41449999999999
10
1.4554409587715522
20
37.402399999999986
10
1.4497409587715504
20
37.382199999999983
10
1.4474409587715531
20
37.372699999999966
10
1.4445409587715519
20
37.362199999999973
10
1.4409409587715505
20
37.351099999999988
10
1.4368409587715547
20
37.339499999999987
10
1.4323409587715519
20
37.327699999999965
10
1.4276409587715522
20
37.316199999999981
10
1.4227409587715556
20
37.304999999999993
10
1.4131409587715504
20
37.284999999999968
10
1.4081409587715532
20
37.275799999999975
10
1.4034409587715535
20
37.265999999999977
10
1.3992409587715526
20
37.255999999999986
10
1.395540958771555
20
37.245999999999967
10
1.3924409587715525
20
37.236099999999972
10
1.3898409587715532
20
37.226699999999973
10
1.3879409587715541
20
37.217899999999986
10
1.3863409587715525
20
37.20329999999997
10
1.385740958771553
20
37.195899999999966
10
1.3842409587715521
20
37.186999999999983
10
1.3817409587715535
20
37.176799999999979
10
1.3784409587715496
20
37.165599999999976
10
1.3744409587715545
20
37.153599999999969
10
1.3698409587715554
20
37.141199999999976
10
1.3648409587715538
20
37.128499999999974
10
1.3539409587715534
20
37.103399999999965
10
1.3305409587715511
20
37.05719999999998
10
1.3101409587715551
20
37.015499999999975
10
1.2926409587715515
20
36.978099999999976
10
1.2779409587715529
20
36.944799999999987
10
1.2660409587715549
20
36.915699999999987
10
1.256940958771553
20
36.890599999999992
10
1.2505409587715555
20
36.869499999999988
10
1.2454409587715531
20
36.838599999999985
10
1.2449409587715543
20
36.831299999999985
10
1.2436409587715547
20
36.823499999999989
10
1.2416409587715549
20
36.815499999999986
10
1.2388409587715543
20
36.807399999999994
10
1.2356409587715556
20
36.799399999999991
10
1.2318409587715529
20
36.791799999999981
10
1.2277409587715526
20
36.784599999999983
10
1.2186409587715552
20
36.77239999999999
10
1.2129409587715534
20
36.765699999999981
10
1.2062409587715539
20
36.756899999999987
10
1.1988409587715543
20
36.74649999999999
10
1.1908409587715507
20
36.734699999999989
10
1.1825409587715541
20
36.721799999999988
10
1.1740409587715517
20
36.708099999999988
10
1.1656409587715544
20
36.693999999999988
10
1.149540958771551
20
36.665399999999991
10
1.1422409587715565
20
36.650899999999986
10
1.1343409587715536
20
36.635999999999981
10
1.1261409587715532
20
36.620899999999992
10
1.1179409587715528
20
36.606099999999984
10
1.109840958771553
20
36.591799999999992
10
1.1020409587715507
20
36.578399999999995
10
1.0949409587715531
20
36.566199999999981
10
1.0833409587715526
20
36.547099999999986
10
1.0783409587715553
20
36.539099999999991
10
1.0739409587715532
20
36.530499999999996
10
1.0699409587715536
20
36.521299999999989
10
1.0665409587715535
20
36.51189999999999
10
1.0636409587715523
20
36.50239999999998
10
1.0615409587715563
20
36.492999999999981
10
1.0600409587715554
20
36.484099999999984
10
1.0593409587715508
20
36.468199999999982
10
1.0599409587715547
20
36.461099999999995
10
1.0596409587715527
20
36.45389999999999
10
1.0587409587715557
20
36.446699999999993
10
1.0570409587715535
20
36.439699999999988
10
1.0548409587715524
20
36.433099999999989
10
1.0520409587715518
20
36.426799999999986
10
1.048840958771553
20
36.421099999999981
10
1.0410409587715508
20
36.411899999999989
10
1.0365409587715524
20
36.407799999999988
10
1.031740958771552
20
36.402399999999986
10
1.0266409587715541
20
36.395899999999983
10
1.0213409587715505
20
36.388299999999987
10
1.0160409587715558
20
36.379999999999981
10
1.0108409587715528
20
36.371099999999991
10
1.0059409587715518
20
36.361799999999988
10
0.99734095877155315
20
36.342899999999993
10
0.99324095877155294
20
36.33329999999998
10
0.98854095877155324
20
36.323299999999989
10
0.98334095877155026
20
36.313399999999987
10
0.97784095877155419
20
36.303499999999993
10
0.97214095877155238
20
36.293999999999983
10
0.96624095877155369
20
36.285099999999986
10
0.96044095877155122
20
36.276999999999987
10
0.94944095877155466
20
36.263999999999982
10
0.9446409587715543
20
36.258299999999998
10
0.93974095877155328
20
36.251499999999979
10
0.93494095877155292
20
36.243899999999982
10
0.93024095877155322
20
36.23569999999998
10
0.92574095877155482
20
36.227099999999979
10
0.92164095877155461
20
36.218399999999988
10
0.91804095877155323
20
36.209799999999987
10
0.91284095877155469
20
36.193599999999996
10
0.91054095877155294
20
36.185399999999987
10
0.90774095877155236
20
36.176999999999992
10
0.90434095877155229
20
36.168599999999984
10
0.90044095877155339
20
36.160199999999989
10
0.89624095877155252
20
36.15209999999999
10
0.89174095877155413
20
36.144499999999979
10
0.88704095877155442
20
36.137499999999989
10
0.87754095877155436
20
36.125999999999998
10
0.87254095877155269
20
36.121199999999988
10
0.86794095877155364
20
36.116099999999989
10
0.86374095877155277
20
36.110999999999997
10
0.86004095877155073
20
36.10599999999998
10
0.85684095877155197
20
36.100999999999985
10
0.85424095877155271
20
36.096399999999988
10
0.85234095877155358
20
36.092099999999988
10
0.85084095877155264
20
36.085199999999986
10
0.8503409587715538
20
36.081499999999991
10
0.84904095877155417
20
36.07729999999998
10
0.84694095877155373
20
36.072499999999998
10
0.84424095877155381
20
36.067399999999992
10
0.84094095877155439
20
36.061999999999983
10
0.83724095877155236
20
36.056499999999986
10
0.83304095877155593
20
36.050899999999984
10
0.8240409587715547
20
36.040099999999981
10
0.81864095877155041
20
36.033999999999999
10
0.81304095877155369
20
36.026999999999987
10
0.80724095877155566
20
36.01939999999999
10
0.80134095877155254
20
36.011299999999991
10
0.79564095877155072
20
36.002999999999986
10
0.790040958771554
20
35.994599999999998
10
0.78494095877155168
20
35.986399999999989
10
0.77614095877155176
20
35.9711
10
0.77104095877155387
20
35.962699999999984
10
0.76374095877155046
20
35.951699999999988
10
0.75444095877155171
20
35.938599999999987
10
0.74344095877155514
20
35.923899999999989
10
0.73094095877155318
20
35.90779999999998
10
0.71744095877155356
20
35.890899999999988
10
0.70304095877155248
20
35.87339999999999
10
0.67324095877155266
20
35.838699999999989
10
0.64694095877155355
20
35.809099999999987
10
0.6238409587715531
20
35.783499999999997
10
0.60274095877155254
20
35.760699999999986
10
0.58244095877155277
20
35.739399999999996
10
0.56184095877155549
20
35.718599999999981
10
0.53984095877155347
20
35.696999999999989
10
0.51514095877155153
20
35.673599999999979
10
0.45334095877155522
20
35.616199999999992
10
0.44264095877155629
20
35.605699999999985
10
0.43224095877155477
20
35.594799999999999
10
0.42234095877155209
20
35.583999999999989
10
0.4132409587715502
20
35.573299999999996
10
0.40494095877155356
20
35.563099999999991
10
0.39794095877155211
20
35.553599999999996
10
0.39224095877155474
20
35.544999999999987
10
0.38574095877155212
20
35.531699999999987
10
0.38334095877155416
20
35.526199999999989
10
0.37994095877154965
20
35.52089999999999
10
0.37554095877155635
20
35.515899999999988
10
0.37034095877155337
20
35.511299999999999
10
0.36424095877155338
20
35.50709999999998
10
0.35734095877155259
20
35.503299999999982
10
0.34964095877155543
20
35.499999999999986
10
0.33214095877155181
20
35.495099999999979
10
0.32374095877155451
20
35.493199999999987
10
0.31464095877155263
20
35.490599999999986
10
0.30504095877155191
20
35.487199999999987
10
0.29514095877155366
20
35.483299999999993
10
0.28534095877155163
20
35.478999999999985
10
0.2756409587715547
20
35.474299999999985
10
0.26654095877155282
20
35.469499999999982
10
0.25044095877155387
20
35.45989999999999
10
0.22024095877155586
20
35.440299999999986
10
0.18814095877155429
20
35.422899999999984
10
0.15454095877155621
20
35.40779999999998
10
0.11994095877155157
20
35.395199999999988
10
0.084740958771551911
20
35.38509999999998
10
0.049340958771555365
20
35.37769999999999
10
0.014140958771555693
20
35.37299999999999
10
-0.053959041228446386
20
35.372599999999991
10
-0.10515904122844873
20
35.38069999999999
10
-0.1494590412284458
20
35.396699999999981
10
-0.18695904122844723
20
35.42049999999999
10
-0.21785904122844979
20
35.452199999999998
10
-0.24185904122844715
20
35.49169999999998
10
-0.25925904122844562
20
35.53919999999998
10
-0.26985904122844845
20
35.594499999999982
10
-0.27105904122844737
20
35.728899999999982
10
-0.26715904122844852
20
35.77239999999999
10
-0.2620590412284462
20
35.812699999999992
10
-0.2559590412284462
20
35.849499999999992
10
-0.24885904122844857
20
35.88239999999999
10
-0.24085904122844945
20
35.91119999999998
10
-0.23205904122844509
20
35.935399999999987
10
-0.22265904122844568
20
35.954899999999981
10
-0.20195904122844774
20
35.978099999999984
10
-0.19065904122844921
20
35.986299999999993
10
-0.17935904122844623
20
35.998199999999983
10
-0.16845904122844588
20
36.012999999999991
10
-0.15845904122844698
20
36.029899999999984
10
-0.14965904122844706
20
36.048099999999998
10
-0.1424590412284443
20
36.066699999999983
10
-0.13725904122844576
20
36.084999999999987
10
-0.13435904122844897
20
36.1175
10
-0.13445904122844521
20
36.124299999999991
10
-0.13385904122845016
20
36.131099999999989
10
-0.13275904122844739
20
36.137999999999991
10
-0.13095904122844892
20
36.144899999999993
10
-0.12875904122844781
20
36.151399999999981
10
-0.12605904122844344
20
36.157599999999988
10
-0.12305904122844602
20
36.163299999999992
10
-0.116059041228449
20
36.172499999999985
10
-0.11185904122844814
20
36.175999999999988
10
-0.10805904122844989
20
36.179799999999986
10
-0.10455904122844473
20
36.183799999999991
10
-0.10135904122844597
20
36.187999999999995
10
-0.098659041228446043
20
36.192199999999985
10
-0.096459041228444953
20
36.196399999999983
10
-0.094859041228447794
20
36.200399999999988
10
-0.093459041228447504
20
36.207699999999996
10
-0.092659041228446704
20
36.211199999999991
10
-0.090359041228444958
20
36.21599999999998
10
-0.08665904122844735
20
36.221899999999991
10
-0.081759041228446336
20
36.228699999999989
10
-0.075759041228446997
20
36.236199999999982
10
-0.068859041228446202
20
36.244199999999999
10
-0.061159041228449049
20
36.252599999999987
10
-0.04415904122844868
20
36.269599999999983
10
-0.035359041228448782
20
36.277699999999982
10
-0.027159041228448349
20
36.285799999999988
10
-0.019459041228446754
20
36.293699999999987
10
-0.012559041228445962
20
36.301299999999983
10
-0.0065590412284466243
20
36.308299999999988
10
-0.0016590412284456116
20
36.314599999999984
10
0.002040958771556421
20
36.319999999999979
10
0.0051409587715545262
20
36.327399999999983
10
0.006440958771549714
20
36.330899999999986
10
0.0098409587715542288
20
36.336499999999987
10
0.015440958771550953
20
36.344099999999983
10
0.022740958771554371
20
36.353199999999994
10
0.031640958771554949
20
36.363799999999983
10
0.04194095877155582
20
36.375499999999988
10
0.053340958771550567
20
36.387999999999991
10
0.078440958771555172
20
36.414699999999982
10
0.093140958771553733
20
36.430099999999982
10
0.10974095877155146
20
36.447799999999987
10
0.12754095877155261
20
36.467399999999984
10
0.14634095877155145
20
36.488399999999992
10
0.16564095877155352
20
36.510199999999983
10
0.18484095877155052
20
36.532399999999981
10
0.20354095877155312
20
36.55449999999999
10
0.23774095877155071
20
36.596399999999988
10
0.268440958771552
20
36.633599999999987
10
0.29894095877155197
20
36.668899999999979
10
0.32874095877155179
20
36.701499999999989
10
0.35714095877155577
20
36.730799999999988
10
0.38344095877155487
20
36.756299999999982
10
0.4069409587715534
20
36.77709999999999
10
0.4271409587715525
20
36.792899999999989
10
0.45474095877155568
20
36.80619999999999
10
0.45754095877155176
20
36.806499999999993
10
0.46014095877155103
20
36.80719999999998
10
0.46254095877155343
20
36.808299999999996
10
0.46474095877155452
20
36.809899999999985
10
0.46654095877155299
20
36.811799999999991
10
0.46814095877155015
20
36.813899999999997
10
0.46924095877155292
20
36.816299999999984
10
0.47024095877155503
20
36.821699999999993
10
0.47114095877155204
20
36.825399999999988
10
0.47384095877155197
20
36.830799999999982
10
0.47804095877155284
20
36.837499999999991
10
0.48374095877155465
20
36.845499999999987
10
0.49064095877155101
20
36.854399999999991
10
0.49864095877155012
20
36.86399999999999
10
0.50764095877155135
20
36.874199999999988
10
0.52804095877155632
20
36.894899999999993
10
0.53844095877155329
20
36.905599999999993
10
0.54884095877155037
20
36.916899999999984
10
0.55904095877155502
20
36.928399999999982
10
0.56884095877155261
20
36.939899999999987
10
0.57794095877155005
20
36.951199999999986
10
0.58634095877155179
20
36.961899999999986
10
0.59354095877155455
20
36.971799999999988
10
0.60414095877155294
20
36.987899999999982
10
0.60824095877155315
20
36.994999999999997
10
0.61374095877155366
20
37.002999999999993
10
0.6205409587715538
20
37.011799999999972
10
0.62834095877155161
20
37.020999999999979
10
0.636840958771554
20
37.030499999999975
10
0.6460409587715521
20
37.039999999999992
10
0.65554095877155216
20
37.049399999999991
10
0.67464095877155295
20
37.066699999999969
10
0.68494095877155381
20
37.074699999999993
10
0.69594095877155482
20
37.083499999999972
10
0.70734095877155401
20
37.092899999999972
10
0.71884095877155385
20
37.102499999999985
10
0.73034095877155369
20
37.112299999999991
10
0.74154095877155601
20
37.121799999999965
10
0.7521409587715544
20
37.130999999999972
10
0.77044095877155439
20
37.146999999999991
10
0.77804095877155532
20
37.154299999999978
10
0.78564095877155626
20
37.16109999999999
10
0.79314095877155655
20
37.167199999999966
10
0.80024095877155421
20
37.172699999999992
10
0.80674095877155239
20
37.177399999999992
10
0.81264095877155107
20
37.18119999999999
10
0.81754095877155653
20
37.184099999999987
10
0.8240409587715547
20
37.186399999999992
10
0.826340958771552
20
37.186799999999991
10
0.82844095877155244
20
37.187999999999981
10
0.83044095877155222
20
37.18989999999998
10
0.83224095877155069
20
37.192399999999992
10
0.83374095877155163
20
37.195399999999985
10
0.83494095877155505
20
37.19899999999997
10
0.83594095877155272
20
37.202899999999985
10
0.83674095877155352
20
37.211799999999968
10
0.83754095877155432
20
37.216599999999985
10
0.83984095877155163
20
37.222499999999968
10
0.84354095877155366
20
37.229299999999981
10
0.84854095877155533
20
37.236699999999985
10
0.85464095877155533
20
37.244699999999966
10
0.86174095877155299
20
37.252999999999972
10
0.86964095877155589
20
37.261399999999973
10
0.8874409587715526
20
37.277999999999984
10
0.8982409587715523
20
37.287299999999988
10
0.91254095877155272
20
37.299899999999973
10
0.92974095877155438
20
37.315299999999979
10
0.949340958771554
20
37.333099999999973
10
0.97074095877155209
20
37.352799999999974
10
0.99364095877155112
20
37.373999999999974
10
1.0172409587715547
20
37.39609999999999
10
1.0650409587715528
20
37.441299999999984
10
1.191840958771553
20
37.562499999999979
10
1.1524409587715523
20
37.600499999999982
10
1.1446409587715545
20
37.606899999999968
10
1.1363409587715534
20
37.612999999999985
10
1.1279409587715516
20
37.618699999999983
10
1.1194409587715537
20
37.623899999999978
10
1.111040958771552
20
37.628299999999975
10
1.1031409587715535
20
37.631999999999977
10
1.0957409587715539
20
37.634699999999981
10
1.0833409587715526
20
37.637099999999975
10
1.0695409587715554
20
37.638899999999978
10
1.0492409587715557
20
37.643699999999981
10
1.0243409587715524
20
37.650999999999968
10
0.99674095877155366
20
37.659999999999982
10
0.96844095877155478
20
37.669999999999973
10
0.94124095877155423
20
37.680499999999967
10
0.91714095877155177
20
37.690699999999993
10
0.88604095877155231
20
37.707499999999982
10
0.88174095877155523
20
37.709999999999972
10
0.87454095877155247
20
37.713699999999974
10
0.86494095877155619
20
37.718499999999992
10
0.85314095877155438
20
37.723999999999975
10
0.8395409587715541
20
37.730199999999968
10
0.82444095877155288
20
37.736899999999984
10
0.80814095877155268
20
37.743899999999968
10
0.77324095877155052
20
37.758199999999974
10
0.75414095877155418
20
37.76609999999998
10
0.73374095877155376
20
37.775399999999983
10
0.71254095877155255
20
37.785999999999973
10
0.69114095877155446
20
37.797299999999993
10
0.66984095877155259
20
37.809299999999979
10
0.64934095877155151
20
37.821499999999979
10
0.63004095877155386
20
37.833699999999979
10
0.59714095877155149
20
37.856799999999993
10
0.58194095877155405
20
37.868199999999987
10
0.56474095877155239
20
37.88059999999998
10
0.54614095877155489
20
37.893799999999978
10
0.52664095877155592
20
37.907199999999989
10
0.50654095877155303
20
37.920699999999968
10
0.48644095877155014
20
37.933899999999966
10
0.46684095877155052
20
37.946399999999976
10
0.43084095877155448
20
37.967999999999975
10
0.41514095877155377
20
37.977399999999975
10
0.40044095877155517
20
37.986599999999981
10
0.38684095877155489
20
37.995399999999989
10
0.3746409587715549
20
38.003699999999974
10
0.36404095877155207
20
38.011399999999966
10
0.35544095877155346
20
38.018099999999976
10
0.34894095877155085
20
38.02379999999998
10
0.34344095877155478
20
38.031399999999991
10
0.34294095877155151
20
38.033899999999988
10
0.34144095877155056
20
38.036399999999979
10
0.33914095877155326
20
38.039099999999983
10
0.33604095877155515
20
38.041899999999984
10
0.33234095877155312
20
38.044599999999988
10
0.32794095877155094
20
38.047199999999975
10
0.32314095877155058
20
38.049599999999977
10
0.31244095877155154
20
38.05389999999997
10
0.30574095877155205
20
38.056199999999976
10
0.29714095877155344
20
38.059899999999978
10
0.28694095877155323
20
38.064799999999991
10
0.27534095877155274
20
38.070999999999984
10
0.26264095877155391
20
38.077999999999989
10
0.24914095877155429
20
38.085799999999992
10
0.23514095877155139
20
38.094099999999983
10
0.20674095877155182
20
38.111699999999971
10
0.1929409587715547
20
38.120099999999972
10
0.17924095877155377
20
38.128399999999978
10
0.16574095877155415
20
38.136299999999977
10
0.15284095877155399
20
38.143799999999985
10
0.14074095877155468
20
38.150599999999969
10
0.12974095877155364
20
38.15649999999998
10
0.12024095877155361
20
38.161599999999979
10
0.10664095877155332
20
38.167999999999992
10
0.10174095877155231
20
38.16989999999997
10
0.095740958771552975
20
38.172799999999967
10
0.088840958771556622
20
38.176399999999973
10
0.081240958771555682
20
38.18059999999997
10
0.073140958771551454
20
38.185399999999987
10
0.06484095877155481
20
38.190699999999978
10
0.056440958771553078
20
38.196099999999973
10
0.04044095877155484
20
38.207399999999993
10
0.031740958771551135
20
38.213499999999968
10
0.021740958771556677
20
38.220099999999988
10
0.010740958771551226
20
38.227199999999968
10
-0.00095904122844548724
20
38.234599999999972
10
-0.01305904122844038
20
38.24189999999998
10
-0.025259041228440367
20
38.249199999999988
10
-0.037259041228443486
20
38.256099999999975
10
-0.059659041228443691
20
38.267999999999986
10
-0.070359041228442734
20
38.27379999999998
10
-0.080559041228442929
20
38.279899999999984
10
-0.090259041228444303
20
38.286199999999972
10
-0.099259041228441092
20
38.292499999999983
10
-0.107159041228444
20
38.298699999999982
10
-0.11405904122844479
20
38.304699999999983
10
-0.11955904122844085
20
38.31039999999998
10
-0.12585904122844216
20
38.320099999999968
10
-0.12805904122844325
20
38.323799999999991
10
-0.13055904122844186
20
38.32729999999998
10
-0.13355904122843931
20
38.330599999999976
10
-0.13685904122844317
20
38.33359999999999
10
-0.14035904122844389
20
38.336099999999988
10
-0.14405904122844149
20
38.33829999999999
10
-0.14785904122844418
20
38.339899999999986
10
-0.15545904122844512
20
38.341199999999986
10
-0.15935904122843958
20
38.341499999999975
10
-0.16345904122844424
20
38.342399999999977
10
-0.1676590412284451
20
38.343699999999984
10
-0.17175904122844088
20
38.345499999999987
10
-0.17575904122844044
20
38.347599999999971
10
-0.17945904122844247
20
38.349999999999973
10
-0.18285904122844254
20
38.352599999999981
10
-0.18785904122844421
20
38.358099999999965
10
-0.1960590412284402
20
38.368299999999991
10
-0.20785904122844201
20
38.379599999999968
10
-0.22235904122844374
20
38.391499999999965
10
-0.23895904122844591
20
38.403599999999969
10
-0.25675904122844262
20
38.415299999999988
10
-0.2750590412284426
20
38.426199999999966
10
-0.29295904122844441
20
38.435599999999965
10
-0.3245590412284427
20
38.448299999999982
10
-0.33105904122844088
20
38.449799999999982
10
-0.33715904122844087
20
38.451599999999985
10
-0.34285904122844268
20
38.45359999999998
10
-0.34795904122844057
20
38.455799999999982
10
-0.3524590412284434
20
38.45799999999997
10
-0.356159041228441
20
38.460299999999989
10
-0.35885904122844092
20
38.462499999999977
10
-0.36125904122844332
20
38.466599999999985
10
-0.36195904122844347
20
38.468799999999987
10
-0.36415904122844456
20
38.471699999999984
10
-0.36765904122844084
20
38.475099999999983
10
-0.37225904122844433
20
38.478899999999982
10
-0.37795904122844171
20
38.483199999999975
10
-0.38445904122844432
20
38.487599999999986
10
-0.39165904122844264
20
38.492299999999986
10
-0.40775904122844153
20
38.501799999999982
10
-0.41665904122844211
20
38.506499999999981
10
-0.42705904122844363
20
38.512099999999982
10
-0.43865904122844412
20
38.518299999999982
10
-0.45125904122844229
20
38.524999999999991
10
-0.4643590412284393
20
38.532099999999971
10
-0.49115904122844167
20
38.546299999999988
10
-0.5162590412284418
20
38.559499999999986
10
-0.52795904122844295
20
38.565899999999971
10
-0.53945904122844279
20
38.571899999999971
10
-0.55055904122844446
20
38.577399999999983
10
-0.56085904122844532
20
38.582299999999989
10
-0.57035904122844094
20
38.586499999999972
10
-0.57875904122844268
20
38.589999999999982
10
-0.58585904122844035
20
38.59259999999999
10
-0.59515904122844354
20
38.594699999999982
10
-0.60215904122844499
20
38.588999999999984
10
-0.60885904122844003
20
38.572699999999983
10
-0.61495904122844003
20
38.547699999999985
10
-0.62045904122844509
20
38.515499999999975
10
-0.62505904122844402
20
38.477799999999988
10
-0.62845904122844409
20
38.436199999999978
10
-0.63065904122844074
20
38.392299999999992
10
-0.63045904122843954
20
38.304599999999965
10
-0.62975904122844373
20
38.285099999999979
10
-0.62955904122844242
20
38.266999999999967
10
-0.62985904122844438
20
38.250499999999974
10
-0.63055904122844009
20
38.235699999999966
10
-0.63175904122844351
20
38.222999999999985
10
-0.63335904122844511
20
38.212299999999985
10
-0.63535904122844933
20
38.203899999999976
10
-0.6402590412284459
20
38.194799999999987
10
-0.64315904122844714
20
38.19189999999999
10
-0.64625904122844968
20
38.187099999999973
10
-0.64935904122844779
20
38.180699999999987
10
-0.65235904122844968
20
38.172799999999967
10
-0.65525904122844647
20
38.163699999999992
10
-0.65805904122844705
20
38.153499999999966
10
-0.66045904122844501
20
38.142399999999981
10
-0.6642590412284477
20
38.11869999999999
10
-0.66635904122844813
20
38.105999999999973
10
-0.66875904122844609
20
38.092499999999987
10
-0.67145904122844602
20
38.078499999999984
10
-0.67435904122844725
20
38.064299999999989
10
-0.67745904122844536
20
38.050399999999982
10
-0.6805590412284479
20
38.036899999999974
10
-0.68365904122844601
20
38.024399999999972
10
-0.68965904122844535
20
38.003199999999993
10
-0.69235904122844527
20
37.993899999999968
10
-0.69475904122844767
20
37.983899999999977
10
-0.69695904122844876
20
37.97349999999998
10
-0.69875904122844723
20
37.962899999999991
10
-0.70015904122844752
20
37.952499999999972
10
-0.70105904122844898
20
37.942399999999985
10
-0.70155904122844781
20
37.933099999999982
10
-0.70085904122844767
20
37.917299999999976
10
-0.70095904122844832
20
37.90179999999998
10
-0.7029590412284481
20
37.882199999999969
10
-0.70715904122844897
20
37.857899999999987
10
-0.71365904122844714
20
37.82859999999998
10
-0.72255904122844772
20
37.793699999999987
10
-0.73405904122844756
20
37.752799999999965
10
-0.74835904122844799
20
37.705399999999969
10
-0.7854590412284469
20
37.589199999999977
10
-0.79325904122844459
20
37.565699999999978
10
-0.80065904122844866
20
37.541399999999982
10
-0.80755904122844946
20
37.517099999999971
10
-0.81375904122845011
20
37.493099999999977
10
-0.81925904122844617
20
37.470099999999974
10
-0.82395904122844588
20
37.448699999999988
10
-0.82775904122844857
20
37.429299999999976
10
-0.83195904122844944
20
37.399099999999983
10
-0.83465904122844492
20
37.367799999999974
10
-0.83805904122844943
20
37.338199999999979
10
-0.84195904122844833
20
37.310399999999987
10
-0.84645904122844673
20
37.284799999999976
10
-0.85135904122844774
20
37.261699999999976
10
-0.85675904122844759
20
37.241399999999985
10
-0.86235904122844431
20
37.224199999999982
10
-0.87425904122844678
20
37.200499999999991
10
-0.8901590412284488
20
37.177799999999976
10
-0.90315904122844515
20
37.155599999999978
10
-0.91315904122844849
20
37.133999999999986
10
-0.92025904122844615
20
37.112899999999982
10
-0.92435904122844637
20
37.092499999999973
10
-0.92545904122844913
20
37.072699999999976
10
-0.92365904122844622
20
37.053599999999989
10
-0.91085904122844674
20
37.017399999999974
10
-0.90765904122844798
20
37.01039999999999
10
-0.90555904122844755
20
37.004199999999976
10
-0.90475904122844675
20
36.998699999999978
10
-0.90535904122844624
20
36.993499999999983
10
-0.90735904122844602
20
36.988599999999991
10
-0.91085904122844674
20
36.983599999999981
10
-0.91615904122844594
20
36.978499999999983
10
-0.93205904122844796
20
36.966699999999989
10
-0.93955904122844824
20
36.96139999999999
10
-0.94615904122844707
20
36.955699999999979
10
-0.95185904122844445
20
36.949699999999993
10
-0.95655904122844415
20
36.94319999999999
10
-0.9604590412284475
20
36.936299999999989
10
-0.96345904122844939
20
36.928899999999985
10
-0.96555904122844538
20
36.920899999999996
10
-0.96725904122844764
20
36.903399999999991
10
-0.96755904122844516
20
36.896299999999982
10
-0.96825904122844531
20
36.889299999999992
10
-0.96935904122844807
20
36.882499999999979
10
-0.97085904122844902
20
36.876099999999987
10
-0.97255904122844683
20
36.870199999999983
10
-0.97455904122844661
20
36.865099999999984
10
-0.9767590412284477
20
36.860799999999983
10
-0.98135904122844675
20
36.855499999999992
10
-0.98405904122844667
20
36.853099999999984
10
-0.98655904122844529
20
36.84879999999999
10
-0.98875904122844638
20
36.842799999999983
10
-0.99075904122844616
20
36.8354
10
-0.99235904122844776
20
36.826699999999988
10
-0.99365904122844739
20
36.816999999999986
10
-0.99465904122844506
20
36.806399999999982
10
-0.99545904122844586
20
36.783699999999982
10
-0.99575904122844783
20
36.770299999999992
10
-0.99645904122844353
20
36.75839999999998
10
-0.99775904122844761
20
36.747899999999987
10
-0.99965904122844673
20
36.738799999999983
10
-1.0019590412284485
20
36.73099999999998
10
-1.0048590412284453
20
36.724599999999981
10
-1.0082590412284453
20
36.719499999999982
10
-1.0165590412284464
20
36.71329999999999
10
-1.0202590412284485
20
36.710999999999984
10
-1.0237590412284447
20
36.708199999999991
10
-1.0270590412284486
20
36.704799999999992
10
-1.030059041228446
20
36.70089999999999
10
-1.0326590412284453
20
36.696699999999993
10
-1.0347590412284502
20
36.692199999999985
10
-1.0363590412284474
20
36.687499999999986
10
-1.0377590412284476
20
36.67799999999999
10
-1.0381590412284458
20
36.672099999999986
10
-1.0394590412284499
20
36.664899999999989
10
-1.0415590412284459
20
36.656599999999983
10
-1.0443590412284465
20
36.647299999999987
10
-1.0477590412284465
20
36.637499999999996
10
-1.0517590412284461
20
36.627199999999995
10
-1.0561590412284483
20
36.616799999999984
10
-1.0659590412284459
20
36.596399999999988
10
-1.071559041228447
20
36.583899999999986
10
-1.0762590412284467
20
36.571999999999989
10
-1.080059041228445
20
36.560299999999984
10
-1.0829590412284462
20
36.548999999999992
10
-1.084959041228446
20
36.53779999999999
10
-1.0860590412284443
20
36.52679999999998
10
-1.0863590412284463
20
36.515799999999984
10
-1.0842590412284459
20
36.493599999999986
10
-1.0827590412284449
20
36.481599999999986
10
-1.0821590412284499
20
36.470899999999986
10
-1.0824590412284474
20
36.461299999999987
10
-1.0836590412284464
20
36.452699999999979
10
-1.0857590412284468
20
36.444799999999987
10
-1.0888590412284449
20
36.437499999999986
10
-1.0928590412284489
20
36.430699999999987
10
-1.1039590412284461
20
36.41749999999999
10
-1.109059041228444
20
36.41149999999999
10
-1.1149590412284471
20
36.403099999999988
10
-1.1214590412284453
20
36.392699999999991
10
-1.1282590412284454
20
36.380599999999987
10
-1.1353590412284476
20
36.367099999999979
10
-1.1423590412284446
20
36.352599999999981
10
-1.1492590412284498
20
36.337399999999988
10
-1.1617590412284473
20
36.306299999999979
10
-1.1684590412284468
20
36.28949999999999
10
-1.1761590412284439
20
36.270599999999995
10
-1.184759041228447
20
36.249999999999993
10
-1.1939590412284451
20
36.228399999999979
10
-1.2035590412284458
20
36.206299999999985
10
-1.2134590412284485
20
36.184099999999987
10
-1.2232590412284461
20
36.16249999999998
10
-1.2420590412284493
20
36.123199999999983
10
-1.2505590412284473
20
36.104799999999983
10
-1.258959041228449
20
36.086399999999983
10
-1.2670590412284488
20
36.068499999999986
10
-1.2746590412284453
20
36.051399999999987
10
-1.2815590412284461
20
36.035499999999985
10
-1.2875590412284454
20
36.02109999999999
10
-1.2925590412284471
20
36.008599999999987
10
-1.2984590412284502
20
35.990799999999979
10
-1.3007590412284475
20
35.983699999999985
10
-1.303759041228445
20
35.9758
10
-1.3073590412284464
20
35.96729999999998
10
-1.3114590412284466
20
35.958299999999987
10
-1.3158590412284488
20
35.948999999999984
10
-1.3205590412284485
20
35.939699999999988
10
-1.325459041228445
20
35.930499999999981
10
-1.3350590412284502
20
35.913299999999992
10
-1.3400590412284474
20
35.904699999999991
10
-1.3447590412284471
20
35.894899999999993
10
-1.348959041228448
20
35.884099999999989
10
-1.3526590412284456
20
35.872799999999991
10
-1.3558590412284444
20
35.861199999999982
10
-1.3583590412284474
20
35.849599999999981
10
-1.3602590412284465
20
35.83829999999999
10
-1.3618590412284481
20
35.817599999999985
10
-1.3621590412284457
20
35.804099999999998
10
-1.3631590412284478
20
35.792699999999982
10
-1.3650590412284469
20
35.782899999999984
10
-1.3679590412284481
20
35.774499999999989
10
-1.3720590412284484
20
35.767199999999988
10
-1.3775590412284444
20
35.760699999999986
10
-1.3846590412284465
20
35.754699999999985
10
-1.4041590412284455
20
35.742899999999992
10
-1.4119590412284477
20
35.738599999999991
10
-1.419159041228446
20
35.734199999999987
10
-1.4257590412284449
20
35.72969999999998
10
-1.4316590412284524
20
35.725199999999987
10
-1.4366590412284497
20
35.720899999999986
10
-1.4407590412284499
20
35.716799999999999
10
-1.4438590412284524
20
35.712899999999991
10
-1.4464590412284517
20
35.706299999999985
10
-1.4483590412284508
20
35.695699999999988
10
-1.4535590412284494
20
35.679899999999989
10
-1.461259041228451
20
35.660499999999985
10
-1.470759041228451
20
35.639199999999988
10
-1.4811590412284481
20
35.617599999999989
10
-1.4917590412284509
20
35.597199999999987
10
-1.5017590412284498
20
35.579699999999988
10
-1.5169590412284517
20
35.559899999999985
10
-1.519259041228449
20
35.557999999999993
10
-1.5215590412284508
20
35.555099999999982
10
-1.5236590412284512
20
35.55149999999999
10
-1.525659041228451
20
35.547099999999993
10
-1.5274590412284539
20
35.54219999999998
10
-1.5289590412284504
20
35.536799999999992
10
-1.5300590412284487
20
35.531099999999981
10
-1.5309590412284502
20
35.518999999999991
10
-1.5315590412284497
20
35.512999999999991
10
-1.5331590412284513
20
35.506099999999989
10
-1.5357590412284505
20
35.498799999999989
10
-1.5391590412284506
20
35.491099999999989
10
-1.5434590412284521
20
35.483199999999982
10
-1.5483590412284487
20
35.475399999999979
10
-1.5538590412284492
20
35.467899999999986
10
-1.5662590412284505
20
35.454199999999993
10
-1.572659041228448
20
35.44789999999999
10
-1.5786590412284518
20
35.440999999999995
10
-1.5841590412284523
20
35.433999999999983
10
-1.5890590412284489
20
35.426799999999986
10
-1.5932590412284497
20
35.419799999999981
10
-1.5967590412284505
20
35.41299999999999
10
-1.5992590412284535
20
35.40679999999999
10
-1.6014590412284502
20
35.396499999999989
10
-1.6024590412284523
20
35.390799999999984
10
-1.6054590412284497
20
35.383099999999985
10
-1.6100590412284532
20
35.373799999999989
10
-1.6163590412284501
20
35.363199999999992
10
-1.623959041228451
20
35.351399999999984
10
-1.6327590412284509
20
35.338899999999988
10
-1.6426590412284492
20
35.32589999999999
10
-1.6648590412284525
20
35.299299999999995
10
-1.6763590412284479
20
35.28619999999998
10
-1.6870590412284514
20
35.273199999999989
10
-1.6969590412284496
20
35.260599999999982
10
-1.7058590412284502
20
35.248799999999989
10
-1.7134590412284512
20
35.237899999999982
10
-1.7196590412284518
20
35.228199999999987
10
-1.7243590412284515
20
35.219999999999985
10
-1.7283590412284511
20
35.209199999999981
10
-1.7315590412284543
20
35.199099999999987
10
-1.7404590412284504
20
35.184799999999981
10
-1.7535590412284519
20
35.167799999999986
10
-1.7694590412284539
20
35.149399999999986
10
-1.7867590412284517
20
35.1312
10
-1.8040590412284496
20
35.114499999999992
10
-1.8200590412284523
20
35.100799999999992
10
-1.8424590412284481
20
35.088099999999983
10
-1.8528590412284496
20
35.090099999999993
10
-1.8654590412284477
20
35.095499999999987
10
-1.8795590412284513
20
35.103699999999989
10
-1.8941590412284492
20
35.114099999999979
10
-1.9085590412284503
20
35.125799999999991
10
-1.9219590412284537
20
35.138199999999983
10
-1.9332590412284523
20
35.150599999999983
10
-1.9467590412284519
20
35.172599999999996
10
-1.9487590412284517
20
35.177499999999988
10
-1.9508590412284521
20
35.181999999999995
10
-1.9531590412284494
20
35.18589999999999
10
-1.9555590412284518
20
35.189199999999985
10
-1.9580590412284504
20
35.191699999999983
10
-1.9605590412284535
20
35.193599999999989
10
-1.9630590412284521
20
35.194499999999991
10
-1.9678590412284525
20
35.193699999999993
10
-1.9712590412284525
20
35.192999999999984
10
-1.9748590412284495
20
35.194499999999991
10
-1.9785590412284515
20
35.198399999999992
10
-1.9824590412284504
20
35.2044
10
-1.98645904122845
20
35.212799999999987
10
-1.9905590412284546
20
35.223299999999981
10
-1.994759041228451
20
35.236099999999979
10
-2.0031590412284528
20
35.268399999999993
10
-2.0044590412284524
20
35.27239999999999
10
-2.0063590412284515
20
35.276899999999991
10
-2.0088590412284546
20
35.281899999999979
10
-2.0117590412284514
20
35.286999999999999
10
-2.0150590412284508
20
35.292299999999983
10
-2.0185590412284515
20
35.297599999999989
10
-2.0223590412284498
20
35.302699999999987
10
-2.0299590412284507
20
35.311999999999983
10
-2.0340590412284509
20
35.317499999999981
10
-2.0378590412284536
20
35.32429999999998
10
-2.0413590412284499
20
35.332299999999989
10
-2.0445590412284531
20
35.34129999999999
10
-2.047259041228453
20
35.351199999999992
10
-2.0494590412284497
20
35.361699999999985
10
-2.0510590412284513
20
35.372599999999991
10
-2.0524590412284516
20
35.395099999999992
10
-2.0527590412284491
20
35.405699999999982
10
-2.0534590412284537
20
35.415599999999984
10
-2.054559041228452
20
35.424799999999991
10
-2.056059041228453
20
35.433099999999982
10
-2.0577590412284508
20
35.44019999999999
10
-2.0597590412284505
20
35.446099999999987
10
-2.0619590412284516
20
35.450499999999991
10
-2.0665590412284507
20
35.454199999999993
10
-2.0692590412284506
20
35.454699999999988
10
-2.0717590412284537
20
35.455799999999982
10
-2.0739590412284503
20
35.457699999999988
10
-2.0759590412284545
20
35.460199999999986
10
-2.0775590412284517
20
35.463199999999986
10
-2.0788590412284513
20
35.466799999999992
10
-2.079859041228449
20
35.470699999999979
10
-2.0806590412284542
20
35.479599999999991
10
-2.0808590412284511
20
35.484399999999987
10
-2.0816590412284519
20
35.489499999999992
10
-2.0828590412284509
20
35.494599999999991
10
-2.0844590412284525
20
35.499799999999979
10
-2.0864590412284478
20
35.504799999999996
10
-2.0887590412284496
20
35.509599999999992
10
-2.0914590412284539
20
35.514199999999995
10
-2.0975590412284539
20
35.521799999999992
10
-2.1007590412284527
20
35.52709999999999
10
-2.1038590412284508
20
35.535999999999987
10
-2.106759041228452
20
35.548399999999987
10
-2.1093590412284513
20
35.564099999999989
10
-2.1117590412284493
20
35.582799999999992
10
-2.113759041228449
20
35.604099999999988
10
-2.1153590412284506
20
35.627999999999986
10
-2.1172590412284542
20
35.682399999999987
10
-2.1182590412284519
20
35.709199999999981
10
-2.1193590412284502
20
35.735599999999998
10
-2.1205590412284536
20
35.761299999999991
10
-2.1217590412284526
20
35.785599999999988
10
-2.1230590412284478
20
35.808199999999985
10
-2.1243590412284519
20
35.828299999999984
10
-2.1257590412284522
20
35.84559999999999
10
-2.1285590412284527
20
35.86969999999998
10
-2.1296590412284511
20
35.878599999999992
10
-2.1310590412284514
20
35.890199999999979
10
-2.1325590412284523
20
35.903999999999982
10
-2.1343590412284508
20
35.919599999999996
10
-2.1362590412284499
20
35.936599999999991
10
-2.138159041228449
20
35.954599999999985
10
-2.1401590412284532
20
35.973199999999991
10
-2.1440590412284521
20
36.010499999999979
10
-2.1471590412284502
20
36.04049999999998
10
-2.1499590412284508
20
36.070799999999991
10
-2.1525590412284501
20
36.103099999999984
10
-2.1551590412284538
20
36.139199999999995
10
-2.1577590412284486
20
36.180999999999983
10
-2.160459041228453
20
36.230099999999979
10
-2.1634590412284505
20
36.288499999999992
10
-2.1708590412284501
20
36.439999999999984
10
-2.1716590412284509
20
36.459699999999984
10
-2.1729590412284505
20
36.479799999999983
10
-2.174759041228449
20
36.499899999999982
10
-2.1768590412284539
20
36.519599999999983
10
-2.179359041228448
20
36.538399999999982
10
-2.1820590412284524
20
36.555699999999987
10
-2.184859041228453
20
36.571299999999979
10
-2.1905590412284504
20
36.594999999999985
10
-2.1933590412284509
20
36.604299999999981
10
-2.1959590412284502
20
36.614099999999979
10
-2.1983590412284526
20
36.62439999999998
10
-2.2005590412284493
20
36.634699999999981
10
-2.2023590412284522
20
36.6449
10
-2.2039590412284538
20
36.654699999999991
10
-2.2050590412284521
20
36.663899999999991
10
-2.2060590412284498
20
36.67949999999999
10
-2.2066590412284492
20
36.725599999999986
10
-2.2081590412284502
20
36.781699999999987
10
-2.2103590412284513
20
36.843699999999984
10
-2.2131590412284519
20
36.907499999999985
10
-2.2163590412284506
20
36.96929999999999
10
-2.21965904122845
20
37.025099999999973
10
-2.2229590412284495
20
37.070699999999981
10
-2.2286590412284513
20
37.115999999999971
10
-2.2352590412284501
20
37.121799999999965
10
-2.2461590412284504
20
37.125899999999987
10
-2.2607590412284528
20
37.128399999999985
10
-2.2781590412284514
20
37.129299999999986
10
-2.2979590412284523
20
37.128699999999967
10
-2.3191590412284491
20
37.126699999999971
10
-2.3412590412284517
20
37.123099999999965
10
-2.38505904122845
20
37.111799999999988
10
-2.4050590412284478
20
37.10599999999998
10
-2.4242590412284493
20
37.101599999999983
10
-2.4434590412284507
20
37.098799999999983
10
-2.4636590412284498
20
37.097399999999965
10
-2.4856590412284518
20
37.097699999999989
10
-2.5103590412284538
20
37.099499999999992
10
-2.538559041228452
20
37.102899999999991
10
-2.6091590412284482
20
37.114599999999967
10
-2.6295590412284531
20
37.117999999999967
10
-2.6506590412284536
20
37.120499999999993
10
-2.6728590412284525
20
37.122100000000003
10
-2.6964590412284517
20
37.123000000000005
10
-2.7217590412284487
20
37.123000000000005
10
-2.7493590412284519
20
37.122100000000003
10
-2.7794590412284492
20
37.120499999999993
10
-2.8487590412284547
20
37.114599999999989
10
-2.8841590412284512
20
37.111199999999997
10
-2.9219590412284546
20
37.108599999999981
10
-2.9619590412284502
20
37.106599999999986
10
-3.004259041228452
20
37.105400000000003
10
-3.0489590412284517
20
37.104999999999997
10
-3.0958590412284526
20
37.105199999999989
10
-3.1450590412284507
20
37.106200000000001
10
-3.2503590412284522
20
37.110399999999984
10
-3.2967590412284498
20
37.112300000000005
10
-3.3447590412284534
20
37.114099999999993
10
-3.393359041228452
20
37.115899999999996
10
-3.4414590412284518
20
37.117500000000007
10
-3.48795904122845
20
37.119099999999996
10
-3.5316590412284521
20
37.120400000000004
10
-3.5714590412284508
20
37.121499999999997
10
-3.6351590412284507
20
37.123099999999987
10
-3.6595590412284507
20
37.1233
10
-3.6825590412284548
20
37.123799999999996
10
-3.7037590412284516
20
37.124699999999997
10
-3.7228590412284523
20
37.125900000000001
10
-3.7394590412284501
20
37.127300000000005
10
-3.7530590412284504
20
37.128900000000002
10
-3.7632590412284506
20
37.130600000000001
10
-3.7718590412284492
20
37.134299999999989
10
-3.7741590412284509
20
37.136599999999987
10
-3.7809590412284511
20
37.138599999999983
10
-3.7916590412284501
20
37.140299999999996
10
-3.8059590412284505
20
37.141800000000003
10
-3.8234590412284497
20
37.143000000000001
10
-3.8436590412284488
20
37.143799999999999
10
-3.866359041228451
20
37.144300000000001
10
-3.9170590412284501
20
37.144199999999984
10
-3.9435590412284505
20
37.143999999999991
10
-3.9701590412284515
20
37.144199999999984
10
-3.9962590412284493
20
37.144999999999996
10
-4.0211590412284526
20
37.146100000000004
10
-4.0445590412284504
20
37.147599999999997
10
-4.065659041228451
20
37.149500000000003
10
-4.0840590412284516
20
37.151700000000005
10
-4.1101590412284494
20
37.156899999999986
10
-4.1209590412284491
20
37.159800000000004
10
-4.1351590412284489
20
37.16279999999999
10
-4.1523590412284506
20
37.165899999999979
10
-4.1718590412284495
20
37.1691
10
-4.1932590412284521
20
37.1721
10
-4.2158590412284491
20
37.174999999999997
10
-4.2392590412284514
20
37.177700000000002
10
-4.2862590412284529
20
37.182199999999987
10
-4.3252590412284508
20
37.185199999999995
10
-4.3578590412284512
20
37.188499999999998
10
-4.3846590412284492
20
37.192299999999996
10
-4.4060590412284517
20
37.196899999999999
10
-4.4225590412284532
20
37.202299999999994
10
-4.4345590412284519
20
37.208699999999993
10
-4.442559041228451
20
37.21629999999999
10
-4.4483590412284535
20
37.235699999999987
10
-4.4362590412284497
20
37.248599999999996
10
-4.402859041228453
20
37.260499999999993
10
-4.3522590412284501
20
37.271099999999997
10
-4.2888590412284522
20
37.28009999999999
10
-4.2168590412284512
20
37.286999999999999
10
-4.1403590412284519
20
37.291399999999996
10
-4.0637590412284519
20
37.293099999999995
10
-3.9268590412284521
20
37.2864
10
-3.9043590412284512
20
37.283699999999996
10
-3.8811590412284502
20
37.281300000000002
10
-3.8577590412284479
20
37.2791
10
-3.8348590412284489
20
37.277199999999993
10
-3.8127590412284507
20
37.275700000000001
10
-3.7921590412284489
20
37.274499999999989
10
-3.7733590412284501
20
37.27379999999998
10
-3.7436590412284509
20
37.27379999999998
10
-3.7283590412284529
20
37.273599999999988
10
-3.7064590412284515
20
37.272999999999996
10
-3.6788590412284528
20
37.271999999999998
10
-3.6464590412284537
20
37.270799999999994
10
-3.6099590412284499
20
37.269299999999994
10
-3.5702590412284518
20
37.267499999999991
10
-3.528259041228452
20
37.265499999999996
10
-3.440659041228451
20
37.261099999999999
10
-3.3593590412284513
20
37.256599999999992
10
-3.2833590412284508
20
37.253500000000003
10
-3.2118590412284531
20
37.2517
10
-3.1442590412284499
20
37.251399999999997
10
-3.0799590412284505
20
37.252499999999991
10
-3.0183590412284511
20
37.254900000000006
10
-2.9587590412284515
20
37.258799999999979
10
-2.8430590412284529
20
37.270899999999983
10
-2.8201590412284538
20
37.27379999999998
10
-2.7974590412284517
20
37.275899999999993
10
-2.7750590412284515
20
37.277199999999993
10
-2.7528590412284526
20
37.277799999999992
10
-2.7308590412284506
20
37.277699999999996
10
-2.7091590412284505
20
37.276899999999991
10
-2.6877590412284524
20
37.275499999999994
10
-2.6457590412284482
20
37.270899999999983
10
-2.6076590412284517
20
37.266499999999994
10
-2.5610590412284528
20
37.263499999999965
10
-2.5091590412284503
20
37.26179999999998
10
-2.4552590412284481
20
37.26149999999997
10
-2.4022590412284517
20
37.262399999999971
10
-2.3534590412284517
20
37.264599999999973
10
-2.3120590412284514
20
37.267899999999976
10
-2.2638590412284509
20
37.277999999999984
10
-2.2600590412284483
20
37.280999999999977
10
-2.2570590412284508
20
37.285499999999985
10
-2.2548590412284497
20
37.291399999999975
10
-2.2533590412284532
20
37.298799999999979
10
-2.2526590412284531
20
37.307899999999989
10
-2.2526590412284531
20
37.318599999999975
10
-2.2533590412284532
20
37.330899999999971
10
-2.2568590412284495
20
37.361099999999965
10
-2.2587590412284531
20
37.374599999999987
10
-2.2606590412284522
20
37.388599999999968
10
-2.262659041228452
20
37.402799999999985
10
-2.2645590412284511
20
37.41699999999998
10
-2.2663590412284496
20
37.430699999999973
10
-2.2678590412284505
20
37.443699999999978
10
-2.2692590412284508
20
37.455599999999976
10
-2.270959041228453
20
37.475099999999983
10
-2.2732590412284504
20
37.503399999999978
10
-2.2764590412284491
20
37.53309999999999
10
-2.2803590412284525
20
37.563099999999991
10
-2.2846590412284495
20
37.592199999999991
10
-2.289259041228453
20
37.61939999999997
10
-2.2938590412284521
20
37.643499999999989
10
-2.2983590412284505
20
37.663499999999971
10
-2.3061590412284527
20
37.686399999999978
10
-2.307559041228453
20
37.689299999999974
10
-2.3091590412284546
20
37.69319999999999
10
-2.3106590412284511
20
37.69789999999999
10
-2.3121590412284521
20
37.703299999999977
10
-2.3135590412284479
20
37.709299999999985
10
-2.314859041228452
20
37.71569999999997
10
-2.3159590412284503
20
37.72229999999999
10
-2.3174590412284513
20
37.73569999999998
10
-2.3199590412284543
20
37.764699999999976
10
-2.3237590412284526
20
37.802299999999974
10
-2.3284590412284523
20
37.846199999999968
10
-2.3337590412284515
20
37.893999999999991
10
-2.3395590412284539
20
37.943299999999965
10
-2.345359041228452
20
37.991799999999984
10
-2.35115904122845
20
38.037099999999967
10
-2.3611590412284533
20
38.108899999999991
10
-2.38165904122845
20
38.240799999999965
10
-2.3971590412284449
20
38.353899999999967
10
-2.4076590412284471
20
38.449799999999982
10
-2.4132590412284483
20
38.52999999999998
10
-2.4138590412284477
20
38.595899999999972
10
-2.4094590412284456
20
38.648999999999987
10
-2.4001590412284468
20
38.690899999999985
10
-2.3667590412284456
20
38.746799999999979
10
-2.3580590412284463
20
38.754199999999983
10
-2.3499590412284466
20
38.760299999999987
10
-2.3420590412284481
20
38.765199999999979
10
-2.3343590412284465
20
38.768999999999991
10
-2.3265590412284487
20
38.771599999999978
10
-2.3186590412284458
20
38.772999999999982
10
-2.3103590412284447
20
38.773299999999992
10
-2.2920590412284447
20
38.77079999999998
10
-2.2771590412284493
20
38.765699999999974
10
-2.257459041228449
20
38.756499999999988
10
-2.2338590412284454
20
38.743899999999982
10
-2.2075590412284463
20
38.728399999999965
10
-2.1792590412284474
20
38.710599999999985
10
-2.150059041228447
20
38.691099999999992
10
-2.1209590412284474
20
38.67049999999999
10
-2.0665590412284462
20
38.628499999999981
10
-2.0498590412284434
20
38.613099999999974
10
-2.022459041228446
20
38.58659999999999
10
-1.9871590412284457
20
38.551899999999989
10
-1.9468590412284481
20
38.511899999999969
10
-1.9045590412284463
20
38.469599999999971
10
-1.863159041228446
20
38.42769999999998
10
-1.8255590412284439
20
38.389299999999977
10
-1.7734590412284446
20
38.334199999999967
10
-1.7594590412284461
20
38.317299999999989
10
-1.7400590412284478
20
38.291599999999981
10
-1.7169590412284474
20
38.259399999999971
10
-1.6915590412284454
20
38.222899999999967
10
-1.6653590412284514
20
38.184399999999968
10
-1.6400590412284544
20
38.146099999999983
10
-1.6171590412284509
20
38.110299999999967
10
-1.5845590412284505
20
38.055399999999992
10
-1.5796590412284495
20
38.047099999999986
10
-1.5745590412284516
20
38.039399999999972
10
-1.5692590412284524
20
38.032399999999967
10
-1.5639590412284532
20
38.026099999999978
10
-1.5587590412284502
20
38.020699999999991
10
-1.5538590412284492
20
38.016299999999973
10
-1.5493590412284508
20
38.013099999999973
10
-1.5422590412284487
20
38.010299999999972
10
-1.5304590412284513
20
38.008099999999985
10
-1.517159041228453
20
38.002899999999968
10
-1.5030590412284539
20
37.995299999999972
10
-1.4889590412284548
20
37.985899999999972
10
-1.4757590412284527
20
37.975299999999983
10
-1.4640590412284515
20
37.964299999999973
10
-1.4547590412284528
20
37.953299999999984
10
-1.4464590412284517
20
37.934199999999976
10
-1.4461590412284497
20
37.929699999999968
10
-1.4452590412284527
20
37.924499999999966
10
-1.4438590412284524
20
37.918899999999965
10
-1.4419590412284533
20
37.912999999999982
10
-1.4395590412284509
20
37.906899999999979
10
-1.436859041228451
20
37.900799999999975
10
-1.4337590412284484
20
37.894699999999979
10
-1.4267590412284514
20
37.883499999999977
10
-1.4223590412284537
20
37.876699999999985
10
-1.4168590412284487
20
37.866699999999973
10
-1.4105590412284474
20
37.853899999999982
10
-1.4033590412284447
20
37.838799999999978
10
-1.3956590412284475
20
37.821799999999968
10
-1.3874590412284471
20
37.803299999999979
10
-1.3789590412284447
20
37.783699999999968
10
-1.3618590412284481
20
37.742699999999978
10
-1.353859041228449
20
37.722099999999976
10
-1.3457590412284492
20
37.701899999999981
10
-1.3378590412284463
20
37.682599999999979
10
-1.3302590412284454
20
37.664399999999972
10
-1.3231590412284477
20
37.647899999999979
10
-1.3168590412284464
20
37.63339999999998
10
-1.3114590412284466
20
37.621299999999991
10
-1.304059041228447
20
37.606099999999984
10
-1.2987590412284478
20
37.593499999999977
10
-1.2949590412284451
20
37.579199999999986
10
-1.2927590412284484
20
37.563799999999986
10
-1.2919590412284476
20
37.547599999999974
10
-1.2926590412284478
20
37.531099999999981
10
-1.2947590412284482
20
37.51459999999998
10
-1.2983590412284451
20
37.498599999999982
10
-1.3097590412284488
20
37.469499999999982
10
-1.3215590412284461
20
37.454999999999984
10
-1.3426590412284467
20
37.437299999999979
10
-1.3714590412284444
20
37.417499999999976
10
-1.4060590412284446
20
37.396399999999979
10
-1.4446590412284444
20
37.375099999999989
10
-1.4857590412284516
20
37.35439999999997
10
-1.5274590412284539
20
37.335399999999979
10
-1.605659041228451
20
37.306099999999986
10
-1.619359041228452
20
37.302099999999982
10
-1.6335590412284517
20
37.297699999999985
10
-1.6481590412284497
20
37.293099999999981
10
-1.6626590412284514
20
37.288199999999989
10
-1.6767590412284505
20
37.283299999999983
10
-1.6900590412284489
20
37.278399999999991
10
-1.7021590412284482
20
37.273699999999991
10
-1.7212590412284534
20
37.265299999999968
10
-1.7427590412284522
20
37.255799999999972
10
-1.7647590412284497
20
37.246999999999986
10
-1.7867590412284517
20
37.23899999999999
10
-1.8085590412284525
20
37.231999999999985
10
-1.829659041228453
20
37.225999999999985
10
-1.8497590412284515
20
37.221199999999968
10
-1.8684590412284496
20
37.217599999999976
10
-1.9002590412284492
20
37.21459999999999
10
-1.9064590412284499
20
37.214499999999973
10
-1.9126590412284505
20
37.21399999999997
10
-1.9188590412284512
20
37.213299999999983
10
-1.9247590412284499
20
37.212299999999985
10
-1.9302590412284504
20
37.211199999999991
10
-1.935259041228452
20
37.209799999999973
10
-1.9394590412284529
20
37.20829999999998
10
-1.9453590412284516
20
37.204699999999988
10
-1.9481590412284522
20
37.202299999999973
10
-1.9525590412284544
20
37.199699999999979
10
-1.9585590412284537
20
37.196899999999985
10
-1.965759041228452
20
37.194099999999978
10
-1.9741590412284538
20
37.191099999999992
10
-1.9833590412284519
20
37.188199999999973
10
-1.9932590412284501
20
37.18519999999998
10
-2.0144590412284513
20
37.179399999999987
10
-2.031659041228453
20
37.175099999999972
10
-2.0451590412284482
20
37.171199999999978
10
-2.0553590412284528
20
37.167099999999991
10
-2.0626590412284518
20
37.162299999999973
10
-2.0674590412284521
20
37.156299999999973
10
-2.0702590412284527
20
37.148499999999984
10
-2.0714590412284517
20
37.138399999999976
10
-2.0707590412284516
20
37.108999999999966
10
-2.0685590412284505
20
37.053999999999974
10
-2.0658590412284505
20
37.001099999999965
10
-2.0626590412284518
20
36.951199999999972
10
-2.0591590412284511
20
36.90479999999998
10
-2.0552590412284522
20
36.862699999999997
10
-2.0511590412284519
20
36.82559999999998
10
-2.0469590412284511
20
36.794099999999986
10
-2.0383590412284525
20
36.751299999999986
10
-2.0361590412284514
20
36.741399999999985
10
-2.0343590412284485
20
36.729799999999983
10
-2.032859041228452
20
36.716799999999992
10
-2.0317590412284536
20
36.702899999999985
10
-2.031059041228449
20
36.688299999999991
10
-2.0307590412284515
20
36.673599999999979
10
-2.0309590412284528
20
36.658899999999988
10
-2.0327590412284513
20
36.631599999999992
10
-2.0336590412284528
20
36.608299999999986
10
-2.0329590412284482
20
36.578099999999992
10
-2.0307590412284515
20
36.542699999999982
10
-2.0271590412284546
20
36.503999999999991
10
-2.0224590412284504
20
36.463599999999985
10
-2.0168590412284537
20
36.423299999999983
10
-2.0104590412284518
20
36.384799999999984
10
-1.9960590412284507
20
36.320299999999996
10
-1.9953590412284505
20
36.316999999999979
10
-1.995059041228453
20
36.312799999999982
10
-1.995059041228453
20
36.307799999999986
10
-1.9954590412284512
20
36.302099999999982
10
-1.9961590412284513
20
36.295899999999996
10
-1.9971590412284534
20
36.289299999999983
10
-1.9984590412284531
20
36.282399999999981
10
-2.0017590412284525
20
36.268199999999979
10
-2.0032590412284534
20
36.259799999999984
10
-2.0042590412284511
20
36.247799999999984
10
-2.0046590412284537
20
36.232799999999983
10
-2.0044590412284524
20
36.215299999999992
10
-2.0037590412284523
20
36.195699999999988
10
-2.0025590412284489
20
36.174599999999984
10
-2.000859041228451
20
36.152299999999983
10
-1.9960590412284507
20
36.106299999999997
10
-1.9927590412284513
20
36.081999999999979
10
-1.9895590412284525
20
36.054699999999983
10
-1.98645904122845
20
36.025199999999984
10
-1.9834590412284525
20
35.994099999999989
10
-1.9806590412284519
20
35.962399999999988
10
-1.9780590412284482
20
35.930599999999984
10
-1.9757590412284509
20
35.899599999999992
10
-1.9721590412284495
20
35.842899999999986
10
-1.9708590412284543
20
35.817399999999992
10
-1.9690590412284514
20
35.791699999999992
10
-1.9667590412284497
20
35.766499999999979
10
-1.9640590412284498
20
35.742299999999993
10
-1.9610590412284523
20
35.719699999999996
10
-1.9577590412284529
20
35.69919999999999
10
-1.9541590412284515
20
35.681299999999979
10
-1.9467590412284519
20
35.655599999999993
10
-1.9430590412284499
20
35.645699999999991
10
-1.9395590412284491
20
35.634699999999981
10
-1.9362590412284497
20
35.62309999999998
10
-1.9332590412284523
20
35.61099999999999
10
-1.9307590412284492
20
35.59879999999999
10
-1.9285590412284526
20
35.586799999999982
10
-1.926959041228451
20
35.575099999999999
10
-1.9256590412284513
20
35.55419999999998
10
-1.9239590412284535
20
35.519099999999987
10
-1.9202590412284515
20
35.478999999999985
10
-1.9149590412284523
20
35.436499999999988
10
-1.9083590412284535
20
35.393799999999985
10
-1.9011590412284507
20
35.353599999999986
10
-1.8935590412284498
20
35.318099999999994
10
-1.8861590412284501
20
35.289699999999982
10
-1.8734590412284513
20
35.264099999999985
10
-1.8654590412284477
20
35.267899999999983
10
-1.8536590412284504
20
35.278199999999984
10
-1.8392590412284493
20
35.293399999999991
10
-1.8236590412284492
20
35.31189999999998
10
-1.807959041228453
20
35.331999999999979
10
-1.7934590412284512
20
35.352199999999982
10
-1.7816590412284539
20
35.370699999999992
10
-1.7705590412284522
20
35.396499999999989
10
-1.7702590412284502
20
35.39889999999999
10
-1.7693590412284488
20
35.401299999999992
10
-1.7679590412284529
20
35.40379999999999
10
-1.7660590412284494
20
35.406199999999984
10
-1.7637590412284521
20
35.408599999999993
10
-1.7609590412284515
20
35.410799999999981
10
-1.7578590412284534
20
35.412799999999997
10
-1.7508590412284519
20
35.416199999999989
10
-1.7470590412284537
20
35.418299999999988
10
-1.743259041228451
20
35.421599999999984
10
-1.7394590412284527
20
35.425899999999984
10
-1.7357590412284507
20
35.43119999999999
10
-1.73225904122845
20
35.437299999999979
10
-1.7289590412284506
20
35.444099999999992
10
-1.7259590412284531
20
35.451399999999992
10
-1.7212590412284534
20
35.466899999999981
10
-1.7192590412284536
20
35.474699999999984
10
-1.7171590412284488
20
35.482099999999988
10
-1.7149590412284521
20
35.488899999999994
10
-1.7126590412284504
20
35.49499999999999
10
-1.7104590412284537
20
35.500299999999989
10
-1.7083590412284488
20
35.504599999999982
10
-1.7063590412284491
20
35.507799999999989
10
-1.7029590412284534
20
35.51059999999999
10
-1.6961590412284488
20
35.513999999999982
10
-1.6868590412284501
20
35.523299999999992
10
-1.6758590412284491
20
35.537099999999981
10
-1.6639590412284511
20
35.553999999999988
10
-1.6521590412284537
20
35.572599999999987
10
-1.6412590412284489
20
35.591499999999982
10
-1.6320590412284508
20
35.60929999999999
10
-1.6226590412284514
20
35.635899999999992
10
-1.620559041228451
20
35.649999999999991
10
-1.6163590412284501
20
35.666299999999993
10
-1.6104590412284514
20
35.68419999999999
10
-1.6030590412284518
20
35.702799999999982
10
-1.59465904122845
20
35.721399999999988
10
-1.5854590412284519
20
35.739299999999986
10
-1.5757590412284506
20
35.75569999999999
10
-1.5563590412284523
20
35.780999999999992
10
-1.5517590412284532
20
35.785999999999987
10
-1.5474590412284517
20
35.791399999999982
10
-1.5435590412284483
20
35.797199999999989
10
-1.5399590412284514
20
35.803099999999986
10
-1.5369590412284495
20
35.809099999999987
10
-1.5344590412284509
20
35.814999999999984
10
-1.5325590412284518
20
35.820499999999981
10
-1.5309590412284502
20
35.83029999999998
10
-1.5306590412284526
20
35.834799999999987
10
-1.5298590412284518
20
35.839799999999983
10
-1.5283590412284509
20
35.845099999999988
10
-1.5264590412284518
20
35.850599999999986
10
-1.5241590412284545
20
35.856099999999984
10
-1.5213590412284539
20
35.861399999999996
10
-1.518359041228452
20
35.866599999999991
10
-1.5112590412284499
20
35.875299999999982
10
-1.5074590412284516
20
35.880799999999979
10
-1.5028590412284526
20
35.888599999999983
10
-1.4974590412284527
20
35.898399999999981
10
-1.491459041228449
20
35.909899999999979
10
-1.4851590412284521
20
35.922799999999981
10
-1.4785590412284533
20
35.936799999999991
10
-1.47195904122845
20
35.951599999999992
10
-1.4591590412284505
20
35.982399999999984
10
-1.4526590412284524
20
35.998199999999983
10
-1.4455590412284502
20
36.014699999999991
10
-1.4379590412284493
20
36.031299999999995
10
-1.4302590412284522
20
36.047599999999989
10
-1.4224590412284499
20
36.063299999999991
10
-1.4149590412284496
20
36.077999999999989
10
-1.4078590412284475
20
36.091299999999997
10
-1.3956590412284475
20
36.111899999999999
10
-1.3898590412284495
20
36.12139999999998
10
-1.3838590412284502
20
36.132499999999979
10
-1.3776590412284495
20
36.145099999999985
10
-1.3715590412284495
20
36.158799999999985
10
-1.3656590412284464
20
36.173199999999987
10
-1.3602590412284465
20
36.188099999999991
10
-1.3552590412284493
20
36.202999999999996
10
-1.347759041228449
20
36.231599999999986
10
-1.3442590412284483
20
36.245099999999979
10
-1.340359041228445
20
36.258299999999998
10
-1.3360590412284479
20
36.270799999999987
10
-1.3316590412284457
20
36.282399999999981
10
-1.3272590412284435
20
36.292799999999986
10
-1.3228590412284502
20
36.301799999999986
10
-1.3186590412284493
20
36.309099999999994
10
-1.3111590412284491
20
36.317499999999981
10
-1.307459041228447
20
36.319799999999987
10
-1.304059041228447
20
36.322799999999987
10
-1.3010590412284451
20
36.326299999999989
10
-1.2982590412284445
20
36.330399999999983
10
-1.2959590412284472
20
36.334699999999984
10
-1.2940590412284481
20
36.339199999999991
10
-1.2925590412284471
20
36.343799999999995
10
-1.2914590412284488
20
36.352699999999984
10
-1.2908590412284493
20
36.362099999999984
10
-1.2890590412284464
20
36.373999999999988
10
-1.285459041228445
20
36.389599999999987
10
-1.279659041228447
20
36.410199999999989
10
-1.2714590412284466
20
36.436999999999983
10
-1.2602590412284442
20
36.471199999999982
10
-1.2458590412284476
20
36.513999999999982
10
-1.2054590412284492
20
36.630199999999988
10
-1.1973590412284452
20
36.65379999999999
10
-1.1890590412284485
20
36.678299999999979
10
-1.1807590412284474
20
36.703199999999981
10
-1.1727590412284483
20
36.727799999999988
10
-1.1649590412284461
20
36.751599999999982
10
-1.1577590412284477
20
36.773999999999987
10
-1.1511590412284489
20
36.794499999999985
10
-1.1406590412284467
20
36.827299999999987
10
-1.1366590412284472
20
36.840399999999988
10
-1.1322590412284494
20
36.854099999999988
10
-1.1275590412284453
20
36.868099999999984
10
-1.1227590412284449
20
36.88209999999998
10
-1.1179590412284446
20
36.895699999999991
10
-1.1132590412284449
20
36.9086
10
-1.1088590412284471
20
36.92049999999999
10
-1.1011590412284455
20
36.939999999999984
10
-1.097159041228446
20
36.949099999999994
10
-1.0927590412284482
20
36.961099999999988
10
-1.0880590412284485
20
36.97549999999999
10
-1.0831590412284475
20
36.991899999999987
10
-1.0782590412284465
20
37.00989999999998
10
-1.0733590412284455
20
37.028899999999965
10
-1.0686590412284458
20
37.04849999999999
10
-1.0602590412284441
20
37.087899999999991
10
-1.0557590412284457
20
37.108299999999979
10
-1.0505590412284471
20
37.130599999999987
10
-1.044959041228446
20
37.154299999999978
10
-1.0389590412284466
20
37.178699999999978
10
-1.0328590412284466
20
37.20329999999997
10
-1.0267590412284466
20
37.227499999999978
10
-1.0207590412284473
20
37.250799999999984
10
-1.009559041228445
20
37.292099999999984
10
-1.0043590412284464
20
37.31029999999997
10
-0.9991590412284479
20
37.329199999999986
10
-0.99405904122844557
20
37.348199999999991
10
-0.98925904122844965
20
37.366899999999973
10
-0.98485904122844747
20
37.384899999999988
10
-0.98085904122844791
20
37.401599999999974
10
-0.97745904122844784
20
37.416599999999974
10
-0.9728590412284488
20
37.439899999999966
10
-0.97145904122844851
20
37.44919999999999
10
-0.96995904122844756
20
37.458899999999971
10
-0.9667590412284488
20
37.478899999999982
10
-0.96525904122844786
20
37.488599999999991
10
-0.96385904122844757
20
37.497799999999977
10
-0.96245904122844728
20
37.506299999999975
10
-0.96025904122844619
20
37.520199999999981
10
-0.9588590412284459
20
37.527599999999985
10
-0.95655904122844415
20
37.537399999999991
10
-0.95365904122844736
20
37.549199999999985
10
-0.95005904122844598
20
37.562699999999992
10
-0.94595904122844576
20
37.577599999999975
10
-0.94145904122844737
20
37.593499999999977
10
-0.93655904122844635
20
37.610199999999985
10
-0.92635904122844615
20
37.64409999999998
10
-0.9209590412284463
20
37.660799999999966
10
-0.91585904122844841
20
37.677699999999987
10
-0.91115904122844427
20
37.694499999999991
10
-0.90705904122844849
20
37.710799999999978
10
-0.90355904122844333
20
37.726099999999988
10
-0.90075904122844719
20
37.740199999999987
10
-0.8985590412284461
20
37.752599999999973
10
-0.89675904122844763
20
37.770899999999976
10
-0.89645904122844566
20
37.777399999999979
10
-0.89565904122844486
20
37.783899999999981
10
-0.89425904122844457
20
37.789999999999978
10
-0.89235904122844545
20
37.795799999999971
10
-0.8901590412284488
20
37.801099999999991
10
-0.88765904122844574
20
37.805699999999973
10
-0.88475904122844451
20
37.809599999999989
10
-0.87845904122844765
20
37.814499999999981
10
-0.87445904122844365
20
37.817199999999985
10
-0.87105904122844802
20
37.82239999999998
10
-0.86795904122844547
20
37.830099999999973
10
-0.8653590412284462
20
37.840299999999978
10
-0.86315904122844511
20
37.853099999999969
10
-0.86125904122844599
20
37.868499999999976
10
-0.85965904122844883
20
37.886399999999973
10
-0.85735904122844708
20
37.929999999999993
10
-0.85525904122844665
20
37.981799999999986
10
-0.85185904122844658
20
38.035399999999981
10
-0.84755904122844949
20
38.089099999999974
10
-0.84235904122844651
20
38.14109999999998
10
-0.83665904122844914
20
38.18959999999997
10
-0.83045904122844849
20
38.232899999999987
10
-0.82425904122843896
20
38.268999999999984
10
-0.81225904122844472
20
38.313099999999984
10
-0.80985904122844232
20
38.318399999999983
10
-0.80765904122844567
20
38.324699999999993
10
-0.80545904122844014
20
38.331899999999983
10
-0.8034590412284448
20
38.339799999999968
10
-0.80165904122844189
20
38.348099999999974
10
-0.8002590412284416
20
38.356699999999989
10
-0.79915904122844328
20
38.365299999999976
10
-0.79815904122844117
20
38.382099999999966
10
-0.79795904122843986
20
38.389599999999987
10
-0.79735904122844481
20
38.396899999999974
10
-0.79645904122844335
20
38.403899999999979
10
-0.79515904122843928
20
38.410499999999971
10
-0.79365904122844277
20
38.416499999999978
10
-0.79185904122843986
20
38.421699999999973
10
-0.78985904122844453
20
38.425999999999974
10
-0.78545904122844235
20
38.431399999999982
10
-0.7832590412284457
20
38.434499999999971
10
-0.78115904122844082
20
38.440799999999982
10
-0.77935904122844235
20
38.449999999999989
10
-0.77785904122844141
20
38.461699999999972
10
-0.77655904122844177
20
38.475499999999982
10
-0.7755590412284441
20
38.491099999999975
10
-0.7747590412284433
20
38.508199999999988
10
-0.77415904122844381
20
38.545399999999987
10
-0.7739590412284425
20
38.569899999999976
10
-0.77305904122844105
20
38.591999999999977
10
-0.77165904122844076
20
38.611899999999991
10
-0.76955904122844476
20
38.629899999999978
10
-0.76665904122844353
20
38.646199999999965
10
-0.7631590412284428
20
38.66109999999999
10
-0.75875904122844506
20
38.674999999999983
10
-0.74735904122844143
20
38.700399999999973
10
-0.74265904122844173
20
38.709099999999985
10
-0.73775904122844516
20
38.717399999999969
10
-0.73285904122844414
20
38.724999999999966
10
-0.72815904122844
20
38.731899999999975
10
-0.72375904122844226
20
38.737899999999982
10
-0.71965904122844204
20
38.742799999999988
10
-0.71605904122844066
20
38.746499999999969
10
-0.71075904122844147
20
38.74959999999998
10
-0.70855904122844482
20
38.749999999999986
10
-0.70645904122843994
20
38.750999999999976
10
-0.70465904122844147
20
38.752599999999973
10
-0.70315904122844053
20
38.754699999999985
10
-0.70185904122844089
20
38.757299999999972
10
-0.70085904122844322
20
38.760299999999987
10
-0.70005904122844242
20
38.763599999999983
10
-0.69945904122844293
20
38.77079999999998
10
-0.6973590412284425
20
38.779099999999985
10
-0.69145904122843938
20
38.785399999999974
10
-0.68255904122844324
20
38.789499999999975
10
-0.67165904122844289
20
38.791599999999988
10
-0.6594590412284429
20
38.791599999999988
10
-0.64685904122844029
20
38.789499999999975
10
-0.6346590412284403
20
38.785399999999974
10
-0.61495904122844003
20
38.77079999999998
10
-0.61125904122844243
20
38.767099999999971
10
-0.60705904122844156
20
38.763599999999983
10
-0.60225904122844121
20
38.760299999999987
10
-0.59715904122843888
20
38.757299999999972
10
-0.59175904122844347
20
38.754699999999985
10
-0.58625904122844297
20
38.752599999999973
10
-0.58065904122844181
20
38.750999999999976
10
-0.56985904122844211
20
38.74959999999998
10
-0.56375904122844211
20
38.748899999999992
10
-0.55605904122844496
20
38.746899999999975
10
-0.54705904122844373
20
38.743599999999972
10
-0.53685904122844352
20
38.739299999999979
10
-0.52585904122844251
20
38.733999999999966
10
-0.51415904122844136
20
38.727899999999984
10
-0.50215904122844268
20
38.721099999999993
10
-0.47825904122844154
20
38.705999999999975
10
-0.46555904122844272
20
38.697399999999988
10
-0.4514590412284436
20
38.688499999999983
10
-0.43615904122844107
20
38.679599999999965
10
-0.42015904122844283
20
38.670799999999979
10
-0.40375904122844197
20
38.662399999999977
10
-0.3872590412284449
20
38.65449999999997
10
-0.37115904122844157
20
38.647199999999984
10
-0.34155904122844305
20
38.635599999999982
10
-0.32815904122844408
20
38.63039999999998
10
-0.31475904122844067
20
38.624499999999969
10
-0.30145904122844236
20
38.617999999999967
10
-0.28865904122844288
20
38.611099999999965
10
-0.27655904122844355
20
38.603999999999985
10
-0.26555904122844254
20
38.596799999999973
10
-0.25575904122844495
20
38.589599999999976
10
-0.24145904122844009
20
38.576399999999978
10
-0.23495904122844191
20
38.569699999999969
10
-0.22595904122844068
20
38.561799999999984
10
-0.21485904122844346
20
38.553099999999972
10
-0.20195904122844333
20
38.543599999999984
10
-0.1876590412284429
20
38.533799999999978
10
-0.17225904122844415
20
38.523699999999991
10
-0.15615904122844079
20
38.513699999999972
10
-0.12305904122844155
20
38.494699999999966
10
-0.10595904122844056
20
38.485499999999973
10
-0.087659041228440579
20
38.474899999999991
10
-0.068759041228441106
20
38.463199999999986
10
-0.049559041228439668
20
38.450799999999973
10
-0.030659041228444633
20
38.437899999999985
10
-0.012559041228441523
20
38.424799999999983
10
0.0045409587715550389
20
38.411899999999974
10
0.033340958771557197
20
38.387699999999967
10
0.046840958771556813
20
38.376199999999976
10
0.061540958771559857
20
38.364499999999992
10
0.077240958771556137
20
38.352799999999974
10
0.093540958771560781
20
38.341299999999983
10
0.1099409587715572
20
38.330399999999969
10
0.12614095877155676
20
38.320299999999975
10
0.14184095877155747
20
38.311299999999981
10
0.17004095877156014
20
38.297599999999989
10
0.18254095877155763
20
38.291699999999977
10
0.19514095877155579
20
38.285499999999985
10
0.2077409587715584
20
38.278999999999982
10
0.22004095877155905
20
38.272399999999976
10
0.23164095877155511
20
38.265799999999984
10
0.24234095877155859
20
38.259399999999971
10
0.251740958771558
20
38.253299999999975
10
0.26594095877155777
20
38.242699999999985
10
0.27154095877155449
20
38.237999999999985
10
0.2780409587715571
20
38.233399999999982
10
0.28524095877155542
20
38.228899999999975
10
0.29284095877155192
20
38.22469999999997
10
0.30074095877155482
20
38.220899999999972
10
0.30864095877155329
20
38.217399999999984
10
0.31644095877155554
20
38.214399999999969
10
0.33074095877155152
20
38.210299999999989
10
0.33784095877155362
20
38.207899999999967
10
0.34574095877155209
20
38.204599999999971
10
0.35414095877155383
20
38.200499999999984
10
0.36304095877154996
20
38.19559999999997
10
0.37204095877155119
20
38.190299999999979
10
0.38104095877155242
20
38.184399999999968
10
0.38974095877155168
20
38.178199999999975
10
0.4054409587715524
20
38.16519999999997
10
0.41244095877155384
20
38.158799999999985
10
0.4193409587715502
20
38.152799999999978
10
0.42604095877155412
20
38.147299999999973
10
0.43224095877155477
20
38.142399999999981
10
0.4380409587715528
20
38.138199999999983
10
0.44314095877155513
20
38.134699999999967
10
0.44744095877155221
20
38.132199999999976
10
0.45334095877155534
20
38.129999999999967
10
0.45594095877155016
20
38.129199999999983
10
0.46004095877155482
20
38.126999999999981
10
0.46524095877155336
20
38.123599999999982
10
0.47154095877155466
20
38.118999999999978
10
0.47874095877155298
20
38.113299999999981
10
0.48654095877155079
20
38.106799999999978
10
0.49494095877155253
20
38.099599999999967
10
0.51254095877155237
20
38.083499999999972
10
0.5223409587715544
20
38.074699999999986
10
0.53374095877155359
20
38.065499999999979
10
0.54624095877155554
20
38.055899999999966
10
0.55974095877155072
20
38.046199999999985
10
0.57364095877155297
20
38.036699999999968
10
0.58784095877155274
20
38.027599999999993
10
0.60184095877155119
20
38.01909999999998
10
0.6281409587715503
20
38.004699999999971
10
0.64044095877155094
20
37.998599999999968
10
0.65204095877155144
20
37.992599999999968
10
0.66254095877155361
20
37.986799999999974
10
0.67194095877155302
20
37.981199999999973
10
0.68004095877155279
20
37.976099999999988
10
0.68664095877155606
20
37.971399999999988
10
0.69164095877155329
20
37.967199999999991
10
0.69574095877155351
20
37.96099999999997
10
0.696340958771553
20
37.958999999999975
10
0.69814095877155147
20
37.956699999999977
10
0.70094095877155205
20
37.954299999999975
10
0.70464095877154964
20
37.951699999999988
10
0.70924095877155313
20
37.94909999999998
10
0.71454095877155233
20
37.946599999999989
10
0.72044095877155545
20
37.944199999999967
10
0.73384095877155442
20
37.939899999999973
10
0.7413409587715547
20
37.937999999999974
10
0.74954095877155513
20
37.93529999999997
10
0.7582409587715544
20
37.93189999999997
10
0.76734095877155628
20
37.927999999999983
10
0.77644095877155372
20
37.92349999999999
10
0.78554095877155561
20
37.918699999999973
10
0.79424095877155043
20
37.913599999999974
10
0.80994095877155559
20
37.903299999999973
10
0.81704095877155325
20
37.898599999999973
10
0.82424095877155157
20
37.894199999999984
10
0.83134095877155367
20
37.890099999999975
10
0.83814095877155381
20
37.886299999999977
10
0.84464095877155199
20
37.882999999999981
10
0.85054095877155067
20
37.880299999999991
10
0.85574095877155365
20
37.878299999999982
10
0.86344095877155524
20
37.876499999999979
10
0.86754095877155102
20
37.875999999999976
10
0.87294095877155531
20
37.87469999999999
10
0.87964095877155035
20
37.872599999999977
10
0.88734095877155195
20
37.869899999999973
10
0.89584095877155434
20
37.866499999999981
10
0.90514095877155309
20
37.862499999999969
10
0.91494095877155068
20
37.858099999999979
10
0.93534095877155554
20
37.848299999999981
10
0.94574095877155262
20
37.843299999999971
10
0.9561409587715497
20
37.838499999999975
10
0.96644095877155056
20
37.834099999999978
10
0.97624095877155259
20
37.830199999999991
10
0.98554095877155579
20
37.826799999999992
10
0.99404095877155374
20
37.82399999999997
10
1.001540958771554
20
37.821899999999985
10
1.0128409587715526
20
37.820199999999971
10
1.0175409587715523
20
37.81959999999998
10
1.0232409587715496
20
37.817999999999969
10
1.0295409587715554
20
37.815399999999983
10
1.0364409587715517
20
37.811999999999983
10
1.0436409587715545
20
37.807799999999986
10
1.0511409587715548
20
37.802899999999973
10
1.0587409587715557
20
37.797399999999968
10
1.0734409587715499
20
37.784999999999975
10
1.0806409587715526
20
37.778599999999969
10
1.0877409587715547
20
37.772599999999983
10
1.0948409587715524
20
37.767099999999978
10
1.1017409587715532
20
37.762199999999986
10
1.1081409587715507
20
37.757899999999992
10
1.1140409587715538
20
37.754499999999979
10
1.119340958771553
20
37.751899999999985
10
1.1270409587715546
20
37.749799999999979
10
1.1427409587715553
20
37.746199999999988
10
1.1656409587715544
20
37.736499999999978
10
1.1935409587715506
20
37.722099999999976
10
1.2240409587715506
20
37.704499999999967
10
1.2548409587715526
20
37.685199999999966
10
1.2836409587715503
20
37.66569999999998
10
1.307940958771554
20
37.647299999999987
10
1.3342409587715531
20
37.620199999999983
10
1.3394409587715517
20
37.611299999999979
10
1.3456409587715523
20
37.610399999999977
10
1.3524409587715525
20
37.616999999999976
10
1.3598409587715521
20
37.630299999999991
10
1.367440958771553
20
37.649899999999974
10
1.3751409587715502
20
37.675099999999979
10
1.3826409587715505
20
37.705199999999977
10
1.3962409587715507
20
37.777899999999974
10
1.3978409587715523
20
37.786899999999974
10
1.3997409587715515
20
37.795899999999989
10
1.4020409587715532
20
37.804799999999972
10
1.4044409587715556
20
37.81329999999997
10
1.4070409587715504
20
37.821299999999965
10
1.4096409587715542
20
37.828499999999977
10
1.4123409587715541
20
37.83489999999999
10
1.4173409587715513
20
37.844099999999976
10
1.4196409587715531
20
37.847599999999986
10
1.4219409587715548
20
37.852199999999968
10
1.4241409587715514
20
37.857899999999987
10
1.4261409587715557
20
37.864399999999989
10
1.4278409587715535
20
37.871499999999969
10
1.4293409587715544
20
37.879199999999983
10
1.4304409587715528
20
37.887099999999982
10
1.4314409587715504
20
37.903299999999973
10
1.432140958771555
20
37.911299999999969
10
1.433340958771554
20
37.919399999999968
10
1.4350409587715562
20
37.927399999999984
10
1.4371409587715522
20
37.934999999999981
10
1.4396409587715553
20
37.942099999999982
10
1.4424409587715514
20
37.948599999999985
10
1.445540958771554
20
37.954299999999975
10
1.452540958771551
20
37.962399999999974
10
1.4558409587715504
20
37.96599999999998
10
1.4588409587715523
20
37.971099999999979
10
1.4617409587715535
20
37.977499999999992
10
1.4642409587715521
20
37.984899999999975
10
1.4665409587715539
20
37.99319999999998
10
1.4683409587715524
20
38.002299999999991
10
1.4697409587715526
20
38.011799999999965
10
1.4709409587715516
20
38.031399999999991
10
1.4712409587715536
20
38.041799999999967
10
1.4722409587715513
20
38.053199999999983
10
1.4738409587715529
20
38.065299999999965
10
1.4760409587715539
20
38.077599999999983
10
1.4785409587715526
20
38.090099999999993
10
1.4815409587715545
20
38.102199999999975
10
1.4848409587715539
20
38.113899999999973
10
1.4920409587715522
20
38.134199999999993
10
1.4992409587715549
20
38.156099999999981
10
1.5048409587715517
20
38.182799999999979
10
1.5089409587715519
20
38.213499999999968
10
1.5114409587715549
20
38.247499999999981
10
1.512440958771557
20
38.284099999999981
10
1.5117409587715569
20
38.322499999999984
10
1.5095409587715602
20
38.361999999999981
10
1.500540958771559
20
38.441199999999967
10
1.4976409587715578
20
38.46149999999998
10
1.4958409587715593
20
38.482199999999978
10
1.4950409587715585
20
38.504099999999966
10
1.495340958771556
20
38.527799999999971
10
1.4967409587715563
20
38.553899999999985
10
1.49934095877156
20
38.582999999999984
10
1.5031409587715583
20
38.61569999999999
10
1.5146409587715581
20
38.694699999999983
10
1.519740958771556
20
38.726999999999983
10
1.524640958771557
20
38.759499999999974
10
1.5292409587715561
20
38.791499999999971
10
1.533440958771557
20
38.822399999999973
10
1.5372409587715596
20
38.851299999999966
10
1.5403409587715577
20
38.877699999999976
10
1.542940958771557
20
38.900699999999979
10
1.5456409587715569
20
38.934099999999972
10
1.5467409587715597
20
38.951399999999978
10
1.5483409587715569
20
38.96599999999998
10
1.5507409587715593
20
38.97829999999999
10
1.553940958771558
20
38.988799999999983
10
1.5583409587715602
20
38.997799999999984
10
1.5639409587715569
20
39.005899999999976
10
1.5711409587715597
20
39.013399999999976
10
1.5907409587715593
20
39.028499999999973
10
1.6232409587715591
20
39.048599999999979
10
1.6522409587715581
20
39.061799999999991
10
1.677840958771557
20
39.068299999999979
10
1.700140958771561
20
39.067999999999969
10
1.719040958771556
20
39.060799999999972
10
1.7346409587715561
20
39.04679999999999
10
1.7471409587715581
20
39.025999999999982
10
1.7626409587715575
20
38.963699999999974
10
1.7642409587715591
20
38.946499999999986
10
1.7651409587715561
20
38.931199999999976
10
1.7653409587715574
20
38.917799999999971
10
1.7647409587715579
20
38.905999999999992
10
1.7634409587715583
20
38.895699999999991
10
1.7613409587715578
20
38.88659999999998
10
1.7584409587715566
20
38.878599999999977
10
1.7499409587715586
20
38.865099999999977
10
1.7456409587715571
20
38.860199999999985
10
1.7414409587715607
20
38.853899999999975
10
1.7371409587715592
20
38.846399999999974
10
1.7330409587715589
20
38.838199999999986
10
1.7292409587715607
20
38.829299999999982
10
1.7256409587715549
20
38.819999999999979
10
1.7224409587715561
20
38.810499999999983
10
1.7175409587715595
20
38.791899999999977
10
1.7154409587715591
20
38.782899999999984
10
1.7130409587715567
20
38.773699999999991
10
1.7103409587715568
20
38.764699999999976
10
1.7075409587715562
20
38.756099999999982
10
1.704640958771555
20
38.74799999999999
10
1.7016409587715575
20
38.740699999999975
10
1.6988409587715569
20
38.734399999999965
10
1.6935409587715577
20
38.725699999999975
10
1.690940958771554
20
38.72199999999998
10
1.688840958771558
20
38.717599999999983
10
1.6870409587715596
20
38.71269999999997
10
1.6857409587715555
20
38.707399999999978
10
1.6849409587715591
20
38.701699999999981
10
1.6846409587715572
20
38.695999999999984
10
1.6847409587715578
20
38.69019999999999
10
1.6865409587715607
20
38.67919999999998
10
1.6877409587715553
20
38.674299999999988
10
1.6885409587715561
20
38.669799999999981
10
1.688840958771558
20
38.665899999999965
10
1.688840958771558
20
38.662699999999987
10
1.6883409587715592
20
38.660099999999971
10
1.6874409587715578
20
38.658299999999969
10
1.6861409587715581
20
38.657299999999992
10
1.6823409587715599
20
38.658099999999976
10
1.6789409587715598
20
38.659899999999965
10
1.6760409587715586
20
38.659599999999976
10
1.6737409587715568
20
38.655899999999974
10
1.671740958771557
20
38.647399999999976
10
1.6700409587715592
20
38.632899999999992
10
1.668340958771557
20
38.611099999999965
10
1.6666409587715592
20
38.580399999999969
10
1.6625409587715589
20
38.487699999999982
10
1.6615409587715568
20
38.466799999999992
10
1.6603409587715579
20
38.446799999999968
10
1.6589409587715576
20
38.427799999999976
10
1.6574409587715611
20
38.410399999999981
10
1.6557409587715544
20
38.394799999999982
10
1.6540409587715565
20
38.381399999999971
10
1.6522409587715581
20
38.370599999999975
10
1.6484409587715598
20
38.358099999999965
10
1.6461409587715581
20
38.348899999999979
10
1.6472409587715564
20
38.335899999999974
10
1.6515409587715579
20
38.319799999999979
10
1.6586409587715556
20
38.301399999999987
10
1.6681409587715601
20
38.281499999999973
10
1.6797409587715562
20
38.260799999999975
10
1.6929409587715583
20
38.240099999999977
10
1.7231409587715607
20
38.201799999999992
10
1.7315409587715536
20
38.193499999999986
10
1.7415409587715525
20
38.184699999999978
10
1.752840958771551
20
38.175599999999989
10
1.765040958771551
20
38.166499999999971
10
1.7779409587715556
20
38.157599999999974
10
1.7912409587715539
20
38.149099999999976
10
1.8046409587715528
20
38.141299999999987
10
1.8302409587715518
20
38.128599999999992
10
1.8493409587715526
20
38.120199999999969
10
1.8644409587715538
20
38.11399999999999
10
1.8763409587715518
20
38.109699999999975
10
1.8857409587715512
20
38.107499999999987
10
1.8931409587715509
20
38.107199999999978
10
1.8993409587715515
20
38.108999999999966
10
1.9047409587715558
20
38.11269999999999
10
1.9162409587715512
20
38.12579999999997
10
1.928340958771555
20
38.141799999999989
10
1.9392409587715553
20
38.15809999999999
10
1.9492409587715587
20
38.174999999999969
10
1.9582409587715599
20
38.192799999999991
10
1.9664409587715559
20
38.211899999999979
10
1.9739409587715562
20
38.232399999999984
10
1.9809409587715621
20
38.254699999999971
10
1.9937409587715615
20
38.305999999999969
10
1.9974409587715636
20
38.321499999999986
10
2.00164095877156
20
38.336799999999975
10
2.0063409587715597
20
38.351599999999983
10
2.0112409587715652
20
38.365499999999969
10
2.0164409587715637
20
38.378299999999967
10
2.0216409587715622
20
38.389599999999987
10
2.0267409587715646
20
38.399099999999976
10
2.0360409587715633
20
38.411699999999982
10
2.0406409587715624
20
38.416599999999974
10
2.0460409587715622
20
38.423799999999986
10
2.0518409587715603
20
38.432799999999986
10
2.0581409587715616
20
38.443499999999986
10
2.0647409587715648
20
38.455399999999983
10
2.0714409587715599
20
38.468399999999988
10
2.0781409587715638
20
38.482099999999981
10
2.0910409587715639
20
38.510199999999983
10
2.1093409587715639
20
38.554599999999972
10
2.1283409587715596
20
38.597899999999967
10
2.1476409587715617
20
38.63949999999997
10
2.1668409587715631
20
38.678799999999981
10
2.1856409587715619
20
38.715099999999993
10
2.2035409587715638
20
38.747599999999984
10
2.2203409587715628
20
38.775599999999969
10
2.2488409587715585
20
38.815799999999982
10
2.253440958771562
20
38.821899999999978
10
2.2596409587715627
20
38.83059999999999
10
2.2670409587715623
20
38.841499999999982
10
2.2756409587715609
20
38.85439999999997
10
2.2850409587715603
20
38.868799999999979
10
2.2950409587715637
20
38.884499999999989
10
2.3054409587715652
20
38.900999999999968
10
2.32634095877156
20
38.935499999999976
10
2.337040958771559
20
38.952799999999982
10
2.3481409587715651
20
38.97039999999997
10
2.3595409587715599
20
38.988099999999974
10
2.3708409587715629
20
39.00539999999998
10
2.3818409587715639
20
39.021799999999978
10
2.3923409587715616
20
39.036899999999974
10
2.402040958771563
20
39.050399999999982
10
2.4179409587715606
20
39.070699999999974
10
2.4405409587715621
20
39.092999999999982
10
2.4715409587715653
20
39.116299999999967
10
2.5093409587715598
20
39.139699999999991
10
2.5523409587715618
20
39.162699999999973
10
2.5989409587715606
20
39.184399999999968
10
2.647440958771563
20
39.203999999999972
10
2.6963409587715637
20
39.220999999999989
10
2.7886409587715644
20
39.243999999999986
10
2.8312409587715637
20
39.248699999999985
10
2.8819409587715628
20
39.251799999999974
10
2.9374409587715622
20
39.253199999999993
10
2.9946409587715639
20
39.252999999999986
10
3.0504409587715609
20
39.25139999999999
10
3.1016409587715632
20
39.248299999999986
10
3.1450409587715633
20
39.243899999999968
10
3.1959409587715637
20
39.23129999999999
10
3.2000409587715595
20
39.228599999999986
10
3.2066409587715627
20
39.225299999999983
10
3.2153409587715664
20
39.221399999999988
10
3.2258409587715597
20
39.217199999999991
10
3.2379409587715635
20
39.212599999999966
10
3.2512409587715618
20
39.207799999999992
10
3.2656409587715629
20
39.202899999999978
10
3.2960409587715622
20
39.193299999999965
10
3.3115409587715661
20
39.188199999999966
10
3.3268409587715642
20
39.182599999999965
10
3.3416409587715634
20
39.176599999999979
10
3.3557409587715625
20
39.170399999999987
10
3.3687409587715633
20
39.163999999999973
10
3.3804409587715645
20
39.15779999999998
10
3.3905409587715596
20
39.15179999999998
10
3.4045409587715625
20
39.141099999999973
10
3.4090409587715653
20
39.136599999999987
10
3.4138409587715657
20
39.132299999999987
10
3.4189409587715636
20
39.128299999999982
10
3.4242409587715628
20
39.124799999999965
10
3.429540958771562
20
39.121699999999976
10
3.4347409587715605
20
39.119199999999985
10
3.4396409587715659
20
39.117399999999982
10
3.4482409587715601
20
39.115799999999972
10
3.452440958771561
20
39.115299999999991
10
3.4574409587715627
20
39.11399999999999
10
3.4631409587715645
20
39.111899999999977
10
3.4692409587715645
20
39.109199999999973
10
3.4758409587715633
20
39.105799999999974
10
3.4826409587715634
20
39.101799999999969
10
3.4895409587715598
20
39.097399999999979
10
3.5031409587715601
20
39.087599999999973
10
3.5117409587715631
20
39.081899999999976
10
3.5238409587715624
20
39.074399999999976
10
3.539140958771565
20
39.065399999999983
10
3.557140958771563
20
39.055099999999982
10
3.5773409587715621
20
39.043899999999979
10
3.5992409587715635
20
39.031899999999965
10
3.6224409587715645
20
39.019599999999969
10
3.6709409587715625
20
38.994699999999973
10
3.6955409587715637
20
38.981699999999989
10
3.7203409587715619
20
38.968299999999978
10
3.7447409587715619
20
38.954699999999974
10
3.7681409587715642
20
38.941399999999987
10
3.7902409587715624
20
38.928499999999971
10
3.8103409587715653
20
38.916299999999993
10
3.8280409587715614
20
38.905299999999983
10
3.8541409587715636
20
38.887699999999974
10
3.8636409587715637
20
38.88069999999999
10
3.8732409587715644
20
38.874199999999988
10
3.88274095877156
20
38.867999999999974
10
3.8919409587715625
20
38.862499999999969
10
3.9006409587715618
20
38.857699999999973
10
3.9086409587715609
20
38.853799999999978
10
3.9156409587715624
20
38.850799999999985
10
3.9259409587715632
20
38.848199999999977
10
3.9300409587715635
20
38.847799999999992
10
3.9347409587715632
20
38.846499999999992
10
3.9398409587715655
20
38.844399999999979
10
3.9452409587715609
20
38.841699999999975
10
3.9507409587715614
20
38.838399999999979
10
3.9562409587715663
20
38.83469999999997
10
3.9615409587715611
20
38.830499999999972
10
3.9710409587715612
20
38.821499999999972
10
3.9762409587715641
20
38.816299999999977
10
3.9821409587715628
20
38.811199999999971
10
3.9886409587715654
20
38.806299999999965
10
3.9956409587715624
20
38.801699999999983
10
4.0029409587715614
20
38.797299999999986
10
4.010340958771561
20
38.793399999999991
10
4.0177409587715651
20
38.789999999999978
10
4.0316409587715629
20
38.784799999999976
10
4.0383409587715624
20
38.782899999999984
10
4.0458409587715627
20
38.779899999999969
10
4.0540409587715631
20
38.775999999999975
10
4.0627409587715624
20
38.771399999999971
10
4.0715409587715623
20
38.76609999999998
10
4.0802409587715616
20
38.760299999999987
10
4.0886409587715633
20
38.754199999999983
10
4.1035409587715632
20
38.741199999999978
10
4.1110409587715635
20
38.735099999999974
10
4.1190409587715626
20
38.728899999999982
10
4.127540958771565
20
38.722999999999971
10
4.1363409587715649
20
38.71729999999998
10
4.1451409587715604
20
38.711999999999982
10
4.1537409587715635
20
38.707299999999982
10
4.1620409587715645
20
38.703199999999981
10
4.1768409587715638
20
38.697499999999977
10
4.2070409587715618
20
38.68389999999998
10
4.2528409587715643
20
38.65449999999997
10
4.3115409587715625
20
38.611599999999981
10
4.3808409587715635
20
38.557299999999977
10
4.4579409587715624
20
38.493499999999976
10
4.5405409587715617
20
38.422399999999968
10
4.6260409587715623
20
38.346199999999975
10
4.7955409587715625
20
38.186299999999989
10
4.8466409587715598
20
38.134799999999984
10
4.8881409587715607
20
38.088699999999989
10
4.9203409587715585
20
38.047599999999981
10
4.9435409587715595
20
38.010699999999972
10
4.9579409587715606
20
37.977599999999967
10
4.9639409587715599
20
37.947599999999966
10
4.9617409587715589
20
37.920299999999969
10
4.9336409587715613
20
37.870899999999992
10
4.9246409587715601
20
37.862199999999987
10
4.914840958771558
20
37.854699999999966
10
4.9035409587715595
20
37.848299999999981
10
4.8899409587715592
20
37.842799999999968
10
4.873340958771557
20
37.837799999999987
10
4.8529409587715611
20
37.83329999999998
10
4.8280409587715578
20
37.828999999999979
10
4.7617409587715587
20
37.820199999999971
10
4.7034409587715587
20
37.81359999999998
10
4.6463409587715576
20
37.80889999999998
10
4.5891409587715604
20
37.806099999999972
10
4.5307409587715552
20
37.805099999999982
10
4.469840958771556
20
37.806099999999972
10
4.4053409587715597
20
37.80889999999998
10
4.3360409587715587
20
37.81359999999998
10
4.1782409587715597
20
37.82859999999998
10
4.1387409587715585
20
37.832799999999978
10
4.0960409587715585
20
37.836899999999986
10
4.0512409587715581
20
37.840899999999991
10
4.0055409587715607
20
37.844499999999982
10
3.9600409587715601
20
37.847799999999978
10
3.9158409587715592
20
37.850599999999979
10
3.8739409587715601
20
37.852899999999977
10
3.8019409587715591
20
37.855399999999975
10
3.7710409587715565
20
37.855999999999966
10
3.7413409587715618
20
37.856899999999968
10
3.713640958771558
20
37.857999999999983
10
3.688340958771561
20
37.859399999999965
10
3.6659409587715563
20
37.86089999999998
10
3.6469409587715607
20
37.862599999999986
10
3.6319409587715601
20
37.864299999999972
10
3.6159409587715574
20
37.86809999999997
10
3.6112409587715577
20
37.869499999999974
10
3.6022409587715565
20
37.870799999999974
10
3.5893409587715608
20
37.872199999999978
10
3.5730409587715561
20
37.87339999999999
10
3.5538409587715591
20
37.874599999999973
10
3.5321409587715591
20
37.875699999999966
10
3.5083409587715586
20
37.876599999999968
10
3.4566409587715574
20
37.877899999999975
10
3.4302409587715577
20
37.878599999999985
10
3.4047409587715594
20
37.879599999999982
10
3.3807409587715576
20
37.880999999999986
10
3.3586409587715593
20
37.882599999999975
10
3.3389409587715591
20
37.884499999999974
10
3.32214095877156
20
37.886599999999987
10
3.3085409587715597
20
37.888799999999989
10
3.2932409587715616
20
37.893399999999971
10
3.2786409587715593
20
37.897399999999983
10
3.2469409587715559
20
37.90179999999998
10
3.2019409587715586
20
37.906299999999987
10
3.1473409587715606
20
37.910699999999977
10
3.087140958771557
20
37.914699999999968
10
3.0251409587715594
20
37.917999999999985
10
2.9650409587715565
20
37.920399999999987
10
2.8661409587715569
20
37.92159999999997
10
2.858840958771558
20
37.921399999999977
10
2.8502409587715594
20
37.921799999999983
10
2.840540958771558
20
37.922699999999985
10
2.8300409587715603
20
37.924099999999967
10
2.8190409587715592
20
37.925799999999974
10
2.8077409587715563
20
37.927899999999966
10
2.7963409587715571
20
37.930299999999981
10
2.7745409587715564
20
37.935699999999969
10
2.7532409587715545
20
37.941199999999981
10
2.7314409587715582
20
37.945699999999988
10
2.7064409587715588
20
37.949399999999969
10
2.6753409587715549
20
37.95259999999999
10
2.6354409587715555
20
37.955599999999983
10
2.583840958771555
20
37.958499999999979
10
2.5176409587715565
20
37.96159999999999
10
2.3306409587715566
20
37.969399999999979
10
2.0698409587715578
20
37.979299999999974
10
2.0529409587715586
20
37.945499999999974
10
2.0475409587715543
20
37.93189999999997
10
2.0417409587715607
20
37.914399999999979
10
2.0360409587715589
20
37.894299999999973
10
2.0305409587715584
20
37.872899999999987
10
2.0255409587715567
20
37.851399999999984
10
2.0215409587715572
20
37.830999999999975
10
2.0186409587715559
20
37.812999999999981
10
2.0177409587715589
20
37.78919999999998
10
2.0178409587715596
20
37.785699999999984
10
2.0172409587715601
20
37.779199999999982
10
2.0160409587715566
20
37.769999999999975
10
2.0142409587715582
20
37.758399999999966
10
2.0119409587715564
20
37.744799999999969
10
2.0090409587715552
20
37.72949999999998
10
2.0057409587715558
20
37.712799999999973
10
1.9980409587715586
20
37.676499999999976
10
1.994340958771561
20
37.657399999999974
10
1.9907409587715552
20
37.637699999999974
10
1.9875409587715565
20
37.617999999999974
10
1.984540958771559
20
37.59869999999998
10
1.9819409587715553
20
37.58029999999998
10
1.9798409587715593
20
37.563199999999966
10
1.9782409587715577
20
37.547899999999984
10
1.9768409587715574
20
37.524399999999986
10
1.9764409587715592
20
37.512499999999989
10
1.9750409587715589
20
37.495199999999969
10
1.9730409587715592
20
37.473099999999988
10
1.9702409587715586
20
37.446899999999985
10
1.9668409587715541
20
37.417399999999986
10
1.962840958771559
20
37.385199999999976
10
1.9584409587715568
20
37.350999999999971
10
1.9486409587715592
20
37.279399999999967
10
1.9437409587715582
20
37.244399999999978
10
1.9392409587715553
20
37.211099999999973
10
1.9353409587715564
20
37.180199999999971
10
1.932040958771557
20
37.152199999999965
10
1.9295409587715584
20
37.12769999999999
10
1.9276409587715593
20
37.107299999999981
10
1.9267409587715578
20
37.091599999999971
10
1.9275409587715586
20
37.076599999999971
10
1.9286409587715569
20
37.075199999999967
10
1.9293409587715571
20
37.072999999999965
10
1.9294409587715577
20
37.069999999999972
10
1.9291409587715602
20
37.066399999999987
10
1.928340958771555
20
37.062299999999979
10
1.9270409587715553
20
37.057799999999972
10
1.9252409587715569
20
37.052999999999976
10
1.9204409587715565
20
37.042799999999971
10
1.9180409587715541
20
37.034199999999977
10
1.9154409587715593
20
37.018199999999979
10
1.9128409587715556
20
36.995599999999975
10
1.9101409587715557
20
36.96729999999998
10
1.9075409587715564
20
36.933999999999983
10
1.905140958771554
20
36.896499999999996
10
1.9029409587715529
20
36.855599999999981
10
1.8993409587715515
20
36.766799999999989
10
1.8973409587715517
20
36.714699999999986
10
1.8951409587715506
20
36.667299999999983
10
1.8927409587715527
20
36.624799999999979
10
1.8900409587715528
20
36.587299999999985
10
1.8871409587715515
20
36.554599999999979
10
1.8839409587715528
20
36.526999999999987
10
1.880440958771552
20
36.504599999999982
10
1.8725409587715536
20
36.47529999999999
10
1.8692409587715497
20
36.464899999999993
10
1.8657409587715534
20
36.450199999999981
10
1.8621409587715521
20
36.431799999999981
10
1.8587409587715564
20
36.410199999999989
10
1.8554409587715526
20
36.385899999999999
10
1.8524409587715507
20
36.359599999999986
10
1.8497409587715552
20
36.331699999999991
10
1.8458409587715519
20
36.273899999999983
10
1.8446409587715529
20
36.24469999999998
10
1.8429409587715506
20
36.216799999999992
10
1.8409409587715553
20
36.1907
10
1.8387409587715497
20
36.166699999999992
10
1.8362409587715556
20
36.145499999999984
10
1.8336409587715519
20
36.127499999999984
10
1.8310409587715526
20
36.113199999999992
10
1.8260409587715509
20
36.097799999999999
10
1.8201409587715522
20
36.087699999999991
10
1.8146409587715562
20
36.072099999999992
10
1.8096409587715501
20
36.050999999999995
10
1.8049409587715504
20
36.024499999999989
10
1.8007409587715539
20
35.992299999999986
10
1.7969409587715512
20
35.954499999999989
10
1.7935409587715556
20
35.910899999999984
10
1.7880409587715507
20
35.806299999999986
10
1.7852409587715501
20
35.74769999999998
10
1.7826409587715553
20
35.697699999999983
10
1.7798409587715547
20
35.65509999999999
10
1.7769409587715534
20
35.618599999999986
10
1.773640958771554
20
35.586999999999989
10
1.7698409587715513
20
35.558999999999983
10
1.7654409587715536
20
35.533299999999983
10
1.7541409587715551
20
35.483799999999988
10
1.7511409587715532
20
35.472499999999982
10
1.7484409587715533
20
35.461199999999991
10
1.7463409587715528
20
35.450199999999981
10
1.744640958771555
20
35.439699999999988
10
1.7434409587715516
20
35.429999999999993
10
1.7428409587715565
20
35.421199999999985
10
1.7427409587715514
20
35.413799999999981
10
1.744340958771553
20
35.40349999999998
10
1.7454409587715514
20
35.3996
10
1.7459409587715546
20
35.394299999999987
10
1.745840958771554
20
35.387999999999991
10
1.7453409587715507
20
35.380799999999979
10
1.7442409587715524
20
35.37299999999999
10
1.7427409587715514
20
35.364599999999982
10
1.7408409587715523
20
35.35599999999998
10
1.7358409587715551
20
35.338799999999992
10
1.7334409587715527
20
35.326799999999992
10
1.7310409587715547
20
35.308299999999988
10
1.7286409587715523
20
35.284199999999984
10
1.7262409587715544
20
35.255099999999985
10
1.7240409587715533
20
35.221899999999991
10
1.7219409587715528
20
35.185399999999987
10
1.7201409587715544
20
35.146399999999993
10
1.7175409587715551
20
35.064099999999982
10
1.716540958771553
20
35.014499999999984
10
1.7152409587715534
20
34.970699999999979
10
1.7136409587715518
20
34.93249999999999
10
1.7117409587715526
20
34.899799999999985
10
1.709540958771556
20
34.872499999999988
10
1.7069409587715523
20
34.85029999999999
10
1.7038409587715542
20
34.833199999999991
10
1.6964409587715545
20
34.813499999999991
10
1.6926409587715563
20
34.809799999999981
10
1.6881409587715535
20
34.806299999999979
10
1.6829409587715505
20
34.80299999999999
10
1.6773409587715538
20
34.799999999999983
10
1.6713409587715544
20
34.797399999999989
10
1.6651409587715538
20
34.795299999999983
10
1.6589409587715531
20
34.793699999999987
10
1.6470409587715551
20
34.792299999999983
10
1.6391409587715566
20
34.792699999999989
10
1.6323409587715521
20
34.793899999999979
10
1.6264409587715534
20
34.796099999999981
10
1.6213409587715555
20
34.799299999999988
10
1.6169409587715533
20
34.803699999999999
10
1.6132409587715557
20
34.80919999999999
10
1.6100409587715525
20
34.816199999999988
10
1.604840958771554
20
34.83459999999998
10
1.6023409587715509
20
34.842899999999986
10
1.598740958771554
20
34.851499999999987
10
1.5942409587715511
20
34.860499999999988
10
1.5888409587715557
20
34.869399999999985
10
1.5828409587715564
20
34.878199999999993
10
1.57644095877155
20
34.88669999999999
10
1.5695409587715536
20
34.894499999999979
10
1.5554409587715545
20
34.90779999999998
10
1.5440409587715509
20
34.916199999999989
10
1.5350409587715541
20
34.923799999999986
10
1.528240958771554
20
34.931299999999979
10
1.523340958771553
20
34.939299999999989
10
1.5203409587715555
20
34.948499999999989
10
1.5188409587715546
20
34.959499999999998
10
1.5186409587715533
20
34.972799999999992
10
1.5216409587715507
20
35.0092
10
1.5247409587715532
20
35.037999999999982
10
1.52764095877155
20
35.063299999999984
10
1.5305409587715513
20
35.08659999999999
10
1.5336409587715538
20
35.10929999999999
10
1.5372409587715552
20
35.132799999999989
10
1.541340958771551
20
35.158599999999993
10
1.5463409587715526
20
35.188099999999991
10
1.5597409587715516
20
35.264099999999985
10
1.563340958771553
20
35.285499999999985
10
1.5669409587715544
20
35.308099999999982
10
1.5702409587715538
20
35.331199999999981
10
1.5732409587715512
20
35.354399999999984
10
1.5759409587715512
20
35.377199999999995
10
1.5782409587715529
20
35.39889999999999
10
1.580140958771552
20
35.419099999999986
10
1.5822409587715525
20
35.452799999999982
10
1.5829409587715526
20
35.466999999999985
10
1.5839409587715503
20
35.48099999999998
10
1.5853409587715506
20
35.494799999999984
10
1.5871409587715535
20
35.507899999999992
10
1.5890409587715526
20
35.520099999999985
10
1.5913409587715543
20
35.531099999999981
10
1.5937409587715523
20
35.540599999999991
10
1.5991409587715522
20
35.55419999999998
10
1.6015409587715546
20
35.561599999999984
10
1.6040409587715532
20
35.573899999999981
10
1.6064409587715511
20
35.590699999999984
10
1.6089409587715542
20
35.611299999999986
10
1.6112409587715515
20
35.635199999999983
10
1.6134409587715526
20
35.661899999999989
10
1.615540958771553
20
35.690699999999993
10
1.6188409587715524
20
35.752799999999986
10
1.6199409587715552
20
35.78459999999999
10
1.6213409587715555
20
35.815899999999985
10
1.622840958771552
20
35.845899999999986
10
1.6245409587715542
20
35.874199999999988
10
1.6263409587715527
20
35.900099999999988
10
1.6280409587715505
20
35.922999999999988
10
1.6298409587715534
20
35.942499999999981
10
1.6329409587715515
20
35.968299999999985
10
1.6349409587715558
20
35.977499999999992
10
1.6371409587715524
20
35.989799999999988
10
1.6394409587715542
20
36.004699999999985
10
1.6418409587715521
20
36.021699999999981
10
1.6442409587715545
20
36.04049999999998
10
1.6467409587715531
20
36.06049999999999
10
1.6492409587715517
20
36.081199999999988
10
1.6541409587715528
20
36.123199999999983
10
1.6566409587715514
20
36.144299999999987
10
1.6595409587715526
20
36.165899999999979
10
1.6626409587715552
20
36.187699999999992
10
1.6658409587715539
20
36.208999999999989
10
1.6691409587715533
20
36.229399999999991
10
1.6723409587715521
20
36.24839999999999
10
1.6754409587715502
20
36.265499999999989
10
1.6809409587715551
20
36.29219999999998
10
1.6837409587715557
20
36.304099999999991
10
1.6866409587715525
20
36.318799999999982
10
1.6895409587715537
20
36.335899999999981
10
1.6923409587715499
20
36.354899999999986
10
1.6950409587715543
20
36.375199999999992
10
1.6976409587715535
20
36.396299999999982
10
1.6998409587715502
20
36.417799999999986
10
1.703440958771556
20
36.459799999999987
10
1.7050409587715532
20
36.480299999999986
10
1.7070409587715529
20
36.500299999999982
10
1.7091409587715534
20
36.519499999999987
10
1.7115409587715513
20
36.537299999999988
10
1.7140409587715544
20
36.553499999999985
10
1.716540958771553
20
36.567599999999985
10
1.7189409587715554
20
36.579299999999996
10
1.7231409587715563
20
36.593599999999988
10
1.7252409587715523
20
36.597899999999981
10
1.7268409587715539
20
36.60329999999999
10
1.727840958771556
20
36.609699999999989
10
1.728440958771551
20
36.61669999999998
10
1.728440958771551
20
36.62439999999998
10
1.727840958771556
20
36.63239999999999
10
1.7268409587715539
20
36.640599999999992
10
1.7231409587715563
20
36.656899999999979
10
1.721140958771552
20
36.666099999999986
10
1.7195409587715504
20
36.675599999999989
10
1.7185409587715528
20
36.68549999999999
10
1.7180409587715539
20
36.695399999999992
10
1.7182409587715508
20
36.705399999999983
10
1.7189409587715554
20
36.715199999999982
10
1.7201409587715544
20
36.724799999999995
10
1.7245409587715566
20
36.742799999999988
10
1.7268409587715539
20
36.75109999999998
0
LINE
5
166
100
AcDbEntity
8
0
100
AcDbLine
10
23.526370479385893
20
44.961221357609269
30
0
11
12.306370479385876
21
44.961221357609276
31
0
0
LINE
5
167
100
AcDbEntity
8
0
100
AcDbLine
10
5.5527409587715688
20
45.010000000000076
30
0
11
-5.6672590412282702
21
45.010000000000083
31
0
0
ENDSEC
0
SECTION
2
OBJECTS
0
DICTIONARY
5
C
100
AcDbDictionary
3
ACAD_GROUP
350
D
3
ACAD_MLINESTYLE
350
17
0
DICTIONARY
5
D
100
AcDbDictionary
0
DICTIONARY
5
1A
330
C
100
AcDbDictionary
0
DICTIONARY
5
17
100
AcDbDictionary
0
ENDSEC
0
EOF
