0
SECTION
2
HEADER
9
$INSUNITS
70
4
9
$ACADVER
1
AC1014
9
$HANDSEED
5
FFFF
0
ENDSEC
0
SECTION
2
TABLES
0
TABLE
2
VPORT
5
8
100
AcDbSymbolTable
0
ENDTAB
0
TABLE
2
LTYPE
5
5
100
AcDbSymbolTable
0
LTYPE
5
14
100
AcDbSymbolTableRecord
100
AcDbLinetypeTableRecord
2
BYBLOCK
70
0
0
LTYPE
5
15
100
AcDbSymbolTableRecord
100
AcDbLinetypeTableRecord
2
BYLAYER
70
0
0
LTYPE
5
16
100
AcDbSymbolTableRecord
100
AcDbLinetypeTableRecord
2
DASHED
70
0
3
Dashed __ __ __ __ __ __ __ __ __ __ __ __ __ _
72
65
73
2
40
0.75
49
0.5
74
0
49
-0.25
74
0
0
ENDTAB
0
TABLE
2
LAYER
5
2
100
AcDbSymbolTable
70
2
0
LAYER
5
50
100
AcDbSymbolTableRecord
100
AcDbLayerTableRecord
2
0
70
0
62
7
6
CONTINUOUS
0
ENDTAB
0
TABLE
2
STYLE
5
3
100
AcDbSymbolTable
70
1
0
STYLE
5
11
100
AcDbSymbolTableRecord
100
AcDbTextStyleTableRecord
2
STANDARD
70
0
0
ENDTAB
0
TABLE
2
VIEW
5
6
100
AcDbSymbolTable
70
0
0
ENDTAB
0
TABLE
2
UCS
5
7
100
AcDbSymbolTable
70
0
0
ENDTAB
0
TABLE
2
APPID
5
9
100
AcDbSymbolTable
70
2
0
APPID
5
12
100
AcDbSymbolTableRecord
100
AcDbRegAppTableRecord
2
ACAD
70
0
0
ENDTAB
0
TABLE
2
DIMSTYLE
5
A
100
AcDbSymbolTable
70
1
0
ENDTAB
0
TABLE
2
BLOCK_RECORD
5
1
100
AcDbSymbolTable
70
1
0
BLOCK_RECORD
5
1F
100
AcDbSymbolTableRecord
100
AcDbBlockTableRecord
2
*MODEL_SPACE
0
BLOCK_RECORD
5
1B
100
AcDbSymbolTableRecord
100
AcDbBlockTableRecord
2
*PAPER_SPACE
0
ENDTAB
0
ENDSEC
0
SECTION
2
BLOCKS
0
BLOCK
5
20
100
AcDbEntity
100
AcDbBlockBegin
2
*MODEL_SPACE
0
ENDBLK
5
21
100
AcDbEntity
100
AcDbBlockEnd
0
BLOCK
5
1C
100
AcDbEntity
100
AcDbBlockBegin
2
*PAPER_SPACE
0
ENDBLK
5
1D
100
AcDbEntity
100
AcDbBlockEnd
0
ENDSEC
0
SECTION
2
ENTITIES
0
LWPOLYLINE
5
100
100
AcDbEntity
8
0
100
AcDbPolyline
90
8
70
1
43
0.0
10
47.500000000000007
20
-217.00000000000003
42
0.41421356237309631
10
45.500000000000007
20
-215.00000000000003
10
-45.500000000000007
20
-215
42
0.41421356237309631
10
-47.500000000000007
20
-217.00000000000003
10
-47.5
20
-313
42
0.41421356237309631
10
-45.500000000000007
20
-314.99999999999994
10
45.500000000000007
20
-315
42
0.41421356237309503
10
47.5
20
-313
0
LINE
5
101
100
AcDbEntity
8
0
100
AcDbLine
10
-47.5
20
105.99999999999997
30
0
11
-47.5
21
-345
31
0
0
LINE
5
102
100
AcDbEntity
8
0
100
AcDbLine
10
-37.500000000000007
20
-345
30
0
11
-37.500000000000007
21
106.00000000000001
31
0
6
DASHED
0
LINE
5
103
100
AcDbEntity
8
0
100
AcDbLine
10
37.421586625084352
20
-355
30
0
11
37.421586625084352
21
96.000000000000014
31
0
6
DASHED
0
LINE
5
104
100
AcDbEntity
8
0
100
AcDbLine
10
47.421586625084345
20
95.999999999999972
30
0
11
47.421586625084345
21
-355
31
0
0
LWPOLYLINE
5
105
100
AcDbEntity
8
0
100
AcDbPolyline
90
8
70
1
43
0.0
10
23.912740958771668
20
-220.6351836739899
10
-26.087259041228439
20
-220.63518367398956
42
0.41421399999999864
10
-29.087259041228467
20
-223.63518367398953
10
-29.087259041229029
20
-302.63518367398956
42
0.41421400000000336
10
-26.087259041229043
20
-305.63518367398962
10
23.912740958771064
20
-305.63518367398996
42
0.41421400000000641
10
26.912740958771106
20
-302.63518367398996
10
26.912740958771707
20
-223.63518367398996
42
0.41421400000000641
0
LWPOLYLINE
5
106
100
AcDbEntity
8
0
100
AcDbPolyline
90
2
70
1
43
0.0
10
22.942740958771601
20
-229.80518367398992
10
-23.517259041228542
20
-223.13518367398956
0
LWPOLYLINE
5
107
100
AcDbEntity
8
0
100
AcDbPolyline
90
4
70
1
43
0.0
10
21.3427409587716
20
-228.20518367398992
10
22.942740958771605
20
-228.20518367398992
10
-25.117259041228547
20
-223.13518367398956
10
21.342740958771596
20
-229.80518367398992
0
LINE
5
108
100
AcDbEntity
8
0
100
AcDbLine
10
0
20
-315
30
0
11
0
21
-215
31
0
6
DASHED
0
LINE
5
109
100
AcDbEntity
8
0
100
AcDbLine
10
47.500000000000007
20
-217.00000000000003
30
0
11
47.500000000000007
21
-215.00000000000003
31
0
0
LINE
5
110
100
AcDbEntity
8
0
100
AcDbLine
10
47.500000000000007
20
-215.00000000000003
30
0
11
45.500000000000007
21
-215.00000000000003
31
0
0
LINE
5
111
100
AcDbEntity
8
0
100
AcDbLine
10
-36.499999985098846
20
-355
30
0
11
-36.499999985098846
21
106.00000000000001
31
0
0
LINE
5
112
100
AcDbEntity
8
0
100
AcDbLine
10
36.421586610183191
20
-355
30
0
11
36.421586610183191
21
106.00000000000001
31
0
0
LINE
5
113
100
AcDbEntity
8
0
100
AcDbLine
10
-45.500000000000007
20
-215
30
0
11
-47.5
21
-215
31
0
0
LINE
5
114
100
AcDbEntity
8
0
100
AcDbLine
10
0
20
-315
30
0
11
-20
21
-314.99999999999994
31
0
6
DASHED
0
LINE
5
115
100
AcDbEntity
8
0
100
AcDbLine
10
-20
20
-314.99999999999994
30
0
11
-19.999999999999996
21
-310.13367590061603
31
0
6
DASHED
0
CIRCLE
5
116
100
AcDbEntity
8
0
100
AcDbCircle
10
-19.999999999999996
20
-310.13367590061603
30
0
40
1.5999999999999959
210
0
220
0
230
1
0
CIRCLE
5
117
100
AcDbEntity
8
0
100
AcDbCircle
10
20.000000000000007
20
-310.13367590059397
30
0
40
1.5999999999999959
210
0
220
0
230
1
0
CIRCLE
5
118
100
AcDbEntity
8
0
100
AcDbCircle
10
-25.448727356353945
20
-277.61555896390644
30
0
40
1.6000000000000014
210
0
220
0
230
1
0
CIRCLE
5
119
100
AcDbEntity
8
0
100
AcDbCircle
10
23.551272643646037
20
-277.61555896390678
30
0
40
1.6000000000000014
210
0
220
0
230
1
0
CIRCLE
5
120
100
AcDbEntity
8
0
100
AcDbCircle
10
-25.448727356353583
20
-219.61555896390649
30
0
40
1.5999999999999923
210
0
220
0
230
1
0
CIRCLE
5
121
100
AcDbEntity
8
0
100
AcDbCircle
10
23.551272643646399
20
-219.61555896390681
30
0
40
1.6000000000000107
210
0
220
0
230
1
0
LINE
5
122
100
AcDbEntity
8
0
100
AcDbLine
10
0
20
-315
30
0
11
1.1842378752869807e-14
21
-305
31
0
6
DASHED
0
LINE
5
123
100
AcDbEntity
8
0
100
AcDbLine
10
1.1842378752869807e-14
20
-305
30
0
11
-36.499999985098846
21
-305
31
0
0
LINE
5
124
100
AcDbEntity
8
0
100
AcDbLine
10
1.1842378752869807e-14
20
-305
30
0
11
36.421586610183191
21
-305
31
0
0
LWPOLYLINE
5
125
100
AcDbEntity
8
0
100
AcDbPolyline
90
5
70
1
43
0.0
10
0
20
-315
10
-25
20
-314.99999999999994
10
-25.000000000000014
20
-325
10
-25
20
-335
10
-2.3503484240666087e-14
20
-335
0
LINE
5
126
100
AcDbEntity
8
0
100
AcDbLine
10
-25
20
-314.99999999999994
30
0
11
-35
21
-314.99999999999994
31
0
0
LINE
5
127
100
AcDbEntity
8
0
100
AcDbLine
10
-35
20
-314.99999999999994
30
0
11
-35
21
-350
31
0
0
LWPOLYLINE
5
128
100
AcDbEntity
8
0
100
AcDbPolyline
90
2
70
1
43
0.0
10
-29.087259041229451
20
-223.13518367398953
10
-26.08725904122856
20
-223.13518367398956
0
LWPOLYLINE
5
129
100
AcDbEntity
8
0
100
AcDbPolyline
90
2
70
1
43
0.0
10
23.912740958771522
20
-223.1351836739899
10
26.912740958772364
20
-223.1351836739899
0
LWPOLYLINE
5
130
100
AcDbEntity
8
0
100
AcDbPolyline
90
2
70
1
43
0.0
10
26.412740958771582
20
-223.13518367398996
10
20.412740958771579
20
-223.13518367398987
0
LWPOLYLINE
5
131
100
AcDbEntity
8
0
100
AcDbPolyline
90
2
70
1
43
0.0
10
-22.587259041228496
20
-223.13518367398962
10
-28.587259041228499
20
-223.13518367398956
0
LWPOLYLINE
5
132
100
AcDbEntity
8
0
100
AcDbPolyline
90
2
70
1
43
0.0
10
-23.517259041228542
20
-223.13518367398956
10
-25.117259041228547
20
-223.13518367398956
0
LWPOLYLINE
5
133
100
AcDbEntity
8
0
100
AcDbPolyline
90
2
70
1
43
0.0
10
-23.517259041228542
20
-223.13518367398956
10
-25.117259041228547
20
-223.13518367398956
0
LWPOLYLINE
5
134
100
AcDbEntity
8
0
100
AcDbPolyline
90
2
70
1
43
0.0
10
-23.517259041228542
20
-223.13518367398956
10
-25.117259041228547
20
-223.13518367398956
0
LWPOLYLINE
5
135
100
AcDbEntity
8
0
100
AcDbPolyline
90
2
70
1
43
0.0
10
-23.517259041228542
20
-223.13518367398956
10
-25.117259041228547
20
-223.13518367398956
0
LWPOLYLINE
5
136
100
AcDbEntity
8
0
100
AcDbPolyline
90
2
70
1
43
0.0
10
-26.057259041228512
20
-223.13518367398956
10
-27.657259041228514
20
-223.13518367398956
0
LWPOLYLINE
5
137
100
AcDbEntity
8
0
100
AcDbPolyline
90
2
70
1
43
0.0
10
-26.057259041228512
20
-223.13518367398956
10
-27.657259041228514
20
-223.13518367398956
0
LWPOLYLINE
5
138
100
AcDbEntity
8
0
100
AcDbPolyline
90
2
70
1
43
0.0
10
-26.057259041228512
20
-223.13518367398956
10
-27.657259041228514
20
-223.13518367398956
0
LWPOLYLINE
5
139
100
AcDbEntity
8
0
100
AcDbPolyline
90
2
70
1
43
0.0
10
-26.057259041228512
20
-223.13518367398956
10
-27.657259041228514
20
-223.13518367398956
0
LWPOLYLINE
5
140
100
AcDbEntity
8
0
100
AcDbPolyline
90
2
70
1
43
0.0
10
-26.057259041228512
20
-223.13518367398956
10
-27.657259041228514
20
-223.13518367398956
0
LWPOLYLINE
5
141
100
AcDbEntity
8
0
100
AcDbPolyline
90
2
70
1
43
0.0
10
-26.057259041228512
20
-223.13518367398956
10
-27.657259041228514
20
-223.13518367398956
0
LWPOLYLINE
5
142
100
AcDbEntity
8
0
100
AcDbPolyline
90
2
70
1
43
0.0
10
-26.057259041228512
20
-223.13518367398956
10
-27.657259041228514
20
-223.13518367398956
0
LWPOLYLINE
5
143
100
AcDbEntity
8
0
100
AcDbPolyline
90
2
70
1
43
0.0
10
-26.057259041228512
20
-223.13518367398956
10
-27.657259041228514
20
-223.13518367398956
0
LWPOLYLINE
5
144
100
AcDbEntity
8
0
100
AcDbPolyline
90
2
70
1
43
0.0
10
-26.057259041228512
20
-223.13518367398956
10
-27.657259041228514
20
-223.13518367398956
0
LWPOLYLINE
5
145
100
AcDbEntity
8
0
100
AcDbPolyline
90
2
70
1
43
0.0
10
-26.057259041228512
20
-223.13518367398956
10
-27.657259041228514
20
-223.13518367398956
0
LWPOLYLINE
5
146
100
AcDbEntity
8
0
100
AcDbPolyline
90
2
70
1
43
0.0
10
-23.517259041228542
20
-223.13518367398956
10
-25.117259041228547
20
-223.13518367398956
0
LWPOLYLINE
5
147
100
AcDbEntity
8
0
100
AcDbPolyline
90
2
70
1
43
0.0
10
-23.517259041228542
20
-223.13518367398956
10
-25.117259041228547
20
-223.13518367398956
0
LWPOLYLINE
5
148
100
AcDbEntity
8
0
100
AcDbPolyline
90
2
70
1
43
0.0
10
-23.517259041228542
20
-223.13518367398956
10
-25.117259041228547
20
-223.13518367398956
0
LWPOLYLINE
5
149
100
AcDbEntity
8
0
100
AcDbPolyline
90
2
70
1
43
0.0
10
-23.517259041228542
20
-223.13518367398956
10
-25.117259041228547
20
-223.13518367398956
0
LINE
5
150
100
AcDbEntity
8
0
100
AcDbLine
10
21.342740958771596
20
-229.80518367398992
30
0
11
22.942740958771601
21
-229.80518367398992
31
0
0
CIRCLE
5
151
100
AcDbEntity
8
0
100
AcDbCircle
10
-25.587259041228883
20
-282.13518367398962
30
0
40
3.0000000000000067
210
0
220
-0
230
1
0
CIRCLE
5
152
100
AcDbEntity
8
0
100
AcDbCircle
10
23.412740958771224
20
-282.13518367398996
30
0
40
3.0000000000000067
210
0
220
-0
230
1
0
CIRCLE
5
153
100
AcDbEntity
8
0
100
AcDbCircle
10
-25.587259041228478
20
-224.13518367398956
30
0
40
3.0000000000000067
210
0
220
-0
230
1
0
CIRCLE
5
154
100
AcDbEntity
8
0
100
AcDbCircle
10
23.412740958771636
20
-224.13518367398993
30
0
40
3.0000000000000067
210
0
220
-0
230
1
0
CIRCLE
5
155
100
AcDbEntity
8
0
100
AcDbCircle
10
22.142740958771583
20
-231.54518367398992
30
0
40
0.80000000000000171
210
0
220
-0
230
1
0
CIRCLE
5
156
100
AcDbEntity
8
0
100
AcDbCircle
10
22.142740958771547
20
-236.62518367398991
30
0
40
0.80000000000000171
210
0
220
-0
230
1
0
CIRCLE
5
157
100
AcDbEntity
8
0
100
AcDbCircle
10
22.142740958771512
20
-241.70518367398995
30
0
40
0.80000000000000171
210
0
220
-0
230
1
0
CIRCLE
5
158
100
AcDbEntity
8
0
100
AcDbCircle
10
22.142740958771476
20
-246.78518367398993
30
0
40
0.80000000000000171
210
0
220
-0
230
1
0
CIRCLE
5
159
100
AcDbEntity
8
0
100
AcDbCircle
10
22.142740958771441
20
-251.86518367398992
30
0
40
0.80000000000000171
210
0
220
-0
230
1
0
CIRCLE
5
160
100
AcDbEntity
8
0
100
AcDbCircle
10
22.142740958771405
20
-256.9451836739899
30
0
40
0.80000000000000171
210
0
220
-0
230
1
0
CIRCLE
5
161
100
AcDbEntity
8
0
100
AcDbCircle
10
22.14274095877137
20
-262.02518367398994
30
0
40
0.80000000000000171
210
0
220
-0
230
1
0
CIRCLE
5
162
100
AcDbEntity
8
0
100
AcDbCircle
10
22.142740958771334
20
-267.10518367398993
30
0
40
0.80000000000000171
210
0
220
-0
230
1
0
CIRCLE
5
163
100
AcDbEntity
8
0
100
AcDbCircle
10
22.142740958771299
20
-272.18518367398991
30
0
40
0.80000000000000171
210
0
220
-0
230
1
0
CIRCLE
5
164
100
AcDbEntity
8
0
100
AcDbCircle
10
22.142740958771263
20
-277.26518367398995
30
0
40
0.80000000000000171
210
0
220
-0
230
1
0
CIRCLE
5
165
100
AcDbEntity
8
0
100
AcDbCircle
10
24.682740958771284
20
-274.72518367398999
30
0
40
0.80000000000000171
210
0
220
-0
230
1
0
CIRCLE
5
166
100
AcDbEntity
8
0
100
AcDbCircle
10
24.682740958771319
20
-269.64518367398995
30
0
40
0.80000000000000171
210
0
220
-0
230
1
0
CIRCLE
5
167
100
AcDbEntity
8
0
100
AcDbCircle
10
24.682740958771355
20
-264.56518367398996
30
0
40
0.80000000000000171
210
0
220
-0
230
1
0
CIRCLE
5
168
100
AcDbEntity
8
0
100
AcDbCircle
10
24.68274095877139
20
-259.48518367398998
30
0
40
0.80000000000000171
210
0
220
-0
230
1
0
CIRCLE
5
169
100
AcDbEntity
8
0
100
AcDbCircle
10
24.682740958771426
20
-254.40518367398994
30
0
40
0.80000000000000171
210
0
220
-0
230
1
0
CIRCLE
5
170
100
AcDbEntity
8
0
100
AcDbCircle
10
24.682740958771461
20
-249.32518367398995
30
0
40
0.80000000000000171
210
0
220
-0
230
1
0
CIRCLE
5
171
100
AcDbEntity
8
0
100
AcDbCircle
10
24.682740958771497
20
-244.24518367398997
30
0
40
0.80000000000000171
210
0
220
-0
230
1
0
CIRCLE
5
172
100
AcDbEntity
8
0
100
AcDbCircle
10
24.682740958771532
20
-239.16518367398993
30
0
40
0.80000000000000171
210
0
220
-0
230
1
0
CIRCLE
5
173
100
AcDbEntity
8
0
100
AcDbCircle
10
24.682740958771568
20
-234.08518367398995
30
0
40
0.80000000000000171
210
0
220
-0
230
1
0
CIRCLE
5
174
100
AcDbEntity
8
0
100
AcDbCircle
10
24.682740958771603
20
-229.00518367398996
30
0
40
0.80000000000000171
210
0
220
-0
230
1
0
CIRCLE
5
175
100
AcDbEntity
8
0
100
AcDbCircle
10
24.682740958771589
20
-231.54518367398992
30
0
40
0.80000000000000171
210
0
220
-0
230
1
0
CIRCLE
5
176
100
AcDbEntity
8
0
100
AcDbCircle
10
24.682740958771554
20
-236.62518367398997
30
0
40
0.80000000000000171
210
0
220
-0
230
1
0
CIRCLE
5
177
100
AcDbEntity
8
0
100
AcDbCircle
10
24.682740958771518
20
-241.70518367398995
30
0
40
0.80000000000000171
210
0
220
-0
230
1
0
CIRCLE
5
178
100
AcDbEntity
8
0
100
AcDbCircle
10
24.682740958771483
20
-246.78518367398993
30
0
40
0.80000000000000171
210
0
220
-0
230
1
0
CIRCLE
5
179
100
AcDbEntity
8
0
100
AcDbCircle
10
24.682740958771447
20
-251.86518367398997
30
0
40
0.80000000000000171
210
0
220
-0
230
1
0
CIRCLE
5
180
100
AcDbEntity
8
0
100
AcDbCircle
10
24.682740958771411
20
-256.94518367398996
30
0
40
0.80000000000000171
210
0
220
-0
230
1
0
CIRCLE
5
181
100
AcDbEntity
8
0
100
AcDbCircle
10
24.682740958771376
20
-262.02518367398994
30
0
40
0.80000000000000171
210
0
220
-0
230
1
0
CIRCLE
5
182
100
AcDbEntity
8
0
100
AcDbCircle
10
24.68274095877134
20
-267.10518367398998
30
0
40
0.80000000000000171
210
0
220
-0
230
1
0
CIRCLE
5
183
100
AcDbEntity
8
0
100
AcDbCircle
10
24.682740958771305
20
-272.18518367398997
30
0
40
0.80000000000000171
210
0
220
-0
230
1
0
CIRCLE
5
184
100
AcDbEntity
8
0
100
AcDbCircle
10
24.682740958771269
20
-277.26518367398995
30
0
40
0.80000000000000171
210
0
220
-0
230
1
0
CIRCLE
5
185
100
AcDbEntity
8
0
100
AcDbCircle
10
22.142740958771281
20
-274.72518367398993
30
0
40
0.80000000000000171
210
0
220
-0
230
1
0
CIRCLE
5
186
100
AcDbEntity
8
0
100
AcDbCircle
10
22.142740958771316
20
-269.64518367398995
30
0
40
0.80000000000000171
210
0
220
-0
230
1
0
CIRCLE
5
187
100
AcDbEntity
8
0
100
AcDbCircle
10
22.142740958771352
20
-264.56518367398991
30
0
40
0.80000000000000171
210
0
220
-0
230
1
0
CIRCLE
5
188
100
AcDbEntity
8
0
100
AcDbCircle
10
22.142740958771387
20
-259.48518367398992
30
0
40
0.80000000000000171
210
0
220
-0
230
1
0
CIRCLE
5
189
100
AcDbEntity
8
0
100
AcDbCircle
10
22.142740958771423
20
-254.40518367398994
30
0
40
0.80000000000000171
210
0
220
-0
230
1
0
CIRCLE
5
190
100
AcDbEntity
8
0
100
AcDbCircle
10
22.142740958771459
20
-249.3251836739899
30
0
40
0.80000000000000171
210
0
220
-0
230
1
0
CIRCLE
5
191
100
AcDbEntity
8
0
100
AcDbCircle
10
22.142740958771494
20
-244.24518367398991
30
0
40
0.80000000000000171
210
0
220
-0
230
1
0
CIRCLE
5
192
100
AcDbEntity
8
0
100
AcDbCircle
10
22.14274095877153
20
-239.16518367398993
30
0
40
0.80000000000000171
210
0
220
-0
230
1
0
CIRCLE
5
193
100
AcDbEntity
8
0
100
AcDbCircle
10
22.142740958771565
20
-234.08518367398995
30
0
40
0.80000000000000171
210
0
220
-0
230
1
0
ENDSEC
0
SECTION
2
OBJECTS
0
DICTIONARY
5
C
100
AcDbDictionary
3
ACAD_GROUP
350
D
3
ACAD_MLINESTYLE
350
17
0
DICTIONARY
5
D
100
AcDbDictionary
0
DICTIONARY
5
1A
330
C
100
AcDbDictionary
0
DICTIONARY
5
17
100
AcDbDictionary
0
ENDSEC
0
EOF
